M48
INCH,TZ
VER,1
FMAT,2
DETECT,ON
ATC,ON
T1C0.03500
T2C0.03543
T3C0.03917
T4C0.03333
T5C0.07000
T6C0.04667
T7C0.03700
%
T1
X2.62442Y1.45558
Y1.35558
X0.10000Y2.48000
Y2.68000
Y2.58000
Y2.78000
X0.20000Y2.68000
Y2.58000
Y2.78000
X0.10000Y2.88000
X0.20000
X1.24000Y2.24000
X1.14000
X1.54000
X1.44000
X1.34000
X1.74000
X1.64000
X1.84000
X2.24000
X2.04000
X1.94000
X2.14000
X2.34000
X1.24000Y2.54000
X1.04000
X1.14000
X1.44000
X1.34000
X1.54000
X1.74000
X1.64000
X1.84000
X2.04000
X1.94000
X2.14000
X2.34000
X2.24000
X1.24442Y1.47558
Y1.37558
X1.24000Y0.78000
X0.94000
X0.84000
X1.14000
X1.04000
X1.54000
X1.44000
X1.34000
X1.64000
X1.24000Y1.84000
X0.80442Y1.37558
Y1.47558
X0.36000Y1.84000
Y1.38000
Y1.48000
X0.80000Y1.84000
X1.90000Y0.78000
X1.70442Y1.37558
Y1.47558
X1.62000Y1.84000
X2.14000
X2.14442Y1.37558
Y1.47558
X1.24000Y3.58000
Y3.48000
X0.62340Y2.72704
X0.98481
X0.80410
X1.16551
X0.76000Y3.32000
Y3.58000
X1.98000Y3.48000
Y3.58000
X1.52692Y2.72704
X1.34621
X1.70000Y2.72000
X3.54074Y2.48297
X3.84074
X3.54074Y2.38297
Y2.28297
X3.84074Y2.38297
Y2.28297
X3.54074Y2.68297
Y2.58297
Y2.78297
Y2.88297
X3.84074Y2.68297
Y2.58297
Y2.78297
Y2.98297
Y2.88297
X3.38074Y2.48297
Y2.38297
Y2.28297
Y2.68297
Y2.58297
Y2.78297
Y2.98297
Y2.88297
Y3.08297
X3.08442Y1.45558
Y1.35558
X3.52442Y1.45558
Y1.35558
X3.11370Y2.06074
Y2.42215
Y2.24145
X3.08000Y1.84000
X2.62000
X3.52000Y1.82000
X3.04000Y3.62000
Y3.52000
X3.12000Y3.30000
X3.11370Y3.14496
Y2.96426
Y2.78356
Y2.60285
T2
X2.22000Y3.58000
X2.77118
T3
X0.20000Y2.48000
T4
X1.04000Y2.24000
X2.20000Y0.78000
X3.54074Y2.98297
T5
X0.22000Y0.70000
Y3.64000
X3.98000Y0.70000
Y3.66000
T6
X1.56250Y3.58250
X1.46250
X1.66250
T7
X1.74000Y1.99000
X3.59000
X1.84000Y2.13000
X2.85000
X1.94000Y2.06000
X2.95000
X1.64000Y2.12000
X0.10000
X2.04000Y2.98000
X0.32000
X1.94000Y2.88000
X0.31000
X2.14000Y2.62000
X0.37000Y2.58000
X2.67000Y2.24000
X2.66000Y3.30000
M30
