%FSLAX23Y23*%
%MOMM*%
%SFA1B1*%

%IPPOS*%
%ADD10C,7.599985*%
%ADD11C,0.999998*%
%ADD12C,1.999996*%
%ADD13C,1.499997*%
%ADD14C,0.549999*%
%ADD15O,1.999996X2.999994*%
%ADD16C,4.599991*%
%ADD17C,1.999996*%
%ADD18R,1.999996X1.999996*%
%ADD19R,1.849996X1.849996*%
%ADD20C,1.849996*%
%ADD21C,2.999994*%
%ADD22O,1.999996X5.999988*%
%ADD23R,1.999996X5.999988*%
%ADD24C,4.999990*%
%ADD25C,0.250000*%
%LNTBBL-1*%
%LPD*%
G54D10*
X145189Y94309D03*
X106499D03*
X119429Y94359D03*
X132359Y94309D03*
G54D11*
X151129Y106929D02*
X153039D01*
X149729Y105539D02*
X151129Y106929D01*
X138329D02*
X140339D01*
X137029Y105639D02*
X138329Y106929D01*
X125879D02*
X127639D01*
X124329Y105379D02*
X125879Y106929D01*
X113129D02*
X115949D01*
X111629Y105439D02*
X113129Y106929D01*
X96009Y56239D02*
Y71199D01*
X144959Y114119D02*
X147189Y111889D01*
X99159Y114119D02*
X144959D01*
X92739Y107699D02*
X99159Y114119D01*
X92739Y87579D02*
Y107699D01*
Y74469D02*
Y78709D01*
X93469Y56239D02*
Y70819D01*
X131469Y112369D02*
X134489Y109349D01*
Y109169D02*
Y109349D01*
X100839Y112369D02*
X131469D01*
X95709Y107239D02*
X100839Y112369D01*
X90139Y85369D02*
X95629D01*
X90139Y74139D02*
Y78659D01*
X90929Y56239D02*
Y70539D01*
X119579Y110289D02*
X121789Y108079D01*
X101629Y110289D02*
X119579D01*
X97409Y106069D02*
X101629Y110289D01*
X87579Y83259D02*
X97379Y83339D01*
X87579Y73889D02*
Y78709D01*
X88389Y56239D02*
Y70129D01*
X101649Y102439D02*
X103709D01*
X98929Y99719D02*
X101649Y102439D01*
X122329Y81199D02*
Y81939D01*
X135029Y81199D02*
Y81639D01*
X147729Y81199D02*
Y81459D01*
X96009Y53699D02*
X98549D01*
X103629D02*
X106169D01*
X108709*
X117249Y75149D02*
X117289Y75109D01*
X129949Y75149D02*
X129989Y75109D01*
X129949Y81179D02*
Y81199D01*
Y81279*
X129929Y81189D02*
X129949Y81199D01*
X142649D02*
X142689Y81159D01*
X129929Y81189D02*
X129949Y81199D01*
Y75149D02*
X129989Y75109D01*
X117249Y75149D02*
X117289Y75109D01*
X129929Y81189D02*
X129949Y81199D01*
X129929Y81189D02*
X129949Y81199D01*
Y75149D02*
X129989Y75109D01*
X129949Y75149D02*
X129989Y75109D01*
X117249Y75149D02*
X117289Y75109D01*
X117249Y75149D02*
X117289Y75109D01*
X147729Y81199D02*
Y81459D01*
X135029Y81199D02*
Y81639D01*
X122329Y81199D02*
Y81939D01*
X104549Y75659D02*
X104589Y75619D01*
X140339Y98759D02*
Y99309D01*
X80699Y56619D02*
Y100609D01*
Y56619D02*
X83619Y53699D01*
X88389*
X93469D02*
X96009D01*
X66449Y96899D02*
X66499Y96849D01*
X71679Y94869D02*
X73479Y93069D01*
X76069*
X78539Y52579D02*
X85519Y45589D01*
X88849*
X90929Y47679*
X78539Y52579D02*
Y90599D01*
X76069Y93069D02*
X78539Y90599D01*
X90909Y53669D02*
X90929Y53699D01*
Y47679D02*
Y53699D01*
X75009Y89229D02*
X76229Y88009D01*
Y50649D02*
X83819Y43049D01*
X98089*
X101089Y46049*
X74119Y89229D02*
X75009D01*
X98549Y53699D02*
X103629D01*
X69189Y89229D02*
X76229Y82189D01*
X66499Y89229D02*
X69189D01*
X76229Y50649D02*
Y88009D01*
X101089Y46049D02*
Y53699D01*
X134989Y75109D02*
X135029Y75149D01*
X147689Y75109D02*
X147729Y75149D01*
X67719Y92659D02*
X68859Y93799D01*
X64189Y92659D02*
X67719D01*
X63019Y91489D02*
X64189Y92659D01*
X63019Y87929D02*
Y91489D01*
Y87929D02*
X65229Y85719D01*
X68939*
X73939Y80719*
Y49349D02*
Y80719D01*
X68859Y93799D02*
X68989D01*
X60579Y94739D02*
X61849Y96009D01*
X60579Y87429D02*
Y94739D01*
Y87429D02*
X64259Y83739D01*
X67639*
X71649Y79729*
Y47879D02*
Y79729D01*
X61849Y96009D02*
Y96109D01*
X98929Y81359D02*
Y99719D01*
X98909Y81329D02*
X98929Y81359D01*
X84679Y73839D02*
X88389Y70129D01*
X84679Y73839D02*
Y79219D01*
X86789Y81329*
X98909*
X97379Y83339D02*
X97409Y83359D01*
Y106069*
X87579Y73889D02*
X90929Y70539D01*
X95629Y85369D02*
X95709Y85449D01*
Y107239*
X90139Y74139D02*
X93469Y70819D01*
X92739Y74469D02*
X96009Y71199D01*
X115799Y64849D02*
X118749Y61899D01*
X108709Y62709D02*
X110849Y64849D01*
X115799*
X110849Y40509D02*
X118749Y48409D01*
X73939Y49349D02*
X82779Y40509D01*
X110849*
X118749Y48409D02*
Y50719D01*
Y56309D02*
Y61899D01*
X108709Y56239D02*
Y62709D01*
X118289Y66419D02*
X122709Y61999D01*
X106169Y63959D02*
X108639Y66419D01*
X118289*
X113079Y38149D02*
X122759Y47829D01*
X81379Y38149D02*
X113079D01*
X71649Y47879D02*
X81379Y38149D01*
X122759Y47829D02*
Y50799D01*
X122709Y56289D02*
Y61999D01*
X106169Y56239D02*
Y63959D01*
G54D12*
X149729Y102439D02*
Y105539D01*
X137029Y102439D02*
Y105639D01*
X124329Y102439D02*
Y105379D01*
X111629Y102439D02*
Y105439D01*
X147189Y102439D02*
Y112219D01*
X134489Y102439D02*
Y109169D01*
X121789Y102439D02*
Y108079D01*
X103709Y102439D02*
X109089D01*
X122329Y81939D02*
X123769Y83389D01*
X135029Y81639D02*
X136679Y83289D01*
X147729Y81459D02*
X149559Y83289D01*
X136679D02*
X136729Y94339D01*
X149559Y83289D02*
Y94309D01*
X115039Y83409D02*
X117249Y81199D01*
Y75149D02*
Y81199D01*
X142689Y75109D02*
Y81159D01*
X115039Y83409D02*
Y94339D01*
X129989Y75109D02*
Y81239D01*
X147679Y53699D02*
X155039Y61059D01*
X104549Y75659D02*
Y81199D01*
X128019Y94279D02*
Y97989D01*
X129339Y99309*
X140819Y94279D02*
Y98169D01*
X141959Y99309*
X102109Y97689D02*
X103729Y99309D01*
X102109Y83639D02*
X104549Y81199D01*
X115039Y94339D02*
Y97759D01*
X116589Y99309*
X103729D02*
X155039D01*
X78869Y102439D02*
X80699Y100609D01*
X76759Y102439D02*
X78869D01*
X127989Y83229D02*
Y94029D01*
X123769Y83389D02*
X123799Y94409D01*
X102109Y83639D02*
Y97689D01*
X128019Y83209D02*
X129949Y81279D01*
X140819Y83029D02*
Y94279D01*
Y83029D02*
X142689Y81159D01*
X109589D02*
X110819Y82399D01*
Y94279*
X66449Y96899D02*
Y102439D01*
X71679Y100459D02*
Y102439D01*
X74119Y96849D02*
X74219Y96949D01*
Y102439*
X71679Y94869D02*
Y102439D01*
X155039Y61059D02*
Y99309D01*
X93469Y53699D02*
X147679D01*
X122329Y75149D02*
Y81939D01*
X135029Y75149D02*
Y81639D01*
X147729Y75149D02*
Y81459D01*
X109629Y75659D02*
Y81199D01*
X61849Y96109D02*
X63909Y98169D01*
X68989Y93799D02*
Y102439D01*
X63909Y98169D02*
Y102439D01*
X44419Y51609D02*
Y71779D01*
X41679Y54049D02*
X62099D01*
X39039Y77009D02*
X66829D01*
X66849Y49199*
X39069Y49229D02*
X66849Y49199D01*
X39039Y77009D02*
X39069Y49229D01*
X48949Y51609D02*
Y66139D01*
G54D13*
X98549Y70939D02*
X100359Y72749D01*
X119919*
X98549Y56239D02*
Y70939D01*
X119919Y72749D02*
X122329Y75149D01*
X101089Y69159D02*
X102719Y70789D01*
X133579*
X134989Y72199*
Y75109*
X101089Y56239D02*
Y69159D01*
X103629Y66829D02*
X105379Y68579D01*
X146409*
X147689Y69859*
Y75109*
X103629Y56239D02*
Y66829D01*
X109589Y75619D02*
X109629Y75659D01*
X109589Y75619D02*
X110069Y75129D01*
X112999Y56239D02*
X114299Y57529D01*
X111249Y56239D02*
X112999D01*
X110069Y75129D02*
X114299D01*
Y57529D02*
Y62259D01*
G54D14*
X42529Y46449D02*
X42099Y46869D01*
X41259*
X40839Y46449*
Y46029*
X41259Y45609*
X42099*
X42529Y45189*
Y44769*
X42099Y44349*
X41259*
X40839Y44769*
X43369Y46869D02*
X44209D01*
X43789*
Y44349*
X43369*
X44209*
X45469Y46869D02*
Y44349D01*
X47149*
X47989Y46869D02*
Y45189D01*
X48829Y44349*
X49669Y45189*
Y46869*
X52199D02*
X50519D01*
Y44349*
X52199*
X50519Y45609D02*
X51359D01*
X53039Y44349D02*
Y46869D01*
X54299*
X54719Y46449*
Y45609*
X54299Y45189*
X53039*
X53879D02*
X54719Y44349D01*
X57239Y46869D02*
X55559D01*
Y45609*
X56399*
X55559*
Y44349*
X59349Y46869D02*
X58509D01*
X58079Y46449*
Y44769*
X58509Y44349*
X59349*
X59769Y44769*
Y46449*
X59349Y46869*
X60609D02*
Y44349D01*
X62289*
X63129Y46869D02*
Y44349D01*
Y45189*
X64809Y46869*
X63549Y45609*
X64809Y44349*
G54D15*
X111629Y102439D03*
X109089D03*
X63909D03*
X66449D03*
X71679D03*
X74219D03*
X76759D03*
X74219D03*
X121789D03*
X124329D03*
X134489D03*
X137029D03*
X147189D03*
X149729D03*
X66449D03*
X68989D03*
G54D16*
X109499Y25779D03*
X122329D03*
X135029D03*
X147729D03*
X66449Y26009D03*
X73939D03*
G54D17*
X66499Y96849D03*
Y89229D03*
X74119Y96849D03*
Y89229D03*
X115949Y106929D03*
Y99309D03*
X127639Y106929D03*
Y99309D03*
X140339Y106929D03*
Y99309D03*
X153039Y106929D03*
Y99309D03*
X142689Y75109D03*
X129989D03*
X117289D03*
X104589Y75619D03*
X88389Y53699D03*
X90929Y56239D03*
Y53699D03*
X93469Y56239D03*
Y53699D03*
X96009Y56239D03*
Y53699D03*
X98549Y56239D03*
Y53699D03*
X101089Y56239D03*
Y53699D03*
X103629Y56239D03*
Y53699D03*
X106169Y56239D03*
Y53699D03*
X108709Y56239D03*
Y53699D03*
X111249Y56239D03*
Y53699D03*
X104549Y81199D03*
X117249D03*
X129949Y81179D03*
X142649Y81199D03*
X147729D03*
X135029D03*
X109629D03*
X114299Y75129D03*
Y62259D03*
X90139Y85369D03*
Y78659D03*
X92739Y87579D03*
Y78709D03*
X87579D03*
Y83259D03*
X122709Y56289D03*
X122759Y50799D03*
X118749Y56309D03*
Y50719D03*
G54D18*
X147689Y75109D03*
X134989D03*
X122289D03*
X109589Y75619D03*
X88389Y56239D03*
G54D19*
X104549Y81199D03*
X117249D03*
X129949D03*
X142649D03*
G54D20*
X109629Y81199D03*
X122329D03*
X135029D03*
X147729D03*
G54D21*
X102109Y94279D03*
X115039Y94339D03*
X128019Y94279D03*
X140819D03*
X149559Y94309D03*
X136729Y94339D03*
X123799Y94409D03*
X110819Y94279D03*
G54D22*
X111249Y51709D03*
X108709Y51659D03*
X106169Y51739D03*
X101119Y51659D03*
X103629Y51589D03*
X98549Y51659D03*
X96009D03*
X93499D03*
X103629Y58219D03*
X101089D03*
X98629Y58239D03*
X111229Y58289D03*
X106169Y58269D03*
X108709Y58139D03*
X90929Y51739D03*
X88389D03*
X90929Y58239D03*
X93499Y58269D03*
X96009Y58219D03*
G54D23*
X88389Y58289D03*
G54D24*
X44419Y71779D03*
X48949Y66139D03*
X62099Y54049D03*
G54D25*
X43179Y32459D02*
X152269D01*
X33169Y36499D02*
X43179D01*
Y32459D02*
Y36499D01*
X33149Y114929D02*
X33169Y36499D01*
X33149Y114929D02*
X43179D01*
Y118869*
X152269*
Y115059D02*
Y118869D01*
Y115059D02*
X162309D01*
X152269Y32459D02*
Y36369D01*
X162359*
X162309Y115059D02*
X162359Y36369D01*
M02*