%FSLAX23Y23*%
%MOMM*%
%SFA1B1*%

%IPPOS*%
%ADD10C,7.599985*%
%ADD11C,0.999998*%
%ADD12C,1.999996*%
%ADD13C,1.499997*%
%ADD14O,1.999996X5.999988*%
%ADD15R,1.999996X5.999988*%
%ADD16C,1.999996*%
%ADD17C,2.999994*%
%ADD18R,1.999996X1.999996*%
%ADD19C,1.849996*%
%ADD20R,1.849996X1.849996*%
%ADD21O,1.999996X2.999994*%
%ADD22O,1.399997X1.999996*%
%ADD23C,4.599991*%
%ADD24C,0.250000*%
%LNtop-1*%
%LPD*%
G54D10*
X107089Y94179D03*
X119789D03*
X132489D03*
X145189D03*
G54D11*
X134589Y46579D02*
Y52019D01*
X96189Y51309D02*
X111399D01*
X111429Y51329*
Y46629D02*
Y51329D01*
Y46629D02*
X113109Y44959D01*
X132969*
X134589Y46579*
X137159Y46149D02*
Y51989D01*
X109499Y46179D02*
Y49069D01*
Y46179D02*
X112549Y43129D01*
X94359Y49099D02*
X109469D01*
X92129Y51329D02*
X94359Y49099D01*
X109469D02*
X109499Y49069D01*
X112549Y43129D02*
X134139D01*
X137159Y46149*
X74069Y96599D02*
X74119Y96649D01*
Y102009*
X66339Y96699D02*
X66449Y96599D01*
X66339Y96699D02*
Y101879D01*
Y96699D02*
Y101879D01*
Y96699D02*
X66449Y96599D01*
X66339Y96699D02*
Y101879D01*
Y96699D02*
Y101879D01*
Y96699D02*
Y101879D01*
Y96699D02*
Y101879D01*
Y96699D02*
X66449Y96599D01*
X66339Y96699D02*
X66449Y96599D01*
X66339Y96699D02*
X66449Y96599D01*
X66339Y96699D02*
X66449Y96599D01*
X74119Y96649D02*
Y102009D01*
X74069Y96599D02*
X74119Y96649D01*
Y102009*
Y96649D02*
Y102009D01*
Y96649D02*
Y102009D01*
Y96649D02*
Y102009D01*
X74069Y96599D02*
X74119Y96649D01*
X74069Y96599D02*
X74119Y96649D01*
X74069Y96599D02*
X74119Y96649D01*
X74069Y96599D02*
X74119Y96649D01*
X109589Y75009D02*
X109629Y75049D01*
X122289Y75009D02*
X122329Y75049D01*
X134989Y75009D02*
X135029Y75049D01*
X109589Y75009D02*
X109629Y75049D01*
X109589Y75009D02*
X109629Y75049D01*
X109589Y75009D02*
X109629Y75049D01*
X122289Y75009D02*
X122329Y75049D01*
X147689Y75509D02*
X147729Y75549D01*
X146199Y108279D02*
X147979Y106499D01*
Y102439D02*
Y106499D01*
X144679Y108279D02*
X146199D01*
X134489D02*
X136299Y106479D01*
Y102439D02*
Y106479D01*
X132989Y108279D02*
X134489D01*
X121839D02*
X123599Y106529D01*
Y102439D02*
Y106529D01*
X120289Y108279D02*
X121839D01*
X109139D02*
X110899Y106529D01*
Y102439D02*
Y106529D01*
X107089Y108279D02*
X109139D01*
X113439Y109069D02*
X118259Y113889D01*
X156849*
X160579Y110159*
X126239Y102539D02*
Y107919D01*
X130729Y112419*
X154839*
X158899Y108359*
X126139Y102439D02*
X126239Y102539D01*
X138839Y108939D02*
X140669Y110769D01*
X153999*
X157199Y107569*
X129949Y75049D02*
X129989Y75009D01*
X117249Y75049D02*
X117289Y75009D01*
X104549Y75049D02*
X104589Y75009D01*
X132079Y63039D02*
X134519Y65479D01*
X150009*
X132079Y58499D02*
Y63039D01*
X132989Y100609D02*
Y100659D01*
X120289Y100579D02*
Y100659D01*
X153289Y102439D02*
X155269Y100459D01*
X122329Y81099D02*
X122339Y81089D01*
X133049Y100609D02*
X134859Y98789D01*
X132589Y100609D02*
X133049D01*
X120289Y100579D02*
X122049Y98829D01*
X120289Y100579D02*
Y100659D01*
X144679D02*
X145589D01*
X60579Y88979D02*
X74069D01*
X58599Y98479D02*
X61999Y101879D01*
X58599Y94789D02*
Y98479D01*
Y94789D02*
X62079Y91309D01*
X76579*
X91899Y56849D02*
Y75999D01*
X76579Y91309D02*
X91899Y75999D01*
X61999Y101879D02*
X63799D01*
X68879Y94669D02*
X70509Y93039D01*
X77369*
X96269Y56739D02*
Y74139D01*
X68879Y94669D02*
Y101879D01*
X77369Y93039D02*
X96269Y74139D01*
X71579Y95149D02*
X72009Y94719D01*
X78459*
X99619Y73559*
Y67459D02*
Y73559D01*
Y67459D02*
X104599Y62479D01*
X114909*
X116839Y60549*
X71579Y95149D02*
Y102009D01*
X116839Y56539D02*
Y60549D01*
X115899Y64519D02*
X119379Y61039D01*
X105129Y64519D02*
X115899D01*
X102009Y67639D02*
X105129Y64519D01*
X102009Y67639D02*
Y73459D01*
X79199Y96269D02*
X102009Y73459D01*
X79199Y96269D02*
Y100379D01*
X77569Y102009D02*
X79199Y100379D01*
X76659Y102009D02*
X77569D01*
X119379Y56539D02*
Y61039D01*
X91849Y51329D02*
X92129D01*
X142649Y75549D02*
X142689Y75509D01*
X134389Y68329D02*
X150109D01*
X129539Y57629D02*
Y63469D01*
X134389Y68329*
X113439Y102439D02*
Y109069D01*
X160579Y68429D02*
Y110159D01*
X158899Y65479D02*
Y108359D01*
X157199Y62789D02*
X157249Y62739D01*
X138839Y102439D02*
Y108939D01*
X157199Y62789D02*
Y107569D01*
X134619Y60989D02*
X136369Y62739D01*
X150109*
X134619Y56539D02*
Y60989D01*
X107059Y56569D02*
X107089Y56539D01*
X150519Y102439D02*
X153289D01*
X155269Y59969D02*
Y100459D01*
X140559Y59939D02*
X150109D01*
X137129Y56539D02*
X137159D01*
X140559Y59939*
G54D12*
X140999Y90319D02*
X142649Y88669D01*
X128299Y90449D02*
X129949Y88799D01*
X115469Y90499D02*
X117249Y88719D01*
X102769Y90549D02*
X104549Y88769D01*
X149499Y94179D02*
X149529Y90499D01*
X147729Y88699D02*
X149529Y90499D01*
X147729Y75549D02*
Y88699D01*
X128299Y90449D02*
Y94179D01*
X129949Y75049D02*
Y88799D01*
X115469Y90499D02*
Y94179D01*
X117249Y75049D02*
Y88719D01*
X102769Y90549D02*
Y94059D01*
X104549Y75049D02*
Y88769D01*
X145589Y100659D02*
X149499Y96749D01*
Y94179D02*
Y96749D01*
X132989Y100609D02*
X136799Y96799D01*
X120289Y100579D02*
X123979Y96899D01*
Y94179D02*
Y96899D01*
X135029Y88339D02*
X136799Y90119D01*
Y94059*
Y96799*
X135029Y75049D02*
Y88339D01*
X122329Y88419D02*
X123979Y90069D01*
Y94179*
X122329Y75049D02*
Y88419D01*
X109629Y88599D02*
X111279Y90249D01*
Y94179*
X109629Y75049D02*
Y88599D01*
X134859Y98789D02*
X142809D01*
X130809Y98829D02*
X132589Y100609D01*
X122049Y98829D02*
X130809D01*
X142809Y98789D02*
X144679Y100659D01*
X90929Y113769D02*
X104039Y100659D01*
X61089Y113769D02*
X90929D01*
X51229Y103909D02*
X61089Y113769D01*
X51229Y60729D02*
X57959Y53999D01*
X116839D02*
X121919D01*
X126999*
X118549Y98909D02*
X120289Y100659D01*
X109269Y98909D02*
X118549D01*
X111279Y94179D02*
Y96899D01*
X126999Y53999D02*
X132079D01*
X107519Y100659D02*
X111279Y96899D01*
X51229Y79629D02*
X60579Y88979D01*
X57959Y53999D02*
X116839D01*
X104039Y100659D02*
X107519D01*
X51229Y60729D02*
Y103909D01*
X140999Y90319D02*
Y94179D01*
X142649Y75549D02*
Y88669D01*
G54D13*
X127029Y68479D02*
X129989Y71439D01*
Y75009*
X127029Y57629D02*
Y68479D01*
X117909Y75009D02*
X124489Y68429D01*
Y57629D02*
Y68429D01*
X117289Y75009D02*
X117909D01*
X120289Y68379D02*
X121919Y66749D01*
X107799Y68379D02*
X120289D01*
X104589Y71589D02*
X107799Y68379D01*
X104589Y71589D02*
Y75009D01*
X121919Y57629D02*
Y66749D01*
X107009Y44269D02*
X110719Y40559D01*
X143229Y75509D02*
X146629Y72109D01*
X150439*
X152679Y69879*
Y45619D02*
Y69879D01*
X147619Y40559D02*
X152679Y45619D01*
X142689Y75509D02*
X143229D01*
X107009Y44269D02*
Y46859D01*
X110719Y40559D02*
X147619D01*
X107089Y56539D02*
X114299D01*
G54D14*
X114299Y52039D03*
X116869Y58519D03*
X129569Y52019D03*
X121869D03*
X129569Y58519D03*
X132079Y58499D03*
X134589Y58449D03*
X137159Y51989D03*
X134589Y52019D03*
X119379Y58549D03*
X114269D03*
X126999Y58519D03*
X124459D03*
X121869Y58549D03*
X132079Y52019D03*
X127029Y51919D03*
X124459Y51969D03*
X119379Y52019D03*
X116809D03*
G54D15*
X137159Y58389D03*
G54D16*
X142649Y81099D03*
X117249D03*
X104549D03*
X147729D03*
X135029D03*
X122329Y81079D03*
X109629Y81099D03*
X114299Y53999D03*
Y56539D03*
X116839Y53999D03*
Y56539D03*
X119379Y53999D03*
Y56539D03*
X121919Y53999D03*
Y56539D03*
X124459Y53999D03*
Y56539D03*
X126999Y53999D03*
Y56539D03*
X129539Y53999D03*
Y56539D03*
X132079Y53999D03*
Y56539D03*
X134619Y53999D03*
Y56539D03*
X137159Y53999D03*
X147689Y75509D03*
X134989Y75009D03*
X122289D03*
X109589D03*
X107089Y100659D03*
Y108279D03*
X120289Y100659D03*
Y108279D03*
X132989Y100659D03*
Y108279D03*
X144679Y100659D03*
X66449Y88979D03*
Y96599D03*
X74069Y88979D03*
Y96599D03*
X150109Y68329D03*
X160579Y68429D03*
X158899Y65479D03*
X150009D03*
X107009Y46859D03*
X107059Y56569D03*
X91799Y56739D03*
X91849Y51329D03*
X96269Y56739D03*
X96189Y51309D03*
X157249Y62739D03*
X150109D03*
X155299Y59939D03*
X150109D03*
G54D17*
X140999Y94179D03*
X128299D03*
X115469D03*
X102769Y94059D03*
X149499Y94179D03*
X136799Y94059D03*
X123979Y94179D03*
X111279D03*
G54D18*
X137159Y56539D03*
X142689Y75509D03*
X129989Y75009D03*
X117289D03*
X104589D03*
G54D19*
X104549Y81099D03*
X117249D03*
X129949D03*
X142649D03*
G54D20*
X109629Y81099D03*
X122329D03*
X135029D03*
X147729D03*
G54D21*
X110899Y102439D03*
X113439D03*
X123599D03*
X126139D03*
X136299D03*
X138839D03*
X66339Y101879D03*
X63799D03*
X66339D03*
X68879D03*
X74119Y102009D03*
X71579D03*
X74119D03*
X76659D03*
X150519Y102439D03*
X147979D03*
G54D22*
X144679Y108279D03*
G54D23*
X73939Y26009D03*
X66449D03*
X147729Y25779D03*
X135029D03*
X122329D03*
X109499D03*
G54D24*
X162309Y115059D02*
X162359Y36369D01*
X152269D02*
X162359D01*
X152269Y32459D02*
Y36369D01*
Y115059D02*
X162309D01*
X152269D02*
Y118869D01*
X43179D02*
X152269D01*
X43179Y114929D02*
Y118869D01*
X33149Y114929D02*
X43179D01*
X33149D02*
X33169Y36499D01*
X43179Y32459D02*
Y36499D01*
X33169D02*
X43179D01*
Y32459D02*
X152269D01*
M02*