%FSLAX23Y23*%
%MOMM*%
%SFA1B1*%

%IPPOS*%
%ADD10C,9.999980*%
%ADD11C,4.599991*%
%ADD12C,0.549999*%
%ADD13C,0.349999*%
%ADD14C,0.230000*%
%ADD15C,0.250000*%
%LNtopcover-1*%
%LPD*%
G54D10*
X88899Y94359D03*
X76199D03*
X63499D03*
X50799D03*
G54D11*
X45719Y102619D03*
X58419D03*
X71119D03*
X83819D03*
X129539Y102109D03*
X121919D03*
G54D12*
X112009Y82679D02*
X140969D01*
X45719D02*
X92839D01*
G54D13*
X95259Y83349D02*
X94969Y83639D01*
X94389*
X94109Y83349*
Y83059*
X94389Y82779*
X94969*
X95259Y82489*
Y82199*
X94969Y81919*
X94389*
X94109Y82199*
X95829Y83639D02*
X96399D01*
X96119*
Y81919*
X95829*
X96399*
X97269Y83639D02*
Y81919D01*
X98419*
X98989Y83639D02*
Y82489D01*
X99559Y81919*
X100139Y82489*
Y83639*
X101859D02*
X100709D01*
Y81919*
X101859*
X100709Y82779D02*
X101289D01*
X102439Y81919D02*
Y83639D01*
X103299*
X103589Y83349*
Y82779*
X103299Y82489*
X102439*
X103009D02*
X103589Y81919D01*
X105879D02*
Y83639D01*
X106749*
X107029Y83349*
Y82779*
X106749Y82489*
X105879*
X107609Y81919D02*
Y83639D01*
X108469*
X108759Y83349*
Y82779*
X108469Y82489*
X107609*
X108179D02*
X108759Y81919D01*
X110189Y83639D02*
X109619D01*
X109329Y83349*
Y82199*
X109619Y81919*
X110189*
X110479Y82199*
Y83349*
X110189Y83639*
X85089Y84709D02*
Y86429D01*
X85949*
X86239Y86149*
Y85569*
X85949Y85279*
X85089*
X85659D02*
X86239Y84709D01*
X87959Y86429D02*
X86809D01*
Y84709*
X87959*
X86809Y85569D02*
X87389D01*
X89689Y86149D02*
X89399Y86429D01*
X88819*
X88539Y86149*
Y85859*
X88819Y85569*
X89399*
X89689Y85279*
Y84999*
X89399Y84709*
X88819*
X88539Y84999*
X91409Y86429D02*
X90259D01*
Y84709*
X91409*
X90259Y85569D02*
X90829D01*
X91979Y86429D02*
X93129D01*
X92559*
Y84709*
X72009Y86149D02*
X71729Y86429D01*
X71149*
X70869Y86149*
Y84999*
X71149Y84709*
X71729*
X72009Y84999*
X72589Y86429D02*
Y84999D01*
X72879Y84709*
X73449*
X73739Y84999*
Y86429*
X74309Y84709D02*
Y86429D01*
X75169*
X75459Y86149*
Y85569*
X75169Y85279*
X74309*
X74889D02*
X75459Y84709D01*
X76039D02*
Y86429D01*
X76899*
X77189Y86149*
Y85569*
X76899Y85279*
X76039*
X76609D02*
X77189Y84709D01*
X78909Y86429D02*
X77759D01*
Y84709*
X78909*
X77759Y85569D02*
X78329D01*
X79479Y84709D02*
Y86429D01*
X80629Y84709*
Y86429*
X81209D02*
X82359D01*
X81779*
Y84709*
X60839Y86149D02*
X60549Y86429D01*
X59979*
X59689Y86149*
Y85859*
X59979Y85569*
X60549*
X60839Y85279*
Y84999*
X60549Y84709*
X59979*
X59689Y84999*
X61409Y86429D02*
X62559D01*
X61989*
Y84709*
X63139D02*
Y85859D01*
X63709Y86429*
X64289Y85859*
Y84709*
Y85569*
X63139*
X64859Y84709D02*
Y86429D01*
X65719*
X66009Y86149*
Y85569*
X65719Y85279*
X64859*
X65429D02*
X66009Y84709D01*
X66579Y86429D02*
X67729D01*
X67159*
Y84709*
X47749D02*
Y86429D01*
X48329Y85859*
X48899Y86429*
Y84709*
X50339Y86429D02*
X49759D01*
X49479Y86149*
Y84999*
X49759Y84709*
X50339*
X50619Y84999*
Y86149*
X50339Y86429*
X51199D02*
Y84709D01*
X52059*
X52349Y84999*
Y86149*
X52059Y86429*
X51199*
X54069D02*
X52919D01*
Y84709*
X54069*
X52919Y85569D02*
X53499D01*
X74799Y104689D02*
X75089Y104969D01*
X75659*
X75949Y104689*
Y104399*
X75659Y104109*
X75379*
X75659*
X75949Y103829*
Y103539*
X75659Y103249*
X75089*
X74799Y103539*
X63249Y103249D02*
X62099D01*
X63249Y104399*
Y104689*
X62959Y104969*
X62389*
X62099Y104689*
X49909Y103379D02*
X50489D01*
X50199*
Y105099*
X49909Y104809*
X135509Y102529D02*
X135229Y102819D01*
X134649*
X134369Y102529*
Y101379*
X134649Y101089*
X135229*
X135509Y101379*
X136089Y102819D02*
Y101669D01*
X136659Y101089*
X137239Y101669*
Y102819*
X137809Y101089D02*
X138959Y102239D01*
X140689Y102529D02*
X140399Y102819D01*
X139819*
X139539Y102529*
Y101379*
X139819Y101089*
X140399*
X140689Y101379*
X142409Y102529D02*
X142119Y102819D01*
X141549*
X141259Y102529*
Y101379*
X141549Y101089*
X142119*
X142409Y101379*
X119759Y106019D02*
X120909D01*
X120339Y106589D02*
Y105439D01*
X121479Y105159D02*
X122629Y106299D01*
X123209Y106019D02*
X124359D01*
X104139Y100839D02*
Y102559D01*
X104999*
X105289Y102269*
Y101699*
X104999Y101409*
X104139*
X106729Y102559D02*
X106149D01*
X105859Y102269*
Y101129*
X106149Y100839*
X106729*
X107009Y101129*
Y102269*
X106729Y102559*
X107589D02*
Y100839D01*
X108739*
X109309D02*
Y101989D01*
X109879Y102559*
X110459Y101989*
Y100839*
Y101699*
X109309*
X111029Y100839D02*
Y102559D01*
X111899*
X112179Y102269*
Y101699*
X111899Y101409*
X111029*
X111609D02*
X112179Y100839D01*
X112759Y102559D02*
X113329D01*
X113039*
Y100839*
X112759*
X113329*
X114189Y102559D02*
X115339D01*
X114769*
Y100839*
X115919Y102559D02*
Y102269D01*
X116489Y101699*
X117069Y102269*
Y102559*
X116489Y101699D02*
Y100839D01*
G54D14*
X88489Y103379D02*
Y105099D01*
X87629Y104239*
X88779*
G54D15*
X162309Y38609D02*
Y115059D01*
X152269Y38609D02*
X162309D01*
X152269Y34669D02*
Y38609D01*
Y115059D02*
X162309D01*
X152269D02*
Y118869D01*
X43309D02*
X152269D01*
X43179Y114929D02*
X43309Y118869D01*
X33149Y114929D02*
X43179D01*
X33149Y38609D02*
Y114929D01*
X43179Y34669D02*
Y38609D01*
X33149D02*
X43179D01*
Y34669D02*
X152269D01*
M02*