G75*
G70*
%OFA0B0*%
%FSLAX24Y24*%
%IPPOS*%
%LPD*%
%AMOC8*
5,1,8,0,0,1.08239X$1,22.5*
%
%ADD10C,0.0600*%
%ADD11R,0.0600X0.0600*%
%ADD12R,0.0630X0.0787*%
%ADD13O,0.0750X0.1500*%
%ADD14O,0.1000X0.2000*%
%ADD15C,0.1500*%
%ADD16R,0.1500X0.1500*%
%ADD17OC8,0.1240*%
%ADD18C,0.1240*%
%ADD19C,0.1000*%
%ADD20R,0.1000X0.1000*%
%ADD21O,0.2000X0.1000*%
%ADD22O,0.1400X0.0700*%
%ADD23O,0.0520X0.1040*%
%ADD24C,0.0520*%
%ADD25R,0.0630X0.0472*%
%ADD26R,0.0630X0.0710*%
%ADD27O,0.0600X0.1200*%
%ADD28O,0.1040X0.0520*%
%ADD29R,0.0520X0.0520*%
%ADD30R,0.0394X0.0551*%
%ADD31OC8,0.0500*%
%ADD32R,0.1200X0.1200*%
%ADD33C,0.1200*%
%ADD34C,0.2300*%
%ADD35R,0.0787X0.0630*%
%ADD36R,0.0787X0.0591*%
%ADD37C,0.0500*%
%ADD38C,0.0700*%
%ADD39C,0.0750*%
%ADD40C,0.0400*%
%ADD41C,0.0100*%
%ADD42C,0.0240*%
%ADD43C,0.1000*%
%ADD44C,0.0120*%
D10*
X003716Y009171D03*
X004716Y009171D03*
X005716Y009171D03*
X006716Y009171D03*
X006716Y010171D03*
X005716Y010171D03*
X004716Y010171D03*
X003716Y010171D03*
X002716Y010171D03*
X003716Y015171D03*
X004716Y015171D03*
X005716Y015171D03*
X006716Y015171D03*
X006716Y016171D03*
X005716Y016171D03*
X004716Y016171D03*
X003716Y016171D03*
X002716Y016171D03*
X021716Y014171D03*
X022716Y014171D03*
X022716Y013171D03*
X022716Y012171D03*
X021716Y012171D03*
X021716Y013171D03*
X021716Y011171D03*
X022716Y011171D03*
X021716Y010171D03*
X021716Y019171D03*
X021716Y020171D03*
X022716Y020171D03*
X022716Y021171D03*
X021716Y021171D03*
D11*
X022716Y019171D03*
X022716Y010171D03*
X002716Y009171D03*
X002716Y015171D03*
D12*
X009664Y015171D03*
X010767Y015171D03*
X010767Y016671D03*
X009664Y016671D03*
X012154Y016671D03*
X013257Y016671D03*
X013267Y018171D03*
X012164Y018171D03*
X010767Y018171D03*
X009664Y018171D03*
X009664Y019671D03*
X010767Y019671D03*
X008767Y023671D03*
X007664Y023671D03*
X007664Y025171D03*
X008767Y025171D03*
X009664Y025671D03*
X010767Y025671D03*
X012164Y025671D03*
X013267Y025671D03*
X015164Y025671D03*
X016267Y025671D03*
X016267Y027171D03*
X015164Y027171D03*
X013267Y027171D03*
X012164Y027171D03*
X008767Y026671D03*
X007664Y026671D03*
X009664Y013171D03*
X010767Y013171D03*
X029164Y009171D03*
X030267Y009171D03*
X030664Y018671D03*
X031767Y018671D03*
X033664Y019171D03*
X034767Y019171D03*
X035664Y019171D03*
X036767Y019171D03*
X036767Y020671D03*
X035664Y020671D03*
X034767Y020671D03*
X033664Y020671D03*
X031767Y020171D03*
X030664Y020171D03*
X030664Y021671D03*
X031767Y021671D03*
X031767Y023671D03*
X030664Y023671D03*
D13*
X030716Y031181D03*
X032684Y031181D03*
X034653Y031181D03*
X037706Y031171D03*
X039674Y031171D03*
X041643Y031171D03*
X043619Y031183D03*
X045587Y031183D03*
X047556Y031183D03*
X027576Y031183D03*
X025607Y031183D03*
X023639Y031183D03*
X021663Y031171D03*
X019694Y031171D03*
X017726Y031171D03*
D14*
X050216Y029671D03*
X052216Y029671D03*
X056216Y029671D03*
X058216Y029671D03*
X033716Y010171D03*
X031716Y010171D03*
D15*
X042636Y011181D03*
X042616Y014181D03*
X042616Y018161D03*
X042636Y021151D03*
X056736Y021151D03*
X056716Y018161D03*
X056716Y014181D03*
X003626Y020166D03*
D16*
X007801Y020171D03*
X056736Y011181D03*
D17*
X039116Y015171D03*
D18*
X036116Y015171D03*
D19*
X030716Y015171D03*
X040696Y010191D03*
X036716Y024171D03*
X005716Y027971D03*
X003716Y027971D03*
D20*
X035696Y010181D03*
D21*
X032716Y012171D03*
D22*
X039726Y019981D03*
X039726Y021441D03*
X039726Y022941D03*
X039756Y024441D03*
D23*
X017716Y017171D03*
X016716Y017171D03*
X015716Y017171D03*
X014716Y017171D03*
X014716Y014171D03*
X015716Y014171D03*
X016716Y014171D03*
X017716Y014171D03*
X017716Y012171D03*
X016716Y012171D03*
X015716Y012171D03*
X014716Y012171D03*
X014716Y009171D03*
X015716Y009171D03*
X016716Y009171D03*
X017716Y009171D03*
X013716Y029171D03*
X012716Y029171D03*
X011716Y029171D03*
X010716Y029171D03*
X010716Y033171D03*
X011716Y033171D03*
X012716Y033171D03*
X013716Y033171D03*
X009716Y033171D03*
D24*
X011196Y010161D03*
X011196Y009161D03*
D25*
X012716Y008973D03*
X012716Y010390D03*
D26*
X010775Y012171D03*
X009656Y012171D03*
D27*
X004606Y023381D03*
X002826Y023381D03*
X002826Y025941D03*
X004606Y025941D03*
D28*
X025716Y023171D03*
X025716Y022171D03*
X025716Y021171D03*
X025716Y020171D03*
X025716Y019171D03*
X025716Y018171D03*
X025716Y017171D03*
X025716Y016171D03*
X025716Y015171D03*
X025716Y014171D03*
X025716Y013171D03*
X025716Y012171D03*
X025716Y011171D03*
X025716Y010171D03*
X028716Y010171D03*
X028716Y011171D03*
X028716Y012171D03*
X028716Y013171D03*
X028716Y014171D03*
X028716Y015171D03*
X028716Y016171D03*
X028716Y017171D03*
X028716Y018171D03*
X028716Y019171D03*
X028716Y020171D03*
X028716Y021171D03*
X028716Y022171D03*
X028716Y023171D03*
D29*
X009716Y029171D03*
D30*
X032842Y022738D03*
X033590Y022738D03*
X033216Y023604D03*
X035342Y022738D03*
X036090Y022738D03*
X035716Y023604D03*
D31*
X032716Y014171D03*
X031716Y014171D03*
D32*
X004716Y029171D03*
D33*
X002716Y029171D03*
X006716Y029171D03*
D34*
X003716Y002671D03*
X056716Y002671D03*
D35*
X019716Y017620D03*
X019716Y018723D03*
D36*
X017727Y019171D03*
X016704Y019171D03*
D37*
X015216Y018171D02*
X018216Y018171D01*
X019216Y017171D01*
X019716Y017171D01*
X023716Y017171D01*
X024716Y018171D01*
X025716Y018171D01*
X026216Y018171D01*
X026716Y017671D01*
X026716Y017171D01*
X027716Y016171D01*
X028716Y016171D01*
X031716Y016171D01*
X031716Y014171D01*
X032716Y017171D02*
X028716Y017171D01*
X032716Y017171D02*
X036716Y017171D01*
X042616Y018161D02*
X042706Y018161D01*
X042716Y018171D01*
X044716Y018171D01*
X044716Y022171D01*
X043966Y022921D01*
X039716Y022921D01*
X039716Y021471D02*
X039726Y021461D01*
X039766Y021421D01*
X040966Y021421D01*
X041216Y021171D01*
X042716Y021171D01*
X042716Y021151D01*
X042636Y021151D01*
X039726Y021441D02*
X039726Y021461D01*
X044716Y018171D02*
X044716Y012171D01*
X043716Y011171D01*
X043706Y011181D01*
X042636Y011181D01*
X054716Y015171D02*
X054716Y021171D01*
X054716Y024171D01*
X053716Y025171D01*
X053716Y032171D01*
X052716Y033171D01*
X041716Y033171D01*
X037716Y028171D02*
X048716Y028171D01*
X050216Y029671D01*
X052216Y029671D01*
X054716Y021171D02*
X054736Y021151D01*
X056736Y021151D01*
X056716Y021171D01*
X054716Y021171D01*
X054716Y015171D02*
X055716Y014171D01*
X055726Y014181D01*
X056716Y014181D01*
X022716Y014171D02*
X021716Y014171D01*
X017716Y014171D01*
X015716Y014171D01*
X014716Y014171D01*
X006716Y014171D01*
X001716Y014171D01*
X002716Y012171D02*
X007716Y012171D01*
X008716Y013171D01*
X006716Y014171D02*
X006716Y015171D01*
X014716Y017171D02*
X014716Y017671D01*
X015216Y018171D01*
X014716Y012171D02*
X014716Y011671D01*
X015216Y011171D01*
X017716Y011171D01*
X018216Y010671D01*
X020216Y010671D01*
X020716Y010171D01*
X022716Y010171D01*
X021716Y010171D01*
X006716Y010171D02*
X006716Y009171D01*
D38*
X036716Y017171D02*
X036726Y017171D01*
X038716Y018171D02*
X037716Y019171D01*
X037716Y021171D01*
X037716Y023671D01*
X038466Y024421D01*
X039616Y024421D01*
X039716Y018171D02*
X038716Y018171D01*
X039716Y018171D02*
X040716Y017171D01*
X040696Y017151D01*
X040696Y010191D01*
D39*
X032716Y017171D03*
X008716Y013171D03*
X002716Y012171D03*
X001716Y014171D03*
D40*
X007716Y011171D03*
X008716Y012171D03*
X011716Y013171D03*
X012716Y015171D03*
X015216Y016171D03*
X016216Y015671D03*
X017216Y015671D03*
X017216Y015171D03*
X018716Y015171D03*
X021716Y015171D03*
X023716Y014171D03*
X024216Y013171D03*
X027216Y014171D03*
X027216Y015671D03*
X024216Y016171D03*
X027216Y018671D03*
X027716Y018671D03*
X026716Y019671D03*
X027716Y021171D03*
X026716Y022171D03*
X029716Y021671D03*
X031716Y022671D03*
X033716Y021671D03*
X034716Y021671D03*
X034716Y023671D03*
X035716Y024671D03*
X029716Y019671D03*
X029716Y018671D03*
X033716Y016171D03*
X036726Y017171D03*
X035716Y018171D03*
X034716Y013171D03*
X027716Y009171D03*
X019716Y009171D03*
X019216Y009671D03*
X018716Y011671D03*
X008716Y015171D03*
X014716Y018671D03*
X015716Y019171D03*
X013216Y019171D03*
X012216Y019171D03*
X012216Y020171D03*
X012716Y020671D03*
X010216Y020671D03*
X010716Y022171D03*
X009716Y022171D03*
X011716Y023671D03*
X012716Y022671D03*
X013216Y022671D03*
X014716Y023171D03*
X013716Y024171D03*
X014216Y025671D03*
X014216Y027171D03*
X012216Y028171D03*
X010716Y027171D03*
X011216Y026671D03*
X008716Y027671D03*
X006716Y026671D03*
X006216Y025171D03*
X005216Y023671D03*
X006716Y022171D03*
X006216Y021171D03*
X005216Y021671D03*
X009716Y024671D03*
X004716Y027171D03*
X002716Y027171D03*
X011216Y031671D03*
X012716Y031671D03*
X011716Y030171D03*
X017216Y027171D03*
X017716Y025671D03*
X018216Y024671D03*
X017216Y022171D03*
X016716Y022171D03*
X016716Y021171D03*
X015716Y021171D03*
X018216Y020171D03*
X019216Y020671D03*
X020216Y021171D03*
X019716Y021671D03*
D41*
X005216Y021671D01*
X006216Y021171D02*
X015716Y021171D01*
X016716Y021171D02*
X020216Y021171D01*
X019216Y020671D02*
X012716Y020671D01*
X012216Y020171D02*
X018216Y020171D01*
X017727Y019171D02*
X019716Y019171D01*
X019716Y018723D01*
X019716Y018671D01*
X019716Y019171D02*
X021716Y019171D01*
X021716Y020171D02*
X022216Y020671D01*
X022216Y021471D01*
X022416Y021671D01*
X024716Y021671D01*
X025216Y021171D01*
X025716Y021171D01*
X025216Y021671D02*
X024716Y022171D01*
X017216Y022171D01*
X016716Y022171D02*
X010716Y022171D01*
X012716Y022671D02*
X005216Y022671D01*
X004716Y023171D01*
X004716Y023271D01*
X004606Y023381D01*
X004716Y023171D02*
X004716Y025811D01*
X004596Y025931D01*
X004606Y025941D01*
X006216Y025171D02*
X007664Y025171D01*
X007716Y025171D01*
X007706Y025181D01*
X007666Y025171D02*
X007664Y025173D01*
X007664Y025171D01*
X008716Y025171D02*
X008767Y025171D01*
X008716Y025171D02*
X008716Y026671D01*
X008767Y026671D01*
X008716Y026671D02*
X008716Y027671D01*
X007664Y026671D02*
X006716Y026671D01*
X004716Y027171D02*
X002716Y027171D01*
X005216Y023671D02*
X007664Y023671D01*
X008716Y023671D02*
X008767Y023671D01*
X008716Y023671D02*
X008716Y025171D01*
X009716Y024671D02*
X018216Y024671D01*
X017716Y025671D02*
X016267Y025671D01*
X016216Y025671D01*
X015216Y025671D02*
X014216Y026671D01*
X014216Y027171D01*
X015164Y027171D02*
X015216Y027171D01*
X014216Y028171D01*
X014216Y029671D01*
X013716Y030171D01*
X011716Y030171D01*
X012716Y029171D02*
X012716Y028171D01*
X013216Y027671D01*
X013216Y027171D01*
X013267Y027171D01*
X012216Y027171D02*
X012216Y028171D01*
X012216Y027171D02*
X012164Y027171D01*
X011216Y026671D02*
X012216Y025671D01*
X012164Y025671D01*
X013216Y025671D02*
X013267Y025671D01*
X014216Y025671D01*
X015164Y025671D02*
X015216Y025671D01*
X016216Y027171D02*
X016267Y027171D01*
X017216Y027171D01*
X013716Y024171D02*
X028716Y024171D01*
X029216Y024671D01*
X032716Y024671D01*
X033216Y024171D01*
X033216Y023604D01*
X033216Y023571D01*
X031767Y023671D02*
X031716Y023671D01*
X030716Y022671D01*
X029716Y022671D01*
X029216Y022171D01*
X028716Y022171D01*
X029716Y021671D02*
X025216Y021671D01*
X025716Y022171D02*
X026716Y022171D01*
X027716Y022671D02*
X013216Y022671D01*
X014716Y023171D02*
X025716Y023171D01*
X027716Y022671D02*
X028216Y023171D01*
X028716Y023171D01*
X030664Y023671D02*
X011716Y023671D01*
X010767Y025671D02*
X010716Y025671D01*
X010716Y027171D01*
X009716Y025671D02*
X009716Y029151D01*
X009726Y029161D01*
X009716Y029171D01*
X011216Y031671D02*
X012716Y031671D01*
X009716Y025671D02*
X009664Y025671D01*
X010216Y020671D02*
X011216Y020671D01*
X012216Y019671D01*
X023716Y019671D01*
X024716Y018671D01*
X027216Y018671D01*
X027716Y018671D02*
X029716Y018671D01*
X029716Y019171D02*
X028716Y019171D01*
X029716Y019171D02*
X030716Y020171D01*
X030664Y020171D01*
X030716Y019171D02*
X031716Y020171D01*
X031767Y020171D01*
X032216Y020171D01*
X032716Y020671D01*
X032716Y022671D01*
X032783Y022738D01*
X032842Y022738D01*
X031716Y022671D02*
X031716Y021671D01*
X031767Y021671D01*
X030716Y021671D02*
X030216Y021171D01*
X028716Y021171D01*
X027716Y021171D02*
X027216Y020671D01*
X024216Y020671D01*
X023716Y021171D01*
X022716Y021171D01*
X022716Y020171D02*
X024216Y020171D01*
X025216Y019171D01*
X025716Y019171D01*
X026716Y019671D02*
X029716Y019671D01*
X030716Y019171D02*
X030716Y018671D01*
X030664Y018671D01*
X031767Y018671D02*
X032216Y018671D01*
X033716Y020171D01*
X033716Y020671D01*
X033664Y020671D01*
X033716Y020671D02*
X033716Y021671D01*
X033716Y022171D01*
X033716Y022671D01*
X033649Y022738D01*
X033590Y022738D01*
X033716Y022171D02*
X035716Y022171D01*
X036216Y022671D01*
X036149Y022738D01*
X036090Y022738D01*
X035342Y022738D02*
X035283Y022738D01*
X035216Y022671D01*
X034716Y023171D01*
X034716Y023671D01*
X035716Y023604D02*
X035716Y024671D01*
X039616Y024421D02*
X039816Y024421D01*
X039816Y024441D01*
X039756Y024441D01*
X039816Y024441D02*
X039816Y024471D01*
X039716Y022971D02*
X039716Y022941D01*
X039716Y022921D01*
X039716Y022941D02*
X039726Y022941D01*
X037716Y021671D02*
X036216Y021671D01*
X035716Y021171D01*
X035716Y020671D01*
X035664Y020671D01*
X035664Y020620D01*
X034767Y020620D02*
X034716Y020671D01*
X034716Y019171D01*
X034767Y019171D01*
X035664Y019171D02*
X035716Y019171D01*
X036716Y020171D01*
X036716Y020671D01*
X036767Y020671D01*
X037716Y021171D02*
X037716Y021671D01*
X034716Y021671D02*
X034716Y020671D01*
X034767Y020671D01*
X034767Y020620D01*
X035716Y019171D02*
X035716Y018171D01*
X036716Y017171D02*
X036716Y019171D01*
X036767Y019171D01*
X033716Y019171D02*
X032216Y017671D01*
X029216Y017671D01*
X028716Y018171D01*
X027216Y015671D02*
X017216Y015671D01*
X017216Y015171D02*
X012716Y015171D01*
X010767Y015171D01*
X009716Y015171D02*
X009716Y016671D01*
X009664Y016671D01*
X010716Y016671D02*
X010716Y018171D01*
X010767Y018171D01*
X009716Y018171D02*
X008716Y017171D01*
X005216Y017171D01*
X004716Y016671D01*
X004716Y016171D01*
X003716Y016171D02*
X003716Y017171D01*
X004716Y018171D01*
X008216Y018171D01*
X009716Y019671D01*
X009664Y019671D01*
X010767Y019671D02*
X011716Y019671D01*
X012216Y019171D01*
X012216Y018171D01*
X012164Y018171D01*
X013216Y018171D02*
X013216Y019171D01*
X013216Y018171D02*
X013267Y018171D01*
X014216Y018171D02*
X014216Y017671D01*
X013216Y016671D01*
X013257Y016671D01*
X012216Y016671D02*
X012216Y016171D01*
X012716Y015671D01*
X016216Y015671D01*
X018716Y015171D02*
X020716Y015171D01*
X021216Y014671D01*
X027216Y014671D01*
X027716Y015171D01*
X028716Y015171D01*
X028716Y014171D02*
X027216Y014171D01*
X025716Y014171D02*
X023716Y014171D01*
X024216Y013171D02*
X023716Y012671D01*
X022216Y012671D01*
X021716Y012171D01*
X022216Y011671D02*
X018716Y011671D01*
X016716Y009671D02*
X016216Y010171D01*
X014716Y010171D01*
X013716Y011171D01*
X007716Y011171D01*
X008716Y012171D02*
X009656Y012171D01*
X009664Y013171D02*
X008716Y013171D01*
X009664Y013171D02*
X009716Y013171D01*
X009716Y013181D01*
X009666Y013181D01*
X009666Y013171D01*
X010716Y013171D02*
X010716Y012171D01*
X010775Y012171D01*
X010767Y013171D02*
X010716Y013171D01*
X010726Y013181D01*
X009716Y015171D02*
X009664Y015171D01*
X008716Y015171D01*
X010716Y016671D02*
X010767Y016671D01*
X012154Y016671D01*
X012216Y016671D01*
X014216Y018171D02*
X014716Y018671D01*
X017716Y019171D02*
X017727Y019171D01*
X019716Y017620D02*
X019716Y017171D01*
X021716Y015171D02*
X025716Y015171D01*
X025716Y013171D02*
X024216Y013171D01*
X022716Y012171D02*
X025716Y012171D01*
X025716Y011171D02*
X025216Y011171D01*
X024716Y010671D01*
X022216Y010671D01*
X021716Y011171D01*
X022216Y011671D02*
X022716Y012171D01*
X019216Y009671D02*
X027716Y009671D01*
X028216Y010171D01*
X028716Y010171D01*
X028716Y009671D01*
X029216Y009171D01*
X029164Y009171D01*
X030216Y009171D02*
X030216Y009671D01*
X030716Y010171D01*
X031716Y010171D01*
X030267Y009171D02*
X030216Y009171D01*
X027716Y009171D02*
X019716Y009171D01*
X016716Y009171D02*
X016716Y009671D01*
X015716Y009171D02*
X015716Y008671D01*
X015216Y008171D01*
X013216Y008171D01*
X012716Y008671D01*
X012716Y009171D01*
X012706Y009161D01*
X011196Y009161D01*
X012716Y009171D02*
X012716Y008973D01*
X012706Y010161D02*
X011196Y010161D01*
X012706Y010161D02*
X012716Y010171D01*
X013716Y010171D01*
X014716Y009171D01*
X012716Y010171D02*
X012716Y010390D01*
X009716Y018171D02*
X009664Y018171D01*
X028716Y013171D02*
X034716Y013171D01*
X033716Y019171D02*
X033664Y019171D01*
X030716Y021671D02*
X030664Y021671D01*
X041643Y031171D02*
X041716Y031171D01*
X043616Y031181D02*
X043617Y031183D01*
X043704Y031183D01*
X043619Y031183D02*
X043617Y031183D01*
D42*
X033716Y016171D02*
X031716Y016171D01*
X016704Y019171D02*
X015716Y019171D01*
D43*
X020716Y028171D02*
X030716Y028171D01*
X037716Y028171D01*
X037716Y031171D01*
X039674Y031171D01*
X039716Y031171D01*
X041716Y031171D02*
X043716Y031171D01*
X043704Y031183D01*
X041716Y031171D02*
X041716Y033171D01*
X040716Y034171D01*
X032716Y034171D01*
X032716Y031171D01*
X032706Y031181D01*
X032684Y031181D01*
X030716Y031181D02*
X030716Y028171D01*
X037706Y031171D02*
X037716Y031171D01*
X032716Y034171D02*
X024716Y034171D01*
X023716Y033171D01*
X023716Y031171D01*
X021663Y031171D01*
X019694Y031171D02*
X019694Y029193D01*
X020716Y028171D01*
X019694Y031171D02*
X017726Y031171D01*
X023639Y031183D02*
X023704Y031183D01*
X023716Y031171D01*
D44*
X009716Y022171D02*
X006716Y022171D01*
X015216Y016171D02*
X024216Y016171D01*
X026716Y013671D02*
X021216Y013671D01*
X020516Y012971D01*
X011916Y012971D01*
X011716Y013171D01*
X024216Y013171D02*
X025716Y013171D01*
X026716Y013671D02*
X028216Y012171D01*
X028716Y012171D01*
M02*
