%
M48
M72
T01C0.0240
T02C0.0320
T03C0.0400
T04C0.0500
T05C0.0600
T06C0.1299
T07C0.1300
%
T01
X7716Y11171
X8716Y12171
X11716Y13171
X12716Y15171
X15216Y16171
X16216Y15671
X17216Y15671
X17216Y15171
X18716Y15171
X21716Y15171
X23716Y14171
X24216Y13171
X27216Y14171
X27216Y15671
X24216Y16171
X27216Y18671
X27716Y18671
X26716Y19671
X27716Y21171
X26716Y22171
X29716Y21671
X31716Y22671
X33716Y21671
X34716Y21671
X34716Y23671
X35716Y24671
X29716Y19671
X29716Y18671
X33716Y16171
X36726Y17171
X35716Y18171
X32716Y14171
X31716Y14171
X34716Y13171
X27716Y9171
X19716Y9171
X19216Y9671
X18716Y11671
X8716Y15171
X14716Y18671
X15716Y19171
X13216Y19171
X12216Y19171
X12216Y20171
X12716Y20671
X10216Y20671
X10716Y22171
X9716Y22171
X11716Y23671
X12716Y22671
X13216Y22671
X14716Y23171
X13716Y24171
X14216Y25671
X14216Y27171
X12216Y28171
X10716Y27171
X11216Y26671
X8716Y27671
X6716Y26671
X6216Y25171
X5216Y23671
X6716Y22171
X6216Y21171
X5216Y21671
X9716Y24671
X4716Y27171
X2716Y27171
X11216Y31671
X12716Y31671
X11716Y30171
X17216Y27171
X17716Y25671
X18216Y24671
X17216Y22171
X16716Y22171
X16716Y21171
X15716Y21171
X18216Y20171
X19216Y20671
X20216Y21171
X19716Y21671
T02
X25716Y21171
X25716Y20171
X25716Y19171
X25716Y18171
X25716Y17171
X25716Y16171
X25716Y15171
X25716Y14171
X25716Y13171
X25716Y12171
X25716Y11171
X25716Y10171
X28716Y10171
X28716Y11171
X28716Y12171
X28716Y13171
X28716Y14171
X28716Y15171
X28716Y16171
X28716Y17171
X28716Y18171
X28716Y19171
X28716Y20171
X28716Y21171
X28716Y22171
X28716Y23171
X25716Y23171
X25716Y22171
X17716Y17171
X16716Y17171
X15716Y17171
X14716Y17171
X14716Y14171
X15716Y14171
X16716Y14171
X17716Y14171
X17716Y12171
X16716Y12171
X15716Y12171
X14716Y12171
X11196Y10161
X11196Y9161
X14716Y9171
X15716Y9171
X16716Y9171
X17716Y9171
X13716Y29171
X12716Y29171
X11716Y29171
X10716Y29171
X9716Y29171
X9716Y33171
X10716Y33171
X11716Y33171
X12716Y33171
X13716Y33171
T03
X4606Y25941
X2826Y25941
X2826Y23381
X4606Y23381
X4716Y16171
X3716Y16171
X2716Y16171
X2716Y15171
X3716Y15171
X4716Y15171
X5716Y15171
X6716Y15171
X6716Y16171
X5716Y16171
X5716Y10171
X6716Y10171
X6716Y9171
X5716Y9171
X4716Y9171
X3716Y9171
X2716Y9171
X2716Y10171
X3716Y10171
X4716Y10171
X21716Y10171
X22716Y10171
X22716Y11171
X21716Y11171
X21716Y12171
X22716Y12171
X22716Y13171
X21716Y13171
X21716Y14171
X22716Y14171
X30716Y15171
X36116Y15171
X39116Y15171
X39726Y19981
X39726Y21441
X39726Y22941
X39756Y24441
X36716Y24171
X22716Y21171
X21716Y21171
X21716Y20171
X22716Y20171
X22716Y19171
X21716Y19171
X35696Y10181
X40696Y10191
T04
X42636Y11181
X42616Y14181
X42616Y18161
X42636Y21151
X32716Y17171
X32716Y12171
X33716Y10171
X31716Y10171
X8716Y13171
X2716Y12171
X1716Y14171
X3626Y20166
X7801Y20171
X17726Y31171
X19694Y31171
X21663Y31171
X23639Y31183
X25607Y31183
X27576Y31183
X30716Y31181
X32684Y31181
X34653Y31181
X37706Y31171
X39674Y31171
X41643Y31171
X43619Y31183
X45587Y31183
X47556Y31183
X50216Y29671
X52216Y29671
X56216Y29671
X58216Y29671
X56736Y21151
X56716Y18161
X56716Y14181
X56736Y11181
T05
X6716Y29171
X5716Y27971
X4716Y29171
X3716Y27971
X2716Y29171
T06
X3716Y2671
X56716Y2671
T07
X32716Y2671
M30
