G75*
G70*
%OFA0B0*%
%FSLAX24Y24*%
%IPPOS*%
%LPD*%
%AMOC8*
5,1,8,0,0,1.08239X$1,22.5*
%
%ADD10C,0.0120*%
%ADD11C,0.0080*%
%ADD12C,0.0140*%
%ADD13C,0.0160*%
%ADD14R,0.0250X0.1500*%
%ADD15R,0.0200X0.1200*%
%ADD16R,0.0500X0.1410*%
%ADD17R,0.0880X0.0360*%
%ADD18R,0.1750X0.0200*%
%ADD19R,0.4600X0.0200*%
%ADD20R,0.4850X0.0200*%
%ADD21R,0.0400X0.2500*%
%ADD22R,0.0400X0.4500*%
%ADD23R,0.0079X0.0079*%
%ADD24R,0.0059X0.0098*%
%ADD25C,0.0100*%
%ADD26R,0.0750X0.2000*%
%ADD27R,0.0230X0.0160*%
%ADD28R,0.0500X0.0500*%
D10*
X036926Y001841D02*
X036926Y003222D01*
X036926Y001841D01*
X036926Y002532D02*
X037846Y002532D01*
X036926Y002532D01*
X037846Y003222D02*
X037846Y001841D01*
X037846Y003222D01*
X038537Y003222D02*
X038537Y003453D01*
X038537Y003222D01*
X038537Y002762D02*
X038307Y002762D01*
X038537Y002762D01*
X038537Y001841D01*
X038537Y002762D01*
X039227Y002532D02*
X039227Y002071D01*
X039458Y001841D01*
X040148Y001841D01*
X039458Y001841D01*
X039227Y002071D01*
X039227Y002532D01*
X039458Y002762D01*
X040148Y002762D01*
X040148Y001611D01*
X039918Y001381D01*
X039688Y001381D01*
X039918Y001381D01*
X040148Y001611D01*
X040148Y002762D01*
X039458Y002762D01*
X039227Y002532D01*
X038767Y001841D02*
X038307Y001841D01*
X038767Y001841D01*
X040609Y001841D02*
X040609Y003222D01*
X040609Y001841D01*
X040609Y002532D02*
X040839Y002762D01*
X041299Y002762D01*
X041529Y002532D01*
X041529Y001841D01*
X041529Y002532D01*
X041299Y002762D01*
X040839Y002762D01*
X040609Y002532D01*
X043371Y002302D02*
X043831Y001841D01*
X044292Y002302D01*
X044292Y003222D01*
X044292Y002302D01*
X043831Y001841D01*
X043371Y002302D01*
X043371Y003222D01*
X043371Y002302D01*
X044752Y002532D02*
X044752Y002071D01*
X044982Y001841D01*
X045443Y001841D01*
X045673Y002071D01*
X045673Y002532D01*
X045443Y002762D01*
X044982Y002762D01*
X044752Y002532D01*
X044752Y002071D01*
X044982Y001841D01*
X045443Y001841D01*
X045673Y002071D01*
X045673Y002532D01*
X045443Y002762D01*
X044982Y002762D01*
X044752Y002532D01*
X046133Y003222D02*
X046363Y003222D01*
X046363Y001841D01*
X046363Y003222D01*
X046133Y003222D01*
X047054Y002762D02*
X047514Y002762D01*
X047054Y002762D01*
X047284Y002992D02*
X047284Y002071D01*
X047514Y001841D01*
X047284Y002071D01*
X047284Y002992D01*
X048205Y002762D02*
X048665Y002762D01*
X048895Y002532D01*
X048895Y001841D01*
X048205Y001841D01*
X047975Y002071D01*
X048205Y002302D01*
X048895Y002302D01*
X048205Y002302D01*
X047975Y002071D01*
X048205Y001841D01*
X048895Y001841D01*
X048895Y002532D01*
X048665Y002762D01*
X048205Y002762D01*
X049356Y002532D02*
X049356Y002071D01*
X049586Y001841D01*
X050277Y001841D01*
X049586Y001841D01*
X049356Y002071D01*
X049356Y002532D01*
X049586Y002762D01*
X050277Y002762D01*
X050277Y001611D01*
X050046Y001381D01*
X049816Y001381D01*
X050046Y001381D01*
X050277Y001611D01*
X050277Y002762D01*
X049586Y002762D01*
X049356Y002532D01*
X050737Y002532D02*
X050737Y002071D01*
X050967Y001841D01*
X051428Y001841D01*
X050967Y001841D01*
X050737Y002071D01*
X050737Y002532D01*
X050967Y002762D01*
X051428Y002762D01*
X051658Y002532D01*
X051658Y002302D01*
X050737Y002302D01*
X051658Y002302D01*
X051658Y002532D01*
X051428Y002762D01*
X050967Y002762D01*
X050737Y002532D01*
X052118Y002532D02*
X052118Y003453D01*
X052118Y002532D01*
X052118Y002071D02*
X052118Y001841D01*
X052118Y002071D01*
X046594Y001841D02*
X046133Y001841D01*
X046594Y001841D01*
X044760Y004881D02*
X044990Y005111D01*
X044990Y006262D01*
X044299Y006262D01*
X044069Y006032D01*
X044069Y005571D01*
X044299Y005341D01*
X044990Y005341D01*
X044299Y005341D01*
X044069Y005571D01*
X044069Y006032D01*
X044299Y006262D01*
X044990Y006262D01*
X044990Y005111D01*
X044760Y004881D01*
X044529Y004881D01*
X044760Y004881D01*
X045450Y005571D02*
X045450Y006032D01*
X045680Y006262D01*
X046141Y006262D01*
X046371Y006032D01*
X046371Y005802D01*
X045450Y005802D01*
X046371Y005802D01*
X046371Y006032D01*
X046141Y006262D01*
X045680Y006262D01*
X045450Y006032D01*
X045450Y005571D01*
X045680Y005341D01*
X046141Y005341D01*
X045680Y005341D01*
X045450Y005571D01*
X046831Y005341D02*
X046831Y006262D01*
X046831Y005341D01*
X046831Y005802D02*
X047292Y006262D01*
X047522Y006262D01*
X047292Y006262D01*
X046831Y005802D01*
X043609Y006032D02*
X043609Y005341D01*
X043609Y006032D01*
X043378Y006262D01*
X042688Y006262D01*
X042688Y005341D01*
X042688Y006262D01*
X043378Y006262D01*
X043609Y006032D01*
X042227Y006032D02*
X042227Y005341D01*
X041537Y005341D01*
X041307Y005571D01*
X041537Y005802D01*
X042227Y005802D01*
X041537Y005802D01*
X041307Y005571D01*
X041537Y005341D01*
X042227Y005341D01*
X042227Y006032D01*
X041997Y006262D01*
X041537Y006262D01*
X041997Y006262D01*
X042227Y006032D01*
X040846Y006492D02*
X040616Y006722D01*
X039926Y006722D01*
X039926Y005341D01*
X040616Y005341D01*
X040846Y005571D01*
X040846Y006492D01*
X040616Y006722D01*
X039926Y006722D01*
X039926Y005341D01*
X040616Y005341D01*
X040846Y005571D01*
X040846Y006492D01*
D11*
X059716Y000171D02*
X000716Y000171D01*
X000718Y000186D02*
X000718Y035306D01*
X059714Y035306D01*
X059714Y000186D01*
X057926Y006771D02*
X053716Y006771D01*
X053716Y007371D01*
X056226Y009171D02*
X056228Y009216D01*
X056234Y009262D01*
X056245Y009306D01*
X056259Y009349D01*
X056277Y009391D01*
X056299Y009431D01*
X056324Y009469D01*
X056353Y009504D01*
X056385Y009536D01*
X056419Y009566D01*
X056457Y009592D01*
X056496Y009615D01*
X056537Y009634D01*
X056580Y009649D01*
X056624Y009661D01*
X056669Y009668D01*
X056715Y009671D01*
X056760Y009670D01*
X056805Y009665D01*
X056850Y009655D01*
X056893Y009642D01*
X056936Y009625D01*
X056976Y009604D01*
X057014Y009579D01*
X057050Y009552D01*
X057084Y009521D01*
X057114Y009487D01*
X057141Y009450D01*
X057165Y009411D01*
X057185Y009370D01*
X057201Y009328D01*
X057213Y009284D01*
X057221Y009239D01*
X057225Y009194D01*
X057225Y009148D01*
X057221Y009103D01*
X057213Y009058D01*
X057201Y009014D01*
X057185Y008972D01*
X057165Y008931D01*
X057141Y008892D01*
X057114Y008855D01*
X057084Y008821D01*
X057050Y008790D01*
X057014Y008763D01*
X056976Y008738D01*
X056936Y008717D01*
X056893Y008700D01*
X056850Y008687D01*
X056805Y008677D01*
X056760Y008672D01*
X056715Y008671D01*
X056669Y008674D01*
X056624Y008681D01*
X056580Y008693D01*
X056537Y008708D01*
X056496Y008727D01*
X056457Y008750D01*
X056419Y008776D01*
X056385Y008806D01*
X056353Y008838D01*
X056324Y008873D01*
X056299Y008911D01*
X056277Y008951D01*
X056259Y008993D01*
X056245Y009036D01*
X056234Y009080D01*
X056228Y009126D01*
X056226Y009171D01*
X056228Y009216D01*
X056234Y009262D01*
X056245Y009306D01*
X056259Y009349D01*
X056277Y009391D01*
X056299Y009431D01*
X056324Y009469D01*
X056353Y009504D01*
X056385Y009536D01*
X056419Y009566D01*
X056457Y009592D01*
X056496Y009615D01*
X056537Y009634D01*
X056580Y009649D01*
X056624Y009661D01*
X056669Y009668D01*
X056715Y009671D01*
X056760Y009670D01*
X056805Y009665D01*
X056850Y009655D01*
X056893Y009642D01*
X056936Y009625D01*
X056976Y009604D01*
X057014Y009579D01*
X057050Y009552D01*
X057084Y009521D01*
X057114Y009487D01*
X057141Y009450D01*
X057165Y009411D01*
X057185Y009370D01*
X057201Y009328D01*
X057213Y009284D01*
X057221Y009239D01*
X057225Y009194D01*
X057225Y009148D01*
X057221Y009103D01*
X057213Y009058D01*
X057201Y009014D01*
X057185Y008972D01*
X057165Y008931D01*
X057141Y008892D01*
X057114Y008855D01*
X057084Y008821D01*
X057050Y008790D01*
X057014Y008763D01*
X056976Y008738D01*
X056936Y008717D01*
X056893Y008700D01*
X056850Y008687D01*
X056805Y008677D01*
X056760Y008672D01*
X056715Y008671D01*
X056669Y008674D01*
X056624Y008681D01*
X056580Y008693D01*
X056537Y008708D01*
X056496Y008727D01*
X056457Y008750D01*
X056419Y008776D01*
X056385Y008806D01*
X056353Y008838D01*
X056324Y008873D01*
X056299Y008911D01*
X056277Y008951D01*
X056259Y008993D01*
X056245Y009036D01*
X056234Y009080D01*
X056228Y009126D01*
X056226Y009171D01*
X054726Y010171D02*
X054726Y022171D01*
X044726Y022171D01*
X044726Y010171D01*
X054726Y010171D01*
X051035Y010811D02*
X050621Y010811D01*
X051035Y010811D01*
X050828Y010811D02*
X050828Y011432D01*
X050621Y011225D01*
X050828Y011432D01*
X050828Y010811D01*
X050183Y010811D02*
X050183Y011432D01*
X050183Y010811D01*
X049976Y011432D02*
X050390Y011432D01*
X049976Y011432D01*
X049826Y013221D02*
X049826Y019221D01*
X049026Y018721D02*
X048276Y018721D01*
X047526Y018721D01*
X048276Y018721D02*
X048276Y016721D01*
X047526Y016721D01*
X048276Y016721D02*
X049026Y016721D01*
X049026Y018721D01*
X047486Y017981D02*
X047486Y017701D01*
X047205Y017981D01*
X047135Y017981D01*
X047065Y017911D01*
X047065Y017771D01*
X047135Y017701D01*
X047065Y017771D01*
X047065Y017911D01*
X047135Y017981D01*
X047205Y017981D01*
X047486Y017701D01*
X047486Y017981D01*
X047416Y017521D02*
X047486Y017451D01*
X047486Y017311D01*
X047416Y017241D01*
X047486Y017311D01*
X047486Y017451D01*
X047416Y017521D01*
X047345Y017521D01*
X047275Y017451D01*
X047275Y017311D01*
X047205Y017241D01*
X047135Y017241D01*
X047065Y017311D01*
X047065Y017451D01*
X047135Y017521D01*
X047065Y017451D01*
X047065Y017311D01*
X047135Y017241D01*
X047205Y017241D01*
X047275Y017311D01*
X047275Y017451D01*
X047345Y017521D01*
X047416Y017521D01*
X047526Y015721D02*
X048276Y015721D01*
X048276Y013721D01*
X047526Y013721D01*
X047416Y014141D02*
X047486Y014211D01*
X047486Y014351D01*
X047416Y014421D01*
X047345Y014421D01*
X047275Y014351D01*
X047275Y014211D01*
X047205Y014141D01*
X047135Y014141D01*
X047065Y014211D01*
X047065Y014351D01*
X047135Y014421D01*
X047065Y014351D01*
X047065Y014211D01*
X047135Y014141D01*
X047205Y014141D01*
X047275Y014211D01*
X047275Y014351D01*
X047345Y014421D01*
X047416Y014421D01*
X047486Y014351D01*
X047486Y014211D01*
X047416Y014141D01*
X047486Y014601D02*
X047486Y014881D01*
X047486Y014601D01*
X047486Y014741D02*
X047065Y014741D01*
X047205Y014601D01*
X047065Y014741D01*
X047486Y014741D01*
X048276Y015721D02*
X049026Y015721D01*
X049026Y013721D01*
X048276Y013721D01*
X050526Y013721D02*
X051276Y013721D01*
X052026Y013721D01*
X052365Y014141D02*
X052365Y014351D01*
X052435Y014421D01*
X052575Y014421D01*
X052645Y014351D01*
X052645Y014141D01*
X052645Y014351D01*
X052575Y014421D01*
X052435Y014421D01*
X052365Y014351D01*
X052365Y014141D01*
X052786Y014141D01*
X052365Y014141D01*
X052505Y014601D02*
X052365Y014741D01*
X052786Y014741D01*
X052365Y014741D01*
X052505Y014601D01*
X052786Y014601D02*
X052786Y014881D01*
X052786Y014601D01*
X052026Y015721D02*
X051276Y015721D01*
X051276Y013721D01*
X050526Y013721D02*
X050526Y015721D01*
X051276Y015721D01*
X051276Y016721D02*
X050526Y016721D01*
X050526Y018721D01*
X051276Y018721D01*
X052026Y018721D01*
X051276Y018721D02*
X051276Y016721D01*
X052026Y016721D01*
X052365Y017141D02*
X052365Y017351D01*
X052435Y017421D01*
X052575Y017421D01*
X052645Y017351D01*
X052645Y017141D01*
X052645Y017351D01*
X052575Y017421D01*
X052435Y017421D01*
X052365Y017351D01*
X052365Y017141D01*
X052786Y017141D01*
X052365Y017141D01*
X052435Y017601D02*
X052365Y017671D01*
X052365Y017811D01*
X052435Y017881D01*
X052505Y017881D01*
X052786Y017601D01*
X052786Y017881D01*
X052786Y017601D01*
X052505Y017881D01*
X052435Y017881D01*
X052365Y017811D01*
X052365Y017671D01*
X052435Y017601D01*
X041364Y011711D02*
X040950Y011711D01*
X041364Y011711D01*
X041157Y011711D02*
X041157Y012332D01*
X040950Y012125D01*
X041157Y012332D01*
X041157Y011711D01*
X040719Y011815D02*
X040616Y011711D01*
X040409Y011711D01*
X040306Y011815D01*
X040306Y012228D01*
X040409Y012332D01*
X040616Y012332D01*
X040719Y012228D01*
X040616Y012332D01*
X040409Y012332D01*
X040306Y012228D01*
X040306Y011815D01*
X040409Y011711D01*
X040616Y011711D01*
X040719Y011815D01*
X039856Y010881D02*
X039856Y009471D01*
X036586Y009471D01*
X036586Y010881D01*
X039856Y010881D01*
X037976Y009142D02*
X037976Y008721D01*
X037976Y009142D01*
X037836Y009002D01*
X037976Y009142D01*
X037656Y009072D02*
X037656Y008791D01*
X037586Y008721D01*
X037376Y008721D01*
X037376Y009142D01*
X037586Y009142D01*
X037656Y009072D01*
X037586Y009142D01*
X037376Y009142D01*
X037376Y008721D01*
X037586Y008721D01*
X037656Y008791D01*
X037656Y009072D01*
X037836Y008721D02*
X038116Y008721D01*
X037836Y008721D01*
X035525Y008011D02*
X035111Y008011D01*
X035525Y008011D01*
X035318Y008011D02*
X035318Y008632D01*
X035111Y008425D01*
X035318Y008632D01*
X035318Y008011D01*
X034880Y008115D02*
X034777Y008011D01*
X034570Y008011D01*
X034466Y008115D01*
X034466Y008528D01*
X034570Y008632D01*
X034777Y008632D01*
X034880Y008528D01*
X034777Y008632D01*
X034570Y008632D01*
X034466Y008528D01*
X034466Y008115D01*
X034570Y008011D01*
X034777Y008011D01*
X034880Y008115D01*
X034766Y007671D02*
X030666Y007671D01*
X030666Y002771D01*
X031016Y002771D01*
X031016Y002171D01*
X030666Y002171D01*
X030666Y001421D01*
X034766Y001421D01*
X034766Y002171D01*
X034416Y002171D01*
X034416Y002771D01*
X034766Y002771D01*
X034766Y007671D01*
X059716Y007671D01*
X057926Y006771D02*
X057926Y025771D01*
X041626Y025771D01*
X041626Y007371D01*
X034516Y007421D02*
X034516Y004171D01*
X030916Y004171D01*
X030916Y007421D01*
X034516Y007421D01*
X034244Y008011D02*
X034037Y008011D01*
X034244Y008011D01*
X034140Y008011D02*
X034140Y008632D01*
X034140Y008011D01*
X034037Y008632D02*
X034244Y008632D01*
X034037Y008632D01*
X030666Y007671D02*
X000716Y007671D01*
X001716Y008671D02*
X007716Y008671D01*
X007716Y010671D01*
X001716Y010671D01*
X001716Y008671D01*
X005856Y011225D02*
X005959Y011121D01*
X006166Y011121D01*
X006269Y011225D01*
X006166Y011121D01*
X005959Y011121D01*
X005856Y011225D01*
X005856Y011638D01*
X005959Y011742D01*
X006166Y011742D01*
X006269Y011638D01*
X006166Y011742D01*
X005959Y011742D01*
X005856Y011638D01*
X005856Y011225D01*
X006500Y011121D02*
X006500Y011742D01*
X006914Y011121D01*
X006914Y011742D01*
X006914Y011121D01*
X006500Y011742D01*
X006500Y011121D01*
X007145Y011225D02*
X007248Y011121D01*
X007455Y011121D01*
X007558Y011225D01*
X007558Y011432D01*
X007455Y011535D01*
X007351Y011535D01*
X007145Y011432D01*
X007145Y011742D01*
X007558Y011742D01*
X007145Y011742D01*
X007145Y011432D01*
X007351Y011535D01*
X007455Y011535D01*
X007558Y011432D01*
X007558Y011225D01*
X007455Y011121D01*
X007248Y011121D01*
X007145Y011225D01*
X008246Y010061D02*
X010396Y010061D01*
X010396Y010011D01*
X010396Y009311D01*
X010396Y009261D01*
X008246Y009261D01*
X008226Y009263D01*
X008208Y009269D01*
X008190Y009278D01*
X008175Y009290D01*
X008163Y009305D01*
X008154Y009323D01*
X008148Y009341D01*
X008146Y009361D01*
X008146Y009961D01*
X008148Y009981D01*
X008154Y009999D01*
X008163Y010017D01*
X008175Y010032D01*
X008190Y010044D01*
X008208Y010053D01*
X008226Y010059D01*
X008246Y010061D01*
X008226Y010059D01*
X008208Y010053D01*
X008190Y010044D01*
X008175Y010032D01*
X008163Y010017D01*
X008154Y009999D01*
X008148Y009981D01*
X008146Y009961D01*
X008146Y009361D02*
X008148Y009341D01*
X008154Y009323D01*
X008163Y009305D01*
X008175Y009290D01*
X008190Y009278D01*
X008208Y009269D01*
X008226Y009263D01*
X008246Y009261D01*
X008896Y009661D02*
X009096Y009661D01*
X009096Y009861D01*
X009246Y009861D02*
X009246Y009461D01*
X009396Y009461D01*
X009396Y009861D01*
X009246Y009861D01*
X009096Y009661D02*
X009096Y009461D01*
X009546Y009461D02*
X009546Y009661D01*
X009546Y009861D01*
X009546Y009661D02*
X009746Y009661D01*
X010396Y009311D02*
X010546Y009311D01*
X010546Y010011D01*
X010396Y010011D01*
X010746Y009861D02*
X010896Y009861D01*
X010896Y009461D02*
X010696Y009461D01*
X010115Y009072D02*
X010115Y008651D01*
X010115Y009072D01*
X009975Y008932D01*
X010115Y009072D01*
X009795Y009072D02*
X009515Y008651D01*
X009795Y009072D01*
X009515Y009072D02*
X009795Y008651D01*
X009515Y009072D01*
X009975Y008651D02*
X010255Y008651D01*
X009975Y008651D01*
X011968Y008835D02*
X011968Y010528D01*
X012302Y010528D01*
X012350Y010717D02*
X012490Y010717D01*
X012560Y010787D01*
X012490Y010717D01*
X012350Y010717D01*
X012280Y010787D01*
X012280Y011067D01*
X012350Y011137D01*
X012490Y011137D01*
X012560Y011067D01*
X012490Y011137D01*
X012350Y011137D01*
X012280Y011067D01*
X012280Y010787D01*
X012350Y010717D01*
X012740Y010787D02*
X012810Y010717D01*
X012950Y010717D01*
X013020Y010787D01*
X013020Y010857D01*
X012950Y010927D01*
X012880Y010927D01*
X012950Y010927D01*
X013020Y010997D01*
X013020Y011067D01*
X012950Y011137D01*
X012810Y011137D01*
X012740Y011067D01*
X012810Y011137D01*
X012950Y011137D01*
X013020Y011067D01*
X013020Y010997D01*
X012950Y010927D01*
X013020Y010857D01*
X013020Y010787D01*
X012950Y010717D01*
X012810Y010717D01*
X012740Y010787D01*
X013129Y010528D02*
X013464Y010528D01*
X013464Y008835D01*
X013129Y008835D01*
X012302Y008835D02*
X011968Y008835D01*
X014166Y009571D02*
X018266Y009571D01*
X018266Y011771D01*
X014166Y011771D01*
X014166Y010921D01*
X014197Y010919D01*
X014228Y010913D01*
X014258Y010903D01*
X014286Y010890D01*
X014313Y010873D01*
X014337Y010853D01*
X014359Y010830D01*
X014377Y010805D01*
X014392Y010777D01*
X014404Y010748D01*
X014412Y010718D01*
X014416Y010687D01*
X014416Y010655D01*
X014412Y010624D01*
X014404Y010594D01*
X014392Y010565D01*
X014377Y010537D01*
X014359Y010512D01*
X014337Y010489D01*
X014313Y010469D01*
X014286Y010452D01*
X014258Y010439D01*
X014228Y010429D01*
X014197Y010423D01*
X014166Y010421D01*
X014166Y009571D01*
X014166Y010421D02*
X014197Y010423D01*
X014228Y010429D01*
X014258Y010439D01*
X014286Y010452D01*
X014313Y010469D01*
X014337Y010489D01*
X014359Y010512D01*
X014377Y010537D01*
X014392Y010565D01*
X014404Y010594D01*
X014412Y010624D01*
X014416Y010655D01*
X014416Y010687D01*
X014412Y010718D01*
X014404Y010748D01*
X014392Y010777D01*
X014377Y010805D01*
X014359Y010830D01*
X014337Y010853D01*
X014313Y010873D01*
X014286Y010890D01*
X014258Y010903D01*
X014228Y010913D01*
X014197Y010919D01*
X014166Y010921D01*
X010575Y011211D02*
X010295Y011211D01*
X010575Y011211D01*
X010435Y011211D02*
X010435Y011632D01*
X010295Y011492D01*
X010435Y011632D01*
X010435Y011211D01*
X010115Y011281D02*
X010115Y011562D01*
X010045Y011632D01*
X009835Y011632D01*
X009835Y011211D01*
X010045Y011211D01*
X010115Y011281D01*
X010115Y011562D01*
X010045Y011632D01*
X009835Y011632D01*
X009835Y011211D01*
X010045Y011211D01*
X010115Y011281D01*
X009655Y011211D02*
X009374Y011211D01*
X009374Y011632D01*
X009655Y011632D01*
X009374Y011632D01*
X009374Y011211D01*
X009655Y011211D01*
X009515Y011421D02*
X009374Y011421D01*
X009515Y011421D01*
X009194Y011211D02*
X008914Y011211D01*
X008914Y011632D01*
X008914Y011211D01*
X009194Y011211D01*
X009999Y011974D02*
X010022Y011951D01*
X010048Y011931D01*
X010076Y011914D01*
X010105Y011900D01*
X010136Y011889D01*
X010167Y011882D01*
X010200Y011878D01*
X010232Y011878D01*
X010265Y011882D01*
X010296Y011889D01*
X010327Y011900D01*
X010356Y011914D01*
X010384Y011931D01*
X010410Y011951D01*
X010433Y011974D01*
X010433Y012368D02*
X010410Y012391D01*
X010384Y012411D01*
X010356Y012428D01*
X010327Y012442D01*
X010296Y012453D01*
X010265Y012460D01*
X010232Y012464D01*
X010200Y012464D01*
X010167Y012460D01*
X010136Y012453D01*
X010105Y012442D01*
X010076Y012428D01*
X010048Y012411D01*
X010022Y012391D01*
X009999Y012368D01*
X009999Y011974D02*
X010022Y011951D01*
X010048Y011931D01*
X010076Y011914D01*
X010105Y011900D01*
X010136Y011889D01*
X010167Y011882D01*
X010200Y011878D01*
X010232Y011878D01*
X010265Y011882D01*
X010296Y011889D01*
X010327Y011900D01*
X010356Y011914D01*
X010384Y011931D01*
X010410Y011951D01*
X010433Y011974D01*
X010433Y012368D02*
X010410Y012391D01*
X010384Y012411D01*
X010356Y012428D01*
X010327Y012442D01*
X010296Y012453D01*
X010265Y012460D01*
X010232Y012464D01*
X010200Y012464D01*
X010167Y012460D01*
X010136Y012453D01*
X010105Y012442D01*
X010076Y012428D01*
X010048Y012411D01*
X010022Y012391D01*
X009999Y012368D01*
X010036Y013711D02*
X009896Y013851D01*
X010036Y013711D01*
X009966Y013851D02*
X009756Y013851D01*
X009966Y013851D01*
X010036Y013921D01*
X010036Y014062D01*
X009966Y014132D01*
X009756Y014132D01*
X009756Y013711D01*
X009756Y014132D01*
X009966Y014132D01*
X010036Y014062D01*
X010036Y013921D01*
X009966Y013851D01*
X010216Y013711D02*
X010496Y013711D01*
X010216Y013711D01*
X010356Y013711D02*
X010356Y014132D01*
X010216Y013992D01*
X010356Y014132D01*
X010356Y013711D01*
X010676Y013781D02*
X010746Y013711D01*
X010886Y013711D01*
X010957Y013781D01*
X010957Y013851D01*
X010886Y013921D01*
X010816Y013921D01*
X010886Y013921D01*
X010957Y013992D01*
X010957Y014062D01*
X010886Y014132D01*
X010746Y014132D01*
X010676Y014062D01*
X010746Y014132D01*
X010886Y014132D01*
X010957Y014062D01*
X010957Y013992D01*
X010886Y013921D01*
X010957Y013851D01*
X010957Y013781D01*
X010886Y013711D01*
X010746Y013711D01*
X010676Y013781D01*
X007716Y014671D02*
X007716Y016671D01*
X001716Y016671D01*
X001716Y014671D01*
X007716Y014671D01*
X007222Y013332D02*
X007325Y013228D01*
X007325Y013022D01*
X007222Y012918D01*
X006912Y012918D01*
X007222Y012918D01*
X007325Y013022D01*
X007325Y013228D01*
X007222Y013332D01*
X006912Y013332D01*
X006912Y012711D01*
X006912Y013332D01*
X007222Y013332D01*
X007119Y012918D02*
X007325Y012711D01*
X007119Y012918D01*
X006681Y012711D02*
X006681Y013332D01*
X006681Y012711D01*
X006474Y012918D01*
X006267Y012711D01*
X006267Y013332D01*
X006267Y012711D01*
X006474Y012918D01*
X006681Y012711D01*
X006036Y013022D02*
X005933Y012918D01*
X005623Y012918D01*
X005933Y012918D01*
X006036Y013022D01*
X006036Y013228D01*
X005933Y013332D01*
X005623Y013332D01*
X005623Y012711D01*
X005623Y013332D01*
X005933Y013332D01*
X006036Y013228D01*
X006036Y013022D01*
X005392Y013332D02*
X004978Y012711D01*
X005392Y013332D01*
X004334Y013332D02*
X004334Y012711D01*
X004747Y012711D01*
X004334Y012711D01*
X004334Y013332D01*
X004103Y013228D02*
X004103Y013022D01*
X003999Y012918D01*
X003689Y012918D01*
X003999Y012918D01*
X004103Y013022D01*
X004103Y013228D01*
X003999Y013332D01*
X003689Y013332D01*
X003689Y012711D01*
X003689Y013332D01*
X003999Y013332D01*
X004103Y013228D01*
X003896Y012918D02*
X004103Y012711D01*
X003896Y012918D01*
X003458Y013332D02*
X003045Y013332D01*
X003458Y013332D01*
X003251Y013332D02*
X003251Y012711D01*
X003251Y013332D01*
X002814Y013332D02*
X002814Y012711D01*
X002400Y013332D01*
X002400Y012711D01*
X002400Y013332D01*
X002814Y012711D01*
X002814Y013332D01*
X002169Y013228D02*
X002066Y013332D01*
X001859Y013332D01*
X001756Y013228D01*
X001756Y012815D01*
X001859Y012711D01*
X002066Y012711D01*
X002169Y012815D01*
X002066Y012711D01*
X001859Y012711D01*
X001756Y012815D01*
X001756Y013228D01*
X001859Y013332D01*
X002066Y013332D01*
X002169Y013228D01*
X005959Y017121D02*
X006166Y017121D01*
X006269Y017225D01*
X006166Y017121D01*
X005959Y017121D01*
X005856Y017225D01*
X005856Y017638D01*
X005959Y017742D01*
X006166Y017742D01*
X006269Y017638D01*
X006166Y017742D01*
X005959Y017742D01*
X005856Y017638D01*
X005856Y017225D01*
X005959Y017121D01*
X006500Y017121D02*
X006500Y017742D01*
X006914Y017121D01*
X006914Y017742D01*
X006914Y017121D01*
X006500Y017742D01*
X006500Y017121D01*
X007145Y017432D02*
X007558Y017432D01*
X007145Y017432D01*
X007455Y017742D01*
X007455Y017121D01*
X007455Y017742D01*
X007145Y017432D01*
X008426Y019071D02*
X005826Y019071D01*
X005476Y019671D02*
X003226Y019671D01*
X002976Y019921D01*
X002976Y020421D01*
X003226Y020671D01*
X005476Y020671D01*
X008226Y020671D01*
X008226Y019671D01*
X005476Y019671D01*
X003876Y020171D02*
X003376Y020171D01*
X003626Y020371D02*
X003626Y019971D01*
X005776Y021271D02*
X008376Y021271D01*
X008426Y021271D02*
X008426Y019071D01*
X009746Y019142D02*
X009746Y018721D01*
X009746Y019142D01*
X009956Y019142D01*
X010026Y019072D01*
X010026Y018931D01*
X009956Y018861D01*
X009746Y018861D01*
X009956Y018861D01*
X010026Y018931D01*
X010026Y019072D01*
X009956Y019142D01*
X009746Y019142D01*
X009886Y018861D02*
X010026Y018721D01*
X009886Y018861D01*
X010206Y018721D02*
X010486Y018721D01*
X010206Y018721D01*
X010346Y018721D02*
X010346Y019142D01*
X010206Y019002D01*
X010346Y019142D01*
X010346Y018721D01*
X010666Y018791D02*
X010947Y019072D01*
X010947Y018791D01*
X010876Y018721D01*
X010736Y018721D01*
X010666Y018791D01*
X010666Y019072D01*
X010736Y019142D01*
X010876Y019142D01*
X010947Y019072D01*
X010666Y018791D01*
X010736Y018721D01*
X010876Y018721D01*
X010947Y018791D01*
X010947Y019072D01*
X010876Y019142D01*
X010736Y019142D01*
X010666Y019072D01*
X010666Y018791D01*
X010816Y017632D02*
X010816Y017211D01*
X010816Y017632D01*
X010676Y017492D01*
X010816Y017632D01*
X010676Y017211D02*
X010957Y017211D01*
X010676Y017211D01*
X010496Y017211D02*
X010216Y017211D01*
X010496Y017211D01*
X010356Y017211D02*
X010356Y017632D01*
X010216Y017492D01*
X010356Y017632D01*
X010356Y017211D01*
X010036Y017211D02*
X009896Y017351D01*
X010036Y017211D01*
X009966Y017351D02*
X009756Y017351D01*
X009966Y017351D01*
X010036Y017421D01*
X010036Y017562D01*
X009966Y017632D01*
X009756Y017632D01*
X009756Y017211D01*
X009756Y017632D01*
X009966Y017632D01*
X010036Y017562D01*
X010036Y017421D01*
X009966Y017351D01*
X009966Y016132D02*
X010036Y016062D01*
X010036Y015921D01*
X009966Y015851D01*
X009756Y015851D01*
X009966Y015851D01*
X010036Y015921D01*
X010036Y016062D01*
X009966Y016132D01*
X009756Y016132D01*
X009756Y015711D01*
X009756Y016132D01*
X009966Y016132D01*
X010216Y015992D02*
X010356Y016132D01*
X010356Y015711D01*
X010356Y016132D01*
X010216Y015992D01*
X010216Y015711D02*
X010496Y015711D01*
X010216Y015711D01*
X010036Y015711D02*
X009896Y015851D01*
X010036Y015711D01*
X010676Y015711D02*
X010957Y015992D01*
X010957Y016062D01*
X010886Y016132D01*
X010746Y016132D01*
X010676Y016062D01*
X010746Y016132D01*
X010886Y016132D01*
X010957Y016062D01*
X010957Y015992D01*
X010676Y015711D01*
X010957Y015711D01*
X010676Y015711D01*
X012236Y017221D02*
X012236Y017642D01*
X012446Y017642D01*
X012516Y017572D01*
X012516Y017431D01*
X012446Y017361D01*
X012236Y017361D01*
X012446Y017361D01*
X012516Y017431D01*
X012516Y017572D01*
X012446Y017642D01*
X012236Y017642D01*
X012236Y017221D01*
X012376Y017361D02*
X012516Y017221D01*
X012376Y017361D01*
X012696Y017221D02*
X012976Y017221D01*
X012696Y017221D01*
X012836Y017221D02*
X012836Y017642D01*
X012696Y017502D01*
X012836Y017642D01*
X012836Y017221D01*
X013156Y017291D02*
X013226Y017221D01*
X013366Y017221D01*
X013437Y017291D01*
X013437Y017431D01*
X013366Y017502D01*
X013296Y017502D01*
X013156Y017431D01*
X013156Y017642D01*
X013437Y017642D01*
X013156Y017642D01*
X013156Y017431D01*
X013296Y017502D01*
X013366Y017502D01*
X013437Y017431D01*
X013437Y017291D01*
X013366Y017221D01*
X013226Y017221D01*
X013156Y017291D01*
X014216Y016671D02*
X014216Y015921D01*
X014247Y015919D01*
X014278Y015913D01*
X014308Y015903D01*
X014336Y015890D01*
X014363Y015873D01*
X014387Y015853D01*
X014409Y015830D01*
X014427Y015805D01*
X014442Y015777D01*
X014454Y015748D01*
X014462Y015718D01*
X014466Y015687D01*
X014466Y015655D01*
X014462Y015624D01*
X014454Y015594D01*
X014442Y015565D01*
X014427Y015537D01*
X014409Y015512D01*
X014387Y015489D01*
X014363Y015469D01*
X014336Y015452D01*
X014308Y015439D01*
X014278Y015429D01*
X014247Y015423D01*
X014216Y015421D01*
X014216Y014671D01*
X018216Y014671D01*
X018216Y016671D01*
X014216Y016671D01*
X014216Y015921D02*
X014247Y015919D01*
X014278Y015913D01*
X014308Y015903D01*
X014336Y015890D01*
X014363Y015873D01*
X014387Y015853D01*
X014409Y015830D01*
X014427Y015805D01*
X014442Y015777D01*
X014454Y015748D01*
X014462Y015718D01*
X014466Y015687D01*
X014466Y015655D01*
X014462Y015624D01*
X014454Y015594D01*
X014442Y015565D01*
X014427Y015537D01*
X014409Y015512D01*
X014387Y015489D01*
X014363Y015469D01*
X014336Y015452D01*
X014308Y015439D01*
X014278Y015429D01*
X014247Y015423D01*
X014216Y015421D01*
X018485Y015451D02*
X018485Y015244D01*
X018589Y015141D01*
X019002Y015141D01*
X019106Y015244D01*
X019106Y015451D01*
X019002Y015555D01*
X019106Y015451D01*
X019106Y015244D01*
X019002Y015141D01*
X018589Y015141D01*
X018485Y015244D01*
X018485Y015451D01*
X018589Y015555D01*
X018485Y015451D01*
X018589Y015786D02*
X018485Y015889D01*
X018485Y016096D01*
X018589Y016199D01*
X018692Y016199D01*
X018795Y016096D01*
X018899Y016199D01*
X019002Y016199D01*
X019106Y016096D01*
X019106Y015889D01*
X019002Y015786D01*
X019106Y015889D01*
X019106Y016096D01*
X019002Y016199D01*
X018899Y016199D01*
X018795Y016096D01*
X018795Y015992D01*
X018795Y016096D01*
X018692Y016199D01*
X018589Y016199D01*
X018485Y016096D01*
X018485Y015889D01*
X018589Y015786D01*
X018485Y014918D02*
X018485Y014711D01*
X018485Y014918D01*
X018485Y014815D02*
X019106Y014815D01*
X018485Y014815D01*
X019106Y014711D02*
X019106Y014918D01*
X019106Y014711D01*
X021216Y015171D02*
X023216Y015171D01*
X023216Y009171D01*
X021216Y009171D01*
X021216Y015171D01*
X024055Y014637D02*
X024055Y014223D01*
X024055Y014637D01*
X024055Y014430D02*
X024676Y014430D01*
X024055Y014430D01*
X024159Y013992D02*
X024365Y013992D01*
X024469Y013889D01*
X024469Y013579D01*
X024469Y013889D01*
X024365Y013992D01*
X024159Y013992D01*
X024055Y013889D01*
X024055Y013579D01*
X024676Y013579D01*
X024055Y013579D01*
X024055Y013889D01*
X024159Y013992D01*
X024469Y013785D02*
X024676Y013992D01*
X024469Y013785D01*
X024572Y013348D02*
X024159Y013348D01*
X024055Y013244D01*
X024055Y013037D01*
X024159Y012934D01*
X024572Y012934D01*
X024676Y013037D01*
X024676Y013244D01*
X024572Y013348D01*
X024159Y013348D01*
X024055Y013244D01*
X024055Y013037D01*
X024159Y012934D01*
X024572Y012934D01*
X024676Y013037D01*
X024676Y013244D01*
X024572Y013348D01*
X024365Y012703D02*
X024159Y012703D01*
X024055Y012600D01*
X024055Y012289D01*
X024676Y012289D01*
X024055Y012289D01*
X024055Y012600D01*
X024159Y012703D01*
X024365Y012703D01*
X024469Y012600D01*
X024469Y012289D01*
X024469Y012600D01*
X024365Y012703D01*
X024159Y011414D02*
X024055Y011311D01*
X024055Y011000D01*
X024676Y011000D01*
X024676Y011311D01*
X024572Y011414D01*
X024159Y011414D01*
X024055Y011311D01*
X024055Y011000D01*
X024676Y011000D01*
X024676Y011311D01*
X024572Y011414D01*
X024159Y011414D01*
X024159Y010770D02*
X024055Y010666D01*
X024055Y010459D01*
X024159Y010356D01*
X024572Y010356D01*
X024676Y010459D01*
X024676Y010666D01*
X024572Y010770D01*
X024676Y010666D01*
X024676Y010459D01*
X024572Y010356D01*
X024159Y010356D01*
X024055Y010459D01*
X024055Y010666D01*
X024159Y010770D01*
X024676Y010125D02*
X024676Y009711D01*
X024055Y009711D01*
X024676Y009711D01*
X024676Y010125D01*
X026116Y009371D02*
X026116Y023971D01*
X028316Y023971D01*
X028316Y009371D01*
X027466Y009371D01*
X027464Y009402D01*
X027458Y009433D01*
X027448Y009463D01*
X027435Y009491D01*
X027418Y009518D01*
X027398Y009542D01*
X027375Y009564D01*
X027350Y009582D01*
X027322Y009597D01*
X027293Y009609D01*
X027263Y009617D01*
X027232Y009621D01*
X027200Y009621D01*
X027169Y009617D01*
X027139Y009609D01*
X027110Y009597D01*
X027082Y009582D01*
X027057Y009564D01*
X027034Y009542D01*
X027014Y009518D01*
X026997Y009491D01*
X026984Y009463D01*
X026974Y009433D01*
X026968Y009402D01*
X026966Y009371D01*
X026116Y009371D01*
X026537Y009072D02*
X026744Y009072D01*
X026537Y009072D01*
X026640Y009072D02*
X026640Y008451D01*
X026640Y009072D01*
X026966Y008968D02*
X026966Y008555D01*
X027070Y008451D01*
X027277Y008451D01*
X027380Y008555D01*
X027277Y008451D01*
X027070Y008451D01*
X026966Y008555D01*
X026966Y008968D01*
X027070Y009072D01*
X027277Y009072D01*
X027380Y008968D01*
X027277Y009072D01*
X027070Y009072D01*
X026966Y008968D01*
X026966Y009371D02*
X026968Y009402D01*
X026974Y009433D01*
X026984Y009463D01*
X026997Y009491D01*
X027014Y009518D01*
X027034Y009542D01*
X027057Y009564D01*
X027082Y009582D01*
X027110Y009597D01*
X027139Y009609D01*
X027169Y009617D01*
X027200Y009621D01*
X027232Y009621D01*
X027263Y009617D01*
X027293Y009609D01*
X027322Y009597D01*
X027350Y009582D01*
X027375Y009564D01*
X027398Y009542D01*
X027418Y009518D01*
X027435Y009491D01*
X027448Y009463D01*
X027458Y009433D01*
X027464Y009402D01*
X027466Y009371D01*
X027921Y009072D02*
X027611Y008762D01*
X028025Y008762D01*
X027611Y008762D01*
X027921Y009072D01*
X027921Y008451D01*
X027921Y009072D01*
X026744Y008451D02*
X026537Y008451D01*
X026744Y008451D01*
X029256Y009711D02*
X029256Y010132D01*
X029466Y010132D01*
X029536Y010062D01*
X029536Y009921D01*
X029466Y009851D01*
X029256Y009851D01*
X029466Y009851D01*
X029536Y009921D01*
X029536Y010062D01*
X029466Y010132D01*
X029256Y010132D01*
X029256Y009711D01*
X029396Y009851D02*
X029536Y009711D01*
X029396Y009851D01*
X029716Y009711D02*
X029996Y009711D01*
X029716Y009711D01*
X029856Y009711D02*
X029856Y010132D01*
X029716Y009992D01*
X029856Y010132D01*
X029856Y009711D01*
X030176Y009781D02*
X030246Y009711D01*
X030386Y009711D01*
X030457Y009781D01*
X030457Y009851D01*
X030386Y009921D01*
X030176Y009921D01*
X030176Y009781D01*
X030246Y009711D01*
X030386Y009711D01*
X030457Y009781D01*
X030457Y009851D01*
X030386Y009921D01*
X030176Y009921D01*
X030316Y010062D01*
X030457Y010132D01*
X030316Y010062D01*
X030176Y009921D01*
X030176Y009781D01*
X031666Y013521D02*
X031666Y013821D01*
X031516Y013671D02*
X031816Y013671D01*
X031966Y013571D02*
X031966Y014771D01*
X032166Y014771D01*
X032166Y013571D01*
X031966Y013571D01*
X031216Y014171D02*
X031220Y014262D01*
X031233Y014352D01*
X031253Y014441D01*
X031282Y014527D01*
X031318Y014611D01*
X031362Y014691D01*
X031412Y014766D01*
X031470Y014837D01*
X031533Y014902D01*
X031603Y014961D01*
X031677Y015013D01*
X031756Y015059D01*
X031839Y015097D01*
X031924Y015128D01*
X032013Y015150D01*
X032102Y015165D01*
X032193Y015171D01*
X032284Y015169D01*
X032375Y015158D01*
X032464Y015140D01*
X032551Y015113D01*
X032635Y015079D01*
X032716Y015037D01*
X032793Y014988D01*
X032865Y014932D01*
X032931Y014870D01*
X032992Y014802D01*
X033046Y014729D01*
X033093Y014651D01*
X033133Y014569D01*
X033166Y014484D01*
X033190Y014397D01*
X033207Y014307D01*
X033215Y014217D01*
X033215Y014125D01*
X033207Y014035D01*
X033190Y013945D01*
X033166Y013858D01*
X033133Y013773D01*
X033093Y013691D01*
X033046Y013613D01*
X032992Y013540D01*
X032931Y013472D01*
X032865Y013410D01*
X032793Y013354D01*
X032716Y013305D01*
X032635Y013263D01*
X032551Y013229D01*
X032464Y013202D01*
X032375Y013184D01*
X032284Y013173D01*
X032193Y013171D01*
X032102Y013177D01*
X032013Y013192D01*
X031924Y013214D01*
X031839Y013245D01*
X031756Y013283D01*
X031677Y013329D01*
X031603Y013381D01*
X031533Y013440D01*
X031470Y013505D01*
X031412Y013576D01*
X031362Y013651D01*
X031318Y013731D01*
X031282Y013815D01*
X031253Y013901D01*
X031233Y013990D01*
X031220Y014080D01*
X031216Y014171D01*
X031063Y014171D02*
X030923Y014171D01*
X031063Y014171D02*
X031063Y014031D01*
X030993Y013961D01*
X030853Y013961D01*
X030783Y014031D01*
X030783Y014312D01*
X030853Y014382D01*
X030993Y014382D01*
X031063Y014312D01*
X030616Y014382D02*
X030476Y014382D01*
X030546Y014382D02*
X030546Y013961D01*
X030476Y013961D02*
X030616Y013961D01*
X030296Y013961D02*
X030156Y014101D01*
X030226Y014101D02*
X030016Y014101D01*
X030016Y013961D02*
X030016Y014382D01*
X030226Y014382D01*
X030296Y014312D01*
X030296Y014171D01*
X030226Y014101D01*
X029836Y014382D02*
X029556Y014382D01*
X029696Y014382D02*
X029696Y013961D01*
X031256Y015531D02*
X031326Y015461D01*
X031466Y015461D01*
X031536Y015531D01*
X031466Y015461D01*
X031326Y015461D01*
X031256Y015531D01*
X031256Y015812D01*
X031326Y015882D01*
X031466Y015882D01*
X031536Y015812D01*
X031466Y015882D01*
X031326Y015882D01*
X031256Y015812D01*
X031256Y015531D01*
X031716Y015461D02*
X031996Y015742D01*
X031996Y015812D01*
X031926Y015882D01*
X031786Y015882D01*
X031716Y015812D01*
X031786Y015882D01*
X031926Y015882D01*
X031996Y015812D01*
X031996Y015742D01*
X031716Y015461D01*
X031996Y015461D01*
X031716Y015461D01*
X030657Y015961D02*
X030376Y015961D01*
X030657Y016242D01*
X030657Y016312D01*
X030586Y016382D01*
X030446Y016382D01*
X030376Y016312D01*
X030196Y016312D02*
X030196Y016171D01*
X030126Y016101D01*
X029916Y016101D01*
X029916Y015961D02*
X029916Y016382D01*
X030126Y016382D01*
X030196Y016312D01*
X029736Y016382D02*
X029456Y016382D01*
X029596Y016382D02*
X029596Y015961D01*
X031216Y014171D02*
X031220Y014262D01*
X031233Y014352D01*
X031253Y014441D01*
X031282Y014527D01*
X031318Y014611D01*
X031362Y014691D01*
X031412Y014766D01*
X031470Y014837D01*
X031533Y014902D01*
X031603Y014961D01*
X031677Y015013D01*
X031756Y015059D01*
X031839Y015097D01*
X031924Y015128D01*
X032013Y015150D01*
X032102Y015165D01*
X032193Y015171D01*
X032284Y015169D01*
X032375Y015158D01*
X032464Y015140D01*
X032551Y015113D01*
X032635Y015079D01*
X032716Y015037D01*
X032793Y014988D01*
X032865Y014932D01*
X032931Y014870D01*
X032992Y014802D01*
X033046Y014729D01*
X033093Y014651D01*
X033133Y014569D01*
X033166Y014484D01*
X033190Y014397D01*
X033207Y014307D01*
X033215Y014217D01*
X033215Y014125D01*
X033207Y014035D01*
X033190Y013945D01*
X033166Y013858D01*
X033133Y013773D01*
X033093Y013691D01*
X033046Y013613D01*
X032992Y013540D01*
X032931Y013472D01*
X032865Y013410D01*
X032793Y013354D01*
X032716Y013305D01*
X032635Y013263D01*
X032551Y013229D01*
X032464Y013202D01*
X032375Y013184D01*
X032284Y013173D01*
X032193Y013171D01*
X032102Y013177D01*
X032013Y013192D01*
X031924Y013214D01*
X031839Y013245D01*
X031756Y013283D01*
X031677Y013329D01*
X031603Y013381D01*
X031533Y013440D01*
X031470Y013505D01*
X031412Y013576D01*
X031362Y013651D01*
X031318Y013731D01*
X031282Y013815D01*
X031253Y013901D01*
X031233Y013990D01*
X031220Y014080D01*
X031216Y014171D01*
X034666Y015171D02*
X035266Y015171D01*
X034966Y014871D02*
X034966Y015471D01*
X036816Y015171D02*
X037266Y015171D01*
X037266Y014421D01*
X037516Y014421D01*
X037516Y015921D01*
X037266Y015921D01*
X037266Y015171D01*
X034116Y015171D02*
X034131Y015489D01*
X034174Y015805D01*
X034246Y016115D01*
X034346Y016418D01*
X034473Y016710D01*
X034626Y016990D01*
X034803Y017254D01*
X035004Y017501D01*
X035227Y017729D01*
X035470Y017936D01*
X035730Y018119D01*
X036006Y018279D01*
X036295Y018412D01*
X036595Y018519D01*
X036904Y018598D01*
X037218Y018648D01*
X037536Y018670D01*
X037855Y018663D01*
X038171Y018627D01*
X038483Y018562D01*
X038788Y018469D01*
X039083Y018349D01*
X039366Y018202D01*
X039634Y018030D01*
X039886Y017835D01*
X040119Y017618D01*
X040331Y017380D01*
X040521Y017124D01*
X040686Y016852D01*
X040826Y016565D01*
X040940Y016268D01*
X041026Y015961D01*
X041083Y015648D01*
X041112Y015330D01*
X041112Y015012D01*
X041083Y014694D01*
X041026Y014381D01*
X040940Y014074D01*
X040826Y013777D01*
X040686Y013490D01*
X040521Y013218D01*
X040331Y012962D01*
X040119Y012724D01*
X039886Y012507D01*
X039634Y012312D01*
X039366Y012140D01*
X039083Y011993D01*
X038788Y011873D01*
X038483Y011780D01*
X038171Y011715D01*
X037855Y011679D01*
X037536Y011672D01*
X037218Y011694D01*
X036904Y011744D01*
X036595Y011823D01*
X036295Y011930D01*
X036006Y012063D01*
X035730Y012223D01*
X035470Y012406D01*
X035227Y012613D01*
X035004Y012841D01*
X034803Y013088D01*
X034626Y013352D01*
X034473Y013632D01*
X034346Y013924D01*
X034246Y014227D01*
X034174Y014537D01*
X034131Y014853D01*
X034116Y015171D01*
X034131Y015489D01*
X034174Y015805D01*
X034246Y016115D01*
X034346Y016418D01*
X034473Y016710D01*
X034626Y016990D01*
X034803Y017254D01*
X035004Y017501D01*
X035227Y017729D01*
X035470Y017936D01*
X035730Y018119D01*
X036006Y018279D01*
X036295Y018412D01*
X036595Y018519D01*
X036904Y018598D01*
X037218Y018648D01*
X037536Y018670D01*
X037855Y018663D01*
X038171Y018627D01*
X038483Y018562D01*
X038788Y018469D01*
X039083Y018349D01*
X039366Y018202D01*
X039634Y018030D01*
X039886Y017835D01*
X040119Y017618D01*
X040331Y017380D01*
X040521Y017124D01*
X040686Y016852D01*
X040826Y016565D01*
X040940Y016268D01*
X041026Y015961D01*
X041083Y015648D01*
X041112Y015330D01*
X041112Y015012D01*
X041083Y014694D01*
X041026Y014381D01*
X040940Y014074D01*
X040826Y013777D01*
X040686Y013490D01*
X040521Y013218D01*
X040331Y012962D01*
X040119Y012724D01*
X039886Y012507D01*
X039634Y012312D01*
X039366Y012140D01*
X039083Y011993D01*
X038788Y011873D01*
X038483Y011780D01*
X038171Y011715D01*
X037855Y011679D01*
X037536Y011672D01*
X037218Y011694D01*
X036904Y011744D01*
X036595Y011823D01*
X036295Y011930D01*
X036006Y012063D01*
X035730Y012223D01*
X035470Y012406D01*
X035227Y012613D01*
X035004Y012841D01*
X034803Y013088D01*
X034626Y013352D01*
X034473Y013632D01*
X034346Y013924D01*
X034246Y014227D01*
X034174Y014537D01*
X034131Y014853D01*
X034116Y015171D01*
X037866Y015171D02*
X038416Y015171D01*
X038716Y019151D02*
X038716Y024441D01*
X040716Y024441D01*
X040716Y025181D01*
X038716Y025181D01*
X038716Y024441D01*
X039016Y024081D02*
X039016Y023681D01*
X038816Y023881D02*
X039216Y023881D01*
X038186Y023990D02*
X038186Y024404D01*
X038186Y023990D01*
X038186Y024197D02*
X037565Y024197D01*
X037772Y023990D01*
X037565Y024197D01*
X038186Y024197D01*
X038186Y023760D02*
X037979Y023553D01*
X038186Y023760D01*
X037979Y023656D02*
X037979Y023346D01*
X037979Y023656D01*
X037875Y023760D01*
X037669Y023760D01*
X037565Y023656D01*
X037565Y023346D01*
X038186Y023346D01*
X037565Y023346D01*
X037565Y023656D01*
X037669Y023760D01*
X037875Y023760D01*
X037979Y023656D01*
X037979Y023115D02*
X038082Y023115D01*
X038186Y023012D01*
X038186Y022701D01*
X037565Y022701D01*
X037565Y023012D01*
X037669Y023115D01*
X037772Y023115D01*
X037875Y023012D01*
X037875Y022701D01*
X037875Y023012D01*
X037979Y023115D01*
X038082Y023115D01*
X038186Y023012D01*
X038186Y022701D01*
X037565Y022701D01*
X037565Y023012D01*
X037669Y023115D01*
X037772Y023115D01*
X037875Y023012D01*
X037979Y023115D01*
X039016Y022581D02*
X039043Y022579D01*
X039070Y022574D01*
X039096Y022564D01*
X039120Y022552D01*
X039142Y022536D01*
X039162Y022518D01*
X039179Y022496D01*
X039194Y022473D01*
X039204Y022448D01*
X039212Y022422D01*
X039216Y022395D01*
X039216Y022367D01*
X039212Y022340D01*
X039204Y022314D01*
X039194Y022289D01*
X039179Y022266D01*
X039162Y022244D01*
X039142Y022226D01*
X039120Y022210D01*
X039096Y022198D01*
X039070Y022188D01*
X039043Y022183D01*
X039016Y022181D01*
X038989Y022179D01*
X038962Y022174D01*
X038936Y022164D01*
X038912Y022152D01*
X038890Y022136D01*
X038870Y022118D01*
X038853Y022096D01*
X038838Y022073D01*
X038828Y022048D01*
X038820Y022022D01*
X038816Y021995D01*
X038816Y021967D01*
X038820Y021940D01*
X038828Y021914D01*
X038838Y021889D01*
X038853Y021866D01*
X038870Y021844D01*
X038890Y021826D01*
X038912Y021810D01*
X038936Y021798D01*
X038962Y021788D01*
X038989Y021783D01*
X039016Y021781D01*
X038989Y021783D01*
X038962Y021788D01*
X038936Y021798D01*
X038912Y021810D01*
X038890Y021826D01*
X038870Y021844D01*
X038853Y021866D01*
X038838Y021889D01*
X038828Y021914D01*
X038820Y021940D01*
X038816Y021967D01*
X038816Y021995D01*
X038820Y022022D01*
X038828Y022048D01*
X038838Y022073D01*
X038853Y022096D01*
X038870Y022118D01*
X038890Y022136D01*
X038912Y022152D01*
X038936Y022164D01*
X038962Y022174D01*
X038989Y022179D01*
X039016Y022181D01*
X039043Y022183D01*
X039070Y022188D01*
X039096Y022198D01*
X039120Y022210D01*
X039142Y022226D01*
X039162Y022244D01*
X039179Y022266D01*
X039194Y022289D01*
X039204Y022314D01*
X039212Y022340D01*
X039216Y022367D01*
X039216Y022395D01*
X039212Y022422D01*
X039204Y022448D01*
X039194Y022473D01*
X039179Y022496D01*
X039162Y022518D01*
X039142Y022536D01*
X039120Y022552D01*
X039096Y022564D01*
X039070Y022574D01*
X039043Y022579D01*
X039016Y022581D01*
X036957Y021572D02*
X036957Y021502D01*
X036886Y021431D01*
X036957Y021361D01*
X036957Y021291D01*
X036886Y021221D01*
X036746Y021221D01*
X036676Y021291D01*
X036746Y021221D01*
X036886Y021221D01*
X036957Y021291D01*
X036957Y021361D01*
X036886Y021431D01*
X036816Y021431D01*
X036886Y021431D01*
X036957Y021502D01*
X036957Y021572D01*
X036886Y021642D01*
X036746Y021642D01*
X036676Y021572D01*
X036746Y021642D01*
X036886Y021642D01*
X036957Y021572D01*
X036496Y021572D02*
X036426Y021642D01*
X036286Y021642D01*
X036216Y021572D01*
X036286Y021642D01*
X036426Y021642D01*
X036496Y021572D01*
X036496Y021502D01*
X036216Y021221D01*
X036496Y021221D01*
X036216Y021221D01*
X036496Y021502D01*
X036496Y021572D01*
X036036Y021572D02*
X036036Y021431D01*
X035966Y021361D01*
X035756Y021361D01*
X035966Y021361D01*
X036036Y021431D01*
X036036Y021572D01*
X035966Y021642D01*
X035756Y021642D01*
X035756Y021221D01*
X035756Y021642D01*
X035966Y021642D01*
X036036Y021572D01*
X035896Y021361D02*
X036036Y021221D01*
X035896Y021361D01*
X034957Y021221D02*
X034676Y021221D01*
X034957Y021221D01*
X034816Y021221D02*
X034816Y021642D01*
X034676Y021502D01*
X034816Y021642D01*
X034816Y021221D01*
X034496Y021221D02*
X034216Y021221D01*
X034496Y021502D01*
X034496Y021572D01*
X034426Y021642D01*
X034286Y021642D01*
X034216Y021572D01*
X034286Y021642D01*
X034426Y021642D01*
X034496Y021572D01*
X034496Y021502D01*
X034216Y021221D01*
X034496Y021221D01*
X034036Y021221D02*
X033896Y021361D01*
X034036Y021221D01*
X033966Y021361D02*
X033756Y021361D01*
X033966Y021361D01*
X034036Y021431D01*
X034036Y021572D01*
X033966Y021642D01*
X033756Y021642D01*
X033756Y021221D01*
X033756Y021642D01*
X033966Y021642D01*
X034036Y021572D01*
X034036Y021431D01*
X033966Y021361D01*
X033966Y020132D02*
X034036Y020062D01*
X034036Y019921D01*
X033966Y019851D01*
X033756Y019851D01*
X033966Y019851D01*
X034036Y019921D01*
X034036Y020062D01*
X033966Y020132D01*
X033756Y020132D01*
X033756Y019711D01*
X033756Y020132D01*
X033966Y020132D01*
X034216Y020062D02*
X034286Y020132D01*
X034426Y020132D01*
X034496Y020062D01*
X034496Y019992D01*
X034216Y019711D01*
X034496Y019711D01*
X034216Y019711D01*
X034496Y019992D01*
X034496Y020062D01*
X034426Y020132D01*
X034286Y020132D01*
X034216Y020062D01*
X033896Y019851D02*
X034036Y019711D01*
X033896Y019851D01*
X034676Y019711D02*
X034957Y019992D01*
X034957Y020062D01*
X034886Y020132D01*
X034746Y020132D01*
X034676Y020062D01*
X034746Y020132D01*
X034886Y020132D01*
X034957Y020062D01*
X034957Y019992D01*
X034676Y019711D01*
X034957Y019711D01*
X034676Y019711D01*
X035736Y019721D02*
X035736Y020142D01*
X035946Y020142D01*
X036016Y020072D01*
X036016Y019931D01*
X035946Y019861D01*
X035736Y019861D01*
X035946Y019861D01*
X036016Y019931D01*
X036016Y020072D01*
X035946Y020142D01*
X035736Y020142D01*
X035736Y019721D01*
X035876Y019861D02*
X036016Y019721D01*
X035876Y019861D01*
X036196Y019721D02*
X036476Y020002D01*
X036476Y020072D01*
X036406Y020142D01*
X036266Y020142D01*
X036196Y020072D01*
X036266Y020142D01*
X036406Y020142D01*
X036476Y020072D01*
X036476Y020002D01*
X036196Y019721D01*
X036476Y019721D01*
X036196Y019721D01*
X036656Y019931D02*
X036866Y020142D01*
X036866Y019721D01*
X036866Y020142D01*
X036656Y019931D01*
X036937Y019931D01*
X036656Y019931D01*
X038716Y019151D02*
X040716Y019151D01*
X040716Y024441D01*
X038577Y024961D02*
X038297Y024961D01*
X038577Y025242D01*
X038297Y025242D01*
X038117Y025171D02*
X037837Y025171D01*
X037837Y024961D02*
X037837Y025382D01*
X037657Y025312D02*
X037376Y025031D01*
X037446Y024961D01*
X037586Y024961D01*
X037657Y025031D01*
X037657Y025312D01*
X037586Y025382D01*
X037446Y025382D01*
X037376Y025312D01*
X037376Y025031D01*
X037196Y024961D02*
X036916Y024961D01*
X037196Y025242D01*
X037196Y025312D01*
X037126Y025382D01*
X036986Y025382D01*
X036916Y025312D01*
X036596Y025382D02*
X036596Y024961D01*
X036456Y024961D02*
X036736Y024961D01*
X036456Y025242D02*
X036596Y025382D01*
X036016Y025382D02*
X036016Y024961D01*
X035876Y024961D02*
X036157Y024961D01*
X036086Y024632D02*
X036086Y024211D01*
X036086Y024632D01*
X035946Y024492D01*
X036086Y024632D01*
X035766Y024562D02*
X035766Y024281D01*
X035696Y024211D01*
X035556Y024211D01*
X035486Y024281D01*
X035486Y024562D01*
X035556Y024632D01*
X035696Y024632D01*
X035766Y024562D01*
X035766Y024281D01*
X035696Y024211D01*
X035556Y024211D01*
X035486Y024281D01*
X035486Y024562D01*
X035556Y024632D01*
X035696Y024632D01*
X035766Y024562D01*
X035626Y024351D02*
X035766Y024211D01*
X035626Y024351D01*
X035946Y024211D02*
X036226Y024211D01*
X035946Y024211D01*
X035416Y024961D02*
X035416Y025382D01*
X035626Y025382D01*
X035696Y025312D01*
X035696Y025171D01*
X035626Y025101D01*
X035416Y025101D01*
X035236Y025382D02*
X034956Y025382D01*
X035096Y025382D02*
X035096Y024961D01*
X035876Y025242D02*
X036016Y025382D01*
X038117Y025382D02*
X038117Y024961D01*
X037676Y027221D02*
X037055Y027221D01*
X037676Y027221D01*
X037676Y027635D01*
X037676Y027221D01*
X037676Y027866D02*
X037676Y028073D01*
X037676Y027866D01*
X037676Y027969D02*
X037055Y027969D01*
X037676Y027969D01*
X037676Y028296D02*
X037055Y028296D01*
X037676Y028709D01*
X037055Y028709D01*
X037676Y028709D01*
X037055Y028296D01*
X037676Y028296D01*
X037055Y028073D02*
X037055Y027866D01*
X037055Y028073D01*
X037055Y028940D02*
X037676Y028940D01*
X037676Y029354D01*
X037676Y028940D01*
X037055Y028940D01*
X037055Y029354D01*
X037055Y028940D01*
X037365Y028940D02*
X037365Y029147D01*
X037365Y028940D01*
X036721Y029793D02*
X042824Y029793D01*
X042635Y029805D02*
X048540Y029805D01*
X048737Y029805D01*
X048733Y032947D01*
X048741Y032943D02*
X036524Y032947D01*
X036524Y034754D01*
X036721Y034754D01*
X036721Y029793D01*
X036918Y030187D02*
X036918Y032549D01*
X038493Y032549D01*
X038493Y030187D01*
X036918Y030187D01*
X036606Y030701D02*
X036325Y030701D01*
X036255Y030771D01*
X036255Y030911D01*
X036325Y030982D01*
X036255Y030911D01*
X036255Y030771D01*
X036325Y030701D01*
X036606Y030701D01*
X036676Y030771D01*
X036676Y030911D01*
X036606Y030982D01*
X036676Y030911D01*
X036676Y030771D01*
X036606Y030701D01*
X036676Y031162D02*
X036255Y031162D01*
X036676Y031442D01*
X036255Y031442D01*
X036676Y031442D01*
X036255Y031162D01*
X036676Y031162D01*
X036606Y031622D02*
X036676Y031692D01*
X036676Y031832D01*
X036606Y031902D01*
X036535Y031902D01*
X036465Y031832D01*
X036465Y031762D01*
X036465Y031832D01*
X036395Y031902D01*
X036325Y031902D01*
X036255Y031832D01*
X036255Y031692D01*
X036325Y031622D01*
X036255Y031692D01*
X036255Y031832D01*
X036325Y031902D01*
X036395Y031902D01*
X036465Y031832D01*
X036535Y031902D01*
X036606Y031902D01*
X036676Y031832D01*
X036676Y031692D01*
X036606Y031622D01*
X037115Y031171D02*
X037117Y031225D01*
X037125Y031278D01*
X037137Y031330D01*
X037154Y031382D01*
X037175Y031431D01*
X037201Y031478D01*
X037231Y031523D01*
X037265Y031564D01*
X037303Y031603D01*
X037344Y031638D01*
X037388Y031669D01*
X037434Y031696D01*
X037483Y031718D01*
X037534Y031736D01*
X037586Y031750D01*
X037639Y031758D01*
X037693Y031762D01*
X037746Y031761D01*
X037800Y031755D01*
X037852Y031744D01*
X037904Y031728D01*
X037954Y031708D01*
X038001Y031683D01*
X038047Y031654D01*
X038089Y031621D01*
X038129Y031584D01*
X038164Y031544D01*
X038196Y031501D01*
X038224Y031455D01*
X038248Y031406D01*
X038267Y031356D01*
X038282Y031304D01*
X038291Y031251D01*
X038296Y031198D01*
X038296Y031144D01*
X038291Y031091D01*
X038282Y031038D01*
X038267Y030986D01*
X038248Y030936D01*
X038224Y030887D01*
X038196Y030841D01*
X038164Y030798D01*
X038129Y030758D01*
X038089Y030721D01*
X038047Y030688D01*
X038002Y030659D01*
X037954Y030634D01*
X037904Y030614D01*
X037852Y030598D01*
X037800Y030587D01*
X037746Y030581D01*
X037693Y030580D01*
X037639Y030584D01*
X037586Y030592D01*
X037534Y030606D01*
X037483Y030624D01*
X037434Y030646D01*
X037388Y030673D01*
X037344Y030704D01*
X037303Y030739D01*
X037265Y030778D01*
X037231Y030819D01*
X037201Y030864D01*
X037175Y030911D01*
X037154Y030960D01*
X037137Y031012D01*
X037125Y031064D01*
X037117Y031117D01*
X037115Y031171D01*
X037117Y031225D01*
X037125Y031278D01*
X037137Y031330D01*
X037154Y031382D01*
X037175Y031431D01*
X037201Y031478D01*
X037231Y031523D01*
X037265Y031564D01*
X037303Y031603D01*
X037344Y031638D01*
X037388Y031669D01*
X037434Y031696D01*
X037483Y031718D01*
X037534Y031736D01*
X037586Y031750D01*
X037639Y031758D01*
X037693Y031762D01*
X037746Y031761D01*
X037800Y031755D01*
X037852Y031744D01*
X037904Y031728D01*
X037954Y031708D01*
X038001Y031683D01*
X038047Y031654D01*
X038089Y031621D01*
X038129Y031584D01*
X038164Y031544D01*
X038196Y031501D01*
X038224Y031455D01*
X038248Y031406D01*
X038267Y031356D01*
X038282Y031304D01*
X038291Y031251D01*
X038296Y031198D01*
X038296Y031144D01*
X038291Y031091D01*
X038282Y031038D01*
X038267Y030986D01*
X038248Y030936D01*
X038224Y030887D01*
X038196Y030841D01*
X038164Y030798D01*
X038129Y030758D01*
X038089Y030721D01*
X038047Y030688D01*
X038002Y030659D01*
X037954Y030634D01*
X037904Y030614D01*
X037852Y030598D01*
X037800Y030587D01*
X037746Y030581D01*
X037693Y030580D01*
X037639Y030584D01*
X037586Y030592D01*
X037534Y030606D01*
X037483Y030624D01*
X037434Y030646D01*
X037388Y030673D01*
X037344Y030704D01*
X037303Y030739D01*
X037265Y030778D01*
X037231Y030819D01*
X037201Y030864D01*
X037175Y030911D01*
X037154Y030960D01*
X037137Y031012D01*
X037125Y031064D01*
X037117Y031117D01*
X037115Y031171D01*
X035440Y030197D02*
X033865Y030197D01*
X033865Y032559D01*
X035440Y032559D01*
X035440Y030197D01*
X035637Y029803D02*
X035834Y029803D01*
X035834Y032953D01*
X029534Y032953D01*
X029534Y034764D01*
X029731Y034764D01*
X029731Y029803D01*
X035637Y029803D01*
X035637Y034764D01*
X029731Y034764D01*
X028560Y034766D02*
X028560Y029805D01*
X028757Y029805D01*
X028753Y032947D01*
X028761Y032943D02*
X016544Y032947D01*
X016544Y034754D01*
X016741Y034754D01*
X016741Y029793D01*
X022844Y029793D01*
X022655Y029805D02*
X028560Y029805D01*
X028363Y030199D02*
X026789Y030199D01*
X026789Y032561D01*
X028363Y032561D01*
X028363Y030199D01*
X029245Y030781D02*
X029315Y030711D01*
X029596Y030711D01*
X029666Y030781D01*
X029666Y030921D01*
X029596Y030992D01*
X029666Y030921D01*
X029666Y030781D01*
X029596Y030711D01*
X029315Y030711D01*
X029245Y030781D01*
X029245Y030921D01*
X029315Y030992D01*
X029245Y030921D01*
X029245Y030781D01*
X029245Y031172D02*
X029666Y031452D01*
X029245Y031452D01*
X029666Y031452D01*
X029245Y031172D01*
X029666Y031172D01*
X029245Y031172D01*
X029315Y031632D02*
X029245Y031702D01*
X029245Y031842D01*
X029315Y031912D01*
X029385Y031912D01*
X029666Y031632D01*
X029666Y031912D01*
X029666Y031632D01*
X029385Y031912D01*
X029315Y031912D01*
X029245Y031842D01*
X029245Y031702D01*
X029315Y031632D01*
X030125Y031181D02*
X030127Y031235D01*
X030135Y031288D01*
X030147Y031340D01*
X030164Y031392D01*
X030185Y031441D01*
X030211Y031488D01*
X030241Y031533D01*
X030275Y031574D01*
X030313Y031613D01*
X030354Y031648D01*
X030398Y031679D01*
X030444Y031706D01*
X030493Y031728D01*
X030544Y031746D01*
X030596Y031760D01*
X030649Y031768D01*
X030703Y031772D01*
X030756Y031771D01*
X030810Y031765D01*
X030862Y031754D01*
X030914Y031738D01*
X030964Y031718D01*
X031011Y031693D01*
X031057Y031664D01*
X031099Y031631D01*
X031139Y031594D01*
X031174Y031554D01*
X031206Y031511D01*
X031234Y031465D01*
X031258Y031416D01*
X031277Y031366D01*
X031292Y031314D01*
X031301Y031261D01*
X031306Y031208D01*
X031306Y031154D01*
X031301Y031101D01*
X031292Y031048D01*
X031277Y030996D01*
X031258Y030946D01*
X031234Y030897D01*
X031206Y030851D01*
X031174Y030808D01*
X031139Y030768D01*
X031099Y030731D01*
X031057Y030698D01*
X031012Y030669D01*
X030964Y030644D01*
X030914Y030624D01*
X030862Y030608D01*
X030810Y030597D01*
X030756Y030591D01*
X030703Y030590D01*
X030649Y030594D01*
X030596Y030602D01*
X030544Y030616D01*
X030493Y030634D01*
X030444Y030656D01*
X030398Y030683D01*
X030354Y030714D01*
X030313Y030749D01*
X030275Y030788D01*
X030241Y030829D01*
X030211Y030874D01*
X030185Y030921D01*
X030164Y030970D01*
X030147Y031022D01*
X030135Y031074D01*
X030127Y031127D01*
X030125Y031181D01*
X030127Y031235D01*
X030135Y031288D01*
X030147Y031340D01*
X030164Y031392D01*
X030185Y031441D01*
X030211Y031488D01*
X030241Y031533D01*
X030275Y031574D01*
X030313Y031613D01*
X030354Y031648D01*
X030398Y031679D01*
X030444Y031706D01*
X030493Y031728D01*
X030544Y031746D01*
X030596Y031760D01*
X030649Y031768D01*
X030703Y031772D01*
X030756Y031771D01*
X030810Y031765D01*
X030862Y031754D01*
X030914Y031738D01*
X030964Y031718D01*
X031011Y031693D01*
X031057Y031664D01*
X031099Y031631D01*
X031139Y031594D01*
X031174Y031554D01*
X031206Y031511D01*
X031234Y031465D01*
X031258Y031416D01*
X031277Y031366D01*
X031292Y031314D01*
X031301Y031261D01*
X031306Y031208D01*
X031306Y031154D01*
X031301Y031101D01*
X031292Y031048D01*
X031277Y030996D01*
X031258Y030946D01*
X031234Y030897D01*
X031206Y030851D01*
X031174Y030808D01*
X031139Y030768D01*
X031099Y030731D01*
X031057Y030698D01*
X031012Y030669D01*
X030964Y030644D01*
X030914Y030624D01*
X030862Y030608D01*
X030810Y030597D01*
X030756Y030591D01*
X030703Y030590D01*
X030649Y030594D01*
X030596Y030602D01*
X030544Y030616D01*
X030493Y030634D01*
X030444Y030656D01*
X030398Y030683D01*
X030354Y030714D01*
X030313Y030749D01*
X030275Y030788D01*
X030241Y030829D01*
X030211Y030874D01*
X030185Y030921D01*
X030164Y030970D01*
X030147Y031022D01*
X030135Y031074D01*
X030127Y031127D01*
X030125Y031181D01*
X029928Y030197D02*
X029928Y032559D01*
X031503Y032559D01*
X031503Y030197D01*
X029928Y030197D01*
X030055Y029354D02*
X030055Y028940D01*
X030676Y028940D01*
X030676Y029354D01*
X030676Y028940D01*
X030055Y028940D01*
X030055Y029354D01*
X030365Y029147D02*
X030365Y028940D01*
X030365Y029147D01*
X030055Y028709D02*
X030676Y028709D01*
X030055Y028296D01*
X030676Y028296D01*
X030055Y028296D01*
X030676Y028709D01*
X030055Y028709D01*
X030055Y028073D02*
X030055Y027866D01*
X030055Y028073D01*
X030055Y027969D02*
X030676Y027969D01*
X030055Y027969D01*
X030676Y027866D02*
X030676Y028073D01*
X030676Y027866D01*
X030676Y027635D02*
X030676Y027221D01*
X030055Y027221D01*
X030676Y027221D01*
X030676Y027635D01*
X032055Y027635D02*
X032676Y027635D01*
X032055Y027221D01*
X032676Y027221D01*
X032055Y027221D01*
X032676Y027635D01*
X032055Y027635D01*
X032055Y027866D02*
X032055Y028280D01*
X032055Y027866D01*
X032055Y028073D02*
X032676Y028073D01*
X032055Y028073D01*
X032055Y028510D02*
X032055Y028821D01*
X032159Y028924D01*
X032365Y028924D01*
X032469Y028821D01*
X032469Y028510D01*
X032469Y028821D01*
X032365Y028924D01*
X032159Y028924D01*
X032055Y028821D01*
X032055Y028510D01*
X032676Y028510D01*
X032055Y028510D01*
X032469Y028717D02*
X032676Y028924D01*
X032469Y028717D01*
X032676Y029155D02*
X032055Y029155D01*
X032676Y029155D01*
X032676Y029569D01*
X032676Y029155D01*
X034055Y028821D02*
X034055Y028510D01*
X034676Y028510D01*
X034676Y028821D01*
X034572Y028924D01*
X034159Y028924D01*
X034055Y028821D01*
X034055Y028510D01*
X034676Y028510D01*
X034676Y028821D01*
X034572Y028924D01*
X034159Y028924D01*
X034055Y028821D01*
X034055Y028280D02*
X034676Y028280D01*
X034055Y027866D01*
X034676Y027866D01*
X034055Y027866D01*
X034676Y028280D01*
X034055Y028280D01*
X034159Y027635D02*
X034055Y027532D01*
X034055Y027325D01*
X034159Y027221D01*
X034572Y027221D01*
X034676Y027325D01*
X034676Y027532D01*
X034572Y027635D01*
X034365Y027635D01*
X034365Y027428D01*
X034365Y027635D01*
X034572Y027635D01*
X034676Y027532D01*
X034676Y027325D01*
X034572Y027221D01*
X034159Y027221D01*
X034055Y027325D01*
X034055Y027532D01*
X034159Y027635D01*
X033471Y030197D02*
X031897Y030197D01*
X031897Y032559D01*
X033471Y032559D01*
X033471Y030197D01*
X032093Y031181D02*
X032095Y031235D01*
X032103Y031288D01*
X032115Y031340D01*
X032132Y031392D01*
X032153Y031441D01*
X032179Y031488D01*
X032209Y031533D01*
X032243Y031574D01*
X032281Y031613D01*
X032322Y031648D01*
X032366Y031679D01*
X032412Y031706D01*
X032461Y031728D01*
X032512Y031746D01*
X032564Y031760D01*
X032617Y031768D01*
X032671Y031772D01*
X032724Y031771D01*
X032778Y031765D01*
X032830Y031754D01*
X032882Y031738D01*
X032932Y031718D01*
X032979Y031693D01*
X033025Y031664D01*
X033067Y031631D01*
X033107Y031594D01*
X033142Y031554D01*
X033174Y031511D01*
X033202Y031465D01*
X033226Y031416D01*
X033245Y031366D01*
X033260Y031314D01*
X033269Y031261D01*
X033274Y031208D01*
X033274Y031154D01*
X033269Y031101D01*
X033260Y031048D01*
X033245Y030996D01*
X033226Y030946D01*
X033202Y030897D01*
X033174Y030851D01*
X033142Y030808D01*
X033107Y030768D01*
X033067Y030731D01*
X033025Y030698D01*
X032980Y030669D01*
X032932Y030644D01*
X032882Y030624D01*
X032830Y030608D01*
X032778Y030597D01*
X032724Y030591D01*
X032671Y030590D01*
X032617Y030594D01*
X032564Y030602D01*
X032512Y030616D01*
X032461Y030634D01*
X032412Y030656D01*
X032366Y030683D01*
X032322Y030714D01*
X032281Y030749D01*
X032243Y030788D01*
X032209Y030829D01*
X032179Y030874D01*
X032153Y030921D01*
X032132Y030970D01*
X032115Y031022D01*
X032103Y031074D01*
X032095Y031127D01*
X032093Y031181D01*
X032095Y031235D01*
X032103Y031288D01*
X032115Y031340D01*
X032132Y031392D01*
X032153Y031441D01*
X032179Y031488D01*
X032209Y031533D01*
X032243Y031574D01*
X032281Y031613D01*
X032322Y031648D01*
X032366Y031679D01*
X032412Y031706D01*
X032461Y031728D01*
X032512Y031746D01*
X032564Y031760D01*
X032617Y031768D01*
X032671Y031772D01*
X032724Y031771D01*
X032778Y031765D01*
X032830Y031754D01*
X032882Y031738D01*
X032932Y031718D01*
X032979Y031693D01*
X033025Y031664D01*
X033067Y031631D01*
X033107Y031594D01*
X033142Y031554D01*
X033174Y031511D01*
X033202Y031465D01*
X033226Y031416D01*
X033245Y031366D01*
X033260Y031314D01*
X033269Y031261D01*
X033274Y031208D01*
X033274Y031154D01*
X033269Y031101D01*
X033260Y031048D01*
X033245Y030996D01*
X033226Y030946D01*
X033202Y030897D01*
X033174Y030851D01*
X033142Y030808D01*
X033107Y030768D01*
X033067Y030731D01*
X033025Y030698D01*
X032980Y030669D01*
X032932Y030644D01*
X032882Y030624D01*
X032830Y030608D01*
X032778Y030597D01*
X032724Y030591D01*
X032671Y030590D01*
X032617Y030594D01*
X032564Y030602D01*
X032512Y030616D01*
X032461Y030634D01*
X032412Y030656D01*
X032366Y030683D01*
X032322Y030714D01*
X032281Y030749D01*
X032243Y030788D01*
X032209Y030829D01*
X032179Y030874D01*
X032153Y030921D01*
X032132Y030970D01*
X032115Y031022D01*
X032103Y031074D01*
X032095Y031127D01*
X032093Y031181D01*
X034062Y031181D02*
X034064Y031235D01*
X034072Y031288D01*
X034084Y031340D01*
X034101Y031392D01*
X034122Y031441D01*
X034148Y031488D01*
X034178Y031533D01*
X034212Y031574D01*
X034250Y031613D01*
X034291Y031648D01*
X034335Y031679D01*
X034381Y031706D01*
X034430Y031728D01*
X034481Y031746D01*
X034533Y031760D01*
X034586Y031768D01*
X034640Y031772D01*
X034693Y031771D01*
X034747Y031765D01*
X034799Y031754D01*
X034851Y031738D01*
X034901Y031718D01*
X034948Y031693D01*
X034994Y031664D01*
X035036Y031631D01*
X035076Y031594D01*
X035111Y031554D01*
X035143Y031511D01*
X035171Y031465D01*
X035195Y031416D01*
X035214Y031366D01*
X035229Y031314D01*
X035238Y031261D01*
X035243Y031208D01*
X035243Y031154D01*
X035238Y031101D01*
X035229Y031048D01*
X035214Y030996D01*
X035195Y030946D01*
X035171Y030897D01*
X035143Y030851D01*
X035111Y030808D01*
X035076Y030768D01*
X035036Y030731D01*
X034994Y030698D01*
X034949Y030669D01*
X034901Y030644D01*
X034851Y030624D01*
X034799Y030608D01*
X034747Y030597D01*
X034693Y030591D01*
X034640Y030590D01*
X034586Y030594D01*
X034533Y030602D01*
X034481Y030616D01*
X034430Y030634D01*
X034381Y030656D01*
X034335Y030683D01*
X034291Y030714D01*
X034250Y030749D01*
X034212Y030788D01*
X034178Y030829D01*
X034148Y030874D01*
X034122Y030921D01*
X034101Y030970D01*
X034084Y031022D01*
X034072Y031074D01*
X034064Y031127D01*
X034062Y031181D01*
X034064Y031235D01*
X034072Y031288D01*
X034084Y031340D01*
X034101Y031392D01*
X034122Y031441D01*
X034148Y031488D01*
X034178Y031533D01*
X034212Y031574D01*
X034250Y031613D01*
X034291Y031648D01*
X034335Y031679D01*
X034381Y031706D01*
X034430Y031728D01*
X034481Y031746D01*
X034533Y031760D01*
X034586Y031768D01*
X034640Y031772D01*
X034693Y031771D01*
X034747Y031765D01*
X034799Y031754D01*
X034851Y031738D01*
X034901Y031718D01*
X034948Y031693D01*
X034994Y031664D01*
X035036Y031631D01*
X035076Y031594D01*
X035111Y031554D01*
X035143Y031511D01*
X035171Y031465D01*
X035195Y031416D01*
X035214Y031366D01*
X035229Y031314D01*
X035238Y031261D01*
X035243Y031208D01*
X035243Y031154D01*
X035238Y031101D01*
X035229Y031048D01*
X035214Y030996D01*
X035195Y030946D01*
X035171Y030897D01*
X035143Y030851D01*
X035111Y030808D01*
X035076Y030768D01*
X035036Y030731D01*
X034994Y030698D01*
X034949Y030669D01*
X034901Y030644D01*
X034851Y030624D01*
X034799Y030608D01*
X034747Y030597D01*
X034693Y030591D01*
X034640Y030590D01*
X034586Y030594D01*
X034533Y030602D01*
X034481Y030616D01*
X034430Y030634D01*
X034381Y030656D01*
X034335Y030683D01*
X034291Y030714D01*
X034250Y030749D01*
X034212Y030788D01*
X034178Y030829D01*
X034148Y030874D01*
X034122Y030921D01*
X034101Y030970D01*
X034084Y031022D01*
X034072Y031074D01*
X034064Y031127D01*
X034062Y031181D01*
X036524Y032943D02*
X036524Y032947D01*
X038887Y032549D02*
X040461Y032549D01*
X040461Y030187D01*
X038887Y030187D01*
X038887Y032549D01*
X039083Y031171D02*
X039085Y031225D01*
X039093Y031278D01*
X039105Y031330D01*
X039122Y031382D01*
X039143Y031431D01*
X039169Y031478D01*
X039199Y031523D01*
X039233Y031564D01*
X039271Y031603D01*
X039312Y031638D01*
X039356Y031669D01*
X039402Y031696D01*
X039451Y031718D01*
X039502Y031736D01*
X039554Y031750D01*
X039607Y031758D01*
X039661Y031762D01*
X039714Y031761D01*
X039768Y031755D01*
X039820Y031744D01*
X039872Y031728D01*
X039922Y031708D01*
X039969Y031683D01*
X040015Y031654D01*
X040057Y031621D01*
X040097Y031584D01*
X040132Y031544D01*
X040164Y031501D01*
X040192Y031455D01*
X040216Y031406D01*
X040235Y031356D01*
X040250Y031304D01*
X040259Y031251D01*
X040264Y031198D01*
X040264Y031144D01*
X040259Y031091D01*
X040250Y031038D01*
X040235Y030986D01*
X040216Y030936D01*
X040192Y030887D01*
X040164Y030841D01*
X040132Y030798D01*
X040097Y030758D01*
X040057Y030721D01*
X040015Y030688D01*
X039970Y030659D01*
X039922Y030634D01*
X039872Y030614D01*
X039820Y030598D01*
X039768Y030587D01*
X039714Y030581D01*
X039661Y030580D01*
X039607Y030584D01*
X039554Y030592D01*
X039502Y030606D01*
X039451Y030624D01*
X039402Y030646D01*
X039356Y030673D01*
X039312Y030704D01*
X039271Y030739D01*
X039233Y030778D01*
X039199Y030819D01*
X039169Y030864D01*
X039143Y030911D01*
X039122Y030960D01*
X039105Y031012D01*
X039093Y031064D01*
X039085Y031117D01*
X039083Y031171D01*
X039085Y031225D01*
X039093Y031278D01*
X039105Y031330D01*
X039122Y031382D01*
X039143Y031431D01*
X039169Y031478D01*
X039199Y031523D01*
X039233Y031564D01*
X039271Y031603D01*
X039312Y031638D01*
X039356Y031669D01*
X039402Y031696D01*
X039451Y031718D01*
X039502Y031736D01*
X039554Y031750D01*
X039607Y031758D01*
X039661Y031762D01*
X039714Y031761D01*
X039768Y031755D01*
X039820Y031744D01*
X039872Y031728D01*
X039922Y031708D01*
X039969Y031683D01*
X040015Y031654D01*
X040057Y031621D01*
X040097Y031584D01*
X040132Y031544D01*
X040164Y031501D01*
X040192Y031455D01*
X040216Y031406D01*
X040235Y031356D01*
X040250Y031304D01*
X040259Y031251D01*
X040264Y031198D01*
X040264Y031144D01*
X040259Y031091D01*
X040250Y031038D01*
X040235Y030986D01*
X040216Y030936D01*
X040192Y030887D01*
X040164Y030841D01*
X040132Y030798D01*
X040097Y030758D01*
X040057Y030721D01*
X040015Y030688D01*
X039970Y030659D01*
X039922Y030634D01*
X039872Y030614D01*
X039820Y030598D01*
X039768Y030587D01*
X039714Y030581D01*
X039661Y030580D01*
X039607Y030584D01*
X039554Y030592D01*
X039502Y030606D01*
X039451Y030624D01*
X039402Y030646D01*
X039356Y030673D01*
X039312Y030704D01*
X039271Y030739D01*
X039233Y030778D01*
X039199Y030819D01*
X039169Y030864D01*
X039143Y030911D01*
X039122Y030960D01*
X039105Y031012D01*
X039093Y031064D01*
X039085Y031117D01*
X039083Y031171D01*
X040855Y030187D02*
X042430Y030187D01*
X042430Y032549D01*
X040855Y032549D01*
X040855Y030187D01*
X041676Y029569D02*
X041676Y029155D01*
X041055Y029155D01*
X041676Y029155D01*
X041676Y029569D01*
X041676Y028924D02*
X041469Y028717D01*
X041676Y028924D01*
X041469Y028821D02*
X041365Y028924D01*
X041159Y028924D01*
X041055Y028821D01*
X041055Y028510D01*
X041676Y028510D01*
X041055Y028510D01*
X041055Y028821D01*
X041159Y028924D01*
X041365Y028924D01*
X041469Y028821D01*
X041469Y028510D01*
X041469Y028821D01*
X041055Y028280D02*
X041055Y027866D01*
X041055Y028280D01*
X041055Y028073D02*
X041676Y028073D01*
X041055Y028073D01*
X041055Y027635D02*
X041676Y027635D01*
X041055Y027221D01*
X041676Y027221D01*
X041055Y027221D01*
X041676Y027635D01*
X041055Y027635D01*
X039676Y027635D02*
X039676Y027221D01*
X039055Y027221D01*
X039676Y027221D01*
X039676Y027635D01*
X039676Y027866D02*
X039676Y028073D01*
X039676Y027866D01*
X039676Y027969D02*
X039055Y027969D01*
X039676Y027969D01*
X039676Y028296D02*
X039055Y028296D01*
X039676Y028709D01*
X039055Y028709D01*
X039676Y028709D01*
X039055Y028296D01*
X039676Y028296D01*
X039055Y028073D02*
X039055Y027866D01*
X039055Y028073D01*
X039055Y028940D02*
X039676Y028940D01*
X039676Y029354D01*
X039676Y028940D01*
X039055Y028940D01*
X039055Y029354D01*
X039055Y028940D01*
X039365Y028940D02*
X039365Y029147D01*
X039365Y028940D01*
X041052Y031171D02*
X041054Y031225D01*
X041062Y031278D01*
X041074Y031330D01*
X041091Y031382D01*
X041112Y031431D01*
X041138Y031478D01*
X041168Y031523D01*
X041202Y031564D01*
X041240Y031603D01*
X041281Y031638D01*
X041325Y031669D01*
X041371Y031696D01*
X041420Y031718D01*
X041471Y031736D01*
X041523Y031750D01*
X041576Y031758D01*
X041630Y031762D01*
X041683Y031761D01*
X041737Y031755D01*
X041789Y031744D01*
X041841Y031728D01*
X041891Y031708D01*
X041938Y031683D01*
X041984Y031654D01*
X042026Y031621D01*
X042066Y031584D01*
X042101Y031544D01*
X042133Y031501D01*
X042161Y031455D01*
X042185Y031406D01*
X042204Y031356D01*
X042219Y031304D01*
X042228Y031251D01*
X042233Y031198D01*
X042233Y031144D01*
X042228Y031091D01*
X042219Y031038D01*
X042204Y030986D01*
X042185Y030936D01*
X042161Y030887D01*
X042133Y030841D01*
X042101Y030798D01*
X042066Y030758D01*
X042026Y030721D01*
X041984Y030688D01*
X041939Y030659D01*
X041891Y030634D01*
X041841Y030614D01*
X041789Y030598D01*
X041737Y030587D01*
X041683Y030581D01*
X041630Y030580D01*
X041576Y030584D01*
X041523Y030592D01*
X041471Y030606D01*
X041420Y030624D01*
X041371Y030646D01*
X041325Y030673D01*
X041281Y030704D01*
X041240Y030739D01*
X041202Y030778D01*
X041168Y030819D01*
X041138Y030864D01*
X041112Y030911D01*
X041091Y030960D01*
X041074Y031012D01*
X041062Y031064D01*
X041054Y031117D01*
X041052Y031171D01*
X041054Y031225D01*
X041062Y031278D01*
X041074Y031330D01*
X041091Y031382D01*
X041112Y031431D01*
X041138Y031478D01*
X041168Y031523D01*
X041202Y031564D01*
X041240Y031603D01*
X041281Y031638D01*
X041325Y031669D01*
X041371Y031696D01*
X041420Y031718D01*
X041471Y031736D01*
X041523Y031750D01*
X041576Y031758D01*
X041630Y031762D01*
X041683Y031761D01*
X041737Y031755D01*
X041789Y031744D01*
X041841Y031728D01*
X041891Y031708D01*
X041938Y031683D01*
X041984Y031654D01*
X042026Y031621D01*
X042066Y031584D01*
X042101Y031544D01*
X042133Y031501D01*
X042161Y031455D01*
X042185Y031406D01*
X042204Y031356D01*
X042219Y031304D01*
X042228Y031251D01*
X042233Y031198D01*
X042233Y031144D01*
X042228Y031091D01*
X042219Y031038D01*
X042204Y030986D01*
X042185Y030936D01*
X042161Y030887D01*
X042133Y030841D01*
X042101Y030798D01*
X042066Y030758D01*
X042026Y030721D01*
X041984Y030688D01*
X041939Y030659D01*
X041891Y030634D01*
X041841Y030614D01*
X041789Y030598D01*
X041737Y030587D01*
X041683Y030581D01*
X041630Y030580D01*
X041576Y030584D01*
X041523Y030592D01*
X041471Y030606D01*
X041420Y030624D01*
X041371Y030646D01*
X041325Y030673D01*
X041281Y030704D01*
X041240Y030739D01*
X041202Y030778D01*
X041168Y030819D01*
X041138Y030864D01*
X041112Y030911D01*
X041091Y030960D01*
X041074Y031012D01*
X041062Y031064D01*
X041054Y031117D01*
X041052Y031171D01*
X042832Y030199D02*
X042832Y032561D01*
X044406Y032561D01*
X044406Y030199D01*
X042832Y030199D01*
X043676Y029569D02*
X043676Y029155D01*
X043055Y029155D01*
X043676Y029155D01*
X043676Y029569D01*
X043676Y028924D02*
X043469Y028717D01*
X043676Y028924D01*
X043469Y028821D02*
X043365Y028924D01*
X043159Y028924D01*
X043055Y028821D01*
X043055Y028510D01*
X043676Y028510D01*
X043055Y028510D01*
X043055Y028821D01*
X043159Y028924D01*
X043365Y028924D01*
X043469Y028821D01*
X043469Y028510D01*
X043469Y028821D01*
X043055Y028280D02*
X043055Y027866D01*
X043055Y028280D01*
X043055Y028073D02*
X043676Y028073D01*
X043055Y028073D01*
X043055Y027635D02*
X043676Y027635D01*
X043055Y027221D01*
X043676Y027221D01*
X043055Y027221D01*
X043676Y027635D01*
X043055Y027635D01*
X045055Y027532D02*
X045055Y027325D01*
X045159Y027221D01*
X045572Y027221D01*
X045676Y027325D01*
X045676Y027532D01*
X045572Y027635D01*
X045365Y027635D01*
X045365Y027428D01*
X045365Y027635D01*
X045572Y027635D01*
X045676Y027532D01*
X045676Y027325D01*
X045572Y027221D01*
X045159Y027221D01*
X045055Y027325D01*
X045055Y027532D01*
X045159Y027635D01*
X045055Y027532D01*
X045055Y027866D02*
X045676Y028280D01*
X045055Y028280D01*
X045676Y028280D01*
X045055Y027866D01*
X045676Y027866D01*
X045055Y027866D01*
X045055Y028510D02*
X045055Y028821D01*
X045159Y028924D01*
X045572Y028924D01*
X045676Y028821D01*
X045676Y028510D01*
X045055Y028510D01*
X045055Y028821D01*
X045159Y028924D01*
X045572Y028924D01*
X045676Y028821D01*
X045676Y028510D01*
X045055Y028510D01*
X047055Y028510D02*
X047055Y028821D01*
X047159Y028924D01*
X047572Y028924D01*
X047676Y028821D01*
X047676Y028510D01*
X047055Y028510D01*
X047055Y028821D01*
X047159Y028924D01*
X047572Y028924D01*
X047676Y028821D01*
X047676Y028510D01*
X047055Y028510D01*
X047055Y028280D02*
X047676Y028280D01*
X047055Y027866D01*
X047676Y027866D01*
X047055Y027866D01*
X047676Y028280D01*
X047055Y028280D01*
X047159Y027635D02*
X047055Y027532D01*
X047055Y027325D01*
X047159Y027221D01*
X047572Y027221D01*
X047676Y027325D01*
X047676Y027532D01*
X047572Y027635D01*
X047365Y027635D01*
X047365Y027428D01*
X047365Y027635D01*
X047572Y027635D01*
X047676Y027532D01*
X047676Y027325D01*
X047572Y027221D01*
X047159Y027221D01*
X047055Y027325D01*
X047055Y027532D01*
X047159Y027635D01*
X049966Y028221D02*
X049966Y028871D01*
X050066Y028871D02*
X050066Y028321D01*
X050216Y028321D01*
X050216Y028671D01*
X051966Y028671D01*
X051966Y028221D01*
X050216Y028221D01*
X049966Y028221D01*
X050216Y028221D02*
X050216Y028321D01*
X048540Y029805D02*
X048540Y034766D01*
X048536Y034758D02*
X048536Y034750D01*
X048536Y034758D02*
X036725Y034758D01*
X043028Y031183D02*
X043030Y031237D01*
X043038Y031290D01*
X043050Y031342D01*
X043067Y031394D01*
X043088Y031443D01*
X043114Y031490D01*
X043144Y031535D01*
X043178Y031576D01*
X043216Y031615D01*
X043257Y031650D01*
X043301Y031681D01*
X043347Y031708D01*
X043396Y031730D01*
X043447Y031748D01*
X043499Y031762D01*
X043552Y031770D01*
X043606Y031774D01*
X043659Y031773D01*
X043713Y031767D01*
X043765Y031756D01*
X043817Y031740D01*
X043867Y031720D01*
X043914Y031695D01*
X043960Y031666D01*
X044002Y031633D01*
X044042Y031596D01*
X044077Y031556D01*
X044109Y031513D01*
X044137Y031467D01*
X044161Y031418D01*
X044180Y031368D01*
X044195Y031316D01*
X044204Y031263D01*
X044209Y031210D01*
X044209Y031156D01*
X044204Y031103D01*
X044195Y031050D01*
X044180Y030998D01*
X044161Y030948D01*
X044137Y030899D01*
X044109Y030853D01*
X044077Y030810D01*
X044042Y030770D01*
X044002Y030733D01*
X043960Y030700D01*
X043915Y030671D01*
X043867Y030646D01*
X043817Y030626D01*
X043765Y030610D01*
X043713Y030599D01*
X043659Y030593D01*
X043606Y030592D01*
X043552Y030596D01*
X043499Y030604D01*
X043447Y030618D01*
X043396Y030636D01*
X043347Y030658D01*
X043301Y030685D01*
X043257Y030716D01*
X043216Y030751D01*
X043178Y030790D01*
X043144Y030831D01*
X043114Y030876D01*
X043088Y030923D01*
X043067Y030972D01*
X043050Y031024D01*
X043038Y031076D01*
X043030Y031129D01*
X043028Y031183D01*
X043030Y031237D01*
X043038Y031290D01*
X043050Y031342D01*
X043067Y031394D01*
X043088Y031443D01*
X043114Y031490D01*
X043144Y031535D01*
X043178Y031576D01*
X043216Y031615D01*
X043257Y031650D01*
X043301Y031681D01*
X043347Y031708D01*
X043396Y031730D01*
X043447Y031748D01*
X043499Y031762D01*
X043552Y031770D01*
X043606Y031774D01*
X043659Y031773D01*
X043713Y031767D01*
X043765Y031756D01*
X043817Y031740D01*
X043867Y031720D01*
X043914Y031695D01*
X043960Y031666D01*
X044002Y031633D01*
X044042Y031596D01*
X044077Y031556D01*
X044109Y031513D01*
X044137Y031467D01*
X044161Y031418D01*
X044180Y031368D01*
X044195Y031316D01*
X044204Y031263D01*
X044209Y031210D01*
X044209Y031156D01*
X044204Y031103D01*
X044195Y031050D01*
X044180Y030998D01*
X044161Y030948D01*
X044137Y030899D01*
X044109Y030853D01*
X044077Y030810D01*
X044042Y030770D01*
X044002Y030733D01*
X043960Y030700D01*
X043915Y030671D01*
X043867Y030646D01*
X043817Y030626D01*
X043765Y030610D01*
X043713Y030599D01*
X043659Y030593D01*
X043606Y030592D01*
X043552Y030596D01*
X043499Y030604D01*
X043447Y030618D01*
X043396Y030636D01*
X043347Y030658D01*
X043301Y030685D01*
X043257Y030716D01*
X043216Y030751D01*
X043178Y030790D01*
X043144Y030831D01*
X043114Y030876D01*
X043088Y030923D01*
X043067Y030972D01*
X043050Y031024D01*
X043038Y031076D01*
X043030Y031129D01*
X043028Y031183D01*
X044800Y030199D02*
X046375Y030199D01*
X046375Y032561D01*
X044800Y032561D01*
X044800Y030199D01*
X044996Y031183D02*
X044998Y031237D01*
X045006Y031290D01*
X045018Y031342D01*
X045035Y031394D01*
X045056Y031443D01*
X045082Y031490D01*
X045112Y031535D01*
X045146Y031576D01*
X045184Y031615D01*
X045225Y031650D01*
X045269Y031681D01*
X045315Y031708D01*
X045364Y031730D01*
X045415Y031748D01*
X045467Y031762D01*
X045520Y031770D01*
X045574Y031774D01*
X045627Y031773D01*
X045681Y031767D01*
X045733Y031756D01*
X045785Y031740D01*
X045835Y031720D01*
X045882Y031695D01*
X045928Y031666D01*
X045970Y031633D01*
X046010Y031596D01*
X046045Y031556D01*
X046077Y031513D01*
X046105Y031467D01*
X046129Y031418D01*
X046148Y031368D01*
X046163Y031316D01*
X046172Y031263D01*
X046177Y031210D01*
X046177Y031156D01*
X046172Y031103D01*
X046163Y031050D01*
X046148Y030998D01*
X046129Y030948D01*
X046105Y030899D01*
X046077Y030853D01*
X046045Y030810D01*
X046010Y030770D01*
X045970Y030733D01*
X045928Y030700D01*
X045883Y030671D01*
X045835Y030646D01*
X045785Y030626D01*
X045733Y030610D01*
X045681Y030599D01*
X045627Y030593D01*
X045574Y030592D01*
X045520Y030596D01*
X045467Y030604D01*
X045415Y030618D01*
X045364Y030636D01*
X045315Y030658D01*
X045269Y030685D01*
X045225Y030716D01*
X045184Y030751D01*
X045146Y030790D01*
X045112Y030831D01*
X045082Y030876D01*
X045056Y030923D01*
X045035Y030972D01*
X045018Y031024D01*
X045006Y031076D01*
X044998Y031129D01*
X044996Y031183D01*
X044998Y031237D01*
X045006Y031290D01*
X045018Y031342D01*
X045035Y031394D01*
X045056Y031443D01*
X045082Y031490D01*
X045112Y031535D01*
X045146Y031576D01*
X045184Y031615D01*
X045225Y031650D01*
X045269Y031681D01*
X045315Y031708D01*
X045364Y031730D01*
X045415Y031748D01*
X045467Y031762D01*
X045520Y031770D01*
X045574Y031774D01*
X045627Y031773D01*
X045681Y031767D01*
X045733Y031756D01*
X045785Y031740D01*
X045835Y031720D01*
X045882Y031695D01*
X045928Y031666D01*
X045970Y031633D01*
X046010Y031596D01*
X046045Y031556D01*
X046077Y031513D01*
X046105Y031467D01*
X046129Y031418D01*
X046148Y031368D01*
X046163Y031316D01*
X046172Y031263D01*
X046177Y031210D01*
X046177Y031156D01*
X046172Y031103D01*
X046163Y031050D01*
X046148Y030998D01*
X046129Y030948D01*
X046105Y030899D01*
X046077Y030853D01*
X046045Y030810D01*
X046010Y030770D01*
X045970Y030733D01*
X045928Y030700D01*
X045883Y030671D01*
X045835Y030646D01*
X045785Y030626D01*
X045733Y030610D01*
X045681Y030599D01*
X045627Y030593D01*
X045574Y030592D01*
X045520Y030596D01*
X045467Y030604D01*
X045415Y030618D01*
X045364Y030636D01*
X045315Y030658D01*
X045269Y030685D01*
X045225Y030716D01*
X045184Y030751D01*
X045146Y030790D01*
X045112Y030831D01*
X045082Y030876D01*
X045056Y030923D01*
X045035Y030972D01*
X045018Y031024D01*
X045006Y031076D01*
X044998Y031129D01*
X044996Y031183D01*
X046769Y030199D02*
X048343Y030199D01*
X048343Y032561D01*
X046769Y032561D01*
X046769Y030199D01*
X046965Y031183D02*
X046967Y031237D01*
X046975Y031290D01*
X046987Y031342D01*
X047004Y031394D01*
X047025Y031443D01*
X047051Y031490D01*
X047081Y031535D01*
X047115Y031576D01*
X047153Y031615D01*
X047194Y031650D01*
X047238Y031681D01*
X047284Y031708D01*
X047333Y031730D01*
X047384Y031748D01*
X047436Y031762D01*
X047489Y031770D01*
X047543Y031774D01*
X047596Y031773D01*
X047650Y031767D01*
X047702Y031756D01*
X047754Y031740D01*
X047804Y031720D01*
X047851Y031695D01*
X047897Y031666D01*
X047939Y031633D01*
X047979Y031596D01*
X048014Y031556D01*
X048046Y031513D01*
X048074Y031467D01*
X048098Y031418D01*
X048117Y031368D01*
X048132Y031316D01*
X048141Y031263D01*
X048146Y031210D01*
X048146Y031156D01*
X048141Y031103D01*
X048132Y031050D01*
X048117Y030998D01*
X048098Y030948D01*
X048074Y030899D01*
X048046Y030853D01*
X048014Y030810D01*
X047979Y030770D01*
X047939Y030733D01*
X047897Y030700D01*
X047852Y030671D01*
X047804Y030646D01*
X047754Y030626D01*
X047702Y030610D01*
X047650Y030599D01*
X047596Y030593D01*
X047543Y030592D01*
X047489Y030596D01*
X047436Y030604D01*
X047384Y030618D01*
X047333Y030636D01*
X047284Y030658D01*
X047238Y030685D01*
X047194Y030716D01*
X047153Y030751D01*
X047115Y030790D01*
X047081Y030831D01*
X047051Y030876D01*
X047025Y030923D01*
X047004Y030972D01*
X046987Y031024D01*
X046975Y031076D01*
X046967Y031129D01*
X046965Y031183D01*
X046967Y031237D01*
X046975Y031290D01*
X046987Y031342D01*
X047004Y031394D01*
X047025Y031443D01*
X047051Y031490D01*
X047081Y031535D01*
X047115Y031576D01*
X047153Y031615D01*
X047194Y031650D01*
X047238Y031681D01*
X047284Y031708D01*
X047333Y031730D01*
X047384Y031748D01*
X047436Y031762D01*
X047489Y031770D01*
X047543Y031774D01*
X047596Y031773D01*
X047650Y031767D01*
X047702Y031756D01*
X047754Y031740D01*
X047804Y031720D01*
X047851Y031695D01*
X047897Y031666D01*
X047939Y031633D01*
X047979Y031596D01*
X048014Y031556D01*
X048046Y031513D01*
X048074Y031467D01*
X048098Y031418D01*
X048117Y031368D01*
X048132Y031316D01*
X048141Y031263D01*
X048146Y031210D01*
X048146Y031156D01*
X048141Y031103D01*
X048132Y031050D01*
X048117Y030998D01*
X048098Y030948D01*
X048074Y030899D01*
X048046Y030853D01*
X048014Y030810D01*
X047979Y030770D01*
X047939Y030733D01*
X047897Y030700D01*
X047852Y030671D01*
X047804Y030646D01*
X047754Y030626D01*
X047702Y030610D01*
X047650Y030599D01*
X047596Y030593D01*
X047543Y030592D01*
X047489Y030596D01*
X047436Y030604D01*
X047384Y030618D01*
X047333Y030636D01*
X047284Y030658D01*
X047238Y030685D01*
X047194Y030716D01*
X047153Y030751D01*
X047115Y030790D01*
X047081Y030831D01*
X047051Y030876D01*
X047025Y030923D01*
X047004Y030972D01*
X046987Y031024D01*
X046975Y031076D01*
X046967Y031129D01*
X046965Y031183D01*
X049966Y031121D02*
X049966Y030471D01*
X050066Y030471D02*
X050066Y031021D01*
X050216Y031021D01*
X050216Y030671D01*
X051966Y030671D01*
X051966Y031121D01*
X050216Y031121D01*
X049966Y031121D01*
X050216Y031121D02*
X050216Y031021D01*
X052216Y029671D02*
X056216Y029671D01*
X056466Y028671D02*
X056466Y028221D01*
X058216Y028221D01*
X058466Y028221D01*
X058466Y028871D01*
X058366Y028871D02*
X058366Y028321D01*
X058216Y028321D01*
X058216Y028671D01*
X056466Y028671D01*
X055607Y028332D02*
X055607Y027711D01*
X055607Y028332D01*
X055400Y028125D01*
X055607Y028332D01*
X055169Y028332D02*
X054756Y028332D01*
X054756Y027711D01*
X054756Y028332D01*
X055169Y028332D01*
X054962Y028022D02*
X054756Y028022D01*
X054962Y028022D01*
X055400Y027711D02*
X055814Y027711D01*
X055400Y027711D01*
X053824Y027741D02*
X053824Y028155D01*
X053617Y028362D01*
X053410Y028155D01*
X053410Y027741D01*
X053410Y028155D01*
X053617Y028362D01*
X053824Y028155D01*
X053824Y027741D01*
X053824Y028052D02*
X053410Y028052D01*
X053824Y028052D01*
X053179Y028052D02*
X053076Y028155D01*
X052972Y028155D01*
X052766Y028052D01*
X052766Y028362D01*
X053179Y028362D01*
X052766Y028362D01*
X052766Y028052D01*
X052972Y028155D01*
X053076Y028155D01*
X053179Y028052D01*
X053179Y027845D01*
X053076Y027741D01*
X052869Y027741D01*
X052766Y027845D01*
X052869Y027741D01*
X053076Y027741D01*
X053179Y027845D01*
X053179Y028052D01*
X056466Y030671D02*
X056466Y031121D01*
X058216Y031121D01*
X058466Y031121D01*
X058466Y030471D01*
X058366Y030471D02*
X058366Y031021D01*
X058216Y031021D01*
X058216Y030671D01*
X056466Y030671D01*
X058216Y031021D02*
X058216Y031121D01*
X058216Y028321D02*
X058216Y028221D01*
X039016Y020621D02*
X039016Y020221D01*
X033616Y024211D02*
X033336Y024211D01*
X033616Y024492D01*
X033616Y024562D01*
X033546Y024632D01*
X033406Y024632D01*
X033336Y024562D01*
X033406Y024632D01*
X033546Y024632D01*
X033616Y024562D01*
X033616Y024492D01*
X033336Y024211D01*
X033616Y024211D01*
X033156Y024211D02*
X033016Y024351D01*
X033156Y024211D01*
X033086Y024211D02*
X032946Y024211D01*
X032876Y024281D01*
X032876Y024562D01*
X032946Y024632D01*
X033086Y024632D01*
X033156Y024562D01*
X033156Y024281D01*
X033086Y024211D01*
X032946Y024211D01*
X032876Y024281D01*
X032876Y024562D01*
X032946Y024632D01*
X033086Y024632D01*
X033156Y024562D01*
X033156Y024281D01*
X033086Y024211D01*
X031967Y024562D02*
X031967Y024632D01*
X031686Y024632D01*
X031967Y024632D01*
X031967Y024562D01*
X031686Y024281D01*
X031686Y024211D01*
X031686Y024281D01*
X031967Y024562D01*
X031506Y024211D02*
X031226Y024211D01*
X031506Y024211D01*
X031366Y024211D02*
X031366Y024632D01*
X031226Y024492D01*
X031366Y024632D01*
X031366Y024211D01*
X031046Y024211D02*
X030906Y024351D01*
X031046Y024211D01*
X030976Y024351D02*
X030766Y024351D01*
X030976Y024351D01*
X031046Y024421D01*
X031046Y024562D01*
X030976Y024632D01*
X030766Y024632D01*
X030766Y024211D01*
X030766Y024632D01*
X030976Y024632D01*
X031046Y024562D01*
X031046Y024421D01*
X030976Y024351D01*
X030956Y022642D02*
X031026Y022572D01*
X031026Y022431D01*
X030956Y022361D01*
X030746Y022361D01*
X030956Y022361D01*
X031026Y022431D01*
X031026Y022572D01*
X030956Y022642D01*
X030746Y022642D01*
X030746Y022221D01*
X030746Y022642D01*
X030956Y022642D01*
X031206Y022502D02*
X031346Y022642D01*
X031346Y022221D01*
X031346Y022642D01*
X031206Y022502D01*
X031206Y022221D02*
X031486Y022221D01*
X031206Y022221D01*
X031026Y022221D02*
X030886Y022361D01*
X031026Y022221D01*
X031666Y022291D02*
X031666Y022361D01*
X031736Y022431D01*
X031876Y022431D01*
X031947Y022361D01*
X031947Y022291D01*
X031876Y022221D01*
X031736Y022221D01*
X031666Y022291D01*
X031666Y022361D01*
X031736Y022431D01*
X031666Y022502D01*
X031666Y022572D01*
X031736Y022642D01*
X031876Y022642D01*
X031947Y022572D01*
X031947Y022502D01*
X031876Y022431D01*
X031736Y022431D01*
X031666Y022502D01*
X031666Y022572D01*
X031736Y022642D01*
X031876Y022642D01*
X031947Y022572D01*
X031947Y022502D01*
X031876Y022431D01*
X031947Y022361D01*
X031947Y022291D01*
X031876Y022221D01*
X031736Y022221D01*
X031666Y022291D01*
X031736Y021132D02*
X031666Y021062D01*
X031666Y020992D01*
X031736Y020921D01*
X031947Y020921D01*
X031736Y020921D01*
X031666Y020992D01*
X031666Y021062D01*
X031736Y021132D01*
X031876Y021132D01*
X031947Y021062D01*
X031947Y020781D01*
X031876Y020711D01*
X031736Y020711D01*
X031666Y020781D01*
X031736Y020711D01*
X031876Y020711D01*
X031947Y020781D01*
X031947Y021062D01*
X031876Y021132D01*
X031736Y021132D01*
X031346Y021132D02*
X031346Y020711D01*
X031346Y021132D01*
X031206Y020992D01*
X031346Y021132D01*
X031026Y021062D02*
X031026Y020921D01*
X030956Y020851D01*
X030746Y020851D01*
X030956Y020851D01*
X031026Y020921D01*
X031026Y021062D01*
X030956Y021132D01*
X030746Y021132D01*
X030746Y020711D01*
X030746Y021132D01*
X030956Y021132D01*
X031026Y021062D01*
X030886Y020851D02*
X031026Y020711D01*
X030886Y020851D01*
X031206Y020711D02*
X031486Y020711D01*
X031206Y020711D01*
X031286Y019652D02*
X031216Y019582D01*
X031286Y019652D01*
X031426Y019652D01*
X031496Y019582D01*
X031496Y019512D01*
X031216Y019231D01*
X031496Y019231D01*
X031216Y019231D01*
X031496Y019512D01*
X031496Y019582D01*
X031426Y019652D01*
X031286Y019652D01*
X031036Y019582D02*
X031036Y019441D01*
X030966Y019371D01*
X030756Y019371D01*
X030966Y019371D01*
X031036Y019441D01*
X031036Y019582D01*
X030966Y019652D01*
X030756Y019652D01*
X030756Y019231D01*
X030756Y019652D01*
X030966Y019652D01*
X031036Y019582D01*
X030896Y019371D02*
X031036Y019231D01*
X030896Y019371D01*
X031676Y019301D02*
X031957Y019582D01*
X031957Y019301D01*
X031886Y019231D01*
X031746Y019231D01*
X031676Y019301D01*
X031676Y019582D01*
X031746Y019652D01*
X031886Y019652D01*
X031957Y019582D01*
X031676Y019301D01*
X031746Y019231D01*
X031886Y019231D01*
X031957Y019301D01*
X031957Y019582D01*
X031886Y019652D01*
X031746Y019652D01*
X031676Y019582D01*
X031676Y019301D01*
X024676Y019248D02*
X024572Y019145D01*
X024159Y019145D01*
X024055Y019248D01*
X024055Y019455D01*
X024159Y019559D01*
X024055Y019455D01*
X024055Y019248D01*
X024159Y019145D01*
X024572Y019145D01*
X024676Y019248D01*
X024676Y019455D01*
X024572Y019559D01*
X024365Y019559D01*
X024365Y019352D01*
X024365Y019559D01*
X024572Y019559D01*
X024676Y019455D01*
X024676Y019248D01*
X024572Y018914D02*
X024159Y018914D01*
X024055Y018811D01*
X024055Y018604D01*
X024159Y018500D01*
X024572Y018500D01*
X024676Y018604D01*
X024676Y018811D01*
X024572Y018914D01*
X024159Y018914D01*
X024055Y018811D01*
X024055Y018604D01*
X024159Y018500D01*
X024572Y018500D01*
X024676Y018604D01*
X024676Y018811D01*
X024572Y018914D01*
X024676Y018270D02*
X024469Y018063D01*
X024676Y018270D01*
X024469Y018166D02*
X024469Y017856D01*
X024469Y018166D01*
X024365Y018270D01*
X024159Y018270D01*
X024055Y018166D01*
X024055Y017856D01*
X024676Y017856D01*
X024055Y017856D01*
X024055Y018166D01*
X024159Y018270D01*
X024365Y018270D01*
X024469Y018166D01*
X024365Y017625D02*
X024159Y017625D01*
X024055Y017522D01*
X024055Y017211D01*
X024676Y017211D01*
X024055Y017211D01*
X024055Y017522D01*
X024159Y017625D01*
X024365Y017625D01*
X024469Y017522D01*
X024469Y017211D01*
X024469Y017522D01*
X024365Y017625D01*
X023216Y018171D02*
X023216Y022171D01*
X021216Y022171D01*
X021216Y018171D01*
X023216Y018171D01*
X020766Y018370D02*
X020145Y018370D01*
X020766Y018370D01*
X020145Y017956D01*
X020766Y017956D01*
X020145Y017956D01*
X020766Y018370D01*
X020662Y018600D02*
X020766Y018704D01*
X020766Y018911D01*
X020662Y019014D01*
X020559Y019014D01*
X020455Y018911D01*
X020455Y018600D01*
X020662Y018600D01*
X020766Y018704D01*
X020766Y018911D01*
X020662Y019014D01*
X020559Y019014D01*
X020455Y018911D01*
X020455Y018600D01*
X020249Y018807D01*
X020145Y019014D01*
X020249Y018807D01*
X020455Y018600D01*
X020662Y018600D01*
X019076Y018541D02*
X019006Y018471D01*
X019076Y018541D02*
X019076Y018681D01*
X019006Y018751D01*
X018865Y018751D01*
X018795Y018681D01*
X018795Y018611D01*
X018865Y018471D01*
X018655Y018471D01*
X018655Y018751D01*
X018725Y018291D02*
X018655Y018221D01*
X018655Y018081D01*
X018725Y018011D01*
X018725Y017830D02*
X018865Y017830D01*
X018935Y017760D01*
X018935Y017550D01*
X018935Y017690D02*
X019076Y017830D01*
X019076Y018011D02*
X018795Y018291D01*
X018725Y018291D01*
X019076Y018291D02*
X019076Y018011D01*
X018725Y017830D02*
X018655Y017760D01*
X018655Y017550D01*
X019076Y017550D01*
X020145Y017622D02*
X020145Y017415D01*
X020249Y017311D01*
X020662Y017311D01*
X020766Y017415D01*
X020766Y017622D01*
X020662Y017725D01*
X020766Y017622D01*
X020766Y017415D01*
X020662Y017311D01*
X020249Y017311D01*
X020145Y017415D01*
X020145Y017622D01*
X020249Y017725D01*
X020145Y017622D01*
X017206Y019911D02*
X017206Y020332D01*
X016996Y020121D01*
X017276Y020121D01*
X016816Y019981D02*
X016746Y019911D01*
X016606Y019911D01*
X016536Y019981D01*
X016536Y020262D01*
X016606Y020332D01*
X016746Y020332D01*
X016816Y020262D01*
X013437Y018921D02*
X013156Y018921D01*
X013366Y019132D01*
X013366Y018711D01*
X013366Y019132D01*
X013156Y018921D01*
X013437Y018921D01*
X012976Y018711D02*
X012696Y018711D01*
X012976Y018711D01*
X012836Y018711D02*
X012836Y019132D01*
X012696Y018992D01*
X012836Y019132D01*
X012836Y018711D01*
X012516Y018711D02*
X012376Y018851D01*
X012516Y018711D01*
X012446Y018851D02*
X012236Y018851D01*
X012446Y018851D01*
X012516Y018921D01*
X012516Y019062D01*
X012446Y019132D01*
X012236Y019132D01*
X012236Y018711D01*
X012236Y019132D01*
X012446Y019132D01*
X012516Y019062D01*
X012516Y018921D01*
X012446Y018851D01*
X010496Y020281D02*
X010496Y020562D01*
X010426Y020632D01*
X010286Y020632D01*
X010216Y020562D01*
X010216Y020492D01*
X010286Y020421D01*
X010496Y020421D01*
X010286Y020421D01*
X010216Y020492D01*
X010216Y020562D01*
X010286Y020632D01*
X010426Y020632D01*
X010496Y020562D01*
X010496Y020281D01*
X010426Y020211D01*
X010286Y020211D01*
X010216Y020281D01*
X010286Y020211D01*
X010426Y020211D01*
X010496Y020281D01*
X010036Y020211D02*
X009896Y020351D01*
X010036Y020211D01*
X009966Y020351D02*
X009756Y020351D01*
X009966Y020351D01*
X010036Y020421D01*
X010036Y020562D01*
X009966Y020632D01*
X009756Y020632D01*
X009756Y020211D01*
X009756Y020632D01*
X009966Y020632D01*
X010036Y020562D01*
X010036Y020421D01*
X009966Y020351D01*
X009788Y022211D02*
X009582Y022211D01*
X009478Y022315D01*
X009582Y022211D01*
X009788Y022211D01*
X009892Y022315D01*
X009892Y022522D01*
X009788Y022625D01*
X009685Y022625D01*
X009478Y022522D01*
X009478Y022832D01*
X009892Y022832D01*
X009478Y022832D01*
X009478Y022522D01*
X009685Y022625D01*
X009788Y022625D01*
X009892Y022522D01*
X009892Y022315D01*
X009788Y022211D01*
X009247Y022211D02*
X008834Y022211D01*
X009247Y022625D01*
X009247Y022728D01*
X009144Y022832D01*
X008937Y022832D01*
X008834Y022728D01*
X008937Y022832D01*
X009144Y022832D01*
X009247Y022728D01*
X009247Y022625D01*
X008834Y022211D01*
X009247Y022211D01*
X008603Y022315D02*
X008603Y022728D01*
X008189Y022315D01*
X008293Y022211D01*
X008499Y022211D01*
X008603Y022315D01*
X008603Y022728D01*
X008499Y022832D01*
X008293Y022832D01*
X008189Y022728D01*
X008189Y022315D01*
X008293Y022211D01*
X008499Y022211D01*
X008603Y022315D01*
X008603Y022522D02*
X008293Y022522D01*
X008189Y022625D01*
X008189Y022728D01*
X008293Y022832D01*
X008499Y022832D01*
X008603Y022728D01*
X007958Y022211D02*
X007545Y022211D01*
X007958Y022211D01*
X007751Y022211D02*
X007751Y022832D01*
X007545Y022625D01*
X007751Y022832D01*
X007751Y022211D01*
X007314Y022211D02*
X007107Y022418D01*
X007314Y022211D01*
X007210Y022418D02*
X007314Y022522D01*
X007314Y022728D01*
X007210Y022832D01*
X006900Y022832D01*
X006900Y022211D01*
X006900Y022832D01*
X007210Y022832D01*
X007314Y022728D01*
X007314Y022522D01*
X007210Y022418D01*
X006900Y022418D01*
X007210Y022418D01*
X006669Y022315D02*
X006566Y022211D01*
X006359Y022211D01*
X006256Y022315D01*
X006256Y022728D01*
X006359Y022832D01*
X006566Y022832D01*
X006669Y022728D01*
X006566Y022832D01*
X006359Y022832D01*
X006256Y022728D01*
X006256Y022315D01*
X006359Y022211D01*
X006566Y022211D01*
X006669Y022315D01*
X004916Y023811D02*
X004916Y024161D01*
X004916Y025111D01*
X004916Y025511D01*
X004916Y025111D02*
X004816Y025111D01*
X004816Y024161D01*
X004916Y024161D01*
X005305Y024571D02*
X005375Y024501D01*
X005445Y024501D01*
X005515Y024571D01*
X005515Y024711D01*
X005585Y024782D01*
X005656Y024782D01*
X005726Y024711D01*
X005726Y024571D01*
X005656Y024501D01*
X005726Y024571D01*
X005726Y024711D01*
X005656Y024782D01*
X005585Y024782D01*
X005515Y024711D01*
X005515Y024571D01*
X005445Y024501D01*
X005375Y024501D01*
X005305Y024571D01*
X005305Y024711D01*
X005375Y024782D01*
X005305Y024711D01*
X005305Y024571D01*
X005375Y024962D02*
X005305Y025032D01*
X005305Y025172D01*
X005375Y025242D01*
X005445Y025242D01*
X005726Y024962D01*
X005726Y025242D01*
X005726Y024962D01*
X005445Y025242D01*
X005375Y025242D01*
X005305Y025172D01*
X005305Y025032D01*
X005375Y024962D01*
X004116Y025861D02*
X004016Y025861D01*
X004016Y025961D01*
X003416Y025961D01*
X003416Y025861D01*
X003316Y025861D01*
X002516Y025511D02*
X002516Y025161D01*
X002516Y024161D01*
X002516Y023811D01*
X002516Y024161D02*
X002616Y024161D01*
X002616Y025161D01*
X002516Y025161D01*
X002176Y025104D02*
X002176Y025311D01*
X002072Y025414D01*
X001969Y025414D01*
X001865Y025311D01*
X001865Y025104D01*
X001762Y025000D01*
X001659Y025000D01*
X001555Y025104D01*
X001555Y025311D01*
X001659Y025414D01*
X001555Y025311D01*
X001555Y025104D01*
X001659Y025000D01*
X001762Y025000D01*
X001865Y025104D01*
X001865Y025311D01*
X001969Y025414D01*
X002072Y025414D01*
X002176Y025311D01*
X002176Y025104D01*
X002072Y025000D01*
X002176Y025104D01*
X002176Y024770D02*
X002176Y024356D01*
X001555Y024356D01*
X001555Y024770D01*
X001555Y024356D01*
X002176Y024356D01*
X002176Y024770D01*
X001865Y024563D02*
X001865Y024356D01*
X001865Y024563D01*
X001865Y024125D02*
X001659Y024125D01*
X001555Y024022D01*
X001555Y023711D01*
X002176Y023711D01*
X001555Y023711D01*
X001555Y024022D01*
X001659Y024125D01*
X001865Y024125D01*
X001969Y024022D01*
X001969Y023711D01*
X001969Y024022D01*
X001865Y024125D01*
X001969Y023918D02*
X002176Y024125D01*
X001969Y023918D01*
X003316Y023461D02*
X003416Y023461D01*
X003416Y023361D01*
X004016Y023361D01*
X004016Y023461D01*
X004116Y023461D01*
X003616Y024661D02*
X003618Y024681D01*
X003624Y024700D01*
X003634Y024718D01*
X003647Y024733D01*
X003663Y024746D01*
X003681Y024755D01*
X003701Y024760D01*
X003721Y024761D01*
X003741Y024758D01*
X003760Y024751D01*
X003777Y024740D01*
X003792Y024726D01*
X003803Y024710D01*
X003811Y024691D01*
X003815Y024671D01*
X003815Y024651D01*
X003811Y024631D01*
X003803Y024612D01*
X003792Y024596D01*
X003777Y024582D01*
X003760Y024571D01*
X003741Y024564D01*
X003721Y024561D01*
X003701Y024562D01*
X003681Y024567D01*
X003663Y024576D01*
X003647Y024589D01*
X003634Y024604D01*
X003624Y024622D01*
X003618Y024641D01*
X003616Y024661D01*
X003016Y024661D02*
X003019Y024725D01*
X003028Y024788D01*
X003042Y024850D01*
X003062Y024910D01*
X003087Y024969D01*
X003118Y025025D01*
X003153Y025078D01*
X003194Y025127D01*
X003238Y025173D01*
X003287Y025214D01*
X003339Y025251D01*
X003394Y025283D01*
X003452Y025309D01*
X003512Y025331D01*
X003574Y025346D01*
X003636Y025356D01*
X003700Y025361D01*
X003764Y025359D01*
X003827Y025352D01*
X003889Y025339D01*
X003950Y025321D01*
X004009Y025297D01*
X004066Y025267D01*
X004120Y025233D01*
X004170Y025194D01*
X004217Y025150D01*
X004259Y025103D01*
X004297Y025052D01*
X004330Y024997D01*
X004358Y024940D01*
X004381Y024880D01*
X004398Y024819D01*
X004409Y024756D01*
X004415Y024693D01*
X004415Y024629D01*
X004409Y024566D01*
X004398Y024503D01*
X004381Y024442D01*
X004358Y024382D01*
X004330Y024325D01*
X004297Y024270D01*
X004259Y024219D01*
X004217Y024172D01*
X004170Y024128D01*
X004120Y024089D01*
X004066Y024055D01*
X004009Y024025D01*
X003950Y024001D01*
X003889Y023983D01*
X003827Y023970D01*
X003764Y023963D01*
X003700Y023961D01*
X003636Y023966D01*
X003574Y023976D01*
X003512Y023991D01*
X003452Y024013D01*
X003394Y024039D01*
X003339Y024071D01*
X003287Y024108D01*
X003238Y024149D01*
X003194Y024195D01*
X003153Y024244D01*
X003118Y024297D01*
X003087Y024353D01*
X003062Y024412D01*
X003042Y024472D01*
X003028Y024534D01*
X003019Y024597D01*
X003016Y024661D01*
X003616Y024661D02*
X003618Y024681D01*
X003624Y024700D01*
X003634Y024718D01*
X003647Y024733D01*
X003663Y024746D01*
X003681Y024755D01*
X003701Y024760D01*
X003721Y024761D01*
X003741Y024758D01*
X003760Y024751D01*
X003777Y024740D01*
X003792Y024726D01*
X003803Y024710D01*
X003811Y024691D01*
X003815Y024671D01*
X003815Y024651D01*
X003811Y024631D01*
X003803Y024612D01*
X003792Y024596D01*
X003777Y024582D01*
X003760Y024571D01*
X003741Y024564D01*
X003721Y024561D01*
X003701Y024562D01*
X003681Y024567D01*
X003663Y024576D01*
X003647Y024589D01*
X003634Y024604D01*
X003624Y024622D01*
X003618Y024641D01*
X003616Y024661D01*
X003016Y024661D02*
X003019Y024725D01*
X003028Y024788D01*
X003042Y024850D01*
X003062Y024910D01*
X003087Y024969D01*
X003118Y025025D01*
X003153Y025078D01*
X003194Y025127D01*
X003238Y025173D01*
X003287Y025214D01*
X003339Y025251D01*
X003394Y025283D01*
X003452Y025309D01*
X003512Y025331D01*
X003574Y025346D01*
X003636Y025356D01*
X003700Y025361D01*
X003764Y025359D01*
X003827Y025352D01*
X003889Y025339D01*
X003950Y025321D01*
X004009Y025297D01*
X004066Y025267D01*
X004120Y025233D01*
X004170Y025194D01*
X004217Y025150D01*
X004259Y025103D01*
X004297Y025052D01*
X004330Y024997D01*
X004358Y024940D01*
X004381Y024880D01*
X004398Y024819D01*
X004409Y024756D01*
X004415Y024693D01*
X004415Y024629D01*
X004409Y024566D01*
X004398Y024503D01*
X004381Y024442D01*
X004358Y024382D01*
X004330Y024325D01*
X004297Y024270D01*
X004259Y024219D01*
X004217Y024172D01*
X004170Y024128D01*
X004120Y024089D01*
X004066Y024055D01*
X004009Y024025D01*
X003950Y024001D01*
X003889Y023983D01*
X003827Y023970D01*
X003764Y023963D01*
X003700Y023961D01*
X003636Y023966D01*
X003574Y023976D01*
X003512Y023991D01*
X003452Y024013D01*
X003394Y024039D01*
X003339Y024071D01*
X003287Y024108D01*
X003238Y024149D01*
X003194Y024195D01*
X003153Y024244D01*
X003118Y024297D01*
X003087Y024353D01*
X003062Y024412D01*
X003042Y024472D01*
X003028Y024534D01*
X003019Y024597D01*
X003016Y024661D01*
X002176Y025645D02*
X001555Y025645D01*
X001555Y026059D01*
X001555Y025645D01*
X002176Y025645D01*
X002176Y026059D01*
X002176Y025645D01*
X001865Y025645D02*
X001865Y025852D01*
X001865Y025645D01*
X001555Y026289D02*
X001555Y026703D01*
X001555Y026289D01*
X001555Y026496D02*
X002176Y026496D01*
X001555Y026496D01*
X002716Y026971D02*
X002716Y027971D01*
X003316Y027971D01*
X003316Y026971D01*
X002716Y026971D01*
X002716Y027971D02*
X001216Y027971D01*
X001216Y030971D01*
X001216Y031971D01*
X002816Y031971D01*
X002816Y034771D01*
X006616Y034771D01*
X006616Y031971D01*
X002816Y031971D01*
X001216Y030971D02*
X008216Y030971D01*
X008216Y031971D01*
X006616Y031971D01*
X008216Y030971D02*
X008216Y027971D01*
X006716Y027971D01*
X006716Y026971D01*
X006116Y026971D01*
X006116Y027971D01*
X006716Y027971D01*
X006116Y027971D02*
X003316Y027971D01*
X004356Y027112D02*
X004356Y027042D01*
X004426Y026971D01*
X004566Y026971D01*
X004636Y026901D01*
X004636Y026831D01*
X004566Y026761D01*
X004426Y026761D01*
X004356Y026831D01*
X004426Y026761D01*
X004566Y026761D01*
X004636Y026831D01*
X004636Y026901D01*
X004566Y026971D01*
X004426Y026971D01*
X004356Y027042D01*
X004356Y027112D01*
X004426Y027182D01*
X004566Y027182D01*
X004636Y027112D01*
X004566Y027182D01*
X004426Y027182D01*
X004356Y027112D01*
X004816Y027042D02*
X004956Y027182D01*
X004956Y026761D01*
X004956Y027182D01*
X004816Y027042D01*
X004816Y026761D02*
X005096Y026761D01*
X004816Y026761D01*
X007776Y027221D02*
X007776Y027642D01*
X007986Y027642D01*
X008056Y027572D01*
X008056Y027431D01*
X007986Y027361D01*
X007776Y027361D01*
X007986Y027361D01*
X008056Y027431D01*
X008056Y027572D01*
X007986Y027642D01*
X007776Y027642D01*
X007776Y027221D01*
X007916Y027361D02*
X008056Y027221D01*
X007916Y027361D01*
X008236Y027221D02*
X008516Y027221D01*
X008236Y027221D01*
X008376Y027221D02*
X008376Y027642D01*
X008236Y027502D01*
X008376Y027642D01*
X008376Y027221D01*
X008436Y026142D02*
X008296Y026142D01*
X008226Y026072D01*
X008296Y026142D01*
X008436Y026142D01*
X008506Y026072D01*
X008506Y026002D01*
X008226Y025721D01*
X008506Y025721D01*
X008226Y025721D01*
X008506Y026002D01*
X008506Y026072D01*
X008436Y026142D01*
X008046Y026072D02*
X008046Y025931D01*
X007976Y025861D01*
X007766Y025861D01*
X007976Y025861D01*
X008046Y025931D01*
X008046Y026072D01*
X007976Y026142D01*
X007766Y026142D01*
X007766Y025721D01*
X007766Y026142D01*
X007976Y026142D01*
X008046Y026072D01*
X007906Y025861D02*
X008046Y025721D01*
X007906Y025861D01*
X007966Y024632D02*
X007756Y024632D01*
X007756Y024211D01*
X007756Y024632D01*
X007966Y024632D01*
X008036Y024562D01*
X008036Y024421D01*
X007966Y024351D01*
X007756Y024351D01*
X007966Y024351D01*
X008036Y024421D01*
X008036Y024562D01*
X007966Y024632D01*
X008216Y024562D02*
X008286Y024632D01*
X008426Y024632D01*
X008496Y024562D01*
X008496Y024492D01*
X008426Y024421D01*
X008496Y024351D01*
X008496Y024281D01*
X008426Y024211D01*
X008286Y024211D01*
X008216Y024281D01*
X008286Y024211D01*
X008426Y024211D01*
X008496Y024281D01*
X008496Y024351D01*
X008426Y024421D01*
X008356Y024421D01*
X008426Y024421D01*
X008496Y024492D01*
X008496Y024562D01*
X008426Y024632D01*
X008286Y024632D01*
X008216Y024562D01*
X007896Y024351D02*
X008036Y024211D01*
X007896Y024351D01*
X009766Y026241D02*
X009766Y026662D01*
X009976Y026662D01*
X010046Y026592D01*
X010046Y026451D01*
X009976Y026381D01*
X009766Y026381D01*
X009976Y026381D01*
X010046Y026451D01*
X010046Y026592D01*
X009976Y026662D01*
X009766Y026662D01*
X009766Y026241D01*
X009906Y026381D02*
X010046Y026241D01*
X009906Y026381D01*
X010226Y026451D02*
X010506Y026451D01*
X010226Y026451D01*
X010436Y026662D01*
X010436Y026241D01*
X010436Y026662D01*
X010226Y026451D01*
X012266Y026361D02*
X012476Y026361D01*
X012546Y026431D01*
X012546Y026572D01*
X012476Y026642D01*
X012266Y026642D01*
X012266Y026221D01*
X012266Y026642D01*
X012476Y026642D01*
X012546Y026572D01*
X012546Y026431D01*
X012476Y026361D01*
X012266Y026361D01*
X012406Y026361D02*
X012546Y026221D01*
X012406Y026361D01*
X012726Y026431D02*
X012726Y026291D01*
X012796Y026221D01*
X012936Y026221D01*
X013006Y026291D01*
X013006Y026361D01*
X012936Y026431D01*
X012726Y026431D01*
X012866Y026572D01*
X013006Y026642D01*
X012866Y026572D01*
X012726Y026431D01*
X012936Y026431D01*
X013006Y026361D01*
X013006Y026291D01*
X012936Y026221D01*
X012796Y026221D01*
X012726Y026291D01*
X012726Y026431D01*
X012796Y027711D02*
X012726Y027781D01*
X012796Y027711D01*
X012936Y027711D01*
X013006Y027781D01*
X013006Y027921D01*
X012936Y027992D01*
X012866Y027992D01*
X012726Y027921D01*
X012726Y028132D01*
X013006Y028132D01*
X012726Y028132D01*
X012726Y027921D01*
X012866Y027992D01*
X012936Y027992D01*
X013006Y027921D01*
X013006Y027781D01*
X012936Y027711D01*
X012796Y027711D01*
X012546Y027711D02*
X012406Y027851D01*
X012546Y027711D01*
X012476Y027851D02*
X012266Y027851D01*
X012476Y027851D01*
X012546Y027921D01*
X012546Y028062D01*
X012476Y028132D01*
X012266Y028132D01*
X012266Y027711D01*
X012266Y028132D01*
X012476Y028132D01*
X012546Y028062D01*
X012546Y027921D01*
X012476Y027851D01*
X014716Y028251D02*
X014716Y034051D01*
X008716Y034051D01*
X008716Y030401D01*
X008747Y030399D01*
X008778Y030393D01*
X008808Y030383D01*
X008836Y030370D01*
X008863Y030353D01*
X008887Y030333D01*
X008909Y030310D01*
X008927Y030285D01*
X008942Y030257D01*
X008954Y030228D01*
X008962Y030198D01*
X008966Y030167D01*
X008966Y030135D01*
X008962Y030104D01*
X008954Y030074D01*
X008942Y030045D01*
X008927Y030017D01*
X008909Y029992D01*
X008887Y029969D01*
X008863Y029949D01*
X008836Y029932D01*
X008808Y029919D01*
X008778Y029909D01*
X008747Y029903D01*
X008716Y029901D01*
X008716Y028251D01*
X014716Y028251D01*
X015286Y028132D02*
X015496Y028132D01*
X015566Y028062D01*
X015566Y027921D01*
X015496Y027851D01*
X015286Y027851D01*
X015496Y027851D01*
X015566Y027921D01*
X015566Y028062D01*
X015496Y028132D01*
X015286Y028132D01*
X015286Y027711D01*
X015286Y028132D01*
X015426Y027851D02*
X015566Y027711D01*
X015426Y027851D01*
X015746Y027781D02*
X015746Y027711D01*
X015746Y027781D01*
X016026Y028062D01*
X016026Y028132D01*
X015746Y028132D01*
X016026Y028132D01*
X016026Y028062D01*
X015746Y027781D01*
X017055Y027866D02*
X017055Y028073D01*
X017055Y027866D01*
X017055Y027969D02*
X017676Y027969D01*
X017055Y027969D01*
X017055Y028296D02*
X017676Y028709D01*
X017055Y028709D01*
X017676Y028709D01*
X017055Y028296D01*
X017676Y028296D01*
X017055Y028296D01*
X017676Y028073D02*
X017676Y027866D01*
X017676Y028073D01*
X017676Y027635D02*
X017676Y027221D01*
X017055Y027221D01*
X017676Y027221D01*
X017676Y027635D01*
X019055Y027866D02*
X019055Y028073D01*
X019055Y027866D01*
X019055Y027969D02*
X019676Y027969D01*
X019055Y027969D01*
X019055Y028296D02*
X019676Y028709D01*
X019055Y028709D01*
X019676Y028709D01*
X019055Y028296D01*
X019676Y028296D01*
X019055Y028296D01*
X019676Y028073D02*
X019676Y027866D01*
X019676Y028073D01*
X019676Y027635D02*
X019676Y027221D01*
X019055Y027221D01*
X019676Y027221D01*
X019676Y027635D01*
X021055Y027635D02*
X021676Y027635D01*
X021055Y027221D01*
X021676Y027221D01*
X021055Y027221D01*
X021676Y027635D01*
X021055Y027635D01*
X021055Y027866D02*
X021055Y028280D01*
X021055Y027866D01*
X021055Y028073D02*
X021676Y028073D01*
X021055Y028073D01*
X021055Y028510D02*
X021055Y028821D01*
X021159Y028924D01*
X021365Y028924D01*
X021469Y028821D01*
X021469Y028510D01*
X021469Y028821D01*
X021365Y028924D01*
X021159Y028924D01*
X021055Y028821D01*
X021055Y028510D01*
X021676Y028510D01*
X021055Y028510D01*
X021469Y028717D02*
X021676Y028924D01*
X021469Y028717D01*
X021676Y029155D02*
X021055Y029155D01*
X021676Y029155D01*
X021676Y029569D01*
X021676Y029155D01*
X023055Y029155D02*
X023676Y029155D01*
X023676Y029569D01*
X023676Y029155D01*
X023055Y029155D01*
X023159Y028924D02*
X023055Y028821D01*
X023055Y028510D01*
X023676Y028510D01*
X023055Y028510D01*
X023055Y028821D01*
X023159Y028924D01*
X023365Y028924D01*
X023469Y028821D01*
X023469Y028510D01*
X023469Y028821D01*
X023365Y028924D01*
X023159Y028924D01*
X023469Y028717D02*
X023676Y028924D01*
X023469Y028717D01*
X023055Y028280D02*
X023055Y027866D01*
X023055Y028280D01*
X023055Y028073D02*
X023676Y028073D01*
X023055Y028073D01*
X023055Y027635D02*
X023676Y027635D01*
X023055Y027221D01*
X023676Y027221D01*
X023055Y027221D01*
X023676Y027635D01*
X023055Y027635D01*
X025055Y027532D02*
X025055Y027325D01*
X025159Y027221D01*
X025572Y027221D01*
X025676Y027325D01*
X025676Y027532D01*
X025572Y027635D01*
X025365Y027635D01*
X025365Y027428D01*
X025365Y027635D01*
X025572Y027635D01*
X025676Y027532D01*
X025676Y027325D01*
X025572Y027221D01*
X025159Y027221D01*
X025055Y027325D01*
X025055Y027532D01*
X025159Y027635D01*
X025055Y027532D01*
X025055Y027866D02*
X025676Y028280D01*
X025055Y028280D01*
X025676Y028280D01*
X025055Y027866D01*
X025676Y027866D01*
X025055Y027866D01*
X025055Y028510D02*
X025055Y028821D01*
X025159Y028924D01*
X025572Y028924D01*
X025676Y028821D01*
X025676Y028510D01*
X025055Y028510D01*
X025055Y028821D01*
X025159Y028924D01*
X025572Y028924D01*
X025676Y028821D01*
X025676Y028510D01*
X025055Y028510D01*
X027055Y028510D02*
X027055Y028821D01*
X027159Y028924D01*
X027572Y028924D01*
X027676Y028821D01*
X027676Y028510D01*
X027055Y028510D01*
X027055Y028821D01*
X027159Y028924D01*
X027572Y028924D01*
X027676Y028821D01*
X027676Y028510D01*
X027055Y028510D01*
X027055Y028280D02*
X027676Y028280D01*
X027055Y027866D01*
X027676Y027866D01*
X027055Y027866D01*
X027676Y028280D01*
X027055Y028280D01*
X027159Y027635D02*
X027055Y027532D01*
X027055Y027325D01*
X027159Y027221D01*
X027572Y027221D01*
X027676Y027325D01*
X027676Y027532D01*
X027572Y027635D01*
X027365Y027635D01*
X027365Y027428D01*
X027365Y027635D01*
X027572Y027635D01*
X027676Y027532D01*
X027676Y027325D01*
X027572Y027221D01*
X027159Y027221D01*
X027055Y027325D01*
X027055Y027532D01*
X027159Y027635D01*
X026395Y030199D02*
X024820Y030199D01*
X024820Y032561D01*
X026395Y032561D01*
X026395Y030199D01*
X025016Y031183D02*
X025018Y031237D01*
X025026Y031290D01*
X025038Y031342D01*
X025055Y031394D01*
X025076Y031443D01*
X025102Y031490D01*
X025132Y031535D01*
X025166Y031576D01*
X025204Y031615D01*
X025245Y031650D01*
X025289Y031681D01*
X025335Y031708D01*
X025384Y031730D01*
X025435Y031748D01*
X025487Y031762D01*
X025540Y031770D01*
X025594Y031774D01*
X025647Y031773D01*
X025701Y031767D01*
X025753Y031756D01*
X025805Y031740D01*
X025855Y031720D01*
X025902Y031695D01*
X025948Y031666D01*
X025990Y031633D01*
X026030Y031596D01*
X026065Y031556D01*
X026097Y031513D01*
X026125Y031467D01*
X026149Y031418D01*
X026168Y031368D01*
X026183Y031316D01*
X026192Y031263D01*
X026197Y031210D01*
X026197Y031156D01*
X026192Y031103D01*
X026183Y031050D01*
X026168Y030998D01*
X026149Y030948D01*
X026125Y030899D01*
X026097Y030853D01*
X026065Y030810D01*
X026030Y030770D01*
X025990Y030733D01*
X025948Y030700D01*
X025903Y030671D01*
X025855Y030646D01*
X025805Y030626D01*
X025753Y030610D01*
X025701Y030599D01*
X025647Y030593D01*
X025594Y030592D01*
X025540Y030596D01*
X025487Y030604D01*
X025435Y030618D01*
X025384Y030636D01*
X025335Y030658D01*
X025289Y030685D01*
X025245Y030716D01*
X025204Y030751D01*
X025166Y030790D01*
X025132Y030831D01*
X025102Y030876D01*
X025076Y030923D01*
X025055Y030972D01*
X025038Y031024D01*
X025026Y031076D01*
X025018Y031129D01*
X025016Y031183D01*
X025018Y031237D01*
X025026Y031290D01*
X025038Y031342D01*
X025055Y031394D01*
X025076Y031443D01*
X025102Y031490D01*
X025132Y031535D01*
X025166Y031576D01*
X025204Y031615D01*
X025245Y031650D01*
X025289Y031681D01*
X025335Y031708D01*
X025384Y031730D01*
X025435Y031748D01*
X025487Y031762D01*
X025540Y031770D01*
X025594Y031774D01*
X025647Y031773D01*
X025701Y031767D01*
X025753Y031756D01*
X025805Y031740D01*
X025855Y031720D01*
X025902Y031695D01*
X025948Y031666D01*
X025990Y031633D01*
X026030Y031596D01*
X026065Y031556D01*
X026097Y031513D01*
X026125Y031467D01*
X026149Y031418D01*
X026168Y031368D01*
X026183Y031316D01*
X026192Y031263D01*
X026197Y031210D01*
X026197Y031156D01*
X026192Y031103D01*
X026183Y031050D01*
X026168Y030998D01*
X026149Y030948D01*
X026125Y030899D01*
X026097Y030853D01*
X026065Y030810D01*
X026030Y030770D01*
X025990Y030733D01*
X025948Y030700D01*
X025903Y030671D01*
X025855Y030646D01*
X025805Y030626D01*
X025753Y030610D01*
X025701Y030599D01*
X025647Y030593D01*
X025594Y030592D01*
X025540Y030596D01*
X025487Y030604D01*
X025435Y030618D01*
X025384Y030636D01*
X025335Y030658D01*
X025289Y030685D01*
X025245Y030716D01*
X025204Y030751D01*
X025166Y030790D01*
X025132Y030831D01*
X025102Y030876D01*
X025076Y030923D01*
X025055Y030972D01*
X025038Y031024D01*
X025026Y031076D01*
X025018Y031129D01*
X025016Y031183D01*
X024426Y030199D02*
X024426Y032561D01*
X022852Y032561D01*
X022852Y030199D01*
X024426Y030199D01*
X023048Y031183D02*
X023050Y031237D01*
X023058Y031290D01*
X023070Y031342D01*
X023087Y031394D01*
X023108Y031443D01*
X023134Y031490D01*
X023164Y031535D01*
X023198Y031576D01*
X023236Y031615D01*
X023277Y031650D01*
X023321Y031681D01*
X023367Y031708D01*
X023416Y031730D01*
X023467Y031748D01*
X023519Y031762D01*
X023572Y031770D01*
X023626Y031774D01*
X023679Y031773D01*
X023733Y031767D01*
X023785Y031756D01*
X023837Y031740D01*
X023887Y031720D01*
X023934Y031695D01*
X023980Y031666D01*
X024022Y031633D01*
X024062Y031596D01*
X024097Y031556D01*
X024129Y031513D01*
X024157Y031467D01*
X024181Y031418D01*
X024200Y031368D01*
X024215Y031316D01*
X024224Y031263D01*
X024229Y031210D01*
X024229Y031156D01*
X024224Y031103D01*
X024215Y031050D01*
X024200Y030998D01*
X024181Y030948D01*
X024157Y030899D01*
X024129Y030853D01*
X024097Y030810D01*
X024062Y030770D01*
X024022Y030733D01*
X023980Y030700D01*
X023935Y030671D01*
X023887Y030646D01*
X023837Y030626D01*
X023785Y030610D01*
X023733Y030599D01*
X023679Y030593D01*
X023626Y030592D01*
X023572Y030596D01*
X023519Y030604D01*
X023467Y030618D01*
X023416Y030636D01*
X023367Y030658D01*
X023321Y030685D01*
X023277Y030716D01*
X023236Y030751D01*
X023198Y030790D01*
X023164Y030831D01*
X023134Y030876D01*
X023108Y030923D01*
X023087Y030972D01*
X023070Y031024D01*
X023058Y031076D01*
X023050Y031129D01*
X023048Y031183D01*
X023050Y031237D01*
X023058Y031290D01*
X023070Y031342D01*
X023087Y031394D01*
X023108Y031443D01*
X023134Y031490D01*
X023164Y031535D01*
X023198Y031576D01*
X023236Y031615D01*
X023277Y031650D01*
X023321Y031681D01*
X023367Y031708D01*
X023416Y031730D01*
X023467Y031748D01*
X023519Y031762D01*
X023572Y031770D01*
X023626Y031774D01*
X023679Y031773D01*
X023733Y031767D01*
X023785Y031756D01*
X023837Y031740D01*
X023887Y031720D01*
X023934Y031695D01*
X023980Y031666D01*
X024022Y031633D01*
X024062Y031596D01*
X024097Y031556D01*
X024129Y031513D01*
X024157Y031467D01*
X024181Y031418D01*
X024200Y031368D01*
X024215Y031316D01*
X024224Y031263D01*
X024229Y031210D01*
X024229Y031156D01*
X024224Y031103D01*
X024215Y031050D01*
X024200Y030998D01*
X024181Y030948D01*
X024157Y030899D01*
X024129Y030853D01*
X024097Y030810D01*
X024062Y030770D01*
X024022Y030733D01*
X023980Y030700D01*
X023935Y030671D01*
X023887Y030646D01*
X023837Y030626D01*
X023785Y030610D01*
X023733Y030599D01*
X023679Y030593D01*
X023626Y030592D01*
X023572Y030596D01*
X023519Y030604D01*
X023467Y030618D01*
X023416Y030636D01*
X023367Y030658D01*
X023321Y030685D01*
X023277Y030716D01*
X023236Y030751D01*
X023198Y030790D01*
X023164Y030831D01*
X023134Y030876D01*
X023108Y030923D01*
X023087Y030972D01*
X023070Y031024D01*
X023058Y031076D01*
X023050Y031129D01*
X023048Y031183D01*
X021072Y031171D02*
X021074Y031225D01*
X021082Y031278D01*
X021094Y031330D01*
X021111Y031382D01*
X021132Y031431D01*
X021158Y031478D01*
X021188Y031523D01*
X021222Y031564D01*
X021260Y031603D01*
X021301Y031638D01*
X021345Y031669D01*
X021391Y031696D01*
X021440Y031718D01*
X021491Y031736D01*
X021543Y031750D01*
X021596Y031758D01*
X021650Y031762D01*
X021703Y031761D01*
X021757Y031755D01*
X021809Y031744D01*
X021861Y031728D01*
X021911Y031708D01*
X021958Y031683D01*
X022004Y031654D01*
X022046Y031621D01*
X022086Y031584D01*
X022121Y031544D01*
X022153Y031501D01*
X022181Y031455D01*
X022205Y031406D01*
X022224Y031356D01*
X022239Y031304D01*
X022248Y031251D01*
X022253Y031198D01*
X022253Y031144D01*
X022248Y031091D01*
X022239Y031038D01*
X022224Y030986D01*
X022205Y030936D01*
X022181Y030887D01*
X022153Y030841D01*
X022121Y030798D01*
X022086Y030758D01*
X022046Y030721D01*
X022004Y030688D01*
X021959Y030659D01*
X021911Y030634D01*
X021861Y030614D01*
X021809Y030598D01*
X021757Y030587D01*
X021703Y030581D01*
X021650Y030580D01*
X021596Y030584D01*
X021543Y030592D01*
X021491Y030606D01*
X021440Y030624D01*
X021391Y030646D01*
X021345Y030673D01*
X021301Y030704D01*
X021260Y030739D01*
X021222Y030778D01*
X021188Y030819D01*
X021158Y030864D01*
X021132Y030911D01*
X021111Y030960D01*
X021094Y031012D01*
X021082Y031064D01*
X021074Y031117D01*
X021072Y031171D01*
X021074Y031225D01*
X021082Y031278D01*
X021094Y031330D01*
X021111Y031382D01*
X021132Y031431D01*
X021158Y031478D01*
X021188Y031523D01*
X021222Y031564D01*
X021260Y031603D01*
X021301Y031638D01*
X021345Y031669D01*
X021391Y031696D01*
X021440Y031718D01*
X021491Y031736D01*
X021543Y031750D01*
X021596Y031758D01*
X021650Y031762D01*
X021703Y031761D01*
X021757Y031755D01*
X021809Y031744D01*
X021861Y031728D01*
X021911Y031708D01*
X021958Y031683D01*
X022004Y031654D01*
X022046Y031621D01*
X022086Y031584D01*
X022121Y031544D01*
X022153Y031501D01*
X022181Y031455D01*
X022205Y031406D01*
X022224Y031356D01*
X022239Y031304D01*
X022248Y031251D01*
X022253Y031198D01*
X022253Y031144D01*
X022248Y031091D01*
X022239Y031038D01*
X022224Y030986D01*
X022205Y030936D01*
X022181Y030887D01*
X022153Y030841D01*
X022121Y030798D01*
X022086Y030758D01*
X022046Y030721D01*
X022004Y030688D01*
X021959Y030659D01*
X021911Y030634D01*
X021861Y030614D01*
X021809Y030598D01*
X021757Y030587D01*
X021703Y030581D01*
X021650Y030580D01*
X021596Y030584D01*
X021543Y030592D01*
X021491Y030606D01*
X021440Y030624D01*
X021391Y030646D01*
X021345Y030673D01*
X021301Y030704D01*
X021260Y030739D01*
X021222Y030778D01*
X021188Y030819D01*
X021158Y030864D01*
X021132Y030911D01*
X021111Y030960D01*
X021094Y031012D01*
X021082Y031064D01*
X021074Y031117D01*
X021072Y031171D01*
X019103Y031171D02*
X019105Y031225D01*
X019113Y031278D01*
X019125Y031330D01*
X019142Y031382D01*
X019163Y031431D01*
X019189Y031478D01*
X019219Y031523D01*
X019253Y031564D01*
X019291Y031603D01*
X019332Y031638D01*
X019376Y031669D01*
X019422Y031696D01*
X019471Y031718D01*
X019522Y031736D01*
X019574Y031750D01*
X019627Y031758D01*
X019681Y031762D01*
X019734Y031761D01*
X019788Y031755D01*
X019840Y031744D01*
X019892Y031728D01*
X019942Y031708D01*
X019989Y031683D01*
X020035Y031654D01*
X020077Y031621D01*
X020117Y031584D01*
X020152Y031544D01*
X020184Y031501D01*
X020212Y031455D01*
X020236Y031406D01*
X020255Y031356D01*
X020270Y031304D01*
X020279Y031251D01*
X020284Y031198D01*
X020284Y031144D01*
X020279Y031091D01*
X020270Y031038D01*
X020255Y030986D01*
X020236Y030936D01*
X020212Y030887D01*
X020184Y030841D01*
X020152Y030798D01*
X020117Y030758D01*
X020077Y030721D01*
X020035Y030688D01*
X019990Y030659D01*
X019942Y030634D01*
X019892Y030614D01*
X019840Y030598D01*
X019788Y030587D01*
X019734Y030581D01*
X019681Y030580D01*
X019627Y030584D01*
X019574Y030592D01*
X019522Y030606D01*
X019471Y030624D01*
X019422Y030646D01*
X019376Y030673D01*
X019332Y030704D01*
X019291Y030739D01*
X019253Y030778D01*
X019219Y030819D01*
X019189Y030864D01*
X019163Y030911D01*
X019142Y030960D01*
X019125Y031012D01*
X019113Y031064D01*
X019105Y031117D01*
X019103Y031171D01*
X019105Y031225D01*
X019113Y031278D01*
X019125Y031330D01*
X019142Y031382D01*
X019163Y031431D01*
X019189Y031478D01*
X019219Y031523D01*
X019253Y031564D01*
X019291Y031603D01*
X019332Y031638D01*
X019376Y031669D01*
X019422Y031696D01*
X019471Y031718D01*
X019522Y031736D01*
X019574Y031750D01*
X019627Y031758D01*
X019681Y031762D01*
X019734Y031761D01*
X019788Y031755D01*
X019840Y031744D01*
X019892Y031728D01*
X019942Y031708D01*
X019989Y031683D01*
X020035Y031654D01*
X020077Y031621D01*
X020117Y031584D01*
X020152Y031544D01*
X020184Y031501D01*
X020212Y031455D01*
X020236Y031406D01*
X020255Y031356D01*
X020270Y031304D01*
X020279Y031251D01*
X020284Y031198D01*
X020284Y031144D01*
X020279Y031091D01*
X020270Y031038D01*
X020255Y030986D01*
X020236Y030936D01*
X020212Y030887D01*
X020184Y030841D01*
X020152Y030798D01*
X020117Y030758D01*
X020077Y030721D01*
X020035Y030688D01*
X019990Y030659D01*
X019942Y030634D01*
X019892Y030614D01*
X019840Y030598D01*
X019788Y030587D01*
X019734Y030581D01*
X019681Y030580D01*
X019627Y030584D01*
X019574Y030592D01*
X019522Y030606D01*
X019471Y030624D01*
X019422Y030646D01*
X019376Y030673D01*
X019332Y030704D01*
X019291Y030739D01*
X019253Y030778D01*
X019219Y030819D01*
X019189Y030864D01*
X019163Y030911D01*
X019142Y030960D01*
X019125Y031012D01*
X019113Y031064D01*
X019105Y031117D01*
X019103Y031171D01*
X017135Y031171D02*
X017137Y031225D01*
X017145Y031278D01*
X017157Y031330D01*
X017174Y031382D01*
X017195Y031431D01*
X017221Y031478D01*
X017251Y031523D01*
X017285Y031564D01*
X017323Y031603D01*
X017364Y031638D01*
X017408Y031669D01*
X017454Y031696D01*
X017503Y031718D01*
X017554Y031736D01*
X017606Y031750D01*
X017659Y031758D01*
X017713Y031762D01*
X017766Y031761D01*
X017820Y031755D01*
X017872Y031744D01*
X017924Y031728D01*
X017974Y031708D01*
X018021Y031683D01*
X018067Y031654D01*
X018109Y031621D01*
X018149Y031584D01*
X018184Y031544D01*
X018216Y031501D01*
X018244Y031455D01*
X018268Y031406D01*
X018287Y031356D01*
X018302Y031304D01*
X018311Y031251D01*
X018316Y031198D01*
X018316Y031144D01*
X018311Y031091D01*
X018302Y031038D01*
X018287Y030986D01*
X018268Y030936D01*
X018244Y030887D01*
X018216Y030841D01*
X018184Y030798D01*
X018149Y030758D01*
X018109Y030721D01*
X018067Y030688D01*
X018022Y030659D01*
X017974Y030634D01*
X017924Y030614D01*
X017872Y030598D01*
X017820Y030587D01*
X017766Y030581D01*
X017713Y030580D01*
X017659Y030584D01*
X017606Y030592D01*
X017554Y030606D01*
X017503Y030624D01*
X017454Y030646D01*
X017408Y030673D01*
X017364Y030704D01*
X017323Y030739D01*
X017285Y030778D01*
X017251Y030819D01*
X017221Y030864D01*
X017195Y030911D01*
X017174Y030960D01*
X017157Y031012D01*
X017145Y031064D01*
X017137Y031117D01*
X017135Y031171D01*
X016676Y031182D02*
X016255Y031182D01*
X016676Y031462D01*
X016255Y031462D01*
X016676Y031462D01*
X016255Y031182D01*
X016676Y031182D01*
X016606Y031002D02*
X016676Y030931D01*
X016676Y030791D01*
X016606Y030721D01*
X016325Y030721D01*
X016255Y030791D01*
X016255Y030931D01*
X016325Y031002D01*
X016255Y030931D01*
X016255Y030791D01*
X016325Y030721D01*
X016606Y030721D01*
X016676Y030791D01*
X016676Y030931D01*
X016606Y031002D01*
X016676Y031642D02*
X016676Y031922D01*
X016676Y031642D01*
X016676Y031782D02*
X016255Y031782D01*
X016395Y031642D01*
X016255Y031782D01*
X016676Y031782D01*
X016938Y032549D02*
X016938Y030187D01*
X018513Y030187D01*
X018513Y032549D01*
X016938Y032549D01*
X016544Y032943D02*
X016544Y032947D01*
X018907Y032549D02*
X020481Y032549D01*
X020481Y030187D01*
X018907Y030187D01*
X018907Y032549D01*
X020875Y032549D02*
X022450Y032549D01*
X022450Y030187D01*
X020875Y030187D01*
X020875Y032549D01*
X017135Y031171D02*
X017137Y031225D01*
X017145Y031278D01*
X017157Y031330D01*
X017174Y031382D01*
X017195Y031431D01*
X017221Y031478D01*
X017251Y031523D01*
X017285Y031564D01*
X017323Y031603D01*
X017364Y031638D01*
X017408Y031669D01*
X017454Y031696D01*
X017503Y031718D01*
X017554Y031736D01*
X017606Y031750D01*
X017659Y031758D01*
X017713Y031762D01*
X017766Y031761D01*
X017820Y031755D01*
X017872Y031744D01*
X017924Y031728D01*
X017974Y031708D01*
X018021Y031683D01*
X018067Y031654D01*
X018109Y031621D01*
X018149Y031584D01*
X018184Y031544D01*
X018216Y031501D01*
X018244Y031455D01*
X018268Y031406D01*
X018287Y031356D01*
X018302Y031304D01*
X018311Y031251D01*
X018316Y031198D01*
X018316Y031144D01*
X018311Y031091D01*
X018302Y031038D01*
X018287Y030986D01*
X018268Y030936D01*
X018244Y030887D01*
X018216Y030841D01*
X018184Y030798D01*
X018149Y030758D01*
X018109Y030721D01*
X018067Y030688D01*
X018022Y030659D01*
X017974Y030634D01*
X017924Y030614D01*
X017872Y030598D01*
X017820Y030587D01*
X017766Y030581D01*
X017713Y030580D01*
X017659Y030584D01*
X017606Y030592D01*
X017554Y030606D01*
X017503Y030624D01*
X017454Y030646D01*
X017408Y030673D01*
X017364Y030704D01*
X017323Y030739D01*
X017285Y030778D01*
X017251Y030819D01*
X017221Y030864D01*
X017195Y030911D01*
X017174Y030960D01*
X017157Y031012D01*
X017145Y031064D01*
X017137Y031117D01*
X017135Y031171D01*
X017055Y029354D02*
X017055Y028940D01*
X017676Y028940D01*
X017676Y029354D01*
X017676Y028940D01*
X017055Y028940D01*
X017055Y029354D01*
X017365Y029147D02*
X017365Y028940D01*
X017365Y029147D01*
X019055Y029354D02*
X019055Y028940D01*
X019676Y028940D01*
X019676Y029354D01*
X019676Y028940D01*
X019055Y028940D01*
X019055Y029354D01*
X019365Y029147D02*
X019365Y028940D01*
X019365Y029147D01*
X015996Y026572D02*
X015996Y026502D01*
X015926Y026431D01*
X015786Y026431D01*
X015716Y026502D01*
X015716Y026572D01*
X015786Y026642D01*
X015926Y026642D01*
X015996Y026572D01*
X015996Y026502D01*
X015926Y026431D01*
X015996Y026361D01*
X015996Y026291D01*
X015926Y026221D01*
X015786Y026221D01*
X015716Y026291D01*
X015716Y026361D01*
X015786Y026431D01*
X015926Y026431D01*
X015996Y026361D01*
X015996Y026291D01*
X015926Y026221D01*
X015786Y026221D01*
X015716Y026291D01*
X015716Y026361D01*
X015786Y026431D01*
X015716Y026502D01*
X015716Y026572D01*
X015786Y026642D01*
X015926Y026642D01*
X015996Y026572D01*
X015536Y026572D02*
X015536Y026431D01*
X015466Y026361D01*
X015256Y026361D01*
X015466Y026361D01*
X015536Y026431D01*
X015536Y026572D01*
X015466Y026642D01*
X015256Y026642D01*
X015256Y026221D01*
X015256Y026642D01*
X015466Y026642D01*
X015536Y026572D01*
X015396Y026361D02*
X015536Y026221D01*
X015396Y026361D01*
X011825Y022832D02*
X011825Y022418D01*
X011619Y022211D01*
X011412Y022418D01*
X011412Y022832D01*
X011412Y022418D01*
X011619Y022211D01*
X011825Y022418D01*
X011825Y022832D01*
X011181Y022728D02*
X011181Y022625D01*
X011078Y022522D01*
X011181Y022418D01*
X011181Y022315D01*
X011078Y022211D01*
X010871Y022211D01*
X010767Y022315D01*
X010871Y022211D01*
X011078Y022211D01*
X011181Y022315D01*
X011181Y022418D01*
X011078Y022522D01*
X010974Y022522D01*
X011078Y022522D01*
X011181Y022625D01*
X011181Y022728D01*
X011078Y022832D01*
X010871Y022832D01*
X010767Y022728D01*
X010871Y022832D01*
X011078Y022832D01*
X011181Y022728D01*
X008716Y029901D02*
X008747Y029903D01*
X008778Y029909D01*
X008808Y029919D01*
X008836Y029932D01*
X008863Y029949D01*
X008887Y029969D01*
X008909Y029992D01*
X008927Y030017D01*
X008942Y030045D01*
X008954Y030074D01*
X008962Y030104D01*
X008966Y030135D01*
X008966Y030167D01*
X008962Y030198D01*
X008954Y030228D01*
X008942Y030257D01*
X008927Y030285D01*
X008909Y030310D01*
X008887Y030333D01*
X008863Y030353D01*
X008836Y030370D01*
X008808Y030383D01*
X008778Y030393D01*
X008747Y030399D01*
X008716Y030401D01*
X009266Y034411D02*
X009576Y034411D01*
X009679Y034515D01*
X009679Y034928D01*
X009576Y035032D01*
X009266Y035032D01*
X009266Y034411D01*
X009576Y034411D01*
X009679Y034515D01*
X009679Y034928D01*
X009576Y035032D01*
X009266Y035032D01*
X009266Y034411D01*
X009910Y034515D02*
X010014Y034411D01*
X010220Y034411D01*
X010324Y034515D01*
X010324Y034618D01*
X010220Y034722D01*
X010014Y034722D01*
X009910Y034825D01*
X009910Y034928D01*
X010014Y035032D01*
X010220Y035032D01*
X010324Y034928D01*
X010220Y035032D01*
X010014Y035032D01*
X009910Y034928D01*
X009910Y034825D01*
X010014Y034722D01*
X010220Y034722D01*
X010324Y034618D01*
X010324Y034515D01*
X010220Y034411D01*
X010014Y034411D01*
X009910Y034515D01*
X010555Y034411D02*
X010968Y034411D01*
X010555Y034411D01*
X010761Y034411D02*
X010761Y035032D01*
X010555Y034825D01*
X010761Y035032D01*
X010761Y034411D01*
X016745Y034758D02*
X028556Y034758D01*
X028556Y034750D01*
X026985Y031183D02*
X026987Y031237D01*
X026995Y031290D01*
X027007Y031342D01*
X027024Y031394D01*
X027045Y031443D01*
X027071Y031490D01*
X027101Y031535D01*
X027135Y031576D01*
X027173Y031615D01*
X027214Y031650D01*
X027258Y031681D01*
X027304Y031708D01*
X027353Y031730D01*
X027404Y031748D01*
X027456Y031762D01*
X027509Y031770D01*
X027563Y031774D01*
X027616Y031773D01*
X027670Y031767D01*
X027722Y031756D01*
X027774Y031740D01*
X027824Y031720D01*
X027871Y031695D01*
X027917Y031666D01*
X027959Y031633D01*
X027999Y031596D01*
X028034Y031556D01*
X028066Y031513D01*
X028094Y031467D01*
X028118Y031418D01*
X028137Y031368D01*
X028152Y031316D01*
X028161Y031263D01*
X028166Y031210D01*
X028166Y031156D01*
X028161Y031103D01*
X028152Y031050D01*
X028137Y030998D01*
X028118Y030948D01*
X028094Y030899D01*
X028066Y030853D01*
X028034Y030810D01*
X027999Y030770D01*
X027959Y030733D01*
X027917Y030700D01*
X027872Y030671D01*
X027824Y030646D01*
X027774Y030626D01*
X027722Y030610D01*
X027670Y030599D01*
X027616Y030593D01*
X027563Y030592D01*
X027509Y030596D01*
X027456Y030604D01*
X027404Y030618D01*
X027353Y030636D01*
X027304Y030658D01*
X027258Y030685D01*
X027214Y030716D01*
X027173Y030751D01*
X027135Y030790D01*
X027101Y030831D01*
X027071Y030876D01*
X027045Y030923D01*
X027024Y030972D01*
X027007Y031024D01*
X026995Y031076D01*
X026987Y031129D01*
X026985Y031183D01*
X026987Y031237D01*
X026995Y031290D01*
X027007Y031342D01*
X027024Y031394D01*
X027045Y031443D01*
X027071Y031490D01*
X027101Y031535D01*
X027135Y031576D01*
X027173Y031615D01*
X027214Y031650D01*
X027258Y031681D01*
X027304Y031708D01*
X027353Y031730D01*
X027404Y031748D01*
X027456Y031762D01*
X027509Y031770D01*
X027563Y031774D01*
X027616Y031773D01*
X027670Y031767D01*
X027722Y031756D01*
X027774Y031740D01*
X027824Y031720D01*
X027871Y031695D01*
X027917Y031666D01*
X027959Y031633D01*
X027999Y031596D01*
X028034Y031556D01*
X028066Y031513D01*
X028094Y031467D01*
X028118Y031418D01*
X028137Y031368D01*
X028152Y031316D01*
X028161Y031263D01*
X028166Y031210D01*
X028166Y031156D01*
X028161Y031103D01*
X028152Y031050D01*
X028137Y030998D01*
X028118Y030948D01*
X028094Y030899D01*
X028066Y030853D01*
X028034Y030810D01*
X027999Y030770D01*
X027959Y030733D01*
X027917Y030700D01*
X027872Y030671D01*
X027824Y030646D01*
X027774Y030626D01*
X027722Y030610D01*
X027670Y030599D01*
X027616Y030593D01*
X027563Y030592D01*
X027509Y030596D01*
X027456Y030604D01*
X027404Y030618D01*
X027353Y030636D01*
X027304Y030658D01*
X027258Y030685D01*
X027214Y030716D01*
X027173Y030751D01*
X027135Y030790D01*
X027101Y030831D01*
X027071Y030876D01*
X027045Y030923D01*
X027024Y030972D01*
X027007Y031024D01*
X026995Y031076D01*
X026987Y031129D01*
X026985Y031183D01*
X024055Y022781D02*
X024055Y022368D01*
X024055Y022781D01*
X024055Y022574D02*
X024676Y022574D01*
X024055Y022574D01*
X024159Y022137D02*
X024365Y022137D01*
X024469Y022033D01*
X024469Y021723D01*
X024469Y022033D01*
X024365Y022137D01*
X024159Y022137D01*
X024055Y022033D01*
X024055Y021723D01*
X024676Y021723D01*
X024055Y021723D01*
X024055Y022033D01*
X024159Y022137D01*
X024469Y021930D02*
X024676Y022137D01*
X024469Y021930D01*
X024572Y021492D02*
X024159Y021492D01*
X024055Y021389D01*
X024055Y021182D01*
X024159Y021079D01*
X024572Y021079D01*
X024676Y021182D01*
X024676Y021389D01*
X024572Y021492D01*
X024159Y021492D01*
X024055Y021389D01*
X024055Y021182D01*
X024159Y021079D01*
X024572Y021079D01*
X024676Y021182D01*
X024676Y021389D01*
X024572Y021492D01*
X024365Y020848D02*
X024159Y020848D01*
X024055Y020744D01*
X024055Y020434D01*
X024676Y020434D01*
X024055Y020434D01*
X024055Y020744D01*
X024159Y020848D01*
X024365Y020848D01*
X024469Y020744D01*
X024469Y020434D01*
X024469Y020744D01*
X024365Y020848D01*
X019116Y011339D02*
X019116Y010926D01*
X018702Y011339D01*
X018599Y011339D01*
X018495Y011236D01*
X018495Y011029D01*
X018599Y010926D01*
X018495Y011029D01*
X018495Y011236D01*
X018599Y011339D01*
X018702Y011339D01*
X019116Y010926D01*
X019116Y011339D01*
X019012Y010695D02*
X019116Y010591D01*
X019116Y010384D01*
X019012Y010281D01*
X018599Y010281D01*
X018495Y010384D01*
X018495Y010591D01*
X018599Y010695D01*
X018495Y010591D01*
X018495Y010384D01*
X018599Y010281D01*
X019012Y010281D01*
X019116Y010384D01*
X019116Y010591D01*
X019012Y010695D01*
X019116Y010058D02*
X019116Y009851D01*
X019116Y010058D01*
X019116Y009955D02*
X018495Y009955D01*
X019116Y009955D01*
X018495Y009851D02*
X018495Y010058D01*
X018495Y009851D01*
X020145Y009956D02*
X020766Y010370D01*
X020145Y010370D01*
X020766Y010370D01*
X020145Y009956D01*
X020766Y009956D01*
X020145Y009956D01*
X020249Y009725D02*
X020145Y009622D01*
X020145Y009415D01*
X020249Y009311D01*
X020662Y009311D01*
X020766Y009415D01*
X020766Y009622D01*
X020662Y009725D01*
X020766Y009622D01*
X020766Y009415D01*
X020662Y009311D01*
X020249Y009311D01*
X020145Y009415D01*
X020145Y009622D01*
X020249Y009725D01*
X020145Y010600D02*
X020145Y011014D01*
X020249Y011014D01*
X020662Y010600D01*
X020766Y010600D01*
X020662Y010600D01*
X020249Y011014D01*
X020145Y011014D01*
X020145Y010600D01*
X032006Y002771D02*
X032009Y002836D01*
X032018Y002900D01*
X032032Y002963D01*
X032053Y003024D01*
X032078Y003083D01*
X032109Y003140D01*
X032145Y003194D01*
X032186Y003244D01*
X032231Y003290D01*
X032281Y003332D01*
X032333Y003369D01*
X032389Y003401D01*
X032448Y003428D01*
X032509Y003450D01*
X032572Y003466D01*
X032635Y003476D01*
X032700Y003481D01*
X032764Y003479D01*
X032829Y003472D01*
X032892Y003459D01*
X032954Y003440D01*
X033014Y003416D01*
X033071Y003386D01*
X033125Y003351D01*
X033176Y003311D01*
X033224Y003267D01*
X033267Y003219D01*
X033305Y003167D01*
X033339Y003112D01*
X033367Y003054D01*
X033390Y002993D01*
X033408Y002931D01*
X033419Y002868D01*
X033425Y002803D01*
X033425Y002739D01*
X033419Y002674D01*
X033408Y002611D01*
X033390Y002549D01*
X033367Y002488D01*
X033339Y002430D01*
X033305Y002375D01*
X033267Y002323D01*
X033224Y002275D01*
X033176Y002231D01*
X033125Y002191D01*
X033071Y002156D01*
X033014Y002126D01*
X032954Y002102D01*
X032892Y002083D01*
X032829Y002070D01*
X032764Y002063D01*
X032700Y002061D01*
X032635Y002066D01*
X032572Y002076D01*
X032509Y002092D01*
X032448Y002114D01*
X032389Y002141D01*
X032333Y002173D01*
X032281Y002210D01*
X032231Y002252D01*
X032186Y002298D01*
X032145Y002348D01*
X032109Y002402D01*
X032078Y002459D01*
X032053Y002518D01*
X032032Y002579D01*
X032018Y002642D01*
X032009Y002706D01*
X032006Y002771D01*
X032009Y002836D01*
X032018Y002900D01*
X032032Y002963D01*
X032053Y003024D01*
X032078Y003083D01*
X032109Y003140D01*
X032145Y003194D01*
X032186Y003244D01*
X032231Y003290D01*
X032281Y003332D01*
X032333Y003369D01*
X032389Y003401D01*
X032448Y003428D01*
X032509Y003450D01*
X032572Y003466D01*
X032635Y003476D01*
X032700Y003481D01*
X032764Y003479D01*
X032829Y003472D01*
X032892Y003459D01*
X032954Y003440D01*
X033014Y003416D01*
X033071Y003386D01*
X033125Y003351D01*
X033176Y003311D01*
X033224Y003267D01*
X033267Y003219D01*
X033305Y003167D01*
X033339Y003112D01*
X033367Y003054D01*
X033390Y002993D01*
X033408Y002931D01*
X033419Y002868D01*
X033425Y002803D01*
X033425Y002739D01*
X033419Y002674D01*
X033408Y002611D01*
X033390Y002549D01*
X033367Y002488D01*
X033339Y002430D01*
X033305Y002375D01*
X033267Y002323D01*
X033224Y002275D01*
X033176Y002231D01*
X033125Y002191D01*
X033071Y002156D01*
X033014Y002126D01*
X032954Y002102D01*
X032892Y002083D01*
X032829Y002070D01*
X032764Y002063D01*
X032700Y002061D01*
X032635Y002066D01*
X032572Y002076D01*
X032509Y002092D01*
X032448Y002114D01*
X032389Y002141D01*
X032333Y002173D01*
X032281Y002210D01*
X032231Y002252D01*
X032186Y002298D01*
X032145Y002348D01*
X032109Y002402D01*
X032078Y002459D01*
X032053Y002518D01*
X032032Y002579D01*
X032018Y002642D01*
X032009Y002706D01*
X032006Y002771D01*
D12*
X031919Y025641D02*
X031638Y025641D01*
X031638Y026202D01*
X031919Y026202D01*
X032012Y026108D01*
X032012Y026015D01*
X031919Y025922D01*
X031638Y025922D01*
X031919Y025922D02*
X032012Y025828D01*
X032012Y025735D01*
X031919Y025641D01*
X032283Y025641D02*
X032470Y025641D01*
X032376Y025641D02*
X032376Y026202D01*
X032283Y026202D02*
X032470Y026202D01*
X032713Y026108D02*
X032713Y025735D01*
X032806Y025641D01*
X032993Y025641D01*
X033086Y025735D01*
X033086Y025922D01*
X032899Y025922D01*
X032713Y026108D02*
X032806Y026202D01*
X032993Y026202D01*
X033086Y026108D01*
X033357Y026108D02*
X033357Y025735D01*
X033451Y025641D01*
X033637Y025641D01*
X033731Y025735D01*
X033731Y025922D01*
X033544Y025922D01*
X033731Y026108D02*
X033637Y026202D01*
X033451Y026202D01*
X033357Y026108D01*
X034002Y026202D02*
X034002Y025641D01*
X034375Y025641D01*
X034646Y025641D02*
X035020Y025641D01*
X035291Y025641D02*
X035664Y025641D01*
X035291Y025641D02*
X035291Y025735D01*
X035664Y026108D01*
X035664Y026202D01*
X035291Y026202D01*
X035020Y026202D02*
X034646Y026202D01*
X034646Y025641D01*
X034646Y025922D02*
X034833Y025922D01*
X030723Y026108D02*
X030349Y025735D01*
X030349Y025641D01*
X030078Y025735D02*
X029985Y025641D01*
X029798Y025641D01*
X029705Y025735D01*
X030078Y026108D01*
X030078Y025735D01*
X029705Y025735D02*
X029705Y026108D01*
X029798Y026202D01*
X029985Y026202D01*
X030078Y026108D01*
X030349Y026202D02*
X030723Y026202D01*
X030723Y026108D01*
X029434Y026108D02*
X029434Y025735D01*
X029341Y025641D01*
X029154Y025641D01*
X029060Y025735D01*
X029434Y026108D01*
X029341Y026202D01*
X029154Y026202D01*
X029060Y026108D01*
X029060Y025735D01*
X028789Y025641D02*
X028416Y025641D01*
X028789Y026015D01*
X028789Y026108D01*
X028696Y026202D01*
X028509Y026202D01*
X028416Y026108D01*
X027528Y026015D02*
X027528Y025828D01*
X027342Y025641D01*
X027071Y025641D02*
X026790Y025641D01*
X026697Y025735D01*
X026697Y025922D01*
X026790Y026015D01*
X027071Y026015D01*
X027342Y026202D02*
X027528Y026015D01*
X026454Y026202D02*
X026267Y026015D01*
X026267Y025828D01*
X026454Y025641D01*
X024965Y025691D02*
X024965Y026065D01*
X024778Y026252D01*
X024591Y026065D01*
X024591Y025691D01*
X024362Y025691D02*
X024269Y025691D01*
X024269Y025785D01*
X024362Y025785D01*
X024362Y025691D01*
X024362Y025972D02*
X024269Y025972D01*
X024269Y026065D01*
X024362Y026065D01*
X024362Y025972D01*
X024591Y025972D02*
X024965Y025972D01*
X023998Y026065D02*
X023811Y025691D01*
X023624Y026065D01*
X023353Y025972D02*
X023260Y026065D01*
X023073Y026065D01*
X022980Y025972D01*
X022980Y025785D01*
X023073Y025691D01*
X023260Y025691D01*
X023353Y025878D02*
X022980Y025878D01*
X022709Y025972D02*
X022615Y025878D01*
X022335Y025878D01*
X022335Y025691D02*
X022335Y026252D01*
X022615Y026252D01*
X022709Y026158D01*
X022709Y025972D01*
X022522Y025878D02*
X022709Y025691D01*
X023353Y025878D02*
X023353Y025972D01*
X050436Y033535D02*
X050529Y033441D01*
X050716Y033441D01*
X050809Y033535D01*
X050716Y033441D01*
X050529Y033441D01*
X050436Y033535D01*
X050436Y033908D01*
X050529Y034002D01*
X050716Y034002D01*
X050809Y033908D01*
X050716Y034002D01*
X050529Y034002D01*
X050436Y033908D01*
X050436Y033535D01*
X050529Y033441D01*
X050716Y033441D01*
X050809Y033535D01*
X050716Y033441D01*
X050529Y033441D01*
X050436Y033535D01*
X050436Y033908D01*
X050529Y034002D01*
X050716Y034002D01*
X050809Y033908D01*
X050716Y034002D01*
X050529Y034002D01*
X050436Y033908D01*
X050436Y033535D01*
X051080Y033535D02*
X051080Y033908D01*
X051174Y034002D01*
X051360Y034002D01*
X051454Y033908D01*
X051454Y033535D01*
X051360Y033441D01*
X051174Y033441D01*
X051080Y033535D01*
X051174Y033441D01*
X051360Y033441D01*
X051454Y033535D01*
X051454Y033908D01*
X051360Y034002D01*
X051174Y034002D01*
X051080Y033908D01*
X051080Y033535D01*
X051174Y033441D01*
X051360Y033441D01*
X051454Y033535D01*
X051454Y033908D01*
X051360Y034002D01*
X051174Y034002D01*
X051080Y033908D01*
X051080Y033535D01*
X051174Y033441D01*
X051360Y033441D01*
X051454Y033535D01*
X051454Y033908D01*
X051360Y034002D01*
X051174Y034002D01*
X051080Y033908D01*
X051080Y033535D01*
X051725Y033441D02*
X051725Y034002D01*
X052098Y033441D01*
X052098Y034002D01*
X052098Y033441D01*
X051725Y034002D01*
X051725Y033441D01*
X051725Y034002D01*
X052098Y033441D01*
X052098Y034002D01*
X052098Y033441D01*
X051725Y034002D01*
X051725Y033441D01*
X052556Y033441D02*
X052556Y034002D01*
X052556Y033441D01*
X052556Y034002D01*
X052556Y033441D01*
X053014Y033441D02*
X053014Y034002D01*
X053294Y034002D01*
X053387Y033908D01*
X053387Y033722D01*
X053294Y033628D01*
X053014Y033628D01*
X053294Y033628D01*
X053387Y033722D01*
X053387Y033908D01*
X053294Y034002D01*
X053014Y034002D01*
X053014Y033441D01*
X053014Y034002D01*
X053294Y034002D01*
X053387Y033908D01*
X053387Y033722D01*
X053294Y033628D01*
X053014Y033628D01*
X053294Y033628D01*
X053387Y033722D01*
X053387Y033908D01*
X053294Y034002D01*
X053014Y034002D01*
X053014Y033441D01*
X053201Y033628D02*
X053387Y033441D01*
X053201Y033628D01*
X053387Y033441D01*
X053201Y033628D01*
X053658Y033535D02*
X053752Y033441D01*
X053938Y033441D01*
X054032Y033535D01*
X054032Y033908D01*
X053938Y034002D01*
X053752Y034002D01*
X053658Y033908D01*
X053658Y033535D01*
X053752Y033441D01*
X053938Y033441D01*
X054032Y033535D01*
X054032Y033908D01*
X053938Y034002D01*
X053752Y034002D01*
X053658Y033908D01*
X053658Y033535D01*
X053752Y033441D01*
X053938Y033441D01*
X054032Y033535D01*
X054032Y033908D01*
X053938Y034002D01*
X053752Y034002D01*
X053658Y033908D01*
X053658Y033535D01*
X053752Y033441D01*
X053938Y033441D01*
X054032Y033535D01*
X054032Y033908D01*
X053938Y034002D01*
X053752Y034002D01*
X053658Y033908D01*
X053658Y033535D01*
X054303Y033441D02*
X054676Y033441D01*
X054303Y033441D01*
X054303Y034002D01*
X054303Y033441D01*
X054676Y033441D01*
X054303Y033441D01*
X054303Y034002D01*
X054303Y033441D01*
X054947Y033441D02*
X055321Y033441D01*
X054947Y033441D01*
X054947Y034002D01*
X054947Y033441D01*
X055321Y033441D01*
X054947Y033441D01*
X054947Y034002D01*
X054947Y033441D01*
X055592Y033441D02*
X055965Y033441D01*
X055592Y033441D01*
X055592Y034002D01*
X055965Y034002D01*
X055592Y034002D01*
X055592Y033441D01*
X055965Y033441D01*
X055592Y033441D01*
X055592Y034002D01*
X055965Y034002D01*
X055592Y034002D01*
X055592Y033441D01*
X055592Y033722D02*
X055779Y033722D01*
X055592Y033722D01*
X055779Y033722D01*
X055592Y033722D01*
X056236Y033628D02*
X056517Y033628D01*
X056610Y033722D01*
X056610Y033908D01*
X056517Y034002D01*
X056236Y034002D01*
X056236Y033441D01*
X056236Y034002D01*
X056517Y034002D01*
X056610Y033908D01*
X056610Y033722D01*
X056517Y033628D01*
X056236Y033628D01*
X056517Y033628D01*
X056610Y033722D01*
X056610Y033908D01*
X056517Y034002D01*
X056236Y034002D01*
X056236Y033441D01*
X056236Y034002D01*
X056517Y034002D01*
X056610Y033908D01*
X056610Y033722D01*
X056517Y033628D01*
X056236Y033628D01*
X056423Y033628D02*
X056610Y033441D01*
X056423Y033628D01*
X056610Y033441D01*
X056423Y033628D01*
X052743Y034002D02*
X052369Y034002D01*
X052743Y034002D01*
X052369Y034002D01*
X052743Y034002D01*
D13*
X005476Y020671D02*
X005427Y020832D01*
X005365Y020989D01*
X005290Y021140D01*
X005203Y021284D01*
X005104Y021421D01*
X004994Y021549D01*
X004873Y021667D01*
X004743Y021774D01*
X004605Y021870D01*
X004459Y021955D01*
X004306Y022027D01*
X004148Y022085D01*
X003986Y022131D01*
X003820Y022162D01*
X003653Y022180D01*
X003484Y022184D01*
X003316Y022173D01*
X003149Y022148D01*
X002985Y022110D01*
X002825Y022058D01*
X002669Y021993D01*
X002520Y021914D01*
X002377Y021824D01*
X002243Y021722D01*
X002118Y021609D01*
X002002Y021486D01*
X001898Y021354D01*
X001804Y021214D01*
X001723Y021066D01*
X001654Y020912D01*
X001599Y020753D01*
X001557Y020590D01*
X001529Y020423D01*
X001515Y020255D01*
X001515Y020087D01*
X001529Y019919D01*
X001557Y019752D01*
X001599Y019589D01*
X001654Y019430D01*
X001723Y019276D01*
X001804Y019128D01*
X001898Y018988D01*
X002002Y018856D01*
X002118Y018733D01*
X002243Y018620D01*
X002377Y018518D01*
X002520Y018428D01*
X002669Y018349D01*
X002825Y018284D01*
X002985Y018232D01*
X003149Y018194D01*
X003316Y018169D01*
X003484Y018158D01*
X003653Y018162D01*
X003820Y018180D01*
X003986Y018211D01*
X004148Y018257D01*
X004306Y018315D01*
X004459Y018387D01*
X004605Y018472D01*
X004743Y018568D01*
X004873Y018675D01*
X004994Y018793D01*
X005104Y018921D01*
X005203Y019058D01*
X005290Y019202D01*
X005365Y019353D01*
X005427Y019510D01*
X005476Y019671D01*
X005776Y019071D02*
X005683Y018900D01*
X005578Y018736D01*
X005460Y018580D01*
X005330Y018435D01*
X005190Y018300D01*
X005039Y018176D01*
X004879Y018064D01*
X004711Y017965D01*
X004536Y017880D01*
X004355Y017808D01*
X004168Y017751D01*
X003978Y017708D01*
X003785Y017680D01*
X003590Y017668D01*
X003396Y017670D01*
X003201Y017688D01*
X003009Y017721D01*
X002820Y017769D01*
X002635Y017831D01*
X002456Y017907D01*
X002283Y017997D01*
X002118Y018101D01*
X001961Y018216D01*
X001814Y018344D01*
X001677Y018483D01*
X001551Y018632D01*
X001437Y018790D01*
X001336Y018957D01*
X001248Y019131D01*
X001174Y019311D01*
X001114Y019497D01*
X001069Y019687D01*
X001039Y019879D01*
X001024Y020074D01*
X001024Y020268D01*
X001039Y020463D01*
X001069Y020655D01*
X001114Y020845D01*
X001174Y021031D01*
X001248Y021211D01*
X001336Y021385D01*
X001437Y021552D01*
X001551Y021710D01*
X001677Y021859D01*
X001814Y021998D01*
X001961Y022126D01*
X002118Y022241D01*
X002283Y022345D01*
X002456Y022435D01*
X002635Y022511D01*
X002820Y022573D01*
X003009Y022621D01*
X003201Y022654D01*
X003396Y022672D01*
X003590Y022674D01*
X003785Y022662D01*
X003978Y022634D01*
X004168Y022591D01*
X004355Y022534D01*
X004536Y022462D01*
X004711Y022377D01*
X004879Y022278D01*
X005039Y022166D01*
X005190Y022042D01*
X005330Y021907D01*
X005460Y021762D01*
X005578Y021606D01*
X005683Y021442D01*
X005776Y021271D01*
X005476Y020671D02*
X005427Y020832D01*
X005365Y020989D01*
X005290Y021140D01*
X005203Y021284D01*
X005104Y021421D01*
X004994Y021549D01*
X004873Y021667D01*
X004743Y021774D01*
X004605Y021870D01*
X004459Y021955D01*
X004306Y022027D01*
X004148Y022085D01*
X003986Y022131D01*
X003820Y022162D01*
X003653Y022180D01*
X003484Y022184D01*
X003316Y022173D01*
X003149Y022148D01*
X002985Y022110D01*
X002825Y022058D01*
X002669Y021993D01*
X002520Y021914D01*
X002377Y021824D01*
X002243Y021722D01*
X002118Y021609D01*
X002002Y021486D01*
X001898Y021354D01*
X001804Y021214D01*
X001723Y021066D01*
X001654Y020912D01*
X001599Y020753D01*
X001557Y020590D01*
X001529Y020423D01*
X001515Y020255D01*
X001515Y020087D01*
X001529Y019919D01*
X001557Y019752D01*
X001599Y019589D01*
X001654Y019430D01*
X001723Y019276D01*
X001804Y019128D01*
X001898Y018988D01*
X002002Y018856D01*
X002118Y018733D01*
X002243Y018620D01*
X002377Y018518D01*
X002520Y018428D01*
X002669Y018349D01*
X002825Y018284D01*
X002985Y018232D01*
X003149Y018194D01*
X003316Y018169D01*
X003484Y018158D01*
X003653Y018162D01*
X003820Y018180D01*
X003986Y018211D01*
X004148Y018257D01*
X004306Y018315D01*
X004459Y018387D01*
X004605Y018472D01*
X004743Y018568D01*
X004873Y018675D01*
X004994Y018793D01*
X005104Y018921D01*
X005203Y019058D01*
X005290Y019202D01*
X005365Y019353D01*
X005427Y019510D01*
X005476Y019671D01*
X005776Y019071D02*
X005683Y018900D01*
X005578Y018736D01*
X005460Y018580D01*
X005330Y018435D01*
X005190Y018300D01*
X005039Y018176D01*
X004879Y018064D01*
X004711Y017965D01*
X004536Y017880D01*
X004355Y017808D01*
X004168Y017751D01*
X003978Y017708D01*
X003785Y017680D01*
X003590Y017668D01*
X003396Y017670D01*
X003201Y017688D01*
X003009Y017721D01*
X002820Y017769D01*
X002635Y017831D01*
X002456Y017907D01*
X002283Y017997D01*
X002118Y018101D01*
X001961Y018216D01*
X001814Y018344D01*
X001677Y018483D01*
X001551Y018632D01*
X001437Y018790D01*
X001336Y018957D01*
X001248Y019131D01*
X001174Y019311D01*
X001114Y019497D01*
X001069Y019687D01*
X001039Y019879D01*
X001024Y020074D01*
X001024Y020268D01*
X001039Y020463D01*
X001069Y020655D01*
X001114Y020845D01*
X001174Y021031D01*
X001248Y021211D01*
X001336Y021385D01*
X001437Y021552D01*
X001551Y021710D01*
X001677Y021859D01*
X001814Y021998D01*
X001961Y022126D01*
X002118Y022241D01*
X002283Y022345D01*
X002456Y022435D01*
X002635Y022511D01*
X002820Y022573D01*
X003009Y022621D01*
X003201Y022654D01*
X003396Y022672D01*
X003590Y022674D01*
X003785Y022662D01*
X003978Y022634D01*
X004168Y022591D01*
X004355Y022534D01*
X004536Y022462D01*
X004711Y022377D01*
X004879Y022278D01*
X005039Y022166D01*
X005190Y022042D01*
X005330Y021907D01*
X005460Y021762D01*
X005578Y021606D01*
X005683Y021442D01*
X005776Y021271D01*
D14*
X037841Y015171D03*
X037841Y015171D03*
D15*
X032416Y014171D03*
X032416Y014171D03*
D16*
X037086Y010166D03*
X037086Y010166D03*
D17*
X036146Y010181D03*
X036146Y010181D03*
X040266Y010191D03*
X040266Y010191D03*
D18*
X051091Y028771D03*
X051091Y028771D03*
X051091Y028771D03*
X051091Y028771D03*
X051091Y030571D03*
X051091Y030571D03*
X057341Y030571D03*
X057341Y030571D03*
X057341Y030571D03*
X057341Y030571D03*
X057341Y028771D03*
X057341Y028771D03*
D19*
X054166Y028921D03*
X054166Y028921D03*
D20*
X054291Y030421D03*
X054291Y030421D03*
D21*
X033716Y009021D03*
X033716Y009021D03*
X031716Y009021D03*
X031716Y009021D03*
D22*
X032716Y010021D03*
X032716Y010021D03*
D23*
X010216Y012171D03*
X010216Y012171D03*
D24*
X010009Y012398D03*
X010009Y012398D03*
D25*
X035216Y007371D02*
X035216Y000871D01*
X053716Y000871D01*
X053716Y007371D01*
X041626Y007371D01*
X035216Y007371D01*
X047026Y013721D02*
X047028Y013753D01*
X047034Y013784D01*
X047044Y013815D01*
X047058Y013844D01*
X047076Y013871D01*
X047096Y013895D01*
X047120Y013916D01*
X047146Y013935D01*
X047175Y013950D01*
X047205Y013961D01*
X047236Y013968D01*
X047268Y013971D01*
X047300Y013970D01*
X047332Y013965D01*
X047362Y013956D01*
X047392Y013943D01*
X047419Y013926D01*
X047444Y013906D01*
X047466Y013883D01*
X047486Y013857D01*
X047501Y013829D01*
X047513Y013800D01*
X047521Y013769D01*
X047525Y013737D01*
X047525Y013705D01*
X047521Y013673D01*
X047513Y013642D01*
X047501Y013613D01*
X047486Y013585D01*
X047466Y013559D01*
X047444Y013536D01*
X047419Y013516D01*
X047392Y013499D01*
X047362Y013486D01*
X047332Y013477D01*
X047300Y013472D01*
X047268Y013471D01*
X047236Y013474D01*
X047205Y013481D01*
X047175Y013492D01*
X047146Y013507D01*
X047120Y013526D01*
X047096Y013547D01*
X047076Y013571D01*
X047058Y013598D01*
X047044Y013627D01*
X047034Y013658D01*
X047028Y013689D01*
X047026Y013721D01*
X047028Y013753D01*
X047034Y013784D01*
X047044Y013815D01*
X047058Y013844D01*
X047076Y013871D01*
X047096Y013895D01*
X047120Y013916D01*
X047146Y013935D01*
X047175Y013950D01*
X047205Y013961D01*
X047236Y013968D01*
X047268Y013971D01*
X047300Y013970D01*
X047332Y013965D01*
X047362Y013956D01*
X047392Y013943D01*
X047419Y013926D01*
X047444Y013906D01*
X047466Y013883D01*
X047486Y013857D01*
X047501Y013829D01*
X047513Y013800D01*
X047521Y013769D01*
X047525Y013737D01*
X047525Y013705D01*
X047521Y013673D01*
X047513Y013642D01*
X047501Y013613D01*
X047486Y013585D01*
X047466Y013559D01*
X047444Y013536D01*
X047419Y013516D01*
X047392Y013499D01*
X047362Y013486D01*
X047332Y013477D01*
X047300Y013472D01*
X047268Y013471D01*
X047236Y013474D01*
X047205Y013481D01*
X047175Y013492D01*
X047146Y013507D01*
X047120Y013526D01*
X047096Y013547D01*
X047076Y013571D01*
X047058Y013598D01*
X047044Y013627D01*
X047034Y013658D01*
X047028Y013689D01*
X047026Y013721D01*
X047876Y014021D02*
X047878Y014041D01*
X047884Y014060D01*
X047894Y014078D01*
X047907Y014093D01*
X047923Y014106D01*
X047941Y014115D01*
X047961Y014120D01*
X047981Y014121D01*
X048001Y014118D01*
X048020Y014111D01*
X048037Y014100D01*
X048052Y014086D01*
X048063Y014070D01*
X048071Y014051D01*
X048075Y014031D01*
X048075Y014011D01*
X048071Y013991D01*
X048063Y013972D01*
X048052Y013956D01*
X048037Y013942D01*
X048020Y013931D01*
X048001Y013924D01*
X047981Y013921D01*
X047961Y013922D01*
X047941Y013927D01*
X047923Y013936D01*
X047907Y013949D01*
X047894Y013964D01*
X047884Y013982D01*
X047878Y014001D01*
X047876Y014021D01*
X047878Y014041D01*
X047884Y014060D01*
X047894Y014078D01*
X047907Y014093D01*
X047923Y014106D01*
X047941Y014115D01*
X047961Y014120D01*
X047981Y014121D01*
X048001Y014118D01*
X048020Y014111D01*
X048037Y014100D01*
X048052Y014086D01*
X048063Y014070D01*
X048071Y014051D01*
X048075Y014031D01*
X048075Y014011D01*
X048071Y013991D01*
X048063Y013972D01*
X048052Y013956D01*
X048037Y013942D01*
X048020Y013931D01*
X048001Y013924D01*
X047981Y013921D01*
X047961Y013922D01*
X047941Y013927D01*
X047923Y013936D01*
X047907Y013949D01*
X047894Y013964D01*
X047884Y013982D01*
X047878Y014001D01*
X047876Y014021D01*
X047026Y015721D02*
X047028Y015753D01*
X047034Y015784D01*
X047044Y015815D01*
X047058Y015844D01*
X047076Y015871D01*
X047096Y015895D01*
X047120Y015916D01*
X047146Y015935D01*
X047175Y015950D01*
X047205Y015961D01*
X047236Y015968D01*
X047268Y015971D01*
X047300Y015970D01*
X047332Y015965D01*
X047362Y015956D01*
X047392Y015943D01*
X047419Y015926D01*
X047444Y015906D01*
X047466Y015883D01*
X047486Y015857D01*
X047501Y015829D01*
X047513Y015800D01*
X047521Y015769D01*
X047525Y015737D01*
X047525Y015705D01*
X047521Y015673D01*
X047513Y015642D01*
X047501Y015613D01*
X047486Y015585D01*
X047466Y015559D01*
X047444Y015536D01*
X047419Y015516D01*
X047392Y015499D01*
X047362Y015486D01*
X047332Y015477D01*
X047300Y015472D01*
X047268Y015471D01*
X047236Y015474D01*
X047205Y015481D01*
X047175Y015492D01*
X047146Y015507D01*
X047120Y015526D01*
X047096Y015547D01*
X047076Y015571D01*
X047058Y015598D01*
X047044Y015627D01*
X047034Y015658D01*
X047028Y015689D01*
X047026Y015721D01*
X047028Y015753D01*
X047034Y015784D01*
X047044Y015815D01*
X047058Y015844D01*
X047076Y015871D01*
X047096Y015895D01*
X047120Y015916D01*
X047146Y015935D01*
X047175Y015950D01*
X047205Y015961D01*
X047236Y015968D01*
X047268Y015971D01*
X047300Y015970D01*
X047332Y015965D01*
X047362Y015956D01*
X047392Y015943D01*
X047419Y015926D01*
X047444Y015906D01*
X047466Y015883D01*
X047486Y015857D01*
X047501Y015829D01*
X047513Y015800D01*
X047521Y015769D01*
X047525Y015737D01*
X047525Y015705D01*
X047521Y015673D01*
X047513Y015642D01*
X047501Y015613D01*
X047486Y015585D01*
X047466Y015559D01*
X047444Y015536D01*
X047419Y015516D01*
X047392Y015499D01*
X047362Y015486D01*
X047332Y015477D01*
X047300Y015472D01*
X047268Y015471D01*
X047236Y015474D01*
X047205Y015481D01*
X047175Y015492D01*
X047146Y015507D01*
X047120Y015526D01*
X047096Y015547D01*
X047076Y015571D01*
X047058Y015598D01*
X047044Y015627D01*
X047034Y015658D01*
X047028Y015689D01*
X047026Y015721D01*
X047026Y016721D02*
X047028Y016753D01*
X047034Y016784D01*
X047044Y016815D01*
X047058Y016844D01*
X047076Y016871D01*
X047096Y016895D01*
X047120Y016916D01*
X047146Y016935D01*
X047175Y016950D01*
X047205Y016961D01*
X047236Y016968D01*
X047268Y016971D01*
X047300Y016970D01*
X047332Y016965D01*
X047362Y016956D01*
X047392Y016943D01*
X047419Y016926D01*
X047444Y016906D01*
X047466Y016883D01*
X047486Y016857D01*
X047501Y016829D01*
X047513Y016800D01*
X047521Y016769D01*
X047525Y016737D01*
X047525Y016705D01*
X047521Y016673D01*
X047513Y016642D01*
X047501Y016613D01*
X047486Y016585D01*
X047466Y016559D01*
X047444Y016536D01*
X047419Y016516D01*
X047392Y016499D01*
X047362Y016486D01*
X047332Y016477D01*
X047300Y016472D01*
X047268Y016471D01*
X047236Y016474D01*
X047205Y016481D01*
X047175Y016492D01*
X047146Y016507D01*
X047120Y016526D01*
X047096Y016547D01*
X047076Y016571D01*
X047058Y016598D01*
X047044Y016627D01*
X047034Y016658D01*
X047028Y016689D01*
X047026Y016721D01*
X047028Y016753D01*
X047034Y016784D01*
X047044Y016815D01*
X047058Y016844D01*
X047076Y016871D01*
X047096Y016895D01*
X047120Y016916D01*
X047146Y016935D01*
X047175Y016950D01*
X047205Y016961D01*
X047236Y016968D01*
X047268Y016971D01*
X047300Y016970D01*
X047332Y016965D01*
X047362Y016956D01*
X047392Y016943D01*
X047419Y016926D01*
X047444Y016906D01*
X047466Y016883D01*
X047486Y016857D01*
X047501Y016829D01*
X047513Y016800D01*
X047521Y016769D01*
X047525Y016737D01*
X047525Y016705D01*
X047521Y016673D01*
X047513Y016642D01*
X047501Y016613D01*
X047486Y016585D01*
X047466Y016559D01*
X047444Y016536D01*
X047419Y016516D01*
X047392Y016499D01*
X047362Y016486D01*
X047332Y016477D01*
X047300Y016472D01*
X047268Y016471D01*
X047236Y016474D01*
X047205Y016481D01*
X047175Y016492D01*
X047146Y016507D01*
X047120Y016526D01*
X047096Y016547D01*
X047076Y016571D01*
X047058Y016598D01*
X047044Y016627D01*
X047034Y016658D01*
X047028Y016689D01*
X047026Y016721D01*
X047876Y017021D02*
X047878Y017041D01*
X047884Y017060D01*
X047894Y017078D01*
X047907Y017093D01*
X047923Y017106D01*
X047941Y017115D01*
X047961Y017120D01*
X047981Y017121D01*
X048001Y017118D01*
X048020Y017111D01*
X048037Y017100D01*
X048052Y017086D01*
X048063Y017070D01*
X048071Y017051D01*
X048075Y017031D01*
X048075Y017011D01*
X048071Y016991D01*
X048063Y016972D01*
X048052Y016956D01*
X048037Y016942D01*
X048020Y016931D01*
X048001Y016924D01*
X047981Y016921D01*
X047961Y016922D01*
X047941Y016927D01*
X047923Y016936D01*
X047907Y016949D01*
X047894Y016964D01*
X047884Y016982D01*
X047878Y017001D01*
X047876Y017021D01*
X047878Y017041D01*
X047884Y017060D01*
X047894Y017078D01*
X047907Y017093D01*
X047923Y017106D01*
X047941Y017115D01*
X047961Y017120D01*
X047981Y017121D01*
X048001Y017118D01*
X048020Y017111D01*
X048037Y017100D01*
X048052Y017086D01*
X048063Y017070D01*
X048071Y017051D01*
X048075Y017031D01*
X048075Y017011D01*
X048071Y016991D01*
X048063Y016972D01*
X048052Y016956D01*
X048037Y016942D01*
X048020Y016931D01*
X048001Y016924D01*
X047981Y016921D01*
X047961Y016922D01*
X047941Y016927D01*
X047923Y016936D01*
X047907Y016949D01*
X047894Y016964D01*
X047884Y016982D01*
X047878Y017001D01*
X047876Y017021D01*
X047026Y018721D02*
X047028Y018753D01*
X047034Y018784D01*
X047044Y018815D01*
X047058Y018844D01*
X047076Y018871D01*
X047096Y018895D01*
X047120Y018916D01*
X047146Y018935D01*
X047175Y018950D01*
X047205Y018961D01*
X047236Y018968D01*
X047268Y018971D01*
X047300Y018970D01*
X047332Y018965D01*
X047362Y018956D01*
X047392Y018943D01*
X047419Y018926D01*
X047444Y018906D01*
X047466Y018883D01*
X047486Y018857D01*
X047501Y018829D01*
X047513Y018800D01*
X047521Y018769D01*
X047525Y018737D01*
X047525Y018705D01*
X047521Y018673D01*
X047513Y018642D01*
X047501Y018613D01*
X047486Y018585D01*
X047466Y018559D01*
X047444Y018536D01*
X047419Y018516D01*
X047392Y018499D01*
X047362Y018486D01*
X047332Y018477D01*
X047300Y018472D01*
X047268Y018471D01*
X047236Y018474D01*
X047205Y018481D01*
X047175Y018492D01*
X047146Y018507D01*
X047120Y018526D01*
X047096Y018547D01*
X047076Y018571D01*
X047058Y018598D01*
X047044Y018627D01*
X047034Y018658D01*
X047028Y018689D01*
X047026Y018721D01*
X047028Y018753D01*
X047034Y018784D01*
X047044Y018815D01*
X047058Y018844D01*
X047076Y018871D01*
X047096Y018895D01*
X047120Y018916D01*
X047146Y018935D01*
X047175Y018950D01*
X047205Y018961D01*
X047236Y018968D01*
X047268Y018971D01*
X047300Y018970D01*
X047332Y018965D01*
X047362Y018956D01*
X047392Y018943D01*
X047419Y018926D01*
X047444Y018906D01*
X047466Y018883D01*
X047486Y018857D01*
X047501Y018829D01*
X047513Y018800D01*
X047521Y018769D01*
X047525Y018737D01*
X047525Y018705D01*
X047521Y018673D01*
X047513Y018642D01*
X047501Y018613D01*
X047486Y018585D01*
X047466Y018559D01*
X047444Y018536D01*
X047419Y018516D01*
X047392Y018499D01*
X047362Y018486D01*
X047332Y018477D01*
X047300Y018472D01*
X047268Y018471D01*
X047236Y018474D01*
X047205Y018481D01*
X047175Y018492D01*
X047146Y018507D01*
X047120Y018526D01*
X047096Y018547D01*
X047076Y018571D01*
X047058Y018598D01*
X047044Y018627D01*
X047034Y018658D01*
X047028Y018689D01*
X047026Y018721D01*
X051476Y017021D02*
X051478Y017041D01*
X051484Y017060D01*
X051494Y017078D01*
X051507Y017093D01*
X051523Y017106D01*
X051541Y017115D01*
X051561Y017120D01*
X051581Y017121D01*
X051601Y017118D01*
X051620Y017111D01*
X051637Y017100D01*
X051652Y017086D01*
X051663Y017070D01*
X051671Y017051D01*
X051675Y017031D01*
X051675Y017011D01*
X051671Y016991D01*
X051663Y016972D01*
X051652Y016956D01*
X051637Y016942D01*
X051620Y016931D01*
X051601Y016924D01*
X051581Y016921D01*
X051561Y016922D01*
X051541Y016927D01*
X051523Y016936D01*
X051507Y016949D01*
X051494Y016964D01*
X051484Y016982D01*
X051478Y017001D01*
X051476Y017021D01*
X051478Y017041D01*
X051484Y017060D01*
X051494Y017078D01*
X051507Y017093D01*
X051523Y017106D01*
X051541Y017115D01*
X051561Y017120D01*
X051581Y017121D01*
X051601Y017118D01*
X051620Y017111D01*
X051637Y017100D01*
X051652Y017086D01*
X051663Y017070D01*
X051671Y017051D01*
X051675Y017031D01*
X051675Y017011D01*
X051671Y016991D01*
X051663Y016972D01*
X051652Y016956D01*
X051637Y016942D01*
X051620Y016931D01*
X051601Y016924D01*
X051581Y016921D01*
X051561Y016922D01*
X051541Y016927D01*
X051523Y016936D01*
X051507Y016949D01*
X051494Y016964D01*
X051484Y016982D01*
X051478Y017001D01*
X051476Y017021D01*
X052026Y016721D02*
X052028Y016753D01*
X052034Y016784D01*
X052044Y016815D01*
X052058Y016844D01*
X052076Y016871D01*
X052096Y016895D01*
X052120Y016916D01*
X052146Y016935D01*
X052175Y016950D01*
X052205Y016961D01*
X052236Y016968D01*
X052268Y016971D01*
X052300Y016970D01*
X052332Y016965D01*
X052362Y016956D01*
X052392Y016943D01*
X052419Y016926D01*
X052444Y016906D01*
X052466Y016883D01*
X052486Y016857D01*
X052501Y016829D01*
X052513Y016800D01*
X052521Y016769D01*
X052525Y016737D01*
X052525Y016705D01*
X052521Y016673D01*
X052513Y016642D01*
X052501Y016613D01*
X052486Y016585D01*
X052466Y016559D01*
X052444Y016536D01*
X052419Y016516D01*
X052392Y016499D01*
X052362Y016486D01*
X052332Y016477D01*
X052300Y016472D01*
X052268Y016471D01*
X052236Y016474D01*
X052205Y016481D01*
X052175Y016492D01*
X052146Y016507D01*
X052120Y016526D01*
X052096Y016547D01*
X052076Y016571D01*
X052058Y016598D01*
X052044Y016627D01*
X052034Y016658D01*
X052028Y016689D01*
X052026Y016721D01*
X052028Y016753D01*
X052034Y016784D01*
X052044Y016815D01*
X052058Y016844D01*
X052076Y016871D01*
X052096Y016895D01*
X052120Y016916D01*
X052146Y016935D01*
X052175Y016950D01*
X052205Y016961D01*
X052236Y016968D01*
X052268Y016971D01*
X052300Y016970D01*
X052332Y016965D01*
X052362Y016956D01*
X052392Y016943D01*
X052419Y016926D01*
X052444Y016906D01*
X052466Y016883D01*
X052486Y016857D01*
X052501Y016829D01*
X052513Y016800D01*
X052521Y016769D01*
X052525Y016737D01*
X052525Y016705D01*
X052521Y016673D01*
X052513Y016642D01*
X052501Y016613D01*
X052486Y016585D01*
X052466Y016559D01*
X052444Y016536D01*
X052419Y016516D01*
X052392Y016499D01*
X052362Y016486D01*
X052332Y016477D01*
X052300Y016472D01*
X052268Y016471D01*
X052236Y016474D01*
X052205Y016481D01*
X052175Y016492D01*
X052146Y016507D01*
X052120Y016526D01*
X052096Y016547D01*
X052076Y016571D01*
X052058Y016598D01*
X052044Y016627D01*
X052034Y016658D01*
X052028Y016689D01*
X052026Y016721D01*
X052026Y015721D02*
X052028Y015753D01*
X052034Y015784D01*
X052044Y015815D01*
X052058Y015844D01*
X052076Y015871D01*
X052096Y015895D01*
X052120Y015916D01*
X052146Y015935D01*
X052175Y015950D01*
X052205Y015961D01*
X052236Y015968D01*
X052268Y015971D01*
X052300Y015970D01*
X052332Y015965D01*
X052362Y015956D01*
X052392Y015943D01*
X052419Y015926D01*
X052444Y015906D01*
X052466Y015883D01*
X052486Y015857D01*
X052501Y015829D01*
X052513Y015800D01*
X052521Y015769D01*
X052525Y015737D01*
X052525Y015705D01*
X052521Y015673D01*
X052513Y015642D01*
X052501Y015613D01*
X052486Y015585D01*
X052466Y015559D01*
X052444Y015536D01*
X052419Y015516D01*
X052392Y015499D01*
X052362Y015486D01*
X052332Y015477D01*
X052300Y015472D01*
X052268Y015471D01*
X052236Y015474D01*
X052205Y015481D01*
X052175Y015492D01*
X052146Y015507D01*
X052120Y015526D01*
X052096Y015547D01*
X052076Y015571D01*
X052058Y015598D01*
X052044Y015627D01*
X052034Y015658D01*
X052028Y015689D01*
X052026Y015721D01*
X052028Y015753D01*
X052034Y015784D01*
X052044Y015815D01*
X052058Y015844D01*
X052076Y015871D01*
X052096Y015895D01*
X052120Y015916D01*
X052146Y015935D01*
X052175Y015950D01*
X052205Y015961D01*
X052236Y015968D01*
X052268Y015971D01*
X052300Y015970D01*
X052332Y015965D01*
X052362Y015956D01*
X052392Y015943D01*
X052419Y015926D01*
X052444Y015906D01*
X052466Y015883D01*
X052486Y015857D01*
X052501Y015829D01*
X052513Y015800D01*
X052521Y015769D01*
X052525Y015737D01*
X052525Y015705D01*
X052521Y015673D01*
X052513Y015642D01*
X052501Y015613D01*
X052486Y015585D01*
X052466Y015559D01*
X052444Y015536D01*
X052419Y015516D01*
X052392Y015499D01*
X052362Y015486D01*
X052332Y015477D01*
X052300Y015472D01*
X052268Y015471D01*
X052236Y015474D01*
X052205Y015481D01*
X052175Y015492D01*
X052146Y015507D01*
X052120Y015526D01*
X052096Y015547D01*
X052076Y015571D01*
X052058Y015598D01*
X052044Y015627D01*
X052034Y015658D01*
X052028Y015689D01*
X052026Y015721D01*
X051476Y014021D02*
X051478Y014041D01*
X051484Y014060D01*
X051494Y014078D01*
X051507Y014093D01*
X051523Y014106D01*
X051541Y014115D01*
X051561Y014120D01*
X051581Y014121D01*
X051601Y014118D01*
X051620Y014111D01*
X051637Y014100D01*
X051652Y014086D01*
X051663Y014070D01*
X051671Y014051D01*
X051675Y014031D01*
X051675Y014011D01*
X051671Y013991D01*
X051663Y013972D01*
X051652Y013956D01*
X051637Y013942D01*
X051620Y013931D01*
X051601Y013924D01*
X051581Y013921D01*
X051561Y013922D01*
X051541Y013927D01*
X051523Y013936D01*
X051507Y013949D01*
X051494Y013964D01*
X051484Y013982D01*
X051478Y014001D01*
X051476Y014021D01*
X051478Y014041D01*
X051484Y014060D01*
X051494Y014078D01*
X051507Y014093D01*
X051523Y014106D01*
X051541Y014115D01*
X051561Y014120D01*
X051581Y014121D01*
X051601Y014118D01*
X051620Y014111D01*
X051637Y014100D01*
X051652Y014086D01*
X051663Y014070D01*
X051671Y014051D01*
X051675Y014031D01*
X051675Y014011D01*
X051671Y013991D01*
X051663Y013972D01*
X051652Y013956D01*
X051637Y013942D01*
X051620Y013931D01*
X051601Y013924D01*
X051581Y013921D01*
X051561Y013922D01*
X051541Y013927D01*
X051523Y013936D01*
X051507Y013949D01*
X051494Y013964D01*
X051484Y013982D01*
X051478Y014001D01*
X051476Y014021D01*
X052026Y013721D02*
X052028Y013753D01*
X052034Y013784D01*
X052044Y013815D01*
X052058Y013844D01*
X052076Y013871D01*
X052096Y013895D01*
X052120Y013916D01*
X052146Y013935D01*
X052175Y013950D01*
X052205Y013961D01*
X052236Y013968D01*
X052268Y013971D01*
X052300Y013970D01*
X052332Y013965D01*
X052362Y013956D01*
X052392Y013943D01*
X052419Y013926D01*
X052444Y013906D01*
X052466Y013883D01*
X052486Y013857D01*
X052501Y013829D01*
X052513Y013800D01*
X052521Y013769D01*
X052525Y013737D01*
X052525Y013705D01*
X052521Y013673D01*
X052513Y013642D01*
X052501Y013613D01*
X052486Y013585D01*
X052466Y013559D01*
X052444Y013536D01*
X052419Y013516D01*
X052392Y013499D01*
X052362Y013486D01*
X052332Y013477D01*
X052300Y013472D01*
X052268Y013471D01*
X052236Y013474D01*
X052205Y013481D01*
X052175Y013492D01*
X052146Y013507D01*
X052120Y013526D01*
X052096Y013547D01*
X052076Y013571D01*
X052058Y013598D01*
X052044Y013627D01*
X052034Y013658D01*
X052028Y013689D01*
X052026Y013721D01*
X052028Y013753D01*
X052034Y013784D01*
X052044Y013815D01*
X052058Y013844D01*
X052076Y013871D01*
X052096Y013895D01*
X052120Y013916D01*
X052146Y013935D01*
X052175Y013950D01*
X052205Y013961D01*
X052236Y013968D01*
X052268Y013971D01*
X052300Y013970D01*
X052332Y013965D01*
X052362Y013956D01*
X052392Y013943D01*
X052419Y013926D01*
X052444Y013906D01*
X052466Y013883D01*
X052486Y013857D01*
X052501Y013829D01*
X052513Y013800D01*
X052521Y013769D01*
X052525Y013737D01*
X052525Y013705D01*
X052521Y013673D01*
X052513Y013642D01*
X052501Y013613D01*
X052486Y013585D01*
X052466Y013559D01*
X052444Y013536D01*
X052419Y013516D01*
X052392Y013499D01*
X052362Y013486D01*
X052332Y013477D01*
X052300Y013472D01*
X052268Y013471D01*
X052236Y013474D01*
X052205Y013481D01*
X052175Y013492D01*
X052146Y013507D01*
X052120Y013526D01*
X052096Y013547D01*
X052076Y013571D01*
X052058Y013598D01*
X052044Y013627D01*
X052034Y013658D01*
X052028Y013689D01*
X052026Y013721D01*
X052026Y018721D02*
X052028Y018753D01*
X052034Y018784D01*
X052044Y018815D01*
X052058Y018844D01*
X052076Y018871D01*
X052096Y018895D01*
X052120Y018916D01*
X052146Y018935D01*
X052175Y018950D01*
X052205Y018961D01*
X052236Y018968D01*
X052268Y018971D01*
X052300Y018970D01*
X052332Y018965D01*
X052362Y018956D01*
X052392Y018943D01*
X052419Y018926D01*
X052444Y018906D01*
X052466Y018883D01*
X052486Y018857D01*
X052501Y018829D01*
X052513Y018800D01*
X052521Y018769D01*
X052525Y018737D01*
X052525Y018705D01*
X052521Y018673D01*
X052513Y018642D01*
X052501Y018613D01*
X052486Y018585D01*
X052466Y018559D01*
X052444Y018536D01*
X052419Y018516D01*
X052392Y018499D01*
X052362Y018486D01*
X052332Y018477D01*
X052300Y018472D01*
X052268Y018471D01*
X052236Y018474D01*
X052205Y018481D01*
X052175Y018492D01*
X052146Y018507D01*
X052120Y018526D01*
X052096Y018547D01*
X052076Y018571D01*
X052058Y018598D01*
X052044Y018627D01*
X052034Y018658D01*
X052028Y018689D01*
X052026Y018721D01*
X052028Y018753D01*
X052034Y018784D01*
X052044Y018815D01*
X052058Y018844D01*
X052076Y018871D01*
X052096Y018895D01*
X052120Y018916D01*
X052146Y018935D01*
X052175Y018950D01*
X052205Y018961D01*
X052236Y018968D01*
X052268Y018971D01*
X052300Y018970D01*
X052332Y018965D01*
X052362Y018956D01*
X052392Y018943D01*
X052419Y018926D01*
X052444Y018906D01*
X052466Y018883D01*
X052486Y018857D01*
X052501Y018829D01*
X052513Y018800D01*
X052521Y018769D01*
X052525Y018737D01*
X052525Y018705D01*
X052521Y018673D01*
X052513Y018642D01*
X052501Y018613D01*
X052486Y018585D01*
X052466Y018559D01*
X052444Y018536D01*
X052419Y018516D01*
X052392Y018499D01*
X052362Y018486D01*
X052332Y018477D01*
X052300Y018472D01*
X052268Y018471D01*
X052236Y018474D01*
X052205Y018481D01*
X052175Y018492D01*
X052146Y018507D01*
X052120Y018526D01*
X052096Y018547D01*
X052076Y018571D01*
X052058Y018598D01*
X052044Y018627D01*
X052034Y018658D01*
X052028Y018689D01*
X052026Y018721D01*
X049216Y032671D02*
X049216Y034671D01*
X057716Y034671D01*
X057716Y032671D01*
X049216Y032671D01*
D26*
X048651Y017721D03*
X048651Y017721D03*
X050901Y017721D03*
X050901Y017721D03*
X050901Y014721D03*
X050901Y014721D03*
X048651Y014721D03*
X048651Y014721D03*
D27*
X010681Y009861D03*
X010681Y009861D03*
X010681Y009461D03*
X010681Y009461D03*
D28*
X002716Y008161D03*
X002716Y014161D03*
X023716Y010161D03*
X023716Y018161D03*
M02*
