%
M48
M72
T01C0.0240
T02C0.0320
T03C0.0400
T04C0.0500
T05C0.1300
%
T01
X2514Y13161
X10514Y16161
X7514Y19161
X10514Y20161
X12514Y22161
X8014Y23161
X6014Y23161
X5514Y23661
X6514Y24661
X7014Y25161
X3514Y22661
X4514Y21661
X3514Y19161
X18514Y22161
X24514Y22161
X30514Y22161
X36514Y22161
X42514Y22161
X48514Y22161
X54514Y22161
T02
X5514Y9161
X5514Y10161
X5514Y11161
X5514Y13161
X5514Y14161
X5514Y15161
X5514Y16161
X5514Y17161
X5514Y18161
X5514Y19161
X5514Y20161
X8514Y20161
X8514Y19161
X8514Y18161
X8514Y17161
X8514Y16161
X8514Y15161
X8514Y14161
X8514Y13161
X8514Y11161
X8514Y10161
X8514Y9161
X12514Y10161
X18514Y10161
X24514Y10161
X30514Y10161
X36514Y10161
X42514Y10161
X48514Y10161
X54514Y10161
X54514Y14161
X54514Y15161
X55514Y15161
X56514Y15161
X56514Y18161
X55514Y18161
X54514Y18161
X50514Y18161
X49514Y18161
X48514Y18161
X44514Y18161
X43514Y18161
X42514Y18161
X38514Y18161
X37514Y18161
X36514Y18161
X32514Y18161
X31514Y18161
X30514Y18161
X26514Y18161
X25514Y18161
X24514Y18161
X20514Y18161
X19514Y18161
X18514Y18161
X14514Y18161
X13514Y18161
X12514Y18161
X12514Y15161
X13514Y15161
X14514Y15161
X12514Y14161
X18514Y14161
X18514Y15161
X19514Y15161
X20514Y15161
X24514Y15161
X25514Y15161
X26514Y15161
X24514Y14161
X30514Y14161
X30514Y15161
X31514Y15161
X32514Y15161
X36514Y15161
X37514Y15161
X38514Y15161
X36514Y14161
X42514Y14161
X42514Y15161
X43514Y15161
X44514Y15161
X48514Y15161
X49514Y15161
X50514Y15161
X48514Y14161
T03
X6514Y26161
X5514Y26161
X4514Y26161
X3514Y26161
X2514Y26161
X2514Y27161
X3514Y27161
X4514Y27161
X5514Y27161
X6514Y27161
X6514Y32161
X5514Y32161
X4514Y32161
X3514Y32161
X2514Y32161
X2514Y33161
X3514Y33161
X4514Y33161
X5514Y33161
X6514Y33161
T04
X2514Y29161
X9514Y27161
X13514Y31161
X15483Y31161
X17451Y31161
X19420Y31161
X21414Y31161
X23383Y31161
X25351Y31161
X27320Y31161
X30514Y31161
X32483Y31161
X34451Y31161
X36427Y31173
X38396Y31173
X40364Y31173
X43514Y31161
X45483Y31161
X47451Y31161
X49420Y31161
X51414Y31161
X53383Y31161
X55351Y31161
X57320Y31161
X56514Y26161
X54514Y26161
X50514Y26161
X48514Y26161
X32514Y27161
X11514Y19161
X14514Y12161
X13514Y10161
X15514Y10161
X19514Y10161
X21514Y10161
X20514Y12161
X25514Y10161
X27514Y10161
X26514Y12161
X31514Y10161
X33514Y10161
X32514Y12161
X37514Y10161
X39514Y10161
X38514Y12161
X43514Y10161
X45514Y10161
X44514Y12161
X49514Y10161
X51514Y10161
X50514Y12161
X55514Y10161
X57514Y10161
X56514Y12161
T05
X56514Y2661
X50514Y2661
X44514Y2661
X38514Y2661
X32514Y2661
X26514Y2661
X20514Y2661
X14514Y2661
M30
