G75*
G70*
%OFA0B0*%
%FSLAX24Y24*%
%IPPOS*%
%LPD*%
%AMOC8*
5,1,8,0,0,1.08239X$1,22.5*
%
%ADD10O,0.1120X0.0600*%
%ADD11C,0.0680*%
%ADD12R,0.0680X0.0680*%
%ADD13OC8,0.0710*%
%ADD14O,0.1080X0.2080*%
%ADD15O,0.2080X0.1080*%
%ADD16O,0.0830X0.1580*%
%ADD17R,0.0790X0.0710*%
%ADD18R,0.0710X0.0867*%
%ADD19R,0.0867X0.0710*%
%ADD20R,0.0631X0.1261*%
%ADD21C,0.1380*%
%ADD22O,0.0600X0.1120*%
%ADD23C,0.0830*%
%ADD24C,0.0480*%
D10*
X005514Y009161D03*
X005514Y010161D03*
X005514Y011161D03*
X005514Y013161D03*
X005514Y014161D03*
X005514Y015161D03*
X005514Y016161D03*
X005514Y017161D03*
X005514Y018161D03*
X005514Y019161D03*
X005514Y020161D03*
X008514Y020161D03*
X008514Y019161D03*
X008514Y018161D03*
X008514Y017161D03*
X008514Y016161D03*
X008514Y015161D03*
X008514Y014161D03*
X008514Y013161D03*
X008514Y011161D03*
X008514Y010161D03*
X008514Y009161D03*
D11*
X006514Y026161D03*
X005514Y026161D03*
X004514Y026161D03*
X003514Y026161D03*
X003514Y027161D03*
X002514Y027161D03*
X004514Y027161D03*
X005514Y027161D03*
X006514Y027161D03*
X006514Y032161D03*
X005514Y032161D03*
X004514Y032161D03*
X003514Y032161D03*
X003514Y033161D03*
X002514Y033161D03*
X004514Y033161D03*
X005514Y033161D03*
X006514Y033161D03*
D12*
X002514Y032161D03*
X002514Y026161D03*
D13*
X012514Y014161D03*
X018514Y014161D03*
X024514Y014161D03*
X030514Y014161D03*
X036514Y014161D03*
X042514Y014161D03*
X048514Y014161D03*
X054514Y014161D03*
X054514Y010161D03*
X048514Y010161D03*
X042514Y010161D03*
X036514Y010161D03*
X030514Y010161D03*
X024514Y010161D03*
X018514Y010161D03*
X012514Y010161D03*
D14*
X013514Y010161D03*
X015514Y010161D03*
X019514Y010161D03*
X021514Y010161D03*
X025514Y010161D03*
X027514Y010161D03*
X031514Y010161D03*
X033514Y010161D03*
X037514Y010161D03*
X039514Y010161D03*
X043514Y010161D03*
X045514Y010161D03*
X049514Y010161D03*
X051514Y010161D03*
X055514Y010161D03*
X057514Y010161D03*
X056514Y026161D03*
X054514Y026161D03*
X050514Y026161D03*
X048514Y026161D03*
D15*
X050514Y012161D03*
X056514Y012161D03*
X044514Y012161D03*
X038514Y012161D03*
X032514Y012161D03*
X026514Y012161D03*
X020514Y012161D03*
X014514Y012161D03*
D16*
X015483Y031161D03*
X013514Y031161D03*
X017451Y031161D03*
X019420Y031161D03*
X021414Y031161D03*
X023383Y031161D03*
X025351Y031161D03*
X027320Y031161D03*
X030514Y031161D03*
X032483Y031161D03*
X034451Y031161D03*
X036427Y031173D03*
X038396Y031173D03*
X040364Y031173D03*
X043514Y031161D03*
X045483Y031161D03*
X047451Y031161D03*
X049420Y031161D03*
X051414Y031161D03*
X053383Y031161D03*
X055351Y031161D03*
X057320Y031161D03*
D17*
X056514Y021221D03*
X056514Y020101D03*
X050514Y020101D03*
X050514Y021221D03*
X044514Y021221D03*
X044514Y020101D03*
X038514Y020101D03*
X038514Y021221D03*
X032514Y021221D03*
X032514Y020101D03*
X026514Y020101D03*
X026514Y021221D03*
X020514Y021221D03*
X020514Y020101D03*
X014514Y020101D03*
X014514Y021221D03*
X009514Y033101D03*
X009514Y034221D03*
D18*
X003463Y009161D03*
X004565Y009161D03*
X004565Y010161D03*
X003463Y010161D03*
X003463Y011161D03*
X004565Y011161D03*
X003565Y015161D03*
X002463Y015161D03*
X002463Y016161D03*
X003565Y016161D03*
X003565Y020161D03*
X002463Y020161D03*
X002463Y021661D03*
X003565Y021661D03*
D19*
X003514Y023610D03*
X004514Y023610D03*
X004514Y024712D03*
X003514Y024712D03*
X012514Y021212D03*
X013514Y021212D03*
X013514Y020110D03*
X012514Y020110D03*
X018514Y020110D03*
X019514Y020110D03*
X019514Y021212D03*
X018514Y021212D03*
X024514Y021212D03*
X025514Y021212D03*
X025514Y020110D03*
X024514Y020110D03*
X030514Y020110D03*
X031514Y020110D03*
X031514Y021212D03*
X030514Y021212D03*
X036514Y021212D03*
X037514Y021212D03*
X037514Y020110D03*
X036514Y020110D03*
X042514Y020110D03*
X043514Y020110D03*
X043514Y021212D03*
X042514Y021212D03*
X048514Y021212D03*
X049514Y021212D03*
X049514Y020110D03*
X048514Y020110D03*
X054514Y020110D03*
X055514Y020110D03*
X055514Y021212D03*
X054514Y021212D03*
X009514Y031110D03*
X009514Y032212D03*
D20*
X009514Y030106D03*
X009514Y028216D03*
D21*
X014514Y002661D03*
X020514Y002661D03*
X026514Y002661D03*
X032514Y002661D03*
X038514Y002661D03*
X044514Y002661D03*
X050514Y002661D03*
X056514Y002661D03*
D22*
X056514Y015161D03*
X055514Y015161D03*
X054514Y015161D03*
X050514Y015161D03*
X049514Y015161D03*
X048514Y015161D03*
X044514Y015161D03*
X043514Y015161D03*
X042514Y015161D03*
X038514Y015161D03*
X037514Y015161D03*
X036514Y015161D03*
X032514Y015161D03*
X031514Y015161D03*
X030514Y015161D03*
X026514Y015161D03*
X025514Y015161D03*
X024514Y015161D03*
X020514Y015161D03*
X019514Y015161D03*
X018514Y015161D03*
X014514Y015161D03*
X013514Y015161D03*
X012514Y015161D03*
X012514Y018161D03*
X013514Y018161D03*
X014514Y018161D03*
X018514Y018161D03*
X019514Y018161D03*
X020514Y018161D03*
X024514Y018161D03*
X025514Y018161D03*
X026514Y018161D03*
X030514Y018161D03*
X031514Y018161D03*
X032514Y018161D03*
X036514Y018161D03*
X037514Y018161D03*
X038514Y018161D03*
X042514Y018161D03*
X043514Y018161D03*
X044514Y018161D03*
X048514Y018161D03*
X049514Y018161D03*
X050514Y018161D03*
X054514Y018161D03*
X055514Y018161D03*
X056514Y018161D03*
D23*
X032514Y027161D03*
X011514Y019161D03*
X009514Y027161D03*
X002514Y029161D03*
D24*
X007014Y025161D03*
X006514Y024661D03*
X005514Y023661D03*
X006014Y023161D03*
X008014Y023161D03*
X004514Y021661D03*
X003514Y022661D03*
X003514Y019161D03*
X007514Y019161D03*
X010514Y020161D03*
X012514Y022161D03*
X018514Y022161D03*
X024514Y022161D03*
X030514Y022161D03*
X036514Y022161D03*
X042514Y022161D03*
X048514Y022161D03*
X054514Y022161D03*
X010514Y016161D03*
X002514Y013161D03*
M02*
