%FSLAX42Y42*%
%MOMM*%
G71*
G01*
G75*
G04 Layer_Physical_Order=1*
%ADD10C,12.00*%
%ADD11C,10.00*%
%ADD12C,0.25*%
%ADD13C,2.50*%
%ADD14C,7.00*%
D10*
X13348Y6020D02*
D03*
X11443D02*
D03*
D11*
X6731Y5740D02*
D03*
D12*
X5067Y8928D02*
X14173D01*
Y3518D02*
Y8928D01*
X5055Y3518D02*
X14173D01*
X5055D02*
X5067Y3531D01*
Y8928D01*
D13*
X13208Y7366D02*
D03*
X12954Y7620D02*
D03*
X13208Y7874D02*
D03*
X12954Y8128D02*
D03*
X13208Y8382D02*
D03*
X12687Y7366D02*
D03*
X12179D02*
D03*
X11671Y7379D02*
D03*
X11163Y7366D02*
D03*
X12433Y7620D02*
D03*
X11925D02*
D03*
X11417D02*
D03*
X10922D02*
D03*
X12687Y7874D02*
D03*
X12179D02*
D03*
X11671D02*
D03*
X11163D02*
D03*
X12433Y8128D02*
D03*
X11925D02*
D03*
X11417D02*
D03*
X10909D02*
D03*
X12687Y8382D02*
D03*
X12179D02*
D03*
X11671D02*
D03*
X11163D02*
D03*
X8382Y7620D02*
D03*
Y8128D02*
D03*
X10668Y7366D02*
D03*
X10160D02*
D03*
X9652Y7379D02*
D03*
X9144Y7366D02*
D03*
X8636D02*
D03*
X10414Y7620D02*
D03*
X9906D02*
D03*
X9398D02*
D03*
X8903D02*
D03*
X10668Y7874D02*
D03*
X10160D02*
D03*
X9652D02*
D03*
X9144D02*
D03*
X8636D02*
D03*
X10414Y8128D02*
D03*
X9906D02*
D03*
X9398D02*
D03*
X8890D02*
D03*
X10668Y8382D02*
D03*
X10160D02*
D03*
X9652D02*
D03*
X9144D02*
D03*
X8636D02*
D03*
X8128Y7366D02*
D03*
X7620D02*
D03*
X7112Y7379D02*
D03*
X6604Y7366D02*
D03*
X6096D02*
D03*
X7874Y7620D02*
D03*
X7366D02*
D03*
X6858D02*
D03*
X6363D02*
D03*
X8128Y7874D02*
D03*
X7620D02*
D03*
X7112D02*
D03*
X6604D02*
D03*
X6096D02*
D03*
X7874Y8128D02*
D03*
X7366D02*
D03*
X6858D02*
D03*
X6350D02*
D03*
X8128Y8382D02*
D03*
X7620D02*
D03*
X7112D02*
D03*
X6604D02*
D03*
X6096D02*
D03*
D14*
X13856Y7899D02*
D03*
X5385Y7899D02*
D03*
M02*
