%FSLAX42Y42*%
%MOMM*%
G71*
G01*
G75*
G04 Layer_Physical_Order=1*
%ADD10C,1.52*%
%ADD11C,1.50*%
%ADD12C,2.00*%
%ADD13C,1.70*%
%ADD14C,1.20*%
%ADD15C,0.40*%
%ADD16C,0.25*%
%ADD17C,2.00*%
%ADD18O,2.52X3.52*%
%ADD19C,3.00*%
%ADD20C,2.10*%
%ADD21R,2.10X2.10*%
%ADD22O,3.00X2.00*%
%ADD23R,3.00X2.00*%
%ADD24R,1.80X1.80*%
%ADD25R,2.00X2.00*%
%ADD26R,1.85X3.00*%
%ADD27O,2.00X3.00*%
%ADD28O,2.50X2.00*%
%ADD29O,4.00X5.00*%
%ADD30R,4.00X4.00*%
%ADD31O,5.00X4.00*%
%ADD32R,2.00X3.00*%
%ADD33R,3.00X3.00*%
%ADD34O,1.85X3.00*%
%ADD35R,1.25X1.25*%
%ADD36C,1.35*%
%ADD37C,4.00*%
%ADD38C,2.20*%
%ADD39C,1.00*%
%ADD40R,1.00X1.00*%
%ADD41O,2.20X2.30*%
%ADD42C,1.20*%
D10*
X3797Y12192D02*
D03*
X3670Y12040D02*
D03*
X3340Y11773D02*
D03*
D11*
X6934Y7137D02*
Y7404D01*
X5675Y9195D02*
X6462D01*
X6469Y7851D02*
X6934Y7404D01*
X10584Y4211D02*
Y4272D01*
X8920Y4211D02*
X10584D01*
Y4272D02*
X11158Y4846D01*
X10861Y5423D02*
X11486D01*
X12662Y4496D02*
Y4958D01*
X7409Y4315D02*
X7869D01*
X8042Y5641D02*
X8288D01*
X7917Y5517D02*
X8042Y5641D01*
X7145Y5517D02*
X7917D01*
X6960Y5702D02*
X7145Y5517D01*
X6718Y9195D02*
X6721D01*
X6718Y7932D02*
Y9195D01*
X8166Y4813D02*
X8405Y5052D01*
X7506Y4559D02*
Y4714D01*
X8395Y5428D02*
X8473Y5507D01*
X6502Y5702D02*
X6848Y5357D01*
X10010Y7711D02*
X11079D01*
X10610Y9977D02*
X11455Y9131D01*
X7770Y9528D02*
X9030D01*
X8603Y9243D02*
X9568D01*
X10178Y7295D02*
X10391Y7508D01*
X8372Y8405D02*
X11824D01*
X7917Y7628D02*
X8288Y7998D01*
X5979Y9703D02*
X6528D01*
X5639Y10008D02*
X5674D01*
X5364D02*
X5639D01*
X4572Y10439D02*
X5144D01*
X11201Y4465D02*
Y4508D01*
X11034Y4298D02*
X11201Y4465D01*
X6375Y7066D02*
Y7214D01*
X5067Y7010D02*
Y7153D01*
Y6960D02*
Y7010D01*
X9014Y11328D02*
X9538D01*
X8560Y11783D02*
Y11963D01*
X9792Y11328D02*
Y11582D01*
X9119Y11704D02*
Y11963D01*
X10274Y10935D02*
X10490Y11151D01*
X10084Y11704D02*
Y11963D01*
X7605Y4813D02*
X8166D01*
X7506Y4714D02*
X7605Y4813D01*
X7625Y9713D02*
X8720D01*
X9030Y9528D02*
X9479Y9977D01*
X10610D01*
X10391Y7508D02*
X11364D01*
X11347Y7348D02*
X11481D01*
X11335Y7336D02*
X11347Y7348D01*
X10648Y7336D02*
X11335D01*
X10604Y7292D02*
X10648Y7336D01*
X7038Y9246D02*
X7112Y9319D01*
X8288Y7998D02*
Y8321D01*
X8372Y8405D01*
X8628Y11455D02*
X8946Y11138D01*
X9817D01*
X9901Y11054D01*
Y10846D02*
Y11054D01*
Y10846D02*
X9997Y10749D01*
X9639Y4534D02*
X9754Y4432D01*
X9528Y10363D02*
X11006D01*
X5144Y10439D02*
X5260Y10323D01*
Y10112D02*
Y10323D01*
Y10112D02*
X5364Y10008D01*
X5674D02*
X5979Y9703D01*
X10490Y11151D02*
Y11516D01*
X10404Y11603D02*
X10490Y11516D01*
X10185Y11603D02*
X10404D01*
X10084Y11704D02*
X10185Y11603D01*
X9751Y11623D02*
X9792Y11582D01*
X9200Y11623D02*
X9751D01*
X9119Y11704D02*
X9200Y11623D01*
X8560Y11783D02*
X9014Y11328D01*
X8090Y5428D02*
X8395D01*
X8019Y5357D02*
X8090Y5428D01*
X6848Y5357D02*
X8019D01*
X6259Y6949D02*
X6375Y7066D01*
X5913Y6949D02*
X6259D01*
X5629Y7234D02*
X5913Y6949D01*
X5149Y7234D02*
X5629D01*
X5067Y7153D02*
X5149Y7234D01*
X11486Y5423D02*
X11702Y5207D01*
X12413D01*
X12662Y4958D01*
X10023Y7318D02*
X10155D01*
X7272Y7262D02*
X7341D01*
X7120Y7414D02*
X7272Y7262D01*
X7120Y7414D02*
Y7531D01*
X6718Y7932D02*
X7120Y7531D01*
X6462Y9195D02*
X6469Y9187D01*
Y7851D02*
Y9187D01*
X8763Y4369D02*
X8920Y4211D01*
X7417Y7137D02*
X7531Y7023D01*
X8090D01*
X7341Y7137D02*
Y7262D01*
Y7137D02*
X7417D01*
X11938Y6655D02*
X12413Y7130D01*
X9843Y6655D02*
X11938D01*
X9817Y6629D02*
X9843Y6655D01*
X8090Y7023D02*
X8484Y6629D01*
X9817D01*
X12413Y7130D02*
Y7648D01*
X10460Y4427D02*
X10935Y4902D01*
Y4991D01*
X11062Y5118D01*
X11430D01*
X11709Y4839D01*
X9639Y4534D02*
Y5601D01*
X11709Y4508D02*
Y4839D01*
X9754Y4432D02*
X10460Y4427D01*
X9520Y10356D02*
X9528Y10363D01*
X11006D02*
X11039Y10396D01*
X9881Y4712D02*
Y5347D01*
X4572Y11659D02*
X4695Y11782D01*
X5385D01*
X6236Y10528D02*
X6396Y10688D01*
X6924D02*
X7775D01*
X6236Y9995D02*
Y10528D01*
X6396Y10688D02*
X6883D01*
X12695Y5982D02*
X14159D01*
X3734Y7607D02*
Y7620D01*
X6152Y4300D02*
X6299Y4153D01*
X7239D01*
X7391Y4001D01*
X8179D01*
X6152Y4300D02*
Y4356D01*
X8179Y4001D02*
X8344Y4166D01*
Y4585D01*
X9997Y10749D02*
X11638D01*
X12395Y6281D02*
X12695Y5982D01*
X14159D02*
X14400Y5740D01*
X11638Y10749D02*
X11755Y10632D01*
X6434Y11455D02*
X8628D01*
X9893Y6845D02*
X10465D01*
X10604Y6985D01*
Y7099D01*
Y7292D01*
X11481Y7348D02*
X11709Y7577D01*
X8763Y4369D02*
Y5639D01*
X11158Y4846D02*
X11219D01*
X9591Y7750D02*
X10023Y7318D01*
X10198Y7099D02*
Y7275D01*
X11364Y7508D02*
X11455Y7600D01*
X10155Y7318D02*
X10198Y7275D01*
X9423Y7506D02*
X9715Y7214D01*
X8179Y7506D02*
X9423D01*
X9715Y7023D02*
X9893Y6845D01*
X9715Y7023D02*
Y7214D01*
X7112Y9319D02*
X8156D01*
X7038Y8420D02*
Y9246D01*
X8156Y9319D02*
X8357Y9119D01*
X7417Y9505D02*
X7625Y9713D01*
X8720D02*
X8860Y9853D01*
D12*
X3371Y10254D02*
Y10913D01*
X3289Y9728D02*
X3371Y9647D01*
X3289Y9728D02*
Y10173D01*
X3371Y10254D01*
X12598Y5423D02*
Y5740D01*
X12769Y5423D02*
X12908Y5283D01*
X13005Y5011D02*
X14183D01*
X14224Y5052D01*
X3708Y9042D02*
X4201D01*
X4724Y9565D01*
X4455Y8788D02*
X4724Y8519D01*
X3035Y4293D02*
X3696Y3772D01*
X14986D01*
X15240Y4013D01*
X3734Y7607D02*
X4001Y7341D01*
Y6693D02*
Y7341D01*
X3035Y4293D02*
Y5728D01*
X4001Y6693D01*
X15240Y4013D02*
Y6007D01*
X8580Y4082D02*
X8661Y4001D01*
X12814D01*
X12908Y4094D01*
Y5108D02*
X13005Y5011D01*
X12598Y5423D02*
X12769D01*
X14224Y5052D02*
Y5334D01*
X12908Y4094D02*
Y5283D01*
X3371Y8849D02*
Y9647D01*
Y8849D02*
X3432Y8788D01*
X3371Y10913D02*
X3607Y11149D01*
X3432Y8788D02*
X4455D01*
D13*
X4166Y10503D02*
X4356Y10693D01*
X5075Y8832D02*
X6655Y7328D01*
X6828Y6812D02*
X7965D01*
X8357Y6337D02*
X10198D01*
X6939Y6848D02*
X6975Y6812D01*
X6655Y6985D02*
X6828Y6812D01*
X7965D02*
X8440Y6337D01*
X7882Y6812D02*
X8357Y6337D01*
X6655Y6985D02*
Y7328D01*
X11161Y11786D02*
X11313D01*
X10686Y11333D02*
X11149Y11797D01*
X5207Y4572D02*
Y4915D01*
X3315Y5537D02*
X3518Y5740D01*
X4381D01*
X5207Y4915D01*
X11313Y11789D02*
Y11803D01*
X10879Y12238D02*
X11313Y11803D01*
X4587Y7010D02*
X5067D01*
X12680Y11278D02*
X13056D01*
X12359Y11786D02*
X12512D01*
X11720Y10109D02*
X13056D01*
X11263Y9652D02*
X11720Y10109D01*
X11149Y11797D02*
X11161Y11786D01*
X11405Y6337D02*
Y6350D01*
X11011Y6327D02*
Y6337D01*
Y6327D02*
X11394D01*
X10604Y6337D02*
X11011D01*
X10198D02*
X10604D01*
X6934Y6375D02*
X7341D01*
X7719Y6060D02*
X7823Y5956D01*
X7315D02*
X7419Y6060D01*
X6947Y5067D02*
X7506D01*
Y5055D02*
X8039D01*
X6960Y5956D02*
X7315D01*
X7419Y6060D02*
X7719D01*
X6789Y12192D02*
X6835Y12238D01*
X6789Y11801D02*
Y12192D01*
X11394Y6327D02*
X11405Y6337D01*
X12512Y11786D02*
X12593Y11704D01*
Y11364D02*
Y11704D01*
Y11364D02*
X12680Y11278D01*
X5075Y8832D02*
Y10020D01*
X6629Y11641D02*
X6789Y11801D01*
X8334Y11791D02*
Y12210D01*
X8306Y12238D02*
X8334Y12210D01*
X6835Y12238D02*
X10879D01*
X5639Y10795D02*
X6020Y11176D01*
Y11951D01*
X6215Y12146D01*
X4166Y10043D02*
Y10503D01*
X5461Y10693D02*
X5639Y10516D01*
Y10795D01*
X6215Y12146D02*
X6482D01*
X4356Y10693D02*
X5461D01*
X12929Y7734D02*
X13325Y7338D01*
Y6302D02*
Y7338D01*
X12713Y7734D02*
X12929D01*
X7424Y7460D02*
X7620Y7264D01*
X8001D01*
X7417Y7460D02*
X7424D01*
X8369Y5880D02*
X8522D01*
X7836Y6414D02*
X8369Y5880D01*
X8522D02*
X8763Y5639D01*
X8560Y7912D02*
X8722Y7750D01*
X8560Y7912D02*
Y8090D01*
X8722Y7750D02*
X9591D01*
X8860Y10396D02*
X9017Y10554D01*
X8860Y9853D02*
Y10396D01*
X9017Y10554D02*
X10604D01*
X6172Y5842D02*
X6287Y5956D01*
X6388Y5067D02*
X6947D01*
X6172Y5258D02*
X6388Y5067D01*
X5686Y5639D02*
X6172D01*
Y5258D02*
Y5842D01*
X6287Y5956D02*
X6960D01*
X15621Y3556D02*
Y8306D01*
X14643D02*
X15621D01*
X14643Y12585D02*
X14643Y8306D01*
X2819Y12586D02*
X14643Y12585D01*
X2819Y3556D02*
Y12586D01*
Y3556D02*
X15621D01*
D14*
X11455Y10516D02*
X11532D01*
X10274Y10173D02*
X10833D01*
X9715D02*
X10274D01*
X9157D02*
X9715D01*
X12598Y5740D02*
X12611D01*
X8072Y10749D02*
X9517D01*
X8057Y10734D02*
X8072Y10749D01*
X7506Y5055D02*
Y5067D01*
X8504Y5281D02*
X8580Y5204D01*
X8382Y5281D02*
X8504D01*
X8311Y5210D02*
X8382Y5281D01*
X8039Y5055D02*
Y5210D01*
X8311D01*
X8580Y4082D02*
Y5204D01*
X10833Y10173D02*
X11430D01*
X11532Y10274D01*
Y10516D01*
D15*
X3797Y11709D02*
Y12192D01*
X3670Y11709D02*
Y12040D01*
X3340Y11773D02*
X3874D01*
X3213Y11646D02*
X3937D01*
Y12306D01*
X3213D02*
X3937D01*
X3213Y11646D02*
Y12306D01*
D16*
X12446Y12281D02*
X12471Y12306D01*
X12522D01*
X12548Y12281D01*
Y12255D01*
X12522Y12230D01*
X12471D01*
X12446Y12205D01*
Y12179D01*
X12471Y12154D01*
X12522D01*
X12548Y12179D01*
X12395Y12154D02*
Y12306D01*
X12319D01*
X12294Y12281D01*
Y12230D01*
X12319Y12205D01*
X12395D01*
X12243Y12306D02*
Y12154D01*
X12167D01*
X12141Y12179D01*
Y12205D01*
X12167Y12230D01*
X12243D01*
X12167D01*
X12141Y12255D01*
Y12281D01*
X12167Y12306D01*
X12243D01*
X12091Y12154D02*
Y12306D01*
X12040Y12255D01*
X11989Y12306D01*
Y12154D01*
X11938Y12281D02*
X11913Y12306D01*
X11862D01*
X11837Y12281D01*
Y12179D01*
X11862Y12154D01*
X11913D01*
X11938Y12179D01*
Y12281D01*
X11786D02*
X11760Y12306D01*
X11710D01*
X11684Y12281D01*
Y12179D01*
X11710Y12154D01*
X11760D01*
X11786Y12179D01*
Y12281D01*
X11633Y12154D02*
X11583D01*
X11608D01*
Y12306D01*
X11633Y12281D01*
X7887Y12370D02*
Y12522D01*
X7811D01*
X7785Y12497D01*
Y12446D01*
X7811Y12421D01*
X7887D01*
X7734Y12370D02*
Y12522D01*
X7658D01*
X7633Y12497D01*
Y12446D01*
X7658Y12421D01*
X7734D01*
X7684D02*
X7633Y12370D01*
X7506Y12522D02*
X7557D01*
X7582Y12497D01*
Y12395D01*
X7557Y12370D01*
X7506D01*
X7480Y12395D01*
Y12497D01*
X7506Y12522D01*
X7430D02*
Y12370D01*
X7353D01*
X7328Y12395D01*
Y12421D01*
X7353Y12446D01*
X7430D01*
X7353D01*
X7328Y12471D01*
Y12497D01*
X7353Y12522D01*
X7430D01*
X7176D02*
X7277D01*
Y12370D01*
X7176D01*
X7277Y12446D02*
X7227D01*
X7023Y12497D02*
X7049Y12522D01*
X7100D01*
X7125Y12497D01*
Y12471D01*
X7100Y12446D01*
X7049D01*
X7023Y12421D01*
Y12395D01*
X7049Y12370D01*
X7100D01*
X7125Y12395D01*
X14884Y4051D02*
X14783D01*
X14580Y4127D02*
X14529D01*
X14554D01*
Y3975D01*
X14580D01*
X14529D01*
X14453D02*
Y4127D01*
X14351Y3975D01*
Y4127D01*
X14300Y3975D02*
Y4127D01*
X14224D01*
X14199Y4102D01*
Y4051D01*
X14224Y4026D01*
X14300D01*
X14148Y4127D02*
Y4000D01*
X14123Y3975D01*
X14072D01*
X14046Y4000D01*
Y4127D01*
X13996D02*
X13894D01*
X13945D01*
Y3975D01*
X13691Y4051D02*
X13589D01*
X13640Y4102D02*
Y4000D01*
X5499Y12243D02*
X5525Y12268D01*
X5575D01*
X5601Y12243D01*
Y12217D01*
X5575Y12192D01*
X5525D01*
X5499Y12167D01*
Y12141D01*
X5525Y12116D01*
X5575D01*
X5601Y12141D01*
X5448Y12268D02*
X5398D01*
X5423D01*
Y12116D01*
X5448D01*
X5398D01*
X5321Y12268D02*
Y12116D01*
X5220D01*
X5169Y12268D02*
Y12167D01*
X5118Y12116D01*
X5067Y12167D01*
Y12268D01*
X4915D02*
X5017D01*
Y12116D01*
X4915D01*
X5017Y12192D02*
X4966D01*
X4864Y12116D02*
Y12268D01*
X4788D01*
X4763Y12243D01*
Y12192D01*
X4788Y12167D01*
X4864D01*
X4814D02*
X4763Y12116D01*
X4610Y12268D02*
X4712D01*
Y12192D01*
X4661D01*
X4712D01*
Y12116D01*
X4483Y12268D02*
X4534D01*
X4560Y12243D01*
Y12141D01*
X4534Y12116D01*
X4483D01*
X4458Y12141D01*
Y12243D01*
X4483Y12268D01*
X4407D02*
Y12116D01*
X4306D01*
X4255Y12268D02*
Y12116D01*
Y12167D01*
X4153Y12268D01*
X4230Y12192D01*
X4153Y12116D01*
D17*
X5207Y4572D02*
D03*
X3315Y5537D02*
D03*
X10693Y8052D02*
D03*
X10185Y8814D02*
D03*
X8153Y10338D02*
D03*
X7899D02*
D03*
X7645D02*
D03*
X7391D02*
D03*
X7137D02*
D03*
X6883D02*
D03*
X6629D02*
D03*
X8407Y11100D02*
D03*
X8153D02*
D03*
X7645D02*
D03*
X7391D02*
D03*
X6883D02*
D03*
X7137D02*
D03*
X7899D02*
D03*
X6629D02*
D03*
X8915Y8814D02*
D03*
X9169D02*
D03*
X9423D02*
D03*
X9677D02*
D03*
X9931D02*
D03*
X10693D02*
D03*
X11201D02*
D03*
X11455D02*
D03*
X11709D02*
D03*
X11963D02*
D03*
X12217D02*
D03*
X8915Y8052D02*
D03*
X9931D02*
D03*
X10185D02*
D03*
X10439D02*
D03*
X10947D02*
D03*
X11963D02*
D03*
X11709D02*
D03*
X11455D02*
D03*
X11201D02*
D03*
X9677D02*
D03*
X9423D02*
D03*
X9169D02*
D03*
X9309Y5347D02*
D03*
X10833Y10935D02*
D03*
Y10173D02*
D03*
X10274D02*
D03*
Y10935D02*
D03*
X9715Y10173D02*
D03*
Y10935D02*
D03*
X9157Y10173D02*
D03*
Y10935D02*
D03*
X14224Y5334D02*
D03*
X10439Y8814D02*
D03*
X5385Y11782D02*
D03*
X7823Y5956D02*
D03*
Y5702D02*
D03*
X7315Y5956D02*
D03*
Y5702D02*
D03*
X6960Y5956D02*
D03*
Y5702D02*
D03*
X6502Y5956D02*
D03*
Y5702D02*
D03*
X6121Y7214D02*
D03*
X6375D02*
D03*
X10947Y8814D02*
D03*
X9804Y9233D02*
D03*
X11379Y11028D02*
D03*
X9804Y9741D02*
D03*
X11392Y11519D02*
D03*
X8405Y5052D02*
D03*
X10604Y10554D02*
D03*
X7417Y9505D02*
D03*
X7770Y9528D02*
D03*
X11455Y9131D02*
D03*
Y7600D02*
D03*
X11709Y7577D02*
D03*
X8357Y9119D02*
D03*
X7038Y8420D02*
D03*
X7917Y7628D02*
D03*
X11824Y8405D02*
D03*
X7417Y7460D02*
D03*
X8001Y7264D02*
D03*
X11219Y4846D02*
D03*
X7836Y6414D02*
D03*
X7775Y10688D02*
D03*
X6236Y9995D02*
D03*
X6883Y10688D02*
D03*
X8153Y11455D02*
D03*
X11755Y10632D02*
D03*
X12713Y7734D02*
D03*
X13325Y6302D02*
D03*
X9639Y5601D02*
D03*
X10686Y11333D02*
D03*
X12395Y6281D02*
D03*
X9520Y10356D02*
D03*
X11039Y10396D02*
D03*
X6490Y12146D02*
D03*
X5075Y10020D02*
D03*
X11079Y7711D02*
D03*
X10010D02*
D03*
X9568Y9243D02*
D03*
X8603D02*
D03*
X9517Y10749D02*
D03*
X8057Y10734D02*
D03*
X8288Y5641D02*
D03*
X8473Y5507D02*
D03*
X8334Y11791D02*
D03*
X6629Y11641D02*
D03*
X8179Y7506D02*
D03*
X12413Y7648D02*
D03*
X6939Y6848D02*
D03*
X11034Y4298D02*
D03*
X9881Y4712D02*
D03*
Y5347D02*
D03*
X10861Y5423D02*
D03*
X6434Y11455D02*
D03*
X8560Y8090D02*
D03*
X6152Y4356D02*
D03*
X8344Y4585D02*
D03*
X7409Y4315D02*
D03*
X7869D02*
D03*
D18*
X4305Y4953D02*
D03*
X3315Y4940D02*
D03*
X3810D02*
D03*
D19*
X19698Y-1384D02*
D03*
X20206D02*
D03*
X13259Y4354D02*
D03*
X13235Y5740D02*
D03*
X3607Y9984D02*
D03*
X12802Y6483D02*
D03*
X14478D02*
D03*
X13614Y7905D02*
D03*
X7188Y11900D02*
D03*
X7696D02*
D03*
X15240Y6007D02*
D03*
D20*
X10300Y11328D02*
D03*
X10046D02*
D03*
X9792D02*
D03*
X9322Y7023D02*
D03*
X9068D02*
D03*
X8814D02*
D03*
X9309Y5601D02*
D03*
Y5093D02*
D03*
Y4839D02*
D03*
X9055Y4585D02*
D03*
X9309D02*
D03*
X7417Y7976D02*
D03*
X7671Y8230D02*
D03*
X7417D02*
D03*
X7671Y8484D02*
D03*
X7417D02*
D03*
X7671Y8738D02*
D03*
X7417D02*
D03*
X7671Y8992D02*
D03*
X7417D02*
D03*
X9055Y5347D02*
D03*
Y5093D02*
D03*
Y4839D02*
D03*
X4572Y11405D02*
D03*
Y11659D02*
D03*
Y10693D02*
D03*
Y10439D02*
D03*
X11532Y10516D02*
D03*
D21*
X9538Y11328D02*
D03*
X8560Y7023D02*
D03*
X7671Y7976D02*
D03*
X9055Y5601D02*
D03*
D22*
X13056Y11786D02*
D03*
Y11532D02*
D03*
X11836Y5423D02*
D03*
X12598D02*
D03*
X11849Y5740D02*
D03*
X12611D02*
D03*
X5512Y6604D02*
D03*
X4750D02*
D03*
X6528Y9703D02*
D03*
X7290D02*
D03*
X4496Y7620D02*
D03*
X3541Y7010D02*
D03*
X11313Y11786D02*
D03*
X3708Y8788D02*
D03*
X5675Y9195D02*
D03*
X5639Y10262D02*
D03*
Y10516D02*
D03*
X3734Y7620D02*
D03*
X4674Y4572D02*
D03*
Y4318D02*
D03*
X5588Y4572D02*
D03*
Y4318D02*
D03*
X3708Y9042D02*
D03*
X10363Y5702D02*
D03*
X13056Y10109D02*
D03*
Y9855D02*
D03*
D23*
Y11278D02*
D03*
X10363Y5017D02*
D03*
X4587Y7010D02*
D03*
X12359Y11786D02*
D03*
X3708Y8534D02*
D03*
X5639Y10008D02*
D03*
X6721Y9195D02*
D03*
X4674Y4826D02*
D03*
X5588D02*
D03*
X13056Y9601D02*
D03*
D24*
X8407Y10338D02*
D03*
D25*
X12217Y8052D02*
D03*
X13970Y5334D02*
D03*
X5385Y11282D02*
D03*
X12309Y9652D02*
D03*
D26*
X8039Y5055D02*
D03*
X7506Y5067D02*
D03*
X6947D02*
D03*
X6388D02*
D03*
D27*
X10198Y6337D02*
D03*
Y7099D02*
D03*
X10604Y6337D02*
D03*
Y7099D02*
D03*
X11011Y6337D02*
D03*
Y7099D02*
D03*
X11405Y6350D02*
D03*
Y7112D02*
D03*
X7341Y6375D02*
D03*
X6934Y7137D02*
D03*
Y6375D02*
D03*
X5486Y6985D02*
D03*
Y7747D02*
D03*
X5067Y7722D02*
D03*
Y6960D02*
D03*
X12154Y4496D02*
D03*
X12408D02*
D03*
X12662D02*
D03*
X12408D02*
D03*
X11201Y4508D02*
D03*
X11455D02*
D03*
X11709D02*
D03*
X11455D02*
D03*
X4724Y8519D02*
D03*
X10414Y9699D02*
D03*
X12141Y10520D02*
D03*
X8560Y11963D02*
D03*
X8814D02*
D03*
X9119D02*
D03*
X9373D02*
D03*
X9830D02*
D03*
X10084D02*
D03*
X10490D02*
D03*
X10744D02*
D03*
X7341Y7137D02*
D03*
D28*
X10363Y5271D02*
D03*
D29*
X4166Y10043D02*
D03*
D30*
Y11089D02*
D03*
X5186Y5639D02*
D03*
D31*
X5686D02*
D03*
D32*
X12141Y11020D02*
D03*
X10414Y9199D02*
D03*
X4724Y9565D02*
D03*
D33*
X13259Y5400D02*
D03*
X3607Y11149D02*
D03*
X12802Y7233D02*
D03*
X14478Y7233D02*
D03*
X13614Y8655D02*
D03*
X14400Y5740D02*
D03*
D34*
X6388Y4559D02*
D03*
X6947D02*
D03*
X7506D02*
D03*
X8039Y4547D02*
D03*
D35*
X11379Y11028D02*
D03*
D36*
Y11528D02*
D03*
D37*
X13970Y4648D02*
D03*
X14478D02*
D03*
D38*
X11263Y9652D02*
D03*
D39*
X11455Y10516D02*
D03*
D40*
X11328D02*
D03*
D41*
X11252D02*
D03*
D42*
X9804Y9741D02*
D03*
Y9233D02*
D03*
M02*
