%FSLAX42Y42*%
%MOMM*%
G71*
G01*
G75*
G04 Layer_Physical_Order=2*
%ADD10C,7.60*%
%ADD11C,1.50*%
%ADD12C,0.25*%
%ADD13C,4.60*%
%ADD14O,2.00X3.00*%
%ADD15C,2.00*%
%ADD16C,3.00*%
%ADD17C,3.50*%
D10*
X8890Y9436D02*
D03*
X5080D02*
D03*
X6350D02*
D03*
X7620D02*
D03*
D11*
X4648Y8306D02*
Y9436D01*
X5499Y8280D02*
Y9436D01*
X4648Y8306D02*
X4826Y8128D01*
X5347D02*
X5499Y8280D01*
X5918Y8306D02*
Y9423D01*
Y8306D02*
X6096Y8128D01*
X6604D02*
X6769Y8293D01*
Y9436D01*
X7201Y8306D02*
X7379Y8128D01*
X7201Y8306D02*
Y9436D01*
X7874Y8128D02*
X8052Y8306D01*
Y9436D01*
X8471Y8293D02*
Y9436D01*
Y8293D02*
X8636Y8128D01*
X9157Y8141D02*
X9322Y8306D01*
Y9423D01*
X8509Y10262D02*
X9296D01*
X9423Y10135D01*
X8255Y10046D02*
Y10262D01*
Y10046D02*
X8395Y9906D01*
X9538D01*
X9690Y10058D01*
Y10135D01*
X7239Y10262D02*
X7544D01*
X7938Y10655D01*
X9766D01*
X9931Y10503D01*
Y10135D02*
Y10503D01*
X6985Y10262D02*
Y10554D01*
X7315Y10871D01*
X9931D01*
X10185Y10643D01*
Y10135D02*
Y10643D01*
X5969Y10262D02*
X6274D01*
X7099Y11074D01*
X10185D01*
X10439Y10846D01*
Y10135D02*
Y10846D01*
X5715Y10262D02*
Y10681D01*
X6312Y11278D01*
X10325D01*
X10693Y10909D01*
Y10135D02*
Y10909D01*
X4699Y9969D02*
Y10262D01*
X4305Y9576D02*
X4699Y9969D01*
X4305Y8141D02*
Y9576D01*
Y8141D02*
X4559Y7887D01*
X9461D01*
X10947Y9373D01*
Y10135D01*
X3950Y9779D02*
X4432Y10262D01*
X3950Y8026D02*
Y9779D01*
Y8026D02*
X4356Y7620D01*
X9652D01*
X11201Y9169D01*
Y10135D01*
X11938Y9576D02*
Y10211D01*
X9159Y6797D02*
X11938Y9576D01*
X12192Y9461D02*
Y10211D01*
X9324Y6593D02*
X12192Y9461D01*
X12446Y9360D02*
Y10211D01*
X9433Y6346D02*
X12446Y9360D01*
X12700Y9233D02*
Y10211D01*
X9601Y6134D02*
X12700Y9233D01*
X12954Y9055D02*
Y10211D01*
X9820Y5921D02*
X12954Y9055D01*
X13208Y8839D02*
Y10211D01*
X10072Y5704D02*
X13208Y8839D01*
X3810Y4572D02*
Y6540D01*
X4066Y6797D01*
X9159D01*
X4064Y4572D02*
Y6337D01*
X4320Y6593D01*
X9324D01*
X4318Y4572D02*
Y6172D01*
X4492Y6346D01*
X9433D01*
X4839Y4572D02*
Y5982D01*
X4991Y6134D01*
X9601D01*
X5080Y4572D02*
Y5842D01*
X5159Y5921D01*
X9820D01*
X5334Y4572D02*
Y5626D01*
X5412Y5704D01*
X10072D01*
D12*
X4432Y10262D02*
X4445D01*
X8877Y8446D02*
X8890Y8458D01*
X5524Y9893D02*
Y10046D01*
X5474Y9995D01*
X5423Y10046D01*
Y9893D01*
X5296Y10046D02*
X5347D01*
X5372Y10020D01*
Y9919D01*
X5347Y9893D01*
X5296D01*
X5271Y9919D01*
Y10020D01*
X5296Y10046D01*
X5220D02*
Y9893D01*
X5144D01*
X5118Y9919D01*
Y10020D01*
X5144Y10046D01*
X5220D01*
X4966D02*
X5067D01*
Y9893D01*
X4966D01*
X5067Y9969D02*
X5017D01*
X6591Y10020D02*
X6617Y10046D01*
X6668D01*
X6693Y10020D01*
Y9995D01*
X6668Y9969D01*
X6617D01*
X6591Y9944D01*
Y9919D01*
X6617Y9893D01*
X6668D01*
X6693Y9919D01*
X6541Y10046D02*
X6439D01*
X6490D01*
Y9893D01*
X6388D02*
Y9995D01*
X6337Y10046D01*
X6287Y9995D01*
Y9893D01*
Y9969D01*
X6388D01*
X6236Y9893D02*
Y10046D01*
X6160D01*
X6134Y10020D01*
Y9969D01*
X6160Y9944D01*
X6236D01*
X6185D02*
X6134Y9893D01*
X6083Y10046D02*
X5982D01*
X6033D01*
Y9893D01*
X7874Y10020D02*
X7899Y10046D01*
X7950D01*
X7976Y10020D01*
Y9995D01*
X7950Y9969D01*
X7899D01*
X7874Y9944D01*
Y9919D01*
X7899Y9893D01*
X7950D01*
X7976Y9919D01*
X7823Y10046D02*
Y9893D01*
Y9969D01*
X7722D01*
Y10046D01*
Y9893D01*
X7595Y10046D02*
X7646D01*
X7671Y10020D01*
Y9919D01*
X7646Y9893D01*
X7595D01*
X7569Y9919D01*
Y10020D01*
X7595Y10046D01*
X7519Y9893D02*
Y10046D01*
X7442D01*
X7417Y10020D01*
Y9969D01*
X7442Y9944D01*
X7519D01*
X7468D02*
X7417Y9893D01*
X7366Y10046D02*
X7265D01*
X7315D01*
Y9893D01*
X10262Y9449D02*
Y9601D01*
X10185D01*
X10160Y9576D01*
Y9525D01*
X10185Y9500D01*
X10262D01*
X10211D02*
X10160Y9449D01*
X10008Y9601D02*
X10109D01*
Y9449D01*
X10008D01*
X10109Y9525D02*
X10058D01*
X9855Y9576D02*
X9881Y9601D01*
X9932D01*
X9957Y9576D01*
Y9550D01*
X9932Y9525D01*
X9881D01*
X9855Y9500D01*
Y9474D01*
X9881Y9449D01*
X9932D01*
X9957Y9474D01*
X9703Y9601D02*
X9805D01*
Y9449D01*
X9703D01*
X9805Y9525D02*
X9754D01*
X9652Y9601D02*
X9551D01*
X9601D01*
Y9449D01*
X4890Y10516D02*
X4940D01*
X4915D01*
Y10668D01*
X4890Y10643D01*
X6236Y10528D02*
X6134D01*
X6236Y10630D01*
Y10655D01*
X6210Y10681D01*
X6159D01*
X6134Y10655D01*
X7391Y10630D02*
X7417Y10655D01*
X7468D01*
X7493Y10630D01*
Y10604D01*
X7468Y10579D01*
X7442D01*
X7468D01*
X7493Y10554D01*
Y10528D01*
X7468Y10503D01*
X7417D01*
X7391Y10528D01*
X8001Y10198D02*
Y10350D01*
X7925Y10274D01*
X8026D01*
X4318Y3467D02*
X15227D01*
X3315Y3861D02*
X4318D01*
Y3467D02*
Y3861D01*
X3315D02*
Y11493D01*
X4318D01*
X4331Y11887D01*
X15227D01*
Y11506D02*
Y11887D01*
Y11506D02*
X16231D01*
X15227Y3467D02*
Y3861D01*
X16231D01*
Y11506D01*
D13*
X4559Y7150D02*
D03*
X5842D02*
D03*
X7112D02*
D03*
X8382D02*
D03*
X12192Y6096D02*
D03*
X12941D02*
D03*
D14*
X4445Y10262D02*
D03*
X4699D02*
D03*
X5715D02*
D03*
X5969D02*
D03*
X6985D02*
D03*
X7239D02*
D03*
X8255D02*
D03*
X8509D02*
D03*
X11938Y10211D02*
D03*
X12192D02*
D03*
X12446D02*
D03*
X12700D02*
D03*
X12954D02*
D03*
X13208D02*
D03*
D15*
X3810Y4572D02*
D03*
X4064D02*
D03*
X4318D02*
D03*
X4839D02*
D03*
X5080D02*
D03*
X5334D02*
D03*
X9423Y10135D02*
D03*
X9690D02*
D03*
X9931D02*
D03*
X10185D02*
D03*
X10439D02*
D03*
X10693D02*
D03*
X10947D02*
D03*
X11201D02*
D03*
X4826Y8128D02*
D03*
X5347D02*
D03*
X6096D02*
D03*
X6604D02*
D03*
X7379D02*
D03*
X7874D02*
D03*
X8636D02*
D03*
X9144D02*
D03*
D16*
X4648Y9436D02*
D03*
X5499D02*
D03*
X5918Y9423D02*
D03*
X6769Y9436D02*
D03*
X7201D02*
D03*
X8052D02*
D03*
X8471D02*
D03*
X9322Y9423D02*
D03*
X5067Y8446D02*
D03*
X6350D02*
D03*
X7620D02*
D03*
X8877D02*
D03*
D17*
X5855Y5067D02*
D03*
X10617Y9715D02*
D03*
M02*
