%FSLAX42Y42*%
%MOMM*%
G71*
G01*
G75*
G04 Layer_Physical_Order=1*
%ADD10C,10.00*%
%ADD11C,4.60*%
%ADD12C,0.55*%
%ADD13C,0.35*%
%ADD14C,0.23*%
%ADD15C,0.25*%
D10*
X8890Y9436D02*
D03*
X7620D02*
D03*
X6350D02*
D03*
X5080D02*
D03*
D11*
X4572Y10262D02*
D03*
X5842D02*
D03*
X7112D02*
D03*
X8382D02*
D03*
X12954Y10211D02*
D03*
X12192D02*
D03*
D12*
X11201Y8268D02*
X14097D01*
X4572D02*
X9284D01*
D13*
X9526Y8335D02*
X9497Y8364D01*
X9439D01*
X9411Y8335D01*
Y8306D01*
X9439Y8278D01*
X9497D01*
X9526Y8249D01*
Y8220D01*
X9497Y8192D01*
X9439D01*
X9411Y8220D01*
X9583Y8364D02*
X9640D01*
X9612D01*
Y8192D01*
X9583D01*
X9640D01*
X9727Y8364D02*
Y8192D01*
X9842D01*
X9899Y8364D02*
Y8249D01*
X9956Y8192D01*
X10014Y8249D01*
Y8364D01*
X10186D02*
X10071D01*
Y8192D01*
X10186D01*
X10071Y8278D02*
X10129D01*
X10244Y8192D02*
Y8364D01*
X10330D01*
X10359Y8335D01*
Y8278D01*
X10330Y8249D01*
X10244D01*
X10301D02*
X10359Y8192D01*
X10588D02*
Y8364D01*
X10675D01*
X10703Y8335D01*
Y8278D01*
X10675Y8249D01*
X10588D01*
X10761Y8192D02*
Y8364D01*
X10847D01*
X10876Y8335D01*
Y8278D01*
X10847Y8249D01*
X10761D01*
X10818D02*
X10876Y8192D01*
X11019Y8364D02*
X10962D01*
X10933Y8335D01*
Y8220D01*
X10962Y8192D01*
X11019D01*
X11048Y8220D01*
Y8335D01*
X11019Y8364D01*
X8509Y8471D02*
Y8643D01*
X8595D01*
X8624Y8615D01*
Y8557D01*
X8595Y8528D01*
X8509D01*
X8566D02*
X8624Y8471D01*
X8796Y8643D02*
X8681D01*
Y8471D01*
X8796D01*
X8681Y8557D02*
X8739D01*
X8969Y8615D02*
X8940Y8643D01*
X8882D01*
X8854Y8615D01*
Y8586D01*
X8882Y8557D01*
X8940D01*
X8969Y8528D01*
Y8500D01*
X8940Y8471D01*
X8882D01*
X8854Y8500D01*
X9141Y8643D02*
X9026D01*
Y8471D01*
X9141D01*
X9026Y8557D02*
X9083D01*
X9198Y8643D02*
X9313D01*
X9256D01*
Y8471D01*
X7201Y8615D02*
X7173Y8643D01*
X7115D01*
X7087Y8615D01*
Y8500D01*
X7115Y8471D01*
X7173D01*
X7201Y8500D01*
X7259Y8643D02*
Y8500D01*
X7288Y8471D01*
X7345D01*
X7374Y8500D01*
Y8643D01*
X7431Y8471D02*
Y8643D01*
X7517D01*
X7546Y8615D01*
Y8557D01*
X7517Y8528D01*
X7431D01*
X7489D02*
X7546Y8471D01*
X7604D02*
Y8643D01*
X7690D01*
X7719Y8615D01*
Y8557D01*
X7690Y8528D01*
X7604D01*
X7661D02*
X7719Y8471D01*
X7891Y8643D02*
X7776D01*
Y8471D01*
X7891D01*
X7776Y8557D02*
X7833D01*
X7948Y8471D02*
Y8643D01*
X8063Y8471D01*
Y8643D01*
X8121D02*
X8236D01*
X8178D01*
Y8471D01*
X6084Y8615D02*
X6055Y8643D01*
X5998D01*
X5969Y8615D01*
Y8586D01*
X5998Y8557D01*
X6055D01*
X6084Y8528D01*
Y8500D01*
X6055Y8471D01*
X5998D01*
X5969Y8500D01*
X6141Y8643D02*
X6256D01*
X6199D01*
Y8471D01*
X6314D02*
Y8586D01*
X6371Y8643D01*
X6429Y8586D01*
Y8471D01*
Y8557D01*
X6314D01*
X6486Y8471D02*
Y8643D01*
X6572D01*
X6601Y8615D01*
Y8557D01*
X6572Y8528D01*
X6486D01*
X6543D02*
X6601Y8471D01*
X6658Y8643D02*
X6773D01*
X6716D01*
Y8471D01*
X4775D02*
Y8643D01*
X4833Y8586D01*
X4890Y8643D01*
Y8471D01*
X5034Y8643D02*
X4976D01*
X4948Y8615D01*
Y8500D01*
X4976Y8471D01*
X5034D01*
X5062Y8500D01*
Y8615D01*
X5034Y8643D01*
X5120D02*
Y8471D01*
X5206D01*
X5235Y8500D01*
Y8615D01*
X5206Y8643D01*
X5120D01*
X5407D02*
X5292D01*
Y8471D01*
X5407D01*
X5292Y8557D02*
X5350D01*
X7480Y10469D02*
X7509Y10497D01*
X7566D01*
X7595Y10469D01*
Y10440D01*
X7566Y10411D01*
X7538D01*
X7566D01*
X7595Y10383D01*
Y10354D01*
X7566Y10325D01*
X7509D01*
X7480Y10354D01*
X6325Y10325D02*
X6210D01*
X6325Y10440D01*
Y10469D01*
X6296Y10497D01*
X6239D01*
X6210Y10469D01*
X4991Y10338D02*
X5049D01*
X5020D01*
Y10510D01*
X4991Y10481D01*
X13551Y10253D02*
X13523Y10282D01*
X13465D01*
X13437Y10253D01*
Y10138D01*
X13465Y10109D01*
X13523D01*
X13551Y10138D01*
X13609Y10282D02*
Y10167D01*
X13666Y10109D01*
X13724Y10167D01*
Y10282D01*
X13781Y10109D02*
X13896Y10224D01*
X14069Y10253D02*
X14040Y10282D01*
X13982D01*
X13954Y10253D01*
Y10138D01*
X13982Y10109D01*
X14040D01*
X14069Y10138D01*
X14241Y10253D02*
X14212Y10282D01*
X14155D01*
X14126Y10253D01*
Y10138D01*
X14155Y10109D01*
X14212D01*
X14241Y10138D01*
X11976Y10602D02*
X12091D01*
X12034Y10659D02*
Y10544D01*
X12148Y10516D02*
X12263Y10630D01*
X12321Y10602D02*
X12436D01*
X10414Y10084D02*
Y10256D01*
X10500D01*
X10529Y10227D01*
Y10170D01*
X10500Y10141D01*
X10414D01*
X10673Y10256D02*
X10615D01*
X10586Y10227D01*
Y10113D01*
X10615Y10084D01*
X10673D01*
X10701Y10113D01*
Y10227D01*
X10673Y10256D01*
X10759D02*
Y10084D01*
X10874D01*
X10931D02*
Y10199D01*
X10988Y10256D01*
X11046Y10199D01*
Y10084D01*
Y10170D01*
X10931D01*
X11103Y10084D02*
Y10256D01*
X11190D01*
X11218Y10227D01*
Y10170D01*
X11190Y10141D01*
X11103D01*
X11161D02*
X11218Y10084D01*
X11276Y10256D02*
X11333D01*
X11304D01*
Y10084D01*
X11276D01*
X11333D01*
X11419Y10256D02*
X11534D01*
X11477D01*
Y10084D01*
X11592Y10256D02*
Y10227D01*
X11649Y10170D01*
X11707Y10227D01*
Y10256D01*
X11649Y10170D02*
Y10084D01*
D14*
X8849Y10338D02*
Y10510D01*
X8763Y10424D01*
X8878D01*
D15*
X16231Y3861D02*
Y11506D01*
X15227Y3861D02*
X16231D01*
X15227Y3467D02*
Y3861D01*
Y11506D02*
X16231D01*
X15227D02*
Y11887D01*
X4331D02*
X15227D01*
X4318Y11493D02*
X4331Y11887D01*
X3315Y11493D02*
X4318D01*
X3315Y3861D02*
Y11493D01*
X4318Y3467D02*
Y3861D01*
X3315D02*
X4318D01*
Y3467D02*
X15227D01*
M02*
