*%FSLAX24Y24*%
*%MOIN*%
G01*
%ADD11C,0.0073*%
%ADD12C,0.0080*%
%ADD13C,0.0100*%
%ADD14C,0.0120*%
%ADD15C,0.0200*%
%ADD16C,0.0300*%
%ADD17C,0.0360*%
%ADD18C,0.0500*%
%ADD19C,0.0500*%
%ADD20C,0.0560*%
%ADD21C,0.0620*%
%ADD22C,0.0660*%
%ADD23C,0.0680*%
%ADD24C,0.0700*%
%ADD25C,0.1000*%
%ADD26C,0.1060*%
%ADD27C,0.1400*%
%ADD28C,0.1600*%
%ADD29C,0.2500*%
%ADD30C,0.2500*%
%ADD31R,0.0620X0.0620*%
%ADD32R,0.0680X0.0680*%
D12*
X101910Y86007D02*
Y86173D01*
Y86090D01*
X101493D01*
X101410Y86173D01*
Y86257D01*
X101493Y86340D01*
X101410Y85840D02*
X101910D01*
Y85590D01*
X101827Y85507D01*
X101660D01*
X101577Y85590D01*
Y85840D01*
X101827Y85340D02*
X101910Y85257D01*
Y85090D01*
X101827Y85007D01*
X101743D01*
X101744D01*
X101743D02*
X101744D01*
X101743D02*
X101744D01*
X101743D02*
X101660Y85090D01*
Y85174D01*
Y85090D01*
X101577Y85007D01*
X101493D01*
X101410Y85090D01*
Y85257D01*
X101493Y85340D01*
X101860Y94607D02*
Y94773D01*
Y94690D01*
X101443D01*
X101360Y94773D01*
Y94857D01*
X101443Y94940D01*
X101360Y94440D02*
X101860D01*
Y94190D01*
X101777Y94107D01*
X101610D01*
X101527Y94190D01*
Y94440D01*
X101360Y93940D02*
Y93774D01*
Y93857D01*
X101860D01*
X101861D01*
X101860D02*
X101777Y93940D01*
X102010Y69123D02*
Y68957D01*
Y69040D02*
Y69123D01*
Y69040D02*
X101593D01*
X101510Y69123D01*
Y69207D01*
X101593Y69290D01*
X101510Y68790D02*
X102010D01*
Y68540D01*
X101927Y68457D01*
X101760D01*
X101677Y68540D01*
Y68790D01*
X101510Y68040D02*
X102010D01*
X101760Y68290D01*
Y67957D01*
X101860Y77707D02*
Y77873D01*
Y77790D01*
X101443D01*
X101360Y77873D01*
Y77957D01*
X101443Y78040D01*
X101360Y77540D02*
X101860D01*
Y77290D01*
X101777Y77207D01*
X101610D01*
X101527Y77290D01*
Y77540D01*
X101777Y76874D02*
X101860Y76707D01*
X101777Y76874D02*
X101610Y77040D01*
X101443D01*
X101360Y76957D01*
Y76790D01*
X101443Y76707D01*
X101527D01*
X101610Y76790D01*
Y77040D01*
X92393Y84190D02*
X92310Y84107D01*
X92393Y84190D02*
X92560D01*
X92643Y84107D01*
Y84023D01*
X92644D01*
X92643D02*
X92644D01*
X92643D02*
X92644D01*
X92643D02*
X92560Y83940D01*
X92477D01*
X92560D01*
X92643Y83857D01*
Y83773D01*
X92560Y83690D01*
X92393D01*
X92310Y83773D01*
X92810Y84107D02*
X92893Y84190D01*
X93060D01*
X93143Y84107D01*
Y83773D01*
X93060Y83690D01*
X92893D01*
X92810Y83773D01*
Y84107D01*
X93310D02*
X93393Y84190D01*
X93560D01*
X93643Y84107D01*
Y83773D01*
X93560Y83690D01*
X93393D01*
X93310Y83773D01*
Y84107D01*
X89260Y84190D02*
Y83690D01*
Y84190D02*
X89510D01*
X89593Y84107D01*
Y83940D01*
X89510Y83857D01*
X89260D01*
X89427D02*
X89593Y83690D01*
X89760D02*
X89926D01*
X89843D01*
Y84190D01*
X89844D01*
X89843D02*
X89760Y84107D01*
X90176D02*
X90260Y84190D01*
X90426D01*
X90510Y84107D01*
Y83773D01*
X90426Y83690D01*
X90260D01*
X90176Y83773D01*
Y84107D01*
X92410Y83107D02*
X92493Y83190D01*
X92660D01*
X92743Y83107D01*
Y83023D01*
X92744D01*
X92743D02*
X92744D01*
X92743D02*
X92744D01*
X92743D02*
X92660Y82940D01*
X92577D01*
X92660D01*
X92743Y82857D01*
Y82773D01*
X92660Y82690D01*
X92493D01*
X92410Y82773D01*
X92910Y83107D02*
X92993Y83190D01*
X93160D01*
X93243Y83107D01*
Y82773D01*
X93160Y82690D01*
X92993D01*
X92910Y82773D01*
Y83107D01*
X93410D02*
X93493Y83190D01*
X93660D01*
X93743Y83107D01*
Y82773D01*
X93660Y82690D01*
X93493D01*
X93410Y82773D01*
Y83107D01*
X89260Y83190D02*
Y82690D01*
Y83190D02*
X89510D01*
X89593Y83107D01*
Y82940D01*
X89510Y82857D01*
X89260D01*
X89427D02*
X89593Y82690D01*
X89760D02*
X89926D01*
X89843D01*
Y83190D01*
X89844D01*
X89843D02*
X89760Y83107D01*
X90176Y82690D02*
X90510D01*
X90176D02*
X90510Y83023D01*
Y83107D01*
X90426Y83190D01*
X90260D01*
X90176Y83107D01*
X92360Y82107D02*
X92443Y82190D01*
X92610D01*
X92693Y82107D01*
Y82023D01*
X92694D01*
X92693D02*
X92694D01*
X92693D02*
X92694D01*
X92693D02*
X92610Y81940D01*
X92527D01*
X92610D01*
X92693Y81857D01*
Y81773D01*
X92610Y81690D01*
X92443D01*
X92360Y81773D01*
X92860Y82107D02*
X92943Y82190D01*
X93110D01*
X93193Y82107D01*
Y81773D01*
X93110Y81690D01*
X92943D01*
X92860Y81773D01*
Y82107D01*
X93360D02*
X93443Y82190D01*
X93610D01*
X93693Y82107D01*
Y81773D01*
X93610Y81690D01*
X93443D01*
X93360Y81773D01*
Y82107D01*
X89310Y82190D02*
Y81690D01*
Y82190D02*
X89560D01*
X89643Y82107D01*
Y81940D01*
X89560Y81857D01*
X89310D01*
X89477D02*
X89643Y81690D01*
X89810D02*
X89976D01*
X89893D01*
Y82190D01*
X89894D01*
X89893D02*
X89810Y82107D01*
X90476Y82190D02*
Y81690D01*
X90226Y81940D02*
X90476Y82190D01*
X90560Y81940D02*
X90226D01*
X92260Y81107D02*
X92343Y81190D01*
X92510D01*
X92593Y81107D01*
Y81023D01*
X92594D01*
X92593D02*
X92594D01*
X92593D02*
X92594D01*
X92593D02*
X92510Y80940D01*
X92427D01*
X92510D01*
X92593Y80857D01*
Y80773D01*
X92510Y80690D01*
X92343D01*
X92260Y80773D01*
X92760Y81107D02*
X92843Y81190D01*
X93010D01*
X93093Y81107D01*
Y80773D01*
X93010Y80690D01*
X92843D01*
X92760Y80773D01*
Y81107D01*
X93260D02*
X93343Y81190D01*
X93510D01*
X93593Y81107D01*
Y80773D01*
X93510Y80690D01*
X93343D01*
X93260Y80773D01*
Y81107D01*
X89310Y81240D02*
Y80740D01*
Y81240D02*
X89560D01*
X89643Y81157D01*
Y80990D01*
X89560Y80907D01*
X89310D01*
X89477D02*
X89643Y80740D01*
X89810D02*
X89976D01*
X89893D01*
Y81240D01*
X89894D01*
X89893D02*
X89810Y81157D01*
X90393D02*
X90560Y81240D01*
X90393Y81157D02*
X90226Y80990D01*
Y80823D01*
X90310Y80740D01*
X90476D01*
X90560Y80823D01*
Y80907D01*
X90476Y80990D01*
X90226D01*
X93110Y92607D02*
X93193Y92690D01*
X93360D01*
X93443Y92607D01*
Y92523D01*
X93444D01*
X93443D02*
X93444D01*
X93443D02*
X93444D01*
X93443D02*
X93360Y92440D01*
X93277D01*
X93360D01*
X93443Y92357D01*
Y92273D01*
X93360Y92190D01*
X93193D01*
X93110Y92273D01*
X93610Y92607D02*
X93693Y92690D01*
X93860D01*
X93943Y92607D01*
Y92273D01*
X93860Y92190D01*
X93693D01*
X93610Y92273D01*
Y92607D01*
X94110D02*
X94193Y92690D01*
X94360D01*
X94443Y92607D01*
Y92273D01*
X94360Y92190D01*
X94193D01*
X94110Y92273D01*
Y92607D01*
X90510Y92690D02*
Y92190D01*
Y92690D02*
X90760D01*
X90843Y92607D01*
Y92440D01*
X90760Y92357D01*
X90510D01*
X90677D02*
X90843Y92190D01*
X91010D02*
X91343D01*
X91010D02*
X91343Y92523D01*
Y92607D01*
X91260Y92690D01*
X91093D01*
X91010Y92607D01*
X93260Y90607D02*
X93343Y90690D01*
X93510D01*
X93593Y90607D01*
Y90523D01*
X93594D01*
X93593D02*
X93594D01*
X93593D02*
X93594D01*
X93593D02*
X93510Y90440D01*
X93427D01*
X93510D01*
X93593Y90357D01*
Y90273D01*
X93510Y90190D01*
X93343D01*
X93260Y90273D01*
X93760Y90607D02*
X93843Y90690D01*
X94010D01*
X94093Y90607D01*
Y90273D01*
X94010Y90190D01*
X93843D01*
X93760Y90273D01*
Y90607D01*
X94260D02*
X94343Y90690D01*
X94510D01*
X94593Y90607D01*
Y90273D01*
X94510Y90190D01*
X94343D01*
X94260Y90273D01*
Y90607D01*
X90510Y90740D02*
Y90240D01*
Y90740D02*
X90760D01*
X90843Y90657D01*
Y90490D01*
X90760Y90407D01*
X90510D01*
X90677D02*
X90843Y90240D01*
X91176Y90657D02*
X91343Y90740D01*
X91176Y90657D02*
X91010Y90490D01*
Y90323D01*
X91093Y90240D01*
X91260D01*
X91343Y90323D01*
Y90407D01*
X91260Y90490D01*
X91010D01*
X93160Y89607D02*
X93243Y89690D01*
X93410D01*
X93493Y89607D01*
Y89523D01*
X93494D01*
X93493D02*
X93494D01*
X93493D02*
X93494D01*
X93493D02*
X93410Y89440D01*
X93327D01*
X93410D01*
X93493Y89357D01*
Y89273D01*
X93410Y89190D01*
X93243D01*
X93160Y89273D01*
X93660Y89607D02*
X93743Y89690D01*
X93910D01*
X93993Y89607D01*
Y89273D01*
X93910Y89190D01*
X93743D01*
X93660Y89273D01*
Y89607D01*
X94160D02*
X94243Y89690D01*
X94410D01*
X94493Y89607D01*
Y89273D01*
X94410Y89190D01*
X94243D01*
X94160Y89273D01*
Y89607D01*
X90610Y89740D02*
Y89240D01*
Y89740D02*
X90860D01*
X90943Y89657D01*
Y89490D01*
X90860Y89407D01*
X90610D01*
X90777D02*
X90943Y89240D01*
X91110Y89657D02*
X91193Y89740D01*
X91360D01*
X91443Y89657D01*
Y89573D01*
X91360Y89490D01*
X91443Y89407D01*
Y89323D01*
X91360Y89240D01*
X91193D01*
X91110Y89323D01*
Y89407D01*
X91193Y89490D01*
X91110Y89573D01*
Y89657D01*
X91193Y89490D02*
X91360D01*
X98360Y93107D02*
X98443Y93190D01*
X98610D01*
X98693Y93107D01*
Y93023D01*
X98694D01*
X98693D02*
X98694D01*
X98693D02*
X98694D01*
X98693D02*
X98610Y92940D01*
X98527D01*
X98610D01*
X98693Y92857D01*
Y92773D01*
X98610Y92690D01*
X98443D01*
X98360Y92773D01*
X98860Y93107D02*
X98943Y93190D01*
X99110D01*
X99193Y93107D01*
Y92773D01*
X99110Y92690D01*
X98943D01*
X98860Y92773D01*
Y93107D01*
X99360D02*
X99443Y93190D01*
X99610D01*
X99693Y93107D01*
Y92773D01*
X99610Y92690D01*
X99443D01*
X99360Y92773D01*
Y93107D01*
X97010Y93390D02*
Y93890D01*
X97260D01*
X97343Y93807D01*
Y93640D01*
X97260Y93557D01*
X97010D01*
X97177D02*
X97343Y93390D01*
X97510D02*
X97676D01*
X97593D01*
Y93890D01*
X97594D01*
X97593D02*
X97510Y93807D01*
X98393Y82690D02*
X98310Y82607D01*
X98393Y82690D02*
X98560D01*
X98643Y82607D01*
Y82523D01*
X98644D01*
X98643D02*
X98644D01*
X98643D02*
X98644D01*
X98643D02*
X98560Y82440D01*
X98477D01*
X98560D01*
X98643Y82357D01*
Y82273D01*
X98560Y82190D01*
X98393D01*
X98310Y82273D01*
X98810Y82607D02*
X98893Y82690D01*
X99060D01*
X99143Y82607D01*
Y82273D01*
X99060Y82190D01*
X98893D01*
X98810Y82273D01*
Y82607D01*
X99310D02*
X99393Y82690D01*
X99560D01*
X99643Y82607D01*
Y82273D01*
X99560Y82190D01*
X99393D01*
X99310Y82273D01*
Y82607D01*
X95360Y82740D02*
Y82240D01*
Y82740D02*
X95610D01*
X95693Y82657D01*
Y82490D01*
X95610Y82407D01*
X95360D01*
X95527D02*
X95693Y82240D01*
X95860D02*
X96026D01*
X95943D01*
Y82740D01*
X95944D01*
X95943D02*
X95860Y82657D01*
X96276D02*
X96360Y82740D01*
X96526D01*
X96610Y82657D01*
Y82573D01*
X96611D01*
X96610D02*
X96611D01*
X96610D02*
X96611D01*
X96610D02*
X96526Y82490D01*
X96443D01*
X96526D01*
X96610Y82407D01*
Y82323D01*
X96526Y82240D01*
X96360D01*
X96276Y82323D01*
X98510Y83607D02*
X98593Y83690D01*
X98760D01*
X98843Y83607D01*
Y83523D01*
X98844D01*
X98843D02*
X98844D01*
X98843D02*
X98844D01*
X98843D02*
X98760Y83440D01*
X98677D01*
X98760D01*
X98843Y83357D01*
Y83273D01*
X98760Y83190D01*
X98593D01*
X98510Y83273D01*
X99010Y83607D02*
X99093Y83690D01*
X99260D01*
X99343Y83607D01*
Y83273D01*
X99260Y83190D01*
X99093D01*
X99010Y83273D01*
Y83607D01*
X99510D02*
X99593Y83690D01*
X99760D01*
X99843Y83607D01*
Y83273D01*
X99760Y83190D01*
X99593D01*
X99510Y83273D01*
Y83607D01*
X95560Y83690D02*
Y83190D01*
Y83690D02*
X95810D01*
X95893Y83607D01*
Y83440D01*
X95810Y83357D01*
X95560D01*
X95727D02*
X95893Y83190D01*
X96060D02*
X96226D01*
X96143D01*
Y83690D01*
X96144D01*
X96143D02*
X96060Y83607D01*
X96476Y83190D02*
X96643D01*
X96560D01*
Y83690D01*
X96561D01*
X96560D02*
X96476Y83607D01*
X98410Y84607D02*
X98493Y84690D01*
X98660D01*
X98743Y84607D01*
Y84523D01*
X98744D01*
X98743D02*
X98744D01*
X98743D02*
X98744D01*
X98743D02*
X98660Y84440D01*
X98577D01*
X98660D01*
X98743Y84357D01*
Y84273D01*
X98660Y84190D01*
X98493D01*
X98410Y84273D01*
X98910Y84607D02*
X98993Y84690D01*
X99160D01*
X99243Y84607D01*
Y84273D01*
X99160Y84190D01*
X98993D01*
X98910Y84273D01*
Y84607D01*
X99410D02*
X99493Y84690D01*
X99660D01*
X99743Y84607D01*
Y84273D01*
X99660Y84190D01*
X99493D01*
X99410Y84273D01*
Y84607D01*
X95660Y84690D02*
Y84190D01*
Y84690D02*
X95910D01*
X95993Y84607D01*
Y84440D01*
X95910Y84357D01*
X95660D01*
X95827D02*
X95993Y84190D01*
X96160Y84273D02*
X96243Y84190D01*
X96410D01*
X96493Y84273D01*
Y84607D01*
X96410Y84690D01*
X96243D01*
X96160Y84607D01*
Y84523D01*
X96243Y84440D01*
X96493D01*
X98393Y81690D02*
X98310Y81607D01*
X98393Y81690D02*
X98560D01*
X98643Y81607D01*
Y81523D01*
X98644D01*
X98643D02*
X98644D01*
X98643D02*
X98644D01*
X98643D02*
X98560Y81440D01*
X98477D01*
X98560D01*
X98643Y81357D01*
Y81273D01*
X98560Y81190D01*
X98393D01*
X98310Y81273D01*
X98810Y81607D02*
X98893Y81690D01*
X99060D01*
X99143Y81607D01*
Y81273D01*
X99060Y81190D01*
X98893D01*
X98810Y81273D01*
Y81607D01*
X99310D02*
X99393Y81690D01*
X99560D01*
X99643Y81607D01*
Y81273D01*
X99560Y81190D01*
X99393D01*
X99310Y81273D01*
Y81607D01*
X95360Y81690D02*
Y81190D01*
Y81690D02*
X95610D01*
X95693Y81607D01*
Y81440D01*
X95610Y81357D01*
X95360D01*
X95527D02*
X95693Y81190D01*
X95860D02*
X96026D01*
X95943D01*
Y81690D01*
X95944D01*
X95943D02*
X95860Y81607D01*
X96276Y81690D02*
X96610D01*
X96276D02*
Y81440D01*
X96443Y81523D01*
X96526D01*
X96610Y81440D01*
Y81273D01*
X96526Y81190D01*
X96360D01*
X96276Y81273D01*
X98410Y92107D02*
X98493Y92190D01*
X98660D01*
X98743Y92107D01*
Y92023D01*
X98744D01*
X98743D02*
X98744D01*
X98743D02*
X98744D01*
X98743D02*
X98660Y91940D01*
X98577D01*
X98660D01*
X98743Y91857D01*
Y91773D01*
X98660Y91690D01*
X98493D01*
X98410Y91773D01*
X98910Y92107D02*
X98993Y92190D01*
X99160D01*
X99243Y92107D01*
Y91773D01*
X99160Y91690D01*
X98993D01*
X98910Y91773D01*
Y92107D01*
X99410D02*
X99493Y92190D01*
X99660D01*
X99743Y92107D01*
Y91773D01*
X99660Y91690D01*
X99493D01*
X99410Y91773D01*
Y92107D01*
X101410Y92190D02*
Y91690D01*
Y92190D02*
X101660D01*
X101743Y92107D01*
Y91940D01*
X101660Y91857D01*
X101410D01*
X101577D02*
X101743Y91690D01*
X101910Y92107D02*
X101993Y92190D01*
X102160D01*
X102243Y92107D01*
Y92023D01*
X102244D01*
X102243D02*
X102244D01*
X102243D02*
X102244D01*
X102243D02*
X102160Y91940D01*
X102076D01*
X102160D01*
X102243Y91857D01*
Y91773D01*
X102160Y91690D01*
X101993D01*
X101910Y91773D01*
X98443Y91190D02*
X98360Y91107D01*
X98443Y91190D02*
X98610D01*
X98693Y91107D01*
Y91023D01*
X98694D01*
X98693D02*
X98694D01*
X98693D02*
X98694D01*
X98693D02*
X98610Y90940D01*
X98527D01*
X98610D01*
X98693Y90857D01*
Y90773D01*
X98610Y90690D01*
X98443D01*
X98360Y90773D01*
X98860Y91107D02*
X98943Y91190D01*
X99110D01*
X99193Y91107D01*
Y90773D01*
X99110Y90690D01*
X98943D01*
X98860Y90773D01*
Y91107D01*
X99360D02*
X99443Y91190D01*
X99610D01*
X99693Y91107D01*
Y90773D01*
X99610Y90690D01*
X99443D01*
X99360Y90773D01*
Y91107D01*
X101410Y91190D02*
Y90690D01*
Y91190D02*
X101660D01*
X101743Y91107D01*
Y90940D01*
X101660Y90857D01*
X101410D01*
X101577D02*
X101743Y90690D01*
X101910Y91190D02*
X102243D01*
X101910D02*
Y90940D01*
X102076Y91023D01*
X102160D01*
X102243Y90940D01*
Y90773D01*
X102160Y90690D01*
X101993D01*
X101910Y90773D01*
X98443Y90190D02*
X98360Y90107D01*
X98443Y90190D02*
X98610D01*
X98693Y90107D01*
Y90023D01*
X98694D01*
X98693D02*
X98694D01*
X98693D02*
X98694D01*
X98693D02*
X98610Y89940D01*
X98527D01*
X98610D01*
X98693Y89857D01*
Y89773D01*
X98610Y89690D01*
X98443D01*
X98360Y89773D01*
X98860Y90107D02*
X98943Y90190D01*
X99110D01*
X99193Y90107D01*
Y89773D01*
X99110Y89690D01*
X98943D01*
X98860Y89773D01*
Y90107D01*
X99360D02*
X99443Y90190D01*
X99610D01*
X99693Y90107D01*
Y89773D01*
X99610Y89690D01*
X99443D01*
X99360Y89773D01*
Y90107D01*
X96860Y89440D02*
Y88940D01*
Y89440D02*
X97110D01*
X97193Y89357D01*
Y89190D01*
X97110Y89107D01*
X96860D01*
X97027D02*
X97193Y88940D01*
X97360Y89440D02*
X97693D01*
Y89357D01*
X97360Y89023D01*
Y88940D01*
X93243Y91690D02*
X93160Y91607D01*
X93243Y91690D02*
X93410D01*
X93493Y91607D01*
Y91523D01*
X93494D01*
X93493D02*
X93494D01*
X93493D02*
X93494D01*
X93493D02*
X93410Y91440D01*
X93327D01*
X93410D01*
X93493Y91357D01*
Y91273D01*
X93410Y91190D01*
X93243D01*
X93160Y91273D01*
X93660Y91607D02*
X93743Y91690D01*
X93910D01*
X93993Y91607D01*
Y91273D01*
X93910Y91190D01*
X93743D01*
X93660Y91273D01*
Y91607D01*
X94160D02*
X94243Y91690D01*
X94410D01*
X94493Y91607D01*
Y91273D01*
X94410Y91190D01*
X94243D01*
X94160Y91273D01*
Y91607D01*
X90510Y91690D02*
Y91190D01*
Y91690D02*
X90760D01*
X90843Y91607D01*
Y91440D01*
X90760Y91357D01*
X90510D01*
X90677D02*
X90843Y91190D01*
X91260D02*
Y91690D01*
X91010Y91440D01*
X91343D01*
X81410Y69790D02*
X81327D01*
Y69873D01*
X81410D01*
Y69790D01*
Y70207D02*
Y70373D01*
Y70290D01*
X80910D01*
X80911D01*
X80910D02*
X80993Y70207D01*
X81077Y70623D02*
X81327D01*
X81410Y70706D01*
Y70956D01*
X81077D01*
X80910Y71123D02*
Y71456D01*
Y71123D02*
X81160D01*
Y71290D01*
Y71123D01*
X81410D01*
X82227Y72707D02*
X82310Y72790D01*
Y72957D01*
X82227Y73040D01*
X81893D01*
X81810Y72957D01*
Y72790D01*
X81893Y72707D01*
X81810Y72540D02*
Y72374D01*
Y72457D01*
X82310D01*
X82311D01*
X82310D02*
X82227Y72540D01*
X83010Y70690D02*
X83043Y70688D01*
X83075Y70681D01*
X83106Y70671D01*
X83135Y70657D01*
X83162Y70638D01*
X83187Y70617D01*
X83208Y70592D01*
X83227Y70565D01*
X83241Y70536D01*
X83251Y70505D01*
X83258Y70473D01*
X83260Y70440D01*
X83258Y70407D01*
X83251Y70375D01*
X83241Y70344D01*
X83227Y70315D01*
X83208Y70288D01*
X83187Y70263D01*
X83162Y70242D01*
X83135Y70223D01*
X83106Y70209D01*
X83075Y70199D01*
X83043Y70192D01*
X83010Y70190D01*
Y69440D01*
Y70690D02*
Y71440D01*
X90010D02*
Y69440D01*
Y71440D02*
X83010D01*
Y69440D02*
X90010D01*
X85243Y70640D02*
X84910D01*
X85243D02*
Y70557D01*
X84910Y70223D01*
Y70140D01*
X85660D02*
Y70640D01*
X85410Y70390D01*
X85743D01*
X85910Y70640D02*
Y70140D01*
Y70390D01*
X86243D01*
Y70640D01*
Y70140D01*
X86659Y70640D02*
X86743Y70557D01*
X86659Y70640D02*
X86493D01*
X86410Y70557D01*
Y70223D01*
X86493Y70140D01*
X86659D01*
X86743Y70223D01*
X86909Y70140D02*
X87076D01*
X86993D01*
Y70640D01*
X86994D01*
X86993D02*
X86909Y70557D01*
X87576Y70640D02*
Y70140D01*
X87326Y70390D02*
X87576Y70640D01*
X87659Y70390D02*
X87326D01*
X83410Y68540D02*
Y68123D01*
X83493Y68040D01*
X83660D01*
X83743Y68123D01*
Y68540D01*
X83910Y68040D02*
X84243D01*
X83910D02*
X84243Y68373D01*
Y68457D01*
X84160Y68540D01*
X83993D01*
X83910Y68457D01*
X86810Y67690D02*
X87143D01*
X86810D02*
X87143Y68023D01*
Y68107D01*
X87060Y68190D01*
X86893D01*
X86810Y68107D01*
X87310Y67690D02*
X87643D01*
X87310D02*
X87643Y68023D01*
Y68107D01*
X87560Y68190D01*
X87393D01*
X87310Y68107D01*
X87810D02*
X87893Y68190D01*
X88060D01*
X88143Y68107D01*
Y67773D01*
X88060Y67690D01*
X87893D01*
X87810Y67773D01*
Y68107D01*
X90010Y68190D02*
Y67690D01*
Y68190D02*
X90260D01*
X90343Y68107D01*
Y67940D01*
X90260Y67857D01*
X90010D01*
X90177D02*
X90343Y67690D01*
X90510Y68107D02*
X90593Y68190D01*
X90760D01*
X90843Y68107D01*
Y68023D01*
X90844D01*
X90843D02*
X90844D01*
X90843D02*
X90844D01*
X90843D02*
X90760Y67940D01*
X90676D01*
X90760D01*
X90843Y67857D01*
Y67773D01*
X90760Y67690D01*
X90593D01*
X90510Y67773D01*
X91260Y67690D02*
Y68190D01*
X91010Y67940D01*
X91343D01*
X87243Y66690D02*
X86910D01*
X87243Y67023D01*
Y67107D01*
X87160Y67190D01*
X86993D01*
X86910Y67107D01*
X87410Y66690D02*
X87743D01*
X87410D02*
X87743Y67023D01*
Y67107D01*
X87660Y67190D01*
X87493D01*
X87410Y67107D01*
X87910D02*
X87993Y67190D01*
X88160D01*
X88243Y67107D01*
Y66773D01*
X88160Y66690D01*
X87993D01*
X87910Y66773D01*
Y67107D01*
X90010Y67190D02*
Y66690D01*
Y67190D02*
X90260D01*
X90343Y67107D01*
Y66940D01*
X90260Y66857D01*
X90010D01*
X90177D02*
X90343Y66690D01*
X90510Y67107D02*
X90593Y67190D01*
X90760D01*
X90843Y67107D01*
Y67023D01*
X90844D01*
X90843D02*
X90844D01*
X90843D02*
X90844D01*
X90843D02*
X90760Y66940D01*
X90676D01*
X90760D01*
X90843Y66857D01*
Y66773D01*
X90760Y66690D01*
X90593D01*
X90510Y66773D01*
X91010Y67190D02*
X91343D01*
X91010D02*
Y66940D01*
X91176Y67023D01*
X91260D01*
X91343Y66940D01*
Y66773D01*
X91260Y66690D01*
X91093D01*
X91010Y66773D01*
X92760Y75607D02*
X92843Y75690D01*
X93010D01*
X93093Y75607D01*
Y75523D01*
X93094D01*
X93093D02*
X93094D01*
X93093D02*
X93094D01*
X93093D02*
X93010Y75440D01*
X92927D01*
X93010D01*
X93093Y75357D01*
Y75273D01*
X93010Y75190D01*
X92843D01*
X92760Y75273D01*
X93260Y75607D02*
X93343Y75690D01*
X93510D01*
X93593Y75607D01*
Y75273D01*
X93510Y75190D01*
X93343D01*
X93260Y75273D01*
Y75607D01*
X93760D02*
X93843Y75690D01*
X94010D01*
X94093Y75607D01*
Y75273D01*
X94010Y75190D01*
X93843D01*
X93760Y75273D01*
Y75607D01*
X89610Y75640D02*
Y75140D01*
Y75640D02*
X89860D01*
X89943Y75557D01*
Y75390D01*
X89860Y75307D01*
X89610D01*
X89777D02*
X89943Y75140D01*
X90110D02*
X90443D01*
X90110D02*
X90443Y75473D01*
Y75557D01*
X90360Y75640D01*
X90193D01*
X90110Y75557D01*
X90776D02*
X90943Y75640D01*
X90776Y75557D02*
X90610Y75390D01*
Y75223D01*
X90693Y75140D01*
X90860D01*
X90943Y75223D01*
Y75307D01*
X90860Y75390D01*
X90610D01*
X92810Y74607D02*
X92893Y74690D01*
X93060D01*
X93143Y74607D01*
Y74523D01*
X93144D01*
X93143D02*
X93144D01*
X93143D02*
X93144D01*
X93143D02*
X93060Y74440D01*
X92977D01*
X93060D01*
X93143Y74357D01*
Y74273D01*
X93060Y74190D01*
X92893D01*
X92810Y74273D01*
X93310Y74607D02*
X93393Y74690D01*
X93560D01*
X93643Y74607D01*
Y74273D01*
X93560Y74190D01*
X93393D01*
X93310Y74273D01*
Y74607D01*
X93810D02*
X93893Y74690D01*
X94060D01*
X94143Y74607D01*
Y74273D01*
X94060Y74190D01*
X93893D01*
X93810Y74273D01*
Y74607D01*
X89610Y74690D02*
Y74190D01*
Y74690D02*
X89860D01*
X89943Y74607D01*
Y74440D01*
X89860Y74357D01*
X89610D01*
X89777D02*
X89943Y74190D01*
X90110D02*
X90443D01*
X90110D02*
X90443Y74523D01*
Y74607D01*
X90360Y74690D01*
X90193D01*
X90110Y74607D01*
X90610D02*
X90693Y74690D01*
X90860D01*
X90943Y74607D01*
Y74523D01*
X90860Y74440D01*
X90943Y74357D01*
Y74273D01*
X90860Y74190D01*
X90693D01*
X90610Y74273D01*
Y74357D01*
X90693Y74440D01*
X90610Y74523D01*
Y74607D01*
X90693Y74440D02*
X90860D01*
X92760Y73607D02*
X92843Y73690D01*
X93010D01*
X93093Y73607D01*
Y73523D01*
X93094D01*
X93093D02*
X93094D01*
X93093D02*
X93094D01*
X93093D02*
X93010Y73440D01*
X92927D01*
X93010D01*
X93093Y73357D01*
Y73273D01*
X93010Y73190D01*
X92843D01*
X92760Y73273D01*
X93260Y73607D02*
X93343Y73690D01*
X93510D01*
X93593Y73607D01*
Y73273D01*
X93510Y73190D01*
X93343D01*
X93260Y73273D01*
Y73607D01*
X93760D02*
X93843Y73690D01*
X94010D01*
X94093Y73607D01*
Y73273D01*
X94010Y73190D01*
X93843D01*
X93760Y73273D01*
Y73607D01*
X89710Y73740D02*
Y73240D01*
Y73740D02*
X89960D01*
X90043Y73657D01*
Y73490D01*
X89960Y73407D01*
X89710D01*
X89877D02*
X90043Y73240D01*
X90210Y73657D02*
X90293Y73740D01*
X90460D01*
X90543Y73657D01*
Y73573D01*
X90544D01*
X90543D02*
X90544D01*
X90543D02*
X90544D01*
X90543D02*
X90460Y73490D01*
X90376D01*
X90460D01*
X90543Y73407D01*
Y73323D01*
X90460Y73240D01*
X90293D01*
X90210Y73323D01*
X90710Y73657D02*
X90793Y73740D01*
X90960D01*
X91043Y73657D01*
Y73323D01*
X90960Y73240D01*
X90793D01*
X90710Y73323D01*
Y73657D01*
X92760Y72607D02*
X92843Y72690D01*
X93010D01*
X93093Y72607D01*
Y72523D01*
X93094D01*
X93093D02*
X93094D01*
X93093D02*
X93094D01*
X93093D02*
X93010Y72440D01*
X92927D01*
X93010D01*
X93093Y72357D01*
Y72273D01*
X93010Y72190D01*
X92843D01*
X92760Y72273D01*
X93260Y72607D02*
X93343Y72690D01*
X93510D01*
X93593Y72607D01*
Y72273D01*
X93510Y72190D01*
X93343D01*
X93260Y72273D01*
Y72607D01*
X93760D02*
X93843Y72690D01*
X94010D01*
X94093Y72607D01*
Y72273D01*
X94010Y72190D01*
X93843D01*
X93760Y72273D01*
Y72607D01*
X89760Y72740D02*
Y72240D01*
Y72740D02*
X90010D01*
X90093Y72657D01*
Y72490D01*
X90010Y72407D01*
X89760D01*
X89927D02*
X90093Y72240D01*
X90260Y72657D02*
X90343Y72740D01*
X90510D01*
X90593Y72657D01*
Y72573D01*
X90594D01*
X90593D02*
X90594D01*
X90593D02*
X90594D01*
X90593D02*
X90510Y72490D01*
X90426D01*
X90510D01*
X90593Y72407D01*
Y72323D01*
X90510Y72240D01*
X90343D01*
X90260Y72323D01*
X90760Y72240D02*
X91093D01*
X90760D02*
X91093Y72573D01*
Y72657D01*
X91010Y72740D01*
X90843D01*
X90760Y72657D01*
X97710Y68607D02*
X97793Y68690D01*
X97960D01*
X98043Y68607D01*
Y68523D01*
X98044D01*
X98043D02*
X98044D01*
X98043D02*
X98044D01*
X98043D02*
X97960Y68440D01*
X97877D01*
X97960D01*
X98043Y68357D01*
Y68273D01*
X97960Y68190D01*
X97793D01*
X97710Y68273D01*
X98210Y68607D02*
X98293Y68690D01*
X98460D01*
X98543Y68607D01*
Y68273D01*
X98460Y68190D01*
X98293D01*
X98210Y68273D01*
Y68607D01*
X98710D02*
X98793Y68690D01*
X98960D01*
X99043Y68607D01*
Y68273D01*
X98960Y68190D01*
X98793D01*
X98710Y68273D01*
Y68607D01*
X94660Y68540D02*
Y68040D01*
Y68540D02*
X94910D01*
X94993Y68457D01*
Y68290D01*
X94910Y68207D01*
X94660D01*
X94827D02*
X94993Y68040D01*
X95160D02*
X95326D01*
X95243D01*
Y68540D01*
X95244D01*
X95243D02*
X95160Y68457D01*
X95576Y68540D02*
X95910D01*
Y68457D01*
X95576Y68123D01*
Y68040D01*
X97760Y67607D02*
X97843Y67690D01*
X98010D01*
X98093Y67607D01*
Y67523D01*
X98094D01*
X98093D02*
X98094D01*
X98093D02*
X98094D01*
X98093D02*
X98010Y67440D01*
X97927D01*
X98010D01*
X98093Y67357D01*
Y67273D01*
X98010Y67190D01*
X97843D01*
X97760Y67273D01*
X98260Y67607D02*
X98343Y67690D01*
X98510D01*
X98593Y67607D01*
Y67273D01*
X98510Y67190D01*
X98343D01*
X98260Y67273D01*
Y67607D01*
X98760D02*
X98843Y67690D01*
X99010D01*
X99093Y67607D01*
Y67273D01*
X99010Y67190D01*
X98843D01*
X98760Y67273D01*
Y67607D01*
X94610Y67590D02*
Y67090D01*
Y67590D02*
X94860D01*
X94943Y67507D01*
Y67340D01*
X94860Y67257D01*
X94610D01*
X94777D02*
X94943Y67090D01*
X95110D02*
X95276D01*
X95193D01*
Y67590D01*
X95194D01*
X95193D02*
X95110Y67507D01*
X95526D02*
X95610Y67590D01*
X95776D01*
X95860Y67507D01*
Y67423D01*
X95776Y67340D01*
X95860Y67257D01*
Y67173D01*
X95776Y67090D01*
X95610D01*
X95526Y67173D01*
Y67257D01*
X95610Y67340D01*
X95526Y67423D01*
Y67507D01*
X95610Y67340D02*
X95776D01*
X97660Y73107D02*
X97743Y73190D01*
X97910D01*
X97993Y73107D01*
Y73023D01*
X97994D01*
X97993D02*
X97994D01*
X97993D02*
X97994D01*
X97993D02*
X97910Y72940D01*
X97827D01*
X97910D01*
X97993Y72857D01*
Y72773D01*
X97910Y72690D01*
X97743D01*
X97660Y72773D01*
X98160Y73107D02*
X98243Y73190D01*
X98410D01*
X98493Y73107D01*
Y72773D01*
X98410Y72690D01*
X98243D01*
X98160Y72773D01*
Y73107D01*
X98660D02*
X98743Y73190D01*
X98910D01*
X98993Y73107D01*
Y72773D01*
X98910Y72690D01*
X98743D01*
X98660Y72773D01*
Y73107D01*
X100960Y73190D02*
Y72690D01*
Y73190D02*
X101210D01*
X101293Y73107D01*
Y72940D01*
X101210Y72857D01*
X100960D01*
X101127D02*
X101293Y72690D01*
X101460Y73107D02*
X101543Y73190D01*
X101710D01*
X101793Y73107D01*
Y73023D01*
X101794D01*
X101793D02*
X101794D01*
X101793D02*
X101794D01*
X101793D02*
X101710Y72940D01*
X101626D01*
X101710D01*
X101793Y72857D01*
Y72773D01*
X101710Y72690D01*
X101543D01*
X101460Y72773D01*
X101960Y72690D02*
X102126D01*
X102043D01*
Y73190D01*
X102044D01*
X102043D02*
X101960Y73107D01*
X97793Y74190D02*
X97710Y74107D01*
X97793Y74190D02*
X97960D01*
X98043Y74107D01*
Y74023D01*
X98044D01*
X98043D02*
X98044D01*
X98043D02*
X98044D01*
X98043D02*
X97960Y73940D01*
X97877D01*
X97960D01*
X98043Y73857D01*
Y73773D01*
X97960Y73690D01*
X97793D01*
X97710Y73773D01*
X98210Y74107D02*
X98293Y74190D01*
X98460D01*
X98543Y74107D01*
Y73773D01*
X98460Y73690D01*
X98293D01*
X98210Y73773D01*
Y74107D01*
X98710D02*
X98793Y74190D01*
X98960D01*
X99043Y74107D01*
Y73773D01*
X98960Y73690D01*
X98793D01*
X98710Y73773D01*
Y74107D01*
X100860Y74190D02*
Y73690D01*
Y74190D02*
X101110D01*
X101193Y74107D01*
Y73940D01*
X101110Y73857D01*
X100860D01*
X101027D02*
X101193Y73690D01*
X101360D02*
X101693D01*
X101360D02*
X101693Y74023D01*
Y74107D01*
X101610Y74190D01*
X101443D01*
X101360Y74107D01*
X101860Y73773D02*
X101943Y73690D01*
X102110D01*
X102193Y73773D01*
Y74107D01*
X102110Y74190D01*
X101943D01*
X101860Y74107D01*
Y74023D01*
X101943Y73940D01*
X102193D01*
X97843Y75190D02*
X97760Y75107D01*
X97843Y75190D02*
X98010D01*
X98093Y75107D01*
Y75023D01*
X98094D01*
X98093D02*
X98094D01*
X98093D02*
X98094D01*
X98093D02*
X98010Y74940D01*
X97927D01*
X98010D01*
X98093Y74857D01*
Y74773D01*
X98010Y74690D01*
X97843D01*
X97760Y74773D01*
X98260Y75107D02*
X98343Y75190D01*
X98510D01*
X98593Y75107D01*
Y74773D01*
X98510Y74690D01*
X98343D01*
X98260Y74773D01*
Y75107D01*
X98760D02*
X98843Y75190D01*
X99010D01*
X99093Y75107D01*
Y74773D01*
X99010Y74690D01*
X98843D01*
X98760Y74773D01*
Y75107D01*
X100910Y75190D02*
Y74690D01*
Y75190D02*
X101160D01*
X101243Y75107D01*
Y74940D01*
X101160Y74857D01*
X100910D01*
X101077D02*
X101243Y74690D01*
X101410D02*
X101743D01*
X101410D02*
X101743Y75023D01*
Y75107D01*
X101660Y75190D01*
X101493D01*
X101410Y75107D01*
X101910Y75190D02*
X102243D01*
Y75107D01*
X101910Y74773D01*
Y74690D01*
X97893Y76190D02*
X97810Y76107D01*
X97893Y76190D02*
X98060D01*
X98143Y76107D01*
Y76023D01*
X98144D01*
X98143D02*
X98144D01*
X98143D02*
X98144D01*
X98143D02*
X98060Y75940D01*
X97977D01*
X98060D01*
X98143Y75857D01*
Y75773D01*
X98060Y75690D01*
X97893D01*
X97810Y75773D01*
X98310Y76107D02*
X98393Y76190D01*
X98560D01*
X98643Y76107D01*
Y75773D01*
X98560Y75690D01*
X98393D01*
X98310Y75773D01*
Y76107D01*
X98810D02*
X98893Y76190D01*
X99060D01*
X99143Y76107D01*
Y75773D01*
X99060Y75690D01*
X98893D01*
X98810Y75773D01*
Y76107D01*
X100910Y76190D02*
Y75690D01*
Y76190D02*
X101160D01*
X101243Y76107D01*
Y75940D01*
X101160Y75857D01*
X100910D01*
X101077D02*
X101243Y75690D01*
X101410D02*
X101743D01*
X101410D02*
X101743Y76023D01*
Y76107D01*
X101660Y76190D01*
X101493D01*
X101410Y76107D01*
X101910Y76190D02*
X102243D01*
X101910D02*
Y75940D01*
X102076Y76023D01*
X102160D01*
X102243Y75940D01*
Y75773D01*
X102160Y75690D01*
X101993D01*
X101910Y75773D01*
X97793Y65690D02*
X97710Y65607D01*
X97793Y65690D02*
X97960D01*
X98043Y65607D01*
Y65523D01*
X98044D01*
X98043D02*
X98044D01*
X98043D02*
X98044D01*
X98043D02*
X97960Y65440D01*
X97877D01*
X97960D01*
X98043Y65357D01*
Y65273D01*
X97960Y65190D01*
X97793D01*
X97710Y65273D01*
X98210Y65607D02*
X98293Y65690D01*
X98460D01*
X98543Y65607D01*
Y65273D01*
X98460Y65190D01*
X98293D01*
X98210Y65273D01*
Y65607D01*
X98710D02*
X98793Y65690D01*
X98960D01*
X99043Y65607D01*
Y65273D01*
X98960Y65190D01*
X98793D01*
X98710Y65273D01*
Y65607D01*
X94610Y65740D02*
Y65240D01*
Y65740D02*
X94860D01*
X94943Y65657D01*
Y65490D01*
X94860Y65407D01*
X94610D01*
X94777D02*
X94943Y65240D01*
X95110D02*
X95443D01*
X95110D02*
X95443Y65573D01*
Y65657D01*
X95360Y65740D01*
X95193D01*
X95110Y65657D01*
X95610D02*
X95693Y65740D01*
X95860D01*
X95943Y65657D01*
Y65323D01*
X95860Y65240D01*
X95693D01*
X95610Y65323D01*
Y65657D01*
X97760Y66607D02*
X97843Y66690D01*
X98010D01*
X98093Y66607D01*
Y66523D01*
X98094D01*
X98093D02*
X98094D01*
X98093D02*
X98094D01*
X98093D02*
X98010Y66440D01*
X97927D01*
X98010D01*
X98093Y66357D01*
Y66273D01*
X98010Y66190D01*
X97843D01*
X97760Y66273D01*
X98260Y66607D02*
X98343Y66690D01*
X98510D01*
X98593Y66607D01*
Y66273D01*
X98510Y66190D01*
X98343D01*
X98260Y66273D01*
Y66607D01*
X98760D02*
X98843Y66690D01*
X99010D01*
X99093Y66607D01*
Y66273D01*
X99010Y66190D01*
X98843D01*
X98760Y66273D01*
Y66607D01*
X94610Y66640D02*
Y66140D01*
Y66640D02*
X94860D01*
X94943Y66557D01*
Y66390D01*
X94860Y66307D01*
X94610D01*
X94777D02*
X94943Y66140D01*
X95110D02*
X95276D01*
X95193D01*
Y66640D01*
X95194D01*
X95193D02*
X95110Y66557D01*
X95526Y66223D02*
X95610Y66140D01*
X95776D01*
X95860Y66223D01*
Y66557D01*
X95776Y66640D01*
X95610D01*
X95526Y66557D01*
Y66473D01*
X95610Y66390D01*
X95860D01*
X94093Y79590D02*
X93927D01*
X94010D01*
Y79173D01*
X93927Y79090D01*
X93843D01*
X93760Y79173D01*
X94260Y79090D02*
Y79590D01*
X94510D01*
X94593Y79507D01*
Y79340D01*
X94510Y79257D01*
X94260D01*
X94760Y79590D02*
X95093D01*
X94760D02*
Y79340D01*
X94926Y79423D01*
X95010D01*
X95093Y79340D01*
Y79173D01*
X95010Y79090D01*
X94843D01*
X94760Y79173D01*
X97893Y64690D02*
X97810Y64607D01*
X97893Y64690D02*
X98060D01*
X98143Y64607D01*
Y64523D01*
X98144D01*
X98143D02*
X98144D01*
X98143D02*
X98144D01*
X98143D02*
X98060Y64440D01*
X97977D01*
X98060D01*
X98143Y64357D01*
Y64273D01*
X98060Y64190D01*
X97893D01*
X97810Y64273D01*
X98310Y64607D02*
X98393Y64690D01*
X98560D01*
X98643Y64607D01*
Y64273D01*
X98560Y64190D01*
X98393D01*
X98310Y64273D01*
Y64607D01*
X98810D02*
X98893Y64690D01*
X99060D01*
X99143Y64607D01*
Y64273D01*
X99060Y64190D01*
X98893D01*
X98810Y64273D01*
Y64607D01*
X94710Y64690D02*
Y64190D01*
Y64690D02*
X94960D01*
X95043Y64607D01*
Y64440D01*
X94960Y64357D01*
X94710D01*
X94877D02*
X95043Y64190D01*
X95210D02*
X95543D01*
X95210D02*
X95543Y64523D01*
Y64607D01*
X95460Y64690D01*
X95293D01*
X95210Y64607D01*
X95710Y64190D02*
X95876D01*
X95793D01*
Y64690D01*
X95794D01*
X95793D02*
X95710Y64607D01*
X97810Y63607D02*
X97893Y63690D01*
X98060D01*
X98143Y63607D01*
Y63523D01*
X98144D01*
X98143D02*
X98144D01*
X98143D02*
X98144D01*
X98143D02*
X98060Y63440D01*
X97977D01*
X98060D01*
X98143Y63357D01*
Y63273D01*
X98060Y63190D01*
X97893D01*
X97810Y63273D01*
X98310Y63607D02*
X98393Y63690D01*
X98560D01*
X98643Y63607D01*
Y63273D01*
X98560Y63190D01*
X98393D01*
X98310Y63273D01*
Y63607D01*
X98810D02*
X98893Y63690D01*
X99060D01*
X99143Y63607D01*
Y63273D01*
X99060Y63190D01*
X98893D01*
X98810Y63273D01*
Y63607D01*
X94660Y63690D02*
Y63190D01*
Y63690D02*
X94910D01*
X94993Y63607D01*
Y63440D01*
X94910Y63357D01*
X94660D01*
X94827D02*
X94993Y63190D01*
X95160D02*
X95493D01*
X95160D02*
X95493Y63523D01*
Y63607D01*
X95410Y63690D01*
X95243D01*
X95160Y63607D01*
X95660Y63190D02*
X95993D01*
X95660D02*
X95993Y63523D01*
Y63607D01*
X95910Y63690D01*
X95743D01*
X95660Y63607D01*
X97760Y62657D02*
X97843Y62740D01*
X98010D01*
X98093Y62657D01*
Y62573D01*
X98094D01*
X98093D02*
X98094D01*
X98093D02*
X98094D01*
X98093D02*
X98010Y62490D01*
X97927D01*
X98010D01*
X98093Y62407D01*
Y62323D01*
X98010Y62240D01*
X97843D01*
X97760Y62323D01*
X98260Y62657D02*
X98343Y62740D01*
X98510D01*
X98593Y62657D01*
Y62323D01*
X98510Y62240D01*
X98343D01*
X98260Y62323D01*
Y62657D01*
X98760D02*
X98843Y62740D01*
X99010D01*
X99093Y62657D01*
Y62323D01*
X99010Y62240D01*
X98843D01*
X98760Y62323D01*
Y62657D01*
X94660Y62740D02*
Y62240D01*
Y62740D02*
X94910D01*
X94993Y62657D01*
Y62490D01*
X94910Y62407D01*
X94660D01*
X94827D02*
X94993Y62240D01*
X95160D02*
X95493D01*
X95160D02*
X95493Y62573D01*
Y62657D01*
X95410Y62740D01*
X95243D01*
X95160Y62657D01*
X95660D02*
X95743Y62740D01*
X95910D01*
X95993Y62657D01*
Y62573D01*
X95994D01*
X95993D02*
X95994D01*
X95993D02*
X95994D01*
X95993D02*
X95910Y62490D01*
X95826D01*
X95910D01*
X95993Y62407D01*
Y62323D01*
X95910Y62240D01*
X95743D01*
X95660Y62323D01*
X86610Y62790D02*
Y63290D01*
Y62790D02*
X86860D01*
X86943Y62873D01*
Y63207D01*
X86860Y63290D01*
X86610D01*
X87110D02*
X87276D01*
X87193D01*
Y62790D01*
X87110D01*
X87276D01*
X87526D02*
Y63290D01*
X87860Y62790D01*
Y63290D01*
X88526D02*
X88859D01*
X88526D02*
Y63040D01*
X88693Y63123D01*
X88776D01*
X88859Y63040D01*
Y62873D01*
X88776Y62790D01*
X88609D01*
X88526Y62873D01*
X84243Y66790D02*
X84077D01*
X84160D01*
Y66373D01*
X84077Y66290D01*
X83993D01*
X83910Y66373D01*
X84410Y66290D02*
X84743D01*
X84410D02*
X84743Y66623D01*
Y66707D01*
X84660Y66790D01*
X84493D01*
X84410Y66707D01*
X79843Y94490D02*
X79677D01*
X79760D01*
Y94073D01*
X79677Y93990D01*
X79593D01*
X79510Y94073D01*
X80010Y93990D02*
Y94490D01*
X80260D01*
X80343Y94407D01*
Y94240D01*
X80260Y94157D01*
X80010D01*
X80510Y94490D02*
X80843D01*
Y94407D01*
X80510Y94073D01*
Y93990D01*
X81860Y77690D02*
X82193D01*
X81860D02*
X82193Y78023D01*
Y78107D01*
X82110Y78190D01*
X81943D01*
X81860Y78107D01*
X82360Y78190D02*
X82693D01*
Y78107D01*
X82360Y77773D01*
Y77690D01*
X82860Y78107D02*
X82943Y78190D01*
X83110D01*
X83193Y78107D01*
Y77773D01*
X83110Y77690D01*
X82943D01*
X82860Y77773D01*
Y78107D01*
X84960Y78190D02*
Y77690D01*
Y78190D02*
X85210D01*
X85293Y78107D01*
Y77940D01*
X85210Y77857D01*
X84960D01*
X85127D02*
X85293Y77690D01*
X85460Y78107D02*
X85543Y78190D01*
X85710D01*
X85793Y78107D01*
Y78023D01*
X85794D01*
X85793D02*
X85794D01*
X85793D02*
X85794D01*
X85793D02*
X85710Y77940D01*
X85626D01*
X85710D01*
X85793Y77857D01*
Y77773D01*
X85710Y77690D01*
X85543D01*
X85460Y77773D01*
X85960Y78107D02*
X86043Y78190D01*
X86210D01*
X86293Y78107D01*
Y78023D01*
X86294D01*
X86293D02*
X86294D01*
X86293D02*
X86294D01*
X86293D02*
X86210Y77940D01*
X86126D01*
X86210D01*
X86293Y77857D01*
Y77773D01*
X86210Y77690D01*
X86043D01*
X85960Y77773D01*
X79243Y66690D02*
X78910D01*
X79243Y67023D01*
Y67107D01*
X79160Y67190D01*
X78993D01*
X78910Y67107D01*
X79410Y66690D02*
X79743D01*
X79410D02*
X79743Y67023D01*
Y67107D01*
X79660Y67190D01*
X79493D01*
X79410Y67107D01*
X79910D02*
X79993Y67190D01*
X80160D01*
X80243Y67107D01*
Y66773D01*
X80160Y66690D01*
X79993D01*
X79910Y66773D01*
Y67107D01*
X82060Y67190D02*
Y66690D01*
Y67190D02*
X82310D01*
X82393Y67107D01*
Y66940D01*
X82310Y66857D01*
X82060D01*
X82227D02*
X82393Y66690D01*
X82560Y67107D02*
X82643Y67190D01*
X82810D01*
X82893Y67107D01*
Y67023D01*
X82894D01*
X82893D02*
X82894D01*
X82893D02*
X82894D01*
X82893D02*
X82810Y66940D01*
X82726D01*
X82810D01*
X82893Y66857D01*
Y66773D01*
X82810Y66690D01*
X82643D01*
X82560Y66773D01*
X83226Y67107D02*
X83393Y67190D01*
X83226Y67107D02*
X83060Y66940D01*
Y66773D01*
X83143Y66690D01*
X83310D01*
X83393Y66773D01*
Y66857D01*
X83310Y66940D01*
X83060D01*
X78627Y67640D02*
X78460D01*
X78543D02*
X78627D01*
X78543D02*
Y68140D01*
X78544D01*
X78543D02*
X78460Y68057D01*
X78877Y68140D02*
Y67640D01*
X79210D02*
X78877Y68140D01*
X79210D02*
Y67640D01*
X79376Y67723D02*
X79460Y67640D01*
X79626D01*
X79710Y67723D01*
Y68057D01*
X79626Y68140D01*
X79460D01*
X79376Y68057D01*
Y67973D01*
X79460Y67890D01*
X79710D01*
X79876Y67640D02*
X80043D01*
X79960D01*
Y68140D01*
X79961D01*
X79960D02*
X79876Y68057D01*
X80543Y68140D02*
Y67640D01*
X80293Y67890D02*
X80543Y68140D01*
X80626Y67890D02*
X80293D01*
X82010Y67740D02*
Y68240D01*
Y67740D02*
X82260D01*
X82343Y67823D01*
Y68157D01*
X82260Y68240D01*
X82010D01*
X82510Y67740D02*
X82676D01*
X82593D01*
Y68240D01*
X82594D01*
X82593D02*
X82510Y68157D01*
X77610Y70190D02*
Y70690D01*
X77860D01*
X77943Y70607D01*
Y70440D01*
X77860Y70357D01*
X77610D01*
X78360Y70690D02*
X78443Y70607D01*
X78360Y70690D02*
X78193D01*
X78110Y70607D01*
Y70273D01*
X78193Y70190D01*
X78360D01*
X78443Y70273D01*
X78610D02*
X78693Y70190D01*
X78860D01*
X78943Y70273D01*
Y70607D01*
X78860Y70690D01*
X78693D01*
X78610Y70607D01*
Y70523D01*
X78693Y70440D01*
X78943D01*
X79110Y70607D02*
X79193Y70690D01*
X79359D01*
X79443Y70607D01*
Y70273D01*
X79359Y70190D01*
X79193D01*
X79110Y70273D01*
Y70607D01*
X79609D02*
X79693Y70690D01*
X79859D01*
X79943Y70607D01*
Y70273D01*
X79859Y70190D01*
X79693D01*
X79609Y70273D01*
Y70607D01*
X76210Y69090D02*
Y68673D01*
X76293Y68590D01*
X76460D01*
X76543Y68673D01*
Y69090D01*
X76710Y68590D02*
X76876D01*
X76793D01*
Y69090D01*
X76794D01*
X76793D02*
X76710Y69007D01*
X78910Y63290D02*
Y62790D01*
X79160D01*
X79243Y62873D01*
Y63207D01*
X79160Y63290D01*
X78910D01*
X79410D02*
X79576D01*
X79493D01*
Y62790D01*
X79410D01*
X79576D01*
X79826D02*
Y63290D01*
X80160Y62790D01*
Y63290D01*
X80826D02*
X81159D01*
X80826D02*
Y63040D01*
X80993Y63123D01*
X81076D01*
X81159Y63040D01*
Y62873D01*
X81076Y62790D01*
X80909D01*
X80826Y62873D01*
X76593Y66640D02*
X76427D01*
X76510D01*
Y66223D01*
X76427Y66140D01*
X76343D01*
X76260Y66223D01*
X76760Y66140D02*
X76926D01*
X76843D01*
Y66640D01*
X76844D01*
X76843D02*
X76760Y66557D01*
D13*
X77810Y66490D02*
Y65940D01*
X77993Y66307D02*
X77810Y66490D01*
X77993Y66307D02*
X78177Y66490D01*
Y65940D01*
X78360Y66490D02*
X78543D01*
X78451D01*
Y65940D01*
X78360D01*
X78543D01*
X78818D02*
Y66490D01*
Y65940D02*
X79093D01*
X79185Y66032D01*
Y66398D01*
X79093Y66490D01*
X78818D01*
X79368D02*
X79551D01*
X79459D01*
Y65940D01*
X79368D01*
X79551D01*
X80376Y66490D02*
X80559D01*
X80467D01*
Y65940D01*
X80376D01*
X80559D01*
X80834D02*
Y66490D01*
X81201Y65940D01*
Y66490D01*
X91460Y60240D02*
X92160D01*
X91693Y60473D02*
X91460Y60240D01*
X91693Y60473D02*
X91460Y60707D01*
X92160D01*
X91460Y60940D02*
Y61173D01*
Y61056D01*
X92160D01*
Y60940D01*
Y61173D01*
Y61523D02*
X91460D01*
X92160D02*
Y61873D01*
X92043Y61989D01*
X91577D01*
X91460Y61873D01*
Y61523D01*
Y62223D02*
Y62456D01*
Y62339D01*
X92160D01*
Y62223D01*
Y62456D01*
X91460Y63622D02*
Y63855D01*
Y63622D02*
X91577Y63506D01*
X92043D01*
X92160Y63622D01*
Y63855D01*
X92043Y63972D01*
X91577D01*
X91460Y63855D01*
Y64205D02*
X92043D01*
X92160Y64322D01*
Y64555D01*
X92043Y64672D01*
X91460D01*
Y64905D02*
Y65372D01*
Y65138D01*
X92160D01*
X95810Y78190D02*
Y78690D01*
X96060D01*
X96143Y78607D01*
Y78440D01*
X96060Y78357D01*
X95810D01*
X95977D02*
X96143Y78190D01*
X96643D02*
X96310Y78690D01*
X96643D02*
X96310Y78190D01*
X96810D02*
Y78690D01*
Y78190D02*
X97060D01*
X97143Y78273D01*
Y78607D01*
X97060Y78690D01*
X96810D01*
X92243Y78790D02*
X91910D01*
X92077D02*
X92243D01*
X92077D02*
Y78290D01*
X92410Y78790D02*
X92743Y78290D01*
X92410D02*
X92743Y78790D01*
X92910D02*
Y78290D01*
X93160D01*
X93243Y78373D01*
Y78707D01*
X93160Y78790D01*
X92910D01*
X98760Y85540D02*
Y86040D01*
X99010D01*
X99093Y85957D01*
Y85790D01*
X99010Y85707D01*
X98760D01*
X99343Y86040D02*
X99510D01*
X99343D02*
X99260Y85957D01*
Y85623D01*
X99343Y85540D01*
X99510D01*
X99593Y85623D01*
Y85957D01*
X99510Y86040D01*
X99760D02*
Y85540D01*
Y86040D02*
X100010D01*
X100093Y85957D01*
Y85790D01*
X100010Y85707D01*
X99760D01*
X99926D02*
X100093Y85540D01*
X100260Y86040D02*
X100593D01*
X100426D01*
Y85540D01*
X101009Y86040D02*
X101093Y85957D01*
X101009Y86040D02*
X100843D01*
X100759Y85957D01*
Y85623D01*
X100843Y85540D01*
X101009D01*
X101093Y85623D01*
X98710Y94390D02*
Y94890D01*
X98960D01*
X99043Y94807D01*
Y94640D01*
X98960Y94557D01*
X98710D01*
X99293Y94890D02*
X99460D01*
X99293D02*
X99210Y94807D01*
Y94473D01*
X99293Y94390D01*
X99460D01*
X99543Y94473D01*
Y94807D01*
X99460Y94890D01*
X99710D02*
Y94390D01*
Y94890D02*
X99960D01*
X100043Y94807D01*
Y94640D01*
X99960Y94557D01*
X99710D01*
X99876D02*
X100043Y94390D01*
X100210Y94890D02*
X100543D01*
X100376D01*
Y94390D01*
X100709D02*
Y94723D01*
X100876Y94890D01*
X101043Y94723D01*
Y94390D01*
Y94640D01*
X100709D01*
X98660Y77490D02*
Y76990D01*
Y77490D02*
X98910D01*
X98993Y77407D01*
Y77240D01*
X98910Y77157D01*
X98660D01*
X99243Y77490D02*
X99410D01*
X99243D02*
X99160Y77407D01*
Y77073D01*
X99243Y76990D01*
X99410D01*
X99493Y77073D01*
Y77407D01*
X99410Y77490D01*
X99660D02*
Y76990D01*
Y77490D02*
X99910D01*
X99993Y77407D01*
Y77240D01*
X99910Y77157D01*
X99660D01*
X99826D02*
X99993Y76990D01*
X100160Y77490D02*
X100493D01*
X100326D01*
Y76990D01*
X100659Y77490D02*
X100993D01*
X100659D02*
Y76990D01*
X100993D01*
X100826Y77240D02*
X100659D01*
X98860Y69590D02*
Y69090D01*
Y69590D02*
X99110D01*
X99193Y69507D01*
Y69340D01*
X99110Y69257D01*
X98860D01*
X99443Y69590D02*
X99610D01*
X99443D02*
X99360Y69507D01*
Y69173D01*
X99443Y69090D01*
X99610D01*
X99693Y69173D01*
Y69507D01*
X99610Y69590D01*
X99860D02*
Y69090D01*
Y69590D02*
X100110D01*
X100193Y69507D01*
Y69340D01*
X100110Y69257D01*
X99860D01*
X100026D02*
X100193Y69090D01*
X100360Y69590D02*
X100693D01*
X100526D01*
Y69090D01*
X101109Y69590D02*
X101193Y69507D01*
X101109Y69590D02*
X100943D01*
X100859Y69507D01*
Y69173D01*
X100943Y69090D01*
X101109D01*
X101193Y69173D01*
Y69340D01*
X101026D01*
X81260Y94040D02*
Y94373D01*
X81427Y94540D01*
X81593Y94373D01*
Y94040D01*
Y94290D01*
X81260D01*
X81760Y94040D02*
X82093D01*
X81760D02*
X82093Y94373D01*
Y94457D01*
X82010Y94540D01*
X81843D01*
X81760Y94457D01*
X82260Y94207D02*
X82426Y94040D01*
X82260Y94207D02*
Y94373D01*
X82426Y94540D01*
X82926D02*
X83009Y94457D01*
X82926Y94540D02*
X82760D01*
X82676Y94457D01*
Y94373D01*
X82760Y94290D01*
X82926D01*
X83009Y94207D01*
Y94123D01*
X82926Y94040D01*
X82760D01*
X82676Y94123D01*
X83176Y94040D02*
Y94540D01*
X83426D01*
X83509Y94457D01*
Y94290D01*
X83426Y94207D01*
X83176D01*
X83676Y94457D02*
X83759Y94540D01*
X83926D01*
X84009Y94457D01*
Y94373D01*
X84010D01*
X84009D02*
X84010D01*
X84009D02*
X84010D01*
X84009D02*
X83926Y94290D01*
X83842D01*
X83926D01*
X84009Y94207D01*
Y94123D01*
X83926Y94040D01*
X83759D01*
X83676Y94123D01*
X84176Y94040D02*
Y94540D01*
Y94040D02*
X84426D01*
X84509Y94123D01*
Y94207D01*
X84426Y94290D01*
X84176D01*
X84177D01*
X84176D02*
X84177D01*
X84176D02*
X84177D01*
X84176D02*
X84426D01*
X84509Y94373D01*
Y94457D01*
X84426Y94540D01*
X84176D01*
X84759D02*
X84925D01*
X84759D02*
X84676Y94457D01*
Y94123D01*
X84759Y94040D01*
X84925D01*
X85009Y94123D01*
Y94457D01*
X84925Y94540D01*
X85175Y94373D02*
Y94040D01*
Y94373D02*
X85342Y94540D01*
X85509Y94373D01*
Y94040D01*
Y94290D01*
X85175D01*
X85675Y94040D02*
Y94540D01*
X85925D01*
X86008Y94457D01*
Y94290D01*
X85925Y94207D01*
X85675D01*
X85842D02*
X86008Y94040D01*
X86175D02*
Y94540D01*
Y94040D02*
X86425D01*
X86508Y94123D01*
Y94457D01*
X86425Y94540D01*
X86175D01*
X86675Y94040D02*
X86842Y94207D01*
Y94373D01*
X86675Y94540D01*
X79460Y93690D02*
Y93357D01*
X79627Y93190D01*
X79793Y93357D01*
Y93690D01*
X79960Y93607D02*
X80043Y93690D01*
X80210D01*
X80293Y93607D01*
Y93523D01*
X80294D01*
X80293D02*
X80294D01*
X80293D02*
X80294D01*
X80293D02*
X80210Y93440D01*
X80126D01*
X80210D01*
X80293Y93357D01*
Y93273D01*
X80210Y93190D01*
X80043D01*
X79960Y93273D01*
X80460D02*
Y93190D01*
Y93273D02*
X80543D01*
Y93190D01*
X80460D01*
X80876Y93607D02*
X80960Y93690D01*
X81126D01*
X81209Y93607D01*
Y93523D01*
X81210D01*
X81209D02*
X81210D01*
X81209D02*
X81210D01*
X81209D02*
X81126Y93440D01*
X81043D01*
X81126D01*
X81209Y93357D01*
Y93273D01*
X81126Y93190D01*
X80960D01*
X80876Y93273D01*
X76393Y94490D02*
X76060D01*
X76227Y94657D02*
Y94323D01*
X76560Y94740D02*
X76893D01*
X76560D02*
Y94490D01*
X76726Y94573D01*
X76810D01*
X76893Y94490D01*
Y94323D01*
X76810Y94240D01*
X76643D01*
X76560Y94323D01*
X76443Y93690D02*
X76110D01*
Y93190D01*
X76443D01*
X76277Y93440D02*
X76110D01*
X76776Y93607D02*
X76943Y93690D01*
X76776Y93607D02*
X76610Y93440D01*
Y93273D01*
X76693Y93190D01*
X76860D01*
X76943Y93273D01*
Y93357D01*
X76860Y93440D01*
X76610D01*
X76360Y92640D02*
X76443Y92557D01*
X76360Y92640D02*
X76193D01*
X76110Y92557D01*
Y92223D01*
X76193Y92140D01*
X76360D01*
X76443Y92223D01*
X76610Y92640D02*
X76943D01*
X76610D02*
Y92390D01*
X76776Y92473D01*
X76860D01*
X76943Y92390D01*
Y92223D01*
X76860Y92140D01*
X76693D01*
X76610Y92223D01*
X76360Y91740D02*
X76443Y91657D01*
X76360Y91740D02*
X76193D01*
X76110Y91657D01*
Y91323D01*
X76193Y91240D01*
X76360D01*
X76443Y91323D01*
X76776Y91657D02*
X76943Y91740D01*
X76776Y91657D02*
X76610Y91490D01*
Y91323D01*
X76693Y91240D01*
X76860D01*
X76943Y91323D01*
Y91407D01*
X76860Y91490D01*
X76610D01*
X76360Y90690D02*
X76443Y90607D01*
X76360Y90690D02*
X76193D01*
X76110Y90607D01*
Y90273D01*
X76193Y90190D01*
X76360D01*
X76443Y90273D01*
X76610Y90690D02*
X76943D01*
Y90607D01*
X76610Y90273D01*
Y90190D01*
X76360Y89690D02*
X76443Y89607D01*
X76360Y89690D02*
X76193D01*
X76110Y89607D01*
Y89273D01*
X76193Y89190D01*
X76360D01*
X76443Y89273D01*
X76610Y89607D02*
X76693Y89690D01*
X76860D01*
X76943Y89607D01*
Y89523D01*
X76860Y89440D01*
X76943Y89357D01*
Y89273D01*
X76860Y89190D01*
X76693D01*
X76610Y89273D01*
Y89357D01*
X76693Y89440D01*
X76610Y89523D01*
Y89607D01*
X76693Y89440D02*
X76860D01*
X76310Y88790D02*
X76393Y88707D01*
X76310Y88790D02*
X76143D01*
X76060Y88707D01*
Y88373D01*
X76143Y88290D01*
X76310D01*
X76393Y88373D01*
X76560D02*
X76643Y88290D01*
X76810D01*
X76893Y88373D01*
Y88707D01*
X76810Y88790D01*
X76643D01*
X76560Y88707D01*
Y88623D01*
X76643Y88540D01*
X76893D01*
X76110Y87573D02*
Y87240D01*
Y87573D02*
X76277Y87740D01*
X76443Y87573D01*
Y87240D01*
Y87490D01*
X76110D01*
X76610Y87657D02*
X76693Y87740D01*
X76860D01*
X76943Y87657D01*
Y87573D01*
X76944D01*
X76943D02*
X76944D01*
X76943D02*
X76944D01*
X76943D02*
X76860Y87490D01*
X76776D01*
X76860D01*
X76943Y87407D01*
Y87323D01*
X76860Y87240D01*
X76693D01*
X76610Y87323D01*
X76110Y86523D02*
Y86190D01*
Y86523D02*
X76277Y86690D01*
X76443Y86523D01*
Y86190D01*
Y86440D01*
X76110D01*
X76860Y86190D02*
Y86690D01*
X76610Y86440D01*
X76943D01*
X76110Y85590D02*
Y85290D01*
Y85590D02*
X76260Y85740D01*
X76410Y85590D01*
Y85290D01*
Y85515D01*
X76110D01*
X76560Y85740D02*
X76860D01*
X76560D02*
Y85515D01*
X76710Y85590D01*
X76785D01*
X76860Y85515D01*
Y85365D01*
X76785Y85290D01*
X76635D01*
X76560Y85365D01*
X76160Y84740D02*
Y84290D01*
X76385D01*
X76460Y84365D01*
Y84440D01*
X76385Y84515D01*
X76160D01*
X76161D01*
X76160D02*
X76161D01*
X76160D02*
X76161D01*
X76160D02*
X76385D01*
X76460Y84590D01*
Y84665D01*
X76385Y84740D01*
X76160D01*
X76610D02*
X76910D01*
Y84665D01*
X76610Y84365D01*
Y84290D01*
X76110Y83690D02*
Y83240D01*
X76335D01*
X76410Y83315D01*
Y83390D01*
X76335Y83465D01*
X76110D01*
X76111D01*
X76110D02*
X76111D01*
X76110D02*
X76111D01*
X76110D02*
X76335D01*
X76410Y83540D01*
Y83615D01*
X76335Y83690D01*
X76110D01*
X76560Y83615D02*
X76635Y83690D01*
X76785D01*
X76860Y83615D01*
Y83540D01*
X76785Y83465D01*
X76860Y83390D01*
Y83315D01*
X76785Y83240D01*
X76635D01*
X76560Y83315D01*
Y83390D01*
X76635Y83465D01*
X76560Y83540D01*
Y83615D01*
X76635Y83465D02*
X76785D01*
X76160Y82490D02*
Y82190D01*
Y82490D02*
X76310Y82640D01*
X76460Y82490D01*
Y82190D01*
Y82415D01*
X76160D01*
X76610Y82265D02*
X76685Y82190D01*
X76835D01*
X76910Y82265D01*
Y82565D01*
X76835Y82640D01*
X76685D01*
X76610Y82565D01*
Y82490D01*
X76685Y82415D01*
X76910D01*
X76110Y77690D02*
Y77240D01*
X76335D01*
X76410Y77315D01*
Y77390D01*
X76335Y77465D01*
X76110D01*
X76111D01*
X76110D02*
X76111D01*
X76110D02*
X76111D01*
X76110D02*
X76335D01*
X76410Y77540D01*
Y77615D01*
X76335Y77690D01*
X76110D01*
X76560Y77615D02*
X76635Y77690D01*
X76785D01*
X76860Y77615D01*
Y77540D01*
X76861D01*
X76860D02*
X76861D01*
X76860D02*
X76861D01*
X76860D02*
X76785Y77465D01*
X76710D01*
X76785D01*
X76860Y77390D01*
Y77315D01*
X76785Y77240D01*
X76635D01*
X76560Y77315D01*
X79360Y92190D02*
Y92640D01*
Y92190D02*
X79585D01*
X79660Y92265D01*
Y92565D01*
X79585Y92640D01*
X79360D01*
X79810D02*
X80110D01*
X79810D02*
Y92415D01*
X79960Y92490D01*
X80035D01*
X80110Y92415D01*
Y92265D01*
X80035Y92190D01*
X79885D01*
X79810Y92265D01*
X79210Y91690D02*
Y91240D01*
X79435D01*
X79510Y91315D01*
Y91615D01*
X79435Y91690D01*
X79210D01*
X79810Y91615D02*
X79960Y91690D01*
X79810Y91615D02*
X79660Y91465D01*
Y91315D01*
X79735Y91240D01*
X79885D01*
X79960Y91315D01*
Y91390D01*
X79885Y91465D01*
X79660D01*
X79360Y82590D02*
Y82290D01*
Y82590D02*
X79510Y82740D01*
X79660Y82590D01*
Y82290D01*
Y82515D01*
X79360D01*
X79810Y82665D02*
X79885Y82740D01*
X80035D01*
X80110Y82665D01*
Y82590D01*
X80035Y82515D01*
X80110Y82440D01*
Y82365D01*
X80035Y82290D01*
X79885D01*
X79810Y82365D01*
Y82440D01*
X79885Y82515D01*
X79810Y82590D01*
Y82665D01*
X79885Y82515D02*
X80035D01*
X79360Y83240D02*
Y83540D01*
X79510Y83690D01*
X79660Y83540D01*
Y83240D01*
Y83465D01*
X79360D01*
X79810Y83690D02*
X80110D01*
Y83615D01*
X79810Y83315D01*
Y83240D01*
X79360Y84290D02*
Y84740D01*
Y84290D02*
X79585D01*
X79660Y84365D01*
Y84440D01*
X79585Y84515D01*
X79360D01*
X79361D01*
X79360D02*
X79361D01*
X79360D02*
X79361D01*
X79360D02*
X79585D01*
X79660Y84590D01*
Y84665D01*
X79585Y84740D01*
X79360D01*
X79960Y84665D02*
X80110Y84740D01*
X79960Y84665D02*
X79810Y84515D01*
Y84365D01*
X79885Y84290D01*
X80035D01*
X80110Y84365D01*
Y84440D01*
X80035Y84515D01*
X79810D01*
X79360Y85340D02*
Y85790D01*
Y85340D02*
X79585D01*
X79660Y85415D01*
Y85490D01*
X79585Y85565D01*
X79360D01*
X79361D01*
X79360D02*
X79361D01*
X79360D02*
X79361D01*
X79360D02*
X79585D01*
X79660Y85640D01*
Y85715D01*
X79585Y85790D01*
X79360D01*
X79810D02*
X80110D01*
X79810D02*
Y85565D01*
X79960Y85640D01*
X80035D01*
X80110Y85565D01*
Y85415D01*
X80035Y85340D01*
X79885D01*
X79810Y85415D01*
X79360Y86290D02*
Y86740D01*
Y86290D02*
X79585D01*
X79660Y86365D01*
Y86440D01*
X79585Y86515D01*
X79360D01*
X79361D01*
X79360D02*
X79361D01*
X79360D02*
X79361D01*
X79360D02*
X79585D01*
X79660Y86590D01*
Y86665D01*
X79585Y86740D01*
X79360D01*
X80035D02*
Y86290D01*
X79810Y86515D02*
X80035Y86740D01*
X80110Y86515D02*
X79810D01*
X79210Y87190D02*
Y87640D01*
Y87190D02*
X79435D01*
X79510Y87265D01*
Y87565D01*
X79435Y87640D01*
X79210D01*
X79660Y87190D02*
X79810D01*
X79735D01*
Y87640D01*
X79736D01*
X79735D02*
X79660Y87565D01*
X80035D02*
X80110Y87640D01*
X80260D01*
X80335Y87565D01*
Y87265D01*
X80260Y87190D01*
X80110D01*
X80035Y87265D01*
Y87565D01*
X79310Y88290D02*
Y88740D01*
Y88290D02*
X79535D01*
X79610Y88365D01*
Y88665D01*
X79535Y88740D01*
X79310D01*
X79760Y88665D02*
X79835Y88740D01*
X79985D01*
X80060Y88665D01*
Y88590D01*
X79985Y88515D01*
X80060Y88440D01*
Y88365D01*
X79985Y88290D01*
X79835D01*
X79760Y88365D01*
Y88440D01*
X79835Y88515D01*
X79760Y88590D01*
Y88665D01*
X79835Y88515D02*
X79985D01*
X79310Y89240D02*
Y89690D01*
Y89240D02*
X79535D01*
X79610Y89315D01*
Y89615D01*
X79535Y89690D01*
X79310D01*
X79760D02*
X80060D01*
Y89615D01*
X79760Y89315D01*
Y89240D01*
X79560Y90690D02*
X79260D01*
Y90240D01*
X79560D01*
X79410Y90465D02*
X79260D01*
X79710Y90690D02*
X80010D01*
Y90615D01*
X79710Y90315D01*
Y90240D01*
X79260Y81690D02*
Y81240D01*
X79485D01*
X79560Y81315D01*
Y81390D01*
X79485Y81465D01*
X79260D01*
X79261D01*
X79260D02*
X79261D01*
X79260D02*
X79261D01*
X79260D02*
X79485D01*
X79560Y81540D01*
Y81615D01*
X79485Y81690D01*
X79260D01*
X79710Y81240D02*
X79860D01*
X79785D01*
Y81690D01*
X79786D01*
X79785D02*
X79710Y81615D01*
X80085D02*
X80160Y81690D01*
X80310D01*
X80385Y81615D01*
Y81315D01*
X80310Y81240D01*
X80160D01*
X80085Y81315D01*
Y81615D01*
X79310Y80690D02*
Y80240D01*
X79535D01*
X79610Y80315D01*
Y80390D01*
X79535Y80465D01*
X79310D01*
X79311D01*
X79310D02*
X79311D01*
X79310D02*
X79311D01*
X79310D02*
X79535D01*
X79610Y80540D01*
Y80615D01*
X79535Y80690D01*
X79310D01*
X79760Y80240D02*
X79910D01*
X79835D01*
Y80690D01*
X79836D01*
X79835D02*
X79760Y80615D01*
X80135Y80240D02*
X80285D01*
X80210D01*
Y80690D01*
X80211D01*
X80210D02*
X80135Y80615D01*
X79210Y79590D02*
Y79290D01*
Y79590D02*
X79360Y79740D01*
X79510Y79590D01*
Y79290D01*
Y79515D01*
X79210D01*
X79660Y79290D02*
X79810D01*
X79735D01*
Y79740D01*
X79736D01*
X79735D02*
X79660Y79665D01*
X80035Y79290D02*
X80335D01*
X80035D02*
X80335Y79590D01*
Y79665D01*
X80260Y79740D01*
X80110D01*
X80035Y79665D01*
X79260Y78640D02*
Y78340D01*
Y78640D02*
X79410Y78790D01*
X79560Y78640D01*
Y78340D01*
Y78565D01*
X79260D01*
X79710Y78340D02*
X79860D01*
X79785D01*
Y78790D01*
X79786D01*
X79785D02*
X79710Y78715D01*
X80085D02*
X80160Y78790D01*
X80310D01*
X80385Y78715D01*
Y78640D01*
X80386D01*
X80385D02*
X80386D01*
X80385D02*
X80386D01*
X80385D02*
X80310Y78565D01*
X80235D01*
X80310D01*
X80385Y78490D01*
Y78415D01*
X80310Y78340D01*
X80160D01*
X80085Y78415D01*
X79260Y77840D02*
Y77390D01*
X79485D01*
X79560Y77465D01*
Y77765D01*
X79485Y77840D01*
X79260D01*
X79710Y77465D02*
X79785Y77390D01*
X79935D01*
X80010Y77465D01*
Y77765D01*
X79935Y77840D01*
X79785D01*
X79710Y77765D01*
Y77690D01*
X79785Y77615D01*
X80010D01*
X79360Y76790D02*
Y76340D01*
Y76790D02*
X79585D01*
X79660Y76715D01*
Y76565D01*
X79585Y76490D01*
X79360D01*
X79510D02*
X79660Y76340D01*
X79810D02*
X79960D01*
X79885D01*
Y76790D01*
X79886D01*
X79885D02*
X79810Y76715D01*
X80410Y76790D02*
Y76340D01*
X80185Y76565D02*
X80410Y76790D01*
X80485Y76565D02*
X80185D01*
X79560Y75690D02*
X79260D01*
X79410D02*
X79560D01*
X79410D02*
Y75240D01*
X79710D02*
X79860D01*
X79785D01*
Y75690D01*
X79786D01*
X79785D02*
X79710Y75615D01*
X80085Y75690D02*
X80385D01*
X80085D02*
Y75465D01*
X80235Y75540D01*
X80310D01*
X80385Y75465D01*
Y75315D01*
X80310Y75240D01*
X80160D01*
X80085Y75315D01*
X81410Y75465D02*
X81635Y75240D01*
X81410Y75465D02*
X81635Y75690D01*
X81860Y75465D02*
X82160D01*
X82310Y75240D02*
Y75690D01*
X82460Y75540D01*
X82610Y75690D01*
Y75240D01*
X82760D02*
X82910D01*
X82835D01*
Y75690D01*
X82836D01*
X82835D02*
X82760Y75615D01*
X83134Y75240D02*
X83284D01*
X83209D01*
Y75690D01*
X83210D01*
X83209D02*
X83134Y75615D01*
X76060Y76290D02*
Y76740D01*
X76360Y76290D01*
Y76740D01*
X76510Y76365D02*
X76585Y76290D01*
X76735D01*
X76810Y76365D01*
Y76665D01*
X76735Y76740D01*
X76585D01*
X76510Y76665D01*
Y76590D01*
X76585Y76515D01*
X76810D01*
X81210Y78715D02*
X81435Y78490D01*
X81210Y78715D02*
X81435Y78940D01*
X81660Y78715D02*
X81960D01*
X82110Y78490D02*
Y78940D01*
Y78490D02*
X82335D01*
X82410Y78565D01*
Y78640D01*
X82335Y78715D01*
X82110D01*
X82111D01*
X82110D02*
X82111D01*
X82110D02*
X82111D01*
X82110D02*
X82335D01*
X82410Y78790D01*
Y78865D01*
X82335Y78940D01*
X82110D01*
X82560Y78490D02*
X82710D01*
X82635D01*
Y78940D01*
X82636D01*
X82635D02*
X82560Y78865D01*
X83159Y78940D02*
Y78490D01*
X82934Y78715D02*
X83159Y78940D01*
X83234Y78715D02*
X82934D01*
X81435Y79290D02*
X81210Y79515D01*
X81435Y79740D01*
X81660Y79515D02*
X81960D01*
X82110Y79290D02*
Y79740D01*
Y79290D02*
X82335D01*
X82410Y79365D01*
Y79440D01*
X82335Y79515D01*
X82110D01*
X82111D01*
X82110D02*
X82111D01*
X82110D02*
X82111D01*
X82110D02*
X82335D01*
X82410Y79590D01*
Y79665D01*
X82335Y79740D01*
X82110D01*
X82560Y79290D02*
X82710D01*
X82635D01*
Y79740D01*
X82636D01*
X82635D02*
X82560Y79665D01*
X82934D02*
X83009Y79740D01*
X83159D01*
X83234Y79665D01*
Y79590D01*
X83235D01*
X83234D02*
X83235D01*
X83234D02*
X83235D01*
X83234D02*
X83159Y79515D01*
X83084D01*
X83159D01*
X83234Y79440D01*
Y79365D01*
X83159Y79290D01*
X83009D01*
X82934Y79365D01*
X81485Y80240D02*
X81260Y80465D01*
X81485Y80690D01*
X81710Y80465D02*
X82010D01*
X82160Y80240D02*
Y80690D01*
Y80240D02*
X82385D01*
X82460Y80315D01*
Y80390D01*
X82385Y80465D01*
X82160D01*
X82161D01*
X82160D02*
X82161D01*
X82160D02*
X82161D01*
X82160D02*
X82385D01*
X82460Y80540D01*
Y80615D01*
X82385Y80690D01*
X82160D01*
X82610Y80240D02*
X82760D01*
X82685D01*
Y80690D01*
X82686D01*
X82685D02*
X82610Y80615D01*
X82984Y80240D02*
X83284D01*
X82984D02*
X83284Y80540D01*
Y80615D01*
X83209Y80690D01*
X83059D01*
X82984Y80615D01*
X81485Y81190D02*
X81260Y81415D01*
X81485Y81640D01*
X81710Y81415D02*
X82010D01*
X82160Y81490D02*
Y81190D01*
Y81490D02*
X82310Y81640D01*
X82460Y81490D01*
Y81190D01*
Y81415D01*
X82160D01*
X82610Y81190D02*
X82760D01*
X82685D01*
Y81640D01*
X82686D01*
X82685D02*
X82610Y81565D01*
X82984D02*
X83059Y81640D01*
X83209D01*
X83284Y81565D01*
Y81265D01*
X83209Y81190D01*
X83059D01*
X82984Y81265D01*
Y81565D01*
X81577Y82257D02*
X81460Y82140D01*
Y81907D01*
X81577Y81790D01*
X82043D01*
X82160Y81907D01*
Y82140D01*
X82043Y82257D01*
X81460Y82606D02*
Y82840D01*
Y82606D02*
X81577Y82490D01*
X82043D01*
X82160Y82606D01*
Y82840D01*
X82043Y82956D01*
X81577D01*
X81460Y82840D01*
Y83190D02*
X82160D01*
X81460D02*
Y83539D01*
X81577Y83656D01*
X81810D01*
X81927Y83539D01*
Y83190D01*
X81577Y83889D02*
X81460D01*
X81577D02*
X81810Y84123D01*
X81577Y84356D01*
X81460D01*
X81810Y84123D02*
X82160D01*
Y84589D02*
X81460D01*
Y84939D01*
X81577Y85056D01*
X81810D01*
X81927Y84939D01*
Y84589D01*
Y84822D02*
X82160Y85056D01*
X81460Y85289D02*
Y85522D01*
Y85405D01*
X82160D01*
Y85289D01*
Y85522D01*
X81460Y86222D02*
X81577Y86339D01*
X81460Y86222D02*
Y85989D01*
X81577Y85872D01*
X82043D01*
X82160Y85989D01*
Y86222D01*
X82043Y86339D01*
X81810D01*
Y86105D01*
X81460Y86572D02*
X82160D01*
X81810D01*
Y87038D01*
X81460D01*
X82160D01*
X81460Y87272D02*
Y87738D01*
Y87505D01*
X82160D01*
X81927Y88671D02*
X82160Y88904D01*
X81927Y88671D02*
X81693D01*
X81460Y88904D01*
Y89604D02*
X81577Y89721D01*
X81460Y89604D02*
Y89371D01*
X81577Y89254D01*
X82043D01*
X82160Y89371D01*
Y89604D01*
X82043Y89721D01*
X82160Y89954D02*
X81927Y90187D01*
X81693D01*
X81460Y89954D01*
X82160Y91237D02*
Y91703D01*
Y91237D02*
X81693Y91703D01*
X81577D01*
X81460Y91587D01*
Y91354D01*
X81577Y91237D01*
Y91937D02*
X81460Y92053D01*
Y92287D01*
X81577Y92403D01*
X82043D01*
X82160Y92287D01*
Y92053D01*
X82043Y91937D01*
X81577D01*
Y92637D02*
X81460Y92753D01*
Y92986D01*
X81577Y93103D01*
X82043D01*
X82160Y92986D01*
Y92753D01*
X82043Y92637D01*
X81577D01*
Y93336D02*
X81460Y93453D01*
Y93686D01*
X81577Y93803D01*
X81693D01*
X81810Y93686D01*
X81927Y93803D01*
X82043D01*
X82160Y93686D01*
Y93453D01*
X82043Y93336D01*
X81927D01*
X81810Y93453D01*
X81693Y93336D01*
X81577D01*
X81810Y93453D02*
Y93686D01*
X82460Y83607D02*
Y83373D01*
Y83490D01*
X83043D01*
X83160Y83373D01*
Y83257D01*
X83043Y83140D01*
X83160Y83840D02*
X82693D01*
X82460Y84073D01*
X82693Y84306D01*
X83160D01*
X82810D01*
Y83840D01*
X83160Y84540D02*
X82460D01*
X82693Y84773D01*
X82460Y85006D01*
X83160D01*
X82460Y85239D02*
Y85706D01*
Y85239D02*
X83160D01*
Y85706D01*
X82810Y85473D02*
Y85239D01*
X82460Y86289D02*
X82577Y86406D01*
X82460Y86289D02*
Y86056D01*
X82577Y85939D01*
X82693D01*
X82810Y86056D01*
Y86289D01*
X82927Y86406D01*
X83043D01*
X83160Y86289D01*
Y86056D01*
X83043Y85939D01*
X83160Y87339D02*
X82460D01*
Y87689D01*
X82577Y87805D01*
X82810D01*
X82927Y87689D01*
Y87339D01*
X83160Y88038D02*
X82693D01*
X82460Y88272D01*
X82693Y88505D01*
X83160D01*
X82810D01*
Y88038D01*
X82460Y88738D02*
Y89205D01*
Y88971D01*
X83160D01*
X82460Y89788D02*
X82577Y89904D01*
X82460Y89788D02*
Y89555D01*
X82577Y89438D01*
X83043D01*
X83160Y89555D01*
Y89788D01*
X83043Y89904D01*
X83160Y90138D02*
X82460D01*
X82810D02*
X83160D01*
X82810D02*
Y90604D01*
X82460D01*
X83160D01*
X82460Y90838D02*
Y91304D01*
Y90838D02*
X83160D01*
Y91304D01*
X82810Y91071D02*
Y90838D01*
X82460Y91537D02*
X83160D01*
Y92004D01*
Y92237D02*
X82460D01*
X83160D02*
Y92704D01*
X76093Y100690D02*
X75760D01*
X75927D02*
X76093D01*
X75927D02*
Y101690D01*
X75928D01*
X75927D02*
X75760Y101523D01*
X76593D02*
X76760Y101690D01*
X77093D01*
X77260Y101523D01*
Y100857D01*
X77093Y100690D01*
X76760D01*
X76593Y100857D01*
Y101523D01*
X77593D02*
X77759Y101690D01*
X78093D01*
X78259Y101523D01*
Y100857D01*
X78093Y100690D01*
X77759D01*
X77593Y100857D01*
Y101523D01*
X78592Y101190D02*
X79259D01*
X79592Y100690D02*
X79925D01*
X79759D01*
Y101690D01*
X79760D01*
X79759D02*
X79592Y101523D01*
X80425D02*
X80592Y101690D01*
X80925D01*
X81092Y101523D01*
Y100857D01*
X80925Y100690D01*
X80592D01*
X80425Y100857D01*
Y101523D01*
X81425Y101690D02*
X82091D01*
X81425D02*
Y101190D01*
X81758Y101356D01*
X81925D01*
X82091Y101190D01*
Y100857D01*
X81925Y100690D01*
X81591D01*
X81425Y100857D01*
X82758Y101523D02*
X83091Y101690D01*
X82758Y101523D02*
X82425Y101190D01*
Y100857D01*
X82591Y100690D01*
X82924D01*
X83091Y100857D01*
Y101023D01*
X82924Y101190D01*
X82425D01*
X83424D02*
X84091D01*
X84424Y101523D02*
X84590Y101690D01*
X84924D01*
X85090Y101523D01*
Y100857D01*
X84924Y100690D01*
X84590D01*
X84424Y100857D01*
Y101523D01*
X85424Y101690D02*
X86090D01*
X85424D02*
Y101190D01*
X85757Y101356D01*
X85923D01*
X86090Y101190D01*
Y100857D01*
X85923Y100690D01*
X85590D01*
X85424Y100857D01*
X87423Y100690D02*
Y101690D01*
X87923D01*
X88089Y101523D01*
Y101190D01*
X87923Y101023D01*
X87423D01*
X87756D02*
X88089Y100690D01*
X88423Y101690D02*
X89089D01*
X88423D02*
Y100690D01*
X89089D01*
X88756Y101190D02*
X88423D01*
X89422Y101023D02*
Y101690D01*
Y101023D02*
X89755Y100690D01*
X90089Y101023D01*
Y101690D01*
X91422Y101356D02*
Y100690D01*
Y101356D02*
X91755Y101690D01*
X92088Y101356D01*
Y100690D01*
Y101190D01*
X91422D01*
X93921Y101690D02*
X94087Y101523D01*
X93921Y101690D02*
X93588D01*
X93421Y101523D01*
Y100857D01*
X93588Y100690D01*
X93921D01*
X94087Y100857D01*
X94587Y101690D02*
X94920D01*
X94587D02*
X94421Y101523D01*
Y100857D01*
X94587Y100690D01*
X94920D01*
X95087Y100857D01*
Y101523D01*
X94920Y101690D01*
X95420D02*
Y100690D01*
X95754Y101356D02*
X95420Y101690D01*
X95754Y101356D02*
X96087Y101690D01*
Y100690D01*
X96420D02*
Y101690D01*
X96920D01*
X97086Y101523D01*
Y101190D01*
X96920Y101023D01*
X96420D01*
X97586Y101690D02*
X97920D01*
X97586D02*
X97420Y101523D01*
Y100857D01*
X97586Y100690D01*
X97920D01*
X98086Y100857D01*
Y101523D01*
X97920Y101690D01*
X98419D02*
Y100690D01*
X99086D02*
X98419Y101690D01*
X99086D02*
Y100690D01*
X99419Y101690D02*
X100085D01*
X99419D02*
Y100690D01*
X100085D01*
X99752Y101190D02*
X99419D01*
X100419Y100690D02*
Y101690D01*
X101085Y100690D01*
Y101690D01*
X101418D02*
X102085D01*
X101752D01*
Y100690D01*
X103418D02*
Y101690D01*
Y100690D02*
X104084D01*
X104417Y101690D02*
X105084D01*
X104417D02*
Y100690D01*
X105084D01*
X104751Y101190D02*
X104417D01*
X105917Y101690D02*
X106084Y101523D01*
X105917Y101690D02*
X105584D01*
X105417Y101523D01*
Y100857D01*
X105584Y100690D01*
X105917D01*
X106084Y100857D01*
Y101190D01*
X105750D01*
X106417Y101690D02*
X107083D01*
X106417D02*
Y100690D01*
X107083D01*
X106750Y101190D02*
X106417D01*
X107416Y100690D02*
Y101690D01*
X108083Y100690D01*
Y101690D01*
X108416D02*
Y100690D01*
X108916D01*
X109083Y100857D01*
Y101523D01*
X108916Y101690D01*
X108416D01*
X103010Y84940D02*
Y83940D01*
Y84940D02*
X104010D01*
X103010Y92440D02*
Y93440D01*
X104010D01*
X103010Y67940D02*
Y66940D01*
Y67940D02*
X104010D01*
X103010Y75440D02*
Y76440D01*
X104010D01*
X91010Y65940D02*
Y59940D01*
X84010D02*
Y65940D01*
Y59940D02*
X91010D01*
Y65940D02*
X84010D01*
X77010Y69940D02*
X77043Y69941D01*
X77075Y69944D01*
X77108Y69950D01*
X77139Y69957D01*
X77171Y69967D01*
X77201Y69978D01*
X77231Y69992D01*
X77260Y70007D01*
X77288Y70024D01*
X77314Y70043D01*
X77340Y70064D01*
X77364Y70086D01*
X77386Y70110D01*
X77407Y70136D01*
X77426Y70162D01*
X77443Y70190D01*
X77458Y70219D01*
X77472Y70249D01*
X77483Y70279D01*
X77493Y70311D01*
X77500Y70342D01*
X77506Y70375D01*
X77509Y70407D01*
X77510Y70440D01*
X77509Y70473D01*
X77506Y70505D01*
X77500Y70538D01*
X77493Y70569D01*
X77483Y70601D01*
X77472Y70631D01*
X77458Y70661D01*
X77443Y70690D01*
X77426Y70718D01*
X77407Y70744D01*
X77386Y70770D01*
X77364Y70794D01*
X77340Y70816D01*
X77314Y70837D01*
X77288Y70856D01*
X77260Y70873D01*
X77231Y70888D01*
X77201Y70902D01*
X77171Y70913D01*
X77139Y70923D01*
X77108Y70930D01*
X77075Y70936D01*
X77043Y70939D01*
X77010Y70940D01*
Y71440D01*
Y69940D02*
Y69440D01*
X80010D02*
Y71440D01*
X77010D01*
Y69440D02*
X80010D01*
X83510Y65940D02*
Y59940D01*
X76510D02*
Y65940D01*
Y59940D02*
X83510D01*
Y65940D02*
X76510D01*
X76010Y95440D02*
X106010D01*
Y59440D02*
X76010D01*
Y95440D01*
X106010D02*
Y59440D01*
D14*
X104010Y83940D02*
Y84940D01*
X105760Y86440D02*
Y78440D01*
X102260D02*
Y86440D01*
X103010Y83940D02*
X104010D01*
X102260Y86440D02*
X105760D01*
Y78440D02*
X102260D01*
X104010Y92440D02*
Y93440D01*
X105760Y94940D02*
Y86940D01*
X102260D02*
Y94940D01*
X103010Y92440D02*
X104010D01*
X102260Y94940D02*
X105760D01*
Y86940D02*
X102260D01*
X104010Y67940D02*
Y66940D01*
X105760Y69440D02*
Y61440D01*
X102260D02*
Y69440D01*
X103010Y66940D02*
X104010D01*
X102260Y69440D02*
X105760D01*
Y61440D02*
X102260D01*
X104010Y75440D02*
Y76440D01*
X105760Y77940D02*
Y69940D01*
X102260D02*
Y77940D01*
X103010Y75440D02*
X104010D01*
X102260Y77940D02*
X105760D01*
Y69940D02*
X102260D01*
X91810Y83540D02*
Y84340D01*
X94210D02*
Y83540D01*
Y84340D02*
X91810D01*
Y83540D02*
X94210D01*
X91810Y83940D02*
X91010D01*
X94210D02*
X95010D01*
X91810Y83340D02*
Y82540D01*
X94210D02*
Y83340D01*
X91810D01*
Y82540D02*
X94210D01*
X91810Y82940D02*
X91010D01*
X94210D02*
X95010D01*
X91810Y82340D02*
Y81540D01*
X94210D02*
Y82340D01*
X91810D01*
Y81540D02*
X94210D01*
X91810Y81940D02*
X91010D01*
X94210D02*
X95010D01*
X91810Y81340D02*
Y80540D01*
X94210D02*
Y81340D01*
X91810D01*
Y80540D02*
X94210D01*
X91810Y80940D02*
X91010D01*
X94210D02*
X95010D01*
X92810Y92040D02*
Y92840D01*
X95210D02*
Y92040D01*
Y92440D02*
X96010D01*
X95210Y92840D02*
X92810D01*
Y92040D02*
X95210D01*
X92810Y92440D02*
X92010D01*
X92810Y90840D02*
Y90040D01*
X95210D02*
Y90840D01*
X92810D01*
Y90040D02*
X95210D01*
X92810Y90440D02*
X92010D01*
X95210D02*
X96010D01*
X92810Y89840D02*
Y89040D01*
X95210D02*
Y89840D01*
X92810D01*
Y89040D02*
X95210D01*
X92810Y89440D02*
X92010D01*
X95210D02*
X96010D01*
X97810Y92540D02*
Y93340D01*
X100210D02*
Y92540D01*
Y92940D02*
X101010D01*
X100210Y93340D02*
X97810D01*
Y92540D02*
X100210D01*
X97810Y92940D02*
X97010D01*
X97810Y82840D02*
Y82040D01*
X100210D02*
Y82840D01*
Y82440D02*
X101010D01*
X100210Y82840D02*
X97810D01*
Y82040D02*
X100210D01*
X97810Y82440D02*
X97010D01*
X97810Y83040D02*
Y83840D01*
X100210D02*
Y83040D01*
Y83440D02*
X101010D01*
X100210Y83840D02*
X97810D01*
Y83040D02*
X100210D01*
X97810Y83440D02*
X97010D01*
X97810Y84040D02*
Y84840D01*
X100210D02*
Y84040D01*
Y84440D02*
X101010D01*
X100210Y84840D02*
X97810D01*
Y84040D02*
X100210D01*
X97810Y84440D02*
X97010D01*
X97810Y81840D02*
Y81040D01*
X100210D02*
Y81840D01*
Y81440D02*
X101010D01*
X100210Y81840D02*
X97810D01*
Y81040D02*
X100210D01*
X97810Y81440D02*
X97010D01*
X97810Y91540D02*
Y92340D01*
X100210D02*
Y91540D01*
Y92340D02*
X97810D01*
Y91540D02*
X100210D01*
X97810Y91940D02*
X97010D01*
X100210D02*
X101010D01*
X97810Y91340D02*
Y90540D01*
X100210D02*
Y91340D01*
X97810D01*
Y90540D02*
X100210D01*
X97810Y90940D02*
X97010D01*
X100210D02*
X101010D01*
X97810Y90340D02*
Y89540D01*
X100210D02*
Y90340D01*
Y89940D02*
X101010D01*
X100210Y90340D02*
X97810D01*
Y89540D02*
X100210D01*
X97810Y89940D02*
X97010D01*
X92810Y91040D02*
Y91840D01*
X95210D02*
Y91040D01*
Y91840D02*
X92810D01*
Y91040D02*
X95210D01*
X92810Y91440D02*
X92010D01*
X95210D02*
X96010D01*
X82410Y70140D02*
X82409Y70108D01*
X82405Y70076D01*
X82398Y70044D01*
X82389Y70013D01*
X82378Y69983D01*
X82364Y69954D01*
X82348Y69926D01*
X82330Y69900D01*
X82309Y69875D01*
X82287Y69852D01*
X82263Y69830D01*
X82237Y69811D01*
X82210Y69794D01*
X82181Y69779D01*
X82152Y69766D01*
X82121Y69756D01*
X82090Y69748D01*
X82058Y69743D01*
X82026Y69740D01*
X81994D01*
X81962Y69743D01*
X81930Y69748D01*
X81899Y69756D01*
X81868Y69766D01*
X81839Y69779D01*
X81810Y69794D01*
X81783Y69811D01*
X81757Y69830D01*
X81733Y69852D01*
X81711Y69875D01*
X81690Y69900D01*
X81672Y69926D01*
X81656Y69954D01*
X81642Y69983D01*
X81631Y70013D01*
X81622Y70044D01*
X81615Y70076D01*
X81611Y70108D01*
X81610Y70140D01*
Y70740D02*
X81611Y70772D01*
X81615Y70804D01*
X81622Y70836D01*
X81631Y70867D01*
X81642Y70897D01*
X81656Y70926D01*
X81672Y70954D01*
X81690Y70980D01*
X81711Y71005D01*
X81733Y71028D01*
X81757Y71050D01*
X81783Y71069D01*
X81810Y71086D01*
X81839Y71101D01*
X81868Y71114D01*
X81899Y71124D01*
X81930Y71132D01*
X81962Y71137D01*
X81994Y71140D01*
X82026D01*
X82058Y71137D01*
X82090Y71132D01*
X82121Y71124D01*
X82152Y71114D01*
X82181Y71101D01*
X82210Y71086D01*
X82237Y71069D01*
X82263Y71050D01*
X82287Y71028D01*
X82309Y71005D01*
X82330Y70980D01*
X82348Y70954D01*
X82364Y70926D01*
X82378Y70897D01*
X82389Y70867D01*
X82398Y70836D01*
X82405Y70804D01*
X82409Y70772D01*
X82410Y70740D01*
X82010Y69740D02*
Y69340D01*
Y71140D02*
Y71540D01*
X82410Y70740D02*
Y70140D01*
X81610D02*
Y70740D01*
X86310Y68340D02*
Y67540D01*
X88710D02*
Y68340D01*
X86310D01*
Y67540D02*
X88710D01*
X86310Y67940D02*
X85510D01*
X88710D02*
X89510D01*
X88710Y67340D02*
Y66540D01*
X86310D02*
Y67340D01*
Y66540D02*
X88710D01*
Y67340D02*
X86310D01*
X88710Y66940D02*
X89510D01*
X86310D02*
X85510D01*
X92310Y75040D02*
Y75840D01*
X94710D02*
Y75040D01*
Y75840D02*
X92310D01*
Y75040D02*
X94710D01*
X92310Y75440D02*
X91510D01*
X94710D02*
X95510D01*
X92310Y74840D02*
Y74040D01*
X94710D02*
Y74840D01*
X92310D01*
Y74040D02*
X94710D01*
X92310Y74440D02*
X91510D01*
X94710D02*
X95510D01*
X92310Y73840D02*
Y73040D01*
X94710D02*
Y73840D01*
X92310D01*
Y73040D02*
X94710D01*
X92310Y73440D02*
X91510D01*
X94710D02*
X95510D01*
X92310Y72840D02*
Y72040D01*
X94710D02*
Y72840D01*
X92310D01*
Y72040D02*
X94710D01*
X92310Y72440D02*
X91510D01*
X94710D02*
X95510D01*
X97310Y68840D02*
Y68040D01*
X99710D02*
Y68840D01*
X97310D01*
Y68040D02*
X99710D01*
X97310Y68440D02*
X96510D01*
X99710D02*
X100510D01*
X97310Y67840D02*
Y67040D01*
X99710D02*
Y67840D01*
X97310D01*
Y67040D02*
X99710D01*
X97310Y67440D02*
X96510D01*
X99710D02*
X100510D01*
X97310Y72540D02*
Y73340D01*
X99710D02*
Y72540D01*
Y73340D02*
X97310D01*
Y72540D02*
X99710D01*
X97310Y72940D02*
X96510D01*
X99710D02*
X100510D01*
X97310Y73540D02*
Y74340D01*
X99710D02*
Y73540D01*
Y74340D02*
X97310D01*
Y73540D02*
X99710D01*
X97310Y73940D02*
X96510D01*
X99710D02*
X100510D01*
X97310Y74540D02*
Y75340D01*
X99710D02*
Y74540D01*
Y75340D02*
X97310D01*
Y74540D02*
X99710D01*
X97310Y74940D02*
X96510D01*
X99710D02*
X100510D01*
X97310Y75540D02*
Y76340D01*
X99710D02*
Y75540D01*
Y76340D02*
X97310D01*
Y75540D02*
X99710D01*
X97310Y75940D02*
X96510D01*
X99710D02*
X100510D01*
X97310Y65840D02*
Y65040D01*
X99710D02*
Y65840D01*
X97310D01*
Y65040D02*
X99710D01*
X97310Y65440D02*
X96510D01*
X99710D02*
X100510D01*
X97310Y66040D02*
Y66840D01*
X99710D02*
Y66040D01*
Y66840D02*
X97310D01*
Y66040D02*
X99710D01*
X97310Y66440D02*
X96510D01*
X99710D02*
X100510D01*
X95510Y77940D02*
Y78940D01*
X93510D02*
Y77940D01*
Y78940D02*
X95510D01*
Y77940D02*
X93510D01*
X97310Y64840D02*
Y64040D01*
X99710D02*
Y64840D01*
X97310D01*
Y64040D02*
X99710D01*
X97310Y64440D02*
X96510D01*
X99710D02*
X100510D01*
X97310Y63840D02*
Y63040D01*
X99710D02*
Y63840D01*
X97310D01*
Y63040D02*
X99710D01*
X97310Y63440D02*
X96510D01*
X99710D02*
X100510D01*
X97310Y62840D02*
Y62040D01*
X99710D02*
Y62840D01*
X97310D01*
Y62040D02*
X99710D01*
X97310Y62440D02*
X96510D01*
X99710D02*
X100510D01*
X78010Y93940D02*
Y94940D01*
X77010D02*
Y74940D01*
X79010D02*
Y94940D01*
Y93940D02*
X78010D01*
X77010Y74940D02*
X79010D01*
Y94940D02*
X77010D01*
X81310Y78340D02*
Y77540D01*
X83710D02*
Y78340D01*
X81310D01*
Y77540D02*
X83710D01*
X81310Y77940D02*
X80510D01*
X83710D02*
X84510D01*
X80710Y67340D02*
Y66540D01*
X78310D02*
Y67340D01*
Y66940D02*
X77510D01*
X78310Y66540D02*
X80710D01*
Y67340D02*
X78310D01*
X80710Y66940D02*
X81510D01*
X80810Y67440D02*
Y68440D01*
X78210D02*
Y67440D01*
X78710D02*
Y68440D01*
X78210Y67940D02*
X77510D01*
X80810D02*
X81510D01*
X80810Y68440D02*
X78210D01*
Y67440D02*
X80810D01*
D15*
X85810Y79490D02*
Y79823D01*
Y79657D01*
X84810D01*
X84811D01*
X84810D02*
X84977Y79490D01*
Y80323D02*
X84810Y80490D01*
Y80823D01*
X84977Y80990D01*
X85643D01*
X85810Y80823D01*
Y80490D01*
X85643Y80323D01*
X84977D01*
Y81323D02*
X84810Y81489D01*
Y81823D01*
X84977Y81989D01*
X85643D01*
X85810Y81823D01*
Y81489D01*
X85643Y81323D01*
X84977D01*
X85310Y82322D02*
Y82989D01*
X85810Y83322D02*
Y83655D01*
Y83489D01*
X84810D01*
X84811D01*
X84810D02*
X84977Y83322D01*
Y84155D02*
X84810Y84322D01*
Y84655D01*
X84977Y84822D01*
X85643D01*
X85810Y84655D01*
Y84322D01*
X85643Y84155D01*
X84977D01*
X84810Y85155D02*
Y85821D01*
Y85155D02*
X85310D01*
X85144Y85488D01*
Y85655D01*
X85310Y85821D01*
X85643D01*
X85810Y85655D01*
Y85321D01*
X85643Y85155D01*
X84977Y86488D02*
X84810Y86821D01*
X84977Y86488D02*
X85310Y86155D01*
X85643D01*
X85810Y86321D01*
Y86654D01*
X85643Y86821D01*
X85477D01*
X85310Y86654D01*
Y86155D01*
X85810Y88154D02*
X84810D01*
Y88654D01*
X84977Y88820D01*
X85310D01*
X85477Y88654D01*
Y88154D01*
Y88487D02*
X85810Y88820D01*
X84810Y89154D02*
Y89820D01*
Y89154D02*
X85810D01*
Y89820D01*
X85310Y89487D02*
Y89154D01*
X85477Y90153D02*
X84810D01*
X85477D02*
X85810Y90486D01*
X85477Y90820D01*
X84810D01*
X85144Y92153D02*
X85810D01*
X85144D02*
X84810Y92486D01*
X85144Y92819D01*
X85810D01*
X85310D01*
Y92153D01*
X86877Y77107D02*
X86760Y76990D01*
Y76757D01*
X86877Y76640D01*
X86993D01*
X87110Y76757D01*
Y76990D01*
X87227Y77107D01*
X87343D01*
X87460Y76990D01*
Y76757D01*
X87343Y76640D01*
X86760Y77340D02*
Y77806D01*
Y77573D01*
X87460D01*
Y78040D02*
X86760D01*
X87227D02*
X87460D01*
X87227D02*
X86760Y78506D01*
X87110Y78156D01*
X87460Y78506D01*
X86760Y78739D02*
Y79206D01*
Y78739D02*
X87110D01*
X86993Y78973D01*
Y79089D01*
X87110Y79206D01*
X87343D01*
X87460Y79089D01*
Y78856D01*
X87343Y78739D01*
X86877Y79439D02*
X86760Y79556D01*
Y79789D01*
X86877Y79906D01*
X87343D01*
X87460Y79789D01*
Y79556D01*
X87343Y79439D01*
X86877D01*
Y80139D02*
X86760Y80255D01*
Y80489D01*
X86877Y80605D01*
X87343D01*
X87460Y80489D01*
Y80255D01*
X87343Y80139D01*
X86877D01*
X87460Y80839D02*
X86993Y81305D01*
X87460Y81538D02*
Y81772D01*
Y81655D01*
X86760D01*
X86761D01*
X86760D02*
X86877Y81538D01*
X87110Y82821D02*
Y83288D01*
X87460Y83521D02*
X87110Y83871D01*
X86760Y83521D01*
Y85154D02*
X86877Y85271D01*
X86760Y85154D02*
Y84921D01*
X86877Y84804D01*
X86993D01*
X87110Y84921D01*
Y85154D01*
X87227Y85271D01*
X87343D01*
X87460Y85154D01*
Y84921D01*
X87343Y84804D01*
X87460Y85504D02*
X86760D01*
Y85854D01*
X86877Y85970D01*
X87110D01*
X87227Y85854D01*
Y85504D01*
X86877Y86204D02*
X86760Y86320D01*
Y86553D01*
X86877Y86670D01*
X86993D01*
X86994D01*
X86993D02*
X86994D01*
X86993D02*
X86994D01*
X86993D02*
X87110Y86553D01*
Y86437D01*
Y86553D01*
X87227Y86670D01*
X87343D01*
X87460Y86553D01*
Y86320D01*
X87343Y86204D01*
X86760Y87953D02*
X86877Y88070D01*
X86760Y87953D02*
Y87720D01*
X86877Y87603D01*
X86993D01*
X87110Y87720D01*
Y87953D01*
X87227Y88070D01*
X87343D01*
X87460Y87953D01*
Y87720D01*
X87343Y87603D01*
X86760Y88303D02*
Y88769D01*
Y88536D01*
X87460D01*
Y89003D02*
X86993D01*
X86760Y89236D01*
X86993Y89469D01*
X87460D01*
X87110D01*
Y89003D01*
X87460Y89702D02*
X86760D01*
Y90052D01*
X86877Y90169D01*
X87110D01*
X87227Y90052D01*
Y89702D01*
Y89936D02*
X87460Y90169D01*
X86760Y90402D02*
Y90869D01*
Y90635D01*
X87460D01*
X86760Y91102D02*
Y91569D01*
Y91102D02*
X87460D01*
Y91569D01*
X87110Y91335D02*
Y91102D01*
X87460Y91802D02*
X86760D01*
Y92152D01*
X86877Y92268D01*
X87110D01*
X87227Y92152D01*
Y91802D01*
Y92035D02*
X87460Y92268D01*
X87810Y80190D02*
X88510D01*
Y80540D01*
X88393Y80657D01*
X88277D01*
X88160Y80540D01*
Y80190D01*
X88161D01*
X88160D02*
X88161D01*
X88160D02*
X88161D01*
X88160D02*
Y80540D01*
X88043Y80657D01*
X87927D01*
X87810Y80540D01*
Y80190D01*
Y81006D02*
Y81240D01*
Y81006D02*
X87927Y80890D01*
X88393D01*
X88510Y81006D01*
Y81240D01*
X88393Y81356D01*
X87927D01*
X87810Y81240D01*
X88043Y81590D02*
X88510D01*
X88043D02*
X87810Y81823D01*
X88043Y82056D01*
X88510D01*
X88160D01*
Y81590D01*
X88510Y82289D02*
X87810D01*
Y82639D01*
X87927Y82756D01*
X88160D01*
X88277Y82639D01*
Y82289D01*
Y82523D02*
X88510Y82756D01*
Y82989D02*
X87810D01*
X88510D02*
Y83339D01*
X88393Y83456D01*
X87927D01*
X87810Y83339D01*
Y82989D01*
Y84389D02*
Y84622D01*
Y84505D01*
X88510D01*
Y84389D01*
Y84622D01*
Y84972D02*
X87810D01*
X88510Y85438D01*
X87810D01*
Y85672D02*
Y86138D01*
Y85905D01*
X88510D01*
X87810Y86371D02*
Y86838D01*
Y86371D02*
X88510D01*
Y86838D01*
X88160Y86605D02*
Y86371D01*
X88510Y87071D02*
X87810D01*
Y87421D01*
X87927Y87538D01*
X88160D01*
X88277Y87421D01*
Y87071D01*
Y87304D02*
X88510Y87538D01*
X87810Y87771D02*
Y88237D01*
Y87771D02*
X88160D01*
Y88004D01*
Y87771D01*
X88510D01*
Y88471D02*
X88043D01*
X87810Y88704D01*
X88043Y88937D01*
X88510D01*
X88160D01*
Y88471D01*
X87810Y89520D02*
X87927Y89637D01*
X87810Y89520D02*
Y89287D01*
X87927Y89170D01*
X88393D01*
X88510Y89287D01*
Y89520D01*
X88393Y89637D01*
X87810Y89870D02*
Y90337D01*
Y89870D02*
X88510D01*
Y90337D01*
X88160Y90103D02*
Y89870D01*
D02*
M02*
