*%FSLAX24Y24*%
*%MOIN*%
G01*
%ADD11C,0.0073*%
%ADD12C,0.0080*%
%ADD13C,0.0100*%
%ADD14C,0.0120*%
%ADD15C,0.0200*%
%ADD16C,0.0300*%
%ADD17C,0.0360*%
%ADD18C,0.0500*%
%ADD19C,0.0500*%
%ADD20C,0.0560*%
%ADD21C,0.0620*%
%ADD22C,0.0660*%
%ADD23C,0.0680*%
%ADD24C,0.0700*%
%ADD25C,0.1000*%
%ADD26C,0.1060*%
%ADD27C,0.1400*%
%ADD28C,0.1600*%
%ADD29C,0.2500*%
%ADD30C,0.2500*%
%ADD31R,0.0620X0.0620*%
%ADD32R,0.0680X0.0680*%
D13*
X99843Y87940D02*
X100010D01*
X99927D02*
X99843D01*
X99927D02*
Y88440D01*
X99928D01*
X99927D02*
X100010Y88357D01*
X99593D02*
X99510Y88440D01*
X99344D01*
X99260Y88357D01*
Y88023D01*
X99344Y87940D01*
X99510D01*
X99593Y88023D01*
Y88357D01*
X99094D02*
X99010Y88440D01*
X98844D01*
X98760Y88357D01*
Y88023D01*
X98844Y87940D01*
X99010D01*
X99094Y88023D01*
Y88357D01*
X98594Y88190D02*
X98261D01*
X98094Y87940D02*
X97927D01*
X98011D01*
Y88440D01*
X98012D01*
X98011D02*
X98094Y88357D01*
X97677D02*
X97594Y88440D01*
X97428D01*
X97344Y88357D01*
Y88023D01*
X97428Y87940D01*
X97594D01*
X97677Y88023D01*
Y88357D01*
X97178Y88440D02*
X96844D01*
X97178D02*
Y88190D01*
X97011Y88273D01*
X96928D01*
X96844Y88190D01*
Y88023D01*
X96928Y87940D01*
X97094D01*
X97178Y88023D01*
X96511Y88357D02*
X96345Y88440D01*
X96511Y88357D02*
X96678Y88190D01*
Y88023D01*
X96594Y87940D01*
X96428D01*
X96345Y88023D01*
Y88107D01*
X96428Y88190D01*
X96678D01*
X95678Y87940D02*
Y88440D01*
X95428D01*
X95345Y88357D01*
Y88190D01*
X95428Y88107D01*
X95678D01*
X95511D02*
X95345Y87940D01*
X95178Y88440D02*
X94845D01*
X95178D02*
Y87940D01*
X94845D01*
X95012Y88190D02*
X95178D01*
X94678Y88107D02*
Y88440D01*
Y88107D02*
X94512Y87940D01*
X94345Y88107D01*
Y88440D01*
X93679Y88273D02*
Y87940D01*
Y88273D02*
X93512Y88440D01*
X93345Y88273D01*
Y87940D01*
Y88190D01*
X93679D01*
X104677Y86857D02*
X104760Y86940D01*
X104927D01*
X105010Y86857D01*
Y86523D01*
X104927Y86440D01*
X104760D01*
X104677Y86523D01*
X104427Y86940D02*
X104260D01*
X104427D02*
X104510Y86857D01*
Y86523D01*
X104427Y86440D01*
X104260D01*
X104177Y86523D01*
Y86857D01*
X104260Y86940D01*
X104010D02*
Y86440D01*
Y86940D02*
X103760D01*
X103677Y86857D01*
Y86690D01*
X103760Y86607D01*
X104010D01*
X103510Y86857D02*
Y86940D01*
Y86857D02*
X103344Y86690D01*
X103177Y86857D01*
Y86940D01*
X103344Y86690D02*
Y86440D01*
X103011D02*
Y86940D01*
X102761D01*
X102677Y86857D01*
Y86690D01*
X102761Y86607D01*
X103011D01*
X102844D02*
X102677Y86440D01*
X102511Y86940D02*
X102344D01*
X102428D01*
Y86440D01*
X102511D01*
X102344D01*
X101844Y86940D02*
X101761Y86857D01*
X101844Y86940D02*
X102011D01*
X102094Y86857D01*
Y86523D01*
X102011Y86440D01*
X101844D01*
X101761Y86523D01*
Y86690D01*
X101928D01*
X101594Y86940D02*
Y86440D01*
Y86690D01*
X101261D01*
Y86940D01*
Y86440D01*
X101095Y86940D02*
X100761D01*
X100928D01*
Y86440D01*
X100095Y86607D02*
X99928Y86440D01*
X100095Y86607D02*
Y86773D01*
X99928Y86940D01*
X99428D02*
X99345Y86857D01*
X99428Y86940D02*
X99595D01*
X99678Y86857D01*
Y86523D01*
X99595Y86440D01*
X99428D01*
X99345Y86523D01*
X99179Y86440D02*
X99012Y86607D01*
Y86773D01*
X99179Y86940D01*
X98262Y86440D02*
X97929D01*
X98262D02*
X97929Y86773D01*
Y86857D01*
X98012Y86940D01*
X98179D01*
X98262Y86857D01*
X97762D02*
X97679Y86940D01*
X97512D01*
X97429Y86857D01*
Y86523D01*
X97512Y86440D01*
X97679D01*
X97762Y86523D01*
Y86857D01*
X97263D02*
X97179Y86940D01*
X97013D01*
X96929Y86857D01*
Y86523D01*
X97013Y86440D01*
X97179D01*
X97263Y86523D01*
Y86857D01*
X96763D02*
X96679Y86940D01*
X96513D01*
X96429Y86857D01*
Y86773D01*
X96513Y86690D01*
X96429Y86607D01*
Y86523D01*
X96513Y86440D01*
X96679D01*
X96763Y86523D01*
Y86607D01*
X96679Y86690D01*
X96763Y86773D01*
Y86857D01*
X96679Y86690D02*
X96513D01*
X95596Y86940D02*
X95430D01*
X95513D02*
X95596D01*
X95513D02*
Y86523D01*
X95596Y86440D01*
X95680D01*
X95763Y86523D01*
X95263Y86440D02*
Y86773D01*
X95097Y86940D01*
X94930Y86773D01*
Y86440D01*
Y86690D01*
X95263D01*
X94763Y86440D02*
Y86940D01*
X94597Y86773D01*
X94430Y86940D01*
Y86440D01*
X94263Y86940D02*
X93930D01*
X94263D02*
Y86440D01*
X93930D01*
X94097Y86690D02*
X94263D01*
X93514Y86940D02*
X93430Y86857D01*
X93514Y86940D02*
X93680D01*
X93764Y86857D01*
Y86773D01*
X93680Y86690D01*
X93514D01*
X93430Y86607D01*
Y86523D01*
X93514Y86440D01*
X93680D01*
X93764Y86523D01*
X92764Y86440D02*
Y86940D01*
X92514D01*
X92431Y86857D01*
Y86690D01*
X92514Y86607D01*
X92764D01*
X92264Y86440D02*
Y86773D01*
X92098Y86940D01*
X91931Y86773D01*
Y86440D01*
Y86690D01*
X92264D01*
X91764Y86940D02*
X91431D01*
X91598D01*
Y86440D01*
X91015Y86940D02*
X90931Y86857D01*
X91015Y86940D02*
X91181D01*
X91264Y86857D01*
Y86523D01*
X91181Y86440D01*
X91015D01*
X90931Y86523D01*
X90765Y86440D02*
Y86940D01*
Y86690D02*
Y86440D01*
Y86690D02*
X90431D01*
Y86940D01*
Y86440D01*
X90265Y86940D02*
X89932D01*
X90265D02*
Y86440D01*
X89932D01*
X90098Y86690D02*
X90265D01*
X89765Y86940D02*
Y86440D01*
X89432D01*
X89265D02*
Y86940D01*
Y86440D02*
X88932D01*
X105177Y96190D02*
X105510D01*
X105343D02*
X105177D01*
X105343D02*
Y97190D01*
X105344D01*
X105343D02*
X105510Y97023D01*
X104677D02*
X104510Y97190D01*
X104177D01*
X104010Y97023D01*
Y96357D01*
X104177Y96190D01*
X104510D01*
X104677Y96357D01*
Y97023D01*
X103677D02*
X103511Y97190D01*
X103177D01*
X103011Y97023D01*
Y96357D01*
X103177Y96190D01*
X103511D01*
X103677Y96357D01*
Y97023D01*
X102678Y96690D02*
X102011D01*
X101678Y96190D02*
X101345D01*
X101511D01*
Y97190D01*
X101512D01*
X101511D02*
X101678Y97023D01*
X100845D02*
X100678Y97190D01*
X100345D01*
X100178Y97023D01*
Y96357D01*
X100345Y96190D01*
X100678D01*
X100845Y96357D01*
Y97023D01*
X99845Y97190D02*
X99179D01*
X99845D02*
Y96690D01*
X99512Y96856D01*
X99345D01*
X99179Y96690D01*
Y96357D01*
X99345Y96190D01*
X99679D01*
X99845Y96357D01*
X98512Y97023D02*
X98179Y97190D01*
X98512Y97023D02*
X98845Y96690D01*
Y96357D01*
X98679Y96190D01*
X98346D01*
X98179Y96357D01*
Y96523D01*
X98346Y96690D01*
X98845D01*
X97846D02*
X97179D01*
X96846Y97023D02*
X96680Y97190D01*
X96346D01*
X96180Y97023D01*
Y96357D01*
X96346Y96190D01*
X96680D01*
X96846Y96357D01*
Y97023D01*
X95846Y96190D02*
X95513D01*
X95680D01*
Y97190D01*
X95681D01*
X95680D02*
X95846Y97023D01*
X94014Y97190D02*
Y96190D01*
Y97190D02*
X93514D01*
X93347Y97023D01*
Y96690D01*
X93514Y96523D01*
X94014D01*
X93680D02*
X93347Y96190D01*
X93014Y97190D02*
X92348D01*
X93014D02*
Y96190D01*
X92348D01*
X92681Y96690D02*
X93014D01*
X92014Y96523D02*
Y97190D01*
Y96523D02*
X91681Y96190D01*
X91348Y96523D01*
Y97190D01*
X90015Y96856D02*
Y96190D01*
Y96856D02*
X89682Y97190D01*
X89349Y96856D01*
Y96190D01*
Y96690D01*
X90015D01*
X87516Y97190D02*
X87349Y97023D01*
X87516Y97190D02*
X87849D01*
X88016Y97023D01*
Y96357D01*
X87849Y96190D01*
X87516D01*
X87349Y96357D01*
X87016Y97190D02*
X86683D01*
X86849D01*
Y96190D01*
X87016D01*
X86683D01*
X86183D02*
Y97190D01*
X85683D01*
X85516Y97023D01*
Y96690D01*
X85683Y96523D01*
X86183D01*
X85850D02*
X85516Y96190D01*
X84517Y97023D02*
X84683Y97190D01*
X85017D01*
X85183Y97023D01*
Y96357D01*
X85017Y96190D01*
X84683D01*
X84517Y96357D01*
X84184D02*
Y97190D01*
Y96357D02*
X84017Y96190D01*
X83684D01*
X83517Y96357D01*
Y97190D01*
X83184D02*
X82851D01*
X83017D01*
Y96190D01*
X83184D01*
X82851D01*
X82351Y97190D02*
X81684D01*
X82018D01*
Y96190D01*
X79852Y97190D02*
X79685Y97023D01*
X79852Y97190D02*
X80185D01*
X80351Y97023D01*
Y96856D01*
X80185Y96690D01*
X79852D01*
X79685Y96523D01*
Y96357D01*
X79852Y96190D01*
X80185D01*
X80351Y96357D01*
X79352Y97190D02*
X79019D01*
X79185D01*
Y96190D01*
X79352D01*
X79019D01*
X78519D02*
Y97190D01*
Y96190D02*
X78019D01*
X77852Y96357D01*
Y97023D01*
X78019Y97190D01*
X78519D01*
X77519D02*
X76853D01*
X77519D02*
Y96190D01*
X76853D01*
X77186Y96690D02*
X77519D01*
X76010Y95440D02*
X106010D01*
Y59440D02*
X76010D01*
Y95440D01*
X106010D02*
Y59440D01*
D14*
X91010Y72440D02*
X85010Y78440D01*
Y81940D02*
X90010Y76940D01*
Y77440D02*
X85010Y82440D01*
Y82940D02*
X90010Y77940D01*
X89510Y78940D02*
X85010Y83440D01*
Y83940D02*
X89010Y79940D01*
X89510D02*
X85010Y84440D01*
Y84940D02*
X89510Y80440D01*
X85010Y80940D02*
X91010Y74940D01*
Y72940D02*
X85010Y78940D01*
Y79440D02*
X91010Y73440D01*
Y73940D02*
X85010Y79940D01*
Y80440D02*
X91010Y74440D01*
X90010Y80940D02*
X85510Y85440D01*
Y85940D02*
X90010Y81440D01*
Y81940D02*
X85510Y86440D01*
Y86940D02*
X90010Y82440D01*
Y82940D02*
X85510Y87440D01*
Y87940D02*
X90010Y83440D01*
Y83940D02*
X85510Y88440D01*
Y88940D02*
X90010Y84440D01*
X103010Y64440D02*
X101010Y62440D01*
X101510Y63440D02*
X103010Y64940D01*
X78010Y77940D02*
X77510Y78440D01*
X78010Y81940D02*
X77510Y82440D01*
X78010Y82940D02*
X77510Y83440D01*
X78010Y83940D02*
X77510Y84440D01*
X78010Y84940D02*
X77510Y85440D01*
Y79440D02*
X78010Y78940D01*
Y79940D02*
X77510Y80440D01*
X78010Y80940D02*
X77510Y81440D01*
X78010Y85940D02*
X77510Y86440D01*
X78010Y86940D02*
X77510Y87440D01*
X78010Y87940D02*
X77510Y88440D01*
X78010Y88940D02*
X77510Y89440D01*
X78010Y89940D02*
X77510Y90440D01*
X78010Y90940D02*
X77510Y91440D01*
X78010Y91940D02*
X77510Y92440D01*
X78010Y92940D02*
X77510Y93440D01*
X100510Y62440D02*
X101010D01*
X78510Y68190D02*
Y68940D01*
Y68190D02*
X78760Y67940D01*
X103010Y64440D02*
X103510D01*
X101510Y63440D02*
X100510D01*
X103010Y64940D02*
X104010D01*
X102010Y64440D02*
X100510D01*
X103010Y65440D02*
X103510D01*
X102510D02*
X100510D01*
X103010Y65940D02*
X104010D01*
X103510Y66440D02*
X100510D01*
X102510Y66940D02*
X104010D01*
X89510Y67940D02*
X87260D01*
X86760Y68440D02*
X85010D01*
X81510Y67940D02*
X78760D01*
X100510Y67440D02*
X102010D01*
X101510Y68440D02*
X100510D01*
X102510Y67440D02*
X103510D01*
X84510Y69690D02*
Y71940D01*
X85510Y69690D02*
Y68940D01*
X85010Y68440D02*
X84510Y68940D01*
X86510Y69690D02*
Y71940D01*
X87510Y69690D02*
Y68940D01*
X86760Y68440D02*
X87260Y67940D01*
X91010Y72440D02*
X91510D01*
X95510D02*
X104010D01*
X88510Y71940D02*
Y69690D01*
X89510Y79440D02*
X89010Y79940D01*
X91010Y72940D02*
X96510D01*
X91510Y73440D02*
X91010D01*
Y73940D02*
X96510D01*
X91510Y74440D02*
X91010D01*
X100510Y73940D02*
X103510D01*
Y72940D02*
X100510D01*
X104010Y73440D02*
X95510D01*
Y74440D02*
X104010D01*
X96510Y74940D02*
X91010D01*
X100510Y75940D02*
X103510D01*
Y74940D02*
X100510D01*
X104010Y75440D02*
X95510D01*
X93010Y92440D02*
X92510Y92940D01*
X80510Y77940D02*
X78010D01*
X78510Y78440D02*
X85010D01*
X90010Y76940D02*
X94010D01*
X94510Y77440D02*
X90010D01*
Y77940D02*
X100510D01*
X95010Y76940D02*
X94510Y77440D01*
X95010Y92440D02*
X95510Y92940D01*
X100010Y78940D02*
X89510D01*
Y79440D02*
X99010D01*
X98010Y79940D02*
X89510D01*
X92010Y80440D02*
X97010D01*
X92010D02*
X89510D01*
X85010Y78940D02*
X78010D01*
X78510Y79440D02*
X85010D01*
Y79940D02*
X78010D01*
X78510Y80440D02*
X85010D01*
X84010Y81440D02*
X78510D01*
X78010Y81940D02*
X85010D01*
Y82440D02*
X78510D01*
X78010Y80940D02*
X85010D01*
X95010Y81940D02*
X104010D01*
Y80940D02*
X95010D01*
X101010Y81440D02*
X103510D01*
Y82440D02*
X101010D01*
X91010Y80940D02*
X90010D01*
Y81440D02*
X97010D01*
X91010Y81940D02*
X90010D01*
Y82440D02*
X97010D01*
X85010Y82940D02*
X78010D01*
X78510Y83440D02*
X85010D01*
Y83940D02*
X78010D01*
X78510Y84440D02*
X85010D01*
X95010Y83940D02*
X104010D01*
Y82940D02*
X95010D01*
X101010Y83440D02*
X103510D01*
Y84440D02*
X101010D01*
X91010Y82940D02*
X90010D01*
Y83440D02*
X97010D01*
X91010Y83940D02*
X90010D01*
Y84440D02*
X97010D01*
X85010Y84940D02*
X78010D01*
X78510Y85440D02*
X85510D01*
Y85940D02*
X78010D01*
X78510Y86440D02*
X85510D01*
X102010Y67440D02*
X102510Y66940D01*
Y67440D02*
X101510Y68440D01*
X103010Y65440D02*
X102010Y64440D01*
X102510Y65440D02*
X103010Y65940D01*
X85510Y86940D02*
X78010D01*
X78510Y87440D02*
X85510D01*
Y87940D02*
X78010D01*
X78510Y88440D02*
X85510D01*
X104510Y65440D02*
X104010Y64940D01*
Y65940D02*
X104510Y66440D01*
X104010Y66940D02*
X104510Y67440D01*
X104010Y72440D02*
X104510Y72940D01*
X104010Y73440D02*
X104510Y73940D01*
X104010Y74440D02*
X104510Y74940D01*
X104010Y75440D02*
X104510Y75940D01*
X104010Y83940D02*
X104510Y84440D01*
Y83440D02*
X104010Y82940D01*
X104510Y82440D02*
X104010Y81940D01*
X104510Y81440D02*
X104010Y80940D01*
Y89440D02*
X104510Y89940D01*
X104010Y90440D02*
X104510Y90940D01*
X104010Y91440D02*
X104510Y91940D01*
X104010Y92440D02*
X104510Y92940D01*
X85510Y88940D02*
X78010D01*
X96010Y89440D02*
X104010D01*
X103510Y89940D02*
X101010D01*
X104010Y90440D02*
X96010D01*
X92010Y89440D02*
X78510D01*
X78010Y89940D02*
X97010D01*
X92010Y90440D02*
X78510D01*
X101010Y90940D02*
X103510D01*
Y91940D02*
X101010D01*
X104010Y91440D02*
X96010D01*
Y92440D02*
X104010D01*
X97010Y90940D02*
X78010D01*
X78510Y91440D02*
X92010D01*
X97010Y91940D02*
X78010D01*
X78510Y92440D02*
X92010D01*
X93010D02*
X95010D01*
X101010Y92940D02*
X103510D01*
X92510D02*
X78010D01*
X95510D02*
X97010D01*
D19*
X78510Y94440D02*
X77860Y95090D01*
X76510Y71440D02*
X76760Y71190D01*
X80010Y72690D02*
X80760Y71940D01*
X78510Y70440D02*
X79260Y69690D01*
X93010Y68940D02*
X94760Y70690D01*
X93010Y63690D02*
X89760Y60440D01*
X88510D02*
X86510D01*
X81010D01*
X79010D01*
X88510D02*
X89760D01*
X76510Y71440D02*
Y95090D01*
X77510Y72690D02*
Y71940D01*
X103510Y62690D02*
X105510D01*
X78510Y71440D02*
Y71940D01*
Y70440D01*
Y71190D02*
Y71440D01*
X82010Y69690D02*
Y68940D01*
X103760Y70940D02*
X105510D01*
Y70690D02*
X103510D01*
X82010Y69690D02*
X79260D01*
X82010D02*
X89510D01*
X94760Y70690D02*
X103760D01*
X78510Y71190D02*
X76760D01*
X103510D02*
X105510D01*
X82010Y71940D02*
X80760D01*
X82010D02*
X83510D01*
X80010Y72690D02*
X77510D01*
X89510Y69690D02*
Y68940D01*
X93010D02*
Y63690D01*
X103510Y78690D02*
X103760D01*
X105510D01*
Y78940D02*
X103510D01*
Y87440D02*
X105510D01*
X103510Y80440D02*
Y78940D01*
Y78690D02*
Y80440D01*
Y87440D02*
Y88940D01*
Y71940D02*
Y71190D01*
Y70690D02*
Y71940D01*
Y63440D02*
Y62690D01*
X105510Y78940D02*
Y87440D01*
Y78690D02*
Y71190D01*
Y70690D02*
Y62690D01*
Y77940D02*
Y79940D01*
Y71690D02*
Y69440D01*
X77860Y95090D02*
X76510D01*
D21*
X100510Y77940D02*
D03*
X100010Y78940D02*
D03*
X99010Y79440D02*
D03*
X98010Y79940D02*
D03*
X97010Y80440D02*
D03*
X94010Y76940D02*
D03*
X95010D02*
D03*
X84010Y81440D02*
D03*
X104510Y80440D02*
D03*
X103510D02*
D03*
X104510Y81440D02*
D03*
X103510D02*
D03*
X104510Y82440D02*
D03*
X103510D02*
D03*
X104510Y83440D02*
D03*
X103510D02*
D03*
X104510Y84440D02*
D03*
Y88940D02*
D03*
X103510D02*
D03*
X104510Y89940D02*
D03*
X103510D02*
D03*
X104510Y90940D02*
D03*
X103510D02*
D03*
X104510Y91940D02*
D03*
X103510D02*
D03*
X104510Y92940D02*
D03*
Y63440D02*
D03*
X103510D02*
D03*
X104510Y64440D02*
D03*
X103510D02*
D03*
X104510Y65440D02*
D03*
X103510D02*
D03*
X104510Y66440D02*
D03*
X103510D02*
D03*
X104510Y67440D02*
D03*
Y71940D02*
D03*
X103510D02*
D03*
X104510Y72940D02*
D03*
X103510D02*
D03*
X104510Y73940D02*
D03*
X103510D02*
D03*
X104510Y74940D02*
D03*
X103510D02*
D03*
X104510Y75940D02*
D03*
X95010Y83940D02*
D03*
X91010D02*
D03*
X95010Y82940D02*
D03*
X91010D02*
D03*
X95010Y81940D02*
D03*
X91010D02*
D03*
X95010Y80940D02*
D03*
X91010D02*
D03*
X96010Y92440D02*
D03*
X92010D02*
D03*
X96010Y90440D02*
D03*
X92010D02*
D03*
X96010Y89440D02*
D03*
X92010D02*
D03*
X101010Y92940D02*
D03*
X97010D02*
D03*
X101010Y82440D02*
D03*
X97010D02*
D03*
X101010Y83440D02*
D03*
X97010D02*
D03*
X101010Y84440D02*
D03*
X97010D02*
D03*
X101010Y81440D02*
D03*
X97010D02*
D03*
X101010Y91940D02*
D03*
X97010D02*
D03*
X101010Y90940D02*
D03*
X97010D02*
D03*
X101010Y89940D02*
D03*
X97010D02*
D03*
X96010Y91440D02*
D03*
X92010D02*
D03*
X82010Y68940D02*
D03*
Y71940D02*
D03*
X84510Y68940D02*
D03*
X86510D02*
D03*
X87510D02*
D03*
X88510D02*
D03*
X89510D02*
D03*
Y71940D02*
D03*
X88510D02*
D03*
X87510D02*
D03*
X86510D02*
D03*
X85510D02*
D03*
X84510D02*
D03*
X83510D02*
D03*
X85510Y68940D02*
D03*
X89510Y67940D02*
D03*
X85510D02*
D03*
Y66940D02*
D03*
X89510D02*
D03*
X95510Y75440D02*
D03*
X91510D02*
D03*
X95510Y74440D02*
D03*
X91510D02*
D03*
X95510Y73440D02*
D03*
X91510D02*
D03*
X95510Y72440D02*
D03*
X91510D02*
D03*
X100510Y68440D02*
D03*
X96510D02*
D03*
X100510Y67440D02*
D03*
X96510D02*
D03*
X100510Y72940D02*
D03*
X96510D02*
D03*
X100510Y73940D02*
D03*
X96510D02*
D03*
X100510Y74940D02*
D03*
X96510D02*
D03*
X100510Y75940D02*
D03*
X96510D02*
D03*
X100510Y65440D02*
D03*
X96510D02*
D03*
X100510Y66440D02*
D03*
X96510D02*
D03*
X95010Y78440D02*
D03*
X94010D02*
D03*
X100510Y64440D02*
D03*
X96510D02*
D03*
X100510Y63440D02*
D03*
X96510D02*
D03*
X100510Y62440D02*
D03*
X96510D02*
D03*
X77510Y75440D02*
D03*
X78510D02*
D03*
X77510Y76440D02*
D03*
X78510D02*
D03*
X77510Y77440D02*
D03*
X78510D02*
D03*
X77510Y78440D02*
D03*
X78510D02*
D03*
X77510Y79440D02*
D03*
X78510D02*
D03*
X77510Y80440D02*
D03*
X78510D02*
D03*
X77510Y81440D02*
D03*
X78510D02*
D03*
X77510Y82440D02*
D03*
X78510D02*
D03*
X77510Y83440D02*
D03*
X78510D02*
D03*
X77510Y84440D02*
D03*
X78510D02*
D03*
X77510Y85440D02*
D03*
X78510D02*
D03*
X77510Y86440D02*
D03*
X78510D02*
D03*
X77510Y87440D02*
D03*
X78510D02*
D03*
X77510Y88440D02*
D03*
X78510D02*
D03*
X77510Y89440D02*
D03*
X78510D02*
D03*
X77510Y90440D02*
D03*
X78510D02*
D03*
X77510Y91440D02*
D03*
X78510D02*
D03*
X77510Y92440D02*
D03*
X78510D02*
D03*
X77510Y93440D02*
D03*
X78510D02*
D03*
X77510Y94440D02*
D03*
X84510Y77940D02*
D03*
X80510D02*
D03*
X77510Y66940D02*
D03*
X81510D02*
D03*
Y67940D02*
D03*
X77510D02*
D03*
X79510Y68940D02*
D03*
Y71940D02*
D03*
X78510D02*
D03*
X77510D02*
D03*
X78510Y68940D02*
D03*
D25*
X87510Y64440D02*
D03*
X85510Y65440D02*
D03*
X89510D02*
D03*
X90510Y64440D02*
D03*
X84510D02*
D03*
X88510Y60440D02*
D03*
X86510D02*
D03*
X80010Y64440D02*
D03*
X78010Y65440D02*
D03*
X82010D02*
D03*
X83010Y64440D02*
D03*
X77010D02*
D03*
X81010Y60440D02*
D03*
X79010D02*
D03*
D29*
X94010Y93940D02*
D03*
Y60940D02*
D03*
D31*
X103510Y84440D02*
D03*
Y92940D02*
D03*
Y67440D02*
D03*
Y75940D02*
D03*
X83510Y68940D02*
D03*
X78510Y94440D02*
D03*
X77510Y68940D02*
D03*
M02*
