M71
M48
T1F00S00C0.036
T2F00S00C0.050
T3F00S00C0.140
%
T01
X0305Y013
Y014
Y015
X0345
Y014
Y013
X0375Y014
X0385
Y015
X0375
Y016
X0385
Y017
X0375
Y018
X0385
Y0225
X0375
Y0235
X0385
Y0245
X0375
Y0255
X0385
Y0265
X0375
X0345Y0285
X034Y0295
X033Y03
X032Y0305
X031Y031
X029Y029
X028
Y0275
X029
X0295Y026
Y025
Y024
Y023
X0305Y0235
Y0245
Y0255
Y0265
X0345
Y0255
Y0245
Y0235
Y019
Y018
Y017
Y016
X0305
Y017
Y018
Y019
X0235Y0185
Y0175
Y0195
X0225
X0215
X0205
X0195
Y0185
Y0175
X0185Y0195
X0175
X016
Y0225
X0175
X0185
X0195
X0205
X0215
X0225
X0235
X0255Y023
Y024
Y025
Y026
X0185Y0285
X0145
X0135Y0225
X0125
X0115
Y0195
X0125
X0135
X0155Y0185
Y0175
X0115
Y0185
Y026
X0125
Y027
X0115
Y028
X0125
Y029
X0115
Y03
X0125
Y031
X0115
Y032
X0125
Y033
X0115
Y034
X0125
Y035
X0115
Y036
X0125
Y037
X0115
Y038
X0125
Y039
X0115
Y04
X0125
Y041
X0115
Y042
X0125
Y043
X0115
Y044
X0125
Y045
X0115
X026Y043
Y042
Y041
Y04
X03
Y041
Y042
Y043
X031Y0425
Y0415
Y0405
Y0435
X035
Y0425
Y0415
Y0405
Y035
Y034
Y033
Y032
X031
Y033
Y034
Y035
X029Y0345
Y0335
Y0325
Y0315
X025
Y0325
Y0335
Y0345
X018Y032
X0375
Y031
X0385
Y032
Y033
X0375
Y034
X0385
Y035
X0375
Y0395
X0385
Y0405
X0375
Y0415
X0385
Y0425
X0375
Y0435
X0385
T02
X013Y011
X015
X014Y015
X012Y016
X011Y015
X016Y016
X017Y015
X0185
X0195Y016
X0215Y015
X0235Y016
X0245Y015
X0225Y011
X0205
T03
X028Y0115
Y0445
M30
