%FSLAX42Y42*%
%MOMM*%
G71*
G01*
G75*
G04 Layer_Physical_Order=2*
%ADD10C,7.60*%
%ADD11C,2.00*%
%ADD12C,1.00*%
%ADD13C,1.00*%
%ADD14C,1.50*%
%ADD15C,0.55*%
%ADD16C,5.00*%
%ADD17O,2.00X3.00*%
%ADD18O,2.00X6.00*%
%ADD19R,2.00X6.00*%
%ADD20C,3.00*%
%ADD21C,2.00*%
%ADD22R,2.00X2.00*%
%ADD23C,1.85*%
%ADD24R,1.85X1.85*%
%ADD25C,4.60*%
%ADD26C,0.25*%
D10*
X14519Y9431D02*
D03*
X13236D02*
D03*
X11943Y9436D02*
D03*
X10650Y9431D02*
D03*
D11*
X5591Y5217D02*
Y6670D01*
X6579Y4978D02*
X6581Y7757D01*
X3800Y4976D02*
X6579Y4978D01*
X3800Y4976D02*
X3802Y7757D01*
X6581D01*
X4275Y5461D02*
X6317D01*
X6043Y5217D02*
Y7234D01*
X6391Y9817D02*
Y10244D01*
X6899Y9380D02*
Y10244D01*
X14920D02*
Y11222D01*
X13650Y10244D02*
Y10917D01*
X12380Y10244D02*
Y10808D01*
X10571Y10244D02*
X11110D01*
X6185Y9611D02*
X6391Y9817D01*
X10963Y7566D02*
Y8120D01*
X14773Y7515D02*
Y8146D01*
X13503Y7515D02*
Y8164D01*
X12233Y7515D02*
Y8194D01*
X9347Y5370D02*
X14768D01*
X15504Y6106D02*
Y9931D01*
X7168Y9487D02*
Y10244D01*
X7422Y9695D02*
Y10244D01*
X7412Y9685D02*
X7422Y9695D01*
X7168Y10046D02*
Y10244D01*
X6645Y9690D02*
Y10244D01*
X11082Y8240D02*
Y9428D01*
X10959Y8116D02*
X11082Y8240D01*
X14082Y8303D02*
X14269Y8116D01*
X14082Y8303D02*
Y9428D01*
X12802Y8321D02*
X12995Y8128D01*
X10211Y8364D02*
Y9769D01*
X12377Y8339D02*
X12380Y9441D01*
X12799Y8323D02*
Y9403D01*
X7676Y10244D02*
X7887D01*
X8070Y10061D01*
X10373Y9931D02*
X15504D01*
X11504Y9776D02*
X11659Y9931D01*
X11504Y9434D02*
Y9776D01*
X10211Y8364D02*
X10455Y8120D01*
X10211Y9769D02*
X10373Y9931D01*
X14082Y9817D02*
X14196Y9931D01*
X14082Y9428D02*
Y9817D01*
X12802Y9799D02*
X12934Y9931D01*
X12802Y9428D02*
Y9799D01*
X10455Y7566D02*
Y8120D01*
X14768Y5370D02*
X15504Y6106D01*
X15174Y10244D02*
Y10554D01*
X13904Y10244D02*
Y10564D01*
X12634Y10244D02*
Y10538D01*
X11364Y10244D02*
Y10544D01*
X12999Y7511D02*
Y8124D01*
X11504Y8341D02*
Y9434D01*
X14269Y7511D02*
Y8116D01*
X11725Y7515D02*
Y8120D01*
X11504Y8341D02*
X11725Y8120D01*
X14956Y8329D02*
Y9431D01*
X13668Y8329D02*
X13673Y9434D01*
X14773Y8146D02*
X14956Y8329D01*
X13503Y8164D02*
X13668Y8329D01*
X12233Y8194D02*
X12377Y8339D01*
D12*
X3782Y5085D02*
D03*
D13*
X10617Y5624D02*
Y6396D01*
X12271Y5629D02*
Y6200D01*
X12276Y4783D02*
Y5080D01*
X7165Y4788D02*
X8138Y3815D01*
X11308D01*
X12276Y4783D01*
X10864Y6642D02*
X11829D01*
X10617Y6396D02*
X10864Y6642D01*
X11829D02*
X12271Y6200D01*
X10871Y5624D02*
Y6271D01*
X11875Y5631D02*
Y6190D01*
Y4841D02*
Y5072D01*
X8278Y4051D02*
X11085D01*
X7394Y4935D02*
X8278Y4051D01*
X11085D02*
X11875Y4841D01*
X11085Y6485D02*
X11580D01*
X10871Y6271D02*
X11085Y6485D01*
X11580D02*
X11875Y6190D01*
X9601Y5624D02*
Y7120D01*
X9274Y8758D02*
Y10770D01*
Y7447D02*
Y7871D01*
X14729Y11412D02*
X14920Y11222D01*
X9916Y11412D02*
X14729D01*
X9274Y10770D02*
X9916Y11412D01*
X9274Y7447D02*
X9601Y7120D01*
X9347Y5624D02*
Y7082D01*
X9014Y7414D02*
X9347Y7082D01*
X9014Y8537D02*
X9563D01*
X9014Y7414D02*
Y7866D01*
X9571Y10724D02*
X10084Y11237D01*
X9571Y8545D02*
Y10724D01*
X9563Y8537D02*
X9571Y8545D01*
X9093Y5624D02*
Y7054D01*
X8758Y8326D02*
X9738Y8334D01*
X8758Y7389D02*
Y7871D01*
Y7389D02*
X9093Y7054D01*
X13650Y10917D02*
Y10935D01*
X10084Y11237D02*
X13348D01*
X13650Y10935D01*
X12159Y11029D02*
X12380Y10808D01*
X10163Y11029D02*
X12159D01*
X9741Y10607D02*
X10163Y11029D01*
X9741Y8336D02*
Y10607D01*
X9738Y8334D02*
X9741Y8336D01*
X8839Y5624D02*
Y7013D01*
X8679Y8133D02*
X9891D01*
X8468Y7922D02*
X8679Y8133D01*
X8468Y7384D02*
Y7922D01*
Y7384D02*
X8839Y7013D01*
X10165Y10244D02*
X10571D01*
X9891Y8133D02*
X9893Y8136D01*
Y9972D01*
X10165Y10244D01*
X6185Y9601D02*
Y9611D01*
X7165Y4788D02*
Y7973D01*
X6764Y8374D02*
X7165Y7973D01*
X6426Y8374D02*
X6764D01*
X6058Y8743D02*
X6426Y8374D01*
X6058Y8743D02*
Y9474D01*
X6185Y9601D01*
X6886Y9380D02*
X6899D01*
X7394Y4935D02*
Y8072D01*
X6894Y8572D02*
X7394Y8072D01*
X6523Y8572D02*
X6894D01*
X6302Y8793D02*
X6523Y8572D01*
X6302Y8793D02*
Y9149D01*
X6419Y9266D01*
X6772D01*
X6886Y9380D01*
X14769Y7511D02*
X14773Y7515D01*
X13499Y7511D02*
X13503Y7515D01*
X10109Y4605D02*
Y5370D01*
X7623Y5065D02*
Y8801D01*
X6650Y8923D02*
X6919D01*
X7623Y8219D01*
X9855Y5370D02*
X10363D01*
X7412Y8923D02*
X7501D01*
X9809Y4305D02*
X10109Y4605D01*
X8382Y4305D02*
X9809D01*
X7623Y5065D02*
X8382Y4305D01*
X7501Y8923D02*
X7623Y8801D01*
X9093Y4768D02*
Y5370D01*
X9091Y5367D02*
X9093Y5370D01*
X7607Y9307D02*
X7854Y9060D01*
Y5258D02*
Y9060D01*
X8885Y4559D02*
X9093Y4768D01*
X8552Y4559D02*
X8885D01*
X7854Y5258D02*
X8552Y4559D01*
X7348Y9307D02*
X7607D01*
X7168Y9487D02*
X7348Y9307D01*
X6645Y9690D02*
X6650Y9685D01*
X9347Y5370D02*
X9601D01*
X8362D02*
X8839D01*
X8070Y5662D02*
X8362Y5370D01*
X8070Y5662D02*
Y10061D01*
X14234Y9876D02*
Y9931D01*
X10455Y7566D02*
X10459Y7562D01*
X15314Y10693D02*
X15504D01*
X14034D02*
X14234D01*
X12789D02*
X12964D01*
X11514D02*
X11796D01*
X12233Y8120D02*
Y8194D01*
X13503Y8120D02*
Y8164D01*
X14773Y8120D02*
Y8146D01*
X11725Y7515D02*
X11729Y7511D01*
X11725Y7515D02*
X11729Y7511D01*
X12995Y7515D02*
X12999Y7511D01*
X12995Y7515D02*
X12999Y7511D01*
X12993Y8119D02*
X12995Y8120D01*
X12993Y8119D02*
X12995Y8120D01*
X11725Y7515D02*
X11729Y7511D01*
X12995Y7515D02*
X12999Y7511D01*
X12993Y8119D02*
X12995Y8120D01*
X14265D02*
X14269Y8116D01*
X12993Y8119D02*
X12995Y8120D01*
Y8128D01*
Y8118D02*
Y8120D01*
Y7515D02*
X12999Y7511D01*
X11725Y7515D02*
X11729Y7511D01*
X10617Y5370D02*
X10871D01*
X10363D02*
X10617D01*
X9601D02*
X9855D01*
X14773Y8120D02*
Y8146D01*
X13503Y8120D02*
Y8164D01*
X12233Y8120D02*
Y8194D01*
X11514Y10693D02*
X11796D01*
X11364Y10244D02*
Y10544D01*
X12789Y10693D02*
X12964D01*
X12634Y10244D02*
Y10538D01*
X14034Y10693D02*
X14234D01*
X13904Y10244D02*
Y10564D01*
X15314Y10693D02*
X15504D01*
X15174Y10244D02*
Y10554D01*
X15314Y10693D01*
X13904Y10564D02*
X14034Y10693D01*
X12634Y10538D02*
X12789Y10693D01*
X11364Y10544D02*
X11514Y10693D01*
D14*
X11430Y5753D02*
Y6226D01*
X11007Y7513D02*
X11430D01*
X11125Y5624D02*
X11300D01*
X11430Y5753D01*
X10959Y7562D02*
X11007Y7513D01*
X10959Y7562D02*
X10963Y7566D01*
X10363Y5624D02*
Y6683D01*
X14769Y6986D02*
Y7511D01*
X14641Y6858D02*
X14769Y6986D01*
X10538Y6858D02*
X14641D01*
X10363Y6683D02*
X10538Y6858D01*
X10109Y5624D02*
Y6916D01*
X13499Y7220D02*
Y7511D01*
X13358Y7079D02*
X13499Y7220D01*
X10272Y7079D02*
X13358D01*
X10109Y6916D02*
X10272Y7079D01*
X11992Y7275D02*
X12233Y7515D01*
X9855Y5624D02*
Y7094D01*
X10036Y7275D02*
X11992D01*
X9855Y7094D02*
X10036Y7275D01*
D15*
X6233Y4701D02*
X6275Y4743D01*
X6359D01*
X6401Y4701D01*
Y4659D01*
X6359Y4617D01*
X6275D01*
X6233Y4575D01*
Y4533D01*
X6275Y4491D01*
X6359D01*
X6401Y4533D01*
X6148Y4743D02*
X6064D01*
X6106D01*
Y4491D01*
X6148D01*
X6064D01*
X5938Y4743D02*
Y4491D01*
X5770D01*
X5686Y4743D02*
Y4575D01*
X5602Y4491D01*
X5518Y4575D01*
Y4743D01*
X5265D02*
X5434D01*
Y4491D01*
X5265D01*
X5434Y4617D02*
X5349D01*
X5181Y4491D02*
Y4743D01*
X5055D01*
X5013Y4701D01*
Y4617D01*
X5055Y4575D01*
X5181D01*
X5097D02*
X5013Y4491D01*
X4761Y4743D02*
X4929D01*
Y4617D01*
X4845D01*
X4929D01*
Y4491D01*
X4550Y4743D02*
X4635D01*
X4677Y4701D01*
Y4533D01*
X4635Y4491D01*
X4550D01*
X4508Y4533D01*
Y4701D01*
X4550Y4743D01*
X4424D02*
Y4491D01*
X4256D01*
X4172Y4743D02*
Y4491D01*
Y4575D01*
X4004Y4743D01*
X4130Y4617D01*
X4004Y4491D01*
D16*
X4275Y5461D02*
D03*
X5591Y6670D02*
D03*
X6043Y7234D02*
D03*
D17*
X6899Y10244D02*
D03*
X6645D02*
D03*
X15174D02*
D03*
X14920D02*
D03*
X13904D02*
D03*
X13650D02*
D03*
X12634D02*
D03*
X12380D02*
D03*
X7422D02*
D03*
X7676D02*
D03*
X7422D02*
D03*
X7168D02*
D03*
X6645D02*
D03*
X6391D02*
D03*
X11110D02*
D03*
X11364D02*
D03*
D18*
X9601Y5822D02*
D03*
X9350Y5827D02*
D03*
X9093Y5824D02*
D03*
X8839Y5174D02*
D03*
X9093D02*
D03*
X10871Y5814D02*
D03*
X10617Y5827D02*
D03*
X11123Y5829D02*
D03*
X9863Y5824D02*
D03*
X10109Y5822D02*
D03*
X10363D02*
D03*
X9350Y5166D02*
D03*
X9601D02*
D03*
X9855D02*
D03*
X10363Y5159D02*
D03*
X10112Y5166D02*
D03*
X10617Y5174D02*
D03*
X10871Y5166D02*
D03*
X11125Y5171D02*
D03*
D19*
X8839Y5829D02*
D03*
D20*
X11082Y9428D02*
D03*
X12380Y9441D02*
D03*
X13673Y9434D02*
D03*
X14956Y9431D02*
D03*
X14082Y9428D02*
D03*
X12802D02*
D03*
X11504Y9434D02*
D03*
X10211Y9428D02*
D03*
D21*
X10963Y8120D02*
D03*
X13503D02*
D03*
X14773D02*
D03*
X14265D02*
D03*
X12995Y8118D02*
D03*
X11725Y8120D02*
D03*
X10455D02*
D03*
X11125Y5370D02*
D03*
Y5624D02*
D03*
X10871Y5370D02*
D03*
Y5624D02*
D03*
X10617Y5370D02*
D03*
Y5624D02*
D03*
X10363Y5370D02*
D03*
Y5624D02*
D03*
X10109Y5370D02*
D03*
Y5624D02*
D03*
X9855Y5370D02*
D03*
Y5624D02*
D03*
X9601Y5370D02*
D03*
Y5624D02*
D03*
X9347Y5370D02*
D03*
Y5624D02*
D03*
X9093Y5370D02*
D03*
Y5624D02*
D03*
X8839Y5370D02*
D03*
X10459Y7562D02*
D03*
X11729Y7511D02*
D03*
X12999D02*
D03*
X14269D02*
D03*
X15504Y9931D02*
D03*
Y10693D02*
D03*
X14234Y9931D02*
D03*
Y10693D02*
D03*
X12964Y9931D02*
D03*
Y10693D02*
D03*
X11796Y9931D02*
D03*
Y10693D02*
D03*
X7412Y8923D02*
D03*
Y9685D02*
D03*
X6650Y8923D02*
D03*
Y9685D02*
D03*
X11875Y5072D02*
D03*
Y5631D02*
D03*
X12276Y5080D02*
D03*
X12271Y5629D02*
D03*
X8758Y8326D02*
D03*
Y7871D02*
D03*
X9274D02*
D03*
Y8758D02*
D03*
X9014Y7866D02*
D03*
Y8537D02*
D03*
X11430Y6226D02*
D03*
Y7513D02*
D03*
D22*
X8839Y5624D02*
D03*
X10959Y7562D02*
D03*
X12229Y7511D02*
D03*
X13499D02*
D03*
X14769D02*
D03*
D23*
X14773Y8120D02*
D03*
X13503D02*
D03*
X12233D02*
D03*
X10963D02*
D03*
D24*
X14265D02*
D03*
X12995D02*
D03*
X11725D02*
D03*
X10455D02*
D03*
D25*
X7394Y2601D02*
D03*
X6645D02*
D03*
X14773Y2578D02*
D03*
X13503D02*
D03*
X12233D02*
D03*
X10950D02*
D03*
D26*
X16231Y11506D02*
X16236Y3637D01*
X15227D02*
X16236D01*
X15227Y3246D02*
Y3637D01*
Y11506D02*
X16231D01*
X15227D02*
Y11887D01*
X4318D02*
X15227D01*
X4318Y11493D02*
Y11887D01*
X3315Y11493D02*
X4318D01*
X3315D02*
X3317Y3650D01*
X4318Y3246D02*
Y3650D01*
X3317D02*
X4318D01*
Y3246D02*
X15227D01*
M02*
