%FSLAX25Y25*%
%MOIN*%
G70*
G01*
G75*
G04 Layer_Physical_Order=2*
G04 Layer_Color=16711680*
%ADD10C,0.03937*%
%ADD11C,0.01969*%
%ADD12C,0.01000*%
%ADD13C,0.00600*%
%ADD14O,0.03150X0.05906*%
%ADD15C,0.15748*%
%ADD16R,0.06299X0.06299*%
%ADD17O,0.06299X0.15748*%
%ADD18C,0.06299*%
%ADD19O,0.07874X0.04724*%
%ADD20O,0.09843X0.03937*%
%ADD21C,0.07874*%
%ADD22O,0.11811X0.07087*%
%ADD23R,0.09843X0.07874*%
%ADD24O,0.09843X0.07874*%
%ADD25O,0.09843X0.04724*%
%ADD26R,0.07874X0.09843*%
%ADD27O,0.07874X0.09843*%
%ADD28R,0.07874X0.13780*%
%ADD29O,0.07874X0.13780*%
%ADD30O,0.05906X0.07874*%
%ADD31R,0.07874X0.07874*%
%ADD32C,0.09000*%
%ADD33R,0.09000X0.09000*%
%ADD34C,0.13780*%
%ADD35O,0.11811X0.06299*%
%ADD36O,0.11811X0.05512*%
%ADD37R,0.07874X0.07874*%
%ADD38O,0.08000X0.06000*%
%ADD39C,0.05000*%
%ADD40C,0.07874*%
%ADD41C,0.01181*%
%ADD42R,0.11535X0.39449*%
%ADD43R,0.11024X0.38976*%
%ADD44R,0.11811X0.29606*%
%ADD45R,0.05906X0.04331*%
%ADD46R,0.28740X0.40158*%
%ADD47R,0.18110X0.31890*%
G36*
X389914Y181102D02*
X372591D01*
X372198Y180709D01*
X373379Y179528D01*
Y163779D01*
X319836D01*
X309993Y173622D01*
Y174291D01*
X301725Y175591D01*
X274560D01*
Y157874D01*
X415899D01*
X415111Y158661D01*
Y182283D01*
X413143D01*
X402119Y193307D01*
X389914Y181102D01*
D02*
G37*
G36*
X352513Y212992D02*
Y193701D01*
X364324Y181890D01*
X365111D01*
Y203150D01*
X365111Y203150D01*
X387946Y225984D01*
X389127D01*
Y229528D01*
X335977D01*
X352513Y212992D01*
D02*
G37*
G36*
X487158Y476134D02*
X488883Y474409D01*
X528497D01*
Y337008D01*
X367867D01*
X351332Y320472D01*
Y317756D01*
X417513D01*
X417867Y318110D01*
X419836Y316142D01*
X424166D01*
X426922Y318898D01*
X491095D01*
X498182Y311811D01*
X499757D01*
Y318661D01*
X499245Y319173D01*
X502907Y322835D01*
X529284D01*
X530072Y322047D01*
X531647Y323622D01*
Y329528D01*
X533615Y327559D01*
Y277559D01*
X530308Y274252D01*
X491253D01*
Y259842D01*
X491095Y259685D01*
Y248031D01*
X502907D01*
Y181102D01*
X451725D01*
Y165354D01*
X426135D01*
X424166Y169291D01*
X420229Y165354D01*
Y157480D01*
X542277D01*
Y183071D01*
X563930D01*
Y478346D01*
X542277D01*
Y500000D01*
X487158D01*
Y476134D01*
D02*
G37*
D10*
X481253Y222047D02*
Y261221D01*
Y222047D02*
X475741Y216535D01*
X426922Y318898D02*
X421489Y313465D01*
X490505Y318898D02*
X426922D01*
X499245Y310157D02*
X490505Y318898D01*
X528497Y161417D02*
Y261417D01*
X530072Y262992D02*
X528497Y261417D01*
X210387Y359842D02*
X209993Y359449D01*
Y280709D02*
Y359449D01*
X210781Y360236D02*
X210387D01*
Y359842D02*
Y360236D01*
X228549Y350280D02*
X227710Y351119D01*
Y359842D01*
X210781Y360236D02*
X210387Y359842D01*
X233851Y256850D02*
X209993Y280709D01*
X243969Y256850D02*
X233851D01*
X533615Y318110D02*
Y471260D01*
X528741Y476134D01*
X505521D01*
X336371Y251693D02*
X326804Y242126D01*
X253694D01*
X243969Y251850D01*
Y256850D01*
X530072Y262992D02*
X528103Y261024D01*
X533615Y266535D02*
X530072Y262992D01*
X528103Y261024D02*
X527907Y261221D01*
X365111Y181102D02*
Y203150D01*
X442788Y183976D02*
X434009Y175197D01*
X442788Y183976D02*
Y216535D01*
X365111Y181102D02*
X352513Y193701D01*
X445426Y266535D02*
X320229D01*
X475741Y216535D02*
X442788D01*
X499245Y310157D02*
Y319173D01*
X502907Y322835D02*
X499245Y319173D01*
X528891Y322835D02*
X502907D01*
X533615Y318110D02*
X528891Y322835D01*
X533615Y266535D02*
Y318110D01*
X527907Y261221D02*
X511568D01*
X501922Y270866D01*
X494639D01*
X488733Y276772D02*
X455662D01*
X445426Y266535D01*
X320229D02*
X310544Y256850D01*
X293969D01*
X499245Y284567D02*
Y310157D01*
X421489D02*
Y313465D01*
X421410Y314567D02*
X417867Y318110D01*
X421410Y310236D02*
Y314567D01*
X421489Y310157D02*
X421410Y310236D01*
X421489Y284567D02*
Y310157D01*
X417867Y318110D02*
X351686D01*
X343733Y310157D01*
Y284567D02*
Y310157D01*
Y284567D02*
X322533D01*
X300643Y306457D01*
Y342717D01*
X300151Y343209D01*
Y357382D01*
X291166Y366366D01*
X253502Y358863D02*
X253502D01*
X258639Y364000D02*
X253502Y358863D01*
X270343Y364000D02*
X258639D01*
X247001Y321342D02*
Y352362D01*
X253502Y358863D02*
X247001Y352362D01*
X252273Y365508D02*
X240765Y354000D01*
X239093D01*
X260765Y374000D02*
X252273Y365508D01*
X270343Y374000D02*
X260765D01*
X288833Y342717D02*
X287549Y344000D01*
X270343D01*
X288833Y352559D02*
X287392Y354000D01*
X270343D01*
X230746Y350280D02*
X228549D01*
X234466Y354000D02*
X230746Y350280D01*
X239093Y354000D02*
X234466D01*
X505521Y445500D02*
Y464323D01*
X505021Y445000D02*
X451021D01*
X505521Y476134D02*
X451021D01*
X503343Y438500D02*
X494843D01*
X490843Y434500D01*
Y430291D02*
Y434500D01*
X443844Y438500D02*
X437635Y432291D01*
X449844Y438500D02*
X443844D01*
X451021Y476134D02*
X404021D01*
X451021Y445000D02*
Y464323D01*
Y439677D02*
Y445000D01*
X450521Y445500D02*
X401343D01*
X349343D02*
Y451000D01*
Y438500D02*
Y445500D01*
X401343D02*
X349343D01*
X401343D02*
Y454500D01*
Y439000D02*
Y445500D01*
X404021Y476134D02*
X351521D01*
X286989Y374000D02*
X270343D01*
X291166Y378177D02*
X286989Y374000D01*
X288800Y364000D02*
X270343D01*
X291166Y366366D02*
X288800Y364000D01*
X394343Y437291D02*
X389344Y432291D01*
X401343Y438000D02*
X394343D01*
X404021Y457177D02*
Y464323D01*
Y457177D02*
X401343Y454500D01*
X351521Y453177D02*
Y464323D01*
X322985Y462205D02*
X314718D01*
X304481Y451968D01*
X335977Y436221D02*
Y451000D01*
X349343D02*
X335977D01*
X334190D01*
X322985Y462205D01*
X503343Y438500D02*
Y443323D01*
X505021Y445000D02*
X503343Y443323D01*
X491253Y259842D02*
Y274252D01*
X490603Y274902D01*
X494639Y270866D02*
X491253Y274252D01*
X488733Y276772D01*
X471115Y260394D02*
X470958Y260236D01*
X471115Y260394D02*
X461824D01*
X459304Y257874D01*
X528497Y161417D02*
X526430Y163484D01*
X426036D01*
X304481Y382283D02*
Y451968D01*
Y382283D02*
X300375Y378177D01*
X291166D01*
X459304Y257874D02*
X452907D01*
X402513Y246063D02*
X390702D01*
X420229Y228346D02*
X402513Y246063D01*
X451725Y228346D02*
X420229D01*
X336489Y179134D02*
Y210394D01*
X336371Y210512D01*
X390702Y246063D02*
X384796D01*
X375859Y255000D01*
X365111D01*
X329678Y232283D02*
X322985D01*
X357237Y250000D02*
X347395D01*
X329678Y232283D01*
D11*
X355528Y278646D02*
X308907D01*
X289084Y298468D01*
X429442Y274803D02*
X306843D01*
X438340Y271654D02*
X303300D01*
X361450Y284567D02*
X355528Y278646D01*
X306843Y274803D02*
X286647Y295000D01*
X439206Y284567D02*
X429442Y274803D01*
X303300Y271654D02*
X284009Y290945D01*
X450151Y283465D02*
X438340Y271654D01*
X330749Y318000D02*
X313843D01*
X361344Y348594D02*
X330749Y318000D01*
X361344Y348594D02*
Y351291D01*
X516962Y284567D02*
X510741Y278346D01*
X495426D01*
X490308Y283465D01*
X450151D01*
X280332Y379000D02*
X257843D01*
X232533Y274410D02*
X219147Y287795D01*
X259993Y274410D02*
X232533D01*
X263969Y270433D02*
X259993Y274410D01*
X233714Y280315D02*
X223084Y290945D01*
X269836Y280315D02*
X233714D01*
X273970Y276181D02*
X269836Y280315D01*
X236076Y285433D02*
X226824Y294685D01*
X276529Y285433D02*
X236076D01*
X283969Y277992D02*
X276529Y285433D01*
X237899Y290945D02*
X230843Y298000D01*
X284009Y290945D02*
X237899D01*
X289084Y298468D02*
X275875D01*
X516962Y284567D02*
Y310157D01*
X439206Y284567D02*
Y310157D01*
X361450Y284567D02*
Y310157D01*
X253970Y256850D02*
Y265571D01*
X250544Y268996D01*
X231681D01*
X226824Y294685D02*
Y322342D01*
X223084Y290945D02*
Y332382D01*
X219147Y287795D02*
Y338287D01*
X224859Y344000D02*
X219147Y338287D01*
X224702Y334000D02*
X223084Y332382D01*
X228481Y324000D02*
X226824Y322342D01*
X247844Y379000D02*
X222458D01*
X263969Y256850D02*
Y270433D01*
X239093Y344000D02*
X224859D01*
X273970Y256850D02*
Y276181D01*
X239093Y334000D02*
X224702D01*
X239093Y324000D02*
X228481D01*
X283969Y256850D02*
Y277992D01*
X270343Y354000D02*
X266355D01*
X258811Y346457D01*
X330560Y306000D02*
X313843D01*
X371844Y347284D02*
X330560Y306000D01*
X371844Y347284D02*
Y350902D01*
X334875Y330000D02*
X313843D01*
X351399Y346524D02*
X334875Y330000D01*
X351399Y346524D02*
Y351346D01*
X357568Y470276D02*
X344119D01*
X364844Y463000D02*
X357568Y470276D01*
X396521Y470177D02*
X389344Y463000D01*
X408666Y470177D02*
X396521D01*
X415843Y463000D02*
X408666Y470177D01*
X444119Y470276D02*
X436843Y463000D01*
X458568Y470276D02*
X444119D01*
X465843Y463000D02*
X458568Y470276D01*
X500119D02*
X490843Y461000D01*
X512068Y470276D02*
X500119D01*
X519843Y462500D02*
X512068Y470276D01*
X451178Y428500D02*
X449844D01*
X461343Y418335D02*
X451178Y428500D01*
X461343Y411835D02*
Y418335D01*
X257843Y379000D02*
X252843Y374000D01*
X276635Y384000D02*
X270343D01*
X283135Y390500D02*
X276635Y384000D01*
X252843Y374000D02*
X239093D01*
X351399Y416945D02*
X346343Y422000D01*
X505521Y445500D02*
X505021Y445000D01*
X519843Y461000D02*
Y462500D01*
X471792Y411386D02*
Y419449D01*
X475344Y423000D02*
X471792Y419449D01*
X499529Y423000D02*
X475344D01*
X519843Y430291D02*
X511906D01*
X508698Y433500D01*
X490843Y461000D02*
X482343D01*
X479344Y458000D01*
Y453291D02*
Y458000D01*
X436843Y463000D02*
X435844D01*
X465843Y461000D02*
Y463000D01*
X436843Y461000D02*
X436343Y461500D01*
X429344D01*
X427844Y460000D01*
Y453291D02*
Y460000D01*
X417843Y429000D02*
X413343D01*
X408844Y433500D01*
X418343Y460209D02*
X415843Y462709D01*
Y463000D01*
X451021Y445000D02*
X450521Y445500D01*
X451021Y439677D02*
X449844Y438500D01*
X465843Y432291D02*
X465552Y432000D01*
X460344D01*
X458844Y433500D01*
X455198D01*
X461792Y411386D02*
X461343Y411835D01*
X378843Y462500D02*
X377344Y461000D01*
X388843Y462500D02*
X378843D01*
X389344Y463000D02*
X388843Y462500D01*
X377344Y453291D02*
Y461000D01*
X365343Y463000D02*
X364844D01*
X511792Y402449D02*
Y411386D01*
Y402449D02*
X511343Y402000D01*
X451792Y402051D02*
Y411386D01*
X511343Y402000D02*
X451844D01*
X451792Y402051D01*
X451844Y402000D02*
X411343D01*
X411399Y402055D02*
X411343Y402000D01*
X411399Y402055D02*
Y411386D01*
X351399Y402055D02*
Y411386D01*
Y402055D02*
X351343Y402000D01*
X411343D02*
X351343D01*
X511792Y351346D02*
Y359949D01*
X511843Y360000D02*
X511792Y359949D01*
X471792Y351346D02*
Y359449D01*
X511843Y360000D02*
X472343D01*
X471792Y359449D01*
X411399Y351346D02*
Y359945D01*
X411343Y360000D01*
X472343D02*
X411343D01*
X371399Y351346D02*
Y359945D01*
X371343Y360000D01*
X411343D02*
X371343D01*
X501844Y366000D02*
X461843D01*
X401343D01*
X361344D01*
X491844Y372000D02*
X441844D01*
X391343D01*
X341343D01*
X481844Y378000D02*
X431844D01*
X381344D01*
X331344D01*
X501844Y396000D02*
X451844Y396000D01*
X401343D01*
X351343D01*
X481844Y384000D02*
X431844D01*
X381344D01*
X331344D01*
X491844Y390000D02*
X441844Y390000D01*
X391343D01*
X341343D01*
X361399Y351346D02*
Y365945D01*
X341399Y351346D02*
Y371945D01*
X341343Y390000D02*
Y411331D01*
X351343Y351402D02*
Y361500D01*
X351399Y351346D02*
X351343Y351402D01*
X351399Y411386D02*
Y416945D01*
X274343Y408000D02*
X270343Y404000D01*
X331344Y351402D02*
X328745Y354000D01*
X274343Y330000D02*
X270343Y334000D01*
X283135Y330000D02*
X274343D01*
X361399Y351346D02*
X361344Y351291D01*
X277135Y324000D02*
X270343D01*
X283135Y318000D02*
X277135Y324000D01*
X275135Y314000D02*
X270343D01*
X283135Y306000D02*
X275135Y314000D01*
X371844Y350902D02*
X371399Y351346D01*
X275875Y298468D02*
X270343Y304000D01*
X239093Y314000D02*
X233344D01*
X230843Y311500D01*
Y298000D02*
Y311500D01*
X239093Y324000D02*
X239093Y324000D01*
X239093Y334000D02*
X239093Y334000D01*
X239093Y344000D02*
X239093Y344000D01*
X232583Y374000D02*
X228549Y369965D01*
X239093Y374000D02*
X232583D01*
X331344Y384000D02*
Y391000D01*
Y411331D01*
X276635Y408000D02*
X274343D01*
X283135Y414500D02*
X276635Y408000D01*
X274635Y394000D02*
X270343D01*
X283135Y402500D02*
X274635Y394000D01*
X353843Y428500D02*
X349343D01*
X361399Y411386D02*
X361344Y411441D01*
Y421000D01*
X353843Y428500D01*
X401844D02*
X395844Y422500D01*
X374844D01*
X371399Y419055D01*
Y411386D02*
Y419055D01*
X394343Y437291D02*
Y438000D01*
X401844Y438500D02*
X401343Y438000D01*
X408844Y433500D02*
X407198D01*
X355843D02*
X354698D01*
X401844Y438500D02*
X401343Y439000D01*
X351521Y453177D02*
X349343Y451000D01*
X427844Y484000D02*
X426804Y485039D01*
X386804D01*
X270343Y344000D02*
X264942Y338598D01*
X254481Y342913D02*
Y346457D01*
X264942Y338598D02*
X258796D01*
X254481Y342913D01*
X351521Y476134D02*
X346946Y480709D01*
X316686D01*
X313930Y477953D01*
X298970Y474409D02*
X264718D01*
X251001Y404000D02*
X239093D01*
X247788Y414000D02*
X239093D01*
X247788D02*
Y483071D01*
X260781Y496063D02*
X247788Y483071D01*
X251725Y404724D02*
X251001Y404000D01*
X251725Y404724D02*
Y480315D01*
X258812Y398425D02*
Y468504D01*
X264718Y474409D02*
X258812Y468504D01*
X254828Y401134D02*
X247694Y394000D01*
X239093D01*
X244387Y384000D02*
X239093D01*
X255662Y401949D02*
Y477165D01*
X254847Y401134D02*
X254828D01*
X255662Y401949D02*
X254847Y401134D01*
X258812Y398425D02*
X244387Y384000D01*
X270343Y434000D02*
X262355D01*
Y393512D02*
Y434000D01*
Y393512D02*
X247844Y379000D01*
X292277Y462205D02*
X274166D01*
X270343Y458382D01*
Y434000D02*
Y458382D01*
X313930Y470472D02*
Y477953D01*
X321410Y448819D02*
X313930D01*
X274438Y424000D02*
X270343D01*
X278444Y428006D02*
X274438Y424000D01*
X278444Y428006D02*
Y444041D01*
X283221Y448819D02*
X278444Y444041D01*
X298182Y389000D02*
Y454724D01*
X313930Y470472D02*
X298182Y454724D01*
X321017Y415748D02*
Y424409D01*
X325379Y411386D02*
X321017Y415748D01*
X331399Y411386D02*
X325379D01*
X336269Y419000D02*
X325741Y429528D01*
X273599Y414000D02*
X270343D01*
X282434Y422835D02*
X273599Y414000D01*
X282434Y422835D02*
Y433071D01*
X285584Y436221D02*
X282434Y433071D01*
X283135Y414500D02*
Y417236D01*
X290308Y424409D02*
X283135Y417236D01*
X328891Y441339D02*
X321410Y448819D01*
X335584Y474409D02*
X329678D01*
X335977Y474016D02*
X335584Y474409D01*
X335977Y466929D02*
Y474016D01*
X344119Y470276D02*
X343922Y470472D01*
X339521D01*
X335977Y466929D01*
X283135Y402500D02*
Y405425D01*
X287158Y409449D02*
X283135Y405425D01*
X284351Y390500D02*
X283135D01*
X287158Y393307D02*
X284351Y390500D01*
X326135Y401181D02*
X317867Y409449D01*
X341399Y346760D02*
Y351346D01*
Y346760D02*
X332828Y338189D01*
X322198D01*
X317867Y342520D01*
Y393307D01*
X286647Y295000D02*
X246489D01*
X239093Y302396D01*
Y304000D01*
X231681Y268996D02*
X215505Y285172D01*
Y343781D01*
X218261Y346537D02*
X215505Y343781D01*
X218261Y346537D02*
Y374803D01*
X222458Y379000D02*
X218261Y374803D01*
X377344Y484000D02*
X365757D01*
X365343Y432291D02*
X364564Y433071D01*
X356273D01*
X355843Y433500D01*
X346343Y422000D02*
X340355D01*
X328891Y433465D01*
Y441339D01*
X341399Y411386D02*
Y413870D01*
X336269Y419000D01*
Y419000D01*
X325741Y429528D02*
X325741D01*
X319048Y436221D01*
X314324D01*
X331344Y377862D02*
Y378000D01*
Y377862D02*
X326135Y383071D01*
Y401181D01*
X331399Y351346D02*
X331344Y351402D01*
Y377953D01*
X503343Y426815D02*
Y428500D01*
Y426815D02*
X499529Y423000D01*
X441883Y496063D02*
X260781D01*
X479344Y484000D02*
X453946D01*
X441883Y496063D01*
X386804Y485039D02*
X379717Y492126D01*
X263536D01*
X251725Y480315D01*
X365757Y484000D02*
X361568Y488189D01*
X266686D01*
X255662Y477165D01*
X287158Y385827D02*
X280332Y379000D01*
X295009Y385827D02*
X287158D01*
X298182Y389000D02*
X295009Y385827D01*
X239093Y424000D02*
X228088D01*
X223379Y419291D01*
Y401575D02*
Y419291D01*
Y401575D02*
X203694Y381890D01*
X292277Y232283D02*
X227316D01*
X239127Y462598D02*
X239093Y462565D01*
X217473Y403543D02*
X199757Y385827D01*
X217473Y403543D02*
Y423228D01*
X228245Y434000D02*
X217473Y423228D01*
X239093Y434000D02*
X228245D01*
X269442Y216535D02*
Y225197D01*
X313930Y218504D02*
X308025Y224410D01*
X270229D01*
X269442Y225197D01*
X268458Y226181D02*
X253103D01*
X269442Y225197D02*
X268458Y226181D01*
X217473Y223622D02*
Y248031D01*
X199757Y265748D01*
Y385827D01*
X233221Y223622D02*
X217473D01*
X253103Y220276D02*
Y226181D01*
X235781D01*
X233221Y223622D01*
X227316Y232283D02*
Y250000D01*
X203694Y273622D01*
Y381890D01*
D12*
X196214Y488189D02*
G03*
X196214Y488189I5512J0D01*
G01*
X545626Y169291D02*
G03*
X545626Y169291I6493J0D01*
G01*
X195033D02*
G03*
X195033Y169291I6693J0D01*
G01*
X546109Y488189D02*
G03*
X546109Y488189I6010J0D01*
G01*
X592489Y500000D02*
X590489D01*
X592489Y157480D02*
X590489D01*
X591489Y500000D02*
X589489Y494000D01*
X593489D02*
X591489Y500000D01*
Y157480D02*
X589489Y163480D01*
X593489D02*
X591489Y157480D01*
Y348834D02*
Y500000D01*
Y157480D02*
Y308646D01*
X189914Y514748D02*
Y516748D01*
X563930Y514748D02*
Y516748D01*
X195914Y513748D02*
X189914Y515748D01*
X195914Y517748D02*
X189914Y515748D01*
X563930D02*
X557930Y513748D01*
X563930Y515748D02*
X557930Y517748D01*
X356828Y515748D02*
X189914D01*
X563930D02*
X397016D01*
X189914Y263779D02*
Y279528D01*
Y157480D02*
Y263779D01*
X563930Y157480D02*
X189914D01*
X563930Y157480D02*
X563930Y157480D01*
X563930Y157480D02*
Y279528D01*
Y500000D01*
X189914Y279527D02*
Y500000D01*
X563930Y500000D02*
X189914Y500000D01*
D13*
X592888Y309646D02*
X593888Y310646D01*
Y312645D01*
X592888Y313645D01*
X591889D01*
X590889Y312645D01*
X589889Y313645D01*
X588890D01*
X587890Y312645D01*
Y310646D01*
X588890Y309646D01*
X589889D01*
X590889Y310646D01*
X591889Y309646D01*
X592888D01*
X590889Y310646D02*
Y312645D01*
X593888Y315644D02*
Y319643D01*
X592888D01*
X588890Y315644D01*
X587890D01*
Y329640D02*
X589889Y327640D01*
X591889D01*
X593888Y329640D01*
X587890Y332639D02*
X591889D01*
Y333638D01*
X590889Y334638D01*
X587890D01*
X590889D01*
X591889Y335638D01*
X590889Y336637D01*
X587890D01*
Y338637D02*
X591889D01*
Y339636D01*
X590889Y340636D01*
X587890D01*
X590889D01*
X591889Y341636D01*
X590889Y342635D01*
X587890D01*
Y344635D02*
X589889Y346634D01*
X591889D01*
X593888Y344635D01*
X396016Y513149D02*
X395017Y512149D01*
X393017D01*
X392018Y513149D01*
Y517147D01*
X393017Y518147D01*
X395017D01*
X396016Y517147D01*
Y516148D01*
X395017Y515148D01*
X392018D01*
X386019Y518147D02*
X390018D01*
Y515148D01*
X388019Y516148D01*
X387019D01*
X386019Y515148D01*
Y513149D01*
X387019Y512149D01*
X389019D01*
X390018Y513149D01*
X376023Y512149D02*
X378022Y514148D01*
Y516148D01*
X376023Y518147D01*
X373024Y512149D02*
Y516148D01*
X372024D01*
X371024Y515148D01*
Y512149D01*
Y515148D01*
X370025Y516148D01*
X369025Y515148D01*
Y512149D01*
X367026D02*
Y516148D01*
X366026D01*
X365026Y515148D01*
Y512149D01*
Y515148D01*
X364027Y516148D01*
X363027Y515148D01*
Y512149D01*
X361028D02*
X359028Y514148D01*
Y516148D01*
X361028Y518147D01*
D14*
X254481Y346457D02*
D03*
X258811D02*
D03*
D15*
X481353Y194243D02*
D03*
D16*
X471253Y259842D02*
D03*
D17*
X481253D02*
D03*
D18*
X491253D02*
D03*
D19*
X503343Y438500D02*
D03*
X508698Y433500D02*
D03*
X503343Y428500D02*
D03*
X449844Y438500D02*
D03*
X455198Y433500D02*
D03*
X449844Y428500D02*
D03*
X401844Y438500D02*
D03*
X407198Y433500D02*
D03*
X401844Y428500D02*
D03*
D20*
X349343D02*
D03*
X354698Y433500D02*
D03*
X349343Y438500D02*
D03*
D21*
X519843Y461000D02*
D03*
Y430291D02*
D03*
X465843Y461000D02*
D03*
Y430291D02*
D03*
X490843D02*
D03*
Y461000D02*
D03*
X436843Y430291D02*
D03*
Y461000D02*
D03*
X418343Y460209D02*
D03*
Y429500D02*
D03*
X365343Y463000D02*
D03*
Y432291D02*
D03*
X389344D02*
D03*
Y463000D02*
D03*
X335977Y436221D02*
D03*
Y466929D02*
D03*
X283135Y330000D02*
D03*
X313843D02*
D03*
X283221Y448819D02*
D03*
X313930D02*
D03*
X283221Y305118D02*
D03*
X313930D02*
D03*
X283135Y318000D02*
D03*
X313843D02*
D03*
X290308Y424409D02*
D03*
X321017D02*
D03*
X285584Y436221D02*
D03*
X316292D02*
D03*
X322985Y462205D02*
D03*
X292277D02*
D03*
X298970Y474409D02*
D03*
X329678D02*
D03*
X377344Y484000D02*
D03*
Y453291D02*
D03*
X427844Y484000D02*
D03*
Y453291D02*
D03*
X479344Y484000D02*
D03*
Y453291D02*
D03*
X336371Y210512D02*
D03*
X451725Y228346D02*
D03*
Y259055D02*
D03*
X516962Y310157D02*
D03*
Y284567D02*
D03*
X499245D02*
D03*
Y310157D02*
D03*
X361450D02*
D03*
Y284567D02*
D03*
X343733D02*
D03*
Y310157D02*
D03*
X439206D02*
D03*
Y284567D02*
D03*
X421489D02*
D03*
Y310157D02*
D03*
X288833Y352559D02*
D03*
X300643D02*
D03*
X288833Y342717D02*
D03*
X300643D02*
D03*
X317867Y393307D02*
D03*
X287158D02*
D03*
X317867Y409449D02*
D03*
X287158D02*
D03*
X322985Y232283D02*
D03*
X292277D02*
D03*
X390702Y215354D02*
D03*
Y246063D02*
D03*
X227316Y262992D02*
D03*
Y232283D02*
D03*
X253103Y208465D02*
D03*
Y220276D02*
D03*
X442788Y216535D02*
D03*
X269442D02*
D03*
X300151D02*
D03*
X313930Y187795D02*
D03*
Y218504D02*
D03*
X295308Y179134D02*
D03*
X227710Y359842D02*
D03*
X210387D02*
D03*
D22*
X505521Y476134D02*
D03*
Y464323D02*
D03*
X451021Y476134D02*
D03*
Y464323D02*
D03*
X404021Y476134D02*
D03*
Y464323D02*
D03*
X351521Y476134D02*
D03*
Y464323D02*
D03*
X228549Y350280D02*
D03*
Y369965D02*
D03*
X291166Y366366D02*
D03*
Y378177D02*
D03*
D23*
X270343Y434000D02*
D03*
D24*
X270343Y424000D02*
D03*
X270343Y414000D02*
D03*
Y404000D02*
D03*
X270343Y394000D02*
D03*
X270343Y364000D02*
D03*
Y354000D02*
D03*
Y344000D02*
D03*
X270343Y334000D02*
D03*
Y324000D02*
D03*
X270343Y314000D02*
D03*
Y304000D02*
D03*
X239093Y434000D02*
D03*
Y424000D02*
D03*
Y414000D02*
D03*
Y404000D02*
D03*
Y394000D02*
D03*
Y364000D02*
D03*
X239093Y354000D02*
D03*
X239093Y344000D02*
D03*
X239093Y334000D02*
D03*
X239093Y304000D02*
D03*
D25*
X270343Y384000D02*
D03*
X270343Y374000D02*
D03*
X239093Y384000D02*
D03*
Y374000D02*
D03*
Y324000D02*
D03*
X239093Y314000D02*
D03*
D26*
X511792Y351346D02*
D03*
X411399D02*
D03*
D27*
X501792D02*
D03*
X491792D02*
D03*
X481792Y351346D02*
D03*
X471792Y351346D02*
D03*
X461792Y351346D02*
D03*
X451792Y351346D02*
D03*
X441792Y351346D02*
D03*
X431792Y351346D02*
D03*
X511792Y411386D02*
D03*
X501792Y411386D02*
D03*
X491792Y411386D02*
D03*
X481792Y411386D02*
D03*
X471792Y411386D02*
D03*
X461792D02*
D03*
X451792Y411386D02*
D03*
X441792Y411386D02*
D03*
X431792D02*
D03*
X401399Y351346D02*
D03*
X391399D02*
D03*
X381399Y351346D02*
D03*
X371399Y351346D02*
D03*
X361399Y351346D02*
D03*
X351399Y351346D02*
D03*
X341399Y351346D02*
D03*
X331399Y351346D02*
D03*
X411399Y411386D02*
D03*
X401399Y411386D02*
D03*
X391399Y411386D02*
D03*
X381399Y411386D02*
D03*
X371399Y411386D02*
D03*
X361399D02*
D03*
X351399Y411386D02*
D03*
X341399Y411386D02*
D03*
X331399D02*
D03*
D28*
X274166Y175591D02*
D03*
X434009Y175197D02*
D03*
D29*
X254481Y175591D02*
D03*
X414324Y175197D02*
D03*
D30*
X372985Y181102D02*
D03*
X365111D02*
D03*
D31*
X336371Y251693D02*
D03*
D32*
X293969Y256850D02*
D03*
X283969D02*
D03*
X273970D02*
D03*
X263969D02*
D03*
X253970D02*
D03*
D33*
X243969D02*
D03*
D34*
X201725Y169291D02*
D03*
Y488189D02*
D03*
X552119D02*
D03*
Y169291D02*
D03*
D35*
X501844Y396000D02*
D03*
X491844Y390000D02*
D03*
Y372000D02*
D03*
X501844Y366000D02*
D03*
X461843D02*
D03*
X441844Y372000D02*
D03*
Y390000D02*
D03*
X451844Y396000D02*
D03*
X401343D02*
D03*
X391343Y390000D02*
D03*
Y372000D02*
D03*
X401343Y366000D02*
D03*
X351343Y396000D02*
D03*
Y361500D02*
D03*
D36*
X481844Y384000D02*
D03*
Y378000D02*
D03*
X431844D02*
D03*
Y384000D02*
D03*
X381344Y378000D02*
D03*
Y384000D02*
D03*
D37*
X401607Y216535D02*
D03*
X336489Y179134D02*
D03*
D38*
X365111Y245000D02*
D03*
X357237Y250000D02*
D03*
X365111Y255000D02*
D03*
D39*
X501844Y406500D02*
D03*
X491844D02*
D03*
X481844D02*
D03*
X441844D02*
D03*
X431844D02*
D03*
X401343D02*
D03*
X391343D02*
D03*
X381344D02*
D03*
Y355500D02*
D03*
X391343D02*
D03*
X401343D02*
D03*
X431844D02*
D03*
X441844D02*
D03*
X451844D02*
D03*
X461843D02*
D03*
X481844D02*
D03*
X491844D02*
D03*
X501844D02*
D03*
D40*
X352513Y193701D02*
Y209449D01*
X407631Y225590D02*
X387552D01*
X365111Y203150D01*
X309993Y174291D02*
X308694Y175591D01*
X401607Y193819D02*
X388891Y181102D01*
X414324Y181102D02*
X401607Y193819D01*
X414324Y175197D02*
Y181102D01*
X372080Y165630D02*
X318654D01*
X373001Y166551D02*
X372080Y165630D01*
X373001Y166551D02*
Y181102D01*
X388891D02*
X373001D01*
X424560Y164961D02*
Y208661D01*
X407631Y225590D01*
X426036Y163484D02*
X424560Y164961D01*
X390702Y206693D02*
Y215354D01*
X392670Y204724D02*
X390702Y206693D01*
X401607Y204724D02*
X392670D01*
X401607Y193819D02*
Y204724D01*
Y216535D01*
X300151Y174291D02*
X298851Y175591D01*
X295308Y179134D01*
X308694Y175591D02*
X298851D01*
X365111Y226378D02*
Y245000D01*
X352513Y209449D02*
X336371Y225590D01*
X325741Y214961D01*
Y204724D02*
Y214961D01*
X254481Y175591D02*
Y204724D01*
X295308Y179134D02*
X294245Y180197D01*
X298851Y175591D02*
X274166D01*
X280466Y204724D02*
X254481D01*
X313930Y171260D02*
Y187795D01*
Y171260D02*
X313477Y170807D01*
X318654Y165630D02*
X313477Y170807D01*
X309993Y174291D01*
X300151Y204724D02*
Y216535D01*
X325741Y204724D02*
X300151D01*
X280466D01*
D41*
X241939Y476379D02*
X242502Y476566D01*
X242877Y477129D01*
X243064Y478066D01*
Y478628D01*
X242877Y479565D01*
X242502Y480127D01*
X241939Y480315D01*
X241564D01*
X241002Y480127D01*
X240627Y479565D01*
X240440Y478628D01*
Y478066D01*
X240627Y477129D01*
X241002Y476566D01*
X241564Y476379D01*
X241939D01*
X239184D02*
X237122D01*
X238247Y477878D01*
X237684D01*
X237310Y478066D01*
X237122Y478253D01*
X236935Y478816D01*
Y479190D01*
X237122Y479753D01*
X237497Y480127D01*
X238059Y480315D01*
X238622D01*
X239184Y480127D01*
X239371Y479940D01*
X239559Y479565D01*
X236054Y480877D02*
X233430Y476379D01*
X232043D02*
X232605Y476566D01*
X232980Y477129D01*
X233167Y478066D01*
Y478628D01*
X232980Y479565D01*
X232605Y480127D01*
X232043Y480315D01*
X231668D01*
X231105Y480127D01*
X230731Y479565D01*
X230543Y478628D01*
Y478066D01*
X230731Y477129D01*
X231105Y476566D01*
X231668Y476379D01*
X232043D01*
X227226Y477691D02*
X227413Y478253D01*
X227788Y478628D01*
X228350Y478816D01*
X228538D01*
X229100Y478628D01*
X229475Y478253D01*
X229662Y477691D01*
Y477503D01*
X229475Y476941D01*
X229100Y476566D01*
X228538Y476379D01*
X228350D01*
X227788Y476566D01*
X227413Y476941D01*
X227226Y477691D01*
Y478628D01*
X227413Y479565D01*
X227788Y480127D01*
X228350Y480315D01*
X228725D01*
X229287Y480127D01*
X229475Y479753D01*
X226157Y480877D02*
X223533Y476379D01*
X223271Y477129D02*
X222896Y476941D01*
X222334Y476379D01*
Y480315D01*
X218135Y476379D02*
X220009D01*
X220197Y478066D01*
X220009Y477878D01*
X219447Y477691D01*
X218885D01*
X218322Y477878D01*
X217948Y478253D01*
X217760Y478816D01*
Y479190D01*
X217948Y479753D01*
X218322Y480127D01*
X218885Y480315D01*
X219447D01*
X220009Y480127D01*
X220197Y479940D01*
X220384Y479565D01*
X243064Y468505D02*
Y472441D01*
Y468505D02*
X240627D01*
X243064Y470379D02*
X241564D01*
X240177Y470941D02*
X237928D01*
Y470567D01*
X238116Y470192D01*
X238303Y470004D01*
X238678Y469817D01*
X239240D01*
X239615Y470004D01*
X239990Y470379D01*
X240177Y470941D01*
Y471316D01*
X239990Y471879D01*
X239615Y472254D01*
X239240Y472441D01*
X238678D01*
X238303Y472254D01*
X237928Y471879D01*
X237085Y470941D02*
X234836D01*
Y470567D01*
X235023Y470192D01*
X235210Y470004D01*
X235585Y469817D01*
X236148D01*
X236522Y470004D01*
X236897Y470379D01*
X237085Y470941D01*
Y471316D01*
X236897Y471879D01*
X236522Y472254D01*
X236148Y472441D01*
X235585D01*
X235210Y472254D01*
X234836Y471879D01*
X231743Y468505D02*
Y472441D01*
Y470379D02*
X232118Y470004D01*
X232492Y469817D01*
X233055D01*
X233430Y470004D01*
X233805Y470379D01*
X233992Y470941D01*
Y471316D01*
X233805Y471879D01*
X233430Y472254D01*
X233055Y472441D01*
X232492D01*
X232118Y472254D01*
X231743Y471879D01*
X226288Y468505D02*
Y472441D01*
X227601Y468505D02*
X224976D01*
X224133D02*
X223945Y468692D01*
X223758Y468505D01*
X223945Y468317D01*
X224133Y468505D01*
X223945Y469817D02*
Y472441D01*
X223064Y469817D02*
Y472441D01*
Y470567D02*
X222502Y470004D01*
X222127Y469817D01*
X221565D01*
X221190Y470004D01*
X221003Y470567D01*
Y472441D01*
Y470567D02*
X220440Y470004D01*
X220065Y469817D01*
X219503D01*
X219128Y470004D01*
X218941Y470567D01*
Y472441D01*
X217704Y470941D02*
X215455D01*
Y470567D01*
X215642Y470192D01*
X215829Y470004D01*
X216204Y469817D01*
X216767D01*
X217142Y470004D01*
X217516Y470379D01*
X217704Y470941D01*
Y471316D01*
X217516Y471879D01*
X217142Y472254D01*
X216767Y472441D01*
X216204D01*
X215829Y472254D01*
X215455Y471879D01*
X214611Y469817D02*
Y472441D01*
Y470941D02*
X214424Y470379D01*
X214049Y470004D01*
X213674Y469817D01*
X213112D01*
X209663Y468505D02*
Y472441D01*
Y468505D02*
X207976D01*
X207414Y468692D01*
X207226Y468880D01*
X207039Y469254D01*
Y469629D01*
X207226Y470004D01*
X207414Y470192D01*
X207976Y470379D01*
X209663D01*
X208351D02*
X207039Y472441D01*
X206158Y470941D02*
X203908D01*
Y470567D01*
X204096Y470192D01*
X204283Y470004D01*
X204658Y469817D01*
X205221D01*
X205595Y470004D01*
X205970Y470379D01*
X206158Y470941D01*
Y471316D01*
X205970Y471879D01*
X205595Y472254D01*
X205221Y472441D01*
X204658D01*
X204283Y472254D01*
X203908Y471879D01*
X203065Y469817D02*
X201940Y472441D01*
X200816Y469817D02*
X201940Y472441D01*
X197086Y469254D02*
X196711Y469067D01*
X196149Y468505D01*
Y472441D01*
D42*
X505013Y304291D02*
D03*
D43*
X427710Y302559D02*
D03*
D44*
X348970Y299370D02*
D03*
D45*
X351922Y314370D02*
D03*
D46*
X240505Y178740D02*
D03*
D47*
X254875Y319094D02*
D03*
M02*
