%FSLAX25Y25*%
%MOIN*%
G70*
G01*
G75*
G04 Layer_Physical_Order=1*
G04 Layer_Color=255*
%ADD10C,0.03937*%
%ADD11C,0.01969*%
%ADD12C,0.01000*%
%ADD13C,0.00600*%
%ADD14O,0.03150X0.05906*%
%ADD15C,0.15748*%
%ADD16R,0.06299X0.06299*%
%ADD17O,0.06299X0.15748*%
%ADD18C,0.06299*%
%ADD19O,0.07874X0.04724*%
%ADD20O,0.09843X0.03937*%
%ADD21C,0.07874*%
%ADD22O,0.11811X0.07087*%
%ADD23R,0.09843X0.07874*%
%ADD24O,0.09843X0.07874*%
%ADD25O,0.09843X0.04724*%
%ADD26R,0.07874X0.09843*%
%ADD27O,0.07874X0.09843*%
%ADD28R,0.07874X0.13780*%
%ADD29O,0.07874X0.13780*%
%ADD30O,0.05906X0.07874*%
%ADD31R,0.07874X0.07874*%
%ADD32C,0.09000*%
%ADD33R,0.09000X0.09000*%
%ADD34C,0.13780*%
%ADD35O,0.11811X0.06299*%
%ADD36O,0.11811X0.05512*%
%ADD37R,0.07874X0.07874*%
%ADD38O,0.08000X0.06000*%
%ADD39C,0.05000*%
D10*
X227710Y359842D02*
X210387D01*
D11*
X492344Y390000D02*
X492344Y390000D01*
X502344Y396000D02*
X502344Y396000D01*
X391343Y390000D02*
X391343Y390000D01*
X401343Y396000D02*
X401343Y396000D01*
X501844Y351398D02*
X501792Y351346D01*
X491844Y351398D02*
X491792Y351346D01*
X481844Y351398D02*
X481792Y351346D01*
X461843Y351398D02*
X461792Y351346D01*
X441844Y372000D02*
X441792Y371949D01*
X451844Y396000D02*
X451792Y395949D01*
X431844Y351398D02*
X431792Y351346D01*
X431844Y411335D02*
X431792Y411386D01*
X441844Y411335D02*
X441792Y411386D01*
X481844Y411335D02*
X481792Y411386D01*
X491844Y411335D02*
X491792Y411386D01*
X501844Y411335D02*
X501792Y411386D01*
X401399D02*
X401343Y411331D01*
X391399Y390055D02*
X391343Y390000D01*
X381399Y411386D02*
X381344Y411331D01*
X401399Y351346D02*
X401343Y351402D01*
X391399Y351346D02*
X391343Y351402D01*
X381399Y351346D02*
X381344Y351401D01*
X331399Y351346D02*
X331344Y351402D01*
X331399Y411386D02*
X331344Y411331D01*
X341399Y411386D02*
X341343Y411331D01*
X481844Y384000D02*
Y406500D01*
Y411335D01*
X431844Y384000D02*
Y406500D01*
Y411335D01*
X381344Y384000D02*
Y406500D01*
Y411331D01*
X351343Y362555D02*
Y396000D01*
X351399Y362500D02*
X351343Y362555D01*
X501844Y396000D02*
Y406500D01*
Y411335D01*
X401343Y396000D02*
Y406500D01*
Y411331D01*
X491844Y390000D02*
Y406500D01*
Y411335D01*
X441844Y390000D02*
Y406500D01*
Y411335D01*
X481844Y351398D02*
Y355500D01*
Y378000D01*
X431844Y351398D02*
Y355500D01*
Y378000D01*
X381344Y351401D02*
Y355500D01*
Y378000D01*
X491844Y351398D02*
Y355500D01*
Y372000D01*
X391343Y351402D02*
Y355500D01*
Y372000D01*
X441792Y351346D02*
Y371949D01*
X451792Y351346D02*
Y395949D01*
X351399Y361500D02*
Y362500D01*
X501844Y351398D02*
Y355500D01*
Y366000D01*
X461843Y351398D02*
Y355500D01*
Y366000D01*
X401343Y351402D02*
Y355500D01*
Y366000D01*
X391399Y390055D02*
Y411386D01*
D12*
X196214Y488189D02*
G03*
X196214Y488189I5512J0D01*
G01*
X545626Y169291D02*
G03*
X545626Y169291I6493J0D01*
G01*
X195033D02*
G03*
X195033Y169291I6693J0D01*
G01*
X546109Y488189D02*
G03*
X546109Y488189I6010J0D01*
G01*
X592489Y500000D02*
X590489D01*
X592489Y157480D02*
X590489D01*
X591489Y500000D02*
X589489Y494000D01*
X593489D02*
X591489Y500000D01*
Y157480D02*
X589489Y163480D01*
X593489D02*
X591489Y157480D01*
Y348834D02*
Y500000D01*
Y157480D02*
Y308646D01*
X189914Y514748D02*
Y516748D01*
X563930Y514748D02*
Y516748D01*
X195914Y513748D02*
X189914Y515748D01*
X195914Y517748D02*
X189914Y515748D01*
X563930D02*
X557930Y513748D01*
X563930Y515748D02*
X557930Y517748D01*
X356828Y515748D02*
X189914D01*
X563930D02*
X397016D01*
X189914Y263779D02*
Y279528D01*
Y157480D02*
Y263779D01*
X563930Y157480D02*
X189914D01*
X563930Y157480D02*
X563930Y157480D01*
X563930Y157480D02*
Y279528D01*
Y500000D01*
X189914Y279527D02*
Y500000D01*
X563930Y500000D02*
X189914Y500000D01*
D13*
X592888Y309646D02*
X593888Y310646D01*
Y312645D01*
X592888Y313645D01*
X591889D01*
X590889Y312645D01*
X589889Y313645D01*
X588890D01*
X587890Y312645D01*
Y310646D01*
X588890Y309646D01*
X589889D01*
X590889Y310646D01*
X591889Y309646D01*
X592888D01*
X590889Y310646D02*
Y312645D01*
X593888Y315644D02*
Y319643D01*
X592888D01*
X588890Y315644D01*
X587890D01*
Y329640D02*
X589889Y327640D01*
X591889D01*
X593888Y329640D01*
X587890Y332639D02*
X591889D01*
Y333638D01*
X590889Y334638D01*
X587890D01*
X590889D01*
X591889Y335638D01*
X590889Y336637D01*
X587890D01*
Y338637D02*
X591889D01*
Y339636D01*
X590889Y340636D01*
X587890D01*
X590889D01*
X591889Y341636D01*
X590889Y342635D01*
X587890D01*
Y344635D02*
X589889Y346634D01*
X591889D01*
X593888Y344635D01*
X396016Y513149D02*
X395017Y512149D01*
X393017D01*
X392018Y513149D01*
Y517147D01*
X393017Y518147D01*
X395017D01*
X396016Y517147D01*
Y516148D01*
X395017Y515148D01*
X392018D01*
X386019Y518147D02*
X390018D01*
Y515148D01*
X388019Y516148D01*
X387019D01*
X386019Y515148D01*
Y513149D01*
X387019Y512149D01*
X389019D01*
X390018Y513149D01*
X376023Y512149D02*
X378022Y514148D01*
Y516148D01*
X376023Y518147D01*
X373024Y512149D02*
Y516148D01*
X372024D01*
X371024Y515148D01*
Y512149D01*
Y515148D01*
X370025Y516148D01*
X369025Y515148D01*
Y512149D01*
X367026D02*
Y516148D01*
X366026D01*
X365026Y515148D01*
Y512149D01*
Y515148D01*
X364027Y516148D01*
X363027Y515148D01*
Y512149D01*
X361028D02*
X359028Y514148D01*
Y516148D01*
X361028Y518147D01*
D14*
X254481Y346457D02*
D03*
X258811D02*
D03*
D15*
X481353Y194243D02*
D03*
D16*
X471253Y259842D02*
D03*
D17*
X481253D02*
D03*
D18*
X491253D02*
D03*
D19*
X503343Y438500D02*
D03*
X508698Y433500D02*
D03*
X503343Y428500D02*
D03*
X449844Y438500D02*
D03*
X455198Y433500D02*
D03*
X449844Y428500D02*
D03*
X401844Y438500D02*
D03*
X407198Y433500D02*
D03*
X401844Y428500D02*
D03*
D20*
X349343D02*
D03*
X354698Y433500D02*
D03*
X349343Y438500D02*
D03*
D21*
X519843Y461000D02*
D03*
Y430291D02*
D03*
X465843Y461000D02*
D03*
Y430291D02*
D03*
X490843D02*
D03*
Y461000D02*
D03*
X436843Y430291D02*
D03*
Y461000D02*
D03*
X418343Y460209D02*
D03*
Y429500D02*
D03*
X365343Y463000D02*
D03*
Y432291D02*
D03*
X389344D02*
D03*
Y463000D02*
D03*
X335977Y436221D02*
D03*
Y466929D02*
D03*
X283135Y330000D02*
D03*
X313843D02*
D03*
X283221Y448819D02*
D03*
X313930D02*
D03*
X283221Y305118D02*
D03*
X313930D02*
D03*
X283135Y318000D02*
D03*
X313843D02*
D03*
X290308Y424409D02*
D03*
X321017D02*
D03*
X285584Y436221D02*
D03*
X316292D02*
D03*
X322985Y462205D02*
D03*
X292277D02*
D03*
X298970Y474409D02*
D03*
X329678D02*
D03*
X377344Y484000D02*
D03*
Y453291D02*
D03*
X427844Y484000D02*
D03*
Y453291D02*
D03*
X479344Y484000D02*
D03*
Y453291D02*
D03*
X336371Y210512D02*
D03*
X451725Y228346D02*
D03*
Y259055D02*
D03*
X516962Y310157D02*
D03*
Y284567D02*
D03*
X499245D02*
D03*
Y310157D02*
D03*
X361450D02*
D03*
Y284567D02*
D03*
X343733D02*
D03*
Y310157D02*
D03*
X439206D02*
D03*
Y284567D02*
D03*
X421489D02*
D03*
Y310157D02*
D03*
X288833Y352559D02*
D03*
X300643D02*
D03*
X288833Y342717D02*
D03*
X300643D02*
D03*
X317867Y393307D02*
D03*
X287158D02*
D03*
X317867Y409449D02*
D03*
X287158D02*
D03*
X322985Y232283D02*
D03*
X292277D02*
D03*
X390702Y215354D02*
D03*
Y246063D02*
D03*
X227316Y262992D02*
D03*
Y232283D02*
D03*
X253103Y208465D02*
D03*
Y220276D02*
D03*
X442788Y216535D02*
D03*
X269442D02*
D03*
X300151D02*
D03*
X313930Y187795D02*
D03*
Y218504D02*
D03*
X295308Y179134D02*
D03*
X227710Y359842D02*
D03*
X210387D02*
D03*
D22*
X505521Y476134D02*
D03*
Y464323D02*
D03*
X451021Y476134D02*
D03*
Y464323D02*
D03*
X404021Y476134D02*
D03*
Y464323D02*
D03*
X351521Y476134D02*
D03*
Y464323D02*
D03*
X228549Y350280D02*
D03*
Y369965D02*
D03*
X291166Y366366D02*
D03*
Y378177D02*
D03*
D23*
X270343Y434000D02*
D03*
D24*
X270343Y424000D02*
D03*
X270343Y414000D02*
D03*
Y404000D02*
D03*
X270343Y394000D02*
D03*
X270343Y364000D02*
D03*
Y354000D02*
D03*
Y344000D02*
D03*
X270343Y334000D02*
D03*
Y324000D02*
D03*
X270343Y314000D02*
D03*
Y304000D02*
D03*
X239093Y434000D02*
D03*
Y424000D02*
D03*
Y414000D02*
D03*
Y404000D02*
D03*
Y394000D02*
D03*
Y364000D02*
D03*
X239093Y354000D02*
D03*
X239093Y344000D02*
D03*
X239093Y334000D02*
D03*
X239093Y304000D02*
D03*
D25*
X270343Y384000D02*
D03*
X270343Y374000D02*
D03*
X239093Y384000D02*
D03*
Y374000D02*
D03*
Y324000D02*
D03*
X239093Y314000D02*
D03*
D26*
X511792Y351346D02*
D03*
X411399D02*
D03*
D27*
X501792D02*
D03*
X491792D02*
D03*
X481792Y351346D02*
D03*
X471792Y351346D02*
D03*
X461792Y351346D02*
D03*
X451792Y351346D02*
D03*
X441792Y351346D02*
D03*
X431792Y351346D02*
D03*
X511792Y411386D02*
D03*
X501792Y411386D02*
D03*
X491792Y411386D02*
D03*
X481792Y411386D02*
D03*
X471792Y411386D02*
D03*
X461792D02*
D03*
X451792Y411386D02*
D03*
X441792Y411386D02*
D03*
X431792D02*
D03*
X401399Y351346D02*
D03*
X391399D02*
D03*
X381399Y351346D02*
D03*
X371399Y351346D02*
D03*
X361399Y351346D02*
D03*
X351399Y351346D02*
D03*
X341399Y351346D02*
D03*
X331399Y351346D02*
D03*
X411399Y411386D02*
D03*
X401399Y411386D02*
D03*
X391399Y411386D02*
D03*
X381399Y411386D02*
D03*
X371399Y411386D02*
D03*
X361399D02*
D03*
X351399Y411386D02*
D03*
X341399Y411386D02*
D03*
X331399D02*
D03*
D28*
X274166Y175591D02*
D03*
X434009Y175197D02*
D03*
D29*
X254481Y175591D02*
D03*
X414324Y175197D02*
D03*
D30*
X372985Y181102D02*
D03*
X365111D02*
D03*
D31*
X336371Y251693D02*
D03*
D32*
X293969Y256850D02*
D03*
X283969D02*
D03*
X273970D02*
D03*
X263969D02*
D03*
X253970D02*
D03*
D33*
X243969D02*
D03*
D34*
X201725Y169291D02*
D03*
Y488189D02*
D03*
X552119D02*
D03*
Y169291D02*
D03*
D35*
X501844Y396000D02*
D03*
X491844Y390000D02*
D03*
Y372000D02*
D03*
X501844Y366000D02*
D03*
X461843D02*
D03*
X441844Y372000D02*
D03*
Y390000D02*
D03*
X451844Y396000D02*
D03*
X401343D02*
D03*
X391343Y390000D02*
D03*
Y372000D02*
D03*
X401343Y366000D02*
D03*
X351343Y396000D02*
D03*
Y361500D02*
D03*
D36*
X481844Y384000D02*
D03*
Y378000D02*
D03*
X431844D02*
D03*
Y384000D02*
D03*
X381344Y378000D02*
D03*
Y384000D02*
D03*
D37*
X401607Y216535D02*
D03*
X336489Y179134D02*
D03*
D38*
X365111Y245000D02*
D03*
X357237Y250000D02*
D03*
X365111Y255000D02*
D03*
D39*
X501844Y406500D02*
D03*
X491844D02*
D03*
X481844D02*
D03*
X441844D02*
D03*
X431844D02*
D03*
X401343D02*
D03*
X391343D02*
D03*
X381344D02*
D03*
Y355500D02*
D03*
X391343D02*
D03*
X401343D02*
D03*
X431844D02*
D03*
X441844D02*
D03*
X451844D02*
D03*
X461843D02*
D03*
X481844D02*
D03*
X491844D02*
D03*
X501844D02*
D03*
M02*
