M48
;Layer_Color=9474304
;FILE_FORMAT=2:5
INCH,LZ
;TYPE=PLATED
T1F00S00C0.01968
T2F00S00C0.02362
T3F00S00C0.02756
T4F00S00C0.02800
T5F00S00C0.03000
T6F00S00C0.03150
T7F00S00C0.03543
T8F00S00C0.04000
T9F00S00C0.04724
T10F00S00C0.11811
T11F00S00C0.15748
%
T01
X0498032Y0346457
X0502362
T02
X0245051Y0351346
X0255051
X0265051
X0275051Y0351346
X0285051Y0351346
X0295051Y0351346
X0305051Y0351346
X0305051Y0411386
X0295051Y0411386
X0285051
X0275051Y0411386
X0265051Y0411386
X0255051Y0411386
X0245051Y0411386
X0315051Y0411386
X0325051
X0345445Y0411386
X0355445Y0411386
X0365445Y0411386
X0375445Y0411386
X0385445Y0411386
X0395445
X0405445Y0411386
X0415445Y0411386
X0425445
X0425445Y0351346
X0415445Y0351346
X0405445Y0351346
X0395445Y0351346
X0385445Y0351346
X0375445Y0351346
X0365445Y0351346
X0355445
X0345445
X0325051Y0351346
X0315051Y0351346
T03
X0487402Y0216535
X0529528Y0232283
Y0262992
X0473622Y0305118
X0442913
X0433858Y0232283
X0442913Y0218504
X0456693Y0216535
X0464567Y0232283
X0442913Y0187795
X0366142Y0215354
Y0246063
X0305118Y0259055
Y0228346
X0307Y04285
Y04385
X0301646Y04335
X0291Y0430291
X0266
X02535Y04285
Y04385
X0248146Y04335
X0237Y0430291
Y0461
X0266
X02775Y0453291
X0291Y0461
X032
X0329Y0453291
X03385Y0460209
Y04295
X0349646Y04335
X0355Y04385
Y04285
X03675Y0432291
X03915
Y0463
X03795Y0453291
X03675Y0463
X0420866Y0466929
X0433858Y0462205
X0442913Y0448819
X0440551Y0436221
X0435827Y0424409
X0438976Y0409449
Y0393307
X0466535Y0424409
X0464567Y0462205
X0420866Y0436221
X032Y0430291
X0443Y033
Y0318
X0473709
Y033
X0469685Y0393307
Y0409449
X047126Y0436221
X0473622Y0448819
X0457874Y0474409
X0427165
X03795Y0484
X0329
X02775
T04
X0255Y03555
X0265
X0275
X0295
X0305
X0275Y04065
X0265
X0255
X0315
X0325
X03555
X03655
X03755
Y03555
X03655
X03555
X0325
X0315
X0529134Y0359842
X0546457
T05
X050374Y0208465
Y0220276
X0399606Y025
X0391732Y0245
Y0255
X0295Y0366
X0275Y0378
Y0384
X0265Y039
X0255Y0396
Y0366
X0265Y0372
X0305Y0396
X0305823Y0464323
X0251323
X0352823
X0405323
X04055Y0396
Y03615
X03755Y0378
Y0384
X03655Y039
X03555Y0396
Y0366
X03655Y0372
X0325Y0378
Y0384
X0315Y039
Y0372
X0465677Y0366366
Y0378177
X0528295Y0369965
Y035028
X0405323Y0476134
X0352823
X0305823
X0251323
T06
X04865Y0304
X051775Y0304
X0391732Y0181102
X0383858
X0402146Y04335
X04075Y04285
Y04385
X04865Y0434
X04865Y0424
X04865Y0414
Y0404
X04865Y0394
X04865Y0384
X04865Y0374
X04865Y0364
Y0354
Y0344
X04865Y0334
Y0324
X04865Y0314
X051775Y0314
X051775Y0324
X051775Y0334
X051775Y0344
X051775Y0354
X051775Y0364
X051775Y0374
Y0384
X051775Y0394
Y0404
Y0414
Y0424
Y0434
T07
X0317638Y0284567
X0335354
Y0310157
X0317638
X0395394
X041311
Y0284567
X0395394
X0257598
X0239882
Y0310157
X0257598
X0456201Y0342717
Y0352559
X0468011
Y0342717
T08
X0472874Y025685
X0482874
X0492874
X0502874
X0512874
X0462874
T09
X0482677Y0175591
X0502362
X0461535Y0179134
X0420354
X0420472Y0210512
Y0251693
X0355236Y0216535
X0314055
X0322835Y0175197
X034252
X0285591Y0259842
X027559
X0265591
T10
X0555118Y0169291
X0204724
X0555118Y0488189
X0204724
T11
X027549Y0194243
M30
