%FSLAX25Y25*%
%MOIN*%
G70*
G01*
G75*
%ADD10C,0.03937*%
%ADD11C,0.01969*%
%ADD12C,0.01000*%
%ADD13C,0.00600*%
%ADD14O,0.03150X0.05906*%
%ADD15C,0.15748*%
%ADD16R,0.06299X0.06299*%
%ADD17O,0.06299X0.15748*%
%ADD18C,0.06299*%
%ADD19O,0.07874X0.04724*%
%ADD20O,0.09843X0.03937*%
%ADD21C,0.07874*%
%ADD22O,0.11811X0.07087*%
%ADD23R,0.09843X0.07874*%
%ADD24O,0.09843X0.07874*%
%ADD25O,0.09843X0.04724*%
%ADD26R,0.07874X0.09843*%
%ADD27O,0.07874X0.09843*%
%ADD28R,0.07874X0.13780*%
%ADD29O,0.07874X0.13780*%
%ADD30O,0.05906X0.07874*%
%ADD31R,0.07874X0.07874*%
%ADD32C,0.09000*%
%ADD33R,0.09000X0.09000*%
%ADD34C,0.13780*%
%ADD35O,0.11811X0.06299*%
%ADD36O,0.11811X0.05512*%
%ADD37R,0.07874X0.07874*%
%ADD38O,0.08000X0.06000*%
%ADD39C,0.05000*%
%ADD40C,0.07874*%
%ADD41C,0.01181*%
%ADD42R,0.11535X0.39449*%
%ADD43R,0.11024X0.38976*%
%ADD44R,0.11811X0.29606*%
%ADD45R,0.05906X0.04331*%
%ADD46R,0.28740X0.40158*%
%ADD47R,0.18110X0.31890*%
%ADD48C,0.00787*%
%ADD49C,0.04000*%
%ADD50C,0.00591*%
%ADD51C,0.01575*%
%ADD52C,0.00800*%
%ADD53R,0.05906X0.15748*%
%ADD54R,0.09547X0.02756*%
%ADD55R,0.08000X0.08000*%
%ADD56R,0.10630X0.02732*%
%ADD57R,0.11024X0.03150*%
%ADD58R,0.10000X0.01457*%
%ADD59R,0.01535X0.06890*%
%ADD60R,0.01575X0.08740*%
%ADD61R,0.03150X0.11024*%
D12*
X471197Y194243D02*
G03*
X471197Y194243I10156J0D01*
G01*
X494440Y470228D02*
G03*
X494440Y470228I11081J0D01*
G01*
X439940D02*
G03*
X439940Y470228I11081J0D01*
G01*
X392940D02*
G03*
X392940Y470228I11081J0D01*
G01*
X340440D02*
G03*
X340440Y470228I11081J0D01*
G01*
X232584Y372622D02*
G03*
X224710Y372622I-3937J0D01*
G01*
X224710Y347425D02*
G03*
X232584Y347425I3937J0D01*
G01*
X280086Y372272D02*
G03*
X280086Y372272I11081J0D01*
G01*
X347946Y181024D02*
G03*
X347946Y181024I21102J0D01*
G01*
X302710Y348622D02*
G03*
X302710Y356496I0J3937D01*
G01*
X286765Y356496D02*
G03*
X286765Y348622I0J-3937D01*
G01*
X302710Y338779D02*
G03*
X302710Y346653I0J3937D01*
G01*
X286765Y346654D02*
G03*
X286765Y338779I0J-3937D01*
G01*
X242023Y214370D02*
G03*
X242023Y214370I11081J0D01*
G01*
X460190Y181772D02*
Y248622D01*
X502316Y181811D02*
Y248622D01*
Y181811D02*
X502316Y181811D01*
X460229D01*
X525158Y445154D02*
Y455803D01*
X524962Y456000D02*
X514647D01*
Y435094D02*
Y456000D01*
X525158Y435094D02*
X514647D01*
X525158Y435094D02*
X525158Y435094D01*
X525158Y435094D02*
Y445154D01*
X471158D02*
Y455803D01*
X470962Y456000D02*
X460647D01*
Y435094D02*
Y456000D01*
X471158Y435094D02*
X460647D01*
X471158Y435094D02*
X471158Y435094D01*
X471158Y435094D02*
Y445154D01*
X485529Y446138D02*
X485529Y435488D01*
X496040Y435291D02*
X485725Y435291D01*
X496040Y435291D02*
X496040Y456197D01*
X485529Y456197D01*
X485529Y456197D01*
Y446138D02*
Y456197D01*
X431529Y446138D02*
X431529Y435488D01*
X442040Y435291D02*
X431725Y435291D01*
X442040Y435291D02*
X442040Y456197D01*
X431529Y456197D01*
X431529Y456197D01*
Y446138D02*
Y456197D01*
X423658Y444362D02*
Y455012D01*
X423462Y455209D02*
X413147D01*
Y434303D02*
Y455209D01*
X423658Y434303D02*
X413147D01*
X423658Y434303D02*
X423658Y434303D01*
X423658Y434303D02*
Y444362D01*
X370658Y447154D02*
Y457803D01*
X370462Y458000D02*
X360147D01*
Y437094D02*
Y458000D01*
X370658Y437094D02*
X360147D01*
X370658Y437094D02*
X370658Y437094D01*
X370658Y437094D02*
Y447154D01*
X384029Y448138D02*
X384029Y437488D01*
X394540Y437291D02*
X384225Y437291D01*
X394540Y437291D02*
X394540Y458197D01*
X384029Y458197D01*
X384029Y458197D01*
Y448138D02*
Y458197D01*
X330662Y452067D02*
X330662Y441417D01*
X341174Y441221D02*
X330859Y441220D01*
X341174Y441221D02*
X341174Y462126D01*
X330662Y462126D01*
X330662Y462126D01*
Y452067D02*
Y462126D01*
X510678Y462866D02*
X510678Y465327D01*
X511879Y464047D02*
X509615Y464047D01*
X456178Y462866D02*
X456178Y465327D01*
X457379Y464047D02*
X455115Y464047D01*
X409178Y462866D02*
X409178Y465327D01*
X410379Y464047D02*
X408115Y464047D01*
X356678Y462866D02*
X356678Y465327D01*
X357879Y464047D02*
X355615Y464047D01*
X298981Y335315D02*
X288332Y335315D01*
X288135Y324803D02*
X288135Y335118D01*
X309040Y324803D02*
X288135Y324803D01*
X309040Y335315D02*
X309040Y324803D01*
X309040Y335315D02*
X309040Y335315D01*
X298981D01*
X299068Y454134D02*
X288418Y454134D01*
X288221Y443622D02*
X288221Y453937D01*
X309127Y443622D02*
X288221Y443622D01*
X309127Y454134D02*
X309127Y443622D01*
X309127Y454134D02*
X309127Y454134D01*
X299068D01*
Y310433D02*
X288418Y310433D01*
X288221Y299921D02*
X288221Y310236D01*
X309127Y299921D02*
X288221Y299921D01*
X309127Y310433D02*
X309127Y299921D01*
X309127Y310433D02*
X309127Y310433D01*
X299068D01*
X298981Y323315D02*
X288332Y323315D01*
X288135Y312803D02*
X288135Y323118D01*
X309040Y312803D02*
X288135Y312803D01*
X309040Y323315D02*
X309040Y312803D01*
X309040Y323315D02*
X309040Y323315D01*
X298981D01*
X306154Y429724D02*
X295505Y429724D01*
X295308Y419213D02*
X295308Y429528D01*
X316214Y419213D02*
X295308Y419213D01*
X316214Y429724D02*
X316214Y419213D01*
X316214Y429724D02*
X316214Y429724D01*
X306154D01*
X301430Y441535D02*
X290780Y441536D01*
X290584Y431024D02*
X290584Y441339D01*
X311489Y431024D02*
X290584Y431024D01*
X311489Y441535D02*
X311489Y431024D01*
X311489Y441535D02*
X311489Y441535D01*
X301430D01*
X317788Y456890D02*
X307139Y456890D01*
X317985Y457087D02*
X317985Y467402D01*
X297080Y467402D01*
X297080Y456890D01*
X297080Y456890D02*
X297080Y456890D01*
X307139Y456890D02*
X297080D01*
X521635Y419260D02*
X521635Y343472D01*
X521635Y419260D02*
X422225D01*
X422225Y343472D01*
X521635Y343472D02*
X422225Y343472D01*
X421241Y419260D02*
X421241Y343472D01*
X421241Y419260D02*
X321832D01*
X321832Y343472D01*
X421241Y343472D02*
X321832Y343472D01*
X232584Y347426D02*
Y372622D01*
X224710Y347425D02*
Y372621D01*
X286009Y377173D02*
X286009Y379634D01*
X287072Y378453D02*
X284808Y378453D01*
X313832Y469095D02*
X303773D01*
Y469095D01*
Y479606D01*
X324678Y479606D02*
X303773Y479606D01*
X324678Y469291D02*
X324678Y479606D01*
X324481Y469095D02*
X313832Y469095D01*
X372028Y469138D02*
Y479197D01*
X372028Y479197D02*
X372028Y479197D01*
X382540D02*
X372028Y479197D01*
X382540Y458291D02*
X382540Y479197D01*
X382540Y458291D02*
X372225Y458291D01*
X372028Y469138D02*
X372028Y458488D01*
X422529Y469138D02*
Y479197D01*
X422529Y479197D02*
X422529Y479197D01*
X433040D02*
X422529Y479197D01*
X433040Y458291D02*
X433040Y479197D01*
X433040Y458291D02*
X422725Y458291D01*
X422529Y469138D02*
X422529Y458488D01*
X474028Y469138D02*
Y479197D01*
X474028Y479197D02*
X474028Y479197D01*
X484540D02*
X474028Y479197D01*
X484540Y458291D02*
X484540Y479197D01*
X484540Y458291D02*
X474225Y458291D01*
X474028Y469138D02*
X474028Y458488D01*
X287166Y159591D02*
X241194D01*
Y191591D01*
X287166D02*
X241194D01*
X287166Y159591D02*
Y191591D01*
X447009Y159197D02*
X401036D01*
Y191197D01*
X447009D02*
X401036D01*
X447009Y159197D02*
Y191197D01*
X457040Y233150D02*
Y243209D01*
Y233150D02*
X457040Y233150D01*
X446528D01*
Y254055D01*
X456844D02*
X446528D01*
X457040Y243209D02*
Y253858D01*
X298891Y261732D02*
X287473D01*
X298970Y261811D02*
X298891Y261732D01*
X298970Y251969D02*
Y261811D01*
Y251969D02*
X288969D01*
Y261732D02*
X238969D01*
Y251969D02*
Y261732D01*
X288969Y251969D02*
X238969D01*
X520859Y313779D02*
X494993D01*
X494954Y313740D01*
Y281102D02*
Y313740D01*
X495190Y280866D02*
X494954Y281102D01*
X520741Y280866D02*
X495190D01*
X520859Y280984D02*
X520741Y280866D01*
X520859Y280984D02*
Y313779D01*
X365347D02*
X339481D01*
X339442Y313740D01*
Y281102D02*
Y313740D01*
X339678Y280866D02*
X339442Y281102D01*
X365229Y280866D02*
X339678D01*
X365347Y280984D02*
X365229Y280866D01*
X365347Y280984D02*
Y313779D01*
X443103D02*
X417237D01*
X417198Y313740D01*
Y281102D02*
Y313740D01*
X417434Y280866D02*
X417198Y281102D01*
X442985Y280866D02*
X417434D01*
X443103Y280984D02*
X442985Y280866D01*
X443103Y280984D02*
Y313779D01*
X302710Y348622D02*
X286765D01*
X302710Y356496D02*
X286765D01*
X302710Y338779D02*
X286765D01*
X302710Y346654D02*
X286765D01*
X313064Y398622D02*
X303005D01*
X313064Y398622D02*
X313064Y398622D01*
X313064Y388110D02*
Y398622D01*
Y388110D02*
X292158D01*
Y398425D01*
X303005Y398622D02*
X292355D01*
X313064Y414764D02*
X303005D01*
X313064Y414764D02*
X313064Y414764D01*
X313064Y404252D02*
Y414764D01*
Y404252D02*
X292158D01*
Y414567D01*
X303005Y414764D02*
X292355D01*
X317788Y226969D02*
X307139D01*
X317985Y227165D02*
Y237480D01*
X297080D01*
Y226969D02*
Y237480D01*
X297080Y226969D02*
X297080Y226969D01*
X307139Y226969D02*
X297080D01*
X385387Y220551D02*
Y231201D01*
X395899Y220354D02*
X385584D01*
X395899D02*
Y241260D01*
X385387D01*
X385387Y241260D01*
Y231201D02*
Y241260D01*
X232631Y247146D02*
Y257795D01*
X232434Y257992D02*
X222119D01*
Y237087D02*
Y257992D01*
X232631Y237087D02*
X222119D01*
X232631Y237087D02*
X232631Y237087D01*
X232631Y237087D02*
Y247146D01*
X247946Y219272D02*
Y221732D01*
X249009Y220551D02*
X246745D01*
X285288Y221850D02*
X274639D01*
X274442Y211339D02*
Y221654D01*
X295347Y211339D02*
X274442D01*
X295347D02*
Y221850D01*
X295347Y221850D01*
X285288D01*
X308615Y192992D02*
Y203642D01*
X319127Y192795D02*
X308812D01*
X319127D02*
Y213701D01*
X308615D01*
X308615Y213701D01*
Y203642D02*
Y213701D01*
X259696Y233993D02*
X260696Y234993D01*
X262695D01*
X263695Y233993D01*
Y229994D01*
X262695Y228994D01*
X260696D01*
X259696Y229994D01*
X257697Y233993D02*
X256697Y234993D01*
X254698D01*
X253698Y233993D01*
Y232993D01*
X254698Y231994D01*
X253698Y230994D01*
Y229994D01*
X254698Y228994D01*
X256697D01*
X257697Y229994D01*
Y230994D01*
X256697Y231994D01*
X257697Y232993D01*
Y233993D01*
X256697Y231994D02*
X254698D01*
X395444Y253400D02*
Y259398D01*
X392444D01*
X391445Y258398D01*
Y256399D01*
X392444Y255399D01*
X395444D01*
X393444D02*
X391445Y253400D01*
X389445D02*
X387446D01*
X388446D01*
Y259398D01*
X389445Y258398D01*
X384447D02*
X383447Y259398D01*
X381448D01*
X380448Y258398D01*
Y257399D01*
X381448Y256399D01*
X380448Y255399D01*
Y254400D01*
X381448Y253400D01*
X383447D01*
X384447Y254400D01*
Y255399D01*
X383447Y256399D01*
X384447Y257399D01*
Y258398D01*
X383447Y256399D02*
X381448D01*
X378449Y252400D02*
X374450D01*
X232102Y270392D02*
Y276391D01*
X229103D01*
X228103Y275391D01*
Y273392D01*
X229103Y272392D01*
X232102D01*
X230103D02*
X228103Y270392D01*
X226104D02*
X224104D01*
X225104D01*
Y276391D01*
X226104Y275391D01*
X221106Y271392D02*
X220106Y270392D01*
X218106D01*
X217107Y271392D01*
Y275391D01*
X218106Y276391D01*
X220106D01*
X221106Y275391D01*
Y274391D01*
X220106Y273392D01*
X217107D01*
X215107Y269393D02*
X211109D01*
X325343Y241000D02*
Y246998D01*
X322344D01*
X321345Y245998D01*
Y243999D01*
X322344Y242999D01*
X325343D01*
X323344D02*
X321345Y241000D01*
X315347D02*
X319345D01*
X315347Y244999D01*
Y245998D01*
X316346Y246998D01*
X318346D01*
X319345Y245998D01*
X313347D02*
X312348Y246998D01*
X310348D01*
X309349Y245998D01*
Y242000D01*
X310348Y241000D01*
X312348D01*
X313347Y242000D01*
Y245998D01*
X306350D02*
Y244999D01*
X307349D01*
X305350D01*
X306350D01*
Y242000D01*
X305350Y241000D01*
X288340Y242126D02*
X282342D01*
Y239127D01*
X283341Y238127D01*
X285340D01*
X286340Y239127D01*
Y242126D01*
Y240127D02*
X288340Y238127D01*
Y232129D02*
Y236128D01*
X284341Y232129D01*
X283341D01*
X282342Y233129D01*
Y235128D01*
X283341Y236128D01*
Y230130D02*
X282342Y229130D01*
Y227131D01*
X283341Y226131D01*
X287340D01*
X288340Y227131D01*
Y229130D01*
X287340Y230130D01*
X283341D01*
X370417Y270372D02*
X366419D01*
X368418D01*
Y264374D01*
X360421Y270372D02*
X364419D01*
Y267373D01*
X362420Y268373D01*
X361420D01*
X360421Y267373D01*
Y265374D01*
X361420Y264374D01*
X363420D01*
X364419Y265374D01*
X196214Y488189D02*
G03*
X196214Y488189I5512J0D01*
G01*
X545626Y169291D02*
G03*
X545626Y169291I6493J0D01*
G01*
X195033D02*
G03*
X195033Y169291I6693J0D01*
G01*
X546109Y488189D02*
G03*
X546109Y488189I6010J0D01*
G01*
X592489Y500000D02*
X590489D01*
X592489Y157480D02*
X590489D01*
X591489Y500000D02*
X589489Y494000D01*
X593489D02*
X591489Y500000D01*
Y157480D02*
X589489Y163480D01*
X593489D02*
X591489Y157480D01*
Y348834D02*
Y500000D01*
Y157480D02*
Y308646D01*
X189914Y514748D02*
Y516748D01*
X563930Y514748D02*
Y516748D01*
X195914Y513748D02*
X189914Y515748D01*
X195914Y517748D02*
X189914Y515748D01*
X563930D02*
X557930Y513748D01*
X563930Y515748D02*
X557930Y517748D01*
X356828Y515748D02*
X189914D01*
X563930D02*
X397016D01*
X189914Y263779D02*
Y279528D01*
Y157480D02*
Y263779D01*
X563930Y157480D02*
X189914D01*
X563930Y157480D02*
X563930Y157480D01*
X563930Y157480D02*
Y279528D01*
Y500000D01*
X189914Y279527D02*
Y500000D01*
X563930Y500000D02*
X189914Y500000D01*
D13*
X592888Y309646D02*
X593888Y310646D01*
Y312645D01*
X592888Y313645D01*
X591889D01*
X590889Y312645D01*
X589889Y313645D01*
X588890D01*
X587890Y312645D01*
Y310646D01*
X588890Y309646D01*
X589889D01*
X590889Y310646D01*
X591889Y309646D01*
X592888D01*
X590889Y310646D02*
Y312645D01*
X593888Y315644D02*
Y319643D01*
X592888D01*
X588890Y315644D01*
X587890D01*
Y329640D02*
X589889Y327640D01*
X591889D01*
X593888Y329640D01*
X587890Y332639D02*
X591889D01*
Y333638D01*
X590889Y334638D01*
X587890D01*
X590889D01*
X591889Y335638D01*
X590889Y336637D01*
X587890D01*
Y338637D02*
X591889D01*
Y339636D01*
X590889Y340636D01*
X587890D01*
X590889D01*
X591889Y341636D01*
X590889Y342635D01*
X587890D01*
Y344635D02*
X589889Y346634D01*
X591889D01*
X593888Y344635D01*
X396016Y513149D02*
X395017Y512149D01*
X393017D01*
X392018Y513149D01*
Y517147D01*
X393017Y518147D01*
X395017D01*
X396016Y517147D01*
Y516148D01*
X395017Y515148D01*
X392018D01*
X386019Y518147D02*
X390018D01*
Y515148D01*
X388019Y516148D01*
X387019D01*
X386019Y515148D01*
Y513149D01*
X387019Y512149D01*
X389019D01*
X390018Y513149D01*
X376023Y512149D02*
X378022Y514148D01*
Y516148D01*
X376023Y518147D01*
X373024Y512149D02*
Y516148D01*
X372024D01*
X371024Y515148D01*
Y512149D01*
Y515148D01*
X370025Y516148D01*
X369025Y515148D01*
Y512149D01*
X367026D02*
Y516148D01*
X366026D01*
X365026Y515148D01*
Y512149D01*
Y515148D01*
X364027Y516148D01*
X363027Y515148D01*
Y512149D01*
X361028D02*
X359028Y514148D01*
Y516148D01*
X361028Y518147D01*
D41*
X319836Y379528D02*
Y385526D01*
X316837D01*
X315837Y384526D01*
Y382527D01*
X316837Y381527D01*
X319836D01*
X317836D02*
X315837Y379528D01*
X313838D02*
X311838D01*
X312838D01*
Y385526D01*
X313838Y384526D01*
X304840Y379528D02*
X308839D01*
X304840Y383526D01*
Y384526D01*
X305840Y385526D01*
X307839D01*
X308839Y384526D01*
X319836Y370079D02*
Y376077D01*
X316837D01*
X315837Y375077D01*
Y373078D01*
X316837Y372078D01*
X319836D01*
X317836D02*
X315837Y370079D01*
X313838Y376077D02*
X309839D01*
Y375077D01*
X313838Y371078D01*
Y370079D01*
X249062Y342520D02*
X243064Y346518D01*
X249062D02*
X243064Y342520D01*
Y348518D02*
Y350517D01*
Y349517D01*
X249062D01*
X248062Y348518D01*
X314656Y345550D02*
X315655Y346549D01*
X317655D01*
X318654Y345550D01*
Y341551D01*
X317655Y340551D01*
X315655D01*
X314656Y341551D01*
X312656Y346549D02*
X308658D01*
Y345550D01*
X312656Y341551D01*
Y340551D01*
X314656Y355392D02*
X315655Y356392D01*
X317655D01*
X318654Y355392D01*
Y351393D01*
X317655Y350394D01*
X315655D01*
X314656Y351393D01*
X308658Y356392D02*
X310657Y355392D01*
X312656Y353393D01*
Y351393D01*
X311657Y350394D01*
X309657D01*
X308658Y351393D01*
Y352393D01*
X309657Y353393D01*
X312656D01*
X438445Y322698D02*
X439444Y323698D01*
X441444D01*
X442444Y322698D01*
Y321699D01*
X441444Y320699D01*
X439444D01*
X438445Y319699D01*
Y318700D01*
X439444Y317700D01*
X441444D01*
X442444Y318700D01*
X436445Y323698D02*
Y317700D01*
Y319699D01*
X432447Y323698D01*
X435446Y320699D01*
X432447Y317700D01*
X430447Y323698D02*
Y318700D01*
X429448Y317700D01*
X427448D01*
X426449Y318700D01*
Y323698D01*
X360645Y322698D02*
X361645Y323698D01*
X363644D01*
X364644Y322698D01*
Y321699D01*
X363644Y320699D01*
X361645D01*
X360645Y319699D01*
Y318700D01*
X361645Y317700D01*
X363644D01*
X364644Y318700D01*
X358645Y323698D02*
Y317700D01*
Y319699D01*
X354647Y323698D01*
X357646Y320699D01*
X354647Y317700D01*
X348649Y323698D02*
X352647D01*
Y317700D01*
X348649D01*
X352647Y320699D02*
X350648D01*
X516145Y322698D02*
X517144Y323698D01*
X519144D01*
X520144Y322698D01*
Y321699D01*
X519144Y320699D01*
X517144D01*
X516145Y319699D01*
Y318700D01*
X517144Y317700D01*
X519144D01*
X520144Y318700D01*
X514145Y323698D02*
Y317700D01*
Y319699D01*
X510147Y323698D01*
X513146Y320699D01*
X510147Y317700D01*
X508147Y323698D02*
Y317700D01*
X505148D01*
X504149Y318700D01*
Y322698D01*
X505148Y323698D01*
X508147D01*
X294245Y270498D02*
X295245Y271498D01*
X297244D01*
X298243Y270498D01*
Y269499D01*
X297244Y268499D01*
X295245D01*
X294245Y267499D01*
Y266500D01*
X295245Y265500D01*
X297244D01*
X298243Y266500D01*
X292245Y265500D02*
Y271498D01*
X289246D01*
X288247Y270498D01*
Y268499D01*
X289246Y267499D01*
X292245D01*
X286247Y271498D02*
X284248D01*
X285248D01*
Y265500D01*
X286247D01*
X284248D01*
X337552Y196850D02*
Y202849D01*
X334553D01*
X333553Y201849D01*
Y199849D01*
X334553Y198850D01*
X337552D01*
X335553D02*
X333553Y196850D01*
X331554D02*
X329555D01*
X330554D01*
Y202849D01*
X331554Y201849D01*
X326556D02*
X325556Y202849D01*
X323557D01*
X322557Y201849D01*
Y200849D01*
X323557Y199849D01*
X322557Y198850D01*
Y197850D01*
X323557Y196850D01*
X325556D01*
X326556Y197850D01*
Y198850D01*
X325556Y199849D01*
X326556Y200849D01*
Y201849D01*
X325556Y199849D02*
X323557D01*
X456371Y266572D02*
Y272570D01*
X453372D01*
X452372Y271571D01*
Y269571D01*
X453372Y268572D01*
X456371D01*
X454372D02*
X452372Y266572D01*
X450373D02*
X448374D01*
X449373D01*
Y272570D01*
X450373Y271571D01*
X445375Y272570D02*
X441376D01*
Y271571D01*
X445375Y267572D01*
Y266572D01*
X446344Y194900D02*
Y200898D01*
X444344Y198899D01*
X442345Y200898D01*
Y194900D01*
X437346Y200898D02*
X439346D01*
X440345Y199898D01*
Y195900D01*
X439346Y194900D01*
X437346D01*
X436347Y195900D01*
Y199898D01*
X437346Y200898D01*
X434347D02*
X430349D01*
X432348D01*
Y194900D01*
X425350Y200898D02*
X427350D01*
X428349Y199898D01*
Y195900D01*
X427350Y194900D01*
X425350D01*
X424351Y195900D01*
Y199898D01*
X425350Y200898D01*
X422351Y194900D02*
Y200898D01*
X419352D01*
X418353Y199898D01*
Y197899D01*
X419352Y196899D01*
X422351D01*
X420352D02*
X418353Y194900D01*
X432040Y230408D02*
Y224410D01*
X429041D01*
X428042Y225409D01*
Y229408D01*
X429041Y230408D01*
X432040D01*
X426042Y229408D02*
X425043Y230408D01*
X423043D01*
X422044Y229408D01*
Y228408D01*
X423043Y227409D01*
X424043D01*
X423043D01*
X422044Y226409D01*
Y225409D01*
X423043Y224410D01*
X425043D01*
X426042Y225409D01*
X345426Y194974D02*
Y188976D01*
X342427D01*
X341427Y189976D01*
Y193975D01*
X342427Y194974D01*
X345426D01*
X335429Y188976D02*
X339428D01*
X335429Y192975D01*
Y193975D01*
X336429Y194974D01*
X338428D01*
X339428Y193975D01*
X341143Y265198D02*
Y259200D01*
X338144D01*
X337145Y260200D01*
Y264198D01*
X338144Y265198D01*
X341143D01*
X335145Y259200D02*
X333146D01*
X334146D01*
Y265198D01*
X335145Y264198D01*
X391545Y210798D02*
X392545Y211798D01*
X394544D01*
X395544Y210798D01*
Y206800D01*
X394544Y205800D01*
X392545D01*
X391545Y206800D01*
X385547Y211798D02*
X389545D01*
Y208799D01*
X387546Y209799D01*
X386546D01*
X385547Y208799D01*
Y206800D01*
X386546Y205800D01*
X388546D01*
X389545Y206800D01*
X286443Y198299D02*
X282445D01*
X284444Y200298D02*
Y196300D01*
X276447Y201298D02*
X278446Y200298D01*
X280445Y198299D01*
Y196300D01*
X279446Y195300D01*
X277446D01*
X276447Y196300D01*
Y197299D01*
X277446Y198299D01*
X280445D01*
X274447Y201298D02*
Y197299D01*
X272448Y195300D01*
X270449Y197299D01*
Y201298D01*
X482343Y448000D02*
X476345D01*
Y445001D01*
X477345Y444001D01*
X479344D01*
X480344Y445001D01*
Y448000D01*
Y446001D02*
X482343Y444001D01*
Y438003D02*
Y442002D01*
X478345Y438003D01*
X477345D01*
X476345Y439003D01*
Y441002D01*
X477345Y442002D01*
X476345Y432005D02*
Y436004D01*
X479344D01*
X478345Y434004D01*
Y433005D01*
X479344Y432005D01*
X481344D01*
X482343Y433005D01*
Y435004D01*
X481344Y436004D01*
X430843Y448500D02*
X424845D01*
Y445501D01*
X425845Y444501D01*
X427844D01*
X428844Y445501D01*
Y448500D01*
Y446501D02*
X430843Y444501D01*
Y438503D02*
Y442502D01*
X426845Y438503D01*
X425845D01*
X424845Y439503D01*
Y441502D01*
X425845Y442502D01*
X430843Y433505D02*
X424845D01*
X427844Y436504D01*
Y432505D01*
X380843Y448000D02*
X374845D01*
Y445001D01*
X375845Y444001D01*
X377845D01*
X378844Y445001D01*
Y448000D01*
Y446001D02*
X380843Y444001D01*
Y438003D02*
Y442002D01*
X376845Y438003D01*
X375845D01*
X374845Y439003D01*
Y441002D01*
X375845Y442002D01*
Y436004D02*
X374845Y435004D01*
Y433005D01*
X375845Y432005D01*
X376845D01*
X377845Y433005D01*
Y434004D01*
Y433005D01*
X378844Y432005D01*
X379844D01*
X380843Y433005D01*
Y435004D01*
X379844Y436004D01*
X324560Y482283D02*
Y488281D01*
X321561D01*
X320561Y487282D01*
Y485283D01*
X321561Y484283D01*
X324560D01*
X322561D02*
X320561Y482283D01*
X314563D02*
X318562D01*
X314563Y486282D01*
Y487282D01*
X315563Y488281D01*
X317562D01*
X318562Y487282D01*
X308565Y482283D02*
X312564D01*
X308565Y486282D01*
Y487282D01*
X309565Y488281D01*
X311564D01*
X312564Y487282D01*
X271595Y378851D02*
X270595Y379851D01*
Y381850D01*
X271595Y382850D01*
X275594D01*
X276593Y381850D01*
Y379851D01*
X275594Y378851D01*
X270595Y376852D02*
X275594D01*
X276593Y375852D01*
Y373853D01*
X275594Y372853D01*
X270595D01*
X276593Y366855D02*
Y370854D01*
X272595Y366855D01*
X271595D01*
X270595Y367855D01*
Y369854D01*
X271595Y370854D01*
X228095Y385048D02*
X229095Y386048D01*
X231094D01*
X232094Y385048D01*
Y381050D01*
X231094Y380050D01*
X229095D01*
X228095Y381050D01*
X226095Y386048D02*
Y381050D01*
X225096Y380050D01*
X223096D01*
X222097Y381050D01*
Y386048D01*
X220097Y385048D02*
X219098Y386048D01*
X217098D01*
X216099Y385048D01*
Y384049D01*
X217098Y383049D01*
X218098D01*
X217098D01*
X216099Y382049D01*
Y381050D01*
X217098Y380050D01*
X219098D01*
X220097Y381050D01*
X420257Y339628D02*
Y333630D01*
X417258D01*
X416258Y334630D01*
Y338628D01*
X417258Y339628D01*
X420257D01*
X414259Y333630D02*
Y339628D01*
X411260D01*
X410260Y338628D01*
Y336629D01*
X411260Y335629D01*
X414259D01*
X408261Y333630D02*
X406261D01*
X407261D01*
Y339628D01*
X408261Y338628D01*
X519666Y339628D02*
Y333630D01*
X516667D01*
X515668Y334630D01*
Y338628D01*
X516667Y339628D01*
X519666D01*
X513668Y333630D02*
Y339628D01*
X510669D01*
X509669Y338628D01*
Y336629D01*
X510669Y335629D01*
X513668D01*
X503672Y333630D02*
X507670D01*
X503672Y337629D01*
Y338628D01*
X504671Y339628D01*
X506671D01*
X507670Y338628D01*
X289914Y468504D02*
Y474502D01*
X286915D01*
X285916Y473502D01*
Y471503D01*
X286915Y470503D01*
X289914D01*
X287915D02*
X285916Y468504D01*
X283916D02*
X281917D01*
X282917D01*
Y474502D01*
X283916Y473502D01*
X278918Y469504D02*
X277918Y468504D01*
X275919D01*
X274919Y469504D01*
Y473502D01*
X275919Y474502D01*
X277918D01*
X278918Y473502D01*
Y472503D01*
X277918Y471503D01*
X274919D01*
X245820Y447730D02*
Y442732D01*
X244820Y441732D01*
X242821D01*
X241821Y442732D01*
Y447730D01*
X239822Y441732D02*
X237822D01*
X238822D01*
Y447730D01*
X239822Y446731D01*
X232828Y446457D02*
Y452455D01*
X229829D01*
X228829Y451455D01*
Y449456D01*
X229829Y448456D01*
X232828D01*
X230828D02*
X228829Y446457D01*
X222831Y452455D02*
X226830D01*
Y449456D01*
X224830Y450455D01*
X223831D01*
X222831Y449456D01*
Y447456D01*
X223831Y446457D01*
X225830D01*
X226830Y447456D01*
X232040Y435827D02*
Y441825D01*
X229041D01*
X228042Y440825D01*
Y438826D01*
X229041Y437826D01*
X232040D01*
X230041D02*
X228042Y435827D01*
X222044Y441825D02*
X224043Y440825D01*
X226042Y438826D01*
Y436827D01*
X225043Y435827D01*
X223043D01*
X222044Y436827D01*
Y437826D01*
X223043Y438826D01*
X226042D01*
X332828Y314961D02*
Y320959D01*
X329829D01*
X328829Y319959D01*
Y317960D01*
X329829Y316960D01*
X332828D01*
X330828D02*
X328829Y314961D01*
X326830Y319959D02*
X325830Y320959D01*
X323831D01*
X322831Y319959D01*
Y318959D01*
X323831Y317960D01*
X322831Y316960D01*
Y315960D01*
X323831Y314961D01*
X325830D01*
X326830Y315960D01*
Y316960D01*
X325830Y317960D01*
X326830Y318959D01*
Y319959D01*
X325830Y317960D02*
X323831D01*
X332828Y303055D02*
Y309053D01*
X329829D01*
X328829Y308053D01*
Y306054D01*
X329829Y305054D01*
X332828D01*
X330828D02*
X328829Y303055D01*
X326830Y304055D02*
X325830Y303055D01*
X323831D01*
X322831Y304055D01*
Y308053D01*
X323831Y309053D01*
X325830D01*
X326830Y308053D01*
Y307054D01*
X325830Y306054D01*
X322831D01*
X275347Y447244D02*
Y453242D01*
X272348D01*
X271349Y452243D01*
Y450243D01*
X272348Y449243D01*
X275347D01*
X273348D02*
X271349Y447244D01*
X269349D02*
X267350D01*
X268350D01*
Y453242D01*
X269349Y452243D01*
X264351D02*
X263351Y453242D01*
X261352D01*
X260352Y452243D01*
Y448244D01*
X261352Y447244D01*
X263351D01*
X264351Y448244D01*
Y452243D01*
X332828Y327953D02*
Y333951D01*
X329829D01*
X328829Y332951D01*
Y330952D01*
X329829Y329952D01*
X332828D01*
X330828D02*
X328829Y327953D01*
X326830D02*
X324830D01*
X325830D01*
Y333951D01*
X326830Y332951D01*
X321831Y327953D02*
X319832D01*
X320832D01*
Y333951D01*
X321831Y332951D01*
X351345Y488998D02*
X352344Y489998D01*
X354344D01*
X355344Y488998D01*
Y485000D01*
X354344Y484000D01*
X352344D01*
X351345Y485000D01*
X349345Y484000D02*
X347346D01*
X348346D01*
Y489998D01*
X349345Y488998D01*
X405845Y489498D02*
X406845Y490498D01*
X408844D01*
X409843Y489498D01*
Y485500D01*
X408844Y484500D01*
X406845D01*
X405845Y485500D01*
X399847Y484500D02*
X403845D01*
X399847Y488499D01*
Y489498D01*
X400846Y490498D01*
X402846D01*
X403845Y489498D01*
X452345Y488998D02*
X453344Y489998D01*
X455344D01*
X456344Y488998D01*
Y485000D01*
X455344Y484000D01*
X453344D01*
X452345Y485000D01*
X450345Y488998D02*
X449346Y489998D01*
X447346D01*
X446347Y488998D01*
Y487999D01*
X447346Y486999D01*
X448346D01*
X447346D01*
X446347Y485999D01*
Y485000D01*
X447346Y484000D01*
X449346D01*
X450345Y485000D01*
X507345Y487498D02*
X508344Y488498D01*
X510344D01*
X511343Y487498D01*
Y483500D01*
X510344Y482500D01*
X508344D01*
X507345Y483500D01*
X502346Y482500D02*
Y488498D01*
X505345Y485499D01*
X501347D01*
X320332Y456685D02*
Y450687D01*
X323331D01*
X324330Y451687D01*
Y453686D01*
X323331Y454686D01*
X320332D01*
X322331D02*
X324330Y456685D01*
X326330D02*
X328329D01*
X327329D01*
Y450687D01*
X326330Y451687D01*
X383344Y427000D02*
Y421002D01*
X386343D01*
X387342Y422002D01*
Y424001D01*
X386343Y425001D01*
X383344D01*
X385343D02*
X387342Y427000D01*
X393340D02*
X389341D01*
X393340Y423001D01*
Y422002D01*
X392341Y421002D01*
X390341D01*
X389341Y422002D01*
X363344Y469000D02*
X369341D01*
Y471999D01*
X368342Y472999D01*
X366342D01*
X365343Y471999D01*
Y469000D01*
Y470999D02*
X363344Y472999D01*
X368342Y474998D02*
X369341Y475998D01*
Y477997D01*
X368342Y478997D01*
X367342D01*
X366342Y477997D01*
Y476997D01*
Y477997D01*
X365343Y478997D01*
X364343D01*
X363344Y477997D01*
Y475998D01*
X364343Y474998D01*
X415843Y473000D02*
X421841D01*
Y475999D01*
X420842Y476999D01*
X418843D01*
X417843Y475999D01*
Y473000D01*
Y474999D02*
X415843Y476999D01*
Y481997D02*
X421841D01*
X418843Y478998D01*
Y482997D01*
X428843Y426500D02*
Y420502D01*
X431843D01*
X432842Y421502D01*
Y423501D01*
X431843Y424501D01*
X428843D01*
X430843D02*
X432842Y426500D01*
X434841D02*
X436841D01*
X435841D01*
Y420502D01*
X434841Y421502D01*
X439840D02*
X440840Y420502D01*
X442839D01*
X443839Y421502D01*
Y422501D01*
X442839Y423501D01*
X441839D01*
X442839D01*
X443839Y424501D01*
Y425500D01*
X442839Y426500D01*
X440840D01*
X439840Y425500D01*
X481844Y426500D02*
Y420502D01*
X484842D01*
X485842Y421502D01*
Y423501D01*
X484842Y424501D01*
X481844D01*
X483843D02*
X485842Y426500D01*
X487842D02*
X489841D01*
X488841D01*
Y420502D01*
X487842Y421502D01*
X495839Y426500D02*
Y420502D01*
X492840Y423501D01*
X496839D01*
X464344Y468500D02*
X470341D01*
Y471499D01*
X469342Y472499D01*
X467343D01*
X466343Y471499D01*
Y468500D01*
Y470499D02*
X464344Y472499D01*
Y474498D02*
Y476497D01*
Y475498D01*
X470341D01*
X469342Y474498D01*
X470341Y483495D02*
Y479496D01*
X467343D01*
X468342Y481496D01*
Y482495D01*
X467343Y483495D01*
X465343D01*
X464344Y482495D01*
Y480496D01*
X465343Y479496D01*
X519344Y466500D02*
X525342D01*
Y469499D01*
X524342Y470499D01*
X522342D01*
X521343Y469499D01*
Y466500D01*
Y468499D02*
X519344Y470499D01*
Y472498D02*
Y474497D01*
Y473498D01*
X525342D01*
X524342Y472498D01*
X525342Y481495D02*
X524342Y479496D01*
X522342Y477496D01*
X520343D01*
X519344Y478496D01*
Y480496D01*
X520343Y481495D01*
X521343D01*
X522342Y480496D01*
Y477496D01*
X357994Y452148D02*
X353995D01*
X355994D01*
Y446150D01*
X351995D02*
X349996D01*
X350996D01*
Y452148D01*
X351995Y451148D01*
X410494Y452148D02*
X406495D01*
X408494D01*
Y446150D01*
X400497D02*
X404495D01*
X400497Y450149D01*
Y451148D01*
X401496Y452148D01*
X403496D01*
X404495Y451148D01*
X458494Y452148D02*
X454495D01*
X456494D01*
Y446150D01*
X452495Y451148D02*
X451496Y452148D01*
X449496D01*
X448497Y451148D01*
Y450149D01*
X449496Y449149D01*
X450496D01*
X449496D01*
X448497Y448149D01*
Y447150D01*
X449496Y446150D01*
X451496D01*
X452495Y447150D01*
X511994Y452148D02*
X507995D01*
X509994D01*
Y446150D01*
X502996D02*
Y452148D01*
X505995Y449149D01*
X501997D01*
X497645Y281200D02*
Y285198D01*
X498644Y286198D01*
X500644D01*
X501644Y285198D01*
Y281200D01*
X500644Y280200D01*
X498644D01*
X499644Y282199D02*
X497645Y280200D01*
X498644D02*
X497645Y281200D01*
X495645Y280200D02*
X493646D01*
X494646D01*
Y286198D01*
X495645Y285198D01*
X497570Y430317D02*
X499538D01*
X500194Y429661D01*
Y428349D01*
X499538Y427693D01*
X497570D01*
X505607Y435664D02*
Y431728D01*
X503639D01*
X502983Y432384D01*
Y433040D01*
Y433696D01*
X503639Y434352D01*
X505607D01*
X498226Y436650D02*
X499538D01*
X500194Y437306D01*
Y438618D01*
X499538Y439273D01*
X498226D01*
X497570Y438618D01*
Y437961D01*
X500194D01*
X444070Y430317D02*
X446038D01*
X446694Y429661D01*
Y428349D01*
X446038Y427693D01*
X444070D01*
X452107Y435664D02*
Y431728D01*
X450139D01*
X449483Y432384D01*
Y433040D01*
Y433696D01*
X450139Y434352D01*
X452107D01*
X444726Y436650D02*
X446038D01*
X446694Y437306D01*
Y438618D01*
X446038Y439273D01*
X444726D01*
X444070Y438618D01*
Y437961D01*
X446694D01*
X396070Y430317D02*
X398038D01*
X398694Y429661D01*
Y428349D01*
X398038Y427693D01*
X396070D01*
X404107Y435664D02*
Y431728D01*
X402139D01*
X401483Y432384D01*
Y433040D01*
Y433696D01*
X402139Y434352D01*
X404107D01*
X396726Y436650D02*
X398038D01*
X398694Y437306D01*
Y438618D01*
X398038Y439273D01*
X396726D01*
X396070Y438618D01*
Y437961D01*
X398694D01*
X341470Y436846D02*
X342782D01*
X343438Y437502D01*
Y438814D01*
X342782Y439470D01*
X341470D01*
X340814Y438814D01*
Y438158D01*
X343438D01*
X348851Y435566D02*
Y431630D01*
X346884D01*
X346228Y432286D01*
Y432942D01*
Y433598D01*
X346884Y434254D01*
X348851D01*
X340814Y430218D02*
X342782D01*
X343438Y429562D01*
Y428251D01*
X342782Y427595D01*
X340814D01*
D48*
X498029Y425941D02*
G03*
X498029Y441059I5315J7559D01*
G01*
X444528Y425941D02*
G03*
X444528Y441059I5315J7559D01*
G01*
X396529Y425941D02*
G03*
X396529Y441059I5315J7559D01*
G01*
X343003Y424482D02*
G03*
X343003Y442518I6340J9018D01*
G01*
X252219Y439000D02*
G03*
X257219Y439000I2500J0D01*
G01*
X370921Y257778D02*
G03*
X370921Y242222I-7778J-7778D01*
G01*
X502316Y269390D02*
X489521D01*
X472985D02*
X460190D01*
X502316Y250590D02*
X460190D01*
X502316Y248622D02*
X460190D01*
X489521Y269390D02*
X472985D01*
X460190Y248622D02*
Y269390D01*
X502316Y248622D02*
Y269390D01*
X498029Y425941D02*
Y426610D01*
X498029Y440390D02*
Y441059D01*
X444528Y425941D02*
Y426610D01*
X444528Y440390D02*
Y441059D01*
X396529Y425941D02*
Y426610D01*
X396529Y440390D02*
Y441059D01*
X342946Y440980D02*
Y442358D01*
Y424642D02*
Y426217D01*
X514529Y445154D02*
Y446138D01*
X525158Y445154D02*
Y446138D01*
X460529Y445154D02*
Y446138D01*
X471158Y445154D02*
Y446138D01*
X496158Y445154D02*
Y446138D01*
X485529Y445154D02*
Y446138D01*
X442158Y445154D02*
Y446138D01*
X431529Y445154D02*
Y446138D01*
X413028Y444362D02*
Y445346D01*
X423658Y444362D02*
Y445346D01*
X360029Y447154D02*
Y448138D01*
X370658Y447154D02*
Y448138D01*
X394658Y447154D02*
Y448138D01*
X384029Y447154D02*
Y448138D01*
X341292Y451083D02*
Y452067D01*
X330662Y451083D02*
Y452067D01*
X298981Y324685D02*
X297997D01*
X298981Y335315D02*
X297997Y335315D01*
X299068Y443504D02*
X298084D01*
X299068Y454134D02*
X298084Y454134D01*
X299068Y299803D02*
X298084D01*
X299068Y310433D02*
X298084Y310433D01*
X298981Y312685D02*
X297997D01*
X298981Y323315D02*
X297997Y323315D01*
X306154Y419095D02*
X305170D01*
X306154Y429724D02*
X305170Y429724D01*
X301430Y430905D02*
X300446D01*
X301430Y441535D02*
X300446Y441535D01*
X262135Y439000D02*
X257219D01*
X252219Y439000D02*
X247302Y439000D01*
X247302Y299000D01*
X262135Y299000D02*
X247302Y299000D01*
X262135Y299000D02*
Y439000D01*
X308123Y467520D02*
X307139D01*
X308123Y456890D02*
X307139Y456890D01*
X314816Y469095D02*
X313832Y469095D01*
X314816Y479724D02*
X313832D01*
X372028Y468153D02*
Y469138D01*
X382658Y468153D02*
Y469138D01*
X422529Y468153D02*
Y469138D01*
X433158Y468153D02*
Y469138D01*
X474028Y468153D02*
Y469138D01*
X484658Y468153D02*
Y469138D01*
X396285Y181102D02*
X392285D01*
X394185Y179202D02*
Y183202D01*
X330859Y220669D02*
Y241535D01*
X341883Y220669D02*
Y241535D01*
Y220669D02*
X330859D01*
X457040Y243209D02*
Y244193D01*
X446410Y243209D02*
Y244193D01*
X303005Y398622D02*
X302021D01*
X303005Y387992D02*
X302021D01*
X303005Y414764D02*
X302021D01*
X303005Y404134D02*
X302021D01*
X308123Y237598D02*
X307139D01*
X308123Y226969D02*
X307139D01*
X396017Y230217D02*
Y231201D01*
X385387Y230217D02*
Y231201D01*
X222001Y247146D02*
Y248130D01*
X232631Y247146D02*
Y248130D01*
X432631Y211024D02*
X411765D01*
X432631Y222047D02*
X411765D01*
X432631Y211024D02*
Y222047D01*
X371017Y242126D02*
Y257874D01*
X285288Y211221D02*
X284304D01*
X285288Y221850D02*
X284304D01*
X319245Y202658D02*
Y203642D01*
X308615Y202658D02*
Y203642D01*
X326332Y184646D02*
X305466D01*
X326332Y173622D02*
X305466D01*
Y184646D01*
D49*
X470221Y361941D02*
G03*
X470221Y361941I2201J0D01*
G01*
X427899Y361941D02*
G03*
X427899Y361941I2201J0D01*
G01*
X369828Y361941D02*
G03*
X369828Y361941I2201J0D01*
G01*
X327505Y361941D02*
G03*
X327505Y361941I2201J0D01*
G01*
X459627Y402528D02*
X433052Y402528D01*
X459627Y381858D02*
X436989D01*
X436989Y362173D02*
X435021Y379890D01*
X464548Y360205D02*
X437973Y360205D01*
X464548Y362173D02*
X462580Y379890D01*
X461595Y382842D02*
X459627Y400559D01*
X435021Y383827D02*
X433052Y400559D01*
X477344Y383827D02*
X475375Y400559D01*
X503918Y382842D02*
X501950Y400559D01*
X506871Y362173D02*
X504903Y379890D01*
X506871Y360205D02*
X480296Y360205D01*
X479312Y362173D02*
X477344Y379890D01*
X501950Y381858D02*
X479312Y381858D01*
X501950Y402528D02*
X475375Y402528D01*
X359233Y402528D02*
X332658Y402528D01*
X359233Y381858D02*
X336595D01*
X336595Y362173D02*
X334627Y379890D01*
X364155Y360205D02*
X337580Y360205D01*
X364155Y362173D02*
X362186Y379890D01*
X361202Y382842D02*
X359233Y400559D01*
X334627Y383827D02*
X332658Y400559D01*
X376950Y383827D02*
X374981Y400559D01*
X403525Y382842D02*
X401556Y400559D01*
X406477Y362173D02*
X404509Y379890D01*
X406477Y360205D02*
X379903Y360205D01*
X378918Y362173D02*
X376950Y379890D01*
X401556Y381858D02*
X378918Y381858D01*
X401556Y402528D02*
X374981Y402528D01*
D50*
X483220Y276476D02*
X479284D01*
X483220Y272541D01*
Y271557D01*
X482236Y270573D01*
X480268D01*
X479284Y271557D01*
X470328Y276476D02*
X472296D01*
X471312D01*
Y270573D01*
X470328Y271557D01*
X489619D02*
X490603Y270573D01*
X492571D01*
X493555Y271557D01*
Y272541D01*
X492571Y273525D01*
X491587D01*
X492571D01*
X493555Y274509D01*
Y275493D01*
X492571Y276476D01*
X490603D01*
X489619Y275493D01*
D51*
X548574Y178740D02*
X540702D01*
X548574D02*
Y183614D01*
X544825Y178740D02*
Y181739D01*
X548574Y189387D02*
Y184513D01*
X540702D01*
Y189387D01*
X544825Y184513D02*
Y187512D01*
X548574Y195572D02*
Y190699D01*
X540702D01*
Y195572D01*
X544825Y190699D02*
Y193698D01*
X548574Y196884D02*
X540702D01*
X548574D02*
Y199508D01*
X548199Y200633D01*
X547449Y201382D01*
X546700Y201757D01*
X545575Y202132D01*
X543701D01*
X542576Y201757D01*
X541826Y201382D01*
X541077Y200633D01*
X540702Y199508D01*
Y196884D01*
X548574Y212704D02*
X540702D01*
X548574Y210080D02*
Y215328D01*
Y216265D02*
X540702D01*
X548574Y217914D02*
X540702D01*
X548574D02*
X540702Y220913D01*
X548574Y223912D02*
X540702Y220913D01*
X548574Y223912D02*
X540702D01*
X548574Y231035D02*
Y226162D01*
X540702D01*
Y231035D01*
X544825Y226162D02*
Y229161D01*
X548574Y232347D02*
X540702D01*
X548574D02*
Y235721D01*
X548199Y236845D01*
X547824Y237220D01*
X547075Y237595D01*
X546325D01*
X545575Y237220D01*
X545200Y236845D01*
X544825Y235721D01*
Y232347D01*
Y234971D02*
X540702Y237595D01*
X548574Y245543D02*
X540702D01*
X548574D02*
Y248167D01*
X548199Y249291D01*
X547449Y250041D01*
X546700Y250416D01*
X545575Y250791D01*
X543701D01*
X542576Y250416D01*
X541826Y250041D01*
X541077Y249291D01*
X540702Y248167D01*
Y245543D01*
X544451Y252553D02*
Y255926D01*
X544825Y257051D01*
X545200Y257426D01*
X545950Y257801D01*
X547075D01*
X547824Y257426D01*
X548199Y257051D01*
X548574Y255926D01*
Y252553D01*
X540702D01*
X548574Y264811D02*
X540702Y261062D01*
X548574Y259563D02*
Y264811D01*
X547449Y271821D02*
X548199Y271071D01*
X548574Y269947D01*
Y268447D01*
X548199Y267323D01*
X547449Y266573D01*
X546700D01*
X545950Y266948D01*
X545575Y267323D01*
X545200Y268072D01*
X544451Y270322D01*
X544076Y271071D01*
X543701Y271446D01*
X542951Y271821D01*
X541826D01*
X541077Y271071D01*
X540702Y269947D01*
Y268447D01*
X541077Y267323D01*
X541826Y266573D01*
X548574Y278456D02*
Y273583D01*
X540702D01*
Y278456D01*
X544825Y273583D02*
Y276582D01*
X546700Y285391D02*
X547449Y285017D01*
X548199Y284267D01*
X548574Y283517D01*
Y282018D01*
X548199Y281268D01*
X547449Y280518D01*
X546700Y280143D01*
X545575Y279768D01*
X543701D01*
X542576Y280143D01*
X541826Y280518D01*
X541077Y281268D01*
X540702Y282018D01*
Y283517D01*
X541077Y284267D01*
X541826Y285017D01*
X542576Y285391D01*
X543701D01*
Y283517D02*
Y285391D01*
X535582Y180989D02*
X535207Y179865D01*
X534083Y179115D01*
X532208Y178740D01*
X531083D01*
X529209Y179115D01*
X528085Y179865D01*
X527710Y180989D01*
Y181739D01*
X528085Y182864D01*
X529209Y183614D01*
X531083Y183988D01*
X532208D01*
X534083Y183614D01*
X535207Y182864D01*
X535582Y181739D01*
Y180989D01*
Y186500D02*
Y190624D01*
X532583Y188374D01*
Y189499D01*
X532208Y190249D01*
X531833Y190624D01*
X530709Y190998D01*
X529959D01*
X528834Y190624D01*
X528085Y189874D01*
X527710Y188749D01*
Y187625D01*
X528085Y186500D01*
X528459Y186125D01*
X529209Y185750D01*
X526585Y192760D02*
X535582Y198009D01*
Y200783D02*
X535207Y199658D01*
X534083Y198908D01*
X532208Y198533D01*
X531083D01*
X529209Y198908D01*
X528085Y199658D01*
X527710Y200783D01*
Y201532D01*
X528085Y202657D01*
X529209Y203407D01*
X531083Y203782D01*
X532208D01*
X534083Y203407D01*
X535207Y202657D01*
X535582Y201532D01*
Y200783D01*
X532958Y210417D02*
X531833Y210042D01*
X531083Y209292D01*
X530709Y208168D01*
Y207793D01*
X531083Y206668D01*
X531833Y205919D01*
X532958Y205544D01*
X533333D01*
X534457Y205919D01*
X535207Y206668D01*
X535582Y207793D01*
Y208168D01*
X535207Y209292D01*
X534457Y210042D01*
X532958Y210417D01*
X531083D01*
X529209Y210042D01*
X528085Y209292D01*
X527710Y208168D01*
Y207418D01*
X528085Y206293D01*
X528834Y205919D01*
X526585Y212554D02*
X535582Y217802D01*
X534083Y218327D02*
X534457Y219076D01*
X535582Y220201D01*
X527710D01*
X535582Y228598D02*
Y224850D01*
X532208Y224475D01*
X532583Y224850D01*
X532958Y225974D01*
Y227099D01*
X532583Y228223D01*
X531833Y228973D01*
X530709Y229348D01*
X529959D01*
X528834Y228973D01*
X528085Y228223D01*
X527710Y227099D01*
Y225974D01*
X528085Y224850D01*
X528459Y224475D01*
X529209Y224100D01*
X535582Y237295D02*
X527710D01*
X535582D02*
Y240669D01*
X535207Y241794D01*
X534832Y242169D01*
X534083Y242544D01*
X533333D01*
X532583Y242169D01*
X532208Y241794D01*
X531833Y240669D01*
Y237295D01*
Y239919D02*
X527710Y242544D01*
X530709Y244305D02*
Y248804D01*
X531458D01*
X532208Y248429D01*
X532583Y248054D01*
X532958Y247304D01*
Y246180D01*
X532583Y245430D01*
X531833Y244680D01*
X530709Y244305D01*
X529959D01*
X528834Y244680D01*
X528085Y245430D01*
X527710Y246180D01*
Y247304D01*
X528085Y248054D01*
X528834Y248804D01*
X532958Y250491D02*
X527710Y252740D01*
X532958Y254989D02*
X527710Y252740D01*
X534083Y262449D02*
X534457Y263199D01*
X535582Y264324D01*
X527710D01*
X561566Y182489D02*
X555568D01*
X554444Y182114D01*
X554069Y181739D01*
X553694Y180989D01*
Y180240D01*
X554069Y179490D01*
X554444Y179115D01*
X555568Y178740D01*
X556318D01*
X561566Y186762D02*
X561191Y186013D01*
X560442Y185263D01*
X559692Y184888D01*
X558567Y184513D01*
X556693D01*
X555568Y184888D01*
X554818Y185263D01*
X554069Y186013D01*
X553694Y186762D01*
Y188262D01*
X554069Y189012D01*
X554818Y189761D01*
X555568Y190136D01*
X556693Y190511D01*
X558567D01*
X559692Y190136D01*
X560442Y189761D01*
X561191Y189012D01*
X561566Y188262D01*
Y186762D01*
X553694Y198346D02*
X561566Y195347D01*
X553694Y192348D01*
X556318Y193473D02*
Y197221D01*
X561566Y202432D02*
X561191Y201682D01*
X560442Y200933D01*
X559692Y200558D01*
X558567Y200183D01*
X556693D01*
X555568Y200558D01*
X554818Y200933D01*
X554069Y201682D01*
X553694Y202432D01*
Y203932D01*
X554069Y204681D01*
X554818Y205431D01*
X555568Y205806D01*
X556693Y206181D01*
X558567D01*
X559692Y205806D01*
X560442Y205431D01*
X561191Y204681D01*
X561566Y203932D01*
Y202432D01*
Y214203D02*
X553694D01*
X561566D02*
Y216827D01*
X561191Y217952D01*
X560442Y218702D01*
X559692Y219076D01*
X558567Y219451D01*
X556693D01*
X555568Y219076D01*
X554818Y218702D01*
X554069Y217952D01*
X553694Y216827D01*
Y214203D01*
X554444Y221588D02*
X554069Y221213D01*
X553694Y221588D01*
X554069Y221963D01*
X554444Y221588D01*
X553694Y235871D02*
X561566Y232872D01*
X553694Y229873D01*
X556318Y230997D02*
Y234746D01*
X554444Y238083D02*
X554069Y237708D01*
X553694Y238083D01*
X554069Y238457D01*
X554444Y238083D01*
X561566Y248617D02*
X561191Y247867D01*
X560442Y247117D01*
X559692Y246742D01*
X558567Y246367D01*
X556693D01*
X555568Y246742D01*
X554818Y247117D01*
X554069Y247867D01*
X553694Y248617D01*
Y250116D01*
X554069Y250866D01*
X554818Y251616D01*
X555568Y251990D01*
X556693Y252365D01*
X558567D01*
X559692Y251990D01*
X560442Y251616D01*
X561191Y250866D01*
X561566Y250116D01*
Y248617D01*
Y254202D02*
X553694D01*
Y258701D01*
X561566Y259563D02*
X553694D01*
X561566Y261212D02*
X553694Y264211D01*
X561566Y267210D02*
X553694Y264211D01*
X561566Y273096D02*
Y268222D01*
X553694D01*
Y273096D01*
X557818Y268222D02*
Y271221D01*
X561566Y274408D02*
X553694D01*
X561566Y276057D02*
X553694D01*
X561566D02*
Y279431D01*
X561191Y280556D01*
X560816Y280930D01*
X560067Y281305D01*
X559317D01*
X558567Y280930D01*
X558192Y280556D01*
X557818Y279431D01*
Y276057D01*
Y278681D02*
X553694Y281305D01*
Y289065D02*
X561566Y286066D01*
X553694Y283067D01*
X556318Y284192D02*
Y287941D01*
D52*
X359570Y255541D02*
X357820D01*
X357237Y256125D01*
Y257291D01*
X357820Y257874D01*
X359570D01*
X368064Y248470D02*
Y251969D01*
X369813D01*
X370396Y251385D01*
Y250802D01*
Y250219D01*
X369813Y249636D01*
X368064D01*
X358987Y245079D02*
X357820D01*
X357237Y244496D01*
Y243329D01*
X357820Y242746D01*
X358987D01*
X359570Y243329D01*
Y243912D01*
X357237D01*
D53*
X518682Y351346D02*
D03*
X418288Y351346D02*
D03*
D54*
X274216Y165946D02*
D03*
X434058Y165551D02*
D03*
D55*
X274166Y187591D02*
D03*
X434009Y187197D02*
D03*
D56*
X254580Y165957D02*
D03*
X414422Y165563D02*
D03*
D57*
X336371Y240354D02*
D03*
D58*
X243969Y252697D02*
D03*
X243969Y261004D02*
D03*
D59*
X248202Y256831D02*
D03*
D60*
X239757Y256339D02*
D03*
D61*
X412946Y216535D02*
D03*
X325150Y179133D02*
D03*
M02*
