%FSLAX25Y25*%
%MOIN*%
G70*
G01*
G75*
G04 Layer_Color=128*
%ADD10C,0.03937*%
%ADD11C,0.01969*%
%ADD12C,0.01000*%
%ADD13C,0.00600*%
%ADD14O,0.03150X0.05906*%
%ADD15C,0.15748*%
%ADD16R,0.06299X0.06299*%
%ADD17O,0.06299X0.15748*%
%ADD18C,0.06299*%
%ADD19O,0.07874X0.04724*%
%ADD20O,0.09843X0.03937*%
%ADD21C,0.07874*%
%ADD22O,0.11811X0.07087*%
%ADD23R,0.09843X0.07874*%
%ADD24O,0.09843X0.07874*%
%ADD25O,0.09843X0.04724*%
%ADD26R,0.07874X0.09843*%
%ADD27O,0.07874X0.09843*%
%ADD28R,0.07874X0.13780*%
%ADD29O,0.07874X0.13780*%
%ADD30O,0.05906X0.07874*%
%ADD31R,0.07874X0.07874*%
%ADD32C,0.09000*%
%ADD33R,0.09000X0.09000*%
%ADD34C,0.13780*%
%ADD35O,0.11811X0.06299*%
%ADD36O,0.11811X0.05512*%
%ADD37R,0.07874X0.07874*%
%ADD38O,0.08000X0.06000*%
%ADD39C,0.05000*%
%ADD40C,0.07874*%
%ADD41C,0.01181*%
%ADD42R,0.11535X0.39449*%
%ADD43R,0.11024X0.38976*%
%ADD44R,0.11811X0.29606*%
%ADD45R,0.05906X0.04331*%
%ADD46R,0.28740X0.40158*%
%ADD47R,0.18110X0.31890*%
%ADD48C,0.00787*%
%ADD49C,0.04000*%
%ADD50C,0.00591*%
%ADD51C,0.01575*%
%ADD52C,0.00800*%
%ADD53R,0.05906X0.15748*%
%ADD54R,0.09547X0.02756*%
%ADD55R,0.08000X0.08000*%
%ADD56R,0.10630X0.02732*%
%ADD57R,0.11024X0.03150*%
%ADD58R,0.10000X0.01457*%
%ADD59R,0.01535X0.06890*%
%ADD60R,0.01575X0.08740*%
%ADD61R,0.03150X0.11024*%
%ADD62O,0.03950X0.06706*%
%ADD63C,0.16548*%
%ADD64R,0.07099X0.07099*%
%ADD65O,0.07099X0.16548*%
%ADD66C,0.07099*%
%ADD67O,0.08674X0.05524*%
%ADD68O,0.10642X0.04737*%
%ADD69C,0.08674*%
%ADD70O,0.12611X0.07887*%
%ADD71R,0.10642X0.08674*%
%ADD72O,0.10642X0.08674*%
%ADD73O,0.10642X0.05524*%
%ADD74R,0.08674X0.10642*%
%ADD75O,0.08674X0.10642*%
%ADD76R,0.08674X0.14579*%
%ADD77O,0.08674X0.14579*%
%ADD78O,0.06706X0.08674*%
%ADD79R,0.08674X0.08674*%
%ADD80C,0.09800*%
%ADD81R,0.09800X0.09800*%
%ADD82C,0.14579*%
%ADD83O,0.12611X0.07099*%
%ADD84O,0.12611X0.06312*%
%ADD85R,0.08674X0.08674*%
%ADD86O,0.08800X0.06800*%
%ADD87C,0.05800*%
D12*
X196214Y488189D02*
G03*
X196214Y488189I5512J0D01*
G01*
X545626Y169291D02*
G03*
X545626Y169291I6493J0D01*
G01*
X195033D02*
G03*
X195033Y169291I6693J0D01*
G01*
X546109Y488189D02*
G03*
X546109Y488189I6010J0D01*
G01*
X592489Y500000D02*
X590489D01*
X592489Y157480D02*
X590489D01*
X591489Y500000D02*
X589489Y494000D01*
X593489D02*
X591489Y500000D01*
Y157480D02*
X589489Y163480D01*
X593489D02*
X591489Y157480D01*
Y348834D02*
Y500000D01*
Y157480D02*
Y308646D01*
X189914Y514748D02*
Y516748D01*
X563930Y514748D02*
Y516748D01*
X195914Y513748D02*
X189914Y515748D01*
X195914Y517748D02*
X189914Y515748D01*
X563930D02*
X557930Y513748D01*
X563930Y515748D02*
X557930Y517748D01*
X356828Y515748D02*
X189914D01*
X563930D02*
X397016D01*
X189914Y263779D02*
Y279528D01*
Y157480D02*
Y263779D01*
X563930Y157480D02*
X189914D01*
X563930Y157480D02*
X563930Y157480D01*
X563930Y157480D02*
Y279528D01*
Y500000D01*
X189914Y279527D02*
Y500000D01*
X563930Y500000D02*
X189914Y500000D01*
D13*
X592888Y309646D02*
X593888Y310646D01*
Y312645D01*
X592888Y313645D01*
X591889D01*
X590889Y312645D01*
X589889Y313645D01*
X588890D01*
X587890Y312645D01*
Y310646D01*
X588890Y309646D01*
X589889D01*
X590889Y310646D01*
X591889Y309646D01*
X592888D01*
X590889Y310646D02*
Y312645D01*
X593888Y315644D02*
Y319643D01*
X592888D01*
X588890Y315644D01*
X587890D01*
Y329640D02*
X589889Y327640D01*
X591889D01*
X593888Y329640D01*
X587890Y332639D02*
X591889D01*
Y333638D01*
X590889Y334638D01*
X587890D01*
X590889D01*
X591889Y335638D01*
X590889Y336637D01*
X587890D01*
Y338637D02*
X591889D01*
Y339636D01*
X590889Y340636D01*
X587890D01*
X590889D01*
X591889Y341636D01*
X590889Y342635D01*
X587890D01*
Y344635D02*
X589889Y346634D01*
X591889D01*
X593888Y344635D01*
X396016Y513149D02*
X395017Y512149D01*
X393017D01*
X392018Y513149D01*
Y517147D01*
X393017Y518147D01*
X395017D01*
X396016Y517147D01*
Y516148D01*
X395017Y515148D01*
X392018D01*
X386019Y518147D02*
X390018D01*
Y515148D01*
X388019Y516148D01*
X387019D01*
X386019Y515148D01*
Y513149D01*
X387019Y512149D01*
X389019D01*
X390018Y513149D01*
X376023Y512149D02*
X378022Y514148D01*
Y516148D01*
X376023Y518147D01*
X373024Y512149D02*
Y516148D01*
X372024D01*
X371024Y515148D01*
Y512149D01*
Y515148D01*
X370025Y516148D01*
X369025Y515148D01*
Y512149D01*
X367026D02*
Y516148D01*
X366026D01*
X365026Y515148D01*
Y512149D01*
Y515148D01*
X364027Y516148D01*
X363027Y515148D01*
Y512149D01*
X361028D02*
X359028Y514148D01*
Y516148D01*
X361028Y518147D01*
M02*
