*%FSLAX24Y24*%
*%MOIN*%
G01*
%ADD11C,0.0073*%
%ADD12C,0.0080*%
%ADD13C,0.0100*%
%ADD14C,0.0120*%
%ADD15C,0.0200*%
%ADD16C,0.0300*%
%ADD17C,0.0360*%
%ADD18C,0.0500*%
%ADD19C,0.0500*%
%ADD20C,0.0560*%
%ADD21C,0.0620*%
%ADD22C,0.0660*%
%ADD23C,0.0680*%
%ADD24C,0.0700*%
%ADD25C,0.1000*%
%ADD26C,0.1060*%
%ADD27C,0.1400*%
%ADD28C,0.1600*%
%ADD29C,0.2500*%
%ADD30C,0.2500*%
%ADD31R,0.0620X0.0620*%
%ADD32R,0.0680X0.0680*%
D13*
X86260Y77190D02*
X86343Y77273D01*
X86260Y77190D02*
Y77023D01*
X86343Y76940D01*
X86677D01*
X86760Y77023D01*
Y77190D01*
X86677Y77273D01*
X86260Y77523D02*
Y77690D01*
Y77523D02*
X86343Y77440D01*
X86677D01*
X86760Y77523D01*
Y77690D01*
X86677Y77773D01*
X86343D01*
X86260Y77690D01*
Y77940D02*
X86760D01*
X86260D02*
Y78190D01*
X86343Y78273D01*
X86510D01*
X86593Y78190D01*
Y77940D01*
X86343Y78440D02*
X86260D01*
X86343D02*
X86510Y78606D01*
X86343Y78773D01*
X86260D01*
X86510Y78606D02*
X86760D01*
Y78939D02*
X86260D01*
Y79189D01*
X86343Y79273D01*
X86510D01*
X86593Y79189D01*
Y78939D01*
Y79106D02*
X86760Y79273D01*
X86260Y79439D02*
Y79606D01*
Y79522D01*
X86760D01*
Y79439D01*
Y79606D01*
X86260Y80106D02*
X86343Y80189D01*
X86260Y80106D02*
Y79939D01*
X86343Y79856D01*
X86677D01*
X86760Y79939D01*
Y80106D01*
X86677Y80189D01*
X86510D01*
Y80022D01*
X86260Y80356D02*
X86760D01*
X86510D01*
Y80689D01*
X86260D01*
X86760D01*
X86260Y80855D02*
Y81189D01*
Y81022D01*
X86760D01*
X86593Y81855D02*
X86760Y82022D01*
X86593Y81855D02*
X86427D01*
X86260Y82022D01*
Y82522D02*
X86343Y82605D01*
X86260Y82522D02*
Y82355D01*
X86343Y82272D01*
X86677D01*
X86760Y82355D01*
Y82522D01*
X86677Y82605D01*
X86760Y82771D02*
X86593Y82938D01*
X86427D01*
X86260Y82771D01*
X86760Y83688D02*
Y84021D01*
Y83688D02*
X86427Y84021D01*
X86343D01*
X86260Y83938D01*
Y83771D01*
X86343Y83688D01*
Y84188D02*
X86260Y84271D01*
Y84438D01*
X86343Y84521D01*
X86677D01*
X86760Y84438D01*
Y84271D01*
X86677Y84188D01*
X86343D01*
Y84687D02*
X86260Y84771D01*
Y84937D01*
X86343Y85021D01*
X86677D01*
X86760Y84937D01*
Y84771D01*
X86677Y84687D01*
X86343D01*
Y85187D02*
X86260Y85271D01*
Y85437D01*
X86343Y85521D01*
X86427D01*
X86510Y85437D01*
X86593Y85521D01*
X86677D01*
X86760Y85437D01*
Y85271D01*
X86677Y85187D01*
X86593D01*
X86510Y85271D01*
X86427Y85187D01*
X86343D01*
X86510Y85271D02*
Y85437D01*
X86260Y86354D02*
Y86520D01*
Y86437D02*
Y86354D01*
Y86437D02*
X86677D01*
X86760Y86354D01*
Y86270D01*
X86677Y86187D01*
X86760Y86687D02*
X86427D01*
X86260Y86853D01*
X86427Y87020D01*
X86760D01*
X86510D01*
Y86687D01*
X86760Y87187D02*
X86260D01*
X86427Y87353D01*
X86260Y87520D01*
X86760D01*
X86260Y87687D02*
Y88020D01*
Y87687D02*
X86760D01*
Y88020D01*
X86510Y87853D02*
Y87687D01*
X86260Y88436D02*
X86343Y88520D01*
X86260Y88436D02*
Y88270D01*
X86343Y88186D01*
X86427D01*
X86510Y88270D01*
Y88436D01*
X86593Y88520D01*
X86677D01*
X86760Y88436D01*
Y88270D01*
X86677Y88186D01*
X86760Y89186D02*
X86260D01*
Y89436D01*
X86343Y89519D01*
X86510D01*
X86593Y89436D01*
Y89186D01*
X86760Y89686D02*
X86427D01*
X86260Y89852D01*
X86427Y90019D01*
X86760D01*
X86510D01*
Y89686D01*
X86260Y90186D02*
Y90519D01*
Y90352D01*
X86760D01*
X86260Y90935D02*
X86343Y91019D01*
X86260Y90935D02*
Y90769D01*
X86343Y90686D01*
X86677D01*
X86760Y90769D01*
Y90935D01*
X86677Y91019D01*
X86760Y91185D02*
X86260D01*
X86510D02*
X86760D01*
X86510D02*
Y91519D01*
X86260D01*
X86760D01*
X86260Y91685D02*
Y92018D01*
Y91685D02*
X86760D01*
Y92018D01*
X86510Y91852D02*
Y91685D01*
X86260Y92185D02*
X86760D01*
Y92518D01*
Y92685D02*
X86260D01*
X86760D02*
Y93018D01*
X86010Y82857D02*
Y82690D01*
Y82773D02*
Y82857D01*
Y82773D02*
X85510D01*
X85511D01*
X85510D02*
X85593Y82690D01*
Y83107D02*
X85510Y83190D01*
Y83356D01*
X85593Y83440D01*
X85927D01*
X86010Y83356D01*
Y83190D01*
X85927Y83107D01*
X85593D01*
Y83606D02*
X85510Y83690D01*
Y83856D01*
X85593Y83940D01*
X85927D01*
X86010Y83856D01*
Y83690D01*
X85927Y83606D01*
X85593D01*
X85760Y84106D02*
Y84439D01*
X86010Y84606D02*
Y84773D01*
Y84689D01*
X85510D01*
X85511D01*
X85510D02*
X85593Y84606D01*
Y85023D02*
X85510Y85106D01*
Y85272D01*
X85593Y85356D01*
X85927D01*
X86010Y85272D01*
Y85106D01*
X85927Y85023D01*
X85593D01*
X85510Y85522D02*
Y85856D01*
Y85522D02*
X85760D01*
X85677Y85689D01*
Y85772D01*
X85760Y85856D01*
X85927D01*
X86010Y85772D01*
Y85606D01*
X85927Y85522D01*
X85593Y86189D02*
X85510Y86355D01*
X85593Y86189D02*
X85760Y86022D01*
X85927D01*
X86010Y86106D01*
Y86272D01*
X85927Y86355D01*
X85843D01*
X85760Y86272D01*
Y86022D01*
X86010Y87022D02*
X85510D01*
Y87272D01*
X85593Y87355D01*
X85760D01*
X85843Y87272D01*
Y87022D01*
Y87189D02*
X86010Y87355D01*
X85510Y87522D02*
Y87855D01*
Y87522D02*
X86010D01*
Y87855D01*
X85760Y87688D02*
Y87522D01*
X85843Y88022D02*
X85510D01*
X85843D02*
X86010Y88188D01*
X85843Y88355D01*
X85510D01*
X85677Y89021D02*
X86010D01*
X85677D02*
X85510Y89188D01*
X85677Y89355D01*
X86010D01*
X85760D01*
Y89021D01*
X75843Y97690D02*
X75510D01*
X75677D02*
X75843D01*
X75677D02*
Y98690D01*
X75678D01*
X75677D02*
X75510Y98523D01*
X76343D02*
X76510Y98690D01*
X76843D01*
X77010Y98523D01*
Y97857D01*
X76843Y97690D01*
X76510D01*
X76343Y97857D01*
Y98523D01*
X77343D02*
X77509Y98690D01*
X77843D01*
X78009Y98523D01*
Y97857D01*
X77843Y97690D01*
X77509D01*
X77343Y97857D01*
Y98523D01*
X78342Y98190D02*
X79009D01*
X79342Y97690D02*
X79675D01*
X79509D01*
Y98690D01*
X79510D01*
X79509D02*
X79342Y98523D01*
X80175D02*
X80342Y98690D01*
X80675D01*
X80842Y98523D01*
Y97857D01*
X80675Y97690D01*
X80342D01*
X80175Y97857D01*
Y98523D01*
X81175Y98690D02*
X81841D01*
X81175D02*
Y98190D01*
X81508Y98356D01*
X81675D01*
X81841Y98190D01*
Y97857D01*
X81675Y97690D01*
X81341D01*
X81175Y97857D01*
X82508Y98523D02*
X82841Y98690D01*
X82508Y98523D02*
X82175Y98190D01*
Y97857D01*
X82341Y97690D01*
X82674D01*
X82841Y97857D01*
Y98023D01*
X82674Y98190D01*
X82175D01*
X83174D02*
X83841D01*
X84174Y98523D02*
X84340Y98690D01*
X84674D01*
X84840Y98523D01*
Y97857D01*
X84674Y97690D01*
X84340D01*
X84174Y97857D01*
Y98523D01*
X85174Y97690D02*
X85840D01*
X85174D02*
X85840Y98356D01*
Y98523D01*
X85673Y98690D01*
X85340D01*
X85174Y98523D01*
X87173Y98690D02*
Y97690D01*
Y98690D02*
X87673D01*
X87839Y98523D01*
Y98190D01*
X87673Y98023D01*
X87173D01*
X87506D02*
X87839Y97690D01*
X88173Y98690D02*
X88839D01*
X88173D02*
Y97690D01*
X88839D01*
X88506Y98190D02*
X88173D01*
X89172Y98023D02*
Y98690D01*
Y98023D02*
X89505Y97690D01*
X89839Y98023D01*
Y98690D01*
X91172Y98356D02*
Y97690D01*
Y98356D02*
X91505Y98690D01*
X91838Y98356D01*
Y97690D01*
Y98190D01*
X91172D01*
X93671Y98690D02*
X93837Y98523D01*
X93671Y98690D02*
X93338D01*
X93171Y98523D01*
Y97857D01*
X93338Y97690D01*
X93671D01*
X93837Y97857D01*
X94337Y98690D02*
X94670D01*
X94337D02*
X94171Y98523D01*
Y97857D01*
X94337Y97690D01*
X94670D01*
X94837Y97857D01*
Y98523D01*
X94670Y98690D01*
X95170D02*
Y97690D01*
X95504Y98356D02*
X95170Y98690D01*
X95504Y98356D02*
X95837Y98690D01*
Y97690D01*
X96170D02*
Y98690D01*
X96670D01*
X96836Y98523D01*
Y98190D01*
X96670Y98023D01*
X96170D01*
X97336Y98690D02*
X97670D01*
X97336D02*
X97170Y98523D01*
Y97857D01*
X97336Y97690D01*
X97670D01*
X97836Y97857D01*
Y98523D01*
X97670Y98690D01*
X98169D02*
Y97690D01*
X98836D02*
X98169Y98690D01*
X98836D02*
Y97690D01*
X99169Y98690D02*
X99835D01*
X99169D02*
Y97690D01*
X99835D01*
X99502Y98190D02*
X99169D01*
X100169Y97690D02*
Y98690D01*
X100835Y97690D01*
Y98690D01*
X101168D02*
X101835D01*
X101502D01*
Y97690D01*
X103668Y98690D02*
X103834Y98523D01*
X103668Y98690D02*
X103334D01*
X103168Y98523D01*
Y98356D01*
X103334Y98190D01*
X103668D01*
X103834Y98023D01*
Y97857D01*
X103668Y97690D01*
X103334D01*
X103168Y97857D01*
X104167Y98690D02*
X104501D01*
X104334D01*
Y97690D01*
X104167D01*
X104501D01*
X105000D02*
Y98690D01*
Y97690D02*
X105500D01*
X105667Y97857D01*
Y98523D01*
X105500Y98690D01*
X105000D01*
X106000D02*
X106667D01*
X106000D02*
Y97690D01*
X106667D01*
X106333Y98190D02*
X106000D01*
X106010Y95440D02*
X76010D01*
Y59440D02*
X106010D01*
X76010D02*
Y95440D01*
X106010D02*
Y59440D01*
D14*
X98010Y67940D02*
X96510Y66440D01*
X98510Y76940D02*
X100010Y78440D01*
X98510Y67440D02*
X96510Y65440D01*
X99010Y76440D02*
X100510Y77940D01*
X99010Y66940D02*
X96510Y64440D01*
X91510Y75940D02*
X94010Y78440D01*
X95010Y64940D02*
X96510Y63440D01*
Y62440D02*
X94510Y64440D01*
X77510Y66940D02*
Y67940D01*
Y68940D01*
X79510Y71940D02*
Y73940D01*
X78510Y68940D02*
Y65940D01*
X79510Y73940D02*
X80510Y74940D01*
X78510Y65940D02*
X78010Y65440D01*
X80510Y74940D02*
Y77940D01*
X81510Y66940D02*
X82010Y66440D01*
X83510Y68940D02*
Y70440D01*
X82010Y66440D02*
Y65440D01*
X83510Y70440D02*
X84010Y70940D01*
X85510Y67940D02*
X86010D01*
X84010Y70940D02*
Y81440D01*
X86510Y66440D02*
X85510Y65440D01*
X86510Y66440D02*
Y67440D01*
X86010Y67940D01*
X89510Y66940D02*
Y65440D01*
X91510Y75440D02*
Y75940D01*
X95010Y78440D02*
X95510D01*
X95010Y76940D02*
Y64940D01*
X94510Y64440D02*
Y76440D01*
X94010Y76940D01*
X97010Y80440D02*
Y68940D01*
X96510Y75940D02*
Y77440D01*
X97010Y68940D02*
X96510Y68440D01*
Y67440D02*
X97510Y68440D01*
X96510Y77440D02*
X95510Y78440D01*
X98010Y79440D02*
Y79940D01*
X97510Y78940D02*
Y68440D01*
X99010Y78940D02*
Y79440D01*
X98010Y77940D02*
Y67940D01*
X98510Y67440D02*
Y76940D01*
X99010Y76440D02*
Y66940D01*
X97510Y78940D02*
X98010Y79440D01*
X99010Y78940D02*
X98010Y77940D01*
X100010Y78440D02*
Y78940D01*
D16*
X85010Y79190D02*
X84510Y78690D01*
X85010Y92440D02*
X84010Y93440D01*
X85010Y92440D02*
Y79190D01*
X84510Y78690D02*
Y77940D01*
X84010Y93440D02*
X78510D01*
D19*
X97760Y88440D02*
X98260Y88940D01*
X83510Y71190D02*
X82760Y70440D01*
X76510Y93940D02*
X77010Y94440D01*
X88760D02*
X90260Y92940D01*
Y89440D02*
X91260Y88440D01*
X82760Y68190D02*
X84010Y66940D01*
X77510Y72690D02*
X76510Y73690D01*
Y93940D01*
X77510Y72690D02*
Y71940D01*
X84010Y66940D02*
X85510D01*
X82760Y68190D02*
Y70440D01*
X83510Y71190D02*
Y71940D01*
X90260Y89440D02*
Y92940D01*
X91260Y88440D02*
X97760D01*
X98260Y88940D02*
X103510D01*
X88760Y94440D02*
X78510D01*
X77510D02*
X77010D01*
D21*
X100510Y77940D02*
D03*
X100010Y78940D02*
D03*
X99010Y79440D02*
D03*
X98010Y79940D02*
D03*
X97010Y80440D02*
D03*
X94010Y76940D02*
D03*
X95010D02*
D03*
X84010Y81440D02*
D03*
X104510Y80440D02*
D03*
X103510D02*
D03*
X104510Y81440D02*
D03*
X103510D02*
D03*
X104510Y82440D02*
D03*
X103510D02*
D03*
X104510Y83440D02*
D03*
X103510D02*
D03*
X104510Y84440D02*
D03*
Y88940D02*
D03*
X103510D02*
D03*
X104510Y89940D02*
D03*
X103510D02*
D03*
X104510Y90940D02*
D03*
X103510D02*
D03*
X104510Y91940D02*
D03*
X103510D02*
D03*
X104510Y92940D02*
D03*
Y63440D02*
D03*
X103510D02*
D03*
X104510Y64440D02*
D03*
X103510D02*
D03*
X104510Y65440D02*
D03*
X103510D02*
D03*
X104510Y66440D02*
D03*
X103510D02*
D03*
X104510Y67440D02*
D03*
Y71940D02*
D03*
X103510D02*
D03*
X104510Y72940D02*
D03*
X103510D02*
D03*
X104510Y73940D02*
D03*
X103510D02*
D03*
X104510Y74940D02*
D03*
X103510D02*
D03*
X104510Y75940D02*
D03*
X95010Y83940D02*
D03*
X91010D02*
D03*
X95010Y82940D02*
D03*
X91010D02*
D03*
X95010Y81940D02*
D03*
X91010D02*
D03*
X95010Y80940D02*
D03*
X91010D02*
D03*
X96010Y92440D02*
D03*
X92010D02*
D03*
X96010Y90440D02*
D03*
X92010D02*
D03*
X96010Y89440D02*
D03*
X92010D02*
D03*
X101010Y92940D02*
D03*
X97010D02*
D03*
X101010Y82440D02*
D03*
X97010D02*
D03*
X101010Y83440D02*
D03*
X97010D02*
D03*
X101010Y84440D02*
D03*
X97010D02*
D03*
X101010Y81440D02*
D03*
X97010D02*
D03*
X101010Y91940D02*
D03*
X97010D02*
D03*
X101010Y90940D02*
D03*
X97010D02*
D03*
X101010Y89940D02*
D03*
X97010D02*
D03*
X96010Y91440D02*
D03*
X92010D02*
D03*
X82010Y68940D02*
D03*
Y71940D02*
D03*
X84510Y68940D02*
D03*
X86510D02*
D03*
X87510D02*
D03*
X88510D02*
D03*
X89510D02*
D03*
Y71940D02*
D03*
X88510D02*
D03*
X87510D02*
D03*
X86510D02*
D03*
X85510D02*
D03*
X84510D02*
D03*
X83510D02*
D03*
X85510Y68940D02*
D03*
X89510Y67940D02*
D03*
X85510D02*
D03*
Y66940D02*
D03*
X89510D02*
D03*
X95510Y75440D02*
D03*
X91510D02*
D03*
X95510Y74440D02*
D03*
X91510D02*
D03*
X95510Y73440D02*
D03*
X91510D02*
D03*
X95510Y72440D02*
D03*
X91510D02*
D03*
X100510Y68440D02*
D03*
X96510D02*
D03*
X100510Y67440D02*
D03*
X96510D02*
D03*
X100510Y72940D02*
D03*
X96510D02*
D03*
X100510Y73940D02*
D03*
X96510D02*
D03*
X100510Y74940D02*
D03*
X96510D02*
D03*
X100510Y75940D02*
D03*
X96510D02*
D03*
X100510Y65440D02*
D03*
X96510D02*
D03*
X100510Y66440D02*
D03*
X96510D02*
D03*
X95010Y78440D02*
D03*
X94010D02*
D03*
X100510Y64440D02*
D03*
X96510D02*
D03*
X100510Y63440D02*
D03*
X96510D02*
D03*
X100510Y62440D02*
D03*
X96510D02*
D03*
X77510Y75440D02*
D03*
X78510D02*
D03*
X77510Y76440D02*
D03*
X78510D02*
D03*
X77510Y77440D02*
D03*
X78510D02*
D03*
X77510Y78440D02*
D03*
X78510D02*
D03*
X77510Y79440D02*
D03*
X78510D02*
D03*
X77510Y80440D02*
D03*
X78510D02*
D03*
X77510Y81440D02*
D03*
X78510D02*
D03*
X77510Y82440D02*
D03*
X78510D02*
D03*
X77510Y83440D02*
D03*
X78510D02*
D03*
X77510Y84440D02*
D03*
X78510D02*
D03*
X77510Y85440D02*
D03*
X78510D02*
D03*
X77510Y86440D02*
D03*
X78510D02*
D03*
X77510Y87440D02*
D03*
X78510D02*
D03*
X77510Y88440D02*
D03*
X78510D02*
D03*
X77510Y89440D02*
D03*
X78510D02*
D03*
X77510Y90440D02*
D03*
X78510D02*
D03*
X77510Y91440D02*
D03*
X78510D02*
D03*
X77510Y92440D02*
D03*
X78510D02*
D03*
X77510Y93440D02*
D03*
X78510D02*
D03*
X77510Y94440D02*
D03*
X84510Y77940D02*
D03*
X80510D02*
D03*
X77510Y66940D02*
D03*
X81510D02*
D03*
Y67940D02*
D03*
X77510D02*
D03*
X79510Y68940D02*
D03*
Y71940D02*
D03*
X78510D02*
D03*
X77510D02*
D03*
X78510Y68940D02*
D03*
D25*
X87510Y64440D02*
D03*
X85510Y65440D02*
D03*
X89510D02*
D03*
X90510Y64440D02*
D03*
X84510D02*
D03*
X88510Y60440D02*
D03*
X86510D02*
D03*
X80010Y64440D02*
D03*
X78010Y65440D02*
D03*
X82010D02*
D03*
X83010Y64440D02*
D03*
X77010D02*
D03*
X81010Y60440D02*
D03*
X79010D02*
D03*
D29*
X94010Y93940D02*
D03*
Y60940D02*
D03*
D31*
X103510Y84440D02*
D03*
Y92940D02*
D03*
Y67440D02*
D03*
Y75940D02*
D03*
X83510Y68940D02*
D03*
X78510Y94440D02*
D03*
X77510Y68940D02*
D03*
M02*
