%FSLAX25Y25*%
%MOIN*%
G70*
G01*
G75*
G04 Layer_Physical_Order=1*
G04 Layer_Color=255*
%ADD10C,0.03937*%
%ADD11C,0.01969*%
%ADD12C,0.01000*%
%ADD13C,0.00600*%
%ADD14R,0.71600X0.39300*%
%ADD15C,0.07874*%
%ADD16O,0.03937X0.09843*%
%ADD17O,0.12000X0.08000*%
%ADD18C,0.19685*%
%ADD19C,0.11811*%
%ADD20R,0.13780X0.07874*%
%ADD21O,0.13780X0.07874*%
%ADD22O,0.07874X0.13780*%
%ADD23R,0.07874X0.13780*%
%ADD24O,0.13780X0.09000*%
%ADD25R,0.13780X0.09000*%
%ADD26C,0.15748*%
%ADD27R,0.06299X0.06299*%
%ADD28O,0.15748X0.06299*%
%ADD29C,0.06299*%
%ADD30R,0.11811X0.06693*%
%ADD31O,0.11811X0.06693*%
%ADD32R,0.09000X0.09000*%
%ADD33O,0.09000X0.13780*%
%ADD34C,0.09843*%
%ADD35R,0.09843X0.09843*%
%ADD36R,0.07874X0.07874*%
D10*
X495735Y433858D02*
X464632D01*
X463845Y433071D01*
X231955Y442520D02*
X192585D01*
X414632Y271654D02*
Y423228D01*
X465813Y259842D02*
Y332677D01*
X491404Y407480D02*
X465813D01*
D11*
X404790Y327559D02*
Y415748D01*
X405183Y416142D02*
X404790Y415748D01*
X447019Y391653D02*
X424475D01*
X512979D02*
X464431D01*
X515026Y393701D02*
X512979Y391653D01*
X515026Y373701D02*
X512979Y371654D01*
X448819Y345998D02*
X424475Y321654D01*
X515026Y363701D02*
X466522D01*
X464431Y391653D02*
X463614Y392470D01*
Y393699D01*
X460722Y396590D01*
X450727D01*
X447835Y393699D01*
Y392470D02*
Y393699D01*
Y392470D02*
X447019Y391653D01*
X515026Y383701D02*
X465282D01*
X429412Y386591D02*
X424475Y381653D01*
X462392Y386591D02*
X429412D01*
X465282Y383701D02*
X462392Y386591D01*
X512979Y371654D02*
X464431D01*
X447019D02*
X424475D01*
X466522Y363701D02*
X463614Y360793D01*
Y359609D02*
Y360793D01*
Y359609D02*
X460722Y356716D01*
X447835Y349609D02*
Y353698D01*
X448819Y348624D02*
X447835Y349609D01*
X448819Y345998D02*
Y348624D01*
X460722Y356716D02*
X450853D01*
X447835Y353698D01*
X464431Y371654D02*
X463614Y372470D01*
Y373698D01*
X460722Y376590D01*
X450727D01*
X447835Y373698D01*
Y372470D02*
Y373698D01*
Y372470D02*
X447019Y371654D01*
D12*
X82955Y488189D02*
X80955D01*
X82955Y98425D02*
X80955D01*
X81955Y488189D02*
X79955Y482189D01*
X83955D02*
X81955Y488189D01*
Y98425D02*
X79955Y104425D01*
X83955D02*
X81955Y98425D01*
Y313401D02*
Y488189D01*
Y98425D02*
Y273213D01*
D13*
X79356Y274213D02*
X78356Y275213D01*
Y277212D01*
X79356Y278212D01*
X83354D01*
X84354Y277212D01*
Y275213D01*
X83354Y274213D01*
X82355D01*
X81355Y275213D01*
Y278212D01*
X79356Y280211D02*
X78356Y281211D01*
Y283210D01*
X79356Y284210D01*
X83354D01*
X84354Y283210D01*
Y281211D01*
X83354Y280211D01*
X82355D01*
X81355Y281211D01*
Y284210D01*
X78356Y294207D02*
X80355Y292207D01*
X82355D01*
X84354Y294207D01*
X78356Y297206D02*
X82355D01*
Y298205D01*
X81355Y299205D01*
X78356D01*
X81355D01*
X82355Y300205D01*
X81355Y301204D01*
X78356D01*
Y303204D02*
X82355D01*
Y304203D01*
X81355Y305203D01*
X78356D01*
X81355D01*
X82355Y306203D01*
X81355Y307202D01*
X78356D01*
Y309202D02*
X80355Y311201D01*
X82355D01*
X84354Y309202D01*
D14*
X402383Y456743D02*
D03*
D15*
X323923Y370079D02*
D03*
X333924D02*
D03*
X255380Y408464D02*
D03*
Y396654D02*
D03*
X396522Y353937D02*
D03*
Y384646D02*
D03*
X493766Y205906D02*
D03*
Y236614D02*
D03*
X478018Y252756D02*
D03*
Y283465D02*
D03*
X493372Y252756D02*
D03*
Y283465D02*
D03*
X232742Y363386D02*
D03*
X263451D02*
D03*
X138254Y220079D02*
D03*
Y250787D02*
D03*
X165419Y303150D02*
D03*
X196128D02*
D03*
X233136Y344488D02*
D03*
X263845D02*
D03*
X165419Y326772D02*
D03*
X196128D02*
D03*
X236286Y114173D02*
D03*
X266994D02*
D03*
X226837Y186614D02*
D03*
X257545D02*
D03*
X226837Y278346D02*
D03*
X257545D02*
D03*
X346128Y386221D02*
D03*
X315420D02*
D03*
X247014Y443210D02*
D03*
Y462894D02*
D03*
X471424Y331989D02*
D03*
Y351674D02*
D03*
X258924Y330905D02*
D03*
Y319094D02*
D03*
Y236417D02*
D03*
Y224606D02*
D03*
X491207Y330512D02*
D03*
X503018D02*
D03*
X258924Y145866D02*
D03*
Y134055D02*
D03*
X132939Y299016D02*
D03*
X144750D02*
D03*
X267191Y452559D02*
D03*
Y464370D02*
D03*
X317073Y185945D02*
D03*
Y160354D02*
D03*
X334790D02*
D03*
Y185945D02*
D03*
X346522Y395669D02*
D03*
X377231D02*
D03*
X191286Y463583D02*
D03*
X303412Y450690D02*
D03*
Y470375D02*
D03*
X325262Y452559D02*
D03*
Y464370D02*
D03*
X495735Y433858D02*
D03*
X404790Y327559D02*
D03*
X405183Y416142D02*
D03*
X192585Y442520D02*
D03*
X231561Y442913D02*
D03*
X414632Y423228D02*
D03*
Y271654D02*
D03*
X465813Y259842D02*
D03*
Y332677D02*
D03*
X491404Y407480D02*
D03*
X465813D02*
D03*
X463845Y433071D02*
D03*
D16*
X159632Y240158D02*
D03*
X164632Y245512D02*
D03*
X169632Y240158D02*
D03*
X209002Y244094D02*
D03*
X204002Y238740D02*
D03*
X199002Y244094D02*
D03*
X159632Y271654D02*
D03*
X164632Y277008D02*
D03*
X169632Y271654D02*
D03*
X209002Y275590D02*
D03*
X204002Y270236D02*
D03*
X199002Y275590D02*
D03*
D17*
X289986Y220971D02*
D03*
X329986Y210971D02*
D03*
Y230971D02*
D03*
X289986Y318084D02*
D03*
X329986Y308084D02*
D03*
Y328084D02*
D03*
X289986Y415197D02*
D03*
X329986Y405197D02*
D03*
Y425197D02*
D03*
X289986Y123858D02*
D03*
X329986Y113858D02*
D03*
Y133858D02*
D03*
D18*
X133136Y181496D02*
D03*
X184711Y385039D02*
D03*
X432349Y222047D02*
D03*
X185498Y127953D02*
D03*
D19*
X367388Y419291D02*
D03*
X509120D02*
D03*
Y120079D02*
D03*
X367388D02*
D03*
D20*
X129199Y118110D02*
D03*
Y389764D02*
D03*
Y330709D02*
D03*
D21*
Y137795D02*
D03*
Y409449D02*
D03*
Y350394D02*
D03*
D22*
X164569Y452756D02*
D03*
X144884D02*
D03*
D23*
X125199D02*
D03*
D24*
X515026Y393701D02*
D03*
Y383701D02*
D03*
Y373701D02*
D03*
Y363701D02*
D03*
Y353701D02*
D03*
Y343701D02*
D03*
Y333701D02*
D03*
Y323701D02*
D03*
Y313701D02*
D03*
Y303701D02*
D03*
Y293701D02*
D03*
Y283701D02*
D03*
Y273701D02*
D03*
Y253701D02*
D03*
Y243701D02*
D03*
D25*
Y263701D02*
D03*
D26*
X427082Y456793D02*
D03*
D27*
X361483Y446693D02*
D03*
D28*
Y456693D02*
D03*
D29*
Y466693D02*
D03*
D30*
X424475Y271654D02*
D03*
D31*
Y281653D02*
D03*
Y291653D02*
D03*
Y301654D02*
D03*
Y311653D02*
D03*
Y321654D02*
D03*
Y331653D02*
D03*
Y341653D02*
D03*
Y351654D02*
D03*
Y361653D02*
D03*
Y371654D02*
D03*
Y381653D02*
D03*
Y391653D02*
D03*
Y401653D02*
D03*
X455725Y271654D02*
D03*
Y281653D02*
D03*
Y291653D02*
D03*
Y301654D02*
D03*
Y311653D02*
D03*
Y321654D02*
D03*
Y331653D02*
D03*
Y341653D02*
D03*
Y351654D02*
D03*
Y361653D02*
D03*
Y371654D02*
D03*
Y381653D02*
D03*
Y391653D02*
D03*
Y401653D02*
D03*
D32*
X520026Y463622D02*
D03*
D33*
X510026D02*
D03*
X500026D02*
D03*
X490026D02*
D03*
X480026D02*
D03*
X470026D02*
D03*
D34*
X206758Y206102D02*
D03*
X185301D02*
D03*
D35*
X163845D02*
D03*
D36*
X232467Y463583D02*
D03*
M02*
