M48
;Layer_Color=9474304
;FILE_FORMAT=2:5
INCH,LZ
;TYPE=PLATED
T1F00S00C0.02756
T2F00S00C0.02800
T3F00S00C0.03000
T4F00S00C0.03150
T5F00S00C0.03500
T6F00S00C0.04000
T7F00S00C0.04500
T8F00S00C0.04724
T9F00S00C0.11811
T10F00S00C0.15748
%
T01
X0362205Y0114173
X0392913
X0490945Y0220079
Y0250787
X0463779Y030315
X0433071
X0402362Y0278346
X0371654
Y0186614
X0402362
X0135433Y0205906
Y0236614
X0135827Y0252756
X0151181
Y0283465
X0135827
X0232677Y0353937
Y0384646
X0251969Y0395669
X0282677
X0283071Y0386221
X0313779
X0365748Y0363386
X0365354Y0344488
X0396063
X0396457Y0363386
X0433071Y0326772
X0463779
T02
X0163386Y0259842
X0214567Y0271654
X0137795Y040748
X0133465Y0433858
X0165354Y0433071
X0163386Y040748
X0214567Y0423228
X0224016Y0416142
X022441Y0327559
X0163386Y0332677
X0397638Y0442913
X0436614Y044252
T03
X0370276Y0134055
Y0145866
X0484449Y0299016
X049626
X0370276Y0236417
Y0224606
X0312126Y0185945
X0294409
Y0160354
X0312126
X0137992Y0330512
X0126181
X0157775Y0331989
Y0351674
X0303937Y0452559
Y046437
X0325787Y045069
X0362008Y0452559
Y046437
X0382185Y0462894
Y044321
X0373819Y0408464
Y0396654
X0370276Y0330905
Y0319094
X0325787Y0470375
T04
X0469567Y0240158
Y0271654
X0459567
X0464567Y0277008
Y0245512
X0459567Y0240158
X0430197Y0244094
X0420197
X0425197Y023874
Y0270236
X0420197Y027559
X0430197
X0204724Y0271654
Y0281653
Y0291653
Y0301654
Y0311653
X0173474
Y0301654
Y0291653
Y0281653
Y0271654
Y0321654
Y0331653
Y0341653
Y0351654
Y0361653
Y0371654
Y0381653
Y0391653
Y0401653
X0204724
Y0391653
Y0381653
Y0371654
Y0361653
Y0351654
Y0341653
Y0331653
Y0321654
T05
X0295276Y0370079
X0305276
T06
X0114173Y0243701
Y0253701
Y0263701
Y0273701
Y0283701
Y0293701
Y0303701
Y0313701
Y0323701
Y0333701
Y0343701
Y0353701
Y0363701
Y0373701
Y0383701
Y0393701
X0109173Y0463622
X0119173
X0129173
X0139173
X0149173
X0159173
T07
X0299213Y0113858
Y0133858
X0339213Y0123858
Y0220971
X0299213Y0210971
Y0230971
Y0308084
Y0328084
Y0405197
Y0425197
X0339213Y0415197
Y0318084
T08
X05Y011811
Y0137795
X0465354Y0206102
X0443898
X0422441
X0267717Y0446693
Y0456693
Y0466693
X0396732Y0463583
X0437913
X046463Y0452756
X0484315
X0504
X05Y0409449
Y0389764
Y0350394
Y0330709
T09
X0120079Y0120079
X0261811
X0443701Y0127953
X0496063Y0181496
X019685Y0222047
X0120079Y0419291
X0261811
X0444488Y0385039
T10
X0202116Y0456793
M30
