%FSLAX25Y25*%
%MOIN*%
G70*
G01*
G75*
G04 Layer_Color=16711935*
%ADD10C,0.03937*%
%ADD11C,0.01969*%
%ADD12C,0.01000*%
%ADD13C,0.00600*%
%ADD14R,0.71600X0.39300*%
%ADD15C,0.07874*%
%ADD16O,0.03937X0.09843*%
%ADD17O,0.12000X0.08000*%
%ADD18C,0.19685*%
%ADD19C,0.11811*%
%ADD20R,0.13780X0.07874*%
%ADD21O,0.13780X0.07874*%
%ADD22O,0.07874X0.13780*%
%ADD23R,0.07874X0.13780*%
%ADD24O,0.13780X0.09000*%
%ADD25R,0.13780X0.09000*%
%ADD26C,0.15748*%
%ADD27R,0.06299X0.06299*%
%ADD28O,0.15748X0.06299*%
%ADD29C,0.06299*%
%ADD30R,0.11811X0.06693*%
%ADD31O,0.11811X0.06693*%
%ADD32R,0.09000X0.09000*%
%ADD33O,0.09000X0.13780*%
%ADD34C,0.09843*%
%ADD35R,0.09843X0.09843*%
%ADD36R,0.07874X0.07874*%
%ADD37C,0.05000*%
%ADD38C,0.07874*%
%ADD39R,0.05906X0.15748*%
%ADD40R,0.09843X0.15748*%
%ADD41R,0.04843X0.15748*%
%ADD42R,0.03937X0.15748*%
%ADD43R,0.16500X0.42717*%
%ADD44R,0.12992X0.36319*%
%ADD45R,0.17126X0.19390*%
%ADD46R,0.25098X0.19882*%
%ADD47R,0.31004X0.11614*%
%ADD48R,0.21654X0.12795*%
%ADD49R,0.34547X0.18898*%
%ADD50R,0.15650X0.24902*%
%ADD51R,0.15650X0.15453*%
%ADD52R,0.16043X0.15157*%
%ADD53R,0.19095X0.15650*%
%ADD54C,0.00787*%
%ADD55C,0.00500*%
%ADD56C,0.01575*%
%ADD57C,0.00591*%
%ADD58R,0.02756X0.09547*%
%ADD59R,0.08000X0.08000*%
%ADD60R,0.02732X0.10630*%
%ADD61R,0.10000X0.03000*%
%ADD62R,0.10728X0.02925*%
%ADD63R,0.01575X0.08740*%
%ADD64R,0.01535X0.06890*%
%ADD65R,0.10000X0.01457*%
%ADD66R,0.03150X0.11024*%
%ADD67C,0.08674*%
%ADD68O,0.04737X0.10642*%
%ADD69O,0.12800X0.08800*%
%ADD70C,0.20485*%
%ADD71C,0.12611*%
%ADD72R,0.14579X0.08674*%
%ADD73O,0.14579X0.08674*%
%ADD74O,0.08674X0.14579*%
%ADD75R,0.08674X0.14579*%
%ADD76O,0.14579X0.09800*%
%ADD77R,0.14579X0.09800*%
%ADD78C,0.16548*%
%ADD79R,0.07099X0.07099*%
%ADD80O,0.16548X0.07099*%
%ADD81C,0.07099*%
%ADD82R,0.12611X0.07493*%
%ADD83O,0.12611X0.07493*%
%ADD84R,0.09800X0.09800*%
%ADD85O,0.09800X0.14579*%
%ADD86C,0.10642*%
%ADD87R,0.10642X0.10642*%
%ADD88R,0.08674X0.08674*%
D12*
X540223Y488189D02*
X530774D01*
X540616Y487795D02*
X540223Y488189D01*
X540616Y472441D02*
Y487795D01*
Y98425D02*
Y472441D01*
X530774Y488189D02*
X109514D01*
Y98425D02*
Y488189D01*
X540616Y98425D02*
X109514D01*
Y504906D02*
Y506906D01*
X540616Y504906D02*
Y506906D01*
X115514Y503905D02*
X109514Y505905D01*
X115514Y507905D02*
X109514Y505905D01*
X540616D02*
X534616Y503905D01*
X540616Y505905D02*
X534616Y507905D01*
X296974Y505905D02*
X109514D01*
X540616D02*
X353157D01*
D13*
X352157Y502307D02*
X350157D01*
X351157D01*
Y508305D01*
X352157Y507305D01*
X347158D02*
X346159Y508305D01*
X344159D01*
X343160Y507305D01*
Y503306D01*
X344159Y502307D01*
X346159D01*
X347158Y503306D01*
Y507305D01*
X341160Y503306D02*
X340160Y502307D01*
X338161D01*
X337161Y503306D01*
Y507305D01*
X338161Y508305D01*
X340160D01*
X341160Y507305D01*
Y506305D01*
X340160Y505305D01*
X337161D01*
X335162Y502307D02*
Y503306D01*
X334162D01*
Y502307D01*
X335162D01*
X326165Y508305D02*
X330164D01*
Y505305D01*
X328164Y506305D01*
X327165D01*
X326165Y505305D01*
Y503306D01*
X327165Y502307D01*
X329164D01*
X330164Y503306D01*
X316168Y502307D02*
X318168Y504306D01*
Y506305D01*
X316168Y508305D01*
X313169Y502307D02*
Y506305D01*
X312170D01*
X311170Y505305D01*
Y502307D01*
Y505305D01*
X310170Y506305D01*
X309171Y505305D01*
Y502307D01*
X307171D02*
Y506305D01*
X306171D01*
X305172Y505305D01*
Y502307D01*
Y505305D01*
X304172Y506305D01*
X303172Y505305D01*
Y502307D01*
X301173D02*
X299174Y504306D01*
Y506305D01*
X301173Y508305D01*
M02*
