%FSLAX25Y25*%
%MOIN*%
G70*
G01*
G75*
%ADD10C,0.03937*%
%ADD11C,0.01969*%
%ADD12C,0.01000*%
%ADD13C,0.00600*%
%ADD14R,0.71600X0.39300*%
%ADD15C,0.07874*%
%ADD16O,0.03937X0.09843*%
%ADD17O,0.12000X0.08000*%
%ADD18C,0.19685*%
%ADD19C,0.11811*%
%ADD20R,0.13780X0.07874*%
%ADD21O,0.13780X0.07874*%
%ADD22O,0.07874X0.13780*%
%ADD23R,0.07874X0.13780*%
%ADD24O,0.13780X0.09000*%
%ADD25R,0.13780X0.09000*%
%ADD26C,0.15748*%
%ADD27R,0.06299X0.06299*%
%ADD28O,0.15748X0.06299*%
%ADD29C,0.06299*%
%ADD30R,0.11811X0.06693*%
%ADD31O,0.11811X0.06693*%
%ADD32R,0.09000X0.09000*%
%ADD33O,0.09000X0.13780*%
%ADD34C,0.09843*%
%ADD35R,0.09843X0.09843*%
%ADD36R,0.07874X0.07874*%
%ADD37C,0.05000*%
%ADD38C,0.07874*%
%ADD39R,0.05906X0.15748*%
%ADD40R,0.09843X0.15748*%
%ADD41R,0.04843X0.15748*%
%ADD42R,0.03937X0.15748*%
%ADD43R,0.16500X0.42717*%
%ADD44R,0.12992X0.36319*%
%ADD45R,0.17126X0.19390*%
%ADD46R,0.25098X0.19882*%
%ADD47R,0.31004X0.11614*%
%ADD48R,0.21654X0.12795*%
%ADD49R,0.34547X0.18898*%
%ADD50R,0.15650X0.24902*%
%ADD51R,0.15650X0.15453*%
%ADD52R,0.16043X0.15157*%
%ADD53R,0.19095X0.15650*%
%ADD54C,0.00787*%
%ADD55C,0.00500*%
%ADD56C,0.01575*%
%ADD57C,0.00591*%
%ADD58R,0.02756X0.09547*%
%ADD59R,0.08000X0.08000*%
%ADD60R,0.02732X0.10630*%
%ADD61R,0.10000X0.03000*%
%ADD62R,0.10728X0.02925*%
%ADD63R,0.01575X0.08740*%
%ADD64R,0.01535X0.06890*%
%ADD65R,0.10000X0.01457*%
%ADD66R,0.03150X0.11024*%
D12*
X337238Y374628D02*
G03*
X337227Y365420I-7803J-4595D01*
G01*
X244300Y402559D02*
G03*
X244300Y402559I11081J0D01*
G01*
X296680Y220971D02*
G03*
X296680Y220971I12806J0D01*
G01*
Y318084D02*
G03*
X296680Y318084I12806J0D01*
G01*
Y415197D02*
G03*
X296680Y415197I12806J0D01*
G01*
X251050Y465551D02*
G03*
X243176Y465551I-3937J0D01*
G01*
X243175Y440354D02*
G03*
X251049Y440354I3937J0D01*
G01*
X475459Y354330D02*
G03*
X467585Y354330I-3937J0D01*
G01*
X467585Y329134D02*
G03*
X475459Y329134I3937J0D01*
G01*
X247843Y325000D02*
G03*
X247843Y325000I11081J0D01*
G01*
Y230512D02*
G03*
X247843Y230512I11081J0D01*
G01*
X486032Y330512D02*
G03*
X486032Y330512I11081J0D01*
G01*
X247843Y139961D02*
G03*
X247843Y139961I11081J0D01*
G01*
X127764Y299016D02*
G03*
X127764Y299016I11081J0D01*
G01*
X256111Y458464D02*
G03*
X256111Y458464I11081J0D01*
G01*
X361483Y120079D02*
G03*
X361483Y120079I5906J0D01*
G01*
Y419291D02*
G03*
X361483Y419291I5906J0D01*
G01*
X503215Y120079D02*
G03*
X503215Y120079I5906J0D01*
G01*
Y419291D02*
G03*
X503215Y419291I5906J0D01*
G01*
X177624Y127165D02*
G03*
X177624Y127165I7874J0D01*
G01*
X296680Y123858D02*
G03*
X296680Y123858I12806J0D01*
G01*
X307447Y473031D02*
G03*
X299573Y473031I-3937J0D01*
G01*
X299573Y447835D02*
G03*
X307447Y447835I3937J0D01*
G01*
X314181Y458464D02*
G03*
X314181Y458464I11081J0D01*
G01*
X337270Y365650D02*
Y374508D01*
X260538Y395197D02*
Y397657D01*
X261738Y396378D02*
X259475D01*
X391207Y359134D02*
Y369783D01*
X401719Y358937D02*
X391404D01*
X401719D02*
Y379842D01*
X391207D01*
X391207Y379842D01*
Y369783D02*
Y379842D01*
X488451Y211102D02*
Y221752D01*
X498963Y210906D02*
X488648D01*
X498963D02*
Y231811D01*
X488451D01*
X488451Y231811D01*
Y221752D02*
Y231811D01*
X472703Y257953D02*
Y268602D01*
X483215Y257756D02*
X472900D01*
X483215D02*
Y278661D01*
X472703D01*
X472703Y278661D01*
Y268602D02*
Y278661D01*
X488057Y257953D02*
Y268602D01*
X498569Y257756D02*
X488254D01*
X498569D02*
Y278661D01*
X488057D01*
X488057Y278661D01*
Y268602D02*
Y278661D01*
X248589Y368701D02*
X237939D01*
X237742Y358189D02*
Y368504D01*
X258648Y358189D02*
X237742D01*
X258648D02*
Y368701D01*
X258648Y368701D01*
X248589D01*
X132939Y225276D02*
Y235925D01*
X143451Y225079D02*
X133136D01*
X143451D02*
Y245984D01*
X132939D01*
X132939Y245984D01*
Y235925D02*
Y245984D01*
X181266Y308465D02*
X170616D01*
X170420Y297953D02*
Y308268D01*
X191325Y297953D02*
X170420D01*
X191325D02*
Y308465D01*
X191325Y308465D01*
X181266D01*
X248983Y349803D02*
X238333D01*
X238136Y339291D02*
Y349606D01*
X259042Y339291D02*
X238136D01*
X259042D02*
Y349803D01*
X259042Y349803D01*
X248983D01*
X181266Y332087D02*
X170616D01*
X170420Y321575D02*
Y331890D01*
X191325Y321575D02*
X170420D01*
X191325D02*
Y332087D01*
X191325Y332087D01*
X181266D01*
X252132Y119488D02*
X241482D01*
X241286Y108976D02*
Y119291D01*
X262191Y108976D02*
X241286D01*
X262191D02*
Y119488D01*
X262191Y119488D01*
X252132D01*
X242683Y191929D02*
X232034D01*
X231837Y181417D02*
Y191732D01*
X252742Y181417D02*
X231837D01*
X252742D02*
Y191929D01*
X252742Y191929D01*
X242683D01*
Y283661D02*
X232034D01*
X231837Y273150D02*
Y283465D01*
X252742Y273150D02*
X231837D01*
X252742D02*
Y283661D01*
X252742Y283661D01*
X242683D01*
X340931Y380906D02*
X330282D01*
X341128Y381102D02*
Y391417D01*
X320223D01*
Y380906D02*
Y391417D01*
X320223Y380906D02*
X320223Y380906D01*
X330282Y380906D02*
X320223D01*
X329986Y226971D02*
X326986Y224971D01*
X329986Y222971D02*
X326986Y224971D01*
X329986Y222971D02*
X326986Y220971D01*
X329986Y218971D02*
X326986Y220971D01*
X329986Y218971D02*
X326986Y216971D01*
X329986Y214971D02*
X326986Y216971D01*
X325986Y220971D02*
X323986Y222971D01*
X325986Y220971D02*
X323986Y218971D01*
X325986Y220971D02*
X316986D01*
X274486Y205971D02*
Y234971D01*
X336986Y205971D02*
Y235971D01*
X316986Y220971D02*
X289486D01*
X274486Y234971D02*
Y235971D01*
X330486Y240471D02*
X274486D01*
Y234971D02*
Y240471D01*
X336986D02*
X330486D01*
X336986Y235971D02*
Y240471D01*
Y201471D02*
Y205971D01*
Y201471D02*
X274486D01*
Y205971D01*
X329986Y324084D02*
X326986Y322084D01*
X329986Y320084D02*
X326986Y322084D01*
X329986Y320084D02*
X326986Y318084D01*
X329986Y316084D02*
X326986Y318084D01*
X329986Y316084D02*
X326986Y314084D01*
X329986Y312084D02*
X326986Y314084D01*
X325986Y318084D02*
X323986Y320084D01*
X325986Y318084D02*
X323986Y316084D01*
X325986Y318084D02*
X316986D01*
X274486Y303084D02*
Y332084D01*
X336986Y303084D02*
Y333084D01*
X316986Y318084D02*
X289486D01*
X274486Y332084D02*
Y333084D01*
X330486Y337584D02*
X274486D01*
Y332084D02*
Y337584D01*
X336986D02*
X330486D01*
X336986Y333084D02*
Y337584D01*
Y298584D02*
Y303084D01*
Y298584D02*
X274486D01*
Y303084D01*
X329986Y421197D02*
X326986Y419197D01*
X329986Y417197D02*
X326986Y419197D01*
X329986Y417197D02*
X326986Y415197D01*
X329986Y413197D02*
X326986Y415197D01*
X329986Y413197D02*
X326986Y411197D01*
X329986Y409197D02*
X326986Y411197D01*
X325986Y415197D02*
X323986Y417197D01*
X325986Y415197D02*
X323986Y413197D01*
X325986Y415197D02*
X316986D01*
X274486Y400197D02*
Y429197D01*
X336986Y400197D02*
Y430197D01*
X316986Y415197D02*
X289486D01*
X274486Y429197D02*
Y430197D01*
X330486Y434697D02*
X274486D01*
Y429197D02*
Y434697D01*
X336986D02*
X330486D01*
X336986Y430197D02*
Y434697D01*
Y395697D02*
Y400197D01*
Y395697D02*
X274486D01*
Y400197D01*
X251050Y440355D02*
Y465551D01*
X243175Y440354D02*
Y465551D01*
X475459Y329134D02*
Y354330D01*
X467585Y329134D02*
Y354330D01*
X264081Y317638D02*
Y320098D01*
X265282Y318819D02*
X263018D01*
X264081Y223150D02*
Y225610D01*
X265282Y224331D02*
X263018D01*
X504475Y335669D02*
X502014D01*
X503294Y334606D02*
Y336870D01*
X264081Y132598D02*
Y135059D01*
X265282Y133780D02*
X263018D01*
X146207Y304173D02*
X143746D01*
X145026Y303110D02*
Y305374D01*
X262034Y463366D02*
Y465827D01*
X263097Y464646D02*
X260833D01*
X113199Y105110D02*
Y151083D01*
X145199D02*
X113199D01*
X145199Y105110D02*
Y151083D01*
Y105110D02*
X113199D01*
Y376764D02*
Y422736D01*
X145199D02*
X113199D01*
X145199Y376764D02*
Y422736D01*
Y376764D02*
X113199D01*
X338687Y156772D02*
Y189567D01*
Y156772D02*
X338569Y156653D01*
X313018D01*
X312782Y156890D01*
Y189528D01*
X312821Y189567D02*
X312782Y189528D01*
X338687Y189567D02*
X312821D01*
X362368Y400984D02*
X351719D01*
X351522Y390472D02*
Y400787D01*
X372427Y390472D02*
X351522D01*
X372427D02*
Y400984D01*
X372427Y400984D01*
X362368D01*
X112199Y436756D02*
Y468756D01*
X175199Y436756D02*
X112199D01*
X175199D02*
Y468756D01*
X112199D01*
X485498Y133858D02*
Y135827D01*
Y133858D02*
X385105D01*
X485498Y395669D02*
X481561D01*
X485498Y135827D02*
Y395669D01*
X385105Y133858D02*
Y395669D01*
X483530D02*
X385105D01*
X524868Y104331D02*
Y435039D01*
Y104331D02*
X351640D01*
Y435039D01*
X524868D02*
X351640D01*
X520931Y399606D02*
X509514D01*
Y238189D02*
Y399606D01*
X520931Y238189D02*
X509514D01*
X520931D02*
Y399606D01*
X439553Y435630D02*
X372703D01*
X439593Y435591D02*
X439553Y435630D01*
X439514Y477756D02*
X372703D01*
X439514Y477756D02*
X439514Y477756D01*
X439514Y435669D02*
Y477756D01*
X439593Y435591D02*
X439514Y435669D01*
X525026Y468504D02*
X475026D01*
X525026Y458740D02*
Y468504D01*
Y458740D02*
X475026D01*
Y468504D02*
X465026D01*
Y458661D02*
Y468504D01*
X465105Y458740D02*
X465026Y458661D01*
X476522Y458740D02*
X465105D01*
X217388Y105315D02*
Y196850D01*
Y105315D02*
X153805D01*
X153609Y105512D01*
Y196850D01*
Y217323D01*
X217388D02*
X153609D01*
X217388Y196850D02*
Y217323D01*
X216994Y186614D02*
X153609D01*
X329986Y129858D02*
X326986Y127858D01*
X329986Y125858D02*
X326986Y127858D01*
X329986Y125858D02*
X326986Y123858D01*
X329986Y121858D02*
X326986Y123858D01*
X329986Y121858D02*
X326986Y119858D01*
X329986Y117858D02*
X326986Y119858D01*
X325986Y123858D02*
X323986Y125858D01*
X325986Y123858D02*
X323986Y121858D01*
X325986Y123858D02*
X316986D01*
X274486Y108858D02*
Y137858D01*
X336986Y108858D02*
Y138858D01*
X316986Y123858D02*
X289486D01*
X274486Y137858D02*
Y138858D01*
X330486Y143358D02*
X274486D01*
Y137858D02*
Y143358D01*
X336986D02*
X330486D01*
X336986Y138858D02*
Y143358D01*
Y104358D02*
Y108858D01*
Y104358D02*
X274486D01*
Y108858D01*
X113199Y317709D02*
Y363681D01*
X145199D02*
X113199D01*
X145199Y317709D02*
Y363681D01*
Y317709D02*
X113199D01*
X307447Y447835D02*
Y473031D01*
X299573Y447835D02*
Y473031D01*
X320105Y463366D02*
Y465827D01*
X321167Y464646D02*
X318904D01*
X316207Y376077D02*
Y370079D01*
X313208D01*
X312208Y371078D01*
Y375077D01*
X313208Y376077D01*
X316207D01*
X306210Y370079D02*
X310209D01*
X306210Y374077D01*
Y375077D01*
X307210Y376077D01*
X309209D01*
X310209Y375077D01*
X167914Y231628D02*
Y233596D01*
X168570Y234252D01*
X169882D01*
X170538Y233596D01*
Y231628D01*
X162566Y239665D02*
X166502D01*
Y237698D01*
X165846Y237041D01*
X165190D01*
X164534D01*
X163878Y237698D01*
Y239665D01*
X161286Y232284D02*
Y233596D01*
X160630Y234252D01*
X159318D01*
X158662Y233596D01*
Y232284D01*
X159318Y231628D01*
X159974D01*
Y234252D01*
X200721Y252624D02*
Y250656D01*
X200065Y250000D01*
X198753D01*
X198097Y250656D01*
Y252624D01*
X206068Y244587D02*
X202132D01*
Y246554D01*
X202788Y247210D01*
X203444D01*
X204100D01*
X204756Y246554D01*
Y244587D01*
X207349Y251968D02*
Y250656D01*
X208005Y250000D01*
X209316D01*
X209973Y250656D01*
Y251968D01*
X209316Y252624D01*
X208661D01*
Y250000D01*
X167914Y263124D02*
Y265092D01*
X168570Y265748D01*
X169882D01*
X170538Y265092D01*
Y263124D01*
X162566Y271161D02*
X166502D01*
Y269194D01*
X165846Y268538D01*
X165190D01*
X164534D01*
X163878Y269194D01*
Y271161D01*
X161286Y263780D02*
Y265092D01*
X160630Y265748D01*
X159318D01*
X158662Y265092D01*
Y263780D01*
X159318Y263124D01*
X159974D01*
Y265748D01*
X200721Y284120D02*
Y282152D01*
X200065Y281496D01*
X198753D01*
X198097Y282152D01*
Y284120D01*
X206068Y276083D02*
X202132D01*
Y278051D01*
X202788Y278707D01*
X203444D01*
X204100D01*
X204756Y278051D01*
Y276083D01*
X207349Y283464D02*
Y282152D01*
X208005Y281496D01*
X209316D01*
X209973Y282152D01*
Y283464D01*
X209316Y284120D01*
X208661D01*
Y281496D01*
D54*
X173650Y233817D02*
G03*
X155614Y233817I-9018J6340D01*
G01*
X194984Y250435D02*
G03*
X213020Y250435I9018J-6340D01*
G01*
X173650Y265313D02*
G03*
X155614Y265313I-9018J6340D01*
G01*
X442600Y266653D02*
G03*
X437600Y266653I-2500J0D01*
G01*
X194984Y281931D02*
G03*
X213020Y281931I9018J-6340D01*
G01*
X401837Y368799D02*
Y369783D01*
X391207Y368799D02*
Y369783D01*
X499081Y220768D02*
Y221752D01*
X488451Y220768D02*
Y221752D01*
X483333Y267618D02*
Y268602D01*
X472703Y267618D02*
Y268602D01*
X498687Y267618D02*
Y268602D01*
X488057Y267618D02*
Y268602D01*
X173490Y233760D02*
X171916D01*
X157152D02*
X155774D01*
X196719Y250492D02*
X195144D01*
X212860D02*
X211483D01*
X173490Y265256D02*
X171916D01*
X157152D02*
X155774D01*
X248589Y358071D02*
X247605D01*
X248589Y368701D02*
X247605D01*
X143569Y234941D02*
Y235925D01*
X132939Y234941D02*
Y235925D01*
X181266Y297835D02*
X180282D01*
X181266Y308465D02*
X180282D01*
X248983Y339173D02*
X247998D01*
X248983Y349803D02*
X247998D01*
X181266Y321457D02*
X180282D01*
X181266Y332087D02*
X180282D01*
X252132Y108858D02*
X251148D01*
X252132Y119488D02*
X251148D01*
X242683Y181299D02*
X241699D01*
X242683Y191929D02*
X241699D01*
X242683Y273031D02*
X241699D01*
X242683Y283661D02*
X241699D01*
X331266Y391535D02*
X330282D01*
X331266Y380906D02*
X330282D01*
X362368Y390354D02*
X361384D01*
X362368Y400984D02*
X361384D01*
X370735Y435630D02*
Y477756D01*
X372703Y435630D02*
Y477756D01*
X354199Y435630D02*
Y477756D01*
X372703Y435630D02*
X354199D01*
X372703Y477756D02*
X354199D01*
X437600Y266653D02*
X432683D01*
X447516D02*
X442600D01*
X447516D02*
Y406653D01*
X432683D01*
Y266653D02*
Y406653D01*
X196719Y281988D02*
X195144D01*
X212860D02*
X211483D01*
X201443Y458071D02*
Y469095D01*
X222309Y458071D02*
X201443D01*
X222309Y469095D02*
X201443D01*
D55*
X520931Y388583D02*
X509514D01*
D56*
X261400Y422698D02*
X262400Y423698D01*
X264399D01*
X265399Y422698D01*
Y418700D01*
X264399Y417700D01*
X262400D01*
X261400Y418700D01*
X259401Y417700D02*
X257402D01*
X258401D01*
Y423698D01*
X259401Y422698D01*
X261421Y310117D02*
X262421Y311116D01*
X264420D01*
X265420Y310117D01*
Y306118D01*
X264420Y305118D01*
X262421D01*
X261421Y306118D01*
X255423Y305118D02*
X259421D01*
X255423Y309117D01*
Y310117D01*
X256422Y311116D01*
X258422D01*
X259421Y310117D01*
X264900Y250698D02*
X265900Y251698D01*
X267899D01*
X268899Y250698D01*
Y246700D01*
X267899Y245700D01*
X265900D01*
X264900Y246700D01*
X262901Y250698D02*
X261901Y251698D01*
X259902D01*
X258902Y250698D01*
Y249699D01*
X259902Y248699D01*
X260902D01*
X259902D01*
X258902Y247699D01*
Y246700D01*
X259902Y245700D01*
X261901D01*
X262901Y246700D01*
X503100Y350698D02*
X504100Y351698D01*
X506099D01*
X507099Y350698D01*
Y346700D01*
X506099Y345700D01*
X504100D01*
X503100Y346700D01*
X498102Y345700D02*
Y351698D01*
X501101Y348699D01*
X497102D01*
X264900Y160098D02*
X265900Y161098D01*
X267899D01*
X268899Y160098D01*
Y156100D01*
X267899Y155100D01*
X265900D01*
X264900Y156100D01*
X258902Y161098D02*
X262901D01*
Y158099D01*
X260902Y159099D01*
X259902D01*
X258902Y158099D01*
Y156100D01*
X259902Y155100D01*
X261901D01*
X262901Y156100D01*
X470400Y367298D02*
X471400Y368298D01*
X473399D01*
X474399Y367298D01*
Y363300D01*
X473399Y362300D01*
X471400D01*
X470400Y363300D01*
X464402Y368298D02*
X466402Y367298D01*
X468401Y365299D01*
Y363300D01*
X467401Y362300D01*
X465402D01*
X464402Y363300D01*
Y364299D01*
X465402Y365299D01*
X468401D01*
X144900Y319198D02*
X145900Y320198D01*
X147899D01*
X148899Y319198D01*
Y315200D01*
X147899Y314200D01*
X145900D01*
X144900Y315200D01*
X142901Y320198D02*
X138902D01*
Y319198D01*
X142901Y315200D01*
Y314200D01*
X273200Y478598D02*
X274200Y479598D01*
X276199D01*
X277199Y478598D01*
Y474600D01*
X276199Y473600D01*
X274200D01*
X273200Y474600D01*
X271201Y478598D02*
X270201Y479598D01*
X268202D01*
X267202Y478598D01*
Y477599D01*
X268202Y476599D01*
X267202Y475599D01*
Y474600D01*
X268202Y473600D01*
X270201D01*
X271201Y474600D01*
Y475599D01*
X270201Y476599D01*
X271201Y477599D01*
Y478598D01*
X270201Y476599D02*
X268202D01*
X246000Y478598D02*
X247000Y479598D01*
X248999D01*
X249999Y478598D01*
Y474600D01*
X248999Y473600D01*
X247000D01*
X246000Y474600D01*
X244001D02*
X243001Y473600D01*
X241002D01*
X240002Y474600D01*
Y478598D01*
X241002Y479598D01*
X243001D01*
X244001Y478598D01*
Y477599D01*
X243001Y476599D01*
X240002D01*
X331300Y478598D02*
X332300Y479598D01*
X334299D01*
X335299Y478598D01*
Y474600D01*
X334299Y473600D01*
X332300D01*
X331300Y474600D01*
X329301Y473600D02*
X327302D01*
X328301D01*
Y479598D01*
X329301Y478598D01*
X324303D02*
X323303Y479598D01*
X321304D01*
X320304Y478598D01*
Y474600D01*
X321304Y473600D01*
X323303D01*
X324303Y474600D01*
Y478598D01*
X302400Y485998D02*
X303400Y486998D01*
X305399D01*
X306399Y485998D01*
Y482000D01*
X305399Y481000D01*
X303400D01*
X302400Y482000D01*
X300401Y481000D02*
X298402D01*
X299401D01*
Y486998D01*
X300401Y485998D01*
X295403Y481000D02*
X293403D01*
X294403D01*
Y486998D01*
X295403Y485998D01*
X140100Y160198D02*
X141100Y161198D01*
X143099D01*
X144099Y160198D01*
Y156200D01*
X143099Y155200D01*
X141100D01*
X140100Y156200D01*
X135102Y161198D02*
X137101D01*
X138101Y160198D01*
Y156200D01*
X137101Y155200D01*
X135102D01*
X134102Y156200D01*
Y160198D01*
X135102Y161198D01*
X132103D02*
X130104D01*
X131103D01*
Y155200D01*
X132103D01*
X130104D01*
X127104Y161198D02*
Y155200D01*
X123106D01*
X121107D02*
X119107D01*
X120107D01*
Y161198D01*
X121107Y160198D01*
X140100Y431798D02*
X141100Y432798D01*
X143099D01*
X144099Y431798D01*
Y427800D01*
X143099Y426800D01*
X141100D01*
X140100Y427800D01*
X135102Y432798D02*
X137101D01*
X138101Y431798D01*
Y427800D01*
X137101Y426800D01*
X135102D01*
X134102Y427800D01*
Y431798D01*
X135102Y432798D01*
X132103D02*
X130104D01*
X131103D01*
Y426800D01*
X132103D01*
X130104D01*
X127104Y432798D02*
Y426800D01*
X123106D01*
X117108D02*
X121107D01*
X117108Y430799D01*
Y431798D01*
X118107Y432798D01*
X120107D01*
X121107Y431798D01*
X235199Y479098D02*
Y473100D01*
X232200D01*
X231200Y474100D01*
Y478098D01*
X232200Y479098D01*
X235199D01*
X229201Y473100D02*
X227202D01*
X228201D01*
Y479098D01*
X229201Y478098D01*
X144099Y373798D02*
Y367800D01*
Y370799D01*
X140100D01*
Y373798D01*
Y367800D01*
X138101Y373798D02*
Y367800D01*
Y370799D01*
X134102D01*
Y373798D01*
Y367800D01*
X129104Y373798D02*
X131103D01*
X132103Y372798D01*
Y368800D01*
X131103Y367800D01*
X129104D01*
X128104Y368800D01*
Y372798D01*
X129104Y373798D01*
X335899Y438800D02*
Y444798D01*
X332900D01*
X331900Y443798D01*
Y441799D01*
X332900Y440799D01*
X335899D01*
X329901Y441799D02*
X325902D01*
X319904Y444798D02*
X323903D01*
Y441799D01*
X321904D01*
X323903D01*
Y438800D01*
X313906Y439800D02*
Y443798D01*
X314906Y444798D01*
X316905D01*
X317905Y443798D01*
Y439800D01*
X316905Y438800D01*
X314906D01*
X315905Y440799D02*
X313906Y438800D01*
X314906D02*
X313906Y439800D01*
X311907Y438800D02*
X309908D01*
X310907D01*
Y444798D01*
X311907Y443798D01*
X335899Y341700D02*
Y347698D01*
X332900D01*
X331900Y346698D01*
Y344699D01*
X332900Y343699D01*
X335899D01*
X329901Y344699D02*
X325902D01*
X319904Y347698D02*
X323903D01*
Y344699D01*
X321904D01*
X323903D01*
Y341700D01*
X313906Y346698D02*
X314906Y347698D01*
X316905D01*
X317905Y346698D01*
Y345699D01*
X316905Y344699D01*
X314906D01*
X313906Y343699D01*
Y342700D01*
X314906Y341700D01*
X316905D01*
X317905Y342700D01*
X311907Y341700D02*
X309908D01*
X310907D01*
Y347698D01*
X311907Y346698D01*
X335899Y244500D02*
Y250498D01*
X332900D01*
X331900Y249498D01*
Y247499D01*
X332900Y246499D01*
X335899D01*
X329901Y247499D02*
X325902D01*
X319904Y250498D02*
X323903D01*
Y247499D01*
X321904D01*
X323903D01*
Y244500D01*
X313906Y245500D02*
Y249498D01*
X314906Y250498D01*
X316905D01*
X317905Y249498D01*
Y245500D01*
X316905Y244500D01*
X314906D01*
X315905Y246499D02*
X313906Y244500D01*
X314906D02*
X313906Y245500D01*
X307908Y244500D02*
X311907D01*
X307908Y248499D01*
Y249498D01*
X308908Y250498D01*
X310907D01*
X311907Y249498D01*
X335899Y147400D02*
Y153398D01*
X332900D01*
X331900Y152398D01*
Y150399D01*
X332900Y149399D01*
X335899D01*
X329901Y150399D02*
X325902D01*
X319904Y153398D02*
X323903D01*
Y150399D01*
X321904D01*
X323903D01*
Y147400D01*
X313906Y152398D02*
X314906Y153398D01*
X316905D01*
X317905Y152398D01*
Y151399D01*
X316905Y150399D01*
X314906D01*
X313906Y149399D01*
Y148400D01*
X314906Y147400D01*
X316905D01*
X317905Y148400D01*
X307908Y147400D02*
X311907D01*
X307908Y151399D01*
Y152398D01*
X308908Y153398D01*
X310907D01*
X311907Y152398D01*
X212300Y222400D02*
Y226398D01*
X213300Y227398D01*
X215299D01*
X216299Y226398D01*
Y222400D01*
X215299Y221400D01*
X213300D01*
X214300Y223399D02*
X212300Y221400D01*
X213300D02*
X212300Y222400D01*
X210301Y221400D02*
X208302D01*
X209301D01*
Y227398D01*
X210301Y226398D01*
X306364Y382283D02*
Y388281D01*
X303365D01*
X302366Y387282D01*
Y385282D01*
X303365Y384283D01*
X306364D01*
X304365D02*
X302366Y382283D01*
X300366D02*
X298367D01*
X299367D01*
Y388281D01*
X300366Y387282D01*
X260299Y287700D02*
Y293698D01*
X257300D01*
X256300Y292698D01*
Y290699D01*
X257300Y289699D01*
X260299D01*
X258300D02*
X256300Y287700D01*
X250302D02*
X254301D01*
X250302Y291699D01*
Y292698D01*
X251302Y293698D01*
X253301D01*
X254301Y292698D01*
X260299Y196000D02*
Y201998D01*
X257300D01*
X256300Y200998D01*
Y198999D01*
X257300Y197999D01*
X260299D01*
X258300D02*
X256300Y196000D01*
X254301Y200998D02*
X253301Y201998D01*
X251302D01*
X250302Y200998D01*
Y199999D01*
X251302Y198999D01*
X252302D01*
X251302D01*
X250302Y197999D01*
Y197000D01*
X251302Y196000D01*
X253301D01*
X254301Y197000D01*
X270931Y122047D02*
Y128045D01*
X267932D01*
X266933Y127046D01*
Y125046D01*
X267932Y124047D01*
X270931D01*
X268932D02*
X266933Y122047D01*
X261934D02*
Y128045D01*
X264933Y125046D01*
X260934D01*
X198899Y336200D02*
Y342198D01*
X195900D01*
X194900Y341198D01*
Y339199D01*
X195900Y338199D01*
X198899D01*
X196900D02*
X194900Y336200D01*
X188902Y342198D02*
X192901D01*
Y339199D01*
X190902Y340199D01*
X189902D01*
X188902Y339199D01*
Y337200D01*
X189902Y336200D01*
X191901D01*
X192901Y337200D01*
X272112Y350787D02*
Y356785D01*
X269113D01*
X268114Y355786D01*
Y353786D01*
X269113Y352787D01*
X272112D01*
X270113D02*
X268114Y350787D01*
X262116Y356785D02*
X264115Y355786D01*
X266114Y353786D01*
Y351787D01*
X265115Y350787D01*
X263115D01*
X262116Y351787D01*
Y352787D01*
X263115Y353786D01*
X266114D01*
X198899Y312500D02*
Y318498D01*
X195900D01*
X194900Y317498D01*
Y315499D01*
X195900Y314499D01*
X198899D01*
X196900D02*
X194900Y312500D01*
X192901Y318498D02*
X188902D01*
Y317498D01*
X192901Y313500D01*
Y312500D01*
X142399Y258700D02*
Y264698D01*
X139400D01*
X138400Y263698D01*
Y261699D01*
X139400Y260699D01*
X142399D01*
X140400D02*
X138400Y258700D01*
X136401Y263698D02*
X135401Y264698D01*
X133402D01*
X132402Y263698D01*
Y262699D01*
X133402Y261699D01*
X132402Y260699D01*
Y259700D01*
X133402Y258700D01*
X135401D01*
X136401Y259700D01*
Y260699D01*
X135401Y261699D01*
X136401Y262699D01*
Y263698D01*
X135401Y261699D02*
X133402D01*
X266199Y372800D02*
Y378798D01*
X263200D01*
X262200Y377798D01*
Y375799D01*
X263200Y374799D01*
X266199D01*
X264200D02*
X262200Y372800D01*
X260201Y373800D02*
X259201Y372800D01*
X257202D01*
X256202Y373800D01*
Y377798D01*
X257202Y378798D01*
X259201D01*
X260201Y377798D01*
Y376799D01*
X259201Y375799D01*
X256202D01*
X520000Y479498D02*
X521000Y480498D01*
X522999D01*
X523999Y479498D01*
Y478499D01*
X522999Y477499D01*
X521000D01*
X520000Y476499D01*
Y475500D01*
X521000Y474500D01*
X522999D01*
X523999Y475500D01*
X518001Y474500D02*
Y480498D01*
X515002D01*
X514002Y479498D01*
Y477499D01*
X515002Y476499D01*
X518001D01*
X512003Y480498D02*
X510004D01*
X511003D01*
Y474500D01*
X512003D01*
X510004D01*
X174499Y292598D02*
X170500D01*
X172500D01*
Y286600D01*
X168501D02*
X166502D01*
X167501D01*
Y292598D01*
X168501Y291598D01*
X213799Y263198D02*
X209800D01*
X211800D01*
Y257200D01*
X203802D02*
X207801D01*
X203802Y261199D01*
Y262198D01*
X204802Y263198D01*
X206801D01*
X207801Y262198D01*
X174499Y261098D02*
X170500D01*
X172500D01*
Y255100D01*
X168501Y260098D02*
X167501Y261098D01*
X165502D01*
X164502Y260098D01*
Y259099D01*
X165502Y258099D01*
X166502D01*
X165502D01*
X164502Y257099D01*
Y256100D01*
X165502Y255100D01*
X167501D01*
X168501Y256100D01*
X213799Y294698D02*
X209800D01*
X211800D01*
Y288700D01*
X204802D02*
Y294698D01*
X207801Y291699D01*
X203802D01*
X460499Y416698D02*
Y411700D01*
X459499Y410700D01*
X457500D01*
X456500Y411700D01*
Y416698D01*
X454501Y410700D02*
X452502D01*
X453501D01*
Y416698D01*
X454501Y415698D01*
X438499Y487798D02*
Y482800D01*
X437499Y481800D01*
X435500D01*
X434500Y482800D01*
Y487798D01*
X428502Y481800D02*
X432501D01*
X428502Y485799D01*
Y486798D01*
X429502Y487798D01*
X431501D01*
X432501Y486798D01*
X523799Y445098D02*
Y439100D01*
X520800D01*
X519800Y440100D01*
Y444098D01*
X520800Y445098D01*
X523799D01*
X517801Y439100D02*
Y445098D01*
X514802D01*
X513802Y444098D01*
Y442099D01*
X514802Y441099D01*
X517801D01*
X511803Y439100D02*
X509804D01*
X510803D01*
Y445098D01*
X511803Y444098D01*
X503215Y289370D02*
Y295368D01*
X500216D01*
X499216Y294369D01*
Y292369D01*
X500216Y291369D01*
X503215D01*
X501215D02*
X499216Y289370D01*
X497217D02*
X495217D01*
X496217D01*
Y295368D01*
X497217Y294369D01*
X492218D02*
X491219Y295368D01*
X489219D01*
X488220Y294369D01*
Y290370D01*
X489219Y289370D01*
X491219D01*
X492218Y290370D01*
Y294369D01*
X482199Y291400D02*
Y297398D01*
X479200D01*
X478200Y296398D01*
Y294399D01*
X479200Y293399D01*
X482199D01*
X480200D02*
X478200Y291400D01*
X476201D02*
X474202D01*
X475201D01*
Y297398D01*
X476201Y296398D01*
X471203Y291400D02*
X469203D01*
X470203D01*
Y297398D01*
X471203Y296398D01*
X503215Y241732D02*
Y247730D01*
X500216D01*
X499216Y246731D01*
Y244731D01*
X500216Y243732D01*
X503215D01*
X501215D02*
X499216Y241732D01*
X497217D02*
X495217D01*
X496217D01*
Y247730D01*
X497217Y246731D01*
X488220Y241732D02*
X492218D01*
X488220Y245731D01*
Y246731D01*
X489219Y247730D01*
X491219D01*
X492218Y246731D01*
X417782Y373622D02*
Y379620D01*
X414783D01*
X413783Y378620D01*
Y376621D01*
X414783Y375621D01*
X417782D01*
X415782D02*
X413783Y373622D01*
X411784D02*
X409784D01*
X410784D01*
Y379620D01*
X411784Y378620D01*
X406785D02*
X405786Y379620D01*
X403786D01*
X402787Y378620D01*
Y377621D01*
X403786Y376621D01*
X404786D01*
X403786D01*
X402787Y375621D01*
Y374622D01*
X403786Y373622D01*
X405786D01*
X406785Y374622D01*
X174099Y472800D02*
Y478798D01*
X171100D01*
X170100Y477798D01*
Y475799D01*
X171100Y474799D01*
X174099D01*
X168101Y478798D02*
Y472800D01*
X166102Y474799D01*
X164102Y472800D01*
Y478798D01*
X162103Y475799D02*
X158104D01*
X160104Y477798D02*
Y473800D01*
X156105Y472800D02*
X154105D01*
X155105D01*
Y478798D01*
X156105Y477798D01*
X147108Y472800D02*
X151107D01*
X147108Y476799D01*
Y477798D01*
X148107Y478798D01*
X150107D01*
X151107Y477798D01*
X145108Y478798D02*
Y474799D01*
X143109Y472800D01*
X141110Y474799D01*
Y478798D01*
X379986Y382283D02*
Y388281D01*
X376987D01*
X375988Y387282D01*
Y385282D01*
X376987Y384283D01*
X379986D01*
X377987D02*
X375988Y382283D01*
X373988D02*
X371989D01*
X372989D01*
Y388281D01*
X373988Y387282D01*
X365991Y382283D02*
Y388281D01*
X368990Y385282D01*
X364991D01*
X333600Y198898D02*
X334600Y199898D01*
X336599D01*
X337599Y198898D01*
Y197899D01*
X336599Y196899D01*
X334600D01*
X333600Y195899D01*
Y194900D01*
X334600Y193900D01*
X336599D01*
X337599Y194900D01*
X331601Y193900D02*
X329602D01*
X330601D01*
Y199898D01*
X331601Y198898D01*
D57*
X346423Y458660D02*
Y454724D01*
X350359Y458660D01*
X351343D01*
X352327Y457676D01*
Y455708D01*
X351343Y454724D01*
X346423Y445709D02*
Y447677D01*
Y446693D01*
X352327D01*
X351343Y445709D01*
Y464724D02*
X352327Y465708D01*
Y467676D01*
X351343Y468660D01*
X350359D01*
X349375Y467676D01*
Y466692D01*
Y467676D01*
X348391Y468660D01*
X347407D01*
X346423Y467676D01*
Y465708D01*
X347407Y464724D01*
X205577Y212468D02*
X206233Y211812D01*
X207545D01*
X208201Y212468D01*
Y213124D01*
X207545Y213780D01*
X206889D01*
X207545D01*
X208201Y214436D01*
Y215092D01*
X207545Y215748D01*
X206233D01*
X205577Y215092D01*
X163057Y215748D02*
X164369D01*
X163713D01*
Y211812D01*
X163057Y212468D01*
X186941Y215748D02*
X184317D01*
X186941Y213124D01*
Y212468D01*
X186285Y211812D01*
X184973D01*
X184317Y212468D01*
D58*
X119553Y118061D02*
D03*
Y389715D02*
D03*
Y330659D02*
D03*
D59*
X141199Y118110D02*
D03*
Y389764D02*
D03*
X125199Y440756D02*
D03*
X141199Y330709D02*
D03*
D60*
X119565Y137697D02*
D03*
Y409350D02*
D03*
Y350295D02*
D03*
D61*
X164199Y462256D02*
D03*
X144199D02*
D03*
D62*
X125150Y462219D02*
D03*
D63*
X524238Y464134D02*
D03*
D64*
X515794Y463642D02*
D03*
D65*
X520026Y459469D02*
D03*
Y467776D02*
D03*
D66*
X221128Y463583D02*
D03*
M02*
