G75*
G70*
%OFA0B0*%
%FSLAX24Y24*%
%IPPOS*%
%LPD*%
%AMOC8*
5,1,8,0,0,1.08239X$1,22.5*
%
%ADD10R,0.0276X0.0354*%
%ADD11R,0.0354X0.0276*%
%ADD12R,0.0394X0.0433*%
%ADD13R,0.0433X0.0394*%
%ADD14R,0.0102X0.0228*%
%ADD15R,0.0228X0.0102*%
%ADD16R,0.1260X0.0354*%
%ADD17R,0.1260X0.0276*%
%ADD18R,0.0472X0.0551*%
D10*
X004975Y002537D03*
X005487Y002537D03*
X004475Y003262D03*
X003963Y003262D03*
X004975Y003970D03*
X005487Y003970D03*
X007888Y006136D03*
X008400Y006136D03*
D11*
X004790Y001884D03*
X004790Y002395D03*
X004778Y002643D03*
X004778Y003155D03*
X004766Y003376D03*
X004766Y003888D03*
X004774Y004112D03*
X004774Y004624D03*
X009026Y004884D03*
X009026Y005395D03*
X010144Y005155D03*
X010144Y004643D03*
D12*
X006672Y004809D03*
X006144Y004624D03*
X006144Y005293D03*
X006672Y005478D03*
D13*
X006431Y001620D03*
X007101Y001620D03*
X007081Y001077D03*
X007750Y001077D03*
D14*
X007683Y002356D03*
X007487Y002356D03*
X007290Y002356D03*
X007093Y002356D03*
X006896Y002356D03*
X006699Y002356D03*
X006502Y002356D03*
X006306Y002356D03*
X006306Y004151D03*
X006502Y004151D03*
X006699Y004151D03*
X006896Y004151D03*
X007093Y004151D03*
X007290Y004151D03*
X007487Y004151D03*
X007683Y004151D03*
D15*
X007892Y003943D03*
X007892Y003746D03*
X007892Y003549D03*
X007892Y003352D03*
X007892Y003155D03*
X007892Y002958D03*
X007892Y002762D03*
X007892Y002565D03*
X006097Y002565D03*
X006097Y002762D03*
X006097Y002958D03*
X006097Y003155D03*
X006097Y003352D03*
X006097Y003549D03*
X006097Y003746D03*
X006097Y003943D03*
D16*
X006994Y003706D03*
X006994Y002801D03*
D17*
X006994Y003254D03*
D18*
X007849Y004730D03*
X008518Y004730D03*
X008518Y005596D03*
X007849Y005596D03*
M02*
