%
M48
M72
T01C0.0130
T02C0.0200
%
T01
X4117Y2226
X4353Y1754
X5219Y1675
X5455Y2069
X6365Y2025
X6916Y2049
X6357Y1470
X6050Y1171
X6400Y931
X6994Y1206
X7817Y1990
X8369Y1832
X8235Y1360
X9321Y1498
X9865Y1360
X10597Y1494
X10589Y2506
X9766Y2514
X9345Y2458
X9392Y3171
X9392Y3801
X9943Y4061
X10573Y4037
X10601Y3533
X9077Y4510
X9707Y4588
X8416Y5470
X7865Y4840
X7424Y3722
X7030Y3722
X7030Y3329
X7424Y3329
X7424Y2856
X7030Y2856
X6557Y2856
X6557Y3329
X6557Y3722
X5298Y3565
X5219Y3014
X4274Y2777
X4038Y3722
X4274Y4273
X4038Y4903
X4510Y5376
X5455Y5376
X6557Y6006
X6164Y6321
X5376Y6084
X4038Y6084
X3219Y5951
X5219Y4431
X7424Y6321
X8998Y6242
X9707Y6006
X10447Y5880
X8491Y3348
X8176Y2726
T02
X8959Y2758
X8959Y3258
X8959Y3758
X10250Y3758
X10250Y3258
X10250Y2758
X10250Y2258
X10250Y1758
X10250Y1258
X8959Y1258
X8959Y1758
X8959Y2258
M30
