G75*
G70*
%OFA0B0*%
%FSLAX24Y24*%
%IPPOS*%
%LPD*%
%AMOC8*
5,1,8,0,0,1.08239X$1,22.5*
%
%ADD10C,0.0082*%
%ADD11C,0.0081*%
%ADD12C,0.0083*%
%ADD13R,0.0228X0.0102*%
%ADD14R,0.0102X0.0228*%
%ADD15C,0.0083*%
%ADD16C,0.0480*%
D10*
X004614Y001747D02*
X004614Y002021D01*
X004966Y002021D01*
X004966Y001747D01*
X004614Y001747D01*
X004614Y001828D02*
X004966Y001828D01*
X004966Y001909D02*
X004614Y001909D01*
X004614Y001990D02*
X004966Y001990D01*
X004614Y002258D02*
X004614Y002532D01*
X004966Y002532D01*
X004966Y002258D01*
X004614Y002258D01*
X004614Y002339D02*
X004966Y002339D01*
X004966Y002420D02*
X004614Y002420D01*
X004614Y002501D02*
X004966Y002501D01*
X004838Y002361D02*
X005112Y002361D01*
X004838Y002361D02*
X004838Y002713D01*
X005112Y002713D01*
X005112Y002361D01*
X005112Y002442D02*
X004838Y002442D01*
X004838Y002523D02*
X005112Y002523D01*
X005112Y002604D02*
X004838Y002604D01*
X004838Y002685D02*
X005112Y002685D01*
X004602Y002780D02*
X004602Y002506D01*
X004602Y002780D02*
X004954Y002780D01*
X004954Y002506D01*
X004602Y002506D01*
X004602Y002587D02*
X004954Y002587D01*
X004954Y002668D02*
X004602Y002668D01*
X004602Y002749D02*
X004954Y002749D01*
X004602Y003018D02*
X004602Y003292D01*
X004954Y003292D01*
X004954Y003018D01*
X004602Y003018D01*
X004602Y003099D02*
X004954Y003099D01*
X004954Y003180D02*
X004602Y003180D01*
X004602Y003261D02*
X004954Y003261D01*
X004590Y003239D02*
X004590Y003513D01*
X004942Y003513D01*
X004942Y003239D01*
X004590Y003239D01*
X004590Y003320D02*
X004942Y003320D01*
X004942Y003401D02*
X004590Y003401D01*
X004590Y003482D02*
X004942Y003482D01*
X004612Y003086D02*
X004338Y003086D01*
X004338Y003438D01*
X004612Y003438D01*
X004612Y003086D01*
X004612Y003167D02*
X004338Y003167D01*
X004338Y003248D02*
X004612Y003248D01*
X004612Y003329D02*
X004338Y003329D01*
X004338Y003410D02*
X004612Y003410D01*
X004100Y003086D02*
X003826Y003086D01*
X003826Y003438D01*
X004100Y003438D01*
X004100Y003086D01*
X004100Y003167D02*
X003826Y003167D01*
X003826Y003248D02*
X004100Y003248D01*
X004100Y003329D02*
X003826Y003329D01*
X003826Y003410D02*
X004100Y003410D01*
X004590Y003751D02*
X004590Y004025D01*
X004942Y004025D01*
X004942Y003751D01*
X004590Y003751D01*
X004590Y003832D02*
X004942Y003832D01*
X004942Y003913D02*
X004590Y003913D01*
X004590Y003994D02*
X004942Y003994D01*
X004838Y003794D02*
X005112Y003794D01*
X004838Y003794D02*
X004838Y004146D01*
X005112Y004146D01*
X005112Y003794D01*
X005112Y003875D02*
X004838Y003875D01*
X004838Y003956D02*
X005112Y003956D01*
X005112Y004037D02*
X004838Y004037D01*
X004838Y004118D02*
X005112Y004118D01*
X004598Y004249D02*
X004598Y003975D01*
X004598Y004249D02*
X004950Y004249D01*
X004950Y003975D01*
X004598Y003975D01*
X004598Y004056D02*
X004950Y004056D01*
X004950Y004137D02*
X004598Y004137D01*
X004598Y004218D02*
X004950Y004218D01*
X005350Y003794D02*
X005624Y003794D01*
X005350Y003794D02*
X005350Y004146D01*
X005624Y004146D01*
X005624Y003794D01*
X005624Y003875D02*
X005350Y003875D01*
X005350Y003956D02*
X005624Y003956D01*
X005624Y004037D02*
X005350Y004037D01*
X005350Y004118D02*
X005624Y004118D01*
X004598Y004487D02*
X004598Y004761D01*
X004950Y004761D01*
X004950Y004487D01*
X004598Y004487D01*
X004598Y004568D02*
X004950Y004568D01*
X004950Y004649D02*
X004598Y004649D01*
X004598Y004730D02*
X004950Y004730D01*
X007751Y005960D02*
X008025Y005960D01*
X007751Y005960D02*
X007751Y006312D01*
X008025Y006312D01*
X008025Y005960D01*
X008025Y006041D02*
X007751Y006041D01*
X007751Y006122D02*
X008025Y006122D01*
X008025Y006203D02*
X007751Y006203D01*
X007751Y006284D02*
X008025Y006284D01*
X008263Y005960D02*
X008537Y005960D01*
X008263Y005960D02*
X008263Y006312D01*
X008537Y006312D01*
X008537Y005960D01*
X008537Y006041D02*
X008263Y006041D01*
X008263Y006122D02*
X008537Y006122D01*
X008537Y006203D02*
X008263Y006203D01*
X008263Y006284D02*
X008537Y006284D01*
X009202Y005532D02*
X009202Y005258D01*
X008850Y005258D01*
X008850Y005532D01*
X009202Y005532D01*
X009202Y005339D02*
X008850Y005339D01*
X008850Y005420D02*
X009202Y005420D01*
X009202Y005501D02*
X008850Y005501D01*
X009202Y005021D02*
X009202Y004747D01*
X008850Y004747D01*
X008850Y005021D01*
X009202Y005021D01*
X009202Y004828D02*
X008850Y004828D01*
X008850Y004909D02*
X009202Y004909D01*
X009202Y004990D02*
X008850Y004990D01*
X009968Y005018D02*
X009968Y005292D01*
X010320Y005292D01*
X010320Y005018D01*
X009968Y005018D01*
X009968Y005099D02*
X010320Y005099D01*
X010320Y005180D02*
X009968Y005180D01*
X009968Y005261D02*
X010320Y005261D01*
X009968Y004780D02*
X009968Y004506D01*
X009968Y004780D02*
X010320Y004780D01*
X010320Y004506D01*
X009968Y004506D01*
X009968Y004587D02*
X010320Y004587D01*
X010320Y004668D02*
X009968Y004668D01*
X009968Y004749D02*
X010320Y004749D01*
X005624Y002361D02*
X005350Y002361D01*
X005350Y002713D01*
X005624Y002713D01*
X005624Y002361D01*
X005624Y002442D02*
X005350Y002442D01*
X005350Y002523D02*
X005624Y002523D01*
X005624Y002604D02*
X005350Y002604D01*
X005350Y002685D02*
X005624Y002685D01*
D11*
X006215Y001817D02*
X006647Y001817D01*
X006647Y001423D01*
X006215Y001423D01*
X006215Y001817D01*
X006215Y001503D02*
X006647Y001503D01*
X006647Y001583D02*
X006215Y001583D01*
X006215Y001663D02*
X006647Y001663D01*
X006647Y001743D02*
X006215Y001743D01*
X006885Y001817D02*
X007317Y001817D01*
X007317Y001423D01*
X006885Y001423D01*
X006885Y001817D01*
X006885Y001503D02*
X007317Y001503D01*
X007317Y001583D02*
X006885Y001583D01*
X006885Y001663D02*
X007317Y001663D01*
X007317Y001743D02*
X006885Y001743D01*
X006865Y001274D02*
X007297Y001274D01*
X007297Y000880D01*
X006865Y000880D01*
X006865Y001274D01*
X006865Y000960D02*
X007297Y000960D01*
X007297Y001040D02*
X006865Y001040D01*
X006865Y001120D02*
X007297Y001120D01*
X007297Y001200D02*
X006865Y001200D01*
X007534Y001274D02*
X007966Y001274D01*
X007966Y000880D01*
X007534Y000880D01*
X007534Y001274D01*
X007534Y000960D02*
X007966Y000960D01*
X007966Y001040D02*
X007534Y001040D01*
X007534Y001120D02*
X007966Y001120D01*
X007966Y001200D02*
X007534Y001200D01*
X005947Y004408D02*
X005947Y004840D01*
X006341Y004840D01*
X006341Y004408D01*
X005947Y004408D01*
X005947Y004488D02*
X006341Y004488D01*
X006341Y004568D02*
X005947Y004568D01*
X005947Y004648D02*
X006341Y004648D01*
X006341Y004728D02*
X005947Y004728D01*
X005947Y004808D02*
X006341Y004808D01*
X006869Y005025D02*
X006869Y004593D01*
X006475Y004593D01*
X006475Y005025D01*
X006869Y005025D01*
X006869Y004673D02*
X006475Y004673D01*
X006475Y004753D02*
X006869Y004753D01*
X006869Y004833D02*
X006475Y004833D01*
X006475Y004913D02*
X006869Y004913D01*
X006869Y004993D02*
X006475Y004993D01*
X005947Y005077D02*
X005947Y005509D01*
X006341Y005509D01*
X006341Y005077D01*
X005947Y005077D01*
X005947Y005157D02*
X006341Y005157D01*
X006341Y005237D02*
X005947Y005237D01*
X005947Y005317D02*
X006341Y005317D01*
X006341Y005397D02*
X005947Y005397D01*
X005947Y005477D02*
X006341Y005477D01*
X006869Y005694D02*
X006869Y005262D01*
X006475Y005262D01*
X006475Y005694D01*
X006869Y005694D01*
X006869Y005342D02*
X006475Y005342D01*
X006475Y005422D02*
X006869Y005422D01*
X006869Y005502D02*
X006475Y005502D01*
X006475Y005582D02*
X006869Y005582D01*
X006869Y005662D02*
X006475Y005662D01*
D12*
X006346Y002606D02*
X007642Y002606D01*
X006346Y002606D02*
X006346Y003902D01*
X007642Y003902D01*
X007642Y002606D01*
X007642Y002688D02*
X006346Y002688D01*
X006346Y002770D02*
X007642Y002770D01*
X007642Y002852D02*
X006346Y002852D01*
X006346Y002934D02*
X007642Y002934D01*
X007642Y003016D02*
X006346Y003016D01*
X006346Y003098D02*
X007642Y003098D01*
X007642Y003180D02*
X006346Y003180D01*
X006346Y003262D02*
X007642Y003262D01*
X007642Y003344D02*
X006346Y003344D01*
X006346Y003426D02*
X007642Y003426D01*
X007642Y003508D02*
X006346Y003508D01*
X006346Y003590D02*
X007642Y003590D01*
X007642Y003672D02*
X006346Y003672D01*
X006346Y003754D02*
X007642Y003754D01*
X007642Y003836D02*
X006346Y003836D01*
D13*
X006097Y003746D03*
X006097Y003549D03*
X006097Y003352D03*
X006097Y003155D03*
X006097Y002958D03*
X006097Y002762D03*
X006097Y002565D03*
X007892Y002565D03*
X007892Y002762D03*
X007892Y002958D03*
X007892Y003155D03*
X007892Y003352D03*
X007892Y003549D03*
X007892Y003746D03*
X007892Y003943D03*
X006097Y003943D03*
D14*
X006306Y004151D03*
X006502Y004151D03*
X006699Y004151D03*
X006896Y004151D03*
X007093Y004151D03*
X007290Y004151D03*
X007487Y004151D03*
X007683Y004151D03*
X007683Y002356D03*
X007487Y002356D03*
X007290Y002356D03*
X007093Y002356D03*
X006896Y002356D03*
X006699Y002356D03*
X006502Y002356D03*
X006306Y002356D03*
D15*
X007614Y004456D02*
X007614Y005004D01*
X008084Y005004D01*
X008084Y004456D01*
X007614Y004456D01*
X007614Y004538D02*
X008084Y004538D01*
X008084Y004620D02*
X007614Y004620D01*
X007614Y004702D02*
X008084Y004702D01*
X008084Y004784D02*
X007614Y004784D01*
X007614Y004866D02*
X008084Y004866D01*
X008084Y004948D02*
X007614Y004948D01*
X008283Y005004D02*
X008283Y004456D01*
X008283Y005004D02*
X008753Y005004D01*
X008753Y004456D01*
X008283Y004456D01*
X008283Y004538D02*
X008753Y004538D01*
X008753Y004620D02*
X008283Y004620D01*
X008283Y004702D02*
X008753Y004702D01*
X008753Y004784D02*
X008283Y004784D01*
X008283Y004866D02*
X008753Y004866D01*
X008753Y004948D02*
X008283Y004948D01*
X008283Y005322D02*
X008283Y005870D01*
X008753Y005870D01*
X008753Y005322D01*
X008283Y005322D01*
X008283Y005404D02*
X008753Y005404D01*
X008753Y005486D02*
X008283Y005486D01*
X008283Y005568D02*
X008753Y005568D01*
X008753Y005650D02*
X008283Y005650D01*
X008283Y005732D02*
X008753Y005732D01*
X008753Y005814D02*
X008283Y005814D01*
X007614Y005870D02*
X007614Y005322D01*
X007614Y005870D02*
X008084Y005870D01*
X008084Y005322D01*
X007614Y005322D01*
X007614Y005404D02*
X008084Y005404D01*
X008084Y005486D02*
X007614Y005486D01*
X007614Y005568D02*
X008084Y005568D01*
X008084Y005650D02*
X007614Y005650D01*
X007614Y005732D02*
X008084Y005732D01*
X008084Y005814D02*
X007614Y005814D01*
D16*
X008959Y003758D03*
X008959Y003258D03*
X008959Y002758D03*
X008959Y002258D03*
X008959Y001758D03*
X008959Y001258D03*
X010250Y001258D03*
X010250Y001758D03*
X010250Y002258D03*
X010250Y002758D03*
X010250Y003258D03*
X010250Y003758D03*
M02*
