G75*
G70*
%OFA0B0*%
%FSLAX24Y24*%
%IPPOS*%
%LPD*%
%AMOC8*
5,1,8,0,0,1.08239X$1,22.5*
%
%ADD10R,0.0640X0.0640*%
%ADD11C,0.0640*%
%ADD12R,0.0920X0.0920*%
%ADD13C,0.0920*%
%ADD14C,0.0360*%
%ADD15C,0.0120*%
D10*
X005661Y003911D03*
X001661Y007911D03*
X001661Y011411D03*
X004661Y012911D03*
X001661Y014911D03*
X010661Y012911D03*
X016661Y012911D03*
X017411Y011411D03*
X018661Y008911D03*
X022661Y007911D03*
X022661Y011411D03*
X022661Y014911D03*
X013661Y003911D03*
D11*
X014661Y003911D03*
X015661Y003911D03*
X016661Y003911D03*
X017661Y003911D03*
X018661Y003911D03*
X017411Y006411D03*
X018661Y006911D03*
X019661Y006911D03*
X019661Y007911D03*
X018661Y007911D03*
X017411Y007411D03*
X017411Y008411D03*
X017411Y009411D03*
X017411Y010411D03*
X019661Y008911D03*
X022661Y010411D03*
X022661Y006911D03*
X022661Y005911D03*
X022661Y004911D03*
X022661Y003911D03*
X022661Y002911D03*
X022661Y001911D03*
X022661Y000911D03*
X010661Y003911D03*
X009661Y003911D03*
X008661Y003911D03*
X007661Y003911D03*
X006661Y003911D03*
X001661Y003911D03*
X001661Y002911D03*
X001661Y001911D03*
X001661Y000911D03*
X001661Y004911D03*
X001661Y005911D03*
X001661Y006911D03*
X001661Y010411D03*
X005661Y012911D03*
X006661Y012911D03*
X007661Y012911D03*
X008661Y012911D03*
X009661Y012911D03*
X011661Y012911D03*
X012661Y012911D03*
X013661Y012911D03*
X014661Y012911D03*
X015661Y012911D03*
X017661Y012911D03*
X022661Y013911D03*
X001661Y013911D03*
D12*
X006161Y015161D03*
D13*
X012161Y015161D03*
D14*
X012161Y011911D03*
X011161Y011911D03*
X010161Y011911D03*
X009161Y011911D03*
X009661Y009911D03*
X010411Y009411D03*
X010411Y008661D03*
X010411Y007911D03*
X010661Y007411D03*
X010911Y006911D03*
X011161Y006411D03*
X012411Y005911D03*
X012911Y006661D03*
X014161Y007161D03*
X014661Y007661D03*
X015161Y008161D03*
X015911Y008911D03*
X016411Y008011D03*
X011911Y005161D03*
X013161Y011911D03*
X014161Y011911D03*
X015211Y011911D03*
D15*
X000371Y016451D02*
X000371Y000371D01*
X023944Y000371D01*
X023951Y016451D01*
X000371Y016451D01*
X000371Y016402D02*
X023951Y016402D01*
X023951Y016283D02*
X000371Y016283D01*
X000371Y016165D02*
X023951Y016165D01*
X023951Y016046D02*
X000371Y016046D01*
X000371Y015928D02*
X023951Y015928D01*
X023951Y015809D02*
X000371Y015809D01*
X000371Y015690D02*
X005544Y015690D01*
X005541Y015688D02*
X005541Y014635D01*
X005635Y014541D01*
X006688Y014541D01*
X006781Y014635D01*
X006781Y015688D01*
X006688Y015781D01*
X005635Y015781D01*
X005541Y015688D01*
X005541Y015572D02*
X000371Y015572D01*
X000371Y015453D02*
X005541Y015453D01*
X005541Y015335D02*
X002104Y015335D01*
X002141Y015298D02*
X002048Y015391D01*
X001275Y015391D01*
X001181Y015298D01*
X001181Y014525D01*
X001275Y014431D01*
X002048Y014431D01*
X002141Y014525D01*
X002141Y015298D01*
X002141Y015216D02*
X005541Y015216D01*
X005541Y015098D02*
X002141Y015098D01*
X002141Y014979D02*
X005541Y014979D01*
X005541Y014861D02*
X002141Y014861D01*
X002141Y014742D02*
X005541Y014742D01*
X005553Y014624D02*
X002141Y014624D01*
X002121Y014505D02*
X022201Y014505D01*
X022181Y014525D02*
X022275Y014431D01*
X023048Y014431D01*
X023141Y014525D01*
X023141Y015298D01*
X023048Y015391D01*
X022275Y015391D01*
X022181Y015298D01*
X022181Y014525D01*
X022181Y014624D02*
X012472Y014624D01*
X012486Y014631D02*
X012565Y014688D01*
X012634Y014757D01*
X012691Y014836D01*
X012736Y014923D01*
X012766Y015016D01*
X012780Y015106D01*
X012216Y015106D01*
X012216Y014542D01*
X012306Y014557D01*
X012399Y014587D01*
X012486Y014631D01*
X012619Y014742D02*
X022181Y014742D01*
X022181Y014861D02*
X012704Y014861D01*
X012754Y014979D02*
X022181Y014979D01*
X022181Y015098D02*
X012779Y015098D01*
X012780Y015216D02*
X022181Y015216D01*
X022219Y015335D02*
X012757Y015335D01*
X012766Y015306D02*
X012736Y015399D01*
X012691Y015486D01*
X012634Y015565D01*
X012565Y015634D01*
X012486Y015691D01*
X012399Y015736D01*
X012306Y015766D01*
X012216Y015780D01*
X012216Y015216D01*
X012780Y015216D01*
X012766Y015306D01*
X012708Y015453D02*
X023951Y015453D01*
X023951Y015335D02*
X023104Y015335D01*
X023141Y015216D02*
X023951Y015216D01*
X023951Y015098D02*
X023141Y015098D01*
X023141Y014979D02*
X023951Y014979D01*
X023950Y014861D02*
X023141Y014861D01*
X023141Y014742D02*
X023950Y014742D01*
X023950Y014624D02*
X023141Y014624D01*
X023121Y014505D02*
X023950Y014505D01*
X023950Y014386D02*
X022729Y014386D01*
X022704Y014386D02*
X022619Y014386D01*
X022619Y014390D02*
X022549Y014379D01*
X022477Y014356D01*
X022410Y014322D01*
X022349Y014277D01*
X022295Y014224D01*
X022251Y014163D01*
X022216Y014096D01*
X022193Y014024D01*
X022182Y013954D01*
X022619Y013954D01*
X022619Y014390D01*
X022594Y014386D02*
X001729Y014386D01*
X001704Y014386D02*
X001619Y014386D01*
X001619Y014390D02*
X001549Y014379D01*
X001477Y014356D01*
X001410Y014322D01*
X001349Y014277D01*
X001295Y014224D01*
X001251Y014163D01*
X001216Y014096D01*
X001193Y014024D01*
X001182Y013954D01*
X001619Y013954D01*
X001619Y014390D01*
X001594Y014386D02*
X000371Y014386D01*
X000371Y014268D02*
X001339Y014268D01*
X001244Y014149D02*
X000371Y014149D01*
X000371Y014031D02*
X001195Y014031D01*
X001182Y013869D02*
X001193Y013799D01*
X001216Y013727D01*
X001251Y013660D01*
X001295Y013599D01*
X001349Y013545D01*
X001410Y013501D01*
X001477Y013466D01*
X001549Y013443D01*
X001619Y013432D01*
X001619Y013869D01*
X001704Y013869D01*
X001704Y013954D01*
X002140Y013954D01*
X002129Y014024D01*
X002106Y014096D01*
X002072Y014163D01*
X002027Y014224D01*
X001974Y014277D01*
X001913Y014322D01*
X001846Y014356D01*
X001774Y014379D01*
X001704Y014390D01*
X001704Y013954D01*
X001619Y013954D01*
X001619Y013869D01*
X001182Y013869D01*
X001195Y013794D02*
X000371Y013794D01*
X000371Y013912D02*
X001619Y013912D01*
X001704Y013912D02*
X022619Y013912D01*
X022619Y013954D02*
X022619Y013869D01*
X022704Y013869D01*
X022704Y013954D01*
X023140Y013954D01*
X023129Y014024D01*
X023106Y014096D01*
X023072Y014163D01*
X023027Y014224D01*
X022974Y014277D01*
X022913Y014322D01*
X022846Y014356D01*
X022774Y014379D01*
X022704Y014390D01*
X022704Y013954D01*
X022619Y013954D01*
X022619Y014031D02*
X022704Y014031D01*
X022704Y014149D02*
X022619Y014149D01*
X022619Y014268D02*
X022704Y014268D01*
X022983Y014268D02*
X023950Y014268D01*
X023950Y014149D02*
X023079Y014149D01*
X023127Y014031D02*
X023950Y014031D01*
X023950Y013912D02*
X022704Y013912D01*
X022704Y013869D02*
X023140Y013869D01*
X023129Y013799D01*
X023106Y013727D01*
X023072Y013660D01*
X023027Y013599D01*
X022974Y013545D01*
X022913Y013501D01*
X022846Y013466D01*
X022774Y013443D01*
X022704Y013432D01*
X022704Y013869D01*
X022704Y013794D02*
X022619Y013794D01*
X022619Y013869D02*
X022619Y013432D01*
X022549Y013443D01*
X022477Y013466D01*
X022410Y013501D01*
X022349Y013545D01*
X022295Y013599D01*
X022251Y013660D01*
X022216Y013727D01*
X022193Y013799D01*
X022182Y013869D01*
X022619Y013869D01*
X022619Y013675D02*
X022704Y013675D01*
X022704Y013557D02*
X022619Y013557D01*
X022619Y013438D02*
X022704Y013438D01*
X022742Y013438D02*
X023950Y013438D01*
X023950Y013320D02*
X017916Y013320D01*
X017913Y013322D02*
X017846Y013356D01*
X017774Y013379D01*
X017704Y013390D01*
X017704Y012954D01*
X017619Y012954D01*
X017619Y013390D01*
X017549Y013379D01*
X017477Y013356D01*
X017410Y013322D01*
X017349Y013277D01*
X017295Y013224D01*
X017251Y013163D01*
X017216Y013096D01*
X017193Y013024D01*
X017182Y012954D01*
X017619Y012954D01*
X017619Y012869D01*
X017182Y012869D01*
X017193Y012799D01*
X017216Y012727D01*
X017251Y012660D01*
X017295Y012599D01*
X017349Y012545D01*
X017410Y012501D01*
X017477Y012466D01*
X017549Y012443D01*
X017619Y012432D01*
X017619Y012869D01*
X017704Y012869D01*
X017704Y012954D01*
X018140Y012954D01*
X018129Y013024D01*
X018106Y013096D01*
X018072Y013163D01*
X018027Y013224D01*
X017974Y013277D01*
X017913Y013322D01*
X018044Y013201D02*
X023950Y013201D01*
X023950Y013082D02*
X018110Y013082D01*
X018139Y012964D02*
X023950Y012964D01*
X023949Y012845D02*
X018137Y012845D01*
X018140Y012869D02*
X017704Y012869D01*
X017704Y012432D01*
X017774Y012443D01*
X017846Y012466D01*
X017913Y012501D01*
X017974Y012545D01*
X018027Y012599D01*
X018072Y012660D01*
X018106Y012727D01*
X018129Y012799D01*
X018140Y012869D01*
X018106Y012727D02*
X023949Y012727D01*
X023949Y012608D02*
X018034Y012608D01*
X017891Y012490D02*
X023949Y012490D01*
X023949Y012371D02*
X000371Y012371D01*
X000371Y012253D02*
X023949Y012253D01*
X023949Y012134D02*
X000371Y012134D01*
X000371Y012016D02*
X023949Y012016D01*
X023949Y011897D02*
X000371Y011897D01*
X000371Y011779D02*
X001181Y011779D01*
X001181Y011798D02*
X001275Y011891D01*
X002048Y011891D01*
X002141Y011798D01*
X002141Y011025D01*
X002048Y010931D01*
X001275Y010931D01*
X001181Y011025D01*
X001181Y011798D01*
X001181Y011660D02*
X000371Y011660D01*
X000371Y011541D02*
X001181Y011541D01*
X001181Y011423D02*
X000371Y011423D01*
X000371Y011304D02*
X001181Y011304D01*
X001181Y011186D02*
X000371Y011186D01*
X000371Y011067D02*
X001181Y011067D01*
X001258Y010949D02*
X000371Y010949D01*
X000371Y010830D02*
X001426Y010830D01*
X001410Y010822D02*
X001349Y010777D01*
X001295Y010724D01*
X001251Y010663D01*
X001216Y010596D01*
X001193Y010524D01*
X001182Y010454D01*
X001619Y010454D01*
X001619Y010890D01*
X001549Y010879D01*
X001477Y010856D01*
X001410Y010822D01*
X001286Y010712D02*
X000371Y010712D01*
X000371Y010593D02*
X001216Y010593D01*
X001185Y010475D02*
X000371Y010475D01*
X000371Y010356D02*
X001184Y010356D01*
X001182Y010369D02*
X001193Y010299D01*
X001216Y010227D01*
X001251Y010160D01*
X001295Y010099D01*
X001349Y010045D01*
X001410Y010001D01*
X001477Y009966D01*
X001549Y009943D01*
X001619Y009932D01*
X001619Y010369D01*
X001704Y010369D01*
X001704Y010454D01*
X002140Y010454D01*
X002129Y010524D01*
X002106Y010596D01*
X002072Y010663D01*
X002027Y010724D01*
X001974Y010777D01*
X001913Y010822D01*
X001846Y010856D01*
X001774Y010879D01*
X001704Y010890D01*
X001704Y010454D01*
X001619Y010454D01*
X001619Y010369D01*
X001182Y010369D01*
X001213Y010237D02*
X000371Y010237D01*
X000371Y010119D02*
X001280Y010119D01*
X001410Y010000D02*
X000371Y010000D01*
X000371Y009882D02*
X009301Y009882D01*
X009301Y009840D02*
X009356Y009707D01*
X009457Y009606D01*
X009590Y009551D01*
X009733Y009551D01*
X009865Y009606D01*
X009930Y009671D01*
X010162Y009671D01*
X010106Y009615D01*
X010051Y009483D01*
X010051Y009340D01*
X010106Y009207D01*
X010207Y009106D01*
X010340Y009051D01*
X010483Y009051D01*
X010615Y009106D01*
X010680Y009171D01*
X013812Y009171D01*
X014801Y008182D01*
X014801Y008090D01*
X014850Y007973D01*
X014733Y008021D01*
X014641Y008021D01*
X013865Y008797D01*
X013797Y008865D01*
X013709Y008901D01*
X010680Y008901D01*
X010615Y008966D01*
X010483Y009021D01*
X010340Y009021D01*
X010207Y008966D01*
X010106Y008865D01*
X010051Y008733D01*
X010051Y008590D01*
X010106Y008457D01*
X010207Y008356D01*
X010340Y008301D01*
X010483Y008301D01*
X010615Y008356D01*
X010680Y008421D01*
X013562Y008421D01*
X014301Y007682D01*
X014301Y007590D01*
X014350Y007473D01*
X014233Y007521D01*
X014141Y007521D01*
X013615Y008047D01*
X013547Y008115D01*
X013459Y008151D01*
X010680Y008151D01*
X010615Y008216D01*
X010483Y008271D01*
X010340Y008271D01*
X010207Y008216D01*
X010106Y008115D01*
X010051Y007983D01*
X010051Y007840D01*
X010106Y007707D01*
X010207Y007606D01*
X010331Y007555D01*
X010301Y007483D01*
X010301Y007340D01*
X010356Y007207D01*
X010457Y007106D01*
X010581Y007055D01*
X010551Y006983D01*
X010551Y006840D01*
X010606Y006707D01*
X010707Y006606D01*
X010831Y006555D01*
X010801Y006483D01*
X010801Y006340D01*
X010856Y006207D01*
X010921Y006142D01*
X010921Y005864D01*
X010958Y005775D01*
X011025Y005708D01*
X011551Y005182D01*
X011551Y005090D01*
X011606Y004957D01*
X011707Y004856D01*
X011840Y004801D01*
X011983Y004801D01*
X012115Y004856D01*
X012216Y004957D01*
X012271Y005090D01*
X012271Y005233D01*
X012216Y005365D01*
X012115Y005466D01*
X011983Y005521D01*
X011891Y005521D01*
X011401Y006011D01*
X011401Y006142D01*
X011466Y006207D01*
X011776Y006207D01*
X011658Y006326D02*
X011515Y006326D01*
X011521Y006340D02*
X011521Y006462D01*
X012051Y005932D01*
X012051Y005840D01*
X012106Y005707D01*
X012207Y005606D01*
X012340Y005551D01*
X012483Y005551D01*
X012615Y005606D01*
X012716Y005707D01*
X012771Y005840D01*
X012771Y005983D01*
X012716Y006115D01*
X012615Y006216D01*
X012483Y006271D01*
X012391Y006271D01*
X011615Y007047D01*
X011547Y007115D01*
X011459Y007151D01*
X011180Y007151D01*
X011160Y007171D01*
X012062Y007171D01*
X012551Y006682D01*
X012551Y006590D01*
X012606Y006457D01*
X012707Y006356D01*
X012840Y006301D01*
X012983Y006301D01*
X013115Y006356D01*
X013216Y006457D01*
X013271Y006590D01*
X013271Y006733D01*
X013216Y006865D01*
X013115Y006966D01*
X012983Y007021D01*
X012891Y007021D01*
X012365Y007547D01*
X012297Y007615D01*
X012209Y007651D01*
X010930Y007651D01*
X010910Y007671D01*
X013312Y007671D01*
X013801Y007182D01*
X013801Y007090D01*
X013856Y006957D01*
X013957Y006856D01*
X014090Y006801D01*
X014233Y006801D01*
X014365Y006856D01*
X014466Y006957D01*
X014521Y007090D01*
X014521Y007233D01*
X014473Y007350D01*
X014590Y007301D01*
X014733Y007301D01*
X014865Y007356D01*
X014966Y007457D01*
X015021Y007590D01*
X015021Y007733D01*
X014973Y007850D01*
X015090Y007801D01*
X015233Y007801D01*
X015365Y007856D01*
X015466Y007957D01*
X015521Y008090D01*
X015521Y008233D01*
X015466Y008365D01*
X015365Y008466D01*
X015233Y008521D01*
X015141Y008521D01*
X014115Y009547D01*
X014047Y009615D01*
X013959Y009651D01*
X010680Y009651D01*
X010660Y009671D01*
X014812Y009671D01*
X015551Y008932D01*
X015551Y008840D01*
X015606Y008707D01*
X015707Y008606D01*
X015840Y008551D01*
X015983Y008551D01*
X016115Y008606D01*
X016216Y008707D01*
X016271Y008840D01*
X016271Y008983D01*
X016216Y009115D01*
X016115Y009216D01*
X015983Y009271D01*
X015891Y009271D01*
X015115Y010047D01*
X015047Y010115D01*
X014959Y010151D01*
X009930Y010151D01*
X009865Y010216D01*
X009733Y010271D01*
X009590Y010271D01*
X009457Y010216D01*
X009356Y010115D01*
X009301Y009983D01*
X009301Y009840D01*
X009333Y009763D02*
X000371Y009763D01*
X000371Y009645D02*
X009419Y009645D01*
X009661Y009911D02*
X014911Y009911D01*
X015911Y008911D01*
X016243Y009052D02*
X017092Y009052D01*
X017139Y009004D02*
X017316Y008931D01*
X017507Y008931D01*
X017683Y009004D01*
X017818Y009139D01*
X017891Y009316D01*
X017891Y009507D01*
X017818Y009683D01*
X017683Y009818D01*
X017507Y009891D01*
X017316Y009891D01*
X017139Y009818D01*
X017004Y009683D01*
X016931Y009507D01*
X016931Y009316D01*
X017004Y009139D01*
X017139Y009004D01*
X017310Y008933D02*
X016271Y008933D01*
X016261Y008815D02*
X017136Y008815D01*
X017139Y008818D02*
X017004Y008683D01*
X016931Y008507D01*
X016931Y008316D01*
X017004Y008139D01*
X017139Y008004D01*
X017316Y007931D01*
X017507Y007931D01*
X017683Y008004D01*
X017818Y008139D01*
X017891Y008316D01*
X017891Y008507D01*
X017818Y008683D01*
X017683Y008818D01*
X017507Y008891D01*
X017316Y008891D01*
X017139Y008818D01*
X017018Y008696D02*
X016205Y008696D01*
X016047Y008578D02*
X016961Y008578D01*
X016931Y008459D02*
X015372Y008459D01*
X015477Y008341D02*
X016931Y008341D01*
X016970Y008222D02*
X015521Y008222D01*
X015521Y008104D02*
X017040Y008104D01*
X017186Y007985D02*
X015478Y007985D01*
X015376Y007867D02*
X017256Y007867D01*
X017316Y007891D02*
X017139Y007818D01*
X017004Y007683D01*
X016931Y007507D01*
X016931Y007316D01*
X017004Y007139D01*
X017139Y007004D01*
X017316Y006931D01*
X017507Y006931D01*
X017683Y007004D01*
X017818Y007139D01*
X017891Y007316D01*
X017891Y007507D01*
X017818Y007683D01*
X017683Y007818D01*
X017507Y007891D01*
X017316Y007891D01*
X017566Y007867D02*
X018181Y007867D01*
X018181Y007816D02*
X018254Y007639D01*
X018389Y007504D01*
X018566Y007431D01*
X018757Y007431D01*
X018933Y007504D01*
X019068Y007639D01*
X019141Y007816D01*
X019141Y008007D01*
X019068Y008183D01*
X018933Y008318D01*
X018757Y008391D01*
X018566Y008391D01*
X018389Y008318D01*
X018254Y008183D01*
X018181Y008007D01*
X018181Y007816D01*
X018209Y007748D02*
X017753Y007748D01*
X017840Y007629D02*
X018264Y007629D01*
X018383Y007511D02*
X017889Y007511D01*
X017891Y007392D02*
X023947Y007392D01*
X023947Y007274D02*
X022977Y007274D01*
X022933Y007318D02*
X022757Y007391D01*
X022566Y007391D01*
X022389Y007318D01*
X022254Y007183D01*
X022181Y007007D01*
X022181Y006816D01*
X022254Y006639D01*
X022389Y006504D01*
X022566Y006431D01*
X022757Y006431D01*
X022933Y006504D01*
X023068Y006639D01*
X023141Y006816D01*
X023141Y007007D01*
X023068Y007183D01*
X022933Y007318D01*
X023048Y007431D02*
X023141Y007525D01*
X023141Y008298D01*
X023048Y008391D01*
X022275Y008391D01*
X022181Y008298D01*
X022181Y007525D01*
X022275Y007431D01*
X023048Y007431D01*
X023127Y007511D02*
X023947Y007511D01*
X023947Y007629D02*
X023141Y007629D01*
X023141Y007748D02*
X023947Y007748D01*
X023947Y007867D02*
X023141Y007867D01*
X023141Y007985D02*
X023947Y007985D01*
X023947Y008104D02*
X023141Y008104D01*
X023141Y008222D02*
X023947Y008222D01*
X023947Y008341D02*
X023098Y008341D01*
X022224Y008341D02*
X019879Y008341D01*
X019933Y008318D02*
X019757Y008391D01*
X019566Y008391D01*
X019389Y008318D01*
X019254Y008183D01*
X019181Y008007D01*
X019181Y007816D01*
X019254Y007639D01*
X019389Y007504D01*
X019566Y007431D01*
X019757Y007431D01*
X019933Y007504D01*
X020068Y007639D01*
X020141Y007816D01*
X020141Y008007D01*
X020068Y008183D01*
X019933Y008318D01*
X020029Y008222D02*
X022181Y008222D01*
X022181Y008104D02*
X020101Y008104D01*
X020141Y007985D02*
X022181Y007985D01*
X022181Y007867D02*
X020141Y007867D01*
X020113Y007748D02*
X022181Y007748D01*
X022181Y007629D02*
X020058Y007629D01*
X019940Y007511D02*
X022195Y007511D01*
X022345Y007274D02*
X019977Y007274D01*
X019933Y007318D02*
X020068Y007183D01*
X020141Y007007D01*
X020141Y006816D01*
X020068Y006639D01*
X019933Y006504D01*
X019757Y006431D01*
X019566Y006431D01*
X019389Y006504D01*
X019254Y006639D01*
X019181Y006816D01*
X019181Y007007D01*
X019254Y007183D01*
X019389Y007318D01*
X019566Y007391D01*
X019757Y007391D01*
X019933Y007318D01*
X020080Y007155D02*
X022243Y007155D01*
X022194Y007037D02*
X020129Y007037D01*
X020141Y006918D02*
X022181Y006918D01*
X022188Y006800D02*
X020135Y006800D01*
X020085Y006681D02*
X022237Y006681D01*
X022331Y006563D02*
X019991Y006563D01*
X019788Y006444D02*
X022535Y006444D01*
X022566Y006391D02*
X022389Y006318D01*
X022254Y006183D01*
X022181Y006007D01*
X022181Y005816D01*
X022254Y005639D01*
X022389Y005504D01*
X022566Y005431D01*
X022757Y005431D01*
X022933Y005504D01*
X023068Y005639D01*
X023141Y005816D01*
X023141Y006007D01*
X023068Y006183D01*
X022933Y006318D01*
X022757Y006391D01*
X022566Y006391D01*
X022407Y006326D02*
X017891Y006326D01*
X017891Y006316D02*
X017818Y006139D01*
X017683Y006004D01*
X017507Y005931D01*
X017316Y005931D01*
X017139Y006004D01*
X017004Y006139D01*
X016931Y006316D01*
X016931Y006507D01*
X017004Y006683D01*
X017139Y006818D01*
X017316Y006891D01*
X017507Y006891D01*
X017683Y006818D01*
X017818Y006683D01*
X017891Y006507D01*
X017891Y006316D01*
X017846Y006207D02*
X022278Y006207D01*
X022215Y006088D02*
X017767Y006088D01*
X017600Y005970D02*
X022181Y005970D01*
X022181Y005851D02*
X012771Y005851D01*
X012771Y005970D02*
X017222Y005970D01*
X017055Y006088D02*
X012728Y006088D01*
X012625Y006207D02*
X016976Y006207D01*
X016931Y006326D02*
X013041Y006326D01*
X013203Y006444D02*
X016931Y006444D01*
X016954Y006563D02*
X013260Y006563D01*
X013271Y006681D02*
X017004Y006681D01*
X017121Y006800D02*
X013244Y006800D01*
X013163Y006918D02*
X013895Y006918D01*
X013823Y007037D02*
X012875Y007037D01*
X012757Y007155D02*
X013801Y007155D01*
X013709Y007274D02*
X012638Y007274D01*
X012519Y007392D02*
X013591Y007392D01*
X013472Y007511D02*
X012401Y007511D01*
X012261Y007629D02*
X013354Y007629D01*
X013411Y007911D02*
X010411Y007911D01*
X010089Y007748D02*
X002141Y007748D01*
X002141Y007629D02*
X010184Y007629D01*
X010313Y007511D02*
X002127Y007511D01*
X002141Y007525D02*
X002141Y008298D01*
X002048Y008391D01*
X001275Y008391D01*
X001181Y008298D01*
X001181Y007525D01*
X001275Y007431D01*
X002048Y007431D01*
X002141Y007525D01*
X001933Y007318D02*
X001757Y007391D01*
X001566Y007391D01*
X001389Y007318D01*
X001254Y007183D01*
X001181Y007007D01*
X001181Y006816D01*
X001254Y006639D01*
X001389Y006504D01*
X001566Y006431D01*
X001757Y006431D01*
X001933Y006504D01*
X002068Y006639D01*
X002141Y006816D01*
X002141Y007007D01*
X002068Y007183D01*
X001933Y007318D01*
X001977Y007274D02*
X010328Y007274D01*
X010301Y007392D02*
X000371Y007392D01*
X000371Y007274D02*
X001345Y007274D01*
X001243Y007155D02*
X000371Y007155D01*
X000371Y007037D02*
X001194Y007037D01*
X001181Y006918D02*
X000371Y006918D01*
X000371Y006800D02*
X001188Y006800D01*
X001237Y006681D02*
X000371Y006681D01*
X000371Y006563D02*
X001331Y006563D01*
X001535Y006444D02*
X000371Y006444D01*
X000371Y006326D02*
X001407Y006326D01*
X001389Y006318D02*
X001254Y006183D01*
X001181Y006007D01*
X001181Y005816D01*
X001254Y005639D01*
X001389Y005504D01*
X001566Y005431D01*
X001757Y005431D01*
X001933Y005504D01*
X002068Y005639D01*
X002141Y005816D01*
X002141Y006007D01*
X002068Y006183D01*
X001933Y006318D01*
X001757Y006391D01*
X001566Y006391D01*
X001389Y006318D01*
X001278Y006207D02*
X000371Y006207D01*
X000371Y006088D02*
X001215Y006088D01*
X001181Y005970D02*
X000371Y005970D01*
X000371Y005851D02*
X001181Y005851D01*
X001216Y005733D02*
X000371Y005733D01*
X000371Y005614D02*
X001279Y005614D01*
X001410Y005496D02*
X000371Y005496D01*
X000371Y005377D02*
X001532Y005377D01*
X001566Y005391D02*
X001389Y005318D01*
X001254Y005183D01*
X001181Y005007D01*
X001181Y004816D01*
X001254Y004639D01*
X001389Y004504D01*
X001566Y004431D01*
X001757Y004431D01*
X001933Y004504D01*
X002068Y004639D01*
X002141Y004816D01*
X002141Y005007D01*
X002068Y005183D01*
X001933Y005318D01*
X001757Y005391D01*
X001566Y005391D01*
X001791Y005377D02*
X011356Y005377D01*
X011474Y005259D02*
X001993Y005259D01*
X002086Y005140D02*
X011551Y005140D01*
X011579Y005022D02*
X002135Y005022D01*
X002141Y004903D02*
X011660Y004903D01*
X011911Y005161D02*
X011161Y005911D01*
X011161Y006411D01*
X010801Y006444D02*
X001788Y006444D01*
X001915Y006326D02*
X010807Y006326D01*
X010856Y006207D02*
X002044Y006207D01*
X002107Y006088D02*
X010921Y006088D01*
X010921Y005970D02*
X002141Y005970D01*
X002141Y005851D02*
X010926Y005851D01*
X011000Y005733D02*
X002107Y005733D01*
X002043Y005614D02*
X011119Y005614D01*
X011237Y005496D02*
X001912Y005496D01*
X001330Y005259D02*
X000371Y005259D01*
X000371Y005140D02*
X001236Y005140D01*
X001187Y005022D02*
X000371Y005022D01*
X000371Y004903D02*
X001181Y004903D01*
X001194Y004784D02*
X000371Y004784D01*
X000371Y004666D02*
X001243Y004666D01*
X001346Y004547D02*
X000371Y004547D01*
X000371Y004429D02*
X023945Y004429D01*
X023946Y004547D02*
X022976Y004547D01*
X022933Y004504D02*
X023068Y004639D01*
X023141Y004816D01*
X023141Y005007D01*
X023068Y005183D01*
X022933Y005318D01*
X022757Y005391D01*
X022566Y005391D01*
X022389Y005318D01*
X022254Y005183D01*
X022181Y005007D01*
X022181Y004816D01*
X022254Y004639D01*
X022389Y004504D01*
X022566Y004431D01*
X022757Y004431D01*
X022933Y004504D01*
X022933Y004318D02*
X022757Y004391D01*
X022566Y004391D01*
X022389Y004318D01*
X022254Y004183D01*
X022181Y004007D01*
X022181Y003816D01*
X022254Y003639D01*
X022389Y003504D01*
X022566Y003431D01*
X022757Y003431D01*
X022933Y003504D01*
X023068Y003639D01*
X023141Y003816D01*
X023141Y004007D01*
X023068Y004183D01*
X022933Y004318D01*
X022941Y004310D02*
X023945Y004310D01*
X023945Y004192D02*
X023060Y004192D01*
X023114Y004073D02*
X023945Y004073D01*
X023945Y003955D02*
X023141Y003955D01*
X023141Y003836D02*
X023945Y003836D01*
X023945Y003718D02*
X023101Y003718D01*
X023028Y003599D02*
X023945Y003599D01*
X023945Y003480D02*
X022876Y003480D01*
X022827Y003362D02*
X023945Y003362D01*
X023945Y003243D02*
X023008Y003243D01*
X023068Y003183D02*
X022933Y003318D01*
X022757Y003391D01*
X022566Y003391D01*
X022389Y003318D01*
X022254Y003183D01*
X022181Y003007D01*
X022181Y002816D01*
X022254Y002639D01*
X022389Y002504D01*
X022566Y002431D01*
X022757Y002431D01*
X022933Y002504D01*
X023068Y002639D01*
X023141Y002816D01*
X023141Y003007D01*
X023068Y003183D01*
X023092Y003125D02*
X023945Y003125D01*
X023945Y003006D02*
X023141Y003006D01*
X023141Y002888D02*
X023945Y002888D01*
X023945Y002769D02*
X023122Y002769D01*
X023073Y002651D02*
X023945Y002651D01*
X023945Y002532D02*
X022961Y002532D01*
X022933Y002318D02*
X022757Y002391D01*
X022566Y002391D01*
X022389Y002318D01*
X022254Y002183D01*
X022181Y002007D01*
X022181Y001816D01*
X022254Y001639D01*
X022389Y001504D01*
X022566Y001431D01*
X022757Y001431D01*
X022933Y001504D01*
X023068Y001639D01*
X023141Y001816D01*
X023141Y002007D01*
X023068Y002183D01*
X022933Y002318D01*
X022956Y002295D02*
X023944Y002295D01*
X023944Y002176D02*
X023071Y002176D01*
X023120Y002058D02*
X023944Y002058D01*
X023944Y001939D02*
X023141Y001939D01*
X023141Y001821D02*
X023944Y001821D01*
X023944Y001702D02*
X023094Y001702D01*
X023013Y001584D02*
X023944Y001584D01*
X023944Y001465D02*
X022839Y001465D01*
X022757Y001391D02*
X022566Y001391D01*
X022389Y001318D01*
X022254Y001183D01*
X022181Y001007D01*
X022181Y000816D01*
X022254Y000639D01*
X022389Y000504D01*
X022566Y000431D01*
X022757Y000431D01*
X022933Y000504D01*
X023068Y000639D01*
X023141Y000816D01*
X023141Y001007D01*
X023068Y001183D01*
X022933Y001318D01*
X022757Y001391D01*
X022864Y001347D02*
X023944Y001347D01*
X023944Y001228D02*
X023023Y001228D01*
X023099Y001110D02*
X023944Y001110D01*
X023944Y000991D02*
X023141Y000991D01*
X023141Y000873D02*
X023944Y000873D01*
X023944Y000754D02*
X023116Y000754D01*
X023064Y000635D02*
X023944Y000635D01*
X023944Y000517D02*
X022946Y000517D01*
X022377Y000517D02*
X001946Y000517D01*
X001933Y000504D02*
X002068Y000639D01*
X002141Y000816D01*
X002141Y001007D01*
X002068Y001183D01*
X001933Y001318D01*
X001757Y001391D01*
X001566Y001391D01*
X001389Y001318D01*
X001254Y001183D01*
X001181Y001007D01*
X001181Y000816D01*
X001254Y000639D01*
X001389Y000504D01*
X001566Y000431D01*
X001757Y000431D01*
X001933Y000504D01*
X002064Y000635D02*
X022258Y000635D01*
X022207Y000754D02*
X002116Y000754D01*
X002141Y000873D02*
X022181Y000873D01*
X022181Y000991D02*
X002141Y000991D01*
X002099Y001110D02*
X022224Y001110D01*
X022299Y001228D02*
X002023Y001228D01*
X001864Y001347D02*
X022458Y001347D01*
X022484Y001465D02*
X001839Y001465D01*
X001757Y001431D02*
X001933Y001504D01*
X002068Y001639D01*
X002141Y001816D01*
X002141Y002007D01*
X002068Y002183D01*
X001933Y002318D01*
X001757Y002391D01*
X001566Y002391D01*
X001389Y002318D01*
X001254Y002183D01*
X001181Y002007D01*
X001181Y001816D01*
X001254Y001639D01*
X001389Y001504D01*
X001566Y001431D01*
X001757Y001431D01*
X001484Y001465D02*
X000371Y001465D01*
X000371Y001347D02*
X001458Y001347D01*
X001299Y001228D02*
X000371Y001228D01*
X000371Y001110D02*
X001224Y001110D01*
X001181Y000991D02*
X000371Y000991D01*
X000371Y000873D02*
X001181Y000873D01*
X001207Y000754D02*
X000371Y000754D01*
X000371Y000635D02*
X001258Y000635D01*
X001377Y000517D02*
X000371Y000517D01*
X000371Y000398D02*
X023944Y000398D01*
X022310Y001584D02*
X002013Y001584D01*
X002094Y001702D02*
X022228Y001702D01*
X022181Y001821D02*
X002141Y001821D01*
X002141Y001939D02*
X022181Y001939D01*
X022202Y002058D02*
X002120Y002058D01*
X002071Y002176D02*
X022252Y002176D01*
X022366Y002295D02*
X001956Y002295D01*
X001933Y002504D02*
X002068Y002639D01*
X002141Y002816D01*
X002141Y003007D01*
X002068Y003183D01*
X001933Y003318D01*
X001757Y003391D01*
X001566Y003391D01*
X001389Y003318D01*
X001254Y003183D01*
X001181Y003007D01*
X001181Y002816D01*
X001254Y002639D01*
X001389Y002504D01*
X001566Y002431D01*
X001757Y002431D01*
X001933Y002504D01*
X001961Y002532D02*
X022362Y002532D01*
X022250Y002651D02*
X002073Y002651D01*
X002122Y002769D02*
X022201Y002769D01*
X022181Y002888D02*
X002141Y002888D01*
X002141Y003006D02*
X022181Y003006D01*
X022230Y003125D02*
X002092Y003125D01*
X002008Y003243D02*
X022315Y003243D01*
X022495Y003362D02*
X001827Y003362D01*
X001757Y003431D02*
X001566Y003431D01*
X001389Y003504D01*
X001254Y003639D01*
X001181Y003816D01*
X001181Y004007D01*
X001254Y004183D01*
X001389Y004318D01*
X001566Y004391D01*
X001757Y004391D01*
X001933Y004318D01*
X002068Y004183D01*
X002141Y004007D01*
X002141Y003816D01*
X002068Y003639D01*
X001933Y003504D01*
X001757Y003431D01*
X001876Y003480D02*
X005226Y003480D01*
X005181Y003525D02*
X005275Y003431D01*
X006048Y003431D01*
X006141Y003525D01*
X006141Y004298D01*
X006048Y004391D01*
X005275Y004391D01*
X005181Y004298D01*
X005181Y003525D01*
X005181Y003599D02*
X002028Y003599D01*
X002101Y003718D02*
X005181Y003718D01*
X005181Y003836D02*
X002141Y003836D01*
X002141Y003955D02*
X005181Y003955D01*
X005181Y004073D02*
X002114Y004073D01*
X002060Y004192D02*
X005181Y004192D01*
X005194Y004310D02*
X001941Y004310D01*
X001976Y004547D02*
X022346Y004547D01*
X022243Y004666D02*
X002079Y004666D01*
X002128Y004784D02*
X022194Y004784D01*
X022181Y004903D02*
X012162Y004903D01*
X012243Y005022D02*
X022187Y005022D01*
X022236Y005140D02*
X012271Y005140D01*
X012261Y005259D02*
X022330Y005259D01*
X022532Y005377D02*
X012204Y005377D01*
X012044Y005496D02*
X022410Y005496D01*
X022279Y005614D02*
X012623Y005614D01*
X012727Y005733D02*
X022216Y005733D01*
X022791Y005377D02*
X023946Y005377D01*
X023946Y005259D02*
X022993Y005259D01*
X023086Y005140D02*
X023946Y005140D01*
X023946Y005022D02*
X023135Y005022D01*
X023141Y004903D02*
X023946Y004903D01*
X023946Y004784D02*
X023128Y004784D01*
X023079Y004666D02*
X023946Y004666D01*
X023946Y005496D02*
X022912Y005496D01*
X023043Y005614D02*
X023946Y005614D01*
X023946Y005733D02*
X023107Y005733D01*
X023141Y005851D02*
X023946Y005851D01*
X023946Y005970D02*
X023141Y005970D01*
X023107Y006088D02*
X023946Y006088D01*
X023946Y006207D02*
X023044Y006207D01*
X022915Y006326D02*
X023946Y006326D01*
X023946Y006444D02*
X022788Y006444D01*
X022991Y006563D02*
X023946Y006563D01*
X023947Y006681D02*
X023085Y006681D01*
X023135Y006800D02*
X023947Y006800D01*
X023947Y006918D02*
X023141Y006918D01*
X023129Y007037D02*
X023947Y007037D01*
X023947Y007155D02*
X023080Y007155D01*
X023947Y008459D02*
X019824Y008459D01*
X019757Y008431D02*
X019933Y008504D01*
X020068Y008639D01*
X020141Y008816D01*
X020141Y009007D01*
X020068Y009183D01*
X019933Y009318D01*
X019757Y009391D01*
X019566Y009391D01*
X019389Y009318D01*
X019254Y009183D01*
X019181Y009007D01*
X019181Y008816D01*
X019254Y008639D01*
X019389Y008504D01*
X019566Y008431D01*
X019757Y008431D01*
X019498Y008459D02*
X019076Y008459D01*
X019048Y008431D02*
X019141Y008525D01*
X019141Y009298D01*
X019048Y009391D01*
X018275Y009391D01*
X018181Y009298D01*
X018181Y008525D01*
X018275Y008431D01*
X019048Y008431D01*
X019141Y008578D02*
X019316Y008578D01*
X019231Y008696D02*
X019141Y008696D01*
X019141Y008815D02*
X019182Y008815D01*
X019181Y008933D02*
X019141Y008933D01*
X019141Y009052D02*
X019200Y009052D01*
X019249Y009171D02*
X019141Y009171D01*
X019141Y009289D02*
X019360Y009289D01*
X019962Y009289D02*
X023948Y009289D01*
X023948Y009171D02*
X020073Y009171D01*
X020122Y009052D02*
X023948Y009052D01*
X023948Y008933D02*
X020141Y008933D01*
X020141Y008815D02*
X023948Y008815D01*
X023947Y008696D02*
X020092Y008696D01*
X020007Y008578D02*
X023947Y008578D01*
X023948Y009408D02*
X017891Y009408D01*
X017883Y009526D02*
X023948Y009526D01*
X023948Y009645D02*
X017834Y009645D01*
X017738Y009763D02*
X023948Y009763D01*
X023948Y009882D02*
X017529Y009882D01*
X017507Y009931D02*
X017683Y010004D01*
X017818Y010139D01*
X017891Y010316D01*
X017891Y010507D01*
X017818Y010683D01*
X017683Y010818D01*
X017507Y010891D01*
X017316Y010891D01*
X017139Y010818D01*
X017004Y010683D01*
X016931Y010507D01*
X016931Y010316D01*
X017004Y010139D01*
X017139Y010004D01*
X017316Y009931D01*
X017507Y009931D01*
X017674Y010000D02*
X022410Y010000D01*
X022410Y010001D02*
X022477Y009966D01*
X022549Y009943D01*
X022619Y009932D01*
X022619Y010369D01*
X022704Y010369D01*
X022704Y010454D01*
X023140Y010454D01*
X023129Y010524D01*
X023106Y010596D01*
X023072Y010663D01*
X023027Y010724D01*
X022974Y010777D01*
X022913Y010822D01*
X022846Y010856D01*
X022774Y010879D01*
X022704Y010890D01*
X022704Y010454D01*
X022619Y010454D01*
X022619Y010890D01*
X022549Y010879D01*
X022477Y010856D01*
X022410Y010822D01*
X022349Y010777D01*
X022295Y010724D01*
X022251Y010663D01*
X022216Y010596D01*
X022193Y010524D01*
X022182Y010454D01*
X022619Y010454D01*
X022619Y010369D01*
X022182Y010369D01*
X022193Y010299D01*
X022216Y010227D01*
X022251Y010160D01*
X022295Y010099D01*
X022349Y010045D01*
X022410Y010001D01*
X022280Y010119D02*
X017798Y010119D01*
X017859Y010237D02*
X022213Y010237D01*
X022184Y010356D02*
X017891Y010356D01*
X017891Y010475D02*
X022185Y010475D01*
X022216Y010593D02*
X017855Y010593D01*
X017790Y010712D02*
X022286Y010712D01*
X022426Y010830D02*
X017654Y010830D01*
X017798Y010931D02*
X017891Y011025D01*
X017891Y011798D01*
X017798Y011891D01*
X017025Y011891D01*
X016931Y011798D01*
X016931Y011025D01*
X017025Y010931D01*
X017798Y010931D01*
X017815Y010949D02*
X022258Y010949D01*
X022275Y010931D02*
X022181Y011025D01*
X022181Y011798D01*
X022275Y011891D01*
X023048Y011891D01*
X023141Y011798D01*
X023141Y011025D01*
X023048Y010931D01*
X022275Y010931D01*
X022181Y011067D02*
X017891Y011067D01*
X017891Y011186D02*
X022181Y011186D01*
X022181Y011304D02*
X017891Y011304D01*
X017891Y011423D02*
X022181Y011423D01*
X022181Y011541D02*
X017891Y011541D01*
X017891Y011660D02*
X022181Y011660D01*
X022181Y011779D02*
X017891Y011779D01*
X016931Y011779D02*
X002141Y011779D01*
X002141Y011660D02*
X016931Y011660D01*
X016931Y011541D02*
X002141Y011541D01*
X002141Y011423D02*
X016931Y011423D01*
X016931Y011304D02*
X002141Y011304D01*
X002141Y011186D02*
X016931Y011186D01*
X016931Y011067D02*
X002141Y011067D01*
X002065Y010949D02*
X017008Y010949D01*
X017168Y010830D02*
X001896Y010830D01*
X002036Y010712D02*
X017033Y010712D01*
X016967Y010593D02*
X002107Y010593D01*
X002137Y010475D02*
X016931Y010475D01*
X016931Y010356D02*
X002138Y010356D01*
X002140Y010369D02*
X001704Y010369D01*
X001704Y009932D01*
X001774Y009943D01*
X001846Y009966D01*
X001913Y010001D01*
X001974Y010045D01*
X002027Y010099D01*
X002072Y010160D01*
X002106Y010227D01*
X002129Y010299D01*
X002140Y010369D01*
X002109Y010237D02*
X009508Y010237D01*
X009360Y010119D02*
X002042Y010119D01*
X001912Y010000D02*
X009309Y010000D01*
X009814Y010237D02*
X016964Y010237D01*
X017025Y010119D02*
X015037Y010119D01*
X015162Y010000D02*
X017149Y010000D01*
X017293Y009882D02*
X015280Y009882D01*
X015399Y009763D02*
X017084Y009763D01*
X016988Y009645D02*
X015517Y009645D01*
X015636Y009526D02*
X016939Y009526D01*
X016931Y009408D02*
X015754Y009408D01*
X015873Y009289D02*
X016942Y009289D01*
X016991Y009171D02*
X016161Y009171D01*
X015550Y008933D02*
X014728Y008933D01*
X014847Y008815D02*
X015561Y008815D01*
X015617Y008696D02*
X014966Y008696D01*
X015084Y008578D02*
X015775Y008578D01*
X015161Y008161D02*
X013911Y009411D01*
X010411Y009411D01*
X010051Y009408D02*
X000371Y009408D01*
X000371Y009526D02*
X010069Y009526D01*
X010136Y009645D02*
X009904Y009645D01*
X010072Y009289D02*
X000371Y009289D01*
X000371Y009171D02*
X010143Y009171D01*
X010338Y009052D02*
X000371Y009052D01*
X000371Y008933D02*
X010174Y008933D01*
X010085Y008815D02*
X000371Y008815D01*
X000371Y008696D02*
X010051Y008696D01*
X010056Y008578D02*
X000371Y008578D01*
X000371Y008459D02*
X010105Y008459D01*
X010244Y008341D02*
X002098Y008341D01*
X002141Y008222D02*
X010221Y008222D01*
X010101Y008104D02*
X002141Y008104D01*
X002141Y007985D02*
X010052Y007985D01*
X010051Y007867D02*
X002141Y007867D01*
X001224Y008341D02*
X000371Y008341D01*
X000371Y008222D02*
X001181Y008222D01*
X001181Y008104D02*
X000371Y008104D01*
X000371Y007985D02*
X001181Y007985D01*
X001181Y007867D02*
X000371Y007867D01*
X000371Y007748D02*
X001181Y007748D01*
X001181Y007629D02*
X000371Y007629D01*
X000371Y007511D02*
X001195Y007511D01*
X002080Y007155D02*
X010408Y007155D01*
X010574Y007037D02*
X002129Y007037D01*
X002141Y006918D02*
X010551Y006918D01*
X010568Y006800D02*
X002135Y006800D01*
X002085Y006681D02*
X010632Y006681D01*
X010812Y006563D02*
X001991Y006563D01*
X001381Y004310D02*
X000371Y004310D01*
X000371Y004192D02*
X001263Y004192D01*
X001209Y004073D02*
X000371Y004073D01*
X000371Y003955D02*
X001181Y003955D01*
X001181Y003836D02*
X000371Y003836D01*
X000371Y003718D02*
X001222Y003718D01*
X001295Y003599D02*
X000371Y003599D01*
X000371Y003480D02*
X001447Y003480D01*
X001495Y003362D02*
X000371Y003362D01*
X000371Y003243D02*
X001315Y003243D01*
X001230Y003125D02*
X000371Y003125D01*
X000371Y003006D02*
X001181Y003006D01*
X001181Y002888D02*
X000371Y002888D01*
X000371Y002769D02*
X001201Y002769D01*
X001250Y002651D02*
X000371Y002651D01*
X000371Y002532D02*
X001362Y002532D01*
X001366Y002295D02*
X000371Y002295D01*
X000371Y002176D02*
X001252Y002176D01*
X001202Y002058D02*
X000371Y002058D01*
X000371Y001939D02*
X001181Y001939D01*
X001181Y001821D02*
X000371Y001821D01*
X000371Y001702D02*
X001228Y001702D01*
X001310Y001584D02*
X000371Y001584D01*
X000371Y002414D02*
X023944Y002414D01*
X022447Y003480D02*
X018873Y003480D01*
X018846Y003466D02*
X018913Y003501D01*
X018974Y003545D01*
X019027Y003599D01*
X019072Y003660D01*
X019106Y003727D01*
X019129Y003799D01*
X019140Y003869D01*
X018704Y003869D01*
X018704Y003954D01*
X018619Y003954D01*
X018619Y004390D01*
X018549Y004379D01*
X018477Y004356D01*
X018410Y004322D01*
X018349Y004277D01*
X018295Y004224D01*
X018251Y004163D01*
X018216Y004096D01*
X018193Y004024D01*
X018182Y003954D01*
X018619Y003954D01*
X018619Y003869D01*
X018182Y003869D01*
X018193Y003799D01*
X018216Y003727D01*
X018251Y003660D01*
X018295Y003599D01*
X018028Y003599D01*
X018068Y003639D02*
X018141Y003816D01*
X018141Y004007D01*
X018068Y004183D01*
X017933Y004318D01*
X017757Y004391D01*
X017566Y004391D01*
X017389Y004318D01*
X017254Y004183D01*
X017181Y004007D01*
X017181Y003816D01*
X017254Y003639D01*
X017389Y003504D01*
X017566Y003431D01*
X017757Y003431D01*
X017933Y003504D01*
X018068Y003639D01*
X018101Y003718D02*
X018221Y003718D01*
X018187Y003836D02*
X018141Y003836D01*
X018141Y003955D02*
X018182Y003955D01*
X018209Y004073D02*
X018114Y004073D01*
X018060Y004192D02*
X018272Y004192D01*
X018394Y004310D02*
X017941Y004310D01*
X017381Y004310D02*
X016941Y004310D01*
X016933Y004318D02*
X016757Y004391D01*
X016566Y004391D01*
X016389Y004318D01*
X016254Y004183D01*
X016181Y004007D01*
X016181Y003816D01*
X016254Y003639D01*
X016389Y003504D01*
X016566Y003431D01*
X016757Y003431D01*
X016933Y003504D01*
X017068Y003639D01*
X017141Y003816D01*
X017141Y004007D01*
X017068Y004183D01*
X016933Y004318D01*
X017060Y004192D02*
X017263Y004192D01*
X017209Y004073D02*
X017114Y004073D01*
X017141Y003955D02*
X017181Y003955D01*
X017181Y003836D02*
X017141Y003836D01*
X017101Y003718D02*
X017222Y003718D01*
X017295Y003599D02*
X017028Y003599D01*
X016876Y003480D02*
X017447Y003480D01*
X017876Y003480D02*
X018449Y003480D01*
X018477Y003466D02*
X018549Y003443D01*
X018619Y003432D01*
X018619Y003869D01*
X018704Y003869D01*
X018704Y003432D01*
X018774Y003443D01*
X018846Y003466D01*
X018704Y003480D02*
X018619Y003480D01*
X018619Y003599D02*
X018704Y003599D01*
X018704Y003718D02*
X018619Y003718D01*
X018619Y003836D02*
X018704Y003836D01*
X018704Y003954D02*
X019140Y003954D01*
X019129Y004024D01*
X019106Y004096D01*
X019072Y004163D01*
X019027Y004224D01*
X018974Y004277D01*
X018913Y004322D01*
X018846Y004356D01*
X018774Y004379D01*
X018704Y004390D01*
X018704Y003954D01*
X018704Y003955D02*
X018619Y003955D01*
X018619Y004073D02*
X018704Y004073D01*
X018704Y004192D02*
X018619Y004192D01*
X018619Y004310D02*
X018704Y004310D01*
X018929Y004310D02*
X022381Y004310D01*
X022263Y004192D02*
X019051Y004192D01*
X019113Y004073D02*
X022209Y004073D01*
X022181Y003955D02*
X019140Y003955D01*
X019135Y003836D02*
X022181Y003836D01*
X022222Y003718D02*
X019101Y003718D01*
X019028Y003599D02*
X022295Y003599D01*
X018477Y003466D02*
X018410Y003501D01*
X018349Y003545D01*
X018295Y003599D01*
X016447Y003480D02*
X015876Y003480D01*
X015933Y003504D02*
X016068Y003639D01*
X016141Y003816D01*
X016141Y004007D01*
X016068Y004183D01*
X015933Y004318D01*
X015757Y004391D01*
X015566Y004391D01*
X015389Y004318D01*
X015254Y004183D01*
X015181Y004007D01*
X015181Y003816D01*
X015254Y003639D01*
X015389Y003504D01*
X015566Y003431D01*
X015757Y003431D01*
X015933Y003504D01*
X016028Y003599D02*
X016295Y003599D01*
X016222Y003718D02*
X016101Y003718D01*
X016141Y003836D02*
X016181Y003836D01*
X016181Y003955D02*
X016141Y003955D01*
X016114Y004073D02*
X016209Y004073D01*
X016263Y004192D02*
X016060Y004192D01*
X015941Y004310D02*
X016381Y004310D01*
X015381Y004310D02*
X014929Y004310D01*
X014913Y004322D02*
X014846Y004356D01*
X014774Y004379D01*
X014704Y004390D01*
X014704Y003954D01*
X014619Y003954D01*
X014619Y004390D01*
X014549Y004379D01*
X014477Y004356D01*
X014410Y004322D01*
X014349Y004277D01*
X014295Y004224D01*
X014251Y004163D01*
X014216Y004096D01*
X014193Y004024D01*
X014182Y003954D01*
X014619Y003954D01*
X014619Y003869D01*
X014182Y003869D01*
X014193Y003799D01*
X014216Y003727D01*
X014251Y003660D01*
X014295Y003599D01*
X014141Y003599D01*
X014141Y003525D02*
X014048Y003431D01*
X013275Y003431D01*
X013181Y003525D01*
X013181Y004298D01*
X013275Y004391D01*
X014048Y004391D01*
X014141Y004298D01*
X014141Y003525D01*
X014097Y003480D02*
X014449Y003480D01*
X014477Y003466D02*
X014549Y003443D01*
X014619Y003432D01*
X014619Y003869D01*
X014704Y003869D01*
X014704Y003954D01*
X015140Y003954D01*
X015129Y004024D01*
X015106Y004096D01*
X015072Y004163D01*
X015027Y004224D01*
X014974Y004277D01*
X014913Y004322D01*
X015051Y004192D02*
X015263Y004192D01*
X015209Y004073D02*
X015113Y004073D01*
X015140Y003955D02*
X015181Y003955D01*
X015140Y003869D02*
X014704Y003869D01*
X014704Y003432D01*
X014774Y003443D01*
X014846Y003466D01*
X014913Y003501D01*
X014974Y003545D01*
X015027Y003599D01*
X015072Y003660D01*
X015106Y003727D01*
X015129Y003799D01*
X015140Y003869D01*
X015135Y003836D02*
X015181Y003836D01*
X015222Y003718D02*
X015101Y003718D01*
X015028Y003599D02*
X015295Y003599D01*
X015447Y003480D02*
X014873Y003480D01*
X014704Y003480D02*
X014619Y003480D01*
X014619Y003599D02*
X014704Y003599D01*
X014704Y003718D02*
X014619Y003718D01*
X014619Y003836D02*
X014704Y003836D01*
X014704Y003955D02*
X014619Y003955D01*
X014619Y004073D02*
X014704Y004073D01*
X014704Y004192D02*
X014619Y004192D01*
X014619Y004310D02*
X014704Y004310D01*
X014394Y004310D02*
X014128Y004310D01*
X014141Y004192D02*
X014272Y004192D01*
X014209Y004073D02*
X014141Y004073D01*
X014141Y003955D02*
X014182Y003955D01*
X014187Y003836D02*
X014141Y003836D01*
X014141Y003718D02*
X014221Y003718D01*
X014295Y003599D02*
X014349Y003545D01*
X014410Y003501D01*
X014477Y003466D01*
X013226Y003480D02*
X010873Y003480D01*
X010846Y003466D02*
X010913Y003501D01*
X010974Y003545D01*
X011027Y003599D01*
X011072Y003660D01*
X011106Y003727D01*
X011129Y003799D01*
X011140Y003869D01*
X010704Y003869D01*
X010704Y003954D01*
X011140Y003954D01*
X011129Y004024D01*
X011106Y004096D01*
X011072Y004163D01*
X011027Y004224D01*
X010974Y004277D01*
X010913Y004322D01*
X010846Y004356D01*
X010774Y004379D01*
X010704Y004390D01*
X010704Y003954D01*
X010619Y003954D01*
X010619Y004390D01*
X010549Y004379D01*
X010477Y004356D01*
X010410Y004322D01*
X010349Y004277D01*
X010295Y004224D01*
X010251Y004163D01*
X010216Y004096D01*
X010193Y004024D01*
X010182Y003954D01*
X010619Y003954D01*
X010619Y003869D01*
X010182Y003869D01*
X010193Y003799D01*
X010216Y003727D01*
X010251Y003660D01*
X010295Y003599D01*
X010028Y003599D01*
X010068Y003639D02*
X010141Y003816D01*
X010141Y004007D01*
X010068Y004183D01*
X009933Y004318D01*
X009757Y004391D01*
X009566Y004391D01*
X009389Y004318D01*
X009254Y004183D01*
X009181Y004007D01*
X009181Y003816D01*
X009254Y003639D01*
X009389Y003504D01*
X009566Y003431D01*
X009757Y003431D01*
X009933Y003504D01*
X010068Y003639D01*
X010101Y003718D02*
X010221Y003718D01*
X010187Y003836D02*
X010141Y003836D01*
X010141Y003955D02*
X010182Y003955D01*
X010209Y004073D02*
X010114Y004073D01*
X010060Y004192D02*
X010272Y004192D01*
X010394Y004310D02*
X009941Y004310D01*
X009381Y004310D02*
X008941Y004310D01*
X008933Y004318D02*
X008757Y004391D01*
X008566Y004391D01*
X008389Y004318D01*
X008254Y004183D01*
X008181Y004007D01*
X008181Y003816D01*
X008254Y003639D01*
X008389Y003504D01*
X008566Y003431D01*
X008757Y003431D01*
X008933Y003504D01*
X009068Y003639D01*
X009141Y003816D01*
X009141Y004007D01*
X009068Y004183D01*
X008933Y004318D01*
X009060Y004192D02*
X009263Y004192D01*
X009209Y004073D02*
X009114Y004073D01*
X009141Y003955D02*
X009181Y003955D01*
X009181Y003836D02*
X009141Y003836D01*
X009101Y003718D02*
X009222Y003718D01*
X009295Y003599D02*
X009028Y003599D01*
X008876Y003480D02*
X009447Y003480D01*
X009876Y003480D02*
X010449Y003480D01*
X010477Y003466D02*
X010410Y003501D01*
X010349Y003545D01*
X010295Y003599D01*
X010477Y003466D02*
X010549Y003443D01*
X010619Y003432D01*
X010619Y003869D01*
X010704Y003869D01*
X010704Y003432D01*
X010774Y003443D01*
X010846Y003466D01*
X010704Y003480D02*
X010619Y003480D01*
X010619Y003599D02*
X010704Y003599D01*
X010704Y003718D02*
X010619Y003718D01*
X010619Y003836D02*
X010704Y003836D01*
X010704Y003955D02*
X010619Y003955D01*
X010619Y004073D02*
X010704Y004073D01*
X010704Y004192D02*
X010619Y004192D01*
X010619Y004310D02*
X010704Y004310D01*
X010929Y004310D02*
X013194Y004310D01*
X013181Y004192D02*
X011051Y004192D01*
X011113Y004073D02*
X013181Y004073D01*
X013181Y003955D02*
X011140Y003955D01*
X011135Y003836D02*
X013181Y003836D01*
X013181Y003718D02*
X011101Y003718D01*
X011028Y003599D02*
X013181Y003599D01*
X012199Y005614D02*
X011798Y005614D01*
X011679Y005733D02*
X012095Y005733D01*
X012051Y005851D02*
X011561Y005851D01*
X011442Y005970D02*
X012013Y005970D01*
X011895Y006088D02*
X011401Y006088D01*
X011466Y006207D02*
X011521Y006340D01*
X011521Y006444D02*
X011539Y006444D01*
X011862Y006800D02*
X012433Y006800D01*
X012315Y006918D02*
X011744Y006918D01*
X011625Y007037D02*
X012196Y007037D01*
X012078Y007155D02*
X011176Y007155D01*
X011411Y006911D02*
X010911Y006911D01*
X011411Y006911D02*
X012411Y005911D01*
X012336Y006326D02*
X012781Y006326D01*
X012619Y006444D02*
X012218Y006444D01*
X012099Y006563D02*
X012562Y006563D01*
X012551Y006681D02*
X011981Y006681D01*
X012161Y007411D02*
X012911Y006661D01*
X012161Y007411D02*
X010661Y007411D01*
X010601Y008222D02*
X013761Y008222D01*
X013879Y008104D02*
X013558Y008104D01*
X013677Y007985D02*
X013998Y007985D01*
X014116Y007867D02*
X013795Y007867D01*
X013914Y007748D02*
X014235Y007748D01*
X014301Y007629D02*
X014032Y007629D01*
X014258Y007511D02*
X014334Y007511D01*
X014504Y007274D02*
X016949Y007274D01*
X016931Y007392D02*
X014901Y007392D01*
X014989Y007511D02*
X016933Y007511D01*
X016982Y007629D02*
X015021Y007629D01*
X015015Y007748D02*
X017069Y007748D01*
X017637Y007985D02*
X018181Y007985D01*
X018221Y008104D02*
X017782Y008104D01*
X017852Y008222D02*
X018293Y008222D01*
X018444Y008341D02*
X017891Y008341D01*
X017891Y008459D02*
X018247Y008459D01*
X018181Y008578D02*
X017862Y008578D01*
X017805Y008696D02*
X018181Y008696D01*
X018181Y008815D02*
X017686Y008815D01*
X017512Y008933D02*
X018181Y008933D01*
X018181Y009052D02*
X017731Y009052D01*
X017831Y009171D02*
X018181Y009171D01*
X018181Y009289D02*
X017880Y009289D01*
X018879Y008341D02*
X019444Y008341D01*
X019293Y008222D02*
X019029Y008222D01*
X019101Y008104D02*
X019221Y008104D01*
X019181Y007985D02*
X019141Y007985D01*
X019141Y007867D02*
X019181Y007867D01*
X019209Y007748D02*
X019113Y007748D01*
X019058Y007629D02*
X019264Y007629D01*
X019383Y007511D02*
X018940Y007511D01*
X018933Y007318D02*
X018757Y007391D01*
X018566Y007391D01*
X018389Y007318D01*
X018254Y007183D01*
X018181Y007007D01*
X018181Y006816D01*
X018254Y006639D01*
X018389Y006504D01*
X018566Y006431D01*
X018757Y006431D01*
X018933Y006504D01*
X019068Y006639D01*
X019141Y006816D01*
X019141Y007007D01*
X019068Y007183D01*
X018933Y007318D01*
X018977Y007274D02*
X019345Y007274D01*
X019243Y007155D02*
X019080Y007155D01*
X019129Y007037D02*
X019194Y007037D01*
X019181Y006918D02*
X019141Y006918D01*
X019135Y006800D02*
X019188Y006800D01*
X019237Y006681D02*
X019085Y006681D01*
X018991Y006563D02*
X019331Y006563D01*
X019535Y006444D02*
X018788Y006444D01*
X018535Y006444D02*
X017891Y006444D01*
X017868Y006563D02*
X018331Y006563D01*
X018237Y006681D02*
X017819Y006681D01*
X017702Y006800D02*
X018188Y006800D01*
X018181Y006918D02*
X014427Y006918D01*
X014499Y007037D02*
X017107Y007037D01*
X016998Y007155D02*
X014521Y007155D01*
X014161Y007161D02*
X013411Y007911D01*
X013642Y008341D02*
X010578Y008341D01*
X010411Y008661D02*
X013661Y008661D01*
X014661Y007661D01*
X014820Y007985D02*
X014845Y007985D01*
X014801Y008104D02*
X014558Y008104D01*
X014440Y008222D02*
X014761Y008222D01*
X014642Y008341D02*
X014321Y008341D01*
X014203Y008459D02*
X014524Y008459D01*
X014405Y008578D02*
X014084Y008578D01*
X013966Y008696D02*
X014287Y008696D01*
X014168Y008815D02*
X013847Y008815D01*
X014050Y008933D02*
X010648Y008933D01*
X010485Y009052D02*
X013931Y009052D01*
X013813Y009171D02*
X010680Y009171D01*
X013975Y009645D02*
X014838Y009645D01*
X014957Y009526D02*
X014136Y009526D01*
X014254Y009408D02*
X015075Y009408D01*
X015194Y009289D02*
X014373Y009289D01*
X014491Y009171D02*
X015313Y009171D01*
X015431Y009052D02*
X014610Y009052D01*
X017716Y007037D02*
X018194Y007037D01*
X018243Y007155D02*
X017825Y007155D01*
X017874Y007274D02*
X018345Y007274D01*
X022619Y010000D02*
X022704Y010000D01*
X022704Y009932D02*
X022774Y009943D01*
X022846Y009966D01*
X022913Y010001D01*
X022974Y010045D01*
X023027Y010099D01*
X023072Y010160D01*
X023106Y010227D01*
X023129Y010299D01*
X023140Y010369D01*
X022704Y010369D01*
X022704Y009932D01*
X022912Y010000D02*
X023948Y010000D01*
X023948Y010119D02*
X023042Y010119D01*
X023109Y010237D02*
X023948Y010237D01*
X023948Y010356D02*
X023138Y010356D01*
X023137Y010475D02*
X023948Y010475D01*
X023948Y010593D02*
X023107Y010593D01*
X023036Y010712D02*
X023948Y010712D01*
X023949Y010830D02*
X022896Y010830D01*
X022704Y010830D02*
X022619Y010830D01*
X022619Y010712D02*
X022704Y010712D01*
X022704Y010593D02*
X022619Y010593D01*
X022619Y010475D02*
X022704Y010475D01*
X022704Y010356D02*
X022619Y010356D01*
X022619Y010237D02*
X022704Y010237D01*
X022704Y010119D02*
X022619Y010119D01*
X023065Y010949D02*
X023949Y010949D01*
X023949Y011067D02*
X023141Y011067D01*
X023141Y011186D02*
X023949Y011186D01*
X023949Y011304D02*
X023141Y011304D01*
X023141Y011423D02*
X023949Y011423D01*
X023949Y011541D02*
X023141Y011541D01*
X023141Y011660D02*
X023949Y011660D01*
X023949Y011779D02*
X023141Y011779D01*
X022580Y013438D02*
X001742Y013438D01*
X001774Y013443D02*
X001846Y013466D01*
X001913Y013501D01*
X001974Y013545D01*
X002027Y013599D01*
X002072Y013660D01*
X002106Y013727D01*
X002129Y013799D01*
X002140Y013869D01*
X001704Y013869D01*
X001704Y013432D01*
X001774Y013443D01*
X001704Y013438D02*
X001619Y013438D01*
X001580Y013438D02*
X000371Y013438D01*
X000371Y013320D02*
X004203Y013320D01*
X004181Y013298D02*
X004275Y013391D01*
X005048Y013391D01*
X005141Y013298D01*
X005141Y012525D01*
X005048Y012431D01*
X004275Y012431D01*
X004181Y012525D01*
X004181Y013298D01*
X004181Y013201D02*
X000371Y013201D01*
X000371Y013082D02*
X004181Y013082D01*
X004181Y012964D02*
X000371Y012964D01*
X000371Y012845D02*
X004181Y012845D01*
X004181Y012727D02*
X000371Y012727D01*
X000371Y012608D02*
X004181Y012608D01*
X004216Y012490D02*
X000371Y012490D01*
X000371Y013557D02*
X001337Y013557D01*
X001243Y013675D02*
X000371Y013675D01*
X000371Y014505D02*
X001201Y014505D01*
X001181Y014624D02*
X000371Y014624D01*
X000371Y014742D02*
X001181Y014742D01*
X001181Y014861D02*
X000371Y014861D01*
X000371Y014979D02*
X001181Y014979D01*
X001181Y015098D02*
X000371Y015098D01*
X000371Y015216D02*
X001181Y015216D01*
X001219Y015335D02*
X000371Y015335D01*
X001619Y014268D02*
X001704Y014268D01*
X001704Y014149D02*
X001619Y014149D01*
X001619Y014031D02*
X001704Y014031D01*
X001983Y014268D02*
X022339Y014268D01*
X022244Y014149D02*
X002079Y014149D01*
X002127Y014031D02*
X022195Y014031D01*
X022195Y013794D02*
X002128Y013794D01*
X002080Y013675D02*
X022243Y013675D01*
X022337Y013557D02*
X001985Y013557D01*
X001704Y013557D02*
X001619Y013557D01*
X001619Y013675D02*
X001704Y013675D01*
X001704Y013794D02*
X001619Y013794D01*
X005106Y012490D02*
X005424Y012490D01*
X005389Y012504D02*
X005566Y012431D01*
X005757Y012431D01*
X005933Y012504D01*
X006068Y012639D01*
X006141Y012816D01*
X006141Y013007D01*
X006068Y013183D01*
X005933Y013318D01*
X005757Y013391D01*
X005566Y013391D01*
X005389Y013318D01*
X005254Y013183D01*
X005181Y013007D01*
X005181Y012816D01*
X005254Y012639D01*
X005389Y012504D01*
X005285Y012608D02*
X005141Y012608D01*
X005141Y012727D02*
X005218Y012727D01*
X005181Y012845D02*
X005141Y012845D01*
X005141Y012964D02*
X005181Y012964D01*
X005213Y013082D02*
X005141Y013082D01*
X005141Y013201D02*
X005272Y013201D01*
X005393Y013320D02*
X005119Y013320D01*
X005930Y013320D02*
X006407Y013320D01*
X006410Y013322D02*
X006349Y013277D01*
X006295Y013224D01*
X006251Y013163D01*
X006216Y013096D01*
X006193Y013024D01*
X006182Y012954D01*
X006619Y012954D01*
X006619Y013390D01*
X006549Y013379D01*
X006477Y013356D01*
X006410Y013322D01*
X006279Y013201D02*
X006050Y013201D01*
X006110Y013082D02*
X006212Y013082D01*
X006184Y012964D02*
X006141Y012964D01*
X006182Y012869D02*
X006193Y012799D01*
X006216Y012727D01*
X006251Y012660D01*
X006295Y012599D01*
X006349Y012545D01*
X006410Y012501D01*
X006477Y012466D01*
X006549Y012443D01*
X006619Y012432D01*
X006619Y012869D01*
X006182Y012869D01*
X006186Y012845D02*
X006141Y012845D01*
X006104Y012727D02*
X006216Y012727D01*
X006288Y012608D02*
X006037Y012608D01*
X005898Y012490D02*
X006431Y012490D01*
X006619Y012490D02*
X006704Y012490D01*
X006704Y012432D02*
X006774Y012443D01*
X006846Y012466D01*
X006913Y012501D01*
X006974Y012545D01*
X007027Y012599D01*
X007072Y012660D01*
X007106Y012727D01*
X007129Y012799D01*
X007140Y012869D01*
X006704Y012869D01*
X006704Y012954D01*
X006619Y012954D01*
X006619Y012869D01*
X006704Y012869D01*
X006704Y012432D01*
X006704Y012608D02*
X006619Y012608D01*
X006619Y012727D02*
X006704Y012727D01*
X006704Y012845D02*
X006619Y012845D01*
X006619Y012964D02*
X006704Y012964D01*
X006704Y012954D02*
X006704Y013390D01*
X006774Y013379D01*
X006846Y013356D01*
X006913Y013322D01*
X006974Y013277D01*
X007027Y013224D01*
X007072Y013163D01*
X007106Y013096D01*
X007129Y013024D01*
X007140Y012954D01*
X006704Y012954D01*
X006704Y013082D02*
X006619Y013082D01*
X006619Y013201D02*
X006704Y013201D01*
X006704Y013320D02*
X006619Y013320D01*
X006916Y013320D02*
X007393Y013320D01*
X007389Y013318D02*
X007254Y013183D01*
X007181Y013007D01*
X007181Y012816D01*
X007254Y012639D01*
X007389Y012504D01*
X007566Y012431D01*
X007757Y012431D01*
X007933Y012504D01*
X008068Y012639D01*
X008141Y012816D01*
X008141Y013007D01*
X008068Y013183D01*
X007933Y013318D01*
X007757Y013391D01*
X007566Y013391D01*
X007389Y013318D01*
X007272Y013201D02*
X007044Y013201D01*
X007110Y013082D02*
X007213Y013082D01*
X007181Y012964D02*
X007139Y012964D01*
X007137Y012845D02*
X007181Y012845D01*
X007218Y012727D02*
X007106Y012727D01*
X007034Y012608D02*
X007285Y012608D01*
X007424Y012490D02*
X006891Y012490D01*
X007898Y012490D02*
X008424Y012490D01*
X008389Y012504D02*
X008566Y012431D01*
X008757Y012431D01*
X008933Y012504D01*
X009068Y012639D01*
X009141Y012816D01*
X009141Y013007D01*
X009068Y013183D01*
X008933Y013318D01*
X008757Y013391D01*
X008566Y013391D01*
X008389Y013318D01*
X008254Y013183D01*
X008181Y013007D01*
X008181Y012816D01*
X008254Y012639D01*
X008389Y012504D01*
X008285Y012608D02*
X008037Y012608D01*
X008104Y012727D02*
X008218Y012727D01*
X008181Y012845D02*
X008141Y012845D01*
X008141Y012964D02*
X008181Y012964D01*
X008213Y013082D02*
X008110Y013082D01*
X008050Y013201D02*
X008272Y013201D01*
X008393Y013320D02*
X007930Y013320D01*
X008930Y013320D02*
X009393Y013320D01*
X009389Y013318D02*
X009254Y013183D01*
X009181Y013007D01*
X009181Y012816D01*
X009254Y012639D01*
X009389Y012504D01*
X009566Y012431D01*
X009757Y012431D01*
X009933Y012504D01*
X010068Y012639D01*
X010141Y012816D01*
X010141Y013007D01*
X010068Y013183D01*
X009933Y013318D01*
X009757Y013391D01*
X009566Y013391D01*
X009389Y013318D01*
X009272Y013201D02*
X009050Y013201D01*
X009110Y013082D02*
X009213Y013082D01*
X009181Y012964D02*
X009141Y012964D01*
X009141Y012845D02*
X009181Y012845D01*
X009218Y012727D02*
X009104Y012727D01*
X009037Y012608D02*
X009285Y012608D01*
X009424Y012490D02*
X008898Y012490D01*
X009898Y012490D02*
X010216Y012490D01*
X010181Y012525D02*
X010275Y012431D01*
X011048Y012431D01*
X011141Y012525D01*
X011141Y013298D01*
X011048Y013391D01*
X010275Y013391D01*
X010181Y013298D01*
X010181Y012525D01*
X010181Y012608D02*
X010037Y012608D01*
X010104Y012727D02*
X010181Y012727D01*
X010181Y012845D02*
X010141Y012845D01*
X010141Y012964D02*
X010181Y012964D01*
X010181Y013082D02*
X010110Y013082D01*
X010050Y013201D02*
X010181Y013201D01*
X010203Y013320D02*
X009930Y013320D01*
X011119Y013320D02*
X011393Y013320D01*
X011389Y013318D02*
X011254Y013183D01*
X011181Y013007D01*
X011181Y012816D01*
X011254Y012639D01*
X011389Y012504D01*
X011566Y012431D01*
X011757Y012431D01*
X011933Y012504D01*
X012068Y012639D01*
X012141Y012816D01*
X012141Y013007D01*
X012068Y013183D01*
X011933Y013318D01*
X011757Y013391D01*
X011566Y013391D01*
X011389Y013318D01*
X011272Y013201D02*
X011141Y013201D01*
X011141Y013082D02*
X011213Y013082D01*
X011181Y012964D02*
X011141Y012964D01*
X011141Y012845D02*
X011181Y012845D01*
X011218Y012727D02*
X011141Y012727D01*
X011141Y012608D02*
X011285Y012608D01*
X011424Y012490D02*
X011106Y012490D01*
X011898Y012490D02*
X012424Y012490D01*
X012389Y012504D02*
X012254Y012639D01*
X012181Y012816D01*
X012181Y013007D01*
X012254Y013183D01*
X012389Y013318D01*
X012566Y013391D01*
X012757Y013391D01*
X012933Y013318D01*
X013068Y013183D01*
X013141Y013007D01*
X013141Y012816D01*
X013068Y012639D01*
X012933Y012504D01*
X012757Y012431D01*
X012566Y012431D01*
X012389Y012504D01*
X012285Y012608D02*
X012037Y012608D01*
X012104Y012727D02*
X012218Y012727D01*
X012181Y012845D02*
X012141Y012845D01*
X012141Y012964D02*
X012181Y012964D01*
X012213Y013082D02*
X012110Y013082D01*
X012050Y013201D02*
X012272Y013201D01*
X012393Y013320D02*
X011930Y013320D01*
X012930Y013320D02*
X013393Y013320D01*
X013389Y013318D02*
X013254Y013183D01*
X013181Y013007D01*
X013181Y012816D01*
X013254Y012639D01*
X013389Y012504D01*
X013566Y012431D01*
X013757Y012431D01*
X013933Y012504D01*
X014068Y012639D01*
X014141Y012816D01*
X014141Y013007D01*
X014068Y013183D01*
X013933Y013318D01*
X013757Y013391D01*
X013566Y013391D01*
X013389Y013318D01*
X013272Y013201D02*
X013050Y013201D01*
X013110Y013082D02*
X013213Y013082D01*
X013181Y012964D02*
X013141Y012964D01*
X013141Y012845D02*
X013181Y012845D01*
X013218Y012727D02*
X013104Y012727D01*
X013037Y012608D02*
X013285Y012608D01*
X013424Y012490D02*
X012898Y012490D01*
X013898Y012490D02*
X014424Y012490D01*
X014389Y012504D02*
X014566Y012431D01*
X014757Y012431D01*
X014933Y012504D01*
X015068Y012639D01*
X015141Y012816D01*
X015141Y013007D01*
X015068Y013183D01*
X014933Y013318D01*
X014757Y013391D01*
X014566Y013391D01*
X014389Y013318D01*
X014254Y013183D01*
X014181Y013007D01*
X014181Y012816D01*
X014254Y012639D01*
X014389Y012504D01*
X014285Y012608D02*
X014037Y012608D01*
X014104Y012727D02*
X014218Y012727D01*
X014181Y012845D02*
X014141Y012845D01*
X014141Y012964D02*
X014181Y012964D01*
X014213Y013082D02*
X014110Y013082D01*
X014050Y013201D02*
X014272Y013201D01*
X014393Y013320D02*
X013930Y013320D01*
X014930Y013320D02*
X015393Y013320D01*
X015389Y013318D02*
X015254Y013183D01*
X015181Y013007D01*
X015181Y012816D01*
X015254Y012639D01*
X015389Y012504D01*
X015566Y012431D01*
X015757Y012431D01*
X015933Y012504D01*
X016068Y012639D01*
X016141Y012816D01*
X016141Y013007D01*
X016068Y013183D01*
X015933Y013318D01*
X015757Y013391D01*
X015566Y013391D01*
X015389Y013318D01*
X015272Y013201D02*
X015050Y013201D01*
X015110Y013082D02*
X015213Y013082D01*
X015181Y012964D02*
X015141Y012964D01*
X015141Y012845D02*
X015181Y012845D01*
X015218Y012727D02*
X015104Y012727D01*
X015037Y012608D02*
X015285Y012608D01*
X015424Y012490D02*
X014898Y012490D01*
X015898Y012490D02*
X016216Y012490D01*
X016181Y012525D02*
X016275Y012431D01*
X017048Y012431D01*
X017141Y012525D01*
X017141Y013298D01*
X017048Y013391D01*
X016275Y013391D01*
X016181Y013298D01*
X016181Y012525D01*
X016181Y012608D02*
X016037Y012608D01*
X016104Y012727D02*
X016181Y012727D01*
X016181Y012845D02*
X016141Y012845D01*
X016141Y012964D02*
X016181Y012964D01*
X016181Y013082D02*
X016110Y013082D01*
X016050Y013201D02*
X016181Y013201D01*
X016203Y013320D02*
X015930Y013320D01*
X017119Y013320D02*
X017407Y013320D01*
X017279Y013201D02*
X017141Y013201D01*
X017141Y013082D02*
X017212Y013082D01*
X017184Y012964D02*
X017141Y012964D01*
X017141Y012845D02*
X017186Y012845D01*
X017216Y012727D02*
X017141Y012727D01*
X017141Y012608D02*
X017288Y012608D01*
X017431Y012490D02*
X017106Y012490D01*
X017619Y012490D02*
X017704Y012490D01*
X017704Y012608D02*
X017619Y012608D01*
X017619Y012727D02*
X017704Y012727D01*
X017704Y012845D02*
X017619Y012845D01*
X017619Y012964D02*
X017704Y012964D01*
X017704Y013082D02*
X017619Y013082D01*
X017619Y013201D02*
X017704Y013201D01*
X017704Y013320D02*
X017619Y013320D01*
X012627Y015572D02*
X023951Y015572D01*
X023951Y015690D02*
X012488Y015690D01*
X012216Y015690D02*
X012106Y015690D01*
X012106Y015780D02*
X012016Y015766D01*
X011923Y015736D01*
X011836Y015691D01*
X011757Y015634D01*
X011688Y015565D01*
X011631Y015486D01*
X011587Y015399D01*
X011557Y015306D01*
X011542Y015216D01*
X006781Y015216D01*
X006781Y015098D02*
X011544Y015098D01*
X011542Y015106D02*
X011557Y015016D01*
X011587Y014923D01*
X011631Y014836D01*
X011688Y014757D01*
X011757Y014688D01*
X011836Y014631D01*
X011923Y014587D01*
X012016Y014557D01*
X012106Y014542D01*
X012106Y015106D01*
X012216Y015106D01*
X012216Y015216D01*
X012106Y015216D01*
X012106Y015106D01*
X011542Y015106D01*
X011542Y015216D02*
X012106Y015216D01*
X012106Y015780D01*
X012106Y015572D02*
X012216Y015572D01*
X012216Y015453D02*
X012106Y015453D01*
X012106Y015335D02*
X012216Y015335D01*
X012216Y015098D02*
X012106Y015098D01*
X012106Y014979D02*
X012216Y014979D01*
X012216Y014861D02*
X012106Y014861D01*
X012106Y014742D02*
X012216Y014742D01*
X012216Y014624D02*
X012106Y014624D01*
X011851Y014624D02*
X006770Y014624D01*
X006781Y014742D02*
X011704Y014742D01*
X011619Y014861D02*
X006781Y014861D01*
X006781Y014979D02*
X011569Y014979D01*
X011566Y015335D02*
X006781Y015335D01*
X006781Y015453D02*
X011614Y015453D01*
X011695Y015572D02*
X006781Y015572D01*
X006778Y015690D02*
X011835Y015690D01*
X001704Y010830D02*
X001619Y010830D01*
X001619Y010712D02*
X001704Y010712D01*
X001704Y010593D02*
X001619Y010593D01*
X001619Y010475D02*
X001704Y010475D01*
X001704Y010356D02*
X001619Y010356D01*
X001619Y010237D02*
X001704Y010237D01*
X001704Y010119D02*
X001619Y010119D01*
X001619Y010000D02*
X001704Y010000D01*
X006477Y004356D02*
X006549Y004379D01*
X006619Y004390D01*
X006619Y003954D01*
X006704Y003954D01*
X006704Y004390D01*
X006774Y004379D01*
X006846Y004356D01*
X006913Y004322D01*
X006974Y004277D01*
X007027Y004224D01*
X007072Y004163D01*
X007106Y004096D01*
X007129Y004024D01*
X007140Y003954D01*
X006704Y003954D01*
X006704Y003869D01*
X007140Y003869D01*
X007129Y003799D01*
X007106Y003727D01*
X007072Y003660D01*
X007027Y003599D01*
X006974Y003545D01*
X006913Y003501D01*
X006846Y003466D01*
X006774Y003443D01*
X006704Y003432D01*
X006704Y003869D01*
X006619Y003869D01*
X006182Y003869D01*
X006193Y003799D01*
X006216Y003727D01*
X006251Y003660D01*
X006295Y003599D01*
X006141Y003599D01*
X006141Y003718D02*
X006221Y003718D01*
X006187Y003836D02*
X006141Y003836D01*
X006141Y003955D02*
X006182Y003955D01*
X006182Y003954D02*
X006619Y003954D01*
X006619Y003869D01*
X006619Y003432D01*
X006549Y003443D01*
X006477Y003466D01*
X006410Y003501D01*
X006349Y003545D01*
X006295Y003599D01*
X006449Y003480D02*
X006097Y003480D01*
X006619Y003480D02*
X006704Y003480D01*
X006704Y003599D02*
X006619Y003599D01*
X006619Y003718D02*
X006704Y003718D01*
X006704Y003836D02*
X006619Y003836D01*
X006619Y003955D02*
X006704Y003955D01*
X006704Y004073D02*
X006619Y004073D01*
X006619Y004192D02*
X006704Y004192D01*
X006704Y004310D02*
X006619Y004310D01*
X006477Y004356D02*
X006410Y004322D01*
X006349Y004277D01*
X006295Y004224D01*
X006251Y004163D01*
X006216Y004096D01*
X006193Y004024D01*
X006182Y003954D01*
X006209Y004073D02*
X006141Y004073D01*
X006141Y004192D02*
X006272Y004192D01*
X006394Y004310D02*
X006128Y004310D01*
X006929Y004310D02*
X007381Y004310D01*
X007389Y004318D02*
X007254Y004183D01*
X007181Y004007D01*
X007181Y003816D01*
X007254Y003639D01*
X007389Y003504D01*
X007566Y003431D01*
X007757Y003431D01*
X007933Y003504D01*
X008068Y003639D01*
X008141Y003816D01*
X008141Y004007D01*
X008068Y004183D01*
X007933Y004318D01*
X007757Y004391D01*
X007566Y004391D01*
X007389Y004318D01*
X007263Y004192D02*
X007051Y004192D01*
X007113Y004073D02*
X007209Y004073D01*
X007181Y003955D02*
X007140Y003955D01*
X007135Y003836D02*
X007181Y003836D01*
X007222Y003718D02*
X007101Y003718D01*
X007028Y003599D02*
X007295Y003599D01*
X007447Y003480D02*
X006873Y003480D01*
X007876Y003480D02*
X008447Y003480D01*
X008295Y003599D02*
X008028Y003599D01*
X008101Y003718D02*
X008222Y003718D01*
X008181Y003836D02*
X008141Y003836D01*
X008141Y003955D02*
X008181Y003955D01*
X008209Y004073D02*
X008114Y004073D01*
X008060Y004192D02*
X008263Y004192D01*
X008381Y004310D02*
X007941Y004310D01*
X022985Y013557D02*
X023950Y013557D01*
X023950Y013675D02*
X023080Y013675D01*
X023128Y013794D02*
X023950Y013794D01*
M02*
