G75*
G70*
%OFA0B0*%
%FSLAX24Y24*%
%IPPOS*%
%LPD*%
%AMOC8*
5,1,8,0,0,1.08239X$1,22.5*
%
%ADD10R,0.0640X0.0640*%
%ADD11C,0.0640*%
%ADD12R,0.0800X0.0250*%
%ADD13R,0.0920X0.0920*%
%ADD14C,0.0920*%
%ADD15C,0.0120*%
%ADD16C,0.0360*%
%ADD17C,0.0500*%
D10*
X005661Y003911D03*
X001661Y007911D03*
X001661Y011411D03*
X004661Y012911D03*
X001661Y014911D03*
X010661Y012911D03*
X016661Y012911D03*
X017411Y011411D03*
X018661Y008911D03*
X022661Y007911D03*
X022661Y011411D03*
X022661Y014911D03*
X013661Y003911D03*
D11*
X014661Y003911D03*
X015661Y003911D03*
X016661Y003911D03*
X017661Y003911D03*
X018661Y003911D03*
X017411Y006411D03*
X018661Y006911D03*
X019661Y006911D03*
X019661Y007911D03*
X018661Y007911D03*
X017411Y007411D03*
X017411Y008411D03*
X017411Y009411D03*
X017411Y010411D03*
X019661Y008911D03*
X022661Y010411D03*
X022661Y006911D03*
X022661Y005911D03*
X022661Y004911D03*
X022661Y003911D03*
X022661Y002911D03*
X022661Y001911D03*
X022661Y000911D03*
X010661Y003911D03*
X009661Y003911D03*
X008661Y003911D03*
X007661Y003911D03*
X006661Y003911D03*
X001661Y003911D03*
X001661Y002911D03*
X001661Y001911D03*
X001661Y000911D03*
X001661Y004911D03*
X001661Y005911D03*
X001661Y006911D03*
X001661Y010411D03*
X005661Y012911D03*
X006661Y012911D03*
X007661Y012911D03*
X008661Y012911D03*
X009661Y012911D03*
X011661Y012911D03*
X012661Y012911D03*
X013661Y012911D03*
X014661Y012911D03*
X015661Y012911D03*
X017661Y012911D03*
X022661Y013911D03*
X001661Y013911D03*
D12*
X006661Y009411D03*
X006661Y008911D03*
X006661Y008411D03*
X006661Y007911D03*
X006661Y007411D03*
X006661Y006911D03*
X006661Y006411D03*
X006661Y005911D03*
X009561Y005911D03*
X009561Y006411D03*
X009561Y006911D03*
X009561Y007411D03*
X009561Y007911D03*
X009561Y008411D03*
X009561Y008911D03*
X009561Y009411D03*
D13*
X006161Y015161D03*
D14*
X012161Y015161D03*
D15*
X000371Y016451D02*
X000371Y000371D01*
X023944Y000371D01*
X023951Y016451D01*
X000371Y016451D01*
X000371Y016402D02*
X023951Y016402D01*
X023951Y016283D02*
X000371Y016283D01*
X000371Y016165D02*
X023951Y016165D01*
X023951Y016046D02*
X000371Y016046D01*
X000371Y015928D02*
X023951Y015928D01*
X023951Y015809D02*
X000371Y015809D01*
X000371Y015690D02*
X005544Y015690D01*
X005541Y015688D02*
X005541Y014635D01*
X005635Y014541D01*
X005731Y014541D01*
X005731Y014341D01*
X005076Y014341D01*
X004918Y014276D01*
X004797Y014155D01*
X004297Y013655D01*
X004231Y013497D01*
X004231Y013347D01*
X004181Y013298D01*
X004181Y012525D01*
X004275Y012431D01*
X005048Y012431D01*
X005141Y012525D01*
X005141Y013283D01*
X005339Y013481D01*
X006076Y013481D01*
X015983Y013481D01*
X016181Y013283D01*
X016181Y012525D01*
X016275Y012431D01*
X017048Y012431D01*
X017141Y012525D01*
X017141Y013298D01*
X017091Y013347D01*
X017091Y013497D01*
X017026Y013655D01*
X016905Y013776D01*
X016405Y014276D01*
X016247Y014341D01*
X016076Y014341D01*
X006591Y014341D01*
X006591Y014541D01*
X006688Y014541D01*
X006781Y014635D01*
X006781Y015688D01*
X006688Y015781D01*
X005635Y015781D01*
X005541Y015688D01*
X005541Y015572D02*
X000371Y015572D01*
X000371Y015453D02*
X005541Y015453D01*
X005541Y015335D02*
X002104Y015335D01*
X002141Y015298D02*
X002048Y015391D01*
X001275Y015391D01*
X001181Y015298D01*
X001181Y014525D01*
X001275Y014431D01*
X001802Y014431D01*
X001910Y014323D01*
X001846Y014356D01*
X001774Y014379D01*
X001704Y014390D01*
X001704Y013954D01*
X002140Y013954D01*
X002129Y014024D01*
X002106Y014096D01*
X002073Y014160D01*
X002921Y013312D01*
X002921Y012614D01*
X002958Y012525D01*
X003025Y012458D01*
X003958Y011525D01*
X004025Y011458D01*
X004114Y011421D01*
X006812Y011421D01*
X008171Y010062D01*
X008171Y005614D01*
X007901Y005614D01*
X007901Y005496D02*
X008237Y005496D01*
X008208Y005525D02*
X008275Y005458D01*
X008775Y004958D01*
X008864Y004921D01*
X008959Y004921D01*
X009312Y004921D01*
X009902Y004331D01*
X009757Y004391D01*
X009566Y004391D01*
X009534Y004378D01*
X009047Y004865D01*
X008959Y004901D01*
X008864Y004901D01*
X008261Y004901D01*
X007901Y005261D01*
X007901Y009614D01*
X007901Y009709D01*
X007865Y009797D01*
X007115Y010547D01*
X007047Y010615D01*
X006959Y010651D01*
X004011Y010651D01*
X003047Y011615D01*
X002959Y011651D01*
X002864Y011651D01*
X002141Y011651D01*
X002141Y011798D01*
X002048Y011891D01*
X001275Y011891D01*
X001181Y011798D01*
X001181Y011025D01*
X001275Y010931D01*
X002048Y010931D01*
X002141Y011025D01*
X002141Y011171D01*
X002812Y011171D01*
X003708Y010275D01*
X003775Y010208D01*
X003864Y010171D01*
X006812Y010171D01*
X007421Y009562D01*
X007421Y005114D01*
X007458Y005025D01*
X007525Y004958D01*
X007958Y004525D01*
X008025Y004458D01*
X008114Y004421D01*
X008812Y004421D01*
X008902Y004331D01*
X008757Y004391D01*
X008566Y004391D01*
X008389Y004318D01*
X008254Y004183D01*
X008181Y004007D01*
X008181Y003816D01*
X008254Y003639D01*
X008389Y003504D01*
X008566Y003431D01*
X008757Y003431D01*
X008933Y003504D01*
X009068Y003639D01*
X009141Y003816D01*
X009141Y004007D01*
X009081Y004152D01*
X009194Y004039D01*
X009181Y004007D01*
X009181Y003816D01*
X009254Y003639D01*
X009389Y003504D01*
X009566Y003431D01*
X009757Y003431D01*
X009902Y003491D01*
X009812Y003401D01*
X006511Y003401D01*
X006413Y003499D01*
X006477Y003466D01*
X006549Y003443D01*
X006619Y003432D01*
X006619Y003869D01*
X006182Y003869D01*
X006193Y003799D01*
X006216Y003727D01*
X006249Y003663D01*
X006141Y003771D01*
X006141Y004298D01*
X006048Y004391D01*
X005275Y004391D01*
X005181Y004298D01*
X005181Y003525D01*
X005275Y003431D01*
X005802Y003431D01*
X006275Y002958D01*
X006364Y002921D01*
X006459Y002921D01*
X009959Y002921D01*
X010047Y002958D01*
X010115Y003025D01*
X010365Y003275D01*
X010401Y003364D01*
X010401Y003459D01*
X010401Y003507D01*
X010410Y003501D01*
X010477Y003466D01*
X010549Y003443D01*
X010619Y003432D01*
X010619Y003869D01*
X010704Y003869D01*
X010704Y003954D01*
X011140Y003954D01*
X011129Y004024D01*
X011106Y004096D01*
X011072Y004163D01*
X011027Y004224D01*
X010974Y004277D01*
X010913Y004322D01*
X010846Y004356D01*
X010774Y004379D01*
X010704Y004390D01*
X010704Y003954D01*
X010619Y003954D01*
X010619Y004390D01*
X010549Y004379D01*
X010477Y004356D01*
X010410Y004322D01*
X010401Y004316D01*
X010401Y004459D01*
X010365Y004547D01*
X010297Y004615D01*
X009615Y005297D01*
X009547Y005365D01*
X009459Y005401D01*
X009011Y005401D01*
X008651Y005761D01*
X008651Y010209D01*
X008615Y010297D01*
X008547Y010365D01*
X007047Y011865D01*
X006959Y011901D01*
X006864Y011901D01*
X004261Y011901D01*
X003401Y012761D01*
X003401Y013364D01*
X003401Y013459D01*
X003365Y013547D01*
X002141Y014771D01*
X002141Y015298D01*
X002141Y015216D02*
X005541Y015216D01*
X005541Y015098D02*
X002141Y015098D01*
X002141Y014979D02*
X005541Y014979D01*
X005541Y014861D02*
X002141Y014861D01*
X002170Y014742D02*
X005541Y014742D01*
X005553Y014624D02*
X002288Y014624D01*
X002407Y014505D02*
X005731Y014505D01*
X005731Y014386D02*
X002525Y014386D01*
X002644Y014268D02*
X004910Y014268D01*
X004791Y014149D02*
X002763Y014149D01*
X002881Y014031D02*
X004673Y014031D01*
X004554Y013912D02*
X003000Y013912D01*
X003118Y013794D02*
X004436Y013794D01*
X004317Y013675D02*
X003237Y013675D01*
X003355Y013557D02*
X004256Y013557D01*
X004231Y013438D02*
X003401Y013438D01*
X003401Y013320D02*
X004203Y013320D01*
X004181Y013201D02*
X003401Y013201D01*
X003401Y013082D02*
X004181Y013082D01*
X004181Y012964D02*
X003401Y012964D01*
X003401Y012845D02*
X004181Y012845D01*
X004181Y012727D02*
X003435Y012727D01*
X003554Y012608D02*
X004181Y012608D01*
X004216Y012490D02*
X003672Y012490D01*
X003791Y012371D02*
X008421Y012371D01*
X008421Y012253D02*
X003909Y012253D01*
X004028Y012134D02*
X008421Y012134D01*
X008421Y012016D02*
X004146Y012016D01*
X004161Y011661D02*
X006911Y011661D01*
X008411Y010161D01*
X008411Y005661D01*
X008911Y005161D01*
X009411Y005161D01*
X010161Y004411D01*
X010161Y003411D01*
X009911Y003161D01*
X006411Y003161D01*
X005661Y003911D01*
X005181Y003955D02*
X004794Y003955D01*
X004913Y004073D02*
X005181Y004073D01*
X005181Y004192D02*
X005031Y004192D01*
X005150Y004310D02*
X005194Y004310D01*
X005268Y004429D02*
X008095Y004429D01*
X007941Y004310D02*
X008381Y004310D01*
X008263Y004192D02*
X008060Y004192D01*
X008068Y004183D02*
X007933Y004318D01*
X007757Y004391D01*
X007566Y004391D01*
X007389Y004318D01*
X007254Y004183D01*
X007181Y004007D01*
X007181Y003816D01*
X007254Y003639D01*
X007389Y003504D01*
X007566Y003431D01*
X007757Y003431D01*
X007933Y003504D01*
X008068Y003639D01*
X008141Y003816D01*
X008141Y004007D01*
X008068Y004183D01*
X008114Y004073D02*
X008209Y004073D01*
X008181Y003955D02*
X008141Y003955D01*
X008141Y003836D02*
X008181Y003836D01*
X008222Y003718D02*
X008101Y003718D01*
X008028Y003599D02*
X008295Y003599D01*
X008447Y003480D02*
X007876Y003480D01*
X007447Y003480D02*
X006873Y003480D01*
X006846Y003466D02*
X006913Y003501D01*
X006974Y003545D01*
X007027Y003599D01*
X007072Y003660D01*
X007106Y003727D01*
X007129Y003799D01*
X007140Y003869D01*
X006704Y003869D01*
X006704Y003954D01*
X006619Y003954D01*
X006619Y004390D01*
X006549Y004379D01*
X006477Y004356D01*
X006410Y004322D01*
X006349Y004277D01*
X006295Y004224D01*
X006251Y004163D01*
X006216Y004096D01*
X006193Y004024D01*
X006182Y003954D01*
X006619Y003954D01*
X006619Y003869D01*
X006704Y003869D01*
X006704Y003432D01*
X006774Y003443D01*
X006846Y003466D01*
X006704Y003480D02*
X006619Y003480D01*
X006619Y003599D02*
X006704Y003599D01*
X006704Y003718D02*
X006619Y003718D01*
X006619Y003836D02*
X006704Y003836D01*
X006704Y003954D02*
X007140Y003954D01*
X007129Y004024D01*
X007106Y004096D01*
X007072Y004163D01*
X007027Y004224D01*
X006974Y004277D01*
X006913Y004322D01*
X006846Y004356D01*
X006774Y004379D01*
X006704Y004390D01*
X006704Y003954D01*
X006704Y003955D02*
X006619Y003955D01*
X006619Y004073D02*
X006704Y004073D01*
X006704Y004192D02*
X006619Y004192D01*
X006619Y004310D02*
X006704Y004310D01*
X006929Y004310D02*
X007381Y004310D01*
X007263Y004192D02*
X007051Y004192D01*
X007113Y004073D02*
X007209Y004073D01*
X007181Y003955D02*
X007140Y003955D01*
X007135Y003836D02*
X007181Y003836D01*
X007222Y003718D02*
X007101Y003718D01*
X007028Y003599D02*
X007295Y003599D01*
X006449Y003480D02*
X006431Y003480D01*
X006221Y003718D02*
X006194Y003718D01*
X006187Y003836D02*
X006141Y003836D01*
X006141Y003955D02*
X006182Y003955D01*
X006209Y004073D02*
X006141Y004073D01*
X006141Y004192D02*
X006272Y004192D01*
X006394Y004310D02*
X006128Y004310D01*
X005624Y004784D02*
X007699Y004784D01*
X007817Y004666D02*
X005505Y004666D01*
X005387Y004547D02*
X007936Y004547D01*
X008161Y004661D02*
X008911Y004661D01*
X009661Y003911D01*
X009222Y003718D02*
X009101Y003718D01*
X009141Y003836D02*
X009181Y003836D01*
X009181Y003955D02*
X009141Y003955D01*
X009160Y004073D02*
X009114Y004073D01*
X009483Y004429D02*
X009804Y004429D01*
X009686Y004547D02*
X009365Y004547D01*
X009246Y004666D02*
X009567Y004666D01*
X009449Y004784D02*
X009127Y004784D01*
X009330Y004903D02*
X008259Y004903D01*
X008140Y005022D02*
X008712Y005022D01*
X008593Y005140D02*
X008022Y005140D01*
X007903Y005259D02*
X008474Y005259D01*
X008356Y005377D02*
X007901Y005377D01*
X007661Y005161D02*
X007661Y009661D01*
X006911Y010411D01*
X003911Y010411D01*
X002911Y011411D01*
X001661Y011411D01*
X001181Y011423D02*
X000371Y011423D01*
X000371Y011541D02*
X001181Y011541D01*
X001181Y011660D02*
X000371Y011660D01*
X000371Y011779D02*
X001181Y011779D01*
X001181Y011304D02*
X000371Y011304D01*
X000371Y011186D02*
X001181Y011186D01*
X001181Y011067D02*
X000371Y011067D01*
X000371Y010949D02*
X001258Y010949D01*
X001349Y010777D02*
X001295Y010724D01*
X001251Y010663D01*
X001216Y010596D01*
X001193Y010524D01*
X001182Y010454D01*
X001619Y010454D01*
X001619Y010890D01*
X001549Y010879D01*
X001477Y010856D01*
X001410Y010822D01*
X001349Y010777D01*
X001286Y010712D02*
X000371Y010712D01*
X000371Y010830D02*
X001426Y010830D01*
X001619Y010830D02*
X001704Y010830D01*
X001704Y010890D02*
X001774Y010879D01*
X001846Y010856D01*
X001913Y010822D01*
X001974Y010777D01*
X002027Y010724D01*
X002072Y010663D01*
X002106Y010596D01*
X002129Y010524D01*
X002140Y010454D01*
X001704Y010454D01*
X001704Y010369D01*
X002140Y010369D01*
X002129Y010299D01*
X002106Y010227D01*
X002072Y010160D01*
X002027Y010099D01*
X001974Y010045D01*
X001913Y010001D01*
X001846Y009966D01*
X001774Y009943D01*
X001704Y009932D01*
X001704Y010369D01*
X001619Y010369D01*
X001619Y009932D01*
X001549Y009943D01*
X001477Y009966D01*
X001410Y010001D01*
X001349Y010045D01*
X001295Y010099D01*
X001251Y010160D01*
X001216Y010227D01*
X001193Y010299D01*
X001182Y010369D01*
X001619Y010369D01*
X001619Y010454D01*
X001704Y010454D01*
X001704Y010890D01*
X001704Y010712D02*
X001619Y010712D01*
X001619Y010593D02*
X001704Y010593D01*
X001704Y010475D02*
X001619Y010475D01*
X001619Y010356D02*
X001704Y010356D01*
X001704Y010237D02*
X001619Y010237D01*
X001619Y010119D02*
X001704Y010119D01*
X001704Y010000D02*
X001619Y010000D01*
X001410Y010000D02*
X000371Y010000D01*
X000371Y009882D02*
X007101Y009882D01*
X006983Y010000D02*
X001912Y010000D01*
X002042Y010119D02*
X006864Y010119D01*
X007187Y010475D02*
X007759Y010475D01*
X007640Y010593D02*
X007069Y010593D01*
X007306Y010356D02*
X007877Y010356D01*
X007996Y010237D02*
X007424Y010237D01*
X007543Y010119D02*
X008114Y010119D01*
X008171Y010000D02*
X007662Y010000D01*
X007780Y009882D02*
X008171Y009882D01*
X008171Y009763D02*
X007879Y009763D01*
X007901Y009645D02*
X008171Y009645D01*
X008171Y009526D02*
X007901Y009526D01*
X007901Y009408D02*
X008171Y009408D01*
X008171Y009289D02*
X007901Y009289D01*
X007901Y009171D02*
X008171Y009171D01*
X008171Y009052D02*
X007901Y009052D01*
X007901Y008933D02*
X008171Y008933D01*
X008171Y008815D02*
X007901Y008815D01*
X007901Y008696D02*
X008171Y008696D01*
X008171Y008578D02*
X007901Y008578D01*
X007901Y008459D02*
X008171Y008459D01*
X008171Y008341D02*
X007901Y008341D01*
X007901Y008222D02*
X008171Y008222D01*
X008171Y008104D02*
X007901Y008104D01*
X007901Y007985D02*
X008171Y007985D01*
X008171Y007867D02*
X007901Y007867D01*
X007901Y007748D02*
X008171Y007748D01*
X008171Y007629D02*
X007901Y007629D01*
X007901Y007511D02*
X008171Y007511D01*
X008171Y007392D02*
X007901Y007392D01*
X007901Y007274D02*
X008171Y007274D01*
X008171Y007155D02*
X007901Y007155D01*
X007901Y007037D02*
X008171Y007037D01*
X008171Y006918D02*
X007901Y006918D01*
X007901Y006800D02*
X008171Y006800D01*
X008171Y006681D02*
X007901Y006681D01*
X007901Y006563D02*
X008171Y006563D01*
X008171Y006444D02*
X007901Y006444D01*
X007901Y006326D02*
X008171Y006326D01*
X008171Y006207D02*
X007901Y006207D01*
X007901Y006088D02*
X008171Y006088D01*
X008171Y005970D02*
X007901Y005970D01*
X007901Y005851D02*
X008171Y005851D01*
X008171Y005733D02*
X007901Y005733D01*
X008171Y005614D02*
X008208Y005525D01*
X008679Y005733D02*
X009001Y005733D01*
X009001Y005720D02*
X009095Y005626D01*
X010028Y005626D01*
X010072Y005671D01*
X011171Y005671D01*
X011171Y002614D01*
X011208Y002525D01*
X011275Y002458D01*
X013275Y000458D01*
X013364Y000421D01*
X013459Y000421D01*
X022459Y000421D01*
X022524Y000448D01*
X022566Y000431D01*
X022757Y000431D01*
X022933Y000504D01*
X023068Y000639D01*
X023141Y000816D01*
X023141Y001007D01*
X023068Y001183D01*
X022933Y001318D01*
X022757Y001391D01*
X022566Y001391D01*
X022420Y001331D01*
X022534Y001444D01*
X022566Y001431D01*
X022757Y001431D01*
X022933Y001504D01*
X023068Y001639D01*
X023141Y001816D01*
X023141Y002007D01*
X023068Y002183D01*
X022933Y002318D01*
X022757Y002391D01*
X022566Y002391D01*
X022420Y002331D01*
X022534Y002444D01*
X022566Y002431D01*
X022757Y002431D01*
X022933Y002504D01*
X023068Y002639D01*
X023141Y002816D01*
X023141Y003007D01*
X023068Y003183D01*
X022933Y003318D01*
X022757Y003391D01*
X022566Y003391D01*
X022420Y003331D01*
X022534Y003444D01*
X022566Y003431D01*
X022757Y003431D01*
X022933Y003504D01*
X023068Y003639D01*
X023141Y003816D01*
X023141Y004007D01*
X023068Y004183D01*
X022933Y004318D01*
X022757Y004391D01*
X022566Y004391D01*
X022420Y004331D01*
X022534Y004444D01*
X022566Y004431D01*
X022757Y004431D01*
X022933Y004504D01*
X023068Y004639D01*
X023141Y004816D01*
X023141Y005007D01*
X023068Y005183D01*
X022933Y005318D01*
X022757Y005391D01*
X022566Y005391D01*
X022420Y005331D01*
X022534Y005444D01*
X022566Y005431D01*
X022757Y005431D01*
X022933Y005504D01*
X023068Y005639D01*
X023141Y005816D01*
X023141Y006007D01*
X023073Y006171D01*
X023114Y006171D01*
X023209Y006171D01*
X023297Y006208D01*
X023547Y006458D01*
X023615Y006525D01*
X023651Y006614D01*
X023651Y010614D01*
X023651Y010709D01*
X023615Y010797D01*
X023141Y011271D01*
X023141Y011798D01*
X023048Y011891D01*
X022275Y011891D01*
X022181Y011798D01*
X022181Y011025D01*
X022275Y010931D01*
X022802Y010931D01*
X022910Y010823D01*
X022846Y010856D01*
X022774Y010879D01*
X022704Y010890D01*
X022704Y010454D01*
X023140Y010454D01*
X023129Y010524D01*
X023106Y010596D01*
X023073Y010660D01*
X023171Y010562D01*
X023171Y006761D01*
X023081Y006670D01*
X023141Y006816D01*
X023141Y007007D01*
X023068Y007183D01*
X022933Y007318D01*
X022757Y007391D01*
X022566Y007391D01*
X022389Y007318D01*
X022254Y007183D01*
X022241Y007151D01*
X021709Y007151D01*
X021614Y007151D01*
X021525Y007115D01*
X019812Y005401D01*
X016511Y005401D01*
X015401Y006511D01*
X015401Y007892D01*
X015466Y007957D01*
X015521Y008090D01*
X015521Y008233D01*
X015466Y008365D01*
X015365Y008466D01*
X015233Y008521D01*
X015111Y008521D01*
X015551Y008962D01*
X015551Y008840D01*
X015606Y008707D01*
X015671Y008642D01*
X015671Y006614D01*
X015708Y006525D01*
X015775Y006458D01*
X016775Y005458D01*
X016864Y005421D01*
X016959Y005421D01*
X019459Y005421D01*
X019547Y005458D01*
X019615Y005525D01*
X021761Y007671D01*
X022181Y007671D01*
X022181Y007525D01*
X022275Y007431D01*
X023048Y007431D01*
X023141Y007525D01*
X023141Y008298D01*
X023048Y008391D01*
X022275Y008391D01*
X022181Y008298D01*
X022181Y008151D01*
X021709Y008151D01*
X021614Y008151D01*
X021525Y008115D01*
X020081Y006670D01*
X020141Y006816D01*
X020141Y007007D01*
X020068Y007183D01*
X019933Y007318D01*
X019757Y007391D01*
X019566Y007391D01*
X019420Y007331D01*
X019534Y007444D01*
X019566Y007431D01*
X019757Y007431D01*
X019933Y007504D01*
X020068Y007639D01*
X020141Y007816D01*
X020141Y008007D01*
X020068Y008183D01*
X019933Y008318D01*
X019757Y008391D01*
X019566Y008391D01*
X019389Y008318D01*
X019254Y008183D01*
X019181Y008007D01*
X019181Y007816D01*
X019194Y007784D01*
X019081Y007670D01*
X019141Y007816D01*
X019141Y008007D01*
X019068Y008183D01*
X018933Y008318D01*
X018757Y008391D01*
X018566Y008391D01*
X018534Y008378D01*
X018481Y008431D01*
X019048Y008431D01*
X019141Y008525D01*
X019141Y009298D01*
X019048Y009391D01*
X018901Y009391D01*
X018901Y009459D01*
X018865Y009547D01*
X018365Y010047D01*
X018297Y010115D01*
X018209Y010151D01*
X017823Y010151D01*
X017831Y010171D01*
X018562Y010171D01*
X019407Y009326D01*
X019389Y009318D01*
X019254Y009183D01*
X019181Y009007D01*
X019181Y008816D01*
X019254Y008639D01*
X019389Y008504D01*
X019566Y008431D01*
X019757Y008431D01*
X019933Y008504D01*
X020068Y008639D01*
X020141Y008816D01*
X020141Y009007D01*
X020068Y009183D01*
X019933Y009318D01*
X019901Y009331D01*
X019901Y009459D01*
X019865Y009547D01*
X019797Y009615D01*
X018797Y010615D01*
X018709Y010651D01*
X018614Y010651D01*
X017831Y010651D01*
X017818Y010683D01*
X017683Y010818D01*
X017507Y010891D01*
X017316Y010891D01*
X017170Y010831D01*
X017271Y010931D01*
X017798Y010931D01*
X017891Y011025D01*
X017891Y011798D01*
X017798Y011891D01*
X017025Y011891D01*
X016931Y011798D01*
X016931Y011271D01*
X016458Y010797D01*
X016421Y010709D01*
X016421Y010614D01*
X016421Y010114D01*
X016458Y010025D01*
X016525Y009958D01*
X016775Y009708D01*
X016864Y009671D01*
X016959Y009671D01*
X016999Y009671D01*
X016931Y009507D01*
X016931Y009316D01*
X017004Y009139D01*
X017139Y009004D01*
X017316Y008931D01*
X017507Y008931D01*
X017539Y008944D01*
X017652Y008831D01*
X017507Y008891D01*
X017316Y008891D01*
X017139Y008818D01*
X017004Y008683D01*
X016931Y008507D01*
X016931Y008316D01*
X017004Y008139D01*
X017139Y008004D01*
X017316Y007931D01*
X017507Y007931D01*
X017539Y007944D01*
X017652Y007831D01*
X017507Y007891D01*
X017316Y007891D01*
X017139Y007818D01*
X017004Y007683D01*
X016931Y007507D01*
X016931Y007316D01*
X017004Y007139D01*
X017139Y007004D01*
X017316Y006931D01*
X017507Y006931D01*
X017539Y006944D01*
X017652Y006831D01*
X017507Y006891D01*
X017316Y006891D01*
X017139Y006818D01*
X017004Y006683D01*
X016931Y006507D01*
X016931Y006316D01*
X017004Y006139D01*
X017139Y006004D01*
X017316Y005931D01*
X017507Y005931D01*
X017683Y006004D01*
X017818Y006139D01*
X017831Y006171D01*
X019114Y006171D01*
X019209Y006171D01*
X019297Y006208D01*
X019534Y006444D01*
X019566Y006431D01*
X019757Y006431D01*
X019902Y006491D01*
X019312Y005901D01*
X017011Y005901D01*
X016151Y006761D01*
X016151Y008642D01*
X016216Y008707D01*
X016271Y008840D01*
X016271Y008983D01*
X016216Y009115D01*
X016115Y009216D01*
X015983Y009271D01*
X015861Y009271D01*
X016365Y009775D01*
X016401Y009864D01*
X016401Y009959D01*
X016401Y011312D01*
X017011Y011921D01*
X019864Y011921D01*
X019959Y011921D01*
X020047Y011958D01*
X022249Y014160D01*
X022216Y014096D01*
X022193Y014024D01*
X022182Y013954D01*
X022619Y013954D01*
X022619Y014390D01*
X022549Y014379D01*
X022477Y014356D01*
X022413Y014323D01*
X022521Y014431D01*
X023048Y014431D01*
X023141Y014525D01*
X023141Y015298D01*
X023048Y015391D01*
X022275Y015391D01*
X022181Y015298D01*
X022181Y014771D01*
X019812Y012401D01*
X016864Y012401D01*
X016775Y012365D01*
X016708Y012297D01*
X016025Y011615D01*
X015958Y011547D01*
X015921Y011459D01*
X015921Y010011D01*
X013458Y007547D01*
X013421Y007459D01*
X013421Y007364D01*
X013421Y004391D01*
X013275Y004391D01*
X013181Y004298D01*
X013181Y003525D01*
X013275Y003431D01*
X014048Y003431D01*
X014141Y003525D01*
X014141Y004298D01*
X014048Y004391D01*
X013901Y004391D01*
X013901Y006912D01*
X013921Y006892D01*
X013921Y005459D01*
X013921Y005364D01*
X013958Y005275D01*
X014910Y004323D01*
X014846Y004356D01*
X014774Y004379D01*
X014704Y004390D01*
X014704Y003954D01*
X014619Y003954D01*
X014619Y004390D01*
X014549Y004379D01*
X014477Y004356D01*
X014410Y004322D01*
X014349Y004277D01*
X014295Y004224D01*
X014251Y004163D01*
X014216Y004096D01*
X014193Y004024D01*
X014182Y003954D01*
X014619Y003954D01*
X014619Y003869D01*
X014704Y003869D01*
X014704Y003432D01*
X014774Y003443D01*
X014846Y003466D01*
X014913Y003501D01*
X014921Y003507D01*
X014921Y003364D01*
X014958Y003275D01*
X015025Y003208D01*
X015775Y002458D01*
X015864Y002421D01*
X015959Y002421D01*
X020459Y002421D01*
X020547Y002458D01*
X020615Y002525D01*
X022241Y004152D01*
X022181Y004007D01*
X022181Y003816D01*
X022194Y003784D01*
X020812Y002401D01*
X014261Y002401D01*
X013151Y003511D01*
X013151Y006392D01*
X013216Y006457D01*
X013271Y006590D01*
X013271Y006733D01*
X013216Y006865D01*
X013115Y006966D01*
X012983Y007021D01*
X012861Y007021D01*
X015797Y009958D01*
X015865Y010025D01*
X015901Y010114D01*
X015901Y012491D01*
X015933Y012504D01*
X016068Y012639D01*
X016141Y012816D01*
X016141Y013007D01*
X016068Y013183D01*
X015933Y013318D01*
X015757Y013391D01*
X015566Y013391D01*
X015389Y013318D01*
X015254Y013183D01*
X015181Y013007D01*
X015181Y012816D01*
X015254Y012639D01*
X015389Y012504D01*
X015421Y012491D01*
X015421Y010261D01*
X011521Y006361D01*
X011521Y006432D01*
X014797Y009708D01*
X014865Y009775D01*
X014901Y009864D01*
X014901Y012491D01*
X014933Y012504D01*
X015068Y012639D01*
X015141Y012816D01*
X015141Y013007D01*
X015068Y013183D01*
X014933Y013318D01*
X014757Y013391D01*
X014566Y013391D01*
X014389Y013318D01*
X014254Y013183D01*
X014181Y013007D01*
X014181Y012816D01*
X014254Y012639D01*
X014389Y012504D01*
X014421Y012491D01*
X014421Y010011D01*
X011271Y006861D01*
X011271Y006932D01*
X013797Y009458D01*
X013797Y009458D01*
X013865Y009525D01*
X013901Y009614D01*
X013901Y012491D01*
X013933Y012504D01*
X014068Y012639D01*
X014141Y012816D01*
X014141Y013007D01*
X014068Y013183D01*
X013933Y013318D01*
X013757Y013391D01*
X013566Y013391D01*
X013389Y013318D01*
X013254Y013183D01*
X013181Y013007D01*
X013181Y012816D01*
X013254Y012639D01*
X013389Y012504D01*
X013421Y012491D01*
X013421Y009761D01*
X011021Y007361D01*
X011021Y007432D01*
X012797Y009208D01*
X012865Y009275D01*
X012901Y009364D01*
X012901Y012491D01*
X012933Y012504D01*
X013068Y012639D01*
X013141Y012816D01*
X013141Y013007D01*
X013068Y013183D01*
X012933Y013318D01*
X012757Y013391D01*
X012566Y013391D01*
X012389Y013318D01*
X012254Y013183D01*
X012181Y013007D01*
X012181Y012816D01*
X012254Y012639D01*
X012389Y012504D01*
X012421Y012491D01*
X012421Y009511D01*
X010771Y007861D01*
X010771Y007932D01*
X011797Y008958D01*
X011865Y009025D01*
X011901Y009114D01*
X011901Y012491D01*
X011933Y012504D01*
X012068Y012639D01*
X012141Y012816D01*
X012141Y013007D01*
X012068Y013183D01*
X011933Y013318D01*
X011757Y013391D01*
X011566Y013391D01*
X011389Y013318D01*
X011254Y013183D01*
X011181Y013007D01*
X011181Y012816D01*
X011254Y012639D01*
X011389Y012504D01*
X011421Y012491D01*
X011421Y009261D01*
X010771Y008611D01*
X010771Y008682D01*
X011047Y008958D01*
X011115Y009025D01*
X011151Y009114D01*
X011151Y010864D01*
X011151Y010959D01*
X011115Y011047D01*
X010901Y011261D01*
X010901Y012431D01*
X011048Y012431D01*
X011141Y012525D01*
X011141Y013298D01*
X011048Y013391D01*
X010275Y013391D01*
X010181Y013298D01*
X010181Y012525D01*
X010275Y012431D01*
X010421Y012431D01*
X010421Y011114D01*
X010458Y011025D01*
X010525Y010958D01*
X010671Y010812D01*
X010671Y009660D01*
X010651Y009680D01*
X010651Y010364D01*
X010651Y010459D01*
X010615Y010547D01*
X009901Y011261D01*
X009901Y012491D01*
X009933Y012504D01*
X010068Y012639D01*
X010141Y012816D01*
X010141Y013007D01*
X010068Y013183D01*
X009933Y013318D01*
X009757Y013391D01*
X009566Y013391D01*
X009389Y013318D01*
X009254Y013183D01*
X009181Y013007D01*
X009181Y012816D01*
X009254Y012639D01*
X009389Y012504D01*
X009421Y012491D01*
X009421Y011114D01*
X009458Y011025D01*
X009525Y010958D01*
X010171Y010312D01*
X010171Y009680D01*
X010107Y009616D01*
X010028Y009696D01*
X009955Y009696D01*
X009966Y009707D01*
X010021Y009840D01*
X010021Y009983D01*
X009966Y010115D01*
X009865Y010216D01*
X009733Y010271D01*
X009641Y010271D01*
X008901Y011011D01*
X008901Y012491D01*
X008933Y012504D01*
X009068Y012639D01*
X009141Y012816D01*
X009141Y013007D01*
X009068Y013183D01*
X008933Y013318D01*
X008757Y013391D01*
X008566Y013391D01*
X008389Y013318D01*
X008254Y013183D01*
X008181Y013007D01*
X008181Y012816D01*
X008254Y012639D01*
X008389Y012504D01*
X008421Y012491D01*
X008421Y010959D01*
X008421Y010864D01*
X008458Y010775D01*
X009301Y009932D01*
X009301Y009840D01*
X009356Y009707D01*
X009367Y009696D01*
X009095Y009696D01*
X009001Y009603D01*
X009001Y009220D01*
X009060Y009161D01*
X009001Y009103D01*
X009001Y008720D01*
X009060Y008661D01*
X009001Y008603D01*
X009001Y008220D01*
X009060Y008161D01*
X009001Y008103D01*
X009001Y007720D01*
X009060Y007661D01*
X009001Y007603D01*
X009001Y007220D01*
X009060Y007161D01*
X009001Y007103D01*
X009001Y006720D01*
X009060Y006661D01*
X009001Y006603D01*
X009001Y006220D01*
X009060Y006161D01*
X009001Y006103D01*
X009001Y005720D01*
X009001Y005851D02*
X008651Y005851D01*
X008651Y005970D02*
X009001Y005970D01*
X009001Y006088D02*
X008651Y006088D01*
X008651Y006207D02*
X009014Y006207D01*
X009001Y006326D02*
X008651Y006326D01*
X008651Y006444D02*
X009001Y006444D01*
X009001Y006563D02*
X008651Y006563D01*
X008651Y006681D02*
X009040Y006681D01*
X009001Y006800D02*
X008651Y006800D01*
X008651Y006918D02*
X009001Y006918D01*
X009001Y007037D02*
X008651Y007037D01*
X008651Y007155D02*
X009054Y007155D01*
X009001Y007274D02*
X008651Y007274D01*
X008651Y007392D02*
X009001Y007392D01*
X009001Y007511D02*
X008651Y007511D01*
X008651Y007629D02*
X009028Y007629D01*
X009001Y007748D02*
X008651Y007748D01*
X008651Y007867D02*
X009001Y007867D01*
X009001Y007985D02*
X008651Y007985D01*
X008651Y008104D02*
X009002Y008104D01*
X009001Y008222D02*
X008651Y008222D01*
X008651Y008341D02*
X009001Y008341D01*
X009001Y008459D02*
X008651Y008459D01*
X008651Y008578D02*
X009001Y008578D01*
X009025Y008696D02*
X008651Y008696D01*
X008651Y008815D02*
X009001Y008815D01*
X009001Y008933D02*
X008651Y008933D01*
X008651Y009052D02*
X009001Y009052D01*
X009051Y009171D02*
X008651Y009171D01*
X008651Y009289D02*
X009001Y009289D01*
X009001Y009408D02*
X008651Y009408D01*
X008651Y009526D02*
X009001Y009526D01*
X009043Y009645D02*
X008651Y009645D01*
X008651Y009763D02*
X009333Y009763D01*
X009301Y009882D02*
X008651Y009882D01*
X008651Y010000D02*
X009233Y010000D01*
X009114Y010119D02*
X008651Y010119D01*
X008639Y010237D02*
X008996Y010237D01*
X008877Y010356D02*
X008556Y010356D01*
X008437Y010475D02*
X008759Y010475D01*
X008640Y010593D02*
X008319Y010593D01*
X008200Y010712D02*
X008521Y010712D01*
X008435Y010830D02*
X008082Y010830D01*
X007963Y010949D02*
X008421Y010949D01*
X008421Y011067D02*
X007845Y011067D01*
X007726Y011186D02*
X008421Y011186D01*
X008421Y011304D02*
X007608Y011304D01*
X007489Y011423D02*
X008421Y011423D01*
X008421Y011541D02*
X007370Y011541D01*
X007252Y011660D02*
X008421Y011660D01*
X008421Y011779D02*
X007133Y011779D01*
X006969Y011897D02*
X008421Y011897D01*
X008901Y011897D02*
X009421Y011897D01*
X009421Y011779D02*
X008901Y011779D01*
X008901Y011660D02*
X009421Y011660D01*
X009421Y011541D02*
X008901Y011541D01*
X008901Y011423D02*
X009421Y011423D01*
X009421Y011304D02*
X008901Y011304D01*
X008901Y011186D02*
X009421Y011186D01*
X009440Y011067D02*
X008901Y011067D01*
X008963Y010949D02*
X009534Y010949D01*
X009653Y010830D02*
X009082Y010830D01*
X009200Y010712D02*
X009771Y010712D01*
X009890Y010593D02*
X009319Y010593D01*
X009437Y010475D02*
X010009Y010475D01*
X010127Y010356D02*
X009556Y010356D01*
X009814Y010237D02*
X010171Y010237D01*
X010171Y010119D02*
X009963Y010119D01*
X010014Y010000D02*
X010171Y010000D01*
X010171Y009882D02*
X010021Y009882D01*
X009990Y009763D02*
X010171Y009763D01*
X010136Y009645D02*
X010079Y009645D01*
X010411Y009411D02*
X010411Y010411D01*
X009661Y011161D01*
X009661Y012911D01*
X009218Y012727D02*
X009104Y012727D01*
X009141Y012845D02*
X009181Y012845D01*
X009181Y012964D02*
X009141Y012964D01*
X009110Y013082D02*
X009213Y013082D01*
X009272Y013201D02*
X009050Y013201D01*
X008930Y013320D02*
X009393Y013320D01*
X009930Y013320D02*
X010203Y013320D01*
X010181Y013201D02*
X010050Y013201D01*
X010110Y013082D02*
X010181Y013082D01*
X010181Y012964D02*
X010141Y012964D01*
X010141Y012845D02*
X010181Y012845D01*
X010181Y012727D02*
X010104Y012727D01*
X010037Y012608D02*
X010181Y012608D01*
X010216Y012490D02*
X009901Y012490D01*
X009901Y012371D02*
X010421Y012371D01*
X010421Y012253D02*
X009901Y012253D01*
X009901Y012134D02*
X010421Y012134D01*
X010421Y012016D02*
X009901Y012016D01*
X009901Y011897D02*
X010421Y011897D01*
X010421Y011779D02*
X009901Y011779D01*
X009901Y011660D02*
X010421Y011660D01*
X010421Y011541D02*
X009901Y011541D01*
X009901Y011423D02*
X010421Y011423D01*
X010421Y011304D02*
X009901Y011304D01*
X009976Y011186D02*
X010421Y011186D01*
X010440Y011067D02*
X010095Y011067D01*
X010213Y010949D02*
X010534Y010949D01*
X010653Y010830D02*
X010332Y010830D01*
X010450Y010712D02*
X010671Y010712D01*
X010671Y010593D02*
X010569Y010593D01*
X010645Y010475D02*
X010671Y010475D01*
X010671Y010356D02*
X010651Y010356D01*
X010651Y010237D02*
X010671Y010237D01*
X010671Y010119D02*
X010651Y010119D01*
X010651Y010000D02*
X010671Y010000D01*
X010671Y009882D02*
X010651Y009882D01*
X010651Y009763D02*
X010671Y009763D01*
X010411Y009411D02*
X009911Y008911D01*
X009561Y008911D01*
X009561Y008411D02*
X010161Y008411D01*
X010411Y008661D01*
X010911Y009161D01*
X010911Y010911D01*
X010661Y011161D01*
X010661Y012911D01*
X011141Y012964D02*
X011181Y012964D01*
X011181Y012845D02*
X011141Y012845D01*
X011141Y012727D02*
X011218Y012727D01*
X011285Y012608D02*
X011141Y012608D01*
X011106Y012490D02*
X011421Y012490D01*
X011421Y012371D02*
X010901Y012371D01*
X010901Y012253D02*
X011421Y012253D01*
X011421Y012134D02*
X010901Y012134D01*
X010901Y012016D02*
X011421Y012016D01*
X011421Y011897D02*
X010901Y011897D01*
X010901Y011779D02*
X011421Y011779D01*
X011421Y011660D02*
X010901Y011660D01*
X010901Y011541D02*
X011421Y011541D01*
X011421Y011423D02*
X010901Y011423D01*
X010901Y011304D02*
X011421Y011304D01*
X011421Y011186D02*
X010976Y011186D01*
X011095Y011067D02*
X011421Y011067D01*
X011421Y010949D02*
X011151Y010949D01*
X011151Y010830D02*
X011421Y010830D01*
X011421Y010712D02*
X011151Y010712D01*
X011151Y010593D02*
X011421Y010593D01*
X011421Y010475D02*
X011151Y010475D01*
X011151Y010356D02*
X011421Y010356D01*
X011421Y010237D02*
X011151Y010237D01*
X011151Y010119D02*
X011421Y010119D01*
X011421Y010000D02*
X011151Y010000D01*
X011151Y009882D02*
X011421Y009882D01*
X011421Y009763D02*
X011151Y009763D01*
X011151Y009645D02*
X011421Y009645D01*
X011421Y009526D02*
X011151Y009526D01*
X011151Y009408D02*
X011421Y009408D01*
X011421Y009289D02*
X011151Y009289D01*
X011151Y009171D02*
X011331Y009171D01*
X011213Y009052D02*
X011126Y009052D01*
X011094Y008933D02*
X011023Y008933D01*
X010976Y008815D02*
X010904Y008815D01*
X010857Y008696D02*
X010786Y008696D01*
X011180Y008341D02*
X011251Y008341D01*
X011299Y008459D02*
X011370Y008459D01*
X011417Y008578D02*
X011488Y008578D01*
X011536Y008696D02*
X011607Y008696D01*
X011654Y008815D02*
X011726Y008815D01*
X011773Y008933D02*
X011844Y008933D01*
X011876Y009052D02*
X011963Y009052D01*
X011901Y009171D02*
X012081Y009171D01*
X012200Y009289D02*
X011901Y009289D01*
X011901Y009408D02*
X012318Y009408D01*
X012421Y009526D02*
X011901Y009526D01*
X011901Y009645D02*
X012421Y009645D01*
X012421Y009763D02*
X011901Y009763D01*
X011901Y009882D02*
X012421Y009882D01*
X012421Y010000D02*
X011901Y010000D01*
X011901Y010119D02*
X012421Y010119D01*
X012421Y010237D02*
X011901Y010237D01*
X011901Y010356D02*
X012421Y010356D01*
X012421Y010475D02*
X011901Y010475D01*
X011901Y010593D02*
X012421Y010593D01*
X012421Y010712D02*
X011901Y010712D01*
X011901Y010830D02*
X012421Y010830D01*
X012421Y010949D02*
X011901Y010949D01*
X011901Y011067D02*
X012421Y011067D01*
X012421Y011186D02*
X011901Y011186D01*
X011901Y011304D02*
X012421Y011304D01*
X012421Y011423D02*
X011901Y011423D01*
X011901Y011541D02*
X012421Y011541D01*
X012421Y011660D02*
X011901Y011660D01*
X011901Y011779D02*
X012421Y011779D01*
X012421Y011897D02*
X011901Y011897D01*
X011901Y012016D02*
X012421Y012016D01*
X012421Y012134D02*
X011901Y012134D01*
X011901Y012253D02*
X012421Y012253D01*
X012421Y012371D02*
X011901Y012371D01*
X011901Y012490D02*
X012421Y012490D01*
X012285Y012608D02*
X012037Y012608D01*
X012104Y012727D02*
X012218Y012727D01*
X012181Y012845D02*
X012141Y012845D01*
X012141Y012964D02*
X012181Y012964D01*
X012213Y013082D02*
X012110Y013082D01*
X012050Y013201D02*
X012272Y013201D01*
X012393Y013320D02*
X011930Y013320D01*
X011661Y012911D02*
X011661Y009161D01*
X010411Y007911D01*
X009561Y007911D01*
X009561Y007411D02*
X010661Y007411D01*
X012661Y009411D01*
X012661Y012911D01*
X013104Y012727D02*
X013218Y012727D01*
X013181Y012845D02*
X013141Y012845D01*
X013141Y012964D02*
X013181Y012964D01*
X013213Y013082D02*
X013110Y013082D01*
X013050Y013201D02*
X013272Y013201D01*
X013393Y013320D02*
X012930Y013320D01*
X013661Y012911D02*
X013661Y009661D01*
X010911Y006911D01*
X009561Y006911D01*
X009561Y006411D02*
X011161Y006411D01*
X014661Y009911D01*
X014661Y012911D01*
X014218Y012727D02*
X014104Y012727D01*
X014141Y012845D02*
X014181Y012845D01*
X014181Y012964D02*
X014141Y012964D01*
X014110Y013082D02*
X014213Y013082D01*
X014272Y013201D02*
X014050Y013201D01*
X013930Y013320D02*
X014393Y013320D01*
X014930Y013320D02*
X015393Y013320D01*
X015272Y013201D02*
X015050Y013201D01*
X015110Y013082D02*
X015213Y013082D01*
X015181Y012964D02*
X015141Y012964D01*
X015141Y012845D02*
X015181Y012845D01*
X015218Y012727D02*
X015104Y012727D01*
X015037Y012608D02*
X015285Y012608D01*
X015421Y012490D02*
X014901Y012490D01*
X014901Y012371D02*
X015421Y012371D01*
X015421Y012253D02*
X014901Y012253D01*
X014901Y012134D02*
X015421Y012134D01*
X015421Y012016D02*
X014901Y012016D01*
X014901Y011897D02*
X015421Y011897D01*
X015421Y011779D02*
X014901Y011779D01*
X014901Y011660D02*
X015421Y011660D01*
X015421Y011541D02*
X014901Y011541D01*
X014901Y011423D02*
X015421Y011423D01*
X015421Y011304D02*
X014901Y011304D01*
X014901Y011186D02*
X015421Y011186D01*
X015421Y011067D02*
X014901Y011067D01*
X014901Y010949D02*
X015421Y010949D01*
X015421Y010830D02*
X014901Y010830D01*
X014901Y010712D02*
X015421Y010712D01*
X015421Y010593D02*
X014901Y010593D01*
X014901Y010475D02*
X015421Y010475D01*
X015421Y010356D02*
X014901Y010356D01*
X014901Y010237D02*
X015398Y010237D01*
X015280Y010119D02*
X014901Y010119D01*
X014901Y010000D02*
X015161Y010000D01*
X015042Y009882D02*
X014901Y009882D01*
X014924Y009763D02*
X014853Y009763D01*
X014805Y009645D02*
X014734Y009645D01*
X014687Y009526D02*
X014616Y009526D01*
X014568Y009408D02*
X014497Y009408D01*
X014450Y009289D02*
X014379Y009289D01*
X014331Y009171D02*
X014260Y009171D01*
X014213Y009052D02*
X014141Y009052D01*
X014094Y008933D02*
X014023Y008933D01*
X013976Y008815D02*
X013904Y008815D01*
X013857Y008696D02*
X013786Y008696D01*
X013738Y008578D02*
X013667Y008578D01*
X013620Y008459D02*
X013549Y008459D01*
X013501Y008341D02*
X013430Y008341D01*
X013383Y008222D02*
X013312Y008222D01*
X013264Y008104D02*
X013193Y008104D01*
X013146Y007985D02*
X013075Y007985D01*
X013027Y007867D02*
X012956Y007867D01*
X012909Y007748D02*
X012837Y007748D01*
X012790Y007629D02*
X012719Y007629D01*
X012672Y007511D02*
X012600Y007511D01*
X012553Y007392D02*
X012482Y007392D01*
X012434Y007274D02*
X012363Y007274D01*
X012316Y007155D02*
X012245Y007155D01*
X012197Y007037D02*
X012126Y007037D01*
X012079Y006918D02*
X012008Y006918D01*
X011960Y006800D02*
X011889Y006800D01*
X011842Y006681D02*
X011771Y006681D01*
X011723Y006563D02*
X011652Y006563D01*
X011605Y006444D02*
X011533Y006444D01*
X011329Y006918D02*
X011271Y006918D01*
X011376Y007037D02*
X011447Y007037D01*
X011495Y007155D02*
X011566Y007155D01*
X011613Y007274D02*
X011684Y007274D01*
X011732Y007392D02*
X011803Y007392D01*
X011850Y007511D02*
X011922Y007511D01*
X011969Y007629D02*
X012040Y007629D01*
X012087Y007748D02*
X012159Y007748D01*
X012206Y007867D02*
X012277Y007867D01*
X012324Y007985D02*
X012396Y007985D01*
X012443Y008104D02*
X012514Y008104D01*
X012562Y008222D02*
X012633Y008222D01*
X012680Y008341D02*
X012751Y008341D01*
X012799Y008459D02*
X012870Y008459D01*
X012917Y008578D02*
X012988Y008578D01*
X013036Y008696D02*
X013107Y008696D01*
X013154Y008815D02*
X013226Y008815D01*
X013273Y008933D02*
X013344Y008933D01*
X013391Y009052D02*
X013463Y009052D01*
X013510Y009171D02*
X013581Y009171D01*
X013628Y009289D02*
X013700Y009289D01*
X013747Y009408D02*
X013818Y009408D01*
X013865Y009526D02*
X013937Y009526D01*
X013901Y009645D02*
X014055Y009645D01*
X014174Y009763D02*
X013901Y009763D01*
X013901Y009882D02*
X014292Y009882D01*
X014411Y010000D02*
X013901Y010000D01*
X013901Y010119D02*
X014421Y010119D01*
X014421Y010237D02*
X013901Y010237D01*
X013901Y010356D02*
X014421Y010356D01*
X014421Y010475D02*
X013901Y010475D01*
X013901Y010593D02*
X014421Y010593D01*
X014421Y010712D02*
X013901Y010712D01*
X013901Y010830D02*
X014421Y010830D01*
X014421Y010949D02*
X013901Y010949D01*
X013901Y011067D02*
X014421Y011067D01*
X014421Y011186D02*
X013901Y011186D01*
X013901Y011304D02*
X014421Y011304D01*
X014421Y011423D02*
X013901Y011423D01*
X013901Y011541D02*
X014421Y011541D01*
X014421Y011660D02*
X013901Y011660D01*
X013901Y011779D02*
X014421Y011779D01*
X014421Y011897D02*
X013901Y011897D01*
X013901Y012016D02*
X014421Y012016D01*
X014421Y012134D02*
X013901Y012134D01*
X013901Y012253D02*
X014421Y012253D01*
X014421Y012371D02*
X013901Y012371D01*
X013901Y012490D02*
X014421Y012490D01*
X014285Y012608D02*
X014037Y012608D01*
X013421Y012490D02*
X012901Y012490D01*
X012901Y012371D02*
X013421Y012371D01*
X013421Y012253D02*
X012901Y012253D01*
X012901Y012134D02*
X013421Y012134D01*
X013421Y012016D02*
X012901Y012016D01*
X012901Y011897D02*
X013421Y011897D01*
X013421Y011779D02*
X012901Y011779D01*
X012901Y011660D02*
X013421Y011660D01*
X013421Y011541D02*
X012901Y011541D01*
X012901Y011423D02*
X013421Y011423D01*
X013421Y011304D02*
X012901Y011304D01*
X012901Y011186D02*
X013421Y011186D01*
X013421Y011067D02*
X012901Y011067D01*
X012901Y010949D02*
X013421Y010949D01*
X013421Y010830D02*
X012901Y010830D01*
X012901Y010712D02*
X013421Y010712D01*
X013421Y010593D02*
X012901Y010593D01*
X012901Y010475D02*
X013421Y010475D01*
X013421Y010356D02*
X012901Y010356D01*
X012901Y010237D02*
X013421Y010237D01*
X013421Y010119D02*
X012901Y010119D01*
X012901Y010000D02*
X013421Y010000D01*
X013421Y009882D02*
X012901Y009882D01*
X012901Y009763D02*
X013421Y009763D01*
X013305Y009645D02*
X012901Y009645D01*
X012901Y009526D02*
X013187Y009526D01*
X013068Y009408D02*
X012901Y009408D01*
X012870Y009289D02*
X012950Y009289D01*
X012831Y009171D02*
X012760Y009171D01*
X012713Y009052D02*
X012641Y009052D01*
X012594Y008933D02*
X012523Y008933D01*
X012476Y008815D02*
X012404Y008815D01*
X012357Y008696D02*
X012286Y008696D01*
X012238Y008578D02*
X012167Y008578D01*
X012120Y008459D02*
X012049Y008459D01*
X012001Y008341D02*
X011930Y008341D01*
X011883Y008222D02*
X011812Y008222D01*
X011764Y008104D02*
X011693Y008104D01*
X011646Y007985D02*
X011574Y007985D01*
X011527Y007867D02*
X011456Y007867D01*
X011409Y007748D02*
X011337Y007748D01*
X011290Y007629D02*
X011219Y007629D01*
X011172Y007511D02*
X011100Y007511D01*
X011053Y007392D02*
X011021Y007392D01*
X010777Y007867D02*
X010771Y007867D01*
X010824Y007985D02*
X010896Y007985D01*
X010943Y008104D02*
X011014Y008104D01*
X011062Y008222D02*
X011133Y008222D01*
X009661Y009511D02*
X009561Y009411D01*
X009661Y009511D02*
X009661Y009911D01*
X008661Y010911D01*
X008661Y012911D01*
X008218Y012727D02*
X008104Y012727D01*
X008068Y012639D02*
X008141Y012816D01*
X008141Y013007D01*
X008068Y013183D01*
X007933Y013318D01*
X007757Y013391D01*
X007566Y013391D01*
X007389Y013318D01*
X007254Y013183D01*
X007181Y013007D01*
X007181Y012816D01*
X007254Y012639D01*
X007389Y012504D01*
X007566Y012431D01*
X007757Y012431D01*
X007933Y012504D01*
X008068Y012639D01*
X008037Y012608D02*
X008285Y012608D01*
X008421Y012490D02*
X007898Y012490D01*
X008141Y012845D02*
X008181Y012845D01*
X008181Y012964D02*
X008141Y012964D01*
X008110Y013082D02*
X008213Y013082D01*
X008272Y013201D02*
X008050Y013201D01*
X007930Y013320D02*
X008393Y013320D01*
X007393Y013320D02*
X006916Y013320D01*
X006913Y013322D02*
X006846Y013356D01*
X006774Y013379D01*
X006704Y013390D01*
X006704Y012954D01*
X006619Y012954D01*
X006619Y013390D01*
X006549Y013379D01*
X006477Y013356D01*
X006410Y013322D01*
X006349Y013277D01*
X006295Y013224D01*
X006251Y013163D01*
X006216Y013096D01*
X006193Y013024D01*
X006182Y012954D01*
X006619Y012954D01*
X006619Y012869D01*
X006182Y012869D01*
X006193Y012799D01*
X006216Y012727D01*
X006251Y012660D01*
X006295Y012599D01*
X006349Y012545D01*
X006410Y012501D01*
X006477Y012466D01*
X006549Y012443D01*
X006619Y012432D01*
X006619Y012869D01*
X006704Y012869D01*
X006704Y012954D01*
X007140Y012954D01*
X007129Y013024D01*
X007106Y013096D01*
X007072Y013163D01*
X007027Y013224D01*
X006974Y013277D01*
X006913Y013322D01*
X007044Y013201D02*
X007272Y013201D01*
X007213Y013082D02*
X007110Y013082D01*
X007139Y012964D02*
X007181Y012964D01*
X007140Y012869D02*
X006704Y012869D01*
X006704Y012432D01*
X006774Y012443D01*
X006846Y012466D01*
X006913Y012501D01*
X006974Y012545D01*
X007027Y012599D01*
X007072Y012660D01*
X007106Y012727D01*
X007129Y012799D01*
X007140Y012869D01*
X007137Y012845D02*
X007181Y012845D01*
X007218Y012727D02*
X007106Y012727D01*
X007034Y012608D02*
X007285Y012608D01*
X007424Y012490D02*
X006891Y012490D01*
X006704Y012490D02*
X006619Y012490D01*
X006619Y012608D02*
X006704Y012608D01*
X006704Y012727D02*
X006619Y012727D01*
X006619Y012845D02*
X006704Y012845D01*
X006704Y012964D02*
X006619Y012964D01*
X006619Y013082D02*
X006704Y013082D01*
X006704Y013201D02*
X006619Y013201D01*
X006619Y013320D02*
X006704Y013320D01*
X006407Y013320D02*
X005930Y013320D01*
X005933Y013318D02*
X005757Y013391D01*
X005566Y013391D01*
X005389Y013318D01*
X005254Y013183D01*
X005181Y013007D01*
X005181Y012816D01*
X005254Y012639D01*
X005389Y012504D01*
X005566Y012431D01*
X005757Y012431D01*
X005933Y012504D01*
X006068Y012639D01*
X006141Y012816D01*
X006141Y013007D01*
X006068Y013183D01*
X005933Y013318D01*
X006050Y013201D02*
X006279Y013201D01*
X006212Y013082D02*
X006110Y013082D01*
X006141Y012964D02*
X006184Y012964D01*
X006186Y012845D02*
X006141Y012845D01*
X006104Y012727D02*
X006216Y012727D01*
X006288Y012608D02*
X006037Y012608D01*
X005898Y012490D02*
X006431Y012490D01*
X005424Y012490D02*
X005106Y012490D01*
X005141Y012608D02*
X005285Y012608D01*
X005218Y012727D02*
X005141Y012727D01*
X005141Y012845D02*
X005181Y012845D01*
X005181Y012964D02*
X005141Y012964D01*
X005141Y013082D02*
X005213Y013082D01*
X005272Y013201D02*
X005141Y013201D01*
X005178Y013320D02*
X005393Y013320D01*
X005296Y013438D02*
X016026Y013438D01*
X015930Y013320D02*
X016145Y013320D01*
X016181Y013201D02*
X016050Y013201D01*
X016110Y013082D02*
X016181Y013082D01*
X016181Y012964D02*
X016141Y012964D01*
X016141Y012845D02*
X016181Y012845D01*
X016181Y012727D02*
X016104Y012727D01*
X016037Y012608D02*
X016181Y012608D01*
X016216Y012490D02*
X015901Y012490D01*
X015901Y012371D02*
X016791Y012371D01*
X016663Y012253D02*
X015901Y012253D01*
X015901Y012134D02*
X016545Y012134D01*
X016426Y012016D02*
X015901Y012016D01*
X015901Y011897D02*
X016308Y011897D01*
X016189Y011779D02*
X015901Y011779D01*
X015901Y011660D02*
X016071Y011660D01*
X016025Y011615D02*
X016025Y011615D01*
X015955Y011541D02*
X015901Y011541D01*
X015901Y011423D02*
X015921Y011423D01*
X015921Y011304D02*
X015901Y011304D01*
X015901Y011186D02*
X015921Y011186D01*
X015921Y011067D02*
X015901Y011067D01*
X015901Y010949D02*
X015921Y010949D01*
X015921Y010830D02*
X015901Y010830D01*
X015901Y010712D02*
X015921Y010712D01*
X015921Y010593D02*
X015901Y010593D01*
X015901Y010475D02*
X015921Y010475D01*
X015921Y010356D02*
X015901Y010356D01*
X015901Y010237D02*
X015921Y010237D01*
X015921Y010119D02*
X015901Y010119D01*
X015911Y010000D02*
X015840Y010000D01*
X015792Y009882D02*
X015721Y009882D01*
X015674Y009763D02*
X015603Y009763D01*
X015555Y009645D02*
X015484Y009645D01*
X015437Y009526D02*
X015366Y009526D01*
X015318Y009408D02*
X015247Y009408D01*
X015200Y009289D02*
X015128Y009289D01*
X015081Y009171D02*
X015010Y009171D01*
X014963Y009052D02*
X014891Y009052D01*
X014844Y008933D02*
X014773Y008933D01*
X014726Y008815D02*
X014654Y008815D01*
X014607Y008696D02*
X014536Y008696D01*
X014488Y008578D02*
X014417Y008578D01*
X014370Y008459D02*
X014299Y008459D01*
X014251Y008341D02*
X014180Y008341D01*
X014133Y008222D02*
X014062Y008222D01*
X014014Y008104D02*
X013943Y008104D01*
X013896Y007985D02*
X013824Y007985D01*
X013777Y007867D02*
X013706Y007867D01*
X013659Y007748D02*
X013587Y007748D01*
X013540Y007629D02*
X013469Y007629D01*
X013443Y007511D02*
X013350Y007511D01*
X013421Y007392D02*
X013232Y007392D01*
X013113Y007274D02*
X013421Y007274D01*
X013421Y007155D02*
X012995Y007155D01*
X012876Y007037D02*
X013421Y007037D01*
X013421Y006918D02*
X013163Y006918D01*
X013244Y006800D02*
X013421Y006800D01*
X013421Y006681D02*
X013271Y006681D01*
X013260Y006563D02*
X013421Y006563D01*
X013421Y006444D02*
X013203Y006444D01*
X013151Y006326D02*
X013421Y006326D01*
X013421Y006207D02*
X013151Y006207D01*
X013151Y006088D02*
X013421Y006088D01*
X013421Y005970D02*
X013151Y005970D01*
X013151Y005851D02*
X013421Y005851D01*
X013421Y005733D02*
X013151Y005733D01*
X013151Y005614D02*
X013421Y005614D01*
X013421Y005496D02*
X013151Y005496D01*
X013151Y005377D02*
X013421Y005377D01*
X013421Y005259D02*
X013151Y005259D01*
X013151Y005140D02*
X013421Y005140D01*
X013421Y005022D02*
X013151Y005022D01*
X013151Y004903D02*
X013421Y004903D01*
X013421Y004784D02*
X013151Y004784D01*
X013151Y004666D02*
X013421Y004666D01*
X013421Y004547D02*
X013151Y004547D01*
X013151Y004429D02*
X013421Y004429D01*
X013194Y004310D02*
X013151Y004310D01*
X013151Y004192D02*
X013181Y004192D01*
X013181Y004073D02*
X013151Y004073D01*
X013151Y003955D02*
X013181Y003955D01*
X013181Y003836D02*
X013151Y003836D01*
X013151Y003718D02*
X013181Y003718D01*
X013181Y003599D02*
X013151Y003599D01*
X013181Y003480D02*
X013226Y003480D01*
X013300Y003362D02*
X014922Y003362D01*
X014921Y003480D02*
X014873Y003480D01*
X014704Y003480D02*
X014619Y003480D01*
X014619Y003432D02*
X014619Y003869D01*
X014182Y003869D01*
X014193Y003799D01*
X014216Y003727D01*
X014251Y003660D01*
X014295Y003599D01*
X014141Y003599D01*
X014141Y003718D02*
X014221Y003718D01*
X014187Y003836D02*
X014141Y003836D01*
X014141Y003955D02*
X014182Y003955D01*
X014209Y004073D02*
X014141Y004073D01*
X014141Y004192D02*
X014272Y004192D01*
X014394Y004310D02*
X014128Y004310D01*
X013901Y004429D02*
X014804Y004429D01*
X014704Y004310D02*
X014619Y004310D01*
X014619Y004192D02*
X014704Y004192D01*
X014704Y004073D02*
X014619Y004073D01*
X014619Y003955D02*
X014704Y003955D01*
X014704Y003836D02*
X014619Y003836D01*
X014619Y003718D02*
X014704Y003718D01*
X014704Y003599D02*
X014619Y003599D01*
X014619Y003432D02*
X014549Y003443D01*
X014477Y003466D01*
X014410Y003501D01*
X014349Y003545D01*
X014295Y003599D01*
X014449Y003480D02*
X014097Y003480D01*
X013537Y003125D02*
X015108Y003125D01*
X014990Y003243D02*
X013419Y003243D01*
X013656Y003006D02*
X015227Y003006D01*
X015345Y002888D02*
X013774Y002888D01*
X013893Y002769D02*
X015464Y002769D01*
X015582Y002651D02*
X014011Y002651D01*
X014130Y002532D02*
X015701Y002532D01*
X015911Y002661D02*
X015161Y003411D01*
X015161Y004411D01*
X014161Y005411D01*
X014161Y007161D01*
X013921Y006800D02*
X013901Y006800D01*
X013901Y006681D02*
X013921Y006681D01*
X013921Y006563D02*
X013901Y006563D01*
X013901Y006444D02*
X013921Y006444D01*
X013921Y006326D02*
X013901Y006326D01*
X013901Y006207D02*
X013921Y006207D01*
X013921Y006088D02*
X013901Y006088D01*
X013901Y005970D02*
X013921Y005970D01*
X013921Y005851D02*
X013901Y005851D01*
X013901Y005733D02*
X013921Y005733D01*
X013921Y005614D02*
X013901Y005614D01*
X013901Y005496D02*
X013921Y005496D01*
X013921Y005377D02*
X013901Y005377D01*
X013901Y005259D02*
X013974Y005259D01*
X013901Y005140D02*
X014093Y005140D01*
X014212Y005022D02*
X013901Y005022D01*
X013901Y004903D02*
X014330Y004903D01*
X014449Y004784D02*
X013901Y004784D01*
X013901Y004666D02*
X014567Y004666D01*
X014686Y004547D02*
X013901Y004547D01*
X013661Y003911D02*
X013661Y007411D01*
X016161Y009911D01*
X016161Y011411D01*
X016911Y012161D01*
X019911Y012161D01*
X022661Y014911D01*
X022181Y014861D02*
X012704Y014861D01*
X012691Y014836D02*
X012736Y014923D01*
X012766Y015016D01*
X012780Y015106D01*
X012216Y015106D01*
X012216Y014542D01*
X012306Y014557D01*
X012399Y014587D01*
X012486Y014631D01*
X012565Y014688D01*
X012634Y014757D01*
X012691Y014836D01*
X012619Y014742D02*
X022153Y014742D01*
X022034Y014624D02*
X012472Y014624D01*
X012216Y014624D02*
X012106Y014624D01*
X012106Y014542D02*
X012106Y015106D01*
X012216Y015106D01*
X012216Y015216D01*
X012780Y015216D01*
X022181Y015216D01*
X022181Y015098D02*
X012779Y015098D01*
X012780Y015216D02*
X012766Y015306D01*
X012736Y015399D01*
X012691Y015486D01*
X012634Y015565D01*
X012565Y015634D01*
X012486Y015691D01*
X012399Y015736D01*
X012306Y015766D01*
X012216Y015780D01*
X012216Y015216D01*
X012106Y015216D01*
X012106Y015106D01*
X011542Y015106D01*
X011557Y015016D01*
X011587Y014923D01*
X011631Y014836D01*
X011688Y014757D01*
X011757Y014688D01*
X011836Y014631D01*
X011923Y014587D01*
X012016Y014557D01*
X012106Y014542D01*
X012106Y014742D02*
X012216Y014742D01*
X012216Y014861D02*
X012106Y014861D01*
X012106Y014979D02*
X012216Y014979D01*
X012216Y015098D02*
X012106Y015098D01*
X012106Y015216D02*
X011542Y015216D01*
X006781Y015216D01*
X006781Y015098D02*
X011544Y015098D01*
X011542Y015216D02*
X011557Y015306D01*
X011587Y015399D01*
X011631Y015486D01*
X011688Y015565D01*
X011757Y015634D01*
X011836Y015691D01*
X011923Y015736D01*
X012016Y015766D01*
X012106Y015780D01*
X012106Y015216D01*
X012106Y015335D02*
X012216Y015335D01*
X012216Y015453D02*
X012106Y015453D01*
X012106Y015572D02*
X012216Y015572D01*
X012216Y015690D02*
X012106Y015690D01*
X011835Y015690D02*
X006778Y015690D01*
X006781Y015572D02*
X011695Y015572D01*
X011614Y015453D02*
X006781Y015453D01*
X006781Y015335D02*
X011566Y015335D01*
X011569Y014979D02*
X006781Y014979D01*
X006781Y014861D02*
X011619Y014861D01*
X011704Y014742D02*
X006781Y014742D01*
X006770Y014624D02*
X011851Y014624D01*
X012754Y014979D02*
X022181Y014979D01*
X021916Y014505D02*
X006591Y014505D01*
X006591Y014386D02*
X021797Y014386D01*
X021679Y014268D02*
X016413Y014268D01*
X016531Y014149D02*
X021560Y014149D01*
X021441Y014031D02*
X016650Y014031D01*
X016768Y013912D02*
X021323Y013912D01*
X021204Y013794D02*
X016887Y013794D01*
X017005Y013675D02*
X021086Y013675D01*
X020967Y013557D02*
X017066Y013557D01*
X017091Y013438D02*
X020849Y013438D01*
X020730Y013320D02*
X017916Y013320D01*
X017913Y013322D02*
X017846Y013356D01*
X017774Y013379D01*
X017704Y013390D01*
X017704Y012954D01*
X017619Y012954D01*
X017619Y013390D01*
X017549Y013379D01*
X017477Y013356D01*
X017410Y013322D01*
X017349Y013277D01*
X017295Y013224D01*
X017251Y013163D01*
X017216Y013096D01*
X017193Y013024D01*
X017182Y012954D01*
X017619Y012954D01*
X017619Y012869D01*
X017182Y012869D01*
X017193Y012799D01*
X017216Y012727D01*
X017251Y012660D01*
X017295Y012599D01*
X017349Y012545D01*
X017410Y012501D01*
X017477Y012466D01*
X017549Y012443D01*
X017619Y012432D01*
X017619Y012869D01*
X017704Y012869D01*
X017704Y012954D01*
X018140Y012954D01*
X018129Y013024D01*
X018106Y013096D01*
X018072Y013163D01*
X018027Y013224D01*
X017974Y013277D01*
X017913Y013322D01*
X018044Y013201D02*
X020612Y013201D01*
X020493Y013082D02*
X018110Y013082D01*
X018139Y012964D02*
X020375Y012964D01*
X020256Y012845D02*
X018137Y012845D01*
X018140Y012869D02*
X017704Y012869D01*
X017704Y012432D01*
X017774Y012443D01*
X017846Y012466D01*
X017913Y012501D01*
X017974Y012545D01*
X018027Y012599D01*
X018072Y012660D01*
X018106Y012727D01*
X018129Y012799D01*
X018140Y012869D01*
X018106Y012727D02*
X020137Y012727D01*
X020019Y012608D02*
X018034Y012608D01*
X017891Y012490D02*
X019900Y012490D01*
X020224Y012134D02*
X023949Y012134D01*
X023949Y012016D02*
X020105Y012016D01*
X020342Y012253D02*
X023949Y012253D01*
X023949Y012371D02*
X020461Y012371D01*
X020579Y012490D02*
X023949Y012490D01*
X023949Y012608D02*
X020698Y012608D01*
X020816Y012727D02*
X023949Y012727D01*
X023949Y012845D02*
X020935Y012845D01*
X021053Y012964D02*
X023950Y012964D01*
X023950Y013082D02*
X021172Y013082D01*
X021290Y013201D02*
X023950Y013201D01*
X023950Y013320D02*
X021409Y013320D01*
X021527Y013438D02*
X022580Y013438D01*
X022549Y013443D02*
X022619Y013432D01*
X022619Y013869D01*
X022704Y013869D01*
X022704Y013954D01*
X022619Y013954D01*
X022619Y013869D01*
X022182Y013869D01*
X022193Y013799D01*
X022216Y013727D01*
X022251Y013660D01*
X022295Y013599D01*
X022349Y013545D01*
X022410Y013501D01*
X022477Y013466D01*
X022549Y013443D01*
X022619Y013438D02*
X022704Y013438D01*
X022704Y013432D02*
X022774Y013443D01*
X022846Y013466D01*
X022913Y013501D01*
X022974Y013545D01*
X023027Y013599D01*
X023072Y013660D01*
X023106Y013727D01*
X023129Y013799D01*
X023140Y013869D01*
X022704Y013869D01*
X022704Y013432D01*
X022742Y013438D02*
X023950Y013438D01*
X023950Y013557D02*
X022985Y013557D01*
X023080Y013675D02*
X023950Y013675D01*
X023950Y013794D02*
X023128Y013794D01*
X023140Y013954D02*
X023129Y014024D01*
X023106Y014096D01*
X023072Y014163D01*
X023027Y014224D01*
X022974Y014277D01*
X022913Y014322D01*
X022846Y014356D01*
X022774Y014379D01*
X022704Y014390D01*
X022704Y013954D01*
X023140Y013954D01*
X023127Y014031D02*
X023950Y014031D01*
X023950Y014149D02*
X023079Y014149D01*
X022983Y014268D02*
X023950Y014268D01*
X023950Y014386D02*
X022729Y014386D01*
X022704Y014386D02*
X022619Y014386D01*
X022594Y014386D02*
X022476Y014386D01*
X022619Y014268D02*
X022704Y014268D01*
X022704Y014149D02*
X022619Y014149D01*
X022619Y014031D02*
X022704Y014031D01*
X022704Y013912D02*
X023950Y013912D01*
X023950Y014505D02*
X023121Y014505D01*
X023141Y014624D02*
X023950Y014624D01*
X023950Y014742D02*
X023141Y014742D01*
X023141Y014861D02*
X023950Y014861D01*
X023951Y014979D02*
X023141Y014979D01*
X023141Y015098D02*
X023951Y015098D01*
X023951Y015216D02*
X023141Y015216D01*
X023104Y015335D02*
X023951Y015335D01*
X023951Y015453D02*
X012708Y015453D01*
X012757Y015335D02*
X022219Y015335D01*
X022239Y014149D02*
X022244Y014149D01*
X022195Y014031D02*
X022120Y014031D01*
X022002Y013912D02*
X022619Y013912D01*
X022619Y013794D02*
X022704Y013794D01*
X022704Y013675D02*
X022619Y013675D01*
X022619Y013557D02*
X022704Y013557D01*
X022337Y013557D02*
X021646Y013557D01*
X021765Y013675D02*
X022243Y013675D01*
X022195Y013794D02*
X021883Y013794D01*
X023951Y015572D02*
X012627Y015572D01*
X012488Y015690D02*
X023951Y015690D01*
X023949Y011897D02*
X016986Y011897D01*
X016931Y011779D02*
X016868Y011779D01*
X016931Y011660D02*
X016749Y011660D01*
X016631Y011541D02*
X016931Y011541D01*
X016931Y011423D02*
X016512Y011423D01*
X016401Y011304D02*
X016931Y011304D01*
X016846Y011186D02*
X016401Y011186D01*
X016401Y011067D02*
X016728Y011067D01*
X016609Y010949D02*
X016401Y010949D01*
X016401Y010830D02*
X016491Y010830D01*
X016422Y010712D02*
X016401Y010712D01*
X016401Y010593D02*
X016421Y010593D01*
X016421Y010475D02*
X016401Y010475D01*
X016401Y010356D02*
X016421Y010356D01*
X016421Y010237D02*
X016401Y010237D01*
X016401Y010119D02*
X016421Y010119D01*
X016401Y010000D02*
X016483Y010000D01*
X016401Y009882D02*
X016601Y009882D01*
X016720Y009763D02*
X016353Y009763D01*
X016234Y009645D02*
X016988Y009645D01*
X016939Y009526D02*
X016116Y009526D01*
X015997Y009408D02*
X016931Y009408D01*
X016942Y009289D02*
X015878Y009289D01*
X016161Y009171D02*
X016991Y009171D01*
X017092Y009052D02*
X016243Y009052D01*
X016271Y008933D02*
X017310Y008933D01*
X017512Y008933D02*
X017550Y008933D01*
X017911Y008911D02*
X017411Y009411D01*
X017136Y008815D02*
X016261Y008815D01*
X016205Y008696D02*
X017018Y008696D01*
X016961Y008578D02*
X016151Y008578D01*
X016151Y008459D02*
X016931Y008459D01*
X016931Y008341D02*
X016151Y008341D01*
X016151Y008222D02*
X016970Y008222D01*
X017040Y008104D02*
X016151Y008104D01*
X016151Y007985D02*
X017186Y007985D01*
X017256Y007867D02*
X016151Y007867D01*
X016151Y007748D02*
X017069Y007748D01*
X016982Y007629D02*
X016151Y007629D01*
X016151Y007511D02*
X016933Y007511D01*
X016931Y007392D02*
X016151Y007392D01*
X016151Y007274D02*
X016949Y007274D01*
X016998Y007155D02*
X016151Y007155D01*
X016151Y007037D02*
X017107Y007037D01*
X017121Y006800D02*
X016151Y006800D01*
X016151Y006918D02*
X017565Y006918D01*
X017911Y006911D02*
X018661Y006911D01*
X018411Y007411D02*
X019161Y007411D01*
X019661Y007911D01*
X019221Y008104D02*
X019101Y008104D01*
X019141Y007985D02*
X019181Y007985D01*
X019181Y007867D02*
X019141Y007867D01*
X019159Y007748D02*
X019113Y007748D01*
X018661Y007911D02*
X017911Y008661D01*
X017911Y008911D01*
X017411Y008411D02*
X018411Y007411D01*
X017911Y006911D02*
X017411Y007411D01*
X017566Y007867D02*
X017616Y007867D01*
X018879Y008341D02*
X019444Y008341D01*
X019498Y008459D02*
X019076Y008459D01*
X019141Y008578D02*
X019316Y008578D01*
X019231Y008696D02*
X019141Y008696D01*
X019141Y008815D02*
X019182Y008815D01*
X019181Y008933D02*
X019141Y008933D01*
X019141Y009052D02*
X019200Y009052D01*
X019249Y009171D02*
X019141Y009171D01*
X019141Y009289D02*
X019360Y009289D01*
X019325Y009408D02*
X018901Y009408D01*
X018873Y009526D02*
X019207Y009526D01*
X019088Y009645D02*
X018767Y009645D01*
X018649Y009763D02*
X018970Y009763D01*
X018851Y009882D02*
X018530Y009882D01*
X018412Y010000D02*
X018733Y010000D01*
X018614Y010119D02*
X018287Y010119D01*
X018661Y010411D02*
X019661Y009411D01*
X019661Y008911D01*
X020007Y008578D02*
X023171Y008578D01*
X023171Y008696D02*
X020092Y008696D01*
X020141Y008815D02*
X023171Y008815D01*
X023171Y008933D02*
X020141Y008933D01*
X020122Y009052D02*
X023171Y009052D01*
X023171Y009171D02*
X020073Y009171D01*
X019962Y009289D02*
X023171Y009289D01*
X023171Y009408D02*
X019901Y009408D01*
X019873Y009526D02*
X023171Y009526D01*
X023171Y009645D02*
X019767Y009645D01*
X019649Y009763D02*
X023171Y009763D01*
X023171Y009882D02*
X019530Y009882D01*
X019412Y010000D02*
X022410Y010000D01*
X022410Y010001D02*
X022477Y009966D01*
X022549Y009943D01*
X022619Y009932D01*
X022619Y010369D01*
X022704Y010369D01*
X022704Y010454D01*
X022619Y010454D01*
X022619Y010890D01*
X022549Y010879D01*
X022477Y010856D01*
X022410Y010822D01*
X022349Y010777D01*
X022295Y010724D01*
X022251Y010663D01*
X022216Y010596D01*
X022193Y010524D01*
X022182Y010454D01*
X022619Y010454D01*
X022619Y010369D01*
X022182Y010369D01*
X022193Y010299D01*
X022216Y010227D01*
X022251Y010160D01*
X022295Y010099D01*
X022349Y010045D01*
X022410Y010001D01*
X022280Y010119D02*
X019293Y010119D01*
X019174Y010237D02*
X022213Y010237D01*
X022184Y010356D02*
X019056Y010356D01*
X018937Y010475D02*
X022185Y010475D01*
X022216Y010593D02*
X018819Y010593D01*
X018661Y010411D02*
X017411Y010411D01*
X017790Y010712D02*
X022286Y010712D01*
X022426Y010830D02*
X017654Y010830D01*
X017815Y010949D02*
X022258Y010949D01*
X022181Y011067D02*
X017891Y011067D01*
X017891Y011186D02*
X022181Y011186D01*
X022181Y011304D02*
X017891Y011304D01*
X017891Y011423D02*
X022181Y011423D01*
X022181Y011541D02*
X017891Y011541D01*
X017891Y011660D02*
X022181Y011660D01*
X022181Y011779D02*
X017891Y011779D01*
X017411Y011411D02*
X016661Y010661D01*
X016661Y010161D01*
X016911Y009911D01*
X018161Y009911D01*
X018661Y009411D01*
X018661Y008911D01*
X019029Y008222D02*
X019293Y008222D01*
X019824Y008459D02*
X023171Y008459D01*
X023171Y008341D02*
X023098Y008341D01*
X023141Y008222D02*
X023171Y008222D01*
X023171Y008104D02*
X023141Y008104D01*
X023141Y007985D02*
X023171Y007985D01*
X023171Y007867D02*
X023141Y007867D01*
X023141Y007748D02*
X023171Y007748D01*
X023171Y007629D02*
X023141Y007629D01*
X023127Y007511D02*
X023171Y007511D01*
X023171Y007392D02*
X021482Y007392D01*
X021363Y007274D02*
X022345Y007274D01*
X022243Y007155D02*
X021245Y007155D01*
X021126Y007037D02*
X021447Y007037D01*
X021329Y006918D02*
X021008Y006918D01*
X020889Y006800D02*
X021210Y006800D01*
X021092Y006681D02*
X020771Y006681D01*
X020652Y006563D02*
X020973Y006563D01*
X020855Y006444D02*
X020533Y006444D01*
X020415Y006326D02*
X020736Y006326D01*
X020618Y006207D02*
X020296Y006207D01*
X020178Y006088D02*
X020499Y006088D01*
X020380Y005970D02*
X020059Y005970D01*
X019941Y005851D02*
X020262Y005851D01*
X020143Y005733D02*
X019822Y005733D01*
X019704Y005614D02*
X020025Y005614D01*
X019906Y005496D02*
X019585Y005496D01*
X019411Y005661D02*
X016911Y005661D01*
X015911Y006661D01*
X015911Y008911D01*
X015617Y008696D02*
X015286Y008696D01*
X015167Y008578D02*
X015671Y008578D01*
X015671Y008459D02*
X015372Y008459D01*
X015477Y008341D02*
X015671Y008341D01*
X015671Y008222D02*
X015521Y008222D01*
X015521Y008104D02*
X015671Y008104D01*
X015671Y007985D02*
X015478Y007985D01*
X015401Y007867D02*
X015671Y007867D01*
X015671Y007748D02*
X015401Y007748D01*
X015401Y007629D02*
X015671Y007629D01*
X015671Y007511D02*
X015401Y007511D01*
X015401Y007392D02*
X015671Y007392D01*
X015671Y007274D02*
X015401Y007274D01*
X015401Y007155D02*
X015671Y007155D01*
X015671Y007037D02*
X015401Y007037D01*
X015401Y006918D02*
X015671Y006918D01*
X015671Y006800D02*
X015401Y006800D01*
X015401Y006681D02*
X015671Y006681D01*
X015692Y006563D02*
X015401Y006563D01*
X015468Y006444D02*
X015789Y006444D01*
X015908Y006326D02*
X015586Y006326D01*
X015705Y006207D02*
X016026Y006207D01*
X016145Y006088D02*
X015823Y006088D01*
X015942Y005970D02*
X016263Y005970D01*
X016382Y005851D02*
X016061Y005851D01*
X016179Y005733D02*
X016500Y005733D01*
X016619Y005614D02*
X016298Y005614D01*
X016416Y005496D02*
X016737Y005496D01*
X016411Y005161D02*
X015161Y006411D01*
X015161Y008161D01*
X014661Y007661D02*
X014661Y005911D01*
X016161Y004411D01*
X016161Y003411D01*
X016411Y003161D01*
X019911Y003161D01*
X022661Y005911D01*
X023107Y005733D02*
X023946Y005733D01*
X023946Y005851D02*
X023141Y005851D01*
X023141Y005970D02*
X023946Y005970D01*
X023946Y006088D02*
X023107Y006088D01*
X023295Y006207D02*
X023946Y006207D01*
X023946Y006326D02*
X023415Y006326D01*
X023533Y006444D02*
X023946Y006444D01*
X023946Y006563D02*
X023630Y006563D01*
X023651Y006681D02*
X023947Y006681D01*
X023947Y006800D02*
X023651Y006800D01*
X023651Y006918D02*
X023947Y006918D01*
X023947Y007037D02*
X023651Y007037D01*
X023651Y007155D02*
X023947Y007155D01*
X023947Y007274D02*
X023651Y007274D01*
X023651Y007392D02*
X023947Y007392D01*
X023947Y007511D02*
X023651Y007511D01*
X023651Y007629D02*
X023947Y007629D01*
X023947Y007748D02*
X023651Y007748D01*
X023651Y007867D02*
X023947Y007867D01*
X023947Y007985D02*
X023651Y007985D01*
X023651Y008104D02*
X023947Y008104D01*
X023947Y008222D02*
X023651Y008222D01*
X023651Y008341D02*
X023947Y008341D01*
X023947Y008459D02*
X023651Y008459D01*
X023651Y008578D02*
X023947Y008578D01*
X023947Y008696D02*
X023651Y008696D01*
X023651Y008815D02*
X023948Y008815D01*
X023948Y008933D02*
X023651Y008933D01*
X023651Y009052D02*
X023948Y009052D01*
X023948Y009171D02*
X023651Y009171D01*
X023651Y009289D02*
X023948Y009289D01*
X023948Y009408D02*
X023651Y009408D01*
X023651Y009526D02*
X023948Y009526D01*
X023948Y009645D02*
X023651Y009645D01*
X023651Y009763D02*
X023948Y009763D01*
X023948Y009882D02*
X023651Y009882D01*
X023651Y010000D02*
X023948Y010000D01*
X023948Y010119D02*
X023651Y010119D01*
X023651Y010237D02*
X023948Y010237D01*
X023948Y010356D02*
X023651Y010356D01*
X023651Y010475D02*
X023948Y010475D01*
X023948Y010593D02*
X023651Y010593D01*
X023650Y010712D02*
X023948Y010712D01*
X023949Y010830D02*
X023582Y010830D01*
X023463Y010949D02*
X023949Y010949D01*
X023949Y011067D02*
X023345Y011067D01*
X023226Y011186D02*
X023949Y011186D01*
X023949Y011304D02*
X023141Y011304D01*
X023141Y011423D02*
X023949Y011423D01*
X023949Y011541D02*
X023141Y011541D01*
X023141Y011660D02*
X023949Y011660D01*
X023949Y011779D02*
X023141Y011779D01*
X022661Y011411D02*
X023411Y010661D01*
X023411Y006661D01*
X023161Y006411D01*
X022161Y006411D01*
X020411Y004661D01*
X018411Y004661D01*
X017661Y003911D01*
X017222Y003718D02*
X017101Y003718D01*
X017068Y003639D02*
X017141Y003816D01*
X017141Y004007D01*
X017068Y004183D01*
X016933Y004318D01*
X016757Y004391D01*
X016566Y004391D01*
X016401Y004323D01*
X016401Y004364D01*
X016401Y004459D01*
X016365Y004547D01*
X014901Y006011D01*
X014901Y007392D01*
X014921Y007412D01*
X014921Y006364D01*
X014958Y006275D01*
X015025Y006208D01*
X016275Y004958D01*
X016364Y004921D01*
X016459Y004921D01*
X019959Y004921D01*
X020047Y004958D01*
X020115Y005025D01*
X021761Y006671D01*
X022241Y006671D01*
X022249Y006651D01*
X022114Y006651D01*
X022025Y006615D01*
X021958Y006547D01*
X020312Y004901D01*
X018364Y004901D01*
X018275Y004865D01*
X018208Y004797D01*
X017789Y004378D01*
X017757Y004391D01*
X017566Y004391D01*
X017389Y004318D01*
X017254Y004183D01*
X017181Y004007D01*
X017181Y003816D01*
X017254Y003639D01*
X017389Y003504D01*
X017566Y003431D01*
X017757Y003431D01*
X017933Y003504D01*
X018068Y003639D01*
X018141Y003816D01*
X018141Y004007D01*
X018128Y004039D01*
X018249Y004160D01*
X018216Y004096D01*
X018193Y004024D01*
X018182Y003954D01*
X018619Y003954D01*
X018619Y004390D01*
X018549Y004379D01*
X018477Y004356D01*
X018413Y004323D01*
X018511Y004421D01*
X020364Y004421D01*
X020459Y004421D01*
X020547Y004458D01*
X022241Y006152D01*
X022181Y006007D01*
X022181Y005816D01*
X022194Y005784D01*
X019812Y003401D01*
X016511Y003401D01*
X016420Y003491D01*
X016566Y003431D01*
X016757Y003431D01*
X016933Y003504D01*
X017068Y003639D01*
X017028Y003599D02*
X017295Y003599D01*
X017447Y003480D02*
X016876Y003480D01*
X016447Y003480D02*
X016431Y003480D01*
X017141Y003836D02*
X017181Y003836D01*
X017181Y003955D02*
X017141Y003955D01*
X017114Y004073D02*
X017209Y004073D01*
X017263Y004192D02*
X017060Y004192D01*
X016941Y004310D02*
X017381Y004310D01*
X017839Y004429D02*
X016401Y004429D01*
X016365Y004547D02*
X017958Y004547D01*
X018077Y004666D02*
X016246Y004666D01*
X016127Y004784D02*
X018195Y004784D01*
X018208Y004797D02*
X018208Y004797D01*
X018704Y004390D02*
X018704Y003954D01*
X018619Y003954D01*
X018619Y003869D01*
X018704Y003869D01*
X018704Y003954D01*
X019140Y003954D01*
X019129Y004024D01*
X019106Y004096D01*
X019072Y004163D01*
X019027Y004224D01*
X018974Y004277D01*
X018913Y004322D01*
X018846Y004356D01*
X018774Y004379D01*
X018704Y004390D01*
X018704Y004310D02*
X018619Y004310D01*
X018619Y004192D02*
X018704Y004192D01*
X018704Y004073D02*
X018619Y004073D01*
X018619Y003955D02*
X018704Y003955D01*
X018704Y003869D02*
X019140Y003869D01*
X019129Y003799D01*
X019106Y003727D01*
X019072Y003660D01*
X019027Y003599D01*
X018974Y003545D01*
X018913Y003501D01*
X018846Y003466D01*
X018774Y003443D01*
X018704Y003432D01*
X018704Y003869D01*
X018704Y003836D02*
X018619Y003836D01*
X018619Y003869D02*
X018619Y003432D01*
X018549Y003443D01*
X018477Y003466D01*
X018410Y003501D01*
X018349Y003545D01*
X018295Y003599D01*
X018028Y003599D01*
X018101Y003718D02*
X018221Y003718D01*
X018216Y003727D02*
X018251Y003660D01*
X018295Y003599D01*
X018216Y003727D02*
X018193Y003799D01*
X018182Y003869D01*
X018619Y003869D01*
X018619Y003718D02*
X018704Y003718D01*
X018704Y003599D02*
X018619Y003599D01*
X018619Y003480D02*
X018704Y003480D01*
X018873Y003480D02*
X019891Y003480D01*
X020010Y003599D02*
X019028Y003599D01*
X019101Y003718D02*
X020128Y003718D01*
X020247Y003836D02*
X019135Y003836D01*
X019140Y003955D02*
X020365Y003955D01*
X020484Y004073D02*
X019113Y004073D01*
X019051Y004192D02*
X020602Y004192D01*
X020721Y004310D02*
X018929Y004310D01*
X018209Y004073D02*
X018163Y004073D01*
X018182Y003955D02*
X018141Y003955D01*
X018141Y003836D02*
X018187Y003836D01*
X018449Y003480D02*
X017876Y003480D01*
X015911Y002661D02*
X020411Y002661D01*
X022661Y004911D01*
X023086Y005140D02*
X023946Y005140D01*
X023946Y005022D02*
X023135Y005022D01*
X023141Y004903D02*
X023946Y004903D01*
X023946Y004784D02*
X023128Y004784D01*
X023079Y004666D02*
X023946Y004666D01*
X023946Y004547D02*
X022976Y004547D01*
X022941Y004310D02*
X023945Y004310D01*
X023945Y004192D02*
X023060Y004192D01*
X023114Y004073D02*
X023945Y004073D01*
X023945Y003955D02*
X023141Y003955D01*
X023141Y003836D02*
X023945Y003836D01*
X023945Y003718D02*
X023101Y003718D01*
X023028Y003599D02*
X023945Y003599D01*
X023945Y003480D02*
X022876Y003480D01*
X022827Y003362D02*
X023945Y003362D01*
X023945Y003243D02*
X023008Y003243D01*
X023092Y003125D02*
X023945Y003125D01*
X023945Y003006D02*
X023141Y003006D01*
X023141Y002888D02*
X023945Y002888D01*
X023945Y002769D02*
X023122Y002769D01*
X023073Y002651D02*
X023945Y002651D01*
X023945Y002532D02*
X022961Y002532D01*
X022956Y002295D02*
X023944Y002295D01*
X023944Y002176D02*
X023071Y002176D01*
X023120Y002058D02*
X023944Y002058D01*
X023944Y001939D02*
X023141Y001939D01*
X023141Y001821D02*
X023944Y001821D01*
X023944Y001702D02*
X023094Y001702D01*
X023013Y001584D02*
X023944Y001584D01*
X023944Y001465D02*
X022839Y001465D01*
X022864Y001347D02*
X023944Y001347D01*
X023944Y001228D02*
X023023Y001228D01*
X023099Y001110D02*
X023944Y001110D01*
X023944Y000991D02*
X023141Y000991D01*
X023141Y000873D02*
X023944Y000873D01*
X023944Y000754D02*
X023116Y000754D01*
X023064Y000635D02*
X023944Y000635D01*
X023944Y000517D02*
X022946Y000517D01*
X022661Y000911D02*
X022411Y000661D01*
X013411Y000661D01*
X011411Y002661D01*
X011411Y005911D01*
X015661Y010161D01*
X015661Y012911D01*
X017141Y012964D02*
X017184Y012964D01*
X017186Y012845D02*
X017141Y012845D01*
X017141Y012727D02*
X017216Y012727D01*
X017288Y012608D02*
X017141Y012608D01*
X017106Y012490D02*
X017431Y012490D01*
X017619Y012490D02*
X017704Y012490D01*
X017704Y012608D02*
X017619Y012608D01*
X017619Y012727D02*
X017704Y012727D01*
X017704Y012845D02*
X017619Y012845D01*
X017619Y012964D02*
X017704Y012964D01*
X017704Y013082D02*
X017619Y013082D01*
X017619Y013201D02*
X017704Y013201D01*
X017704Y013320D02*
X017619Y013320D01*
X017407Y013320D02*
X017119Y013320D01*
X017141Y013201D02*
X017279Y013201D01*
X017212Y013082D02*
X017141Y013082D01*
X013285Y012608D02*
X013037Y012608D01*
X011393Y013320D02*
X011119Y013320D01*
X011141Y013201D02*
X011272Y013201D01*
X011213Y013082D02*
X011141Y013082D01*
X009421Y012490D02*
X008901Y012490D01*
X008901Y012371D02*
X009421Y012371D01*
X009421Y012253D02*
X008901Y012253D01*
X008901Y012134D02*
X009421Y012134D01*
X009421Y012016D02*
X008901Y012016D01*
X009037Y012608D02*
X009285Y012608D01*
X007284Y010949D02*
X003713Y010949D01*
X003595Y011067D02*
X007166Y011067D01*
X007047Y011186D02*
X003476Y011186D01*
X003358Y011304D02*
X006929Y011304D01*
X007403Y010830D02*
X003832Y010830D01*
X003950Y010712D02*
X007521Y010712D01*
X007220Y009763D02*
X000371Y009763D01*
X000371Y009645D02*
X003098Y009645D01*
X003114Y009651D02*
X003025Y009615D01*
X001802Y008391D01*
X001275Y008391D01*
X001181Y008298D01*
X001181Y007525D01*
X001275Y007431D01*
X001842Y007431D01*
X001789Y007378D01*
X001757Y007391D01*
X001566Y007391D01*
X001389Y007318D01*
X001254Y007183D01*
X001181Y007007D01*
X001181Y006816D01*
X001254Y006639D01*
X001389Y006504D01*
X001566Y006431D01*
X001757Y006431D01*
X001902Y006491D01*
X001789Y006378D01*
X001757Y006391D01*
X001566Y006391D01*
X001389Y006318D01*
X001254Y006183D01*
X001181Y006007D01*
X001181Y005816D01*
X001254Y005639D01*
X001389Y005504D01*
X001566Y005431D01*
X001757Y005431D01*
X001902Y005491D01*
X001789Y005378D01*
X001757Y005391D01*
X001566Y005391D01*
X001389Y005318D01*
X001254Y005183D01*
X001181Y005007D01*
X001181Y004816D01*
X001254Y004639D01*
X001389Y004504D01*
X001566Y004431D01*
X001757Y004431D01*
X001902Y004491D01*
X001789Y004378D01*
X001757Y004391D01*
X001566Y004391D01*
X001389Y004318D01*
X001254Y004183D01*
X001181Y004007D01*
X001181Y003816D01*
X001254Y003639D01*
X001389Y003504D01*
X001566Y003431D01*
X001757Y003431D01*
X001902Y003491D01*
X001789Y003378D01*
X001757Y003391D01*
X001566Y003391D01*
X001389Y003318D01*
X001254Y003183D01*
X001181Y003007D01*
X001181Y002816D01*
X001254Y002639D01*
X001389Y002504D01*
X001566Y002431D01*
X001757Y002431D01*
X001902Y002491D01*
X001789Y002378D01*
X001757Y002391D01*
X001566Y002391D01*
X001389Y002318D01*
X001254Y002183D01*
X001181Y002007D01*
X001181Y001816D01*
X001254Y001639D01*
X001389Y001504D01*
X001566Y001431D01*
X001757Y001431D01*
X001902Y001491D01*
X001789Y001378D01*
X001757Y001391D01*
X001566Y001391D01*
X001389Y001318D01*
X001254Y001183D01*
X001181Y001007D01*
X001181Y000816D01*
X001254Y000639D01*
X001389Y000504D01*
X001566Y000431D01*
X001757Y000431D01*
X001933Y000504D01*
X002068Y000639D01*
X002141Y000816D01*
X002141Y001007D01*
X002128Y001039D01*
X004297Y003208D01*
X004365Y003275D01*
X004401Y003364D01*
X004401Y003562D01*
X006466Y005626D01*
X007128Y005626D01*
X007221Y005720D01*
X007221Y006103D01*
X007162Y006161D01*
X007221Y006220D01*
X007221Y006603D01*
X007162Y006661D01*
X007221Y006720D01*
X007221Y007103D01*
X007162Y007161D01*
X007221Y007220D01*
X007221Y007603D01*
X007162Y007661D01*
X007221Y007720D01*
X007221Y008103D01*
X007162Y008161D01*
X007221Y008220D01*
X007221Y008603D01*
X007162Y008661D01*
X007221Y008720D01*
X007221Y009103D01*
X007162Y009161D01*
X007221Y009220D01*
X007221Y009603D01*
X007128Y009696D01*
X006195Y009696D01*
X006150Y009651D01*
X003209Y009651D01*
X003114Y009651D01*
X002937Y009526D02*
X000371Y009526D01*
X000371Y009408D02*
X002818Y009408D01*
X002700Y009289D02*
X000371Y009289D01*
X000371Y009171D02*
X002581Y009171D01*
X002463Y009052D02*
X000371Y009052D01*
X000371Y008933D02*
X002344Y008933D01*
X002226Y008815D02*
X000371Y008815D01*
X000371Y008696D02*
X002107Y008696D01*
X001988Y008578D02*
X000371Y008578D01*
X000371Y008459D02*
X001870Y008459D01*
X001224Y008341D02*
X000371Y008341D01*
X000371Y008222D02*
X001181Y008222D01*
X001181Y008104D02*
X000371Y008104D01*
X000371Y007985D02*
X001181Y007985D01*
X001181Y007867D02*
X000371Y007867D01*
X000371Y007748D02*
X001181Y007748D01*
X001181Y007629D02*
X000371Y007629D01*
X000371Y007511D02*
X001195Y007511D01*
X001345Y007274D02*
X000371Y007274D01*
X000371Y007392D02*
X001803Y007392D01*
X001661Y006911D02*
X003661Y008911D01*
X006661Y008911D01*
X007221Y008933D02*
X007421Y008933D01*
X007421Y008815D02*
X007221Y008815D01*
X007198Y008696D02*
X007421Y008696D01*
X007421Y008578D02*
X007221Y008578D01*
X007221Y008459D02*
X007421Y008459D01*
X007421Y008341D02*
X007221Y008341D01*
X007221Y008222D02*
X007421Y008222D01*
X007421Y008104D02*
X007220Y008104D01*
X007221Y007985D02*
X007421Y007985D01*
X007421Y007867D02*
X007221Y007867D01*
X007221Y007748D02*
X007421Y007748D01*
X007421Y007629D02*
X007194Y007629D01*
X007221Y007511D02*
X007421Y007511D01*
X007421Y007392D02*
X007221Y007392D01*
X007221Y007274D02*
X007421Y007274D01*
X007421Y007155D02*
X007168Y007155D01*
X007221Y007037D02*
X007421Y007037D01*
X007421Y006918D02*
X007221Y006918D01*
X007221Y006800D02*
X007421Y006800D01*
X007421Y006681D02*
X007182Y006681D01*
X007221Y006563D02*
X007421Y006563D01*
X007421Y006444D02*
X007221Y006444D01*
X007221Y006326D02*
X007421Y006326D01*
X007421Y006207D02*
X007208Y006207D01*
X007221Y006088D02*
X007421Y006088D01*
X007421Y005970D02*
X007221Y005970D01*
X007221Y005851D02*
X007421Y005851D01*
X007421Y005733D02*
X007221Y005733D01*
X007421Y005614D02*
X006454Y005614D01*
X006335Y005496D02*
X007421Y005496D01*
X007421Y005377D02*
X006217Y005377D01*
X006098Y005259D02*
X007421Y005259D01*
X007421Y005140D02*
X005979Y005140D01*
X005861Y005022D02*
X007462Y005022D01*
X007580Y004903D02*
X005742Y004903D01*
X006411Y005911D02*
X006661Y005911D01*
X006411Y005911D02*
X004161Y003661D01*
X004161Y003411D01*
X001661Y000911D01*
X001224Y001110D02*
X000371Y001110D01*
X000371Y001228D02*
X001299Y001228D01*
X001458Y001347D02*
X000371Y001347D01*
X000371Y001465D02*
X001484Y001465D01*
X001310Y001584D02*
X000371Y001584D01*
X000371Y001702D02*
X001228Y001702D01*
X001181Y001821D02*
X000371Y001821D01*
X000371Y001939D02*
X001181Y001939D01*
X001202Y002058D02*
X000371Y002058D01*
X000371Y002176D02*
X001252Y002176D01*
X001366Y002295D02*
X000371Y002295D01*
X000371Y002414D02*
X001824Y002414D01*
X001362Y002532D02*
X000371Y002532D01*
X000371Y002651D02*
X001250Y002651D01*
X001201Y002769D02*
X000371Y002769D01*
X000371Y002888D02*
X001181Y002888D01*
X001181Y003006D02*
X000371Y003006D01*
X000371Y003125D02*
X001230Y003125D01*
X001315Y003243D02*
X000371Y003243D01*
X000371Y003362D02*
X001495Y003362D01*
X001447Y003480D02*
X000371Y003480D01*
X000371Y003599D02*
X001295Y003599D01*
X001222Y003718D02*
X000371Y003718D01*
X000371Y003836D02*
X001181Y003836D01*
X001181Y003955D02*
X000371Y003955D01*
X000371Y004073D02*
X001209Y004073D01*
X001263Y004192D02*
X000371Y004192D01*
X000371Y004310D02*
X001381Y004310D01*
X001346Y004547D02*
X000371Y004547D01*
X000371Y004429D02*
X001839Y004429D01*
X001243Y004666D02*
X000371Y004666D01*
X000371Y004784D02*
X001194Y004784D01*
X001181Y004903D02*
X000371Y004903D01*
X000371Y005022D02*
X001187Y005022D01*
X001236Y005140D02*
X000371Y005140D01*
X000371Y005259D02*
X001330Y005259D01*
X001532Y005377D02*
X000371Y005377D01*
X000371Y005496D02*
X001410Y005496D01*
X001279Y005614D02*
X000371Y005614D01*
X000371Y005733D02*
X001216Y005733D01*
X001181Y005851D02*
X000371Y005851D01*
X000371Y005970D02*
X001181Y005970D01*
X001215Y006088D02*
X000371Y006088D01*
X000371Y006207D02*
X001278Y006207D01*
X001407Y006326D02*
X000371Y006326D01*
X000371Y006444D02*
X001535Y006444D01*
X001331Y006563D02*
X000371Y006563D01*
X000371Y006681D02*
X001237Y006681D01*
X001188Y006800D02*
X000371Y006800D01*
X000371Y006918D02*
X001181Y006918D01*
X001194Y007037D02*
X000371Y007037D01*
X000371Y007155D02*
X001243Y007155D01*
X001661Y007911D02*
X003161Y009411D01*
X006661Y009411D01*
X007221Y009408D02*
X007421Y009408D01*
X007421Y009526D02*
X007221Y009526D01*
X007179Y009645D02*
X007338Y009645D01*
X007421Y009289D02*
X007221Y009289D01*
X007172Y009171D02*
X007421Y009171D01*
X007421Y009052D02*
X007221Y009052D01*
X006661Y008411D02*
X004161Y008411D01*
X001661Y005911D01*
X001788Y006444D02*
X001855Y006444D01*
X001661Y004911D02*
X004661Y007911D01*
X006661Y007911D01*
X006661Y007411D02*
X005161Y007411D01*
X001661Y003911D01*
X001876Y003480D02*
X001891Y003480D01*
X001661Y002911D02*
X005661Y006911D01*
X006661Y006911D01*
X006661Y006411D02*
X006161Y006411D01*
X001661Y001911D01*
X001839Y001465D02*
X001876Y001465D01*
X002199Y001110D02*
X012623Y001110D01*
X012505Y001228D02*
X002318Y001228D01*
X002436Y001347D02*
X012386Y001347D01*
X012268Y001465D02*
X002555Y001465D01*
X002673Y001584D02*
X012149Y001584D01*
X012031Y001702D02*
X002792Y001702D01*
X002910Y001821D02*
X011912Y001821D01*
X011794Y001939D02*
X003029Y001939D01*
X003147Y002058D02*
X011675Y002058D01*
X011557Y002176D02*
X003266Y002176D01*
X003384Y002295D02*
X011438Y002295D01*
X011319Y002414D02*
X003503Y002414D01*
X003621Y002532D02*
X011205Y002532D01*
X011171Y002651D02*
X003740Y002651D01*
X003859Y002769D02*
X011171Y002769D01*
X011171Y002888D02*
X003977Y002888D01*
X004096Y003006D02*
X006227Y003006D01*
X006108Y003125D02*
X004214Y003125D01*
X004333Y003243D02*
X005990Y003243D01*
X005871Y003362D02*
X004401Y003362D01*
X004401Y003480D02*
X005226Y003480D01*
X005181Y003599D02*
X004438Y003599D01*
X004557Y003718D02*
X005181Y003718D01*
X005181Y003836D02*
X004676Y003836D01*
X007661Y005161D02*
X008161Y004661D01*
X008916Y005496D02*
X011171Y005496D01*
X011171Y005614D02*
X008798Y005614D01*
X009517Y005377D02*
X011171Y005377D01*
X011171Y005259D02*
X009653Y005259D01*
X009772Y005140D02*
X011171Y005140D01*
X011171Y005022D02*
X009890Y005022D01*
X010009Y004903D02*
X011171Y004903D01*
X011171Y004784D02*
X010127Y004784D01*
X010246Y004666D02*
X011171Y004666D01*
X011171Y004547D02*
X010365Y004547D01*
X010401Y004429D02*
X011171Y004429D01*
X011171Y004310D02*
X010929Y004310D01*
X011051Y004192D02*
X011171Y004192D01*
X011171Y004073D02*
X011113Y004073D01*
X011140Y003955D02*
X011171Y003955D01*
X011140Y003869D02*
X010704Y003869D01*
X010704Y003432D01*
X010774Y003443D01*
X010846Y003466D01*
X010913Y003501D01*
X010974Y003545D01*
X011027Y003599D01*
X011072Y003660D01*
X011106Y003727D01*
X011129Y003799D01*
X011140Y003869D01*
X011135Y003836D02*
X011171Y003836D01*
X011171Y003718D02*
X011101Y003718D01*
X011171Y003599D02*
X011028Y003599D01*
X011171Y003480D02*
X010873Y003480D01*
X010704Y003480D02*
X010619Y003480D01*
X010619Y003599D02*
X010704Y003599D01*
X010704Y003718D02*
X010619Y003718D01*
X010619Y003836D02*
X010704Y003836D01*
X010704Y003955D02*
X010619Y003955D01*
X010619Y004073D02*
X010704Y004073D01*
X010704Y004192D02*
X010619Y004192D01*
X010619Y004310D02*
X010704Y004310D01*
X010449Y003480D02*
X010401Y003480D01*
X010401Y003362D02*
X011171Y003362D01*
X011171Y003243D02*
X010333Y003243D01*
X010214Y003125D02*
X011171Y003125D01*
X011171Y003006D02*
X010096Y003006D01*
X009891Y003480D02*
X009875Y003480D01*
X009447Y003480D02*
X008876Y003480D01*
X009028Y003599D02*
X009295Y003599D01*
X011911Y002911D02*
X011911Y005161D01*
X011411Y005911D02*
X009561Y005911D01*
X012411Y005911D02*
X012411Y003161D01*
X013911Y001661D01*
X021411Y001661D01*
X022661Y002911D01*
X022495Y003362D02*
X022451Y003362D01*
X022010Y003599D02*
X021688Y003599D01*
X021570Y003480D02*
X021891Y003480D01*
X021773Y003362D02*
X021451Y003362D01*
X021333Y003243D02*
X021654Y003243D01*
X021535Y003125D02*
X021214Y003125D01*
X021096Y003006D02*
X021417Y003006D01*
X021298Y002888D02*
X020977Y002888D01*
X020859Y002769D02*
X021180Y002769D01*
X021061Y002651D02*
X020740Y002651D01*
X020621Y002532D02*
X020943Y002532D01*
X020824Y002414D02*
X014248Y002414D01*
X014161Y002161D02*
X012911Y003411D01*
X012911Y006661D01*
X014901Y006681D02*
X014921Y006681D01*
X014921Y006563D02*
X014901Y006563D01*
X014901Y006444D02*
X014921Y006444D01*
X014901Y006326D02*
X014937Y006326D01*
X014901Y006207D02*
X015026Y006207D01*
X015145Y006088D02*
X014901Y006088D01*
X014942Y005970D02*
X015263Y005970D01*
X015382Y005851D02*
X015061Y005851D01*
X015179Y005733D02*
X015500Y005733D01*
X015619Y005614D02*
X015298Y005614D01*
X015416Y005496D02*
X015737Y005496D01*
X015856Y005377D02*
X015535Y005377D01*
X015653Y005259D02*
X015974Y005259D01*
X016093Y005140D02*
X015772Y005140D01*
X015890Y005022D02*
X016212Y005022D01*
X016009Y004903D02*
X020314Y004903D01*
X020432Y005022D02*
X020111Y005022D01*
X020229Y005140D02*
X020551Y005140D01*
X020669Y005259D02*
X020348Y005259D01*
X020467Y005377D02*
X020788Y005377D01*
X020906Y005496D02*
X020585Y005496D01*
X020704Y005614D02*
X021025Y005614D01*
X021143Y005733D02*
X020822Y005733D01*
X020941Y005851D02*
X021262Y005851D01*
X021380Y005970D02*
X021059Y005970D01*
X021178Y006088D02*
X021499Y006088D01*
X021618Y006207D02*
X021296Y006207D01*
X021415Y006326D02*
X021736Y006326D01*
X021855Y006444D02*
X021533Y006444D01*
X021652Y006563D02*
X021973Y006563D01*
X022178Y006088D02*
X022215Y006088D01*
X022181Y005970D02*
X022059Y005970D01*
X021941Y005851D02*
X022181Y005851D01*
X022143Y005733D02*
X021822Y005733D01*
X021704Y005614D02*
X022025Y005614D01*
X021906Y005496D02*
X021585Y005496D01*
X021467Y005377D02*
X021788Y005377D01*
X021669Y005259D02*
X021348Y005259D01*
X021229Y005140D02*
X021551Y005140D01*
X021432Y005022D02*
X021111Y005022D01*
X020992Y004903D02*
X021314Y004903D01*
X021195Y004784D02*
X020874Y004784D01*
X020755Y004666D02*
X021077Y004666D01*
X020958Y004547D02*
X020637Y004547D01*
X020477Y004429D02*
X020839Y004429D01*
X019911Y005161D02*
X016411Y005161D01*
X016942Y005970D02*
X017222Y005970D01*
X017055Y006088D02*
X016823Y006088D01*
X016705Y006207D02*
X016976Y006207D01*
X016931Y006326D02*
X016586Y006326D01*
X016468Y006444D02*
X016931Y006444D01*
X016954Y006563D02*
X016349Y006563D01*
X016231Y006681D02*
X017004Y006681D01*
X017411Y006411D02*
X019161Y006411D01*
X019661Y006911D01*
X020141Y006918D02*
X020329Y006918D01*
X020210Y006800D02*
X020135Y006800D01*
X020092Y006681D02*
X020085Y006681D01*
X019855Y006444D02*
X019788Y006444D01*
X019736Y006326D02*
X019415Y006326D01*
X019533Y006444D02*
X019535Y006444D01*
X019618Y006207D02*
X019295Y006207D01*
X019499Y006088D02*
X017767Y006088D01*
X017600Y005970D02*
X019381Y005970D01*
X019411Y005661D02*
X021661Y007911D01*
X022661Y007911D01*
X022181Y007629D02*
X021719Y007629D01*
X021600Y007511D02*
X022195Y007511D01*
X022661Y006911D02*
X021661Y006911D01*
X019911Y005161D01*
X021807Y003718D02*
X022128Y003718D01*
X022181Y003836D02*
X021925Y003836D01*
X022044Y003955D02*
X022181Y003955D01*
X022163Y004073D02*
X022209Y004073D01*
X022518Y004429D02*
X023945Y004429D01*
X023946Y005259D02*
X022993Y005259D01*
X022791Y005377D02*
X023946Y005377D01*
X023946Y005496D02*
X022912Y005496D01*
X023043Y005614D02*
X023946Y005614D01*
X023092Y006681D02*
X023085Y006681D01*
X023135Y006800D02*
X023171Y006800D01*
X023171Y006918D02*
X023141Y006918D01*
X023129Y007037D02*
X023171Y007037D01*
X023171Y007155D02*
X023080Y007155D01*
X023171Y007274D02*
X022977Y007274D01*
X022181Y008222D02*
X020029Y008222D01*
X020101Y008104D02*
X021514Y008104D01*
X021396Y007985D02*
X020141Y007985D01*
X020141Y007867D02*
X021277Y007867D01*
X021159Y007748D02*
X020113Y007748D01*
X020058Y007629D02*
X021040Y007629D01*
X020922Y007511D02*
X019940Y007511D01*
X019977Y007274D02*
X020684Y007274D01*
X020566Y007155D02*
X020080Y007155D01*
X020129Y007037D02*
X020447Y007037D01*
X020803Y007392D02*
X019482Y007392D01*
X019879Y008341D02*
X022224Y008341D01*
X022704Y009932D02*
X022774Y009943D01*
X022846Y009966D01*
X022913Y010001D01*
X022974Y010045D01*
X023027Y010099D01*
X023072Y010160D01*
X023106Y010227D01*
X023129Y010299D01*
X023140Y010369D01*
X022704Y010369D01*
X022704Y009932D01*
X022704Y010000D02*
X022619Y010000D01*
X022619Y010119D02*
X022704Y010119D01*
X022704Y010237D02*
X022619Y010237D01*
X022619Y010356D02*
X022704Y010356D01*
X022704Y010475D02*
X022619Y010475D01*
X022619Y010593D02*
X022704Y010593D01*
X022704Y010712D02*
X022619Y010712D01*
X022619Y010830D02*
X022704Y010830D01*
X022896Y010830D02*
X022903Y010830D01*
X023107Y010593D02*
X023140Y010593D01*
X023137Y010475D02*
X023171Y010475D01*
X023171Y010356D02*
X023138Y010356D01*
X023109Y010237D02*
X023171Y010237D01*
X023171Y010119D02*
X023042Y010119D01*
X023171Y010000D02*
X022912Y010000D01*
X022532Y005377D02*
X022467Y005377D01*
X022661Y003911D02*
X020911Y002161D01*
X014161Y002161D01*
X013661Y001161D02*
X011911Y002911D01*
X013661Y001161D02*
X021911Y001161D01*
X022661Y001911D01*
X022503Y002414D02*
X023944Y002414D01*
X022458Y001347D02*
X022436Y001347D01*
X023944Y000398D02*
X000371Y000398D01*
X000371Y000517D02*
X001377Y000517D01*
X001258Y000635D02*
X000371Y000635D01*
X000371Y000754D02*
X001207Y000754D01*
X001181Y000873D02*
X000371Y000873D01*
X000371Y000991D02*
X001181Y000991D01*
X001946Y000517D02*
X013216Y000517D01*
X013098Y000635D02*
X002064Y000635D01*
X002116Y000754D02*
X012979Y000754D01*
X012861Y000873D02*
X002141Y000873D01*
X002141Y000991D02*
X012742Y000991D01*
X014901Y006800D02*
X014921Y006800D01*
X014921Y006918D02*
X014901Y006918D01*
X014901Y007037D02*
X014921Y007037D01*
X014921Y007155D02*
X014901Y007155D01*
X014901Y007274D02*
X014921Y007274D01*
X014921Y007392D02*
X014901Y007392D01*
X015404Y008815D02*
X015561Y008815D01*
X015551Y008933D02*
X015523Y008933D01*
X004161Y011661D02*
X003161Y012661D01*
X003161Y013411D01*
X001661Y014911D01*
X001181Y014861D02*
X000371Y014861D01*
X000371Y014979D02*
X001181Y014979D01*
X001181Y015098D02*
X000371Y015098D01*
X000371Y015216D02*
X001181Y015216D01*
X001219Y015335D02*
X000371Y015335D01*
X000371Y014742D02*
X001181Y014742D01*
X001181Y014624D02*
X000371Y014624D01*
X000371Y014505D02*
X001201Y014505D01*
X001349Y014277D02*
X001410Y014322D01*
X001477Y014356D01*
X001549Y014379D01*
X001619Y014390D01*
X001619Y013954D01*
X001704Y013954D01*
X001704Y013869D01*
X002140Y013869D01*
X002129Y013799D01*
X002106Y013727D01*
X002072Y013660D01*
X002027Y013599D01*
X001974Y013545D01*
X001913Y013501D01*
X001846Y013466D01*
X001774Y013443D01*
X001704Y013432D01*
X001704Y013869D01*
X001619Y013869D01*
X001619Y013432D01*
X001549Y013443D01*
X001477Y013466D01*
X001410Y013501D01*
X001349Y013545D01*
X001295Y013599D01*
X001251Y013660D01*
X001216Y013727D01*
X001193Y013799D01*
X001182Y013869D01*
X001619Y013869D01*
X001619Y013954D01*
X001182Y013954D01*
X001193Y014024D01*
X001216Y014096D01*
X001251Y014163D01*
X001295Y014224D01*
X001349Y014277D01*
X001339Y014268D02*
X000371Y014268D01*
X000371Y014386D02*
X001594Y014386D01*
X001619Y014386D02*
X001704Y014386D01*
X001729Y014386D02*
X001847Y014386D01*
X001704Y014268D02*
X001619Y014268D01*
X001619Y014149D02*
X001704Y014149D01*
X001704Y014031D02*
X001619Y014031D01*
X001619Y013912D02*
X000371Y013912D01*
X000371Y013794D02*
X001195Y013794D01*
X001243Y013675D02*
X000371Y013675D01*
X000371Y013557D02*
X001337Y013557D01*
X001580Y013438D02*
X000371Y013438D01*
X000371Y013320D02*
X002914Y013320D01*
X002921Y013201D02*
X000371Y013201D01*
X000371Y013082D02*
X002921Y013082D01*
X002921Y012964D02*
X000371Y012964D01*
X000371Y012845D02*
X002921Y012845D01*
X002921Y012727D02*
X000371Y012727D01*
X000371Y012608D02*
X002923Y012608D01*
X002993Y012490D02*
X000371Y012490D01*
X000371Y012371D02*
X003112Y012371D01*
X003230Y012253D02*
X000371Y012253D01*
X000371Y012134D02*
X003349Y012134D01*
X003467Y012016D02*
X000371Y012016D01*
X000371Y011897D02*
X003586Y011897D01*
X003705Y011779D02*
X002141Y011779D01*
X002141Y011660D02*
X003823Y011660D01*
X003942Y011541D02*
X003120Y011541D01*
X003239Y011423D02*
X004110Y011423D01*
X003271Y010712D02*
X002036Y010712D01*
X002107Y010593D02*
X003390Y010593D01*
X003509Y010475D02*
X002137Y010475D01*
X002138Y010356D02*
X003627Y010356D01*
X003746Y010237D02*
X002109Y010237D01*
X001280Y010119D02*
X000371Y010119D01*
X000371Y010237D02*
X001213Y010237D01*
X001184Y010356D02*
X000371Y010356D01*
X000371Y010475D02*
X001185Y010475D01*
X001216Y010593D02*
X000371Y010593D01*
X001896Y010830D02*
X003153Y010830D01*
X003034Y010949D02*
X002065Y010949D01*
X002141Y011067D02*
X002916Y011067D01*
X002795Y013438D02*
X001742Y013438D01*
X001704Y013438D02*
X001619Y013438D01*
X001619Y013557D02*
X001704Y013557D01*
X001704Y013675D02*
X001619Y013675D01*
X001619Y013794D02*
X001704Y013794D01*
X001704Y013912D02*
X002321Y013912D01*
X002439Y013794D02*
X002128Y013794D01*
X002080Y013675D02*
X002558Y013675D01*
X002676Y013557D02*
X001985Y013557D01*
X002127Y014031D02*
X002202Y014031D01*
X002084Y014149D02*
X002079Y014149D01*
X001244Y014149D02*
X000371Y014149D01*
X000371Y014031D02*
X001195Y014031D01*
D16*
X009161Y011911D03*
X010161Y011911D03*
X011161Y011911D03*
X012161Y011911D03*
X013161Y011911D03*
X014161Y011911D03*
X015211Y011911D03*
X015911Y008911D03*
X015161Y008161D03*
X014661Y007661D03*
X014161Y007161D03*
X012911Y006661D03*
X012411Y005911D03*
X011911Y005161D03*
X011161Y006411D03*
X010911Y006911D03*
X010661Y007411D03*
X010411Y007911D03*
X010411Y008661D03*
X010411Y009411D03*
X009661Y009911D03*
X016411Y008011D03*
D17*
X016661Y012911D02*
X016661Y013411D01*
X016161Y013911D01*
X006161Y013911D01*
X006161Y015161D01*
X006161Y013911D02*
X005161Y013911D01*
X004661Y013411D01*
X004661Y012911D01*
M02*
