%
M48
M72
T01C0.0200
T02C0.0330
T03C0.0410
T04C0.0460
%
T01
X10911Y6911
X11161Y6411
X10661Y7411
X10411Y7911
X10411Y8661
X10411Y9411
X9661Y9911
X9161Y11911
X10161Y11911
X11161Y11911
X12161Y11911
X13161Y11911
X14161Y11911
X15211Y11911
X15911Y8911
X15161Y8161
X14661Y7661
X14161Y7161
X12911Y6661
X12411Y5911
X11911Y5161
X16411Y8011
T02
X17411Y8411
X17411Y7411
X17411Y6411
X17411Y9411
X17411Y10411
X17411Y11411
T03
X1661Y911
X1661Y1911
X1661Y2911
X1661Y3911
X1661Y4911
X1661Y5911
X1661Y6911
X1661Y7911
X1661Y10411
X1661Y11411
X4661Y12911
X5661Y12911
X6661Y12911
X7661Y12911
X8661Y12911
X9661Y12911
X10661Y12911
X11661Y12911
X12661Y12911
X13661Y12911
X14661Y12911
X15661Y12911
X16661Y12911
X17661Y12911
X22661Y13911
X22661Y14911
X22661Y11411
X22661Y10411
X19661Y8911
X18661Y8911
X18661Y7911
X19661Y7911
X19661Y6911
X18661Y6911
X22661Y6911
X22661Y7911
X22661Y5911
X22661Y4911
X22661Y3911
X22661Y2911
X22661Y1911
X22661Y911
X18661Y3911
X17661Y3911
X16661Y3911
X15661Y3911
X14661Y3911
X13661Y3911
X10661Y3911
X9661Y3911
X8661Y3911
X7661Y3911
X6661Y3911
X5661Y3911
X1661Y13911
X1661Y14911
T04
X6161Y15161
X12161Y15161
M30
