%
M48
M72
T01C0.0200
T02C0.0250
T03C0.0290
T04C0.0330
T05C0.0350
T06C0.0460
T07C0.1250
%
T01
X12931Y4431
X11181Y10681
X11181Y12681
X10681Y13931
X8431Y13931
X5931Y13181
X4431Y13181
T02
X3681Y9181
X3681Y7181
X6181Y3681
X7181Y3681
X11431Y7681
X12431Y7681
X19181Y8181
X19181Y5181
T03
X1431Y931
X2931Y931
X4431Y931
X4431Y4931
X2931Y4931
X1431Y4931
X3181Y10681
X3181Y11681
X2181Y13181
X4181Y13931
X5181Y13931
X2181Y17181
X9681Y15181
X9681Y14181
X9681Y13181
X9681Y12181
X9681Y11181
X9681Y10181
X9681Y9181
X12681Y9181
X12681Y10181
X12681Y11181
X12681Y12181
X12681Y13181
X12681Y14181
X12681Y15181
X14931Y14181
X18181Y13181
X19181Y11681
X19181Y10681
X14931Y10181
X14931Y6181
X14931Y4431
X13181Y3061
X13181Y1291
X10621Y1291
X10621Y3061
X10931Y4431
X10931Y6181
X19181Y2681
X19181Y1681
X18181Y17181
T04
X16431Y14181
X13681Y17181
X12681Y17181
X11681Y17181
X10681Y17181
X9681Y17181
X8681Y17181
X5181Y11181
X5181Y7181
X16431Y10181
T05
X1431Y9181
X1431Y8181
X1431Y7181
X1431Y6181
T06
X7181Y7931
X9181Y7181
X9181Y1181
X7181Y13931
T07
X6181Y16681
X16181Y16681
X16181Y1681
X6181Y1681
M30
