G75*
G70*
%OFA0B0*%
%FSLAX24Y24*%
%IPPOS*%
%LPD*%
%AMOC8*
5,1,8,0,0,1.08239X$1,22.5*
%
%ADD10C,0.0000*%
%ADD11C,0.0070*%
%ADD12C,0.0060*%
%ADD13C,0.0120*%
%ADD14C,0.0050*%
D10*
X000181Y000181D02*
X000181Y018181D01*
X022181Y018181D01*
X022181Y000181D01*
X000181Y000181D01*
D11*
X020216Y013702D02*
X020216Y014056D01*
X020216Y013879D02*
X020747Y013879D01*
X020570Y014056D01*
X020658Y014254D02*
X020305Y014254D01*
X020216Y014343D01*
X020216Y014520D01*
X020305Y014608D01*
X020658Y014254D01*
X020747Y014343D01*
X020747Y014520D01*
X020658Y014608D01*
X020305Y014608D01*
X020305Y014796D02*
X020216Y014796D01*
X020216Y014884D01*
X020305Y014884D01*
X020305Y014796D01*
X020216Y015083D02*
X020216Y015437D01*
X020216Y015260D02*
X020747Y015260D01*
X020570Y015437D01*
X020570Y015635D02*
X020216Y015812D01*
X020570Y015989D01*
X020570Y016188D02*
X020482Y016276D01*
X020482Y016542D01*
X020747Y016542D02*
X020216Y016542D01*
X020216Y016276D01*
X020305Y016188D01*
X020393Y016188D01*
X020482Y016276D01*
X020570Y016188D02*
X020658Y016188D01*
X020747Y016276D01*
X020747Y016542D01*
X020658Y016740D02*
X020747Y016829D01*
X020747Y017006D01*
X020658Y017094D01*
X020305Y017094D01*
X020216Y017006D01*
X020216Y016829D01*
X020305Y016740D01*
X020482Y017293D02*
X020393Y017381D01*
X020393Y017646D01*
X020216Y017646D02*
X020747Y017646D01*
X020747Y017381D01*
X020658Y017293D01*
X020482Y017293D01*
X021216Y017381D02*
X021305Y017293D01*
X021482Y017293D01*
X021482Y017470D01*
X021658Y017646D02*
X021305Y017646D01*
X021216Y017558D01*
X021216Y017381D01*
X021216Y017094D02*
X021570Y017094D01*
X021747Y016917D01*
X021570Y016740D01*
X021216Y016740D01*
X021216Y016542D02*
X021747Y016542D01*
X021747Y016276D01*
X021658Y016188D01*
X021482Y016188D01*
X021393Y016276D01*
X021393Y016542D01*
X021393Y016365D02*
X021216Y016188D01*
X021216Y015989D02*
X021570Y015989D01*
X021747Y015812D01*
X021570Y015635D01*
X021216Y015635D01*
X021305Y015437D02*
X021216Y015348D01*
X021216Y015171D01*
X021305Y015083D01*
X021482Y015083D01*
X021482Y015260D01*
X021658Y015437D02*
X021305Y015437D01*
X021482Y015635D02*
X021482Y015989D01*
X021658Y015437D02*
X021747Y015348D01*
X021747Y015171D01*
X021658Y015083D01*
X021747Y014884D02*
X021216Y014884D01*
X021216Y014531D01*
X021482Y014707D02*
X021482Y014884D01*
X021747Y014884D02*
X021747Y014531D01*
X021747Y013779D02*
X021216Y013779D01*
X021216Y013426D02*
X021747Y013426D01*
X021570Y013603D01*
X021747Y013779D01*
X021658Y013227D02*
X021305Y013227D01*
X021216Y013139D01*
X021216Y012962D01*
X021305Y012873D01*
X021658Y012873D01*
X021747Y012962D01*
X021747Y013139D01*
X021658Y013227D01*
X021747Y012674D02*
X021216Y012674D01*
X021216Y012321D02*
X021747Y012321D01*
X021747Y012122D02*
X021747Y011945D01*
X021747Y012034D02*
X021216Y012034D01*
X021216Y012122D02*
X021216Y011945D01*
X021216Y011577D02*
X021747Y011577D01*
X021747Y011754D02*
X021747Y011400D01*
X021658Y011201D02*
X021305Y011201D01*
X021216Y011113D01*
X021216Y010936D01*
X021305Y010848D01*
X021658Y010848D01*
X021747Y010936D01*
X021747Y011113D01*
X021658Y011201D01*
X021747Y010649D02*
X021216Y010649D01*
X021393Y010649D02*
X021393Y010384D01*
X021482Y010295D01*
X021658Y010295D01*
X021747Y010384D01*
X021747Y010649D01*
X021393Y010472D02*
X021216Y010295D01*
X021216Y012321D02*
X021747Y012674D01*
X021482Y016740D02*
X021482Y017094D01*
X021658Y017293D02*
X021747Y017381D01*
X021747Y017558D01*
X021658Y017646D01*
D12*
X003055Y009182D02*
X002761Y009182D01*
X002908Y009328D02*
X002908Y009035D01*
X002761Y008182D02*
X003055Y008182D01*
X002982Y007402D02*
X002835Y007402D01*
X002761Y007328D01*
X002761Y007035D01*
X002835Y006961D01*
X002982Y006961D01*
X003055Y007035D01*
X003055Y007182D01*
X002908Y007182D01*
X003055Y007328D02*
X002982Y007402D01*
X002982Y006402D02*
X002761Y006402D01*
X002761Y005961D01*
X002982Y005961D01*
X003055Y006035D01*
X003055Y006328D01*
X002982Y006402D01*
X000931Y006431D02*
X000931Y005931D01*
X000211Y005931D01*
X000211Y006431D02*
X000931Y006431D01*
X000931Y006931D02*
X000931Y007431D01*
X000211Y007431D01*
X000211Y006931D02*
X000931Y006931D01*
X000931Y007931D02*
X000211Y007931D01*
X000211Y008431D02*
X000931Y008431D01*
X000931Y007931D01*
X000931Y008931D02*
X000211Y008931D01*
X000211Y009431D02*
X000931Y009431D01*
X000931Y008931D01*
D13*
X000211Y008931D02*
X000211Y008431D01*
X000211Y007931D01*
X000211Y007431D01*
X000211Y006931D01*
X000211Y006431D01*
X000211Y005931D01*
X000211Y005581D01*
X002651Y005581D01*
X002651Y009781D01*
X000211Y009781D01*
X000211Y009431D01*
X000211Y008931D01*
X002581Y010131D02*
X003781Y010131D01*
X003931Y009681D02*
X003431Y009681D01*
X003181Y009431D01*
X003181Y006931D01*
X003431Y006681D01*
X003931Y006681D01*
X004181Y006931D01*
X004181Y009431D01*
X003931Y009681D01*
X004681Y009931D02*
X005681Y009931D01*
X005681Y010331D01*
X004681Y010331D01*
X004681Y009931D01*
X004681Y008031D01*
X005681Y008031D01*
X005681Y009931D01*
X005181Y010331D02*
X005181Y010681D01*
X006431Y009181D02*
X007181Y009181D01*
X007931Y009181D01*
X007931Y012181D01*
X006431Y012181D01*
X006431Y009181D01*
X007181Y009181D02*
X007181Y008731D01*
X005181Y008031D02*
X005181Y007681D01*
X008431Y005931D02*
X008431Y002931D01*
X009931Y002931D01*
X009931Y005931D01*
X009181Y005931D01*
X008431Y005931D01*
X009181Y005931D02*
X009181Y006381D01*
X010931Y007431D02*
X010931Y007931D01*
X011181Y008181D01*
X012681Y008181D01*
X012931Y007931D01*
X012931Y007431D01*
X012681Y007181D01*
X011181Y007181D01*
X010931Y007431D01*
X011781Y006681D02*
X011781Y005681D01*
X014081Y005681D01*
X014081Y006681D01*
X011781Y006681D01*
X011781Y006181D02*
X011431Y006181D01*
X011781Y004931D02*
X011781Y003931D01*
X014081Y003931D01*
X014081Y004931D01*
X011781Y004931D01*
X011781Y004431D02*
X011431Y004431D01*
X011181Y003261D02*
X012681Y003261D01*
X013381Y002561D02*
X013381Y001761D01*
X012681Y001161D02*
X011181Y001161D01*
X010481Y001761D02*
X010481Y002561D01*
X009931Y002431D02*
X009931Y002931D01*
X009931Y002431D02*
X009181Y002431D01*
X008431Y002431D01*
X008431Y002931D01*
X007681Y003431D02*
X007431Y003181D01*
X005931Y003181D01*
X005681Y003431D01*
X005681Y003931D01*
X005931Y004181D01*
X007431Y004181D01*
X007681Y003931D01*
X007681Y003431D01*
X009181Y002431D02*
X009181Y001981D01*
X005251Y001681D02*
X005253Y001742D01*
X005259Y001802D01*
X005269Y001862D01*
X005283Y001922D01*
X005300Y001980D01*
X005322Y002037D01*
X005347Y002092D01*
X005376Y002146D01*
X005408Y002198D01*
X005443Y002247D01*
X005482Y002294D01*
X005523Y002339D01*
X005568Y002380D01*
X005615Y002419D01*
X005664Y002454D01*
X005716Y002486D01*
X005770Y002515D01*
X005825Y002540D01*
X005882Y002562D01*
X005940Y002579D01*
X006000Y002593D01*
X006060Y002603D01*
X006120Y002609D01*
X006181Y002611D01*
X006242Y002609D01*
X006302Y002603D01*
X006362Y002593D01*
X006422Y002579D01*
X006480Y002562D01*
X006537Y002540D01*
X006592Y002515D01*
X006646Y002486D01*
X006698Y002454D01*
X006747Y002419D01*
X006794Y002380D01*
X006839Y002339D01*
X006880Y002294D01*
X006919Y002247D01*
X006954Y002198D01*
X006986Y002146D01*
X007015Y002092D01*
X007040Y002037D01*
X007062Y001980D01*
X007079Y001922D01*
X007093Y001862D01*
X007103Y001802D01*
X007109Y001742D01*
X007111Y001681D01*
X007109Y001620D01*
X007103Y001560D01*
X007093Y001500D01*
X007079Y001440D01*
X007062Y001382D01*
X007040Y001325D01*
X007015Y001270D01*
X006986Y001216D01*
X006954Y001164D01*
X006919Y001115D01*
X006880Y001068D01*
X006839Y001023D01*
X006794Y000982D01*
X006747Y000943D01*
X006698Y000908D01*
X006646Y000876D01*
X006592Y000847D01*
X006537Y000822D01*
X006480Y000800D01*
X006422Y000783D01*
X006362Y000769D01*
X006302Y000759D01*
X006242Y000753D01*
X006181Y000751D01*
X006120Y000753D01*
X006060Y000759D01*
X006000Y000769D01*
X005940Y000783D01*
X005882Y000800D01*
X005825Y000822D01*
X005770Y000847D01*
X005716Y000876D01*
X005664Y000908D01*
X005615Y000943D01*
X005568Y000982D01*
X005523Y001023D01*
X005482Y001068D01*
X005443Y001115D01*
X005408Y001164D01*
X005376Y001216D01*
X005347Y001270D01*
X005322Y001325D01*
X005300Y001382D01*
X005283Y001440D01*
X005269Y001500D01*
X005259Y001560D01*
X005253Y001620D01*
X005251Y001681D01*
X004931Y001781D02*
X003931Y001781D01*
X003931Y004081D01*
X004931Y004081D01*
X004931Y001781D01*
X004431Y001781D02*
X004431Y001431D01*
X003431Y001781D02*
X002431Y001781D01*
X002431Y004081D01*
X003431Y004081D01*
X003431Y001781D01*
X002931Y001781D02*
X002931Y001431D01*
X001931Y001781D02*
X000931Y001781D01*
X000931Y004081D01*
X001931Y004081D01*
X001931Y001781D01*
X001431Y001781D02*
X001431Y001431D01*
X001431Y004081D02*
X001431Y004431D01*
X002931Y004431D02*
X002931Y004081D01*
X004431Y004081D02*
X004431Y004431D01*
X010331Y008781D02*
X010931Y008781D01*
X010931Y009281D01*
X011431Y009281D01*
X011431Y008781D01*
X012031Y008781D01*
X012031Y015581D01*
X010331Y015581D01*
X010331Y008781D01*
X014081Y006181D02*
X014431Y006181D01*
X014431Y004431D02*
X014081Y004431D01*
X015251Y001681D02*
X015253Y001742D01*
X015259Y001802D01*
X015269Y001862D01*
X015283Y001922D01*
X015300Y001980D01*
X015322Y002037D01*
X015347Y002092D01*
X015376Y002146D01*
X015408Y002198D01*
X015443Y002247D01*
X015482Y002294D01*
X015523Y002339D01*
X015568Y002380D01*
X015615Y002419D01*
X015664Y002454D01*
X015716Y002486D01*
X015770Y002515D01*
X015825Y002540D01*
X015882Y002562D01*
X015940Y002579D01*
X016000Y002593D01*
X016060Y002603D01*
X016120Y002609D01*
X016181Y002611D01*
X016242Y002609D01*
X016302Y002603D01*
X016362Y002593D01*
X016422Y002579D01*
X016480Y002562D01*
X016537Y002540D01*
X016592Y002515D01*
X016646Y002486D01*
X016698Y002454D01*
X016747Y002419D01*
X016794Y002380D01*
X016839Y002339D01*
X016880Y002294D01*
X016919Y002247D01*
X016954Y002198D01*
X016986Y002146D01*
X017015Y002092D01*
X017040Y002037D01*
X017062Y001980D01*
X017079Y001922D01*
X017093Y001862D01*
X017103Y001802D01*
X017109Y001742D01*
X017111Y001681D01*
X017109Y001620D01*
X017103Y001560D01*
X017093Y001500D01*
X017079Y001440D01*
X017062Y001382D01*
X017040Y001325D01*
X017015Y001270D01*
X016986Y001216D01*
X016954Y001164D01*
X016919Y001115D01*
X016880Y001068D01*
X016839Y001023D01*
X016794Y000982D01*
X016747Y000943D01*
X016698Y000908D01*
X016646Y000876D01*
X016592Y000847D01*
X016537Y000822D01*
X016480Y000800D01*
X016422Y000783D01*
X016362Y000769D01*
X016302Y000759D01*
X016242Y000753D01*
X016181Y000751D01*
X016120Y000753D01*
X016060Y000759D01*
X016000Y000769D01*
X015940Y000783D01*
X015882Y000800D01*
X015825Y000822D01*
X015770Y000847D01*
X015716Y000876D01*
X015664Y000908D01*
X015615Y000943D01*
X015568Y000982D01*
X015523Y001023D01*
X015482Y001068D01*
X015443Y001115D01*
X015408Y001164D01*
X015376Y001216D01*
X015347Y001270D01*
X015322Y001325D01*
X015300Y001382D01*
X015283Y001440D01*
X015269Y001500D01*
X015259Y001560D01*
X015253Y001620D01*
X015251Y001681D01*
X018581Y001131D02*
X019781Y001131D01*
X019838Y001167D01*
X019892Y001207D01*
X019944Y001250D01*
X019994Y001295D01*
X020041Y001344D01*
X020085Y001395D01*
X020126Y001448D01*
X020164Y001504D01*
X020199Y001562D01*
X020230Y001621D01*
X020257Y001683D01*
X020282Y001746D01*
X020302Y001810D01*
X020319Y001875D01*
X020331Y001941D01*
X020341Y002008D01*
X020346Y002075D01*
X020347Y002143D01*
X020344Y002210D01*
X020338Y002277D01*
X020327Y002344D01*
X020313Y002410D01*
X020295Y002475D01*
X020274Y002538D01*
X020248Y002601D01*
X020219Y002662D01*
X020187Y002721D01*
X020151Y002778D01*
X020112Y002833D01*
X020070Y002885D01*
X020025Y002936D01*
X019977Y002983D01*
X019926Y003028D01*
X019873Y003069D01*
X019818Y003108D01*
X019761Y003143D01*
X019701Y003175D01*
X019640Y003203D01*
X019577Y003228D01*
X019513Y003249D01*
X019448Y003266D01*
X019382Y003280D01*
X019315Y003289D01*
X019248Y003295D01*
X019181Y003297D01*
X019114Y003295D01*
X019047Y003289D01*
X018980Y003280D01*
X018914Y003266D01*
X018849Y003249D01*
X018785Y003228D01*
X018722Y003203D01*
X018661Y003175D01*
X018601Y003143D01*
X018544Y003108D01*
X018489Y003069D01*
X018436Y003028D01*
X018385Y002983D01*
X018337Y002936D01*
X018292Y002885D01*
X018250Y002833D01*
X018211Y002778D01*
X018175Y002721D01*
X018143Y002662D01*
X018114Y002601D01*
X018088Y002538D01*
X018067Y002475D01*
X018049Y002410D01*
X018035Y002344D01*
X018024Y002277D01*
X018018Y002210D01*
X018015Y002143D01*
X018016Y002075D01*
X018021Y002008D01*
X018031Y001941D01*
X018043Y001875D01*
X018060Y001810D01*
X018080Y001746D01*
X018105Y001683D01*
X018132Y001621D01*
X018163Y001562D01*
X018198Y001504D01*
X018236Y001448D01*
X018277Y001395D01*
X018321Y001344D01*
X018368Y001295D01*
X018418Y001250D01*
X018470Y001207D01*
X018524Y001167D01*
X018581Y001131D01*
X016821Y006681D02*
X016824Y006797D01*
X016832Y006912D01*
X016847Y007027D01*
X016866Y007141D01*
X016892Y007254D01*
X016923Y007366D01*
X016959Y007476D01*
X017001Y007584D01*
X017048Y007690D01*
X017100Y007793D01*
X017157Y007894D01*
X017219Y007992D01*
X017285Y008087D01*
X017357Y008178D01*
X017432Y008266D01*
X017512Y008350D01*
X017596Y008430D01*
X017684Y008505D01*
X017775Y008577D01*
X017870Y008643D01*
X017968Y008705D01*
X018069Y008762D01*
X018172Y008814D01*
X018278Y008861D01*
X018386Y008903D01*
X018496Y008939D01*
X018608Y008970D01*
X018721Y008996D01*
X018835Y009015D01*
X018950Y009030D01*
X019065Y009038D01*
X019181Y009041D01*
X019297Y009038D01*
X019412Y009030D01*
X019527Y009015D01*
X019641Y008996D01*
X019754Y008970D01*
X019866Y008939D01*
X019976Y008903D01*
X020084Y008861D01*
X020190Y008814D01*
X020293Y008762D01*
X020394Y008705D01*
X020492Y008643D01*
X020587Y008577D01*
X020678Y008505D01*
X020766Y008430D01*
X020850Y008350D01*
X020930Y008266D01*
X021005Y008178D01*
X021077Y008087D01*
X021143Y007992D01*
X021205Y007894D01*
X021262Y007793D01*
X021314Y007690D01*
X021361Y007584D01*
X021403Y007476D01*
X021439Y007366D01*
X021470Y007254D01*
X021496Y007141D01*
X021515Y007027D01*
X021530Y006912D01*
X021538Y006797D01*
X021541Y006681D01*
X021538Y006565D01*
X021530Y006450D01*
X021515Y006335D01*
X021496Y006221D01*
X021470Y006108D01*
X021439Y005996D01*
X021403Y005886D01*
X021361Y005778D01*
X021314Y005672D01*
X021262Y005569D01*
X021205Y005468D01*
X021143Y005370D01*
X021077Y005275D01*
X021005Y005184D01*
X020930Y005096D01*
X020850Y005012D01*
X020766Y004932D01*
X020678Y004857D01*
X020587Y004785D01*
X020492Y004719D01*
X020394Y004657D01*
X020293Y004600D01*
X020190Y004548D01*
X020084Y004501D01*
X019976Y004459D01*
X019866Y004423D01*
X019754Y004392D01*
X019641Y004366D01*
X019527Y004347D01*
X019412Y004332D01*
X019297Y004324D01*
X019181Y004321D01*
X019065Y004324D01*
X018950Y004332D01*
X018835Y004347D01*
X018721Y004366D01*
X018608Y004392D01*
X018496Y004423D01*
X018386Y004459D01*
X018278Y004501D01*
X018172Y004548D01*
X018069Y004600D01*
X017968Y004657D01*
X017870Y004719D01*
X017775Y004785D01*
X017684Y004857D01*
X017596Y004932D01*
X017512Y005012D01*
X017432Y005096D01*
X017357Y005184D01*
X017285Y005275D01*
X017219Y005370D01*
X017157Y005468D01*
X017100Y005569D01*
X017048Y005672D01*
X017001Y005778D01*
X016959Y005886D01*
X016923Y005996D01*
X016892Y006108D01*
X016866Y006221D01*
X016847Y006335D01*
X016832Y006450D01*
X016824Y006565D01*
X016821Y006681D01*
X020681Y008831D02*
X021181Y008831D01*
X020931Y008581D02*
X020931Y009081D01*
X019781Y010131D02*
X018581Y010131D01*
X018524Y010167D01*
X018470Y010207D01*
X018418Y010250D01*
X018368Y010295D01*
X018321Y010344D01*
X018277Y010395D01*
X018236Y010448D01*
X018198Y010504D01*
X018163Y010562D01*
X018132Y010621D01*
X018105Y010683D01*
X018080Y010746D01*
X018060Y010810D01*
X018043Y010875D01*
X018031Y010941D01*
X018021Y011008D01*
X018016Y011075D01*
X018015Y011143D01*
X018018Y011210D01*
X018024Y011277D01*
X018035Y011344D01*
X018049Y011410D01*
X018067Y011475D01*
X018088Y011538D01*
X018114Y011601D01*
X018143Y011662D01*
X018175Y011721D01*
X018211Y011778D01*
X018250Y011833D01*
X018292Y011885D01*
X018337Y011936D01*
X018385Y011983D01*
X018436Y012028D01*
X018489Y012069D01*
X018544Y012108D01*
X018601Y012143D01*
X018661Y012175D01*
X018722Y012203D01*
X018785Y012228D01*
X018849Y012249D01*
X018914Y012266D01*
X018980Y012280D01*
X019047Y012289D01*
X019114Y012295D01*
X019181Y012297D01*
X019248Y012295D01*
X019315Y012289D01*
X019382Y012280D01*
X019448Y012266D01*
X019513Y012249D01*
X019577Y012228D01*
X019640Y012203D01*
X019701Y012175D01*
X019761Y012143D01*
X019818Y012108D01*
X019873Y012069D01*
X019926Y012028D01*
X019977Y011983D01*
X020025Y011936D01*
X020070Y011885D01*
X020112Y011833D01*
X020151Y011778D01*
X020187Y011721D01*
X020219Y011662D01*
X020248Y011601D01*
X020274Y011538D01*
X020295Y011475D01*
X020313Y011410D01*
X020327Y011344D01*
X020338Y011277D01*
X020344Y011210D01*
X020347Y011143D01*
X020346Y011075D01*
X020341Y011008D01*
X020331Y010941D01*
X020319Y010875D01*
X020302Y010810D01*
X020282Y010746D01*
X020257Y010683D01*
X020230Y010621D01*
X020199Y010562D01*
X020164Y010504D01*
X020126Y010448D01*
X020085Y010395D01*
X020041Y010344D01*
X019994Y010295D01*
X019944Y010250D01*
X019892Y010207D01*
X019838Y010167D01*
X019781Y010131D01*
X016931Y011031D02*
X015931Y011031D01*
X015931Y011431D01*
X016931Y011431D01*
X016931Y013331D01*
X015931Y013331D01*
X015931Y011431D01*
X015431Y011031D02*
X014431Y011031D01*
X014431Y013331D01*
X015431Y013331D01*
X015431Y011031D01*
X014931Y011031D02*
X014931Y010681D01*
X016431Y010681D02*
X016431Y011031D01*
X016931Y011031D02*
X016931Y011431D01*
X016431Y013331D02*
X016431Y013681D01*
X017681Y014031D02*
X018681Y014031D01*
X018681Y016331D01*
X017681Y016331D01*
X017681Y014031D01*
X018181Y014031D02*
X018181Y013681D01*
X018181Y016331D02*
X018181Y016681D01*
X015251Y016681D02*
X015253Y016742D01*
X015259Y016802D01*
X015269Y016862D01*
X015283Y016922D01*
X015300Y016980D01*
X015322Y017037D01*
X015347Y017092D01*
X015376Y017146D01*
X015408Y017198D01*
X015443Y017247D01*
X015482Y017294D01*
X015523Y017339D01*
X015568Y017380D01*
X015615Y017419D01*
X015664Y017454D01*
X015716Y017486D01*
X015770Y017515D01*
X015825Y017540D01*
X015882Y017562D01*
X015940Y017579D01*
X016000Y017593D01*
X016060Y017603D01*
X016120Y017609D01*
X016181Y017611D01*
X016242Y017609D01*
X016302Y017603D01*
X016362Y017593D01*
X016422Y017579D01*
X016480Y017562D01*
X016537Y017540D01*
X016592Y017515D01*
X016646Y017486D01*
X016698Y017454D01*
X016747Y017419D01*
X016794Y017380D01*
X016839Y017339D01*
X016880Y017294D01*
X016919Y017247D01*
X016954Y017198D01*
X016986Y017146D01*
X017015Y017092D01*
X017040Y017037D01*
X017062Y016980D01*
X017079Y016922D01*
X017093Y016862D01*
X017103Y016802D01*
X017109Y016742D01*
X017111Y016681D01*
X017109Y016620D01*
X017103Y016560D01*
X017093Y016500D01*
X017079Y016440D01*
X017062Y016382D01*
X017040Y016325D01*
X017015Y016270D01*
X016986Y016216D01*
X016954Y016164D01*
X016919Y016115D01*
X016880Y016068D01*
X016839Y016023D01*
X016794Y015982D01*
X016747Y015943D01*
X016698Y015908D01*
X016646Y015876D01*
X016592Y015847D01*
X016537Y015822D01*
X016480Y015800D01*
X016422Y015783D01*
X016362Y015769D01*
X016302Y015759D01*
X016242Y015753D01*
X016181Y015751D01*
X016120Y015753D01*
X016060Y015759D01*
X016000Y015769D01*
X015940Y015783D01*
X015882Y015800D01*
X015825Y015822D01*
X015770Y015847D01*
X015716Y015876D01*
X015664Y015908D01*
X015615Y015943D01*
X015568Y015982D01*
X015523Y016023D01*
X015482Y016068D01*
X015443Y016115D01*
X015408Y016164D01*
X015376Y016216D01*
X015347Y016270D01*
X015322Y016325D01*
X015300Y016382D01*
X015283Y016440D01*
X015269Y016500D01*
X015259Y016560D01*
X015253Y016620D01*
X015251Y016681D01*
X014181Y016681D02*
X014181Y017681D01*
X009181Y017681D01*
X009181Y016681D01*
X014181Y016681D01*
X014931Y013681D02*
X014931Y013331D01*
X009181Y016681D02*
X008181Y016681D01*
X008181Y017681D01*
X009181Y017681D01*
X005251Y016681D02*
X005253Y016742D01*
X005259Y016802D01*
X005269Y016862D01*
X005283Y016922D01*
X005300Y016980D01*
X005322Y017037D01*
X005347Y017092D01*
X005376Y017146D01*
X005408Y017198D01*
X005443Y017247D01*
X005482Y017294D01*
X005523Y017339D01*
X005568Y017380D01*
X005615Y017419D01*
X005664Y017454D01*
X005716Y017486D01*
X005770Y017515D01*
X005825Y017540D01*
X005882Y017562D01*
X005940Y017579D01*
X006000Y017593D01*
X006060Y017603D01*
X006120Y017609D01*
X006181Y017611D01*
X006242Y017609D01*
X006302Y017603D01*
X006362Y017593D01*
X006422Y017579D01*
X006480Y017562D01*
X006537Y017540D01*
X006592Y017515D01*
X006646Y017486D01*
X006698Y017454D01*
X006747Y017419D01*
X006794Y017380D01*
X006839Y017339D01*
X006880Y017294D01*
X006919Y017247D01*
X006954Y017198D01*
X006986Y017146D01*
X007015Y017092D01*
X007040Y017037D01*
X007062Y016980D01*
X007079Y016922D01*
X007093Y016862D01*
X007103Y016802D01*
X007109Y016742D01*
X007111Y016681D01*
X007109Y016620D01*
X007103Y016560D01*
X007093Y016500D01*
X007079Y016440D01*
X007062Y016382D01*
X007040Y016325D01*
X007015Y016270D01*
X006986Y016216D01*
X006954Y016164D01*
X006919Y016115D01*
X006880Y016068D01*
X006839Y016023D01*
X006794Y015982D01*
X006747Y015943D01*
X006698Y015908D01*
X006646Y015876D01*
X006592Y015847D01*
X006537Y015822D01*
X006480Y015800D01*
X006422Y015783D01*
X006362Y015769D01*
X006302Y015759D01*
X006242Y015753D01*
X006181Y015751D01*
X006120Y015753D01*
X006060Y015759D01*
X006000Y015769D01*
X005940Y015783D01*
X005882Y015800D01*
X005825Y015822D01*
X005770Y015847D01*
X005716Y015876D01*
X005664Y015908D01*
X005615Y015943D01*
X005568Y015982D01*
X005523Y016023D01*
X005482Y016068D01*
X005443Y016115D01*
X005408Y016164D01*
X005376Y016216D01*
X005347Y016270D01*
X005322Y016325D01*
X005300Y016382D01*
X005283Y016440D01*
X005269Y016500D01*
X005259Y016560D01*
X005253Y016620D01*
X005251Y016681D01*
X002681Y016331D02*
X001681Y016331D01*
X001681Y014031D01*
X002681Y014031D01*
X002681Y016331D01*
X002181Y016331D02*
X002181Y016681D01*
X002181Y014031D02*
X002181Y013681D01*
X003401Y013931D02*
X003403Y014002D01*
X003409Y014073D01*
X003419Y014144D01*
X003433Y014213D01*
X003450Y014282D01*
X003472Y014350D01*
X003497Y014417D01*
X003526Y014482D01*
X003558Y014545D01*
X003594Y014607D01*
X003633Y014666D01*
X003676Y014723D01*
X003721Y014778D01*
X003770Y014830D01*
X003821Y014879D01*
X003875Y014925D01*
X003932Y014969D01*
X003990Y015009D01*
X004051Y015045D01*
X004114Y015079D01*
X004179Y015108D01*
X004245Y015134D01*
X004313Y015157D01*
X004381Y015175D01*
X004451Y015190D01*
X004521Y015201D01*
X004592Y015208D01*
X004663Y015211D01*
X004734Y015210D01*
X004805Y015205D01*
X004876Y015196D01*
X004946Y015183D01*
X005015Y015167D01*
X005083Y015146D01*
X005150Y015122D01*
X005216Y015094D01*
X005279Y015062D01*
X005341Y015027D01*
X005401Y014989D01*
X005459Y014947D01*
X005514Y014903D01*
X005567Y014855D01*
X005617Y014804D01*
X005664Y014751D01*
X005708Y014695D01*
X005749Y014637D01*
X005787Y014576D01*
X005821Y014514D01*
X005851Y014449D01*
X005878Y014384D01*
X005902Y014316D01*
X005921Y014248D01*
X005937Y014179D01*
X005949Y014108D01*
X005957Y014038D01*
X005961Y013967D01*
X005961Y013895D01*
X005957Y013824D01*
X005949Y013754D01*
X005937Y013683D01*
X005921Y013614D01*
X005902Y013546D01*
X005878Y013478D01*
X005851Y013413D01*
X005821Y013348D01*
X005787Y013286D01*
X005749Y013225D01*
X005708Y013167D01*
X005664Y013111D01*
X005617Y013058D01*
X005567Y013007D01*
X005514Y012959D01*
X005459Y012915D01*
X005401Y012873D01*
X005341Y012835D01*
X005279Y012800D01*
X005216Y012768D01*
X005150Y012740D01*
X005083Y012716D01*
X005015Y012695D01*
X004946Y012679D01*
X004876Y012666D01*
X004805Y012657D01*
X004734Y012652D01*
X004663Y012651D01*
X004592Y012654D01*
X004521Y012661D01*
X004451Y012672D01*
X004381Y012687D01*
X004313Y012705D01*
X004245Y012728D01*
X004179Y012754D01*
X004114Y012783D01*
X004051Y012817D01*
X003990Y012853D01*
X003932Y012893D01*
X003875Y012937D01*
X003821Y012983D01*
X003770Y013032D01*
X003721Y013084D01*
X003676Y013139D01*
X003633Y013196D01*
X003594Y013255D01*
X003558Y013317D01*
X003526Y013380D01*
X003497Y013445D01*
X003472Y013512D01*
X003450Y013580D01*
X003433Y013649D01*
X003419Y013718D01*
X003409Y013789D01*
X003403Y013860D01*
X003401Y013931D01*
X005681Y012831D02*
X006181Y012831D01*
X006431Y012681D02*
X006431Y012181D01*
X005931Y012581D02*
X005931Y013081D01*
X006431Y012681D02*
X007181Y012681D01*
X007931Y012681D01*
X007931Y012181D01*
X007181Y012681D02*
X007181Y013131D01*
X003781Y010131D02*
X003838Y010167D01*
X003892Y010207D01*
X003944Y010250D01*
X003994Y010295D01*
X004041Y010344D01*
X004085Y010395D01*
X004126Y010448D01*
X004164Y010504D01*
X004199Y010562D01*
X004230Y010621D01*
X004257Y010683D01*
X004282Y010746D01*
X004302Y010810D01*
X004319Y010875D01*
X004331Y010941D01*
X004341Y011008D01*
X004346Y011075D01*
X004347Y011143D01*
X004344Y011210D01*
X004338Y011277D01*
X004327Y011344D01*
X004313Y011410D01*
X004295Y011475D01*
X004274Y011538D01*
X004248Y011601D01*
X004219Y011662D01*
X004187Y011721D01*
X004151Y011778D01*
X004112Y011833D01*
X004070Y011885D01*
X004025Y011936D01*
X003977Y011983D01*
X003926Y012028D01*
X003873Y012069D01*
X003818Y012108D01*
X003761Y012143D01*
X003701Y012175D01*
X003640Y012203D01*
X003577Y012228D01*
X003513Y012249D01*
X003448Y012266D01*
X003382Y012280D01*
X003315Y012289D01*
X003248Y012295D01*
X003181Y012297D01*
X003114Y012295D01*
X003047Y012289D01*
X002980Y012280D01*
X002914Y012266D01*
X002849Y012249D01*
X002785Y012228D01*
X002722Y012203D01*
X002661Y012175D01*
X002601Y012143D01*
X002544Y012108D01*
X002489Y012069D01*
X002436Y012028D01*
X002385Y011983D01*
X002337Y011936D01*
X002292Y011885D01*
X002250Y011833D01*
X002211Y011778D01*
X002175Y011721D01*
X002143Y011662D01*
X002114Y011601D01*
X002088Y011538D01*
X002067Y011475D01*
X002049Y011410D01*
X002035Y011344D01*
X002024Y011277D01*
X002018Y011210D01*
X002015Y011143D01*
X002016Y011075D01*
X002021Y011008D01*
X002031Y010941D01*
X002043Y010875D01*
X002060Y010810D01*
X002080Y010746D01*
X002105Y010683D01*
X002132Y010621D01*
X002163Y010562D01*
X002198Y010504D01*
X002236Y010448D01*
X002277Y010395D01*
X002321Y010344D01*
X002368Y010295D01*
X002418Y010250D01*
X002470Y010207D01*
X002524Y010167D01*
X002581Y010131D01*
D14*
X001877Y009976D02*
X001656Y009976D01*
X001767Y009976D02*
X001767Y010307D01*
X001656Y010197D01*
X001527Y010197D02*
X001472Y010142D01*
X001307Y010142D01*
X001307Y010307D02*
X001307Y009976D01*
X001472Y009976D01*
X001527Y010031D01*
X001527Y010086D01*
X001472Y010142D01*
X001527Y010197D02*
X001527Y010252D01*
X001472Y010307D01*
X001307Y010307D01*
X001177Y010307D02*
X000957Y010307D01*
X001067Y010307D02*
X001067Y009976D01*
X002606Y012356D02*
X002827Y012356D01*
X002956Y012356D02*
X003176Y012356D01*
X003306Y012356D02*
X003471Y012356D01*
X003526Y012411D01*
X003526Y012632D01*
X003471Y012687D01*
X003306Y012687D01*
X003306Y012356D01*
X003066Y012522D02*
X002956Y012522D01*
X002956Y012687D02*
X002956Y012356D01*
X002956Y012687D02*
X003176Y012687D01*
X003656Y012632D02*
X003656Y012411D01*
X003711Y012356D01*
X003821Y012356D01*
X003876Y012411D01*
X003876Y012522D01*
X003766Y012522D01*
X003656Y012632D02*
X003711Y012687D01*
X003821Y012687D01*
X003876Y012632D01*
X002606Y012687D02*
X002606Y012356D01*
X001486Y014807D02*
X001156Y014807D01*
X001156Y014972D01*
X001211Y015027D01*
X001321Y015027D01*
X001376Y014972D01*
X001376Y014807D01*
X001376Y014917D02*
X001486Y015027D01*
X001431Y015157D02*
X001321Y015157D01*
X001321Y015322D01*
X001376Y015377D01*
X001431Y015377D01*
X001486Y015322D01*
X001486Y015212D01*
X001431Y015157D01*
X001321Y015157D02*
X001211Y015267D01*
X001156Y015377D01*
X004307Y015431D02*
X004362Y015376D01*
X004472Y015376D01*
X004527Y015431D01*
X004657Y015376D02*
X004877Y015376D01*
X004767Y015376D02*
X004767Y015707D01*
X004657Y015597D01*
X004527Y015652D02*
X004472Y015707D01*
X004362Y015707D01*
X004307Y015652D01*
X004307Y015431D01*
X007656Y016917D02*
X007656Y017027D01*
X007656Y016972D02*
X007931Y016972D01*
X007986Y016917D01*
X007986Y016862D01*
X007931Y016807D01*
X007986Y017157D02*
X007986Y017377D01*
X007986Y017267D02*
X007656Y017267D01*
X007766Y017157D01*
X013926Y012366D02*
X014036Y012256D01*
X013981Y012127D02*
X014091Y012127D01*
X014146Y012072D01*
X014146Y011906D01*
X014256Y011906D02*
X013926Y011906D01*
X013926Y012072D01*
X013981Y012127D01*
X014146Y012016D02*
X014256Y012127D01*
X014256Y012256D02*
X014256Y012476D01*
X014256Y012366D02*
X013926Y012366D01*
X017126Y012311D02*
X017181Y012256D01*
X017126Y012311D02*
X017126Y012421D01*
X017181Y012476D01*
X017236Y012476D01*
X017291Y012421D01*
X017346Y012476D01*
X017401Y012476D01*
X017456Y012421D01*
X017456Y012311D01*
X017401Y012256D01*
X017401Y012127D02*
X017181Y012127D01*
X017126Y012072D01*
X017126Y011906D01*
X017456Y011906D01*
X017456Y012072D01*
X017401Y012127D01*
X017291Y012366D02*
X017291Y012421D01*
X017376Y014807D02*
X017376Y014972D01*
X017321Y015027D01*
X017211Y015027D01*
X017156Y014972D01*
X017156Y014807D01*
X017486Y014807D01*
X017376Y014917D02*
X017486Y015027D01*
X017321Y015157D02*
X017321Y015377D01*
X017156Y015322D02*
X017321Y015157D01*
X017486Y015322D02*
X017156Y015322D01*
X018556Y009837D02*
X018556Y009506D01*
X018777Y009506D01*
X018906Y009506D02*
X019126Y009506D01*
X019256Y009506D02*
X019421Y009506D01*
X019476Y009561D01*
X019476Y009782D01*
X019421Y009837D01*
X019256Y009837D01*
X019256Y009506D01*
X019016Y009672D02*
X018906Y009672D01*
X018906Y009837D02*
X018906Y009506D01*
X018906Y009837D02*
X019126Y009837D01*
X019606Y009837D02*
X019606Y009506D01*
X019606Y009616D02*
X019771Y009616D01*
X019826Y009672D01*
X019826Y009782D01*
X019771Y009837D01*
X019606Y009837D01*
X019716Y009616D02*
X019826Y009506D01*
X015976Y006387D02*
X015756Y006387D01*
X015756Y006222D01*
X015866Y006277D01*
X015921Y006277D01*
X015976Y006222D01*
X015976Y006111D01*
X015921Y006056D01*
X015811Y006056D01*
X015756Y006111D01*
X015627Y006056D02*
X015516Y006166D01*
X015572Y006166D02*
X015406Y006166D01*
X015406Y006056D02*
X015406Y006387D01*
X015572Y006387D01*
X015627Y006332D01*
X015627Y006222D01*
X015572Y006166D01*
X015572Y004637D02*
X015406Y004637D01*
X015406Y004306D01*
X015406Y004416D02*
X015572Y004416D01*
X015627Y004472D01*
X015627Y004582D01*
X015572Y004637D01*
X015756Y004582D02*
X015811Y004637D01*
X015921Y004637D01*
X015976Y004582D01*
X015976Y004527D01*
X015756Y004306D01*
X015976Y004306D01*
X015627Y004306D02*
X015516Y004416D01*
X018706Y004137D02*
X018706Y003806D01*
X018927Y003806D01*
X019056Y003861D02*
X019111Y003806D01*
X019221Y003806D01*
X019276Y003861D01*
X019276Y003916D01*
X019221Y003972D01*
X019111Y003972D01*
X019056Y004027D01*
X019056Y004082D01*
X019111Y004137D01*
X019221Y004137D01*
X019276Y004082D01*
X019406Y004027D02*
X019516Y004137D01*
X019516Y003806D01*
X019406Y003806D02*
X019626Y003806D01*
X019606Y000837D02*
X019606Y000782D01*
X019716Y000672D01*
X019716Y000506D01*
X019716Y000672D02*
X019826Y000782D01*
X019826Y000837D01*
X019476Y000782D02*
X019476Y000561D01*
X019421Y000506D01*
X019256Y000506D01*
X019256Y000837D01*
X019421Y000837D01*
X019476Y000782D01*
X019126Y000837D02*
X018906Y000837D01*
X018906Y000506D01*
X019126Y000506D01*
X019016Y000672D02*
X018906Y000672D01*
X018777Y000506D02*
X018556Y000506D01*
X018556Y000837D01*
X012377Y000656D02*
X012156Y000656D01*
X012267Y000656D02*
X012267Y000987D01*
X012156Y000877D01*
X012027Y000987D02*
X012027Y000656D01*
X011917Y000766D01*
X011807Y000656D01*
X011807Y000987D01*
X011677Y000932D02*
X011622Y000987D01*
X011512Y000987D01*
X011457Y000932D01*
X011457Y000877D01*
X011512Y000822D01*
X011622Y000822D01*
X011677Y000766D01*
X011677Y000711D01*
X011622Y000656D01*
X011512Y000656D01*
X011457Y000711D01*
X008256Y003906D02*
X007926Y003906D01*
X007926Y004072D01*
X007981Y004127D01*
X008201Y004127D01*
X008256Y004072D01*
X008256Y003906D01*
X008256Y004256D02*
X008036Y004476D01*
X007981Y004476D01*
X007926Y004421D01*
X007926Y004311D01*
X007981Y004256D01*
X008256Y004256D02*
X008256Y004476D01*
X006921Y002987D02*
X006976Y002932D01*
X006976Y002877D01*
X006921Y002822D01*
X006976Y002766D01*
X006976Y002711D01*
X006921Y002656D01*
X006811Y002656D01*
X006756Y002711D01*
X006627Y002711D02*
X006572Y002656D01*
X006461Y002656D01*
X006406Y002711D01*
X006406Y002932D01*
X006461Y002987D01*
X006572Y002987D01*
X006627Y002932D01*
X006756Y002932D02*
X006811Y002987D01*
X006921Y002987D01*
X006921Y002822D02*
X006866Y002822D01*
X005456Y002877D02*
X005346Y002766D01*
X005346Y002822D02*
X005346Y002656D01*
X005456Y002656D02*
X005126Y002656D01*
X005126Y002822D01*
X005181Y002877D01*
X005291Y002877D01*
X005346Y002822D01*
X005401Y003006D02*
X005456Y003006D01*
X005401Y003006D02*
X005181Y003226D01*
X005126Y003226D01*
X005126Y003006D01*
X003322Y005426D02*
X003212Y005426D01*
X003157Y005481D01*
X003027Y005426D02*
X002917Y005536D01*
X002972Y005536D02*
X002807Y005536D01*
X002807Y005426D02*
X002807Y005757D01*
X002972Y005757D01*
X003027Y005702D01*
X003027Y005592D01*
X002972Y005536D01*
X003157Y005702D02*
X003212Y005757D01*
X003322Y005757D01*
X003377Y005702D01*
X003377Y005647D01*
X003322Y005592D01*
X003377Y005536D01*
X003377Y005481D01*
X003322Y005426D01*
X003322Y005592D02*
X003267Y005592D01*
X003456Y006156D02*
X003456Y006487D01*
X003677Y006487D01*
X003806Y006377D02*
X003916Y006487D01*
X003916Y006156D01*
X003806Y006156D02*
X004026Y006156D01*
X003566Y006322D02*
X003456Y006322D01*
X004906Y006306D02*
X005072Y006306D01*
X005127Y006361D01*
X005127Y006582D01*
X005072Y006637D01*
X004906Y006637D01*
X004906Y006306D01*
X005256Y006472D02*
X005476Y006472D01*
X005421Y006637D02*
X005421Y006306D01*
X005256Y006472D02*
X005421Y006637D01*
X005906Y010557D02*
X005906Y010722D01*
X005961Y010777D01*
X006181Y010777D01*
X006236Y010722D01*
X006236Y010557D01*
X005906Y010557D01*
X006016Y010907D02*
X005906Y011017D01*
X006236Y011017D01*
X006236Y010907D02*
X006236Y011127D01*
X010406Y008587D02*
X010406Y008311D01*
X010461Y008256D01*
X010572Y008256D01*
X010627Y008311D01*
X010627Y008587D01*
X010756Y008477D02*
X010866Y008587D01*
X010866Y008256D01*
X010756Y008256D02*
X010976Y008256D01*
X013107Y007802D02*
X013107Y007581D01*
X013162Y007526D01*
X013272Y007526D01*
X013327Y007581D01*
X013457Y007526D02*
X013677Y007747D01*
X013677Y007802D01*
X013622Y007857D01*
X013512Y007857D01*
X013457Y007802D01*
X013327Y007802D02*
X013272Y007857D01*
X013162Y007857D01*
X013107Y007802D01*
X013457Y007526D02*
X013677Y007526D01*
X000736Y003072D02*
X000736Y002962D01*
X000681Y002907D01*
X000626Y002907D01*
X000571Y002962D01*
X000571Y003072D01*
X000626Y003127D01*
X000681Y003127D01*
X000736Y003072D01*
X000571Y003072D02*
X000516Y003127D01*
X000461Y003127D01*
X000406Y003072D01*
X000406Y002962D01*
X000461Y002907D01*
X000516Y002907D01*
X000571Y002962D01*
X000571Y002777D02*
X000626Y002722D01*
X000626Y002557D01*
X000626Y002667D02*
X000736Y002777D01*
X000571Y002777D02*
X000461Y002777D01*
X000406Y002722D01*
X000406Y002557D01*
X000736Y002557D01*
M02*
