G75*
G70*
%OFA0B0*%
%FSLAX24Y24*%
%IPPOS*%
%LPD*%
%AMOC8*
5,1,8,0,0,1.08239X$1,22.5*
%
%ADD10C,0.0640*%
%ADD11R,0.0640X0.0640*%
%ADD12R,0.0750X0.0750*%
%ADD13C,0.0750*%
%ADD14R,0.1000X0.1000*%
%ADD15C,0.1000*%
%ADD16C,0.1650*%
%ADD17C,0.0160*%
%ADD18C,0.0360*%
%ADD19C,0.0120*%
D10*
X001431Y000931D03*
X002931Y000931D03*
X004431Y000931D03*
X006181Y003681D03*
X007181Y003681D03*
X004431Y004931D03*
X002931Y004931D03*
X001431Y004931D03*
X003681Y007181D03*
X003681Y009181D03*
X003181Y011681D03*
X002181Y013181D03*
X004181Y013931D03*
X002181Y017181D03*
X009681Y017181D03*
X010681Y017181D03*
X011681Y017181D03*
X012681Y017181D03*
X013681Y017181D03*
X012681Y015181D03*
X012681Y014181D03*
X012681Y013181D03*
X012681Y012181D03*
X012681Y011181D03*
X012681Y010181D03*
X014931Y010181D03*
X012431Y007681D03*
X011431Y007681D03*
X010931Y006181D03*
X010931Y004431D03*
X010621Y003061D03*
X010621Y001291D03*
X013181Y001291D03*
X014931Y004431D03*
X014931Y006181D03*
X019181Y005181D03*
X019181Y002681D03*
X009681Y009181D03*
X009681Y010181D03*
X009681Y011181D03*
X009681Y012181D03*
X009681Y013181D03*
X009681Y014181D03*
X009681Y015181D03*
X014931Y014181D03*
X018181Y013181D03*
X019181Y011681D03*
X018181Y017181D03*
D11*
X019181Y010681D03*
X019181Y008181D03*
X013181Y003061D03*
X019181Y001681D03*
X012681Y009181D03*
X005181Y013931D03*
X003181Y010681D03*
X008681Y017181D03*
D12*
X005181Y011181D03*
X001431Y009181D03*
X016431Y010181D03*
D13*
X016431Y014181D03*
X005181Y007181D03*
X001431Y007181D03*
X001431Y008181D03*
X001431Y006181D03*
D14*
X009181Y001181D03*
X007181Y013931D03*
D15*
X007181Y007931D03*
X009181Y007181D03*
D16*
X006181Y001681D03*
X016181Y001681D03*
X016181Y016681D03*
X006181Y016681D03*
D17*
X000411Y017951D02*
X000411Y000411D01*
X021951Y000411D01*
X021951Y017951D01*
X000411Y017951D01*
X000411Y017938D02*
X021951Y017938D01*
X021951Y017780D02*
X000411Y017780D01*
X000411Y017621D02*
X001886Y017621D01*
X001887Y017622D02*
X001741Y017476D01*
X001661Y017285D01*
X001661Y017078D01*
X001741Y016887D01*
X001887Y016741D01*
X002078Y016661D01*
X002285Y016661D01*
X002476Y016741D01*
X002622Y016887D01*
X002701Y017078D01*
X002701Y017285D01*
X002622Y017476D01*
X002476Y017622D01*
X002285Y017701D01*
X002078Y017701D01*
X001887Y017622D01*
X001735Y017463D02*
X000411Y017463D01*
X000411Y017304D02*
X001669Y017304D01*
X001661Y017146D02*
X000411Y017146D01*
X000411Y016987D02*
X001699Y016987D01*
X001799Y016828D02*
X000411Y016828D01*
X000411Y016670D02*
X002057Y016670D01*
X002305Y016670D02*
X006101Y016670D01*
X006101Y016601D02*
X005179Y016601D01*
X005189Y016513D01*
X005214Y016403D01*
X005251Y016296D01*
X005300Y016194D01*
X005301Y016194D02*
X000411Y016194D01*
X000411Y016036D02*
X005411Y016036D01*
X005431Y016011D02*
X005511Y015931D01*
X005599Y015860D01*
X005694Y015800D01*
X005796Y015751D01*
X005903Y015714D01*
X006013Y015689D01*
X006101Y015679D01*
X006101Y016601D01*
X006261Y016601D01*
X006261Y015679D01*
X006350Y015689D01*
X006460Y015714D01*
X006567Y015751D01*
X006668Y015800D01*
X006764Y015860D01*
X006852Y015931D01*
X006932Y016011D01*
X007002Y016099D01*
X007062Y016194D01*
X015301Y016194D01*
X015300Y016194D02*
X015360Y016099D01*
X015431Y016011D01*
X015511Y015931D01*
X015599Y015860D01*
X015694Y015800D01*
X015796Y015751D01*
X015903Y015714D01*
X016013Y015689D01*
X016101Y015679D01*
X016101Y016601D01*
X016261Y016601D01*
X016261Y015679D01*
X016350Y015689D01*
X016460Y015714D01*
X016567Y015751D01*
X016668Y015800D01*
X016764Y015860D01*
X016852Y015931D01*
X016932Y016011D01*
X017002Y016099D01*
X017062Y016194D01*
X021951Y016194D01*
X021951Y016036D02*
X016952Y016036D01*
X017062Y016194D02*
X017111Y016296D01*
X017149Y016403D01*
X017174Y016513D01*
X017184Y016601D01*
X016262Y016601D01*
X016262Y016761D01*
X017184Y016761D01*
X017174Y016850D01*
X017149Y016960D01*
X017111Y017067D01*
X017062Y017168D01*
X017002Y017264D01*
X016932Y017352D01*
X016852Y017432D01*
X016764Y017502D01*
X016668Y017562D01*
X016567Y017611D01*
X016460Y017649D01*
X016350Y017674D01*
X016261Y017684D01*
X016261Y016762D01*
X016101Y016762D01*
X016101Y017684D01*
X016013Y017674D01*
X015903Y017649D01*
X015796Y017611D01*
X015694Y017562D01*
X015599Y017502D01*
X015511Y017432D01*
X015431Y017352D01*
X015360Y017264D01*
X015300Y017168D01*
X015251Y017067D01*
X015214Y016960D01*
X015189Y016850D01*
X015179Y016761D01*
X016101Y016761D01*
X016101Y016601D01*
X015179Y016601D01*
X015189Y016513D01*
X015214Y016403D01*
X015251Y016296D01*
X015300Y016194D01*
X015232Y016353D02*
X007131Y016353D01*
X007149Y016403D02*
X007174Y016513D01*
X007184Y016601D01*
X006262Y016601D01*
X006262Y016761D01*
X007184Y016761D01*
X007174Y016850D01*
X007149Y016960D01*
X007111Y017067D01*
X007062Y017168D01*
X007002Y017264D01*
X006932Y017352D01*
X006852Y017432D01*
X006764Y017502D01*
X006668Y017562D01*
X006567Y017611D01*
X006460Y017649D01*
X006350Y017674D01*
X006261Y017684D01*
X006261Y016762D01*
X006101Y016762D01*
X006101Y017684D01*
X006013Y017674D01*
X005903Y017649D01*
X005796Y017611D01*
X005694Y017562D01*
X005599Y017502D01*
X005511Y017432D01*
X005431Y017352D01*
X005360Y017264D01*
X005300Y017168D01*
X005251Y017067D01*
X005214Y016960D01*
X005189Y016850D01*
X005179Y016761D01*
X006101Y016761D01*
X006101Y016601D01*
X006101Y016511D02*
X006261Y016511D01*
X006261Y016353D02*
X006101Y016353D01*
X006101Y016194D02*
X006261Y016194D01*
X006261Y016036D02*
X006101Y016036D01*
X006101Y015877D02*
X006261Y015877D01*
X006261Y015719D02*
X006101Y015719D01*
X005890Y015719D02*
X000411Y015719D01*
X000411Y015877D02*
X005578Y015877D01*
X005431Y016011D02*
X005360Y016099D01*
X005300Y016194D01*
X005232Y016353D02*
X000411Y016353D01*
X000411Y016511D02*
X005189Y016511D01*
X005187Y016828D02*
X002564Y016828D01*
X002664Y016987D02*
X005224Y016987D01*
X005289Y017146D02*
X002701Y017146D01*
X002693Y017304D02*
X005393Y017304D01*
X005549Y017463D02*
X002628Y017463D01*
X002477Y017621D02*
X005824Y017621D01*
X006101Y017621D02*
X006261Y017621D01*
X006261Y017463D02*
X006101Y017463D01*
X006101Y017304D02*
X006261Y017304D01*
X006261Y017146D02*
X006101Y017146D01*
X006101Y016987D02*
X006261Y016987D01*
X006261Y016828D02*
X006101Y016828D01*
X006262Y016670D02*
X008270Y016670D01*
X008279Y016661D02*
X008161Y016779D01*
X008161Y017584D01*
X008279Y017701D01*
X009084Y017701D01*
X009201Y017584D01*
X009201Y017381D01*
X009241Y017476D01*
X009387Y017622D01*
X009578Y017701D01*
X009785Y017701D01*
X009976Y017622D01*
X010122Y017476D01*
X010181Y017333D01*
X010241Y017476D01*
X010387Y017622D01*
X010578Y017701D01*
X010785Y017701D01*
X010976Y017622D01*
X011122Y017476D01*
X011181Y017333D01*
X011241Y017476D01*
X011387Y017622D01*
X011578Y017701D01*
X011785Y017701D01*
X011976Y017622D01*
X012122Y017476D01*
X012181Y017333D01*
X012241Y017476D01*
X012387Y017622D01*
X012578Y017701D01*
X012785Y017701D01*
X012976Y017622D01*
X013122Y017476D01*
X013195Y017301D01*
X013218Y017373D01*
X013254Y017443D01*
X013300Y017507D01*
X013356Y017563D01*
X013419Y017609D01*
X013489Y017645D01*
X013564Y017669D01*
X013642Y017681D01*
X013679Y017681D01*
X013679Y017184D01*
X013684Y017184D01*
X013684Y017681D01*
X013721Y017681D01*
X013799Y017669D01*
X013873Y017645D01*
X013943Y017609D01*
X014007Y017563D01*
X014063Y017507D01*
X014109Y017443D01*
X014145Y017373D01*
X014169Y017299D01*
X014181Y017221D01*
X014181Y017184D01*
X013684Y017184D01*
X013684Y017179D01*
X014181Y017179D01*
X014181Y017142D01*
X014169Y017064D01*
X014145Y016989D01*
X014109Y016919D01*
X014063Y016856D01*
X014007Y016800D01*
X013943Y016754D01*
X013873Y016718D01*
X013799Y016694D01*
X013721Y016681D01*
X013684Y016681D01*
X013684Y017179D01*
X013679Y017179D01*
X013679Y016681D01*
X013642Y016681D01*
X013564Y016694D01*
X013489Y016718D01*
X013419Y016754D01*
X013356Y016800D01*
X013300Y016856D01*
X013254Y016919D01*
X013218Y016989D01*
X013195Y017062D01*
X013122Y016887D01*
X012976Y016741D01*
X012785Y016661D01*
X012578Y016661D01*
X012387Y016741D01*
X012241Y016887D01*
X012181Y017030D01*
X012122Y016887D01*
X011976Y016741D01*
X011785Y016661D01*
X011578Y016661D01*
X011387Y016741D01*
X011241Y016887D01*
X011181Y017030D01*
X011122Y016887D01*
X010976Y016741D01*
X010785Y016661D01*
X010578Y016661D01*
X010387Y016741D01*
X010241Y016887D01*
X010181Y017030D01*
X010122Y016887D01*
X009976Y016741D01*
X009785Y016661D01*
X009578Y016661D01*
X009387Y016741D01*
X009241Y016887D01*
X009201Y016982D01*
X009201Y016779D01*
X009084Y016661D01*
X008279Y016661D01*
X008161Y016828D02*
X007176Y016828D01*
X007139Y016987D02*
X008161Y016987D01*
X008161Y017146D02*
X007073Y017146D01*
X006970Y017304D02*
X008161Y017304D01*
X008161Y017463D02*
X006814Y017463D01*
X006539Y017621D02*
X008198Y017621D01*
X009164Y017621D02*
X009386Y017621D01*
X009235Y017463D02*
X009201Y017463D01*
X009977Y017621D02*
X010386Y017621D01*
X010235Y017463D02*
X010128Y017463D01*
X010164Y016987D02*
X010199Y016987D01*
X010299Y016828D02*
X010064Y016828D01*
X009805Y016670D02*
X010557Y016670D01*
X010805Y016670D02*
X011557Y016670D01*
X011805Y016670D02*
X012557Y016670D01*
X012805Y016670D02*
X016101Y016670D01*
X016101Y016828D02*
X016261Y016828D01*
X016262Y016670D02*
X018057Y016670D01*
X018078Y016661D02*
X018285Y016661D01*
X018476Y016741D01*
X018622Y016887D01*
X018701Y017078D01*
X018701Y017285D01*
X018622Y017476D01*
X018476Y017622D01*
X018285Y017701D01*
X018078Y017701D01*
X017887Y017622D01*
X017741Y017476D01*
X017661Y017285D01*
X017661Y017078D01*
X017741Y016887D01*
X017887Y016741D01*
X018078Y016661D01*
X018305Y016670D02*
X021951Y016670D01*
X021951Y016828D02*
X018564Y016828D01*
X018664Y016987D02*
X021951Y016987D01*
X021951Y017146D02*
X018701Y017146D01*
X018693Y017304D02*
X021951Y017304D01*
X021951Y017463D02*
X018628Y017463D01*
X018477Y017621D02*
X021951Y017621D01*
X021951Y016511D02*
X017173Y016511D01*
X017131Y016353D02*
X021951Y016353D01*
X021951Y015877D02*
X016785Y015877D01*
X016473Y015719D02*
X021951Y015719D01*
X021951Y015560D02*
X013038Y015560D01*
X012976Y015622D02*
X013122Y015476D01*
X013201Y015285D01*
X013201Y015078D01*
X013122Y014887D01*
X012976Y014741D01*
X012833Y014681D01*
X012976Y014622D01*
X013122Y014476D01*
X013201Y014285D01*
X013201Y014078D01*
X013122Y013887D01*
X012976Y013741D01*
X012833Y013681D01*
X012976Y013622D01*
X013122Y013476D01*
X013201Y013285D01*
X013201Y013078D01*
X013122Y012887D01*
X012976Y012741D01*
X012833Y012681D01*
X012976Y012622D01*
X013122Y012476D01*
X013201Y012285D01*
X013201Y012078D01*
X013122Y011887D01*
X012976Y011741D01*
X012833Y011681D01*
X012976Y011622D01*
X013122Y011476D01*
X013201Y011285D01*
X013201Y011078D01*
X013122Y010887D01*
X012976Y010741D01*
X012833Y010681D01*
X012976Y010622D01*
X013122Y010476D01*
X013201Y010285D01*
X013201Y010078D01*
X013122Y009887D01*
X012976Y009741D01*
X012881Y009701D01*
X013084Y009701D01*
X013201Y009584D01*
X013201Y008779D01*
X013084Y008661D01*
X012279Y008661D01*
X012161Y008779D01*
X012161Y009584D01*
X012279Y009701D01*
X012482Y009701D01*
X012387Y009741D01*
X012241Y009887D01*
X012161Y010078D01*
X012161Y010285D01*
X012241Y010476D01*
X012387Y010622D01*
X012530Y010681D01*
X012387Y010741D01*
X012241Y010887D01*
X012161Y011078D01*
X012161Y011285D01*
X012241Y011476D01*
X012387Y011622D01*
X012530Y011681D01*
X012387Y011741D01*
X012241Y011887D01*
X012161Y012078D01*
X012161Y012285D01*
X012241Y012476D01*
X012387Y012622D01*
X012530Y012681D01*
X012387Y012741D01*
X012241Y012887D01*
X012161Y013078D01*
X012161Y013285D01*
X012241Y013476D01*
X012387Y013622D01*
X012530Y013681D01*
X012387Y013741D01*
X012241Y013887D01*
X012161Y014078D01*
X012161Y014285D01*
X012241Y014476D01*
X012387Y014622D01*
X012530Y014681D01*
X012387Y014741D01*
X012241Y014887D01*
X012161Y015078D01*
X012161Y015285D01*
X012241Y015476D01*
X012387Y015622D01*
X012578Y015701D01*
X012785Y015701D01*
X012976Y015622D01*
X013153Y015402D02*
X021951Y015402D01*
X021951Y015243D02*
X013201Y015243D01*
X013201Y015084D02*
X021951Y015084D01*
X021951Y014926D02*
X013138Y014926D01*
X013003Y014767D02*
X021951Y014767D01*
X021951Y014609D02*
X016817Y014609D01*
X016757Y014669D02*
X016919Y014507D01*
X017006Y014296D01*
X017006Y014067D01*
X016919Y013856D01*
X016757Y013694D01*
X016546Y013606D01*
X016317Y013606D01*
X016106Y013694D01*
X015944Y013856D01*
X015856Y014067D01*
X015856Y014296D01*
X015944Y014507D01*
X016106Y014669D01*
X016317Y014756D01*
X016546Y014756D01*
X016757Y014669D01*
X016942Y014450D02*
X021951Y014450D01*
X021951Y014292D02*
X017006Y014292D01*
X017006Y014133D02*
X021951Y014133D01*
X021951Y013975D02*
X016968Y013975D01*
X016879Y013816D02*
X021951Y013816D01*
X021951Y013658D02*
X018391Y013658D01*
X018476Y013622D02*
X018285Y013701D01*
X018078Y013701D01*
X017887Y013622D01*
X017741Y013476D01*
X017661Y013285D01*
X017661Y013078D01*
X017741Y012887D01*
X017887Y012741D01*
X018078Y012661D01*
X018285Y012661D01*
X018476Y012741D01*
X018622Y012887D01*
X018701Y013078D01*
X018701Y013285D01*
X018622Y013476D01*
X018476Y013622D01*
X018599Y013499D02*
X021951Y013499D01*
X021951Y013341D02*
X018678Y013341D01*
X018701Y013182D02*
X021951Y013182D01*
X021951Y013023D02*
X018679Y013023D01*
X018600Y012865D02*
X021951Y012865D01*
X021951Y012706D02*
X018393Y012706D01*
X017969Y012706D02*
X012893Y012706D01*
X013050Y012548D02*
X021951Y012548D01*
X021951Y012389D02*
X013158Y012389D01*
X013201Y012231D02*
X021951Y012231D01*
X021951Y012072D02*
X019526Y012072D01*
X019476Y012122D02*
X019622Y011976D01*
X019701Y011785D01*
X019701Y011578D01*
X019622Y011387D01*
X019476Y011241D01*
X019333Y011181D01*
X019525Y011181D01*
X019571Y011169D01*
X019612Y011145D01*
X019645Y011112D01*
X019669Y011071D01*
X019681Y011025D01*
X019681Y010682D01*
X019182Y010682D01*
X019182Y010681D01*
X019681Y010681D01*
X019681Y010338D01*
X019669Y010292D01*
X019645Y010251D01*
X019612Y010217D01*
X019571Y010194D01*
X019525Y010181D01*
X019182Y010181D01*
X019182Y010681D01*
X019181Y010681D01*
X019181Y010181D01*
X018838Y010181D01*
X018792Y010194D01*
X018751Y010217D01*
X018717Y010251D01*
X018694Y010292D01*
X018681Y010338D01*
X018681Y010681D01*
X019181Y010681D01*
X019181Y010682D01*
X018681Y010682D01*
X018681Y011025D01*
X018694Y011071D01*
X018717Y011112D01*
X018751Y011145D01*
X018792Y011169D01*
X018838Y011181D01*
X019030Y011181D01*
X018887Y011241D01*
X018741Y011387D01*
X018661Y011578D01*
X018661Y011785D01*
X018741Y011976D01*
X018887Y012122D01*
X019078Y012201D01*
X019285Y012201D01*
X019476Y012122D01*
X019648Y011914D02*
X021951Y011914D01*
X021951Y011755D02*
X019701Y011755D01*
X019701Y011597D02*
X021951Y011597D01*
X021951Y011438D02*
X019643Y011438D01*
X019515Y011279D02*
X021951Y011279D01*
X021951Y011121D02*
X019636Y011121D01*
X019681Y010962D02*
X021951Y010962D01*
X021951Y010804D02*
X019681Y010804D01*
X019681Y010645D02*
X021951Y010645D01*
X021951Y010487D02*
X019681Y010487D01*
X019679Y010328D02*
X021951Y010328D01*
X021951Y010170D02*
X017006Y010170D01*
X017006Y010328D02*
X018684Y010328D01*
X018681Y010487D02*
X017006Y010487D01*
X017006Y010639D02*
X016889Y010756D01*
X015974Y010756D01*
X015856Y010639D01*
X015856Y009724D01*
X015974Y009606D01*
X016889Y009606D01*
X017006Y009724D01*
X017006Y010639D01*
X017000Y010645D02*
X018681Y010645D01*
X018681Y010804D02*
X013039Y010804D01*
X013153Y010962D02*
X018681Y010962D01*
X018726Y011121D02*
X013201Y011121D01*
X013201Y011279D02*
X018848Y011279D01*
X018719Y011438D02*
X013138Y011438D01*
X013002Y011597D02*
X018661Y011597D01*
X018661Y011755D02*
X012990Y011755D01*
X013133Y011914D02*
X018715Y011914D01*
X018837Y012072D02*
X013199Y012072D01*
X012372Y011755D02*
X009990Y011755D01*
X009976Y011741D02*
X009833Y011681D01*
X009976Y011622D01*
X010122Y011476D01*
X010201Y011285D01*
X010201Y011078D01*
X010122Y010887D01*
X009976Y010741D01*
X009833Y010681D01*
X009976Y010622D01*
X010122Y010476D01*
X010201Y010285D01*
X010201Y010078D01*
X010122Y009887D01*
X009976Y009741D01*
X009801Y009668D01*
X009873Y009645D01*
X009943Y009609D01*
X010007Y009563D01*
X010063Y009507D01*
X010109Y009443D01*
X010145Y009373D01*
X010169Y009299D01*
X010181Y009221D01*
X010181Y009182D01*
X009682Y009182D01*
X009682Y009181D01*
X010181Y009181D01*
X010181Y009142D01*
X010169Y009064D01*
X010145Y008989D01*
X010109Y008919D01*
X010063Y008856D01*
X010007Y008800D01*
X009943Y008754D01*
X009873Y008718D01*
X009799Y008694D01*
X009721Y008681D01*
X009682Y008681D01*
X009682Y009181D01*
X009681Y009181D01*
X009681Y008681D01*
X009642Y008681D01*
X009564Y008694D01*
X009489Y008718D01*
X009419Y008754D01*
X009356Y008800D01*
X009300Y008856D01*
X009254Y008919D01*
X009218Y008989D01*
X009194Y009064D01*
X009181Y009142D01*
X009181Y009181D01*
X009681Y009181D01*
X009681Y009182D01*
X009181Y009182D01*
X009181Y009221D01*
X009194Y009299D01*
X009218Y009373D01*
X009254Y009443D01*
X009300Y009507D01*
X009356Y009563D01*
X009419Y009609D01*
X009489Y009645D01*
X009562Y009668D01*
X009387Y009741D01*
X009241Y009887D01*
X009161Y010078D01*
X009161Y010285D01*
X009241Y010476D01*
X009387Y010622D01*
X009530Y010681D01*
X009387Y010741D01*
X009241Y010887D01*
X009161Y011078D01*
X009161Y011285D01*
X009241Y011476D01*
X009387Y011622D01*
X009530Y011681D01*
X009387Y011741D01*
X009241Y011887D01*
X009161Y012078D01*
X009161Y012285D01*
X009241Y012476D01*
X009387Y012622D01*
X009530Y012681D01*
X009387Y012741D01*
X009241Y012887D01*
X009161Y013078D01*
X009161Y013285D01*
X009241Y013476D01*
X009387Y013622D01*
X009530Y013681D01*
X009387Y013741D01*
X009241Y013887D01*
X009161Y014078D01*
X009161Y014285D01*
X009241Y014476D01*
X009387Y014622D01*
X009530Y014681D01*
X009387Y014741D01*
X009241Y014887D01*
X009161Y015078D01*
X009161Y015285D01*
X009241Y015476D01*
X009387Y015622D01*
X009578Y015701D01*
X009785Y015701D01*
X009976Y015622D01*
X010122Y015476D01*
X010201Y015285D01*
X010201Y015078D01*
X010122Y014887D01*
X009976Y014741D01*
X009833Y014681D01*
X009976Y014622D01*
X010122Y014476D01*
X010201Y014285D01*
X010201Y014078D01*
X010122Y013887D01*
X009976Y013741D01*
X009833Y013681D01*
X009976Y013622D01*
X010122Y013476D01*
X010201Y013285D01*
X010201Y013078D01*
X010122Y012887D01*
X009976Y012741D01*
X009833Y012681D01*
X009976Y012622D01*
X010122Y012476D01*
X010201Y012285D01*
X010201Y012078D01*
X010122Y011887D01*
X009976Y011741D01*
X010002Y011597D02*
X012361Y011597D01*
X012225Y011438D02*
X010138Y011438D01*
X010201Y011279D02*
X012161Y011279D01*
X012161Y011121D02*
X010201Y011121D01*
X010153Y010962D02*
X012209Y010962D01*
X012324Y010804D02*
X010039Y010804D01*
X009920Y010645D02*
X012443Y010645D01*
X012251Y010487D02*
X010111Y010487D01*
X010183Y010328D02*
X012179Y010328D01*
X012161Y010170D02*
X010201Y010170D01*
X010174Y010011D02*
X012189Y010011D01*
X012275Y009853D02*
X010088Y009853D01*
X009863Y009694D02*
X012271Y009694D01*
X012161Y009535D02*
X010034Y009535D01*
X010143Y009377D02*
X012161Y009377D01*
X012161Y009218D02*
X010181Y009218D01*
X010168Y009060D02*
X012161Y009060D01*
X012161Y008901D02*
X010096Y008901D01*
X009922Y008743D02*
X012197Y008743D01*
X012328Y008201D02*
X012137Y008122D01*
X011991Y007976D01*
X011918Y007801D01*
X011895Y007873D01*
X011859Y007943D01*
X011813Y008007D01*
X011757Y008063D01*
X011693Y008109D01*
X011623Y008145D01*
X011549Y008169D01*
X011471Y008181D01*
X011432Y008181D01*
X011432Y007682D01*
X011431Y007682D01*
X011431Y008181D01*
X011392Y008181D01*
X011314Y008169D01*
X011239Y008145D01*
X011169Y008109D01*
X011106Y008063D01*
X011050Y008007D01*
X011004Y007943D01*
X010968Y007873D01*
X010944Y007799D01*
X010931Y007721D01*
X010931Y007682D01*
X011431Y007682D01*
X011431Y007681D01*
X011432Y007681D01*
X011432Y007181D01*
X011471Y007181D01*
X011549Y007194D01*
X011623Y007218D01*
X011693Y007254D01*
X011757Y007300D01*
X011813Y007356D01*
X011859Y007419D01*
X011895Y007489D01*
X011918Y007562D01*
X011991Y007387D01*
X012137Y007241D01*
X012328Y007161D01*
X012535Y007161D01*
X012726Y007241D01*
X012872Y007387D01*
X012951Y007578D01*
X012951Y007785D01*
X012872Y007976D01*
X012726Y008122D01*
X012535Y008201D01*
X012328Y008201D01*
X012123Y008109D02*
X011694Y008109D01*
X011854Y007950D02*
X011980Y007950D01*
X011432Y007950D02*
X011431Y007950D01*
X011431Y007791D02*
X011432Y007791D01*
X011431Y007681D02*
X010931Y007681D01*
X010931Y007642D01*
X010944Y007564D01*
X010968Y007489D01*
X011004Y007419D01*
X011050Y007356D01*
X011106Y007300D01*
X011169Y007254D01*
X011239Y007218D01*
X011314Y007194D01*
X011392Y007181D01*
X011431Y007181D01*
X011431Y007681D01*
X011431Y007633D02*
X011432Y007633D01*
X011431Y007474D02*
X011432Y007474D01*
X011431Y007316D02*
X011432Y007316D01*
X011773Y007316D02*
X012062Y007316D01*
X011954Y007474D02*
X011887Y007474D01*
X011431Y008109D02*
X011432Y008109D01*
X011169Y008109D02*
X007838Y008109D01*
X007827Y008150D02*
X007850Y008064D01*
X007861Y007976D01*
X007861Y007966D01*
X007217Y007966D01*
X007217Y007896D01*
X007861Y007896D01*
X007861Y007887D01*
X007850Y007798D01*
X007827Y007712D01*
X007793Y007630D01*
X007748Y007553D01*
X007694Y007482D01*
X007631Y007419D01*
X007560Y007365D01*
X007483Y007320D01*
X007400Y007286D01*
X007314Y007263D01*
X007226Y007251D01*
X007216Y007251D01*
X007216Y007896D01*
X007146Y007896D01*
X006501Y007896D01*
X006501Y007887D01*
X006513Y007798D01*
X006536Y007712D01*
X006570Y007630D01*
X006615Y007553D01*
X006669Y007482D01*
X006732Y007419D01*
X006803Y007365D01*
X006880Y007320D01*
X006962Y007286D01*
X007048Y007263D01*
X007137Y007251D01*
X007146Y007251D01*
X007146Y007896D01*
X007146Y007966D01*
X006501Y007966D01*
X006501Y007976D01*
X006513Y008064D01*
X006536Y008150D01*
X006570Y008233D01*
X006615Y008310D01*
X006669Y008381D01*
X006732Y008444D01*
X006803Y008498D01*
X006880Y008543D01*
X006962Y008577D01*
X007048Y008600D01*
X007137Y008611D01*
X007146Y008611D01*
X007146Y007967D01*
X007216Y007967D01*
X007216Y008611D01*
X007226Y008611D01*
X007314Y008600D01*
X007400Y008577D01*
X007483Y008543D01*
X007560Y008498D01*
X007631Y008444D01*
X007694Y008381D01*
X007748Y008310D01*
X007793Y008233D01*
X007827Y008150D01*
X007773Y008267D02*
X018661Y008267D01*
X018661Y008109D02*
X012740Y008109D01*
X012883Y007950D02*
X018661Y007950D01*
X018661Y007791D02*
X012949Y007791D01*
X012951Y007633D02*
X021951Y007633D01*
X021951Y007791D02*
X019701Y007791D01*
X019701Y007779D02*
X019701Y008584D01*
X021951Y008584D01*
X021951Y008426D02*
X019701Y008426D01*
X019701Y008584D02*
X019584Y008701D01*
X018779Y008701D01*
X018661Y008584D01*
X007372Y008584D01*
X007216Y008584D02*
X007146Y008584D01*
X006990Y008584D02*
X001813Y008584D01*
X001793Y008605D02*
X001791Y008606D01*
X001889Y008606D01*
X002006Y008724D01*
X002006Y009639D01*
X001889Y009756D01*
X000974Y009756D01*
X000856Y009639D01*
X000856Y008724D01*
X000974Y008606D01*
X001072Y008606D01*
X001070Y008605D01*
X001008Y008543D01*
X000957Y008472D01*
X000917Y008394D01*
X000890Y008311D01*
X000876Y008225D01*
X000876Y008189D01*
X001424Y008189D01*
X001424Y008174D01*
X000876Y008174D01*
X000876Y008138D01*
X000890Y008051D01*
X000917Y007968D01*
X000957Y007891D01*
X001008Y007820D01*
X001070Y007758D01*
X001141Y007707D01*
X001190Y007681D01*
X001141Y007656D01*
X001070Y007605D01*
X001008Y007543D01*
X000957Y007472D01*
X000917Y007394D01*
X000890Y007311D01*
X000876Y007225D01*
X000876Y007189D01*
X001424Y007189D01*
X001424Y007626D01*
X001424Y008174D01*
X001439Y008174D01*
X001439Y008189D01*
X001986Y008189D01*
X001986Y008225D01*
X001973Y008311D01*
X001946Y008394D01*
X001906Y008472D01*
X001855Y008543D01*
X001793Y008605D01*
X001930Y008426D02*
X006714Y008426D01*
X006590Y008267D02*
X001980Y008267D01*
X001986Y008174D02*
X001439Y008174D01*
X001439Y007736D01*
X001439Y007189D01*
X001986Y007189D01*
X001986Y007225D01*
X001973Y007311D01*
X001946Y007394D01*
X001906Y007472D01*
X001855Y007543D01*
X001793Y007605D01*
X001722Y007656D01*
X001672Y007681D01*
X001722Y007707D01*
X001793Y007758D01*
X001855Y007820D01*
X001906Y007891D01*
X001946Y007968D01*
X001973Y008051D01*
X001986Y008138D01*
X001986Y008174D01*
X001982Y008109D02*
X006525Y008109D01*
X006515Y007791D02*
X001826Y007791D01*
X001754Y007633D02*
X003413Y007633D01*
X003387Y007622D02*
X003241Y007476D01*
X003161Y007285D01*
X003161Y007078D01*
X003241Y006887D01*
X003387Y006741D01*
X003578Y006661D01*
X003785Y006661D01*
X003976Y006741D01*
X004122Y006887D01*
X004201Y007078D01*
X004201Y007285D01*
X004122Y007476D01*
X003976Y007622D01*
X003785Y007701D01*
X003578Y007701D01*
X003387Y007622D01*
X003240Y007474D02*
X001905Y007474D01*
X001971Y007316D02*
X003174Y007316D01*
X003161Y007157D02*
X001986Y007157D01*
X001986Y007174D02*
X001986Y007138D01*
X001973Y007051D01*
X001946Y006968D01*
X001906Y006891D01*
X001855Y006820D01*
X001793Y006758D01*
X001722Y006707D01*
X001697Y006694D01*
X001757Y006669D01*
X001919Y006507D01*
X002006Y006296D01*
X002006Y006067D01*
X001919Y005856D01*
X001757Y005694D01*
X001546Y005606D01*
X001317Y005606D01*
X001106Y005694D01*
X000944Y005856D01*
X000856Y006067D01*
X000856Y006296D01*
X000944Y006507D01*
X001106Y006669D01*
X001166Y006694D01*
X001141Y006707D01*
X001070Y006758D01*
X001008Y006820D01*
X000957Y006891D01*
X000917Y006968D01*
X000890Y007051D01*
X000876Y007138D01*
X000876Y007174D01*
X001424Y007174D01*
X001424Y007189D01*
X001439Y007189D01*
X001439Y007174D01*
X001986Y007174D01*
X001956Y006999D02*
X003194Y006999D01*
X003287Y006840D02*
X001870Y006840D01*
X001726Y006682D02*
X003529Y006682D01*
X003834Y006682D02*
X004885Y006682D01*
X004856Y006694D02*
X005067Y006606D01*
X005296Y006606D01*
X005507Y006694D01*
X005669Y006856D01*
X005756Y007067D01*
X005756Y007296D01*
X005669Y007507D01*
X005507Y007669D01*
X005296Y007756D01*
X005067Y007756D01*
X004856Y007669D01*
X004694Y007507D01*
X004606Y007296D01*
X004606Y007067D01*
X004694Y006856D01*
X004856Y006694D01*
X004709Y006840D02*
X004076Y006840D01*
X004169Y006999D02*
X004635Y006999D01*
X004606Y007157D02*
X004201Y007157D01*
X004189Y007316D02*
X004615Y007316D01*
X004680Y007474D02*
X004123Y007474D01*
X003950Y007633D02*
X004820Y007633D01*
X005543Y007633D02*
X006569Y007633D01*
X006677Y007474D02*
X005682Y007474D01*
X005748Y007316D02*
X006891Y007316D01*
X007146Y007316D02*
X007216Y007316D01*
X007216Y007474D02*
X007146Y007474D01*
X007146Y007633D02*
X007216Y007633D01*
X007216Y007791D02*
X007146Y007791D01*
X007146Y007950D02*
X001936Y007950D01*
X001439Y007950D02*
X001424Y007950D01*
X001424Y007791D02*
X001439Y007791D01*
X001424Y007633D02*
X001439Y007633D01*
X001424Y007474D02*
X001439Y007474D01*
X001424Y007316D02*
X001439Y007316D01*
X001109Y007633D02*
X000411Y007633D01*
X000411Y007791D02*
X001036Y007791D01*
X000926Y007950D02*
X000411Y007950D01*
X000411Y008109D02*
X000881Y008109D01*
X000883Y008267D02*
X000411Y008267D01*
X000411Y008426D02*
X000933Y008426D01*
X001049Y008584D02*
X000411Y008584D01*
X000411Y008743D02*
X000856Y008743D01*
X000856Y008901D02*
X000411Y008901D01*
X000411Y009060D02*
X000856Y009060D01*
X000856Y009218D02*
X000411Y009218D01*
X000411Y009377D02*
X000856Y009377D01*
X000856Y009535D02*
X000411Y009535D01*
X000411Y009694D02*
X000911Y009694D01*
X000411Y009853D02*
X009275Y009853D01*
X009189Y010011D02*
X000411Y010011D01*
X000411Y010170D02*
X009161Y010170D01*
X009179Y010328D02*
X003679Y010328D01*
X003681Y010338D02*
X003681Y010681D01*
X003182Y010681D01*
X003182Y010682D01*
X003681Y010682D01*
X003681Y011025D01*
X003669Y011071D01*
X003645Y011112D01*
X003612Y011145D01*
X003571Y011169D01*
X003525Y011181D01*
X003333Y011181D01*
X003476Y011241D01*
X003622Y011387D01*
X003701Y011578D01*
X003701Y011785D01*
X003622Y011976D01*
X003476Y012122D01*
X003285Y012201D01*
X003078Y012201D01*
X002887Y012122D01*
X002741Y011976D01*
X002661Y011785D01*
X002661Y011578D01*
X002741Y011387D01*
X002887Y011241D01*
X003030Y011181D01*
X002838Y011181D01*
X002792Y011169D01*
X002751Y011145D01*
X002717Y011112D01*
X002694Y011071D01*
X002681Y011025D01*
X002681Y010682D01*
X003181Y010682D01*
X003181Y010681D01*
X003182Y010681D01*
X003182Y010181D01*
X003525Y010181D01*
X003571Y010194D01*
X003612Y010217D01*
X003645Y010251D01*
X003669Y010292D01*
X003681Y010338D01*
X003681Y010487D02*
X009251Y010487D01*
X009443Y010645D02*
X005678Y010645D01*
X005639Y010606D02*
X005756Y010724D01*
X005756Y011639D01*
X005639Y011756D01*
X004724Y011756D01*
X004606Y011639D01*
X004606Y010724D01*
X004724Y010606D01*
X005639Y010606D01*
X005756Y010804D02*
X009324Y010804D01*
X009209Y010962D02*
X005756Y010962D01*
X005756Y011121D02*
X009161Y011121D01*
X009161Y011279D02*
X005756Y011279D01*
X005756Y011438D02*
X009225Y011438D01*
X009361Y011597D02*
X005756Y011597D01*
X005641Y011755D02*
X009372Y011755D01*
X009229Y011914D02*
X003648Y011914D01*
X003701Y011755D02*
X004722Y011755D01*
X004606Y011597D02*
X003701Y011597D01*
X003643Y011438D02*
X004606Y011438D01*
X004606Y011279D02*
X003515Y011279D01*
X003636Y011121D02*
X004606Y011121D01*
X004606Y010962D02*
X003681Y010962D01*
X003681Y010804D02*
X004606Y010804D01*
X004685Y010645D02*
X003681Y010645D01*
X003182Y010645D02*
X003181Y010645D01*
X003181Y010681D02*
X003181Y010181D01*
X002838Y010181D01*
X002792Y010194D01*
X002751Y010217D01*
X002717Y010251D01*
X002694Y010292D01*
X002681Y010338D01*
X002681Y010681D01*
X003181Y010681D01*
X003181Y010487D02*
X003182Y010487D01*
X003181Y010328D02*
X003182Y010328D01*
X002684Y010328D02*
X000411Y010328D01*
X000411Y010487D02*
X002681Y010487D01*
X002681Y010645D02*
X000411Y010645D01*
X000411Y010804D02*
X002681Y010804D01*
X002681Y010962D02*
X000411Y010962D01*
X000411Y011121D02*
X002726Y011121D01*
X002848Y011279D02*
X000411Y011279D01*
X000411Y011438D02*
X002719Y011438D01*
X002661Y011597D02*
X000411Y011597D01*
X000411Y011755D02*
X002661Y011755D01*
X002715Y011914D02*
X000411Y011914D01*
X000411Y012072D02*
X002837Y012072D01*
X003526Y012072D02*
X009164Y012072D01*
X009161Y012231D02*
X000411Y012231D01*
X000411Y012389D02*
X009205Y012389D01*
X009312Y012548D02*
X000411Y012548D01*
X000411Y012706D02*
X001969Y012706D01*
X001887Y012741D02*
X002078Y012661D01*
X002285Y012661D01*
X002476Y012741D01*
X002622Y012887D01*
X002701Y013078D01*
X002701Y013285D01*
X002622Y013476D01*
X002476Y013622D01*
X002285Y013701D01*
X002078Y013701D01*
X001887Y013622D01*
X001741Y013476D01*
X001661Y013285D01*
X001661Y013078D01*
X001741Y012887D01*
X001887Y012741D01*
X001763Y012865D02*
X000411Y012865D01*
X000411Y013023D02*
X001684Y013023D01*
X001661Y013182D02*
X000411Y013182D01*
X000411Y013341D02*
X001684Y013341D01*
X001764Y013499D02*
X000411Y013499D01*
X000411Y013658D02*
X001972Y013658D01*
X002391Y013658D02*
X003762Y013658D01*
X003754Y013669D02*
X003800Y013606D01*
X003856Y013550D01*
X003919Y013504D01*
X003989Y013468D01*
X004064Y013444D01*
X004142Y013431D01*
X004144Y013431D01*
X004109Y013397D01*
X004051Y013257D01*
X004051Y013106D01*
X004109Y012966D01*
X004216Y012859D01*
X004356Y012801D01*
X004507Y012801D01*
X004647Y012859D01*
X004709Y012921D01*
X005654Y012921D01*
X005716Y012859D01*
X005856Y012801D01*
X006007Y012801D01*
X006147Y012859D01*
X006254Y012966D01*
X006311Y013106D01*
X006311Y013257D01*
X006254Y013397D01*
X006147Y013504D01*
X006007Y013561D01*
X005856Y013561D01*
X005716Y013504D01*
X005654Y013441D01*
X005614Y013441D01*
X005701Y013529D01*
X005701Y014334D01*
X005584Y014451D01*
X004779Y014451D01*
X004661Y014334D01*
X004661Y014072D01*
X004645Y014123D01*
X004609Y014193D01*
X004563Y014257D01*
X004507Y014313D01*
X004443Y014359D01*
X004373Y014395D01*
X004299Y014419D01*
X004221Y014431D01*
X004182Y014431D01*
X004182Y013932D01*
X004181Y013932D01*
X004181Y014431D01*
X004142Y014431D01*
X004064Y014419D01*
X003989Y014395D01*
X003919Y014359D01*
X003856Y014313D01*
X003800Y014257D01*
X003754Y014193D01*
X003718Y014123D01*
X003694Y014049D01*
X003681Y013971D01*
X003681Y013932D01*
X004181Y013932D01*
X004181Y013931D01*
X003681Y013931D01*
X003681Y013892D01*
X003694Y013814D01*
X003718Y013739D01*
X003754Y013669D01*
X003693Y013816D02*
X000411Y013816D01*
X000411Y013975D02*
X003682Y013975D01*
X003723Y014133D02*
X000411Y014133D01*
X000411Y014292D02*
X003835Y014292D01*
X004181Y014292D02*
X004182Y014292D01*
X004181Y014133D02*
X004182Y014133D01*
X004181Y013975D02*
X004182Y013975D01*
X004528Y014292D02*
X004661Y014292D01*
X004661Y014133D02*
X004640Y014133D01*
X004777Y014450D02*
X000411Y014450D01*
X000411Y014609D02*
X006576Y014609D01*
X006599Y014631D02*
X006481Y014514D01*
X006481Y013349D01*
X006599Y013231D01*
X007764Y013231D01*
X007881Y013349D01*
X007881Y014514D01*
X007764Y014631D01*
X006599Y014631D01*
X006481Y014450D02*
X005585Y014450D01*
X005701Y014292D02*
X006481Y014292D01*
X006481Y014133D02*
X005701Y014133D01*
X005701Y013975D02*
X006481Y013975D01*
X006481Y013816D02*
X005701Y013816D01*
X005701Y013658D02*
X006481Y013658D01*
X006481Y013499D02*
X006151Y013499D01*
X006277Y013341D02*
X006489Y013341D01*
X006311Y013182D02*
X009161Y013182D01*
X009184Y013023D02*
X006277Y013023D01*
X006152Y012865D02*
X009263Y012865D01*
X009470Y012706D02*
X002393Y012706D01*
X002600Y012865D02*
X004211Y012865D01*
X004086Y013023D02*
X002679Y013023D01*
X002701Y013182D02*
X004051Y013182D01*
X004086Y013341D02*
X002678Y013341D01*
X002599Y013499D02*
X003929Y013499D01*
X004652Y012865D02*
X005711Y012865D01*
X005712Y013499D02*
X005672Y013499D01*
X007787Y014609D02*
X009374Y014609D01*
X009360Y014767D02*
X000411Y014767D01*
X000411Y014926D02*
X009224Y014926D01*
X009161Y015084D02*
X000411Y015084D01*
X000411Y015243D02*
X009161Y015243D01*
X009210Y015402D02*
X000411Y015402D01*
X000411Y015560D02*
X009325Y015560D01*
X010038Y015560D02*
X012325Y015560D01*
X012210Y015402D02*
X010153Y015402D01*
X010201Y015243D02*
X012161Y015243D01*
X012161Y015084D02*
X010201Y015084D01*
X010138Y014926D02*
X012224Y014926D01*
X012360Y014767D02*
X010003Y014767D01*
X009989Y014609D02*
X012374Y014609D01*
X012230Y014450D02*
X010133Y014450D01*
X010199Y014292D02*
X012164Y014292D01*
X012161Y014133D02*
X010201Y014133D01*
X010159Y013975D02*
X012204Y013975D01*
X012311Y013816D02*
X010051Y013816D01*
X009891Y013658D02*
X012472Y013658D01*
X012264Y013499D02*
X010099Y013499D01*
X010178Y013341D02*
X012184Y013341D01*
X012161Y013182D02*
X010201Y013182D01*
X010179Y013023D02*
X012184Y013023D01*
X012263Y012865D02*
X010100Y012865D01*
X009893Y012706D02*
X012469Y012706D01*
X012312Y012548D02*
X010050Y012548D01*
X010158Y012389D02*
X012205Y012389D01*
X012161Y012231D02*
X010201Y012231D01*
X010199Y012072D02*
X012164Y012072D01*
X012229Y011914D02*
X010133Y011914D01*
X009184Y013341D02*
X007873Y013341D01*
X007881Y013499D02*
X009264Y013499D01*
X009472Y013658D02*
X007881Y013658D01*
X007881Y013816D02*
X009311Y013816D01*
X009204Y013975D02*
X007881Y013975D01*
X007881Y014133D02*
X009161Y014133D01*
X009164Y014292D02*
X007881Y014292D01*
X007881Y014450D02*
X009230Y014450D01*
X006952Y016036D02*
X015411Y016036D01*
X015578Y015877D02*
X006785Y015877D01*
X006473Y015719D02*
X015890Y015719D01*
X016101Y015719D02*
X016261Y015719D01*
X016261Y015877D02*
X016101Y015877D01*
X016101Y016036D02*
X016261Y016036D01*
X016261Y016194D02*
X016101Y016194D01*
X016101Y016353D02*
X016261Y016353D01*
X016261Y016511D02*
X016101Y016511D01*
X016101Y016987D02*
X016261Y016987D01*
X016261Y017146D02*
X016101Y017146D01*
X016101Y017304D02*
X016261Y017304D01*
X016261Y017463D02*
X016101Y017463D01*
X016101Y017621D02*
X016261Y017621D01*
X016539Y017621D02*
X017886Y017621D01*
X017735Y017463D02*
X016814Y017463D01*
X016970Y017304D02*
X017669Y017304D01*
X017661Y017146D02*
X017073Y017146D01*
X017139Y016987D02*
X017699Y016987D01*
X017799Y016828D02*
X017176Y016828D01*
X015824Y017621D02*
X013920Y017621D01*
X014095Y017463D02*
X015549Y017463D01*
X015393Y017304D02*
X014167Y017304D01*
X014181Y017146D02*
X015289Y017146D01*
X015224Y016987D02*
X014144Y016987D01*
X014036Y016828D02*
X015187Y016828D01*
X015189Y016511D02*
X007173Y016511D01*
X007149Y016403D02*
X007111Y016296D01*
X007062Y016194D01*
X009093Y016670D02*
X009557Y016670D01*
X009299Y016828D02*
X009201Y016828D01*
X011064Y016828D02*
X011299Y016828D01*
X011199Y016987D02*
X011164Y016987D01*
X011128Y017463D02*
X011235Y017463D01*
X011386Y017621D02*
X010977Y017621D01*
X011977Y017621D02*
X012386Y017621D01*
X012235Y017463D02*
X012128Y017463D01*
X012164Y016987D02*
X012199Y016987D01*
X012299Y016828D02*
X012064Y016828D01*
X013064Y016828D02*
X013327Y016828D01*
X013219Y016987D02*
X013164Y016987D01*
X013193Y017304D02*
X013196Y017304D01*
X013128Y017463D02*
X013268Y017463D01*
X013443Y017621D02*
X012977Y017621D01*
X013679Y017621D02*
X013684Y017621D01*
X013679Y017463D02*
X013684Y017463D01*
X013679Y017304D02*
X013684Y017304D01*
X013679Y017146D02*
X013684Y017146D01*
X013679Y016987D02*
X013684Y016987D01*
X013679Y016828D02*
X013684Y016828D01*
X014637Y014622D02*
X014828Y014701D01*
X015035Y014701D01*
X015226Y014622D01*
X015372Y014476D01*
X015451Y014285D01*
X015451Y014078D01*
X015372Y013887D01*
X015226Y013741D01*
X015035Y013661D01*
X014828Y013661D01*
X014637Y013741D01*
X014491Y013887D01*
X014411Y014078D01*
X014411Y014285D01*
X014491Y014476D01*
X014637Y014622D01*
X014624Y014609D02*
X012989Y014609D01*
X013133Y014450D02*
X014480Y014450D01*
X014414Y014292D02*
X013199Y014292D01*
X013201Y014133D02*
X014411Y014133D01*
X014454Y013975D02*
X013159Y013975D01*
X013051Y013816D02*
X014561Y013816D01*
X015301Y013816D02*
X015983Y013816D01*
X015895Y013975D02*
X015409Y013975D01*
X015451Y014133D02*
X015856Y014133D01*
X015856Y014292D02*
X015449Y014292D01*
X015383Y014450D02*
X015920Y014450D01*
X016046Y014609D02*
X015239Y014609D01*
X016193Y013658D02*
X012890Y013658D01*
X013099Y013499D02*
X017764Y013499D01*
X017684Y013341D02*
X013178Y013341D01*
X013201Y013182D02*
X017661Y013182D01*
X017684Y013023D02*
X013179Y013023D01*
X013100Y012865D02*
X017763Y012865D01*
X017972Y013658D02*
X016669Y013658D01*
X015226Y010622D02*
X015035Y010701D01*
X014828Y010701D01*
X014637Y010622D01*
X014491Y010476D01*
X014411Y010285D01*
X014411Y010078D01*
X014491Y009887D01*
X014637Y009741D01*
X014828Y009661D01*
X015035Y009661D01*
X015226Y009741D01*
X015372Y009887D01*
X015451Y010078D01*
X015451Y010285D01*
X015372Y010476D01*
X015226Y010622D01*
X015170Y010645D02*
X015862Y010645D01*
X015856Y010487D02*
X015361Y010487D01*
X015433Y010328D02*
X015856Y010328D01*
X015856Y010170D02*
X015451Y010170D01*
X015424Y010011D02*
X015856Y010011D01*
X015856Y009853D02*
X015338Y009853D01*
X015114Y009694D02*
X015886Y009694D01*
X016977Y009694D02*
X021951Y009694D01*
X021951Y009535D02*
X013201Y009535D01*
X013201Y009377D02*
X021951Y009377D01*
X021951Y009218D02*
X013201Y009218D01*
X013201Y009060D02*
X021951Y009060D01*
X021951Y008901D02*
X013201Y008901D01*
X013166Y008743D02*
X021951Y008743D01*
X021951Y008267D02*
X019701Y008267D01*
X019701Y008109D02*
X021951Y008109D01*
X021951Y007950D02*
X019701Y007950D01*
X019701Y007779D02*
X019584Y007661D01*
X018779Y007661D01*
X018661Y007779D01*
X018661Y008584D01*
X018661Y008426D02*
X007649Y008426D01*
X007216Y008426D02*
X007146Y008426D01*
X007146Y008267D02*
X007216Y008267D01*
X007216Y008109D02*
X007146Y008109D01*
X007217Y007950D02*
X011009Y007950D01*
X010943Y007791D02*
X009485Y007791D01*
X009483Y007793D02*
X009400Y007827D01*
X009314Y007850D01*
X009226Y007861D01*
X009216Y007861D01*
X009216Y007217D01*
X009146Y007217D01*
X009146Y007861D01*
X009137Y007861D01*
X009048Y007850D01*
X008962Y007827D01*
X008880Y007793D01*
X008803Y007748D01*
X008732Y007694D01*
X008669Y007631D01*
X008615Y007560D01*
X008570Y007483D01*
X008536Y007400D01*
X008513Y007314D01*
X008501Y007226D01*
X008501Y007216D01*
X009146Y007216D01*
X009146Y007146D01*
X008501Y007146D01*
X008501Y007137D01*
X008513Y007048D01*
X008536Y006962D01*
X008570Y006880D01*
X008615Y006803D01*
X008669Y006732D01*
X008732Y006669D01*
X008803Y006615D01*
X008880Y006570D01*
X008962Y006536D01*
X009048Y006513D01*
X009137Y006501D01*
X009146Y006501D01*
X009146Y007146D01*
X009216Y007146D01*
X009216Y006501D01*
X009226Y006501D01*
X009314Y006513D01*
X009400Y006536D01*
X009483Y006570D01*
X009560Y006615D01*
X009631Y006669D01*
X009694Y006732D01*
X009748Y006803D01*
X009793Y006880D01*
X009827Y006962D01*
X009850Y007048D01*
X009861Y007137D01*
X009861Y007146D01*
X009217Y007146D01*
X009217Y007216D01*
X009861Y007216D01*
X009861Y007226D01*
X009850Y007314D01*
X009827Y007400D01*
X009793Y007483D01*
X009748Y007560D01*
X009694Y007631D01*
X009631Y007694D01*
X009560Y007748D01*
X009483Y007793D01*
X009691Y007633D02*
X010933Y007633D01*
X010976Y007474D02*
X009796Y007474D01*
X009849Y007316D02*
X011090Y007316D01*
X011035Y006701D02*
X010828Y006701D01*
X010637Y006622D01*
X010491Y006476D01*
X010411Y006285D01*
X010411Y006078D01*
X010491Y005887D01*
X010637Y005741D01*
X010828Y005661D01*
X011035Y005661D01*
X011226Y005741D01*
X011372Y005887D01*
X011451Y006078D01*
X011451Y006285D01*
X011372Y006476D01*
X011226Y006622D01*
X011035Y006701D01*
X011082Y006682D02*
X014780Y006682D01*
X014828Y006701D02*
X014637Y006622D01*
X014491Y006476D01*
X014411Y006285D01*
X014411Y006078D01*
X014491Y005887D01*
X014637Y005741D01*
X014828Y005661D01*
X015035Y005661D01*
X015226Y005741D01*
X015372Y005887D01*
X015451Y006078D01*
X015451Y006285D01*
X015372Y006476D01*
X015226Y006622D01*
X015035Y006701D01*
X014828Y006701D01*
X015082Y006682D02*
X021951Y006682D01*
X021951Y006840D02*
X009770Y006840D01*
X009836Y006999D02*
X021951Y006999D01*
X021951Y007157D02*
X009217Y007157D01*
X009146Y007157D02*
X005756Y007157D01*
X005728Y006999D02*
X008526Y006999D01*
X008593Y006840D02*
X005653Y006840D01*
X005478Y006682D02*
X008719Y006682D01*
X009011Y006523D02*
X001903Y006523D01*
X001978Y006365D02*
X010444Y006365D01*
X010411Y006206D02*
X002006Y006206D01*
X001998Y006048D02*
X010424Y006048D01*
X010490Y005889D02*
X001933Y005889D01*
X001794Y005730D02*
X010661Y005730D01*
X011201Y005730D02*
X014661Y005730D01*
X014490Y005889D02*
X011373Y005889D01*
X011439Y006048D02*
X014424Y006048D01*
X014411Y006206D02*
X011451Y006206D01*
X011418Y006365D02*
X014444Y006365D01*
X014538Y006523D02*
X011325Y006523D01*
X010780Y006682D02*
X009643Y006682D01*
X009352Y006523D02*
X010538Y006523D01*
X009216Y006523D02*
X009146Y006523D01*
X009146Y006682D02*
X009216Y006682D01*
X009216Y006840D02*
X009146Y006840D01*
X009146Y006999D02*
X009216Y006999D01*
X009216Y007316D02*
X009146Y007316D01*
X009146Y007474D02*
X009216Y007474D01*
X009216Y007633D02*
X009146Y007633D01*
X009146Y007791D02*
X009216Y007791D01*
X008878Y007791D02*
X007848Y007791D01*
X007794Y007633D02*
X008671Y007633D01*
X008567Y007474D02*
X007686Y007474D01*
X007472Y007316D02*
X008514Y007316D01*
X009441Y008743D02*
X003978Y008743D01*
X003976Y008741D02*
X004122Y008887D01*
X004201Y009078D01*
X004201Y009285D01*
X004122Y009476D01*
X003976Y009622D01*
X003785Y009701D01*
X003578Y009701D01*
X003387Y009622D01*
X003241Y009476D01*
X003161Y009285D01*
X003161Y009078D01*
X003241Y008887D01*
X003387Y008741D01*
X003578Y008661D01*
X003785Y008661D01*
X003976Y008741D01*
X004128Y008901D02*
X009267Y008901D01*
X009195Y009060D02*
X004194Y009060D01*
X004201Y009218D02*
X009181Y009218D01*
X009220Y009377D02*
X004163Y009377D01*
X004063Y009535D02*
X009328Y009535D01*
X009499Y009694D02*
X003803Y009694D01*
X003560Y009694D02*
X001952Y009694D01*
X002006Y009535D02*
X003300Y009535D01*
X003200Y009377D02*
X002006Y009377D01*
X002006Y009218D02*
X003161Y009218D01*
X003169Y009060D02*
X002006Y009060D01*
X002006Y008901D02*
X003235Y008901D01*
X003385Y008743D02*
X002006Y008743D01*
X001439Y008109D02*
X001424Y008109D01*
X000958Y007474D02*
X000411Y007474D01*
X000411Y007316D02*
X000892Y007316D01*
X000876Y007157D02*
X000411Y007157D01*
X000411Y006999D02*
X000907Y006999D01*
X000993Y006840D02*
X000411Y006840D01*
X000411Y006682D02*
X001137Y006682D01*
X000960Y006523D02*
X000411Y006523D01*
X000411Y006365D02*
X000885Y006365D01*
X000856Y006206D02*
X000411Y006206D01*
X000411Y006048D02*
X000864Y006048D01*
X000930Y005889D02*
X000411Y005889D01*
X000411Y005730D02*
X001069Y005730D01*
X001236Y005413D02*
X000411Y005413D01*
X000411Y005255D02*
X001019Y005255D01*
X000991Y005226D02*
X000911Y005035D01*
X000911Y004828D01*
X000991Y004637D01*
X001137Y004491D01*
X001328Y004411D01*
X001535Y004411D01*
X001726Y004491D01*
X001872Y004637D01*
X001951Y004828D01*
X001951Y005035D01*
X001872Y005226D01*
X001726Y005372D01*
X001535Y005451D01*
X001328Y005451D01*
X001137Y005372D01*
X000991Y005226D01*
X000937Y005096D02*
X000411Y005096D01*
X000411Y004938D02*
X000911Y004938D01*
X000932Y004779D02*
X000411Y004779D01*
X000411Y004621D02*
X001007Y004621D01*
X001206Y004462D02*
X000411Y004462D01*
X000411Y004304D02*
X010421Y004304D01*
X010411Y004328D02*
X010491Y004137D01*
X010637Y003991D01*
X010828Y003911D01*
X011035Y003911D01*
X011226Y003991D01*
X011372Y004137D01*
X011451Y004328D01*
X011451Y004535D01*
X011372Y004726D01*
X011226Y004872D01*
X011035Y004951D01*
X010828Y004951D01*
X010637Y004872D01*
X010491Y004726D01*
X010411Y004535D01*
X010411Y004328D01*
X010411Y004462D02*
X004657Y004462D01*
X004726Y004491D02*
X004535Y004411D01*
X004328Y004411D01*
X004137Y004491D01*
X003991Y004637D01*
X003911Y004828D01*
X003911Y005035D01*
X003991Y005226D01*
X004137Y005372D01*
X004328Y005451D01*
X004535Y005451D01*
X004726Y005372D01*
X004872Y005226D01*
X004951Y005035D01*
X004951Y004828D01*
X004872Y004637D01*
X004726Y004491D01*
X004856Y004621D02*
X010447Y004621D01*
X010544Y004779D02*
X004931Y004779D01*
X004951Y004938D02*
X010795Y004938D01*
X011068Y004938D02*
X014795Y004938D01*
X014828Y004951D02*
X014637Y004872D01*
X014491Y004726D01*
X014411Y004535D01*
X014411Y004328D01*
X014491Y004137D01*
X014637Y003991D01*
X014828Y003911D01*
X015035Y003911D01*
X015226Y003991D01*
X015372Y004137D01*
X015451Y004328D01*
X015451Y004535D01*
X015372Y004726D01*
X015226Y004872D01*
X015035Y004951D01*
X014828Y004951D01*
X015068Y004938D02*
X018744Y004938D01*
X018754Y004919D02*
X018800Y004856D01*
X018856Y004800D01*
X018919Y004754D01*
X018989Y004718D01*
X019064Y004694D01*
X019142Y004681D01*
X019181Y004681D01*
X019181Y005181D01*
X018681Y005181D01*
X018681Y005142D01*
X018694Y005064D01*
X018718Y004989D01*
X018754Y004919D01*
X018689Y005096D02*
X004926Y005096D01*
X004843Y005255D02*
X018687Y005255D01*
X018681Y005221D02*
X018681Y005182D01*
X019181Y005182D01*
X019181Y005681D01*
X019142Y005681D01*
X019064Y005669D01*
X018989Y005645D01*
X018919Y005609D01*
X018856Y005563D01*
X018800Y005507D01*
X018754Y005443D01*
X018718Y005373D01*
X018694Y005299D01*
X018681Y005221D01*
X018738Y005413D02*
X004627Y005413D01*
X004236Y005413D02*
X003127Y005413D01*
X003035Y005451D02*
X002828Y005451D01*
X002637Y005372D01*
X002491Y005226D01*
X002411Y005035D01*
X002411Y004828D01*
X002491Y004637D01*
X002637Y004491D01*
X002828Y004411D01*
X003035Y004411D01*
X003226Y004491D01*
X003372Y004637D01*
X003451Y004828D01*
X003451Y005035D01*
X003372Y005226D01*
X003226Y005372D01*
X003035Y005451D01*
X002736Y005413D02*
X001627Y005413D01*
X001843Y005255D02*
X002519Y005255D01*
X002437Y005096D02*
X001926Y005096D01*
X001951Y004938D02*
X002411Y004938D01*
X002432Y004779D02*
X001931Y004779D01*
X001856Y004621D02*
X002507Y004621D01*
X002706Y004462D02*
X001657Y004462D01*
X000411Y004145D02*
X005990Y004145D01*
X005989Y004145D02*
X005919Y004109D01*
X005856Y004063D01*
X005800Y004007D01*
X005754Y003943D01*
X005718Y003873D01*
X005694Y003799D01*
X005681Y003721D01*
X005681Y003682D01*
X006181Y003682D01*
X006181Y004181D01*
X006142Y004181D01*
X006064Y004169D01*
X005989Y004145D01*
X006181Y004145D02*
X006182Y004145D01*
X006182Y004181D02*
X006221Y004181D01*
X006299Y004169D01*
X006373Y004145D01*
X006942Y004145D01*
X006887Y004122D02*
X007078Y004201D01*
X007285Y004201D01*
X007476Y004122D01*
X007622Y003976D01*
X007701Y003785D01*
X007701Y003578D01*
X007622Y003387D01*
X007476Y003241D01*
X007285Y003161D01*
X007078Y003161D01*
X006887Y003241D01*
X006741Y003387D01*
X006668Y003562D01*
X006645Y003489D01*
X006609Y003419D01*
X006563Y003356D01*
X006507Y003300D01*
X006443Y003254D01*
X006373Y003218D01*
X006299Y003194D01*
X007000Y003194D01*
X006775Y003352D02*
X006559Y003352D01*
X006652Y003511D02*
X006689Y003511D01*
X006668Y003801D02*
X006645Y003873D01*
X006609Y003943D01*
X006563Y004007D01*
X006507Y004063D01*
X006443Y004109D01*
X006373Y004145D01*
X006182Y004181D02*
X006182Y003682D01*
X006181Y003682D01*
X006181Y003681D01*
X006182Y003681D01*
X006182Y003181D01*
X006221Y003181D01*
X006299Y003194D01*
X006182Y003194D02*
X006181Y003194D01*
X006181Y003181D02*
X006181Y003681D01*
X005681Y003681D01*
X005681Y003642D01*
X005694Y003564D01*
X005718Y003489D01*
X005754Y003419D01*
X005800Y003356D01*
X005856Y003300D01*
X005919Y003254D01*
X005989Y003218D01*
X006064Y003194D01*
X000411Y003194D01*
X000411Y003352D02*
X005803Y003352D01*
X005711Y003511D02*
X000411Y003511D01*
X000411Y003669D02*
X005681Y003669D01*
X005703Y003828D02*
X000411Y003828D01*
X000411Y003986D02*
X005785Y003986D01*
X006181Y003986D02*
X006182Y003986D01*
X006181Y003828D02*
X006182Y003828D01*
X006181Y003669D02*
X006182Y003669D01*
X006181Y003511D02*
X006182Y003511D01*
X006181Y003352D02*
X006182Y003352D01*
X006181Y003181D02*
X006142Y003181D01*
X006064Y003194D01*
X006101Y002684D02*
X006013Y002674D01*
X005903Y002649D01*
X005796Y002611D01*
X005694Y002562D01*
X005599Y002502D01*
X005511Y002432D01*
X005431Y002352D01*
X005360Y002264D01*
X005300Y002168D01*
X005251Y002067D01*
X005214Y001960D01*
X005189Y001850D01*
X005179Y001761D01*
X006101Y001761D01*
X006101Y001601D01*
X006261Y001601D01*
X006261Y000679D01*
X006350Y000689D01*
X006460Y000714D01*
X006567Y000751D01*
X006668Y000800D01*
X006764Y000860D01*
X006852Y000931D01*
X006932Y001011D01*
X007002Y001099D01*
X007062Y001194D01*
X007111Y001296D01*
X007149Y001403D01*
X007174Y001513D01*
X007184Y001601D01*
X006262Y001601D01*
X006262Y001761D01*
X007184Y001761D01*
X007174Y001850D01*
X007149Y001960D01*
X007111Y002067D01*
X007062Y002168D01*
X007002Y002264D01*
X006932Y002352D01*
X006852Y002432D01*
X006764Y002502D01*
X006668Y002562D01*
X006567Y002611D01*
X006460Y002649D01*
X006350Y002674D01*
X006261Y002684D01*
X006261Y001762D01*
X006101Y001762D01*
X006101Y002684D01*
X006101Y002560D02*
X006261Y002560D01*
X006261Y002401D02*
X006101Y002401D01*
X006101Y002242D02*
X006261Y002242D01*
X006261Y002084D02*
X006101Y002084D01*
X006101Y001925D02*
X006261Y001925D01*
X006261Y001767D02*
X006101Y001767D01*
X006101Y001608D02*
X000411Y001608D01*
X000411Y001450D02*
X001324Y001450D01*
X001328Y001451D02*
X001137Y001372D01*
X000991Y001226D01*
X000911Y001035D01*
X000911Y000828D01*
X000991Y000637D01*
X001137Y000491D01*
X001328Y000411D01*
X001535Y000411D01*
X001726Y000491D01*
X001872Y000637D01*
X001951Y000828D01*
X001951Y001035D01*
X001872Y001226D01*
X001726Y001372D01*
X001535Y001451D01*
X001328Y001451D01*
X001539Y001450D02*
X002824Y001450D01*
X002828Y001451D02*
X002637Y001372D01*
X002491Y001226D01*
X002411Y001035D01*
X002411Y000828D01*
X002491Y000637D01*
X002637Y000491D01*
X002828Y000411D01*
X003035Y000411D01*
X003226Y000491D01*
X003372Y000637D01*
X003451Y000828D01*
X003451Y001035D01*
X003372Y001226D01*
X003226Y001372D01*
X003035Y001451D01*
X002828Y001451D01*
X003039Y001450D02*
X004324Y001450D01*
X004328Y001451D02*
X004137Y001372D01*
X003991Y001226D01*
X003911Y001035D01*
X003911Y000828D01*
X003991Y000637D01*
X004137Y000491D01*
X004328Y000411D01*
X004535Y000411D01*
X004726Y000491D01*
X004872Y000637D01*
X004951Y000828D01*
X004951Y001035D01*
X004872Y001226D01*
X004726Y001372D01*
X004535Y001451D01*
X004328Y001451D01*
X004539Y001450D02*
X005203Y001450D01*
X005214Y001403D02*
X005251Y001296D01*
X005300Y001194D01*
X005360Y001099D01*
X005431Y001011D01*
X005511Y000931D01*
X005599Y000860D01*
X005694Y000800D01*
X005796Y000751D01*
X005903Y000714D01*
X006013Y000689D01*
X006101Y000679D01*
X006101Y001601D01*
X005179Y001601D01*
X005189Y001513D01*
X005214Y001403D01*
X005254Y001291D02*
X004807Y001291D01*
X004911Y001133D02*
X005339Y001133D01*
X005467Y000974D02*
X004951Y000974D01*
X004946Y000816D02*
X005670Y000816D01*
X006101Y000816D02*
X006261Y000816D01*
X006261Y000974D02*
X006101Y000974D01*
X006101Y001133D02*
X006261Y001133D01*
X006261Y001291D02*
X006101Y001291D01*
X006101Y001450D02*
X006261Y001450D01*
X006262Y001608D02*
X008481Y001608D01*
X008481Y001764D02*
X008481Y000599D01*
X008599Y000481D01*
X009764Y000481D01*
X009881Y000599D01*
X009881Y001764D01*
X009764Y001881D01*
X008599Y001881D01*
X008481Y001764D01*
X008484Y001767D02*
X007183Y001767D01*
X007157Y001925D02*
X015206Y001925D01*
X015214Y001960D02*
X015189Y001850D01*
X015179Y001761D01*
X016101Y001761D01*
X016101Y001601D01*
X016261Y001601D01*
X016261Y000679D01*
X016350Y000689D01*
X016460Y000714D01*
X016567Y000751D01*
X016668Y000800D01*
X016764Y000860D01*
X016852Y000931D01*
X016932Y001011D01*
X017002Y001099D01*
X017062Y001194D01*
X017111Y001296D01*
X017149Y001403D01*
X017174Y001513D01*
X017184Y001601D01*
X016262Y001601D01*
X016262Y001761D01*
X017184Y001761D01*
X017174Y001850D01*
X017149Y001960D01*
X017111Y002067D01*
X017062Y002168D01*
X017002Y002264D01*
X016932Y002352D01*
X016852Y002432D01*
X016764Y002502D01*
X016668Y002562D01*
X016567Y002611D01*
X016460Y002649D01*
X016350Y002674D01*
X016261Y002684D01*
X016261Y001762D01*
X016101Y001762D01*
X016101Y002684D01*
X016013Y002674D01*
X015903Y002649D01*
X015796Y002611D01*
X015694Y002562D01*
X015599Y002502D01*
X015511Y002432D01*
X015431Y002352D01*
X015360Y002264D01*
X015300Y002168D01*
X015251Y002067D01*
X015214Y001960D01*
X015260Y002084D02*
X007103Y002084D01*
X007016Y002242D02*
X015347Y002242D01*
X015480Y002401D02*
X006883Y002401D01*
X006673Y002560D02*
X010474Y002560D01*
X010518Y002541D02*
X010327Y002621D01*
X010181Y002767D01*
X010101Y002958D01*
X010101Y003165D01*
X010181Y003356D01*
X010327Y003502D01*
X010518Y003581D01*
X010725Y003581D01*
X010916Y003502D01*
X011062Y003356D01*
X011141Y003165D01*
X011141Y002958D01*
X011062Y002767D01*
X010916Y002621D01*
X010725Y002541D01*
X010518Y002541D01*
X010769Y002560D02*
X012760Y002560D01*
X012779Y002541D02*
X013584Y002541D01*
X013701Y002659D01*
X013701Y003464D01*
X013584Y003581D01*
X012779Y003581D01*
X012661Y003464D01*
X012661Y002659D01*
X012779Y002541D01*
X012661Y002718D02*
X011013Y002718D01*
X011108Y002877D02*
X012661Y002877D01*
X012661Y003035D02*
X011141Y003035D01*
X011129Y003194D02*
X012661Y003194D01*
X012661Y003352D02*
X011064Y003352D01*
X010895Y003511D02*
X012708Y003511D01*
X013655Y003511D02*
X021951Y003511D01*
X021951Y003669D02*
X007701Y003669D01*
X007684Y003828D02*
X021951Y003828D01*
X021951Y003986D02*
X015216Y003986D01*
X015376Y004145D02*
X021951Y004145D01*
X021951Y004304D02*
X015441Y004304D01*
X015451Y004462D02*
X021951Y004462D01*
X021951Y004621D02*
X015416Y004621D01*
X015319Y004779D02*
X018884Y004779D01*
X019181Y004779D02*
X019182Y004779D01*
X019182Y004681D02*
X019221Y004681D01*
X019299Y004694D01*
X019373Y004718D01*
X019443Y004754D01*
X019507Y004800D01*
X019563Y004856D01*
X019609Y004919D01*
X019645Y004989D01*
X019669Y005064D01*
X019681Y005142D01*
X019681Y005181D01*
X019182Y005181D01*
X019182Y005182D01*
X019181Y005182D01*
X019181Y005181D01*
X019182Y005181D01*
X019182Y004681D01*
X019181Y004938D02*
X019182Y004938D01*
X019181Y005096D02*
X019182Y005096D01*
X019182Y005182D02*
X019681Y005182D01*
X019681Y005221D01*
X019669Y005299D01*
X019645Y005373D01*
X019609Y005443D01*
X019563Y005507D01*
X019507Y005563D01*
X019443Y005609D01*
X019373Y005645D01*
X019299Y005669D01*
X019221Y005681D01*
X019182Y005681D01*
X019182Y005182D01*
X019181Y005255D02*
X019182Y005255D01*
X019181Y005413D02*
X019182Y005413D01*
X019181Y005572D02*
X019182Y005572D01*
X018868Y005572D02*
X000411Y005572D01*
X003343Y005255D02*
X004019Y005255D01*
X003937Y005096D02*
X003426Y005096D01*
X003451Y004938D02*
X003911Y004938D01*
X003932Y004779D02*
X003431Y004779D01*
X003356Y004621D02*
X004007Y004621D01*
X004206Y004462D02*
X003157Y004462D01*
X005480Y002401D02*
X000411Y002401D01*
X000411Y002242D02*
X005347Y002242D01*
X005260Y002084D02*
X000411Y002084D01*
X000411Y001925D02*
X005206Y001925D01*
X005180Y001767D02*
X000411Y001767D01*
X000411Y001291D02*
X001056Y001291D01*
X000952Y001133D02*
X000411Y001133D01*
X000411Y000974D02*
X000911Y000974D01*
X000917Y000816D02*
X000411Y000816D01*
X000411Y000657D02*
X000982Y000657D01*
X001129Y000499D02*
X000411Y000499D01*
X001734Y000499D02*
X002629Y000499D01*
X002482Y000657D02*
X001881Y000657D01*
X001946Y000816D02*
X002417Y000816D01*
X002411Y000974D02*
X001951Y000974D01*
X001911Y001133D02*
X002452Y001133D01*
X002556Y001291D02*
X001807Y001291D01*
X003307Y001291D02*
X004056Y001291D01*
X003952Y001133D02*
X003411Y001133D01*
X003451Y000974D02*
X003911Y000974D01*
X003917Y000816D02*
X003446Y000816D01*
X003381Y000657D02*
X003982Y000657D01*
X004129Y000499D02*
X003234Y000499D01*
X004734Y000499D02*
X008581Y000499D01*
X008481Y000657D02*
X004881Y000657D01*
X006692Y000816D02*
X008481Y000816D01*
X008481Y000974D02*
X006895Y000974D01*
X007024Y001133D02*
X008481Y001133D01*
X008481Y001291D02*
X007109Y001291D01*
X007159Y001450D02*
X008481Y001450D01*
X009781Y000499D02*
X021951Y000499D01*
X021951Y000657D02*
X009881Y000657D01*
X009881Y000816D02*
X010468Y000816D01*
X010504Y000804D02*
X010582Y000791D01*
X010621Y000791D01*
X010621Y001291D01*
X010622Y001291D01*
X013181Y001291D01*
X013182Y001291D01*
X015254Y001291D01*
X015251Y001296D02*
X015300Y001194D01*
X015360Y001099D01*
X015431Y001011D01*
X015511Y000931D01*
X015599Y000860D01*
X015694Y000800D01*
X015796Y000751D01*
X015903Y000714D01*
X016013Y000689D01*
X016101Y000679D01*
X016101Y001601D01*
X015179Y001601D01*
X015189Y001513D01*
X015214Y001403D01*
X015251Y001296D01*
X015203Y001450D02*
X013656Y001450D01*
X013645Y001483D02*
X013669Y001409D01*
X013681Y001331D01*
X013681Y001292D01*
X013182Y001292D01*
X013182Y001291D01*
X013681Y001291D01*
X013681Y001252D01*
X013669Y001174D01*
X013645Y001099D01*
X013609Y001029D01*
X013563Y000966D01*
X013507Y000910D01*
X013443Y000864D01*
X013373Y000828D01*
X013299Y000804D01*
X013221Y000791D01*
X013182Y000791D01*
X013182Y001291D01*
X013181Y001291D02*
X013181Y000791D01*
X013142Y000791D01*
X013064Y000804D01*
X012989Y000828D01*
X012919Y000864D01*
X012856Y000910D01*
X012800Y000966D01*
X012754Y001029D01*
X012718Y001099D01*
X012694Y001174D01*
X012681Y001252D01*
X012681Y001291D01*
X013181Y001291D01*
X013181Y001292D01*
X013181Y001791D01*
X013142Y001791D01*
X013064Y001779D01*
X012989Y001755D01*
X012919Y001719D01*
X012856Y001673D01*
X012800Y001617D01*
X012754Y001553D01*
X012718Y001483D01*
X012694Y001409D01*
X012681Y001331D01*
X012681Y001292D01*
X013181Y001292D01*
X013182Y001292D01*
X013182Y001791D01*
X013221Y001791D01*
X013299Y001779D01*
X013373Y001755D01*
X013443Y001719D01*
X013507Y001673D01*
X013563Y001617D01*
X013609Y001553D01*
X013645Y001483D01*
X013569Y001608D02*
X016101Y001608D01*
X016101Y001450D02*
X016261Y001450D01*
X016262Y001608D02*
X018681Y001608D01*
X018681Y001681D02*
X018681Y001338D01*
X018694Y001292D01*
X018717Y001251D01*
X018751Y001217D01*
X018792Y001194D01*
X018838Y001181D01*
X019181Y001181D01*
X019181Y001681D01*
X019182Y001681D01*
X019182Y001682D01*
X019681Y001682D01*
X019681Y002025D01*
X019669Y002071D01*
X019645Y002112D01*
X019612Y002145D01*
X019571Y002169D01*
X019525Y002181D01*
X019333Y002181D01*
X019476Y002241D01*
X019622Y002387D01*
X019701Y002578D01*
X019701Y002785D01*
X019622Y002976D01*
X019476Y003122D01*
X019285Y003201D01*
X019078Y003201D01*
X018887Y003122D01*
X018741Y002976D01*
X018661Y002785D01*
X018661Y002578D01*
X018741Y002387D01*
X018887Y002241D01*
X019030Y002181D01*
X018838Y002181D01*
X018792Y002169D01*
X018751Y002145D01*
X018717Y002112D01*
X018694Y002071D01*
X018681Y002025D01*
X018681Y001682D01*
X019181Y001682D01*
X019181Y001681D01*
X018681Y001681D01*
X018681Y001767D02*
X017183Y001767D01*
X017157Y001925D02*
X018681Y001925D01*
X018701Y002084D02*
X017103Y002084D01*
X017016Y002242D02*
X018885Y002242D01*
X018735Y002401D02*
X016883Y002401D01*
X016673Y002560D02*
X018669Y002560D01*
X018661Y002718D02*
X013701Y002718D01*
X013701Y002877D02*
X018699Y002877D01*
X018800Y003035D02*
X013701Y003035D01*
X013701Y003194D02*
X019060Y003194D01*
X019303Y003194D02*
X021951Y003194D01*
X021951Y003352D02*
X013701Y003352D01*
X014487Y004145D02*
X011376Y004145D01*
X011441Y004304D02*
X014421Y004304D01*
X014411Y004462D02*
X011451Y004462D01*
X011416Y004621D02*
X014447Y004621D01*
X014544Y004779D02*
X011319Y004779D01*
X010487Y004145D02*
X007421Y004145D01*
X007612Y003986D02*
X010647Y003986D01*
X010348Y003511D02*
X007674Y003511D01*
X007588Y003352D02*
X010179Y003352D01*
X010113Y003194D02*
X007363Y003194D01*
X006668Y003801D02*
X006741Y003976D01*
X006887Y004122D01*
X006751Y003986D02*
X006578Y003986D01*
X006660Y003828D02*
X006679Y003828D01*
X005690Y002560D02*
X000411Y002560D01*
X000411Y002718D02*
X010229Y002718D01*
X010135Y002877D02*
X000411Y002877D01*
X000411Y003035D02*
X010101Y003035D01*
X011216Y003986D02*
X014647Y003986D01*
X015690Y002560D02*
X013602Y002560D01*
X013336Y001767D02*
X015180Y001767D01*
X015339Y001133D02*
X013656Y001133D01*
X013569Y000974D02*
X015467Y000974D01*
X015670Y000816D02*
X013335Y000816D01*
X013182Y000816D02*
X013181Y000816D01*
X013028Y000816D02*
X010775Y000816D01*
X010739Y000804D02*
X010813Y000828D01*
X010883Y000864D01*
X010947Y000910D01*
X011003Y000966D01*
X011049Y001029D01*
X011085Y001099D01*
X011109Y001174D01*
X011121Y001252D01*
X011121Y001291D01*
X010622Y001291D01*
X010622Y001292D01*
X011121Y001292D01*
X011121Y001331D01*
X011109Y001409D01*
X011085Y001483D01*
X011049Y001553D01*
X011003Y001617D01*
X010947Y001673D01*
X010883Y001719D01*
X010813Y001755D01*
X010739Y001779D01*
X010661Y001791D01*
X010622Y001791D01*
X010622Y001292D01*
X010621Y001292D01*
X010621Y001791D01*
X010582Y001791D01*
X010504Y001779D01*
X010429Y001755D01*
X010359Y001719D01*
X010296Y001673D01*
X010240Y001617D01*
X010194Y001553D01*
X010158Y001483D01*
X010134Y001409D01*
X010121Y001331D01*
X010121Y001292D01*
X010621Y001292D01*
X010621Y001291D01*
X010121Y001291D01*
X010121Y001252D01*
X010134Y001174D01*
X010158Y001099D01*
X010194Y001029D01*
X010240Y000966D01*
X010296Y000910D01*
X010359Y000864D01*
X010429Y000828D01*
X010504Y000804D01*
X010621Y000816D02*
X010622Y000816D01*
X010622Y000791D02*
X010661Y000791D01*
X010739Y000804D01*
X010622Y000791D02*
X010622Y001291D01*
X010621Y001291D02*
X009881Y001291D01*
X009881Y001133D02*
X010147Y001133D01*
X010234Y000974D02*
X009881Y000974D01*
X009881Y001450D02*
X010147Y001450D01*
X010234Y001608D02*
X009881Y001608D01*
X009879Y001767D02*
X010467Y001767D01*
X010621Y001767D02*
X010622Y001767D01*
X010776Y001767D02*
X013027Y001767D01*
X013181Y001767D02*
X013182Y001767D01*
X013181Y001608D02*
X013182Y001608D01*
X013181Y001450D02*
X013182Y001450D01*
X013181Y001133D02*
X013182Y001133D01*
X013181Y000974D02*
X013182Y000974D01*
X012794Y000974D02*
X011009Y000974D01*
X011096Y001133D02*
X012707Y001133D01*
X012707Y001450D02*
X011096Y001450D01*
X011009Y001608D02*
X012794Y001608D01*
X010622Y001608D02*
X010621Y001608D01*
X010621Y001450D02*
X010622Y001450D01*
X010621Y001133D02*
X010622Y001133D01*
X010621Y000974D02*
X010622Y000974D01*
X016101Y000974D02*
X016261Y000974D01*
X016261Y000816D02*
X016101Y000816D01*
X016101Y001133D02*
X016261Y001133D01*
X016261Y001291D02*
X016101Y001291D01*
X016101Y001767D02*
X016261Y001767D01*
X016261Y001925D02*
X016101Y001925D01*
X016101Y002084D02*
X016261Y002084D01*
X016261Y002242D02*
X016101Y002242D01*
X016101Y002401D02*
X016261Y002401D01*
X016261Y002560D02*
X016101Y002560D01*
X017159Y001450D02*
X018681Y001450D01*
X018694Y001291D02*
X017109Y001291D01*
X017024Y001133D02*
X021951Y001133D01*
X021951Y001291D02*
X019669Y001291D01*
X019669Y001292D02*
X019681Y001338D01*
X019681Y001681D01*
X019182Y001681D01*
X019182Y001181D01*
X019525Y001181D01*
X019571Y001194D01*
X019612Y001217D01*
X019645Y001251D01*
X019669Y001292D01*
X019681Y001450D02*
X021951Y001450D01*
X021951Y001608D02*
X019681Y001608D01*
X019681Y001767D02*
X021951Y001767D01*
X021951Y001925D02*
X019681Y001925D01*
X019662Y002084D02*
X021951Y002084D01*
X021951Y002242D02*
X019478Y002242D01*
X019628Y002401D02*
X021951Y002401D01*
X021951Y002560D02*
X019694Y002560D01*
X019701Y002718D02*
X021951Y002718D01*
X021951Y002877D02*
X019663Y002877D01*
X019563Y003035D02*
X021951Y003035D01*
X021951Y004779D02*
X019478Y004779D01*
X019618Y004938D02*
X021951Y004938D01*
X021951Y005096D02*
X019674Y005096D01*
X019676Y005255D02*
X021951Y005255D01*
X021951Y005413D02*
X019624Y005413D01*
X019495Y005572D02*
X021951Y005572D01*
X021951Y005730D02*
X015201Y005730D01*
X015373Y005889D02*
X021951Y005889D01*
X021951Y006048D02*
X015439Y006048D01*
X015451Y006206D02*
X021951Y006206D01*
X021951Y006365D02*
X015418Y006365D01*
X015325Y006523D02*
X021951Y006523D01*
X021951Y007316D02*
X012801Y007316D01*
X012908Y007474D02*
X021951Y007474D01*
X021951Y009853D02*
X017006Y009853D01*
X017006Y010011D02*
X021951Y010011D01*
X019182Y010328D02*
X019181Y010328D01*
X019181Y010487D02*
X019182Y010487D01*
X019181Y010645D02*
X019182Y010645D01*
X014693Y010645D02*
X012920Y010645D01*
X013111Y010487D02*
X014501Y010487D01*
X014429Y010328D02*
X013183Y010328D01*
X013201Y010170D02*
X014411Y010170D01*
X014439Y010011D02*
X013174Y010011D01*
X013088Y009853D02*
X014525Y009853D01*
X014749Y009694D02*
X013092Y009694D01*
X009682Y009060D02*
X009681Y009060D01*
X009681Y008901D02*
X009682Y008901D01*
X009681Y008743D02*
X009682Y008743D01*
X016895Y000974D02*
X021951Y000974D01*
X021951Y000816D02*
X016692Y000816D01*
X019181Y001291D02*
X019182Y001291D01*
X019181Y001450D02*
X019182Y001450D01*
X019181Y001608D02*
X019182Y001608D01*
D18*
X012931Y004431D03*
X011181Y010681D03*
X011181Y012681D03*
X010681Y013931D03*
X008431Y013931D03*
X005931Y013181D03*
X004431Y013181D03*
D19*
X005931Y013181D01*
M02*
