%FSLAX42Y42*%
%MOMM*%
G71*
G01*
G75*
G04 Layer_Physical_Order=2*
%ADD10C,7.60*%
%ADD11C,1.00*%
%ADD12C,2.00*%
%ADD13C,1.50*%
%ADD14C,0.55*%
%ADD15O,2.00X3.00*%
%ADD16C,4.60*%
%ADD17C,2.00*%
%ADD18R,2.00X2.00*%
%ADD19R,1.85X1.85*%
%ADD20C,1.85*%
%ADD21C,3.00*%
%ADD22O,2.00X6.00*%
%ADD23R,2.00X6.00*%
%ADD24C,5.00*%
%ADD25C,0.25*%
D10*
X14519Y9431D02*
D03*
X10650D02*
D03*
X11943Y9436D02*
D03*
X13236Y9431D02*
D03*
D11*
X15113Y10693D02*
X15304D01*
X14973Y10554D02*
X15113Y10693D01*
X13833D02*
X14034D01*
X13703Y10564D02*
X13833Y10693D01*
X12588D02*
X12764D01*
X12433Y10538D02*
X12588Y10693D01*
X11313D02*
X11595D01*
X11163Y10544D02*
X11313Y10693D01*
X9601Y5624D02*
Y7120D01*
X14496Y11412D02*
X14719Y11189D01*
X9916Y11412D02*
X14496D01*
X9274Y10770D02*
X9916Y11412D01*
X9274Y8758D02*
Y10770D01*
Y7447D02*
Y7871D01*
X9347Y5624D02*
Y7082D01*
X13147Y11237D02*
X13449Y10935D01*
Y10917D02*
Y10935D01*
X10084Y11237D02*
X13147D01*
X9571Y10724D02*
X10084Y11237D01*
X9014Y8537D02*
X9563D01*
X9014Y7414D02*
Y7866D01*
X9093Y5624D02*
Y7054D01*
X11958Y11029D02*
X12179Y10808D01*
X10163Y11029D02*
X11958D01*
X9741Y10607D02*
X10163Y11029D01*
X8758Y8326D02*
X9738Y8334D01*
X8758Y7389D02*
Y7871D01*
X8839Y5624D02*
Y7013D01*
X10165Y10244D02*
X10371D01*
X9893Y9972D02*
X10165Y10244D01*
X12233Y8120D02*
Y8194D01*
X13503Y8120D02*
Y8164D01*
X14773Y8120D02*
Y8146D01*
X9601Y5370D02*
X9855D01*
X10363D02*
X10617D01*
X10871D01*
X11725Y7515D02*
X11729Y7511D01*
X12995Y7515D02*
X12999Y7511D01*
X12995Y8118D02*
Y8120D01*
Y8128D01*
X12993Y8119D02*
X12995Y8120D01*
X14265D02*
X14269Y8116D01*
X12993Y8119D02*
X12995Y8120D01*
Y7515D02*
X12999Y7511D01*
X11725Y7515D02*
X11729Y7511D01*
X12993Y8119D02*
X12995Y8120D01*
X12993Y8119D02*
X12995Y8120D01*
Y7515D02*
X12999Y7511D01*
X12995Y7515D02*
X12999Y7511D01*
X11725Y7515D02*
X11729Y7511D01*
X11725Y7515D02*
X11729Y7511D01*
X14773Y8120D02*
Y8146D01*
X13503Y8120D02*
Y8164D01*
X12233Y8120D02*
Y8194D01*
X10455Y7566D02*
X10459Y7562D01*
X14034Y9876D02*
Y9931D01*
X8070Y5662D02*
Y10061D01*
Y5662D02*
X8362Y5370D01*
X8839D01*
X9347D02*
X9601D01*
X6645Y9690D02*
X6650Y9685D01*
X7168Y9487D02*
X7348Y9307D01*
X7607D01*
X7854Y5258D02*
X8552Y4559D01*
X8885D01*
X9093Y4768D01*
X7854Y5258D02*
Y9060D01*
X7607Y9307D02*
X7854Y9060D01*
X9091Y5367D02*
X9093Y5370D01*
Y4768D02*
Y5370D01*
X7501Y8923D02*
X7623Y8801D01*
Y5065D02*
X8382Y4305D01*
X9809D01*
X10109Y4605D01*
X7412Y8923D02*
X7501D01*
X9855Y5370D02*
X10363D01*
X6919Y8923D02*
X7623Y8219D01*
X6650Y8923D02*
X6919D01*
X7623Y5065D02*
Y8801D01*
X10109Y4605D02*
Y5370D01*
X13499Y7511D02*
X13503Y7515D01*
X14769Y7511D02*
X14773Y7515D01*
X6772Y9266D02*
X6886Y9380D01*
X6419Y9266D02*
X6772D01*
X6302Y9149D02*
X6419Y9266D01*
X6302Y8793D02*
Y9149D01*
Y8793D02*
X6523Y8572D01*
X6894D01*
X7394Y8072D01*
Y4935D02*
Y8072D01*
X6886Y9380D02*
X6899D01*
X6058Y9474D02*
X6185Y9601D01*
X6058Y8743D02*
Y9474D01*
Y8743D02*
X6426Y8374D01*
X6764D01*
X7165Y7973D01*
Y4788D02*
Y7973D01*
X6185Y9601D02*
Y9611D01*
X9893Y8136D02*
Y9972D01*
X9891Y8133D02*
X9893Y8136D01*
X8468Y7384D02*
X8839Y7013D01*
X8468Y7384D02*
Y7922D01*
X8679Y8133D01*
X9891D01*
X9738Y8334D02*
X9741Y8336D01*
Y10607D01*
X8758Y7389D02*
X9093Y7054D01*
X9563Y8537D02*
X9571Y8545D01*
Y10724D01*
X9014Y7414D02*
X9347Y7082D01*
X9274Y7447D02*
X9601Y7120D01*
X11580Y6485D02*
X11875Y6190D01*
X10871Y6271D02*
X11085Y6485D01*
X11580D01*
X11085Y4051D02*
X11875Y4841D01*
X7394Y4935D02*
X8278Y4051D01*
X11085D01*
X11875Y4841D02*
Y5072D01*
Y5631D02*
Y6190D01*
X10871Y5624D02*
Y6271D01*
X11829Y6642D02*
X12271Y6200D01*
X10617Y6396D02*
X10864Y6642D01*
X11829D01*
X11308Y3815D02*
X12276Y4783D01*
X8138Y3815D02*
X11308D01*
X7165Y4788D02*
X8138Y3815D01*
X12276Y4783D02*
Y5080D01*
X12271Y5629D02*
Y6200D01*
X10617Y5624D02*
Y6396D01*
D12*
X14973Y10244D02*
Y10554D01*
X13703Y10244D02*
Y10564D01*
X12433Y10244D02*
Y10538D01*
X11163Y10244D02*
Y10544D01*
X14719Y10244D02*
Y11222D01*
X13449Y10244D02*
Y10917D01*
X12179Y10244D02*
Y10808D01*
X10371Y10244D02*
X10909D01*
X12233Y8194D02*
X12377Y8339D01*
X13503Y8164D02*
X13668Y8329D01*
X14773Y8146D02*
X14956Y8329D01*
X13668D02*
X13673Y9434D01*
X14956Y8329D02*
Y9431D01*
X11504Y8341D02*
X11725Y8120D01*
Y7515D02*
Y8120D01*
X14269Y7511D02*
Y8116D01*
X11504Y8341D02*
Y9434D01*
X12999Y7511D02*
Y8124D01*
X14768Y5370D02*
X15504Y6106D01*
X10455Y7566D02*
Y8120D01*
X12802Y9428D02*
Y9799D01*
X12934Y9931D01*
X14082Y9428D02*
Y9817D01*
X14196Y9931D01*
X10211Y9769D02*
X10373Y9931D01*
X10211Y8364D02*
X10455Y8120D01*
X11504Y9434D02*
Y9776D01*
X11659Y9931D01*
X10373D02*
X15504D01*
X7887Y10244D02*
X8070Y10061D01*
X7676Y10244D02*
X7887D01*
X12799Y8323D02*
Y9403D01*
X12377Y8339D02*
X12380Y9441D01*
X10211Y8364D02*
Y9769D01*
X12802Y8321D02*
X12995Y8128D01*
X14082Y8303D02*
Y9428D01*
Y8303D02*
X14269Y8116D01*
X10959D02*
X11082Y8240D01*
Y9428D01*
X6645Y9690D02*
Y10244D01*
X7168Y10046D02*
Y10244D01*
X7412Y9685D02*
X7422Y9695D01*
Y10244D01*
X7168Y9487D02*
Y10244D01*
X15504Y6106D02*
Y9931D01*
X9347Y5370D02*
X14768D01*
X12233Y7515D02*
Y8194D01*
X13503Y7515D02*
Y8164D01*
X14773Y7515D02*
Y8146D01*
X10963Y7566D02*
Y8120D01*
X6185Y9611D02*
X6391Y9817D01*
X6899Y9380D02*
Y10244D01*
X6391Y9817D02*
Y10244D01*
X4442Y5161D02*
Y7178D01*
X4168Y5405D02*
X6210D01*
X3904Y7701D02*
X6683D01*
X6685Y4920D01*
X3907Y4923D02*
X6685Y4920D01*
X3904Y7701D02*
X3907Y4923D01*
X4895Y5161D02*
Y6614D01*
D13*
X9855Y7094D02*
X10036Y7275D01*
X11992D01*
X9855Y5624D02*
Y7094D01*
X11992Y7275D02*
X12233Y7515D01*
X10109Y6916D02*
X10272Y7079D01*
X13358D01*
X13499Y7220D01*
Y7511D01*
X10109Y5624D02*
Y6916D01*
X10363Y6683D02*
X10538Y6858D01*
X14641D01*
X14769Y6986D01*
Y7511D01*
X10363Y5624D02*
Y6683D01*
X10959Y7562D02*
X10963Y7566D01*
X10959Y7562D02*
X11007Y7513D01*
X11300Y5624D02*
X11430Y5753D01*
X11125Y5624D02*
X11300D01*
X11007Y7513D02*
X11430D01*
Y5753D02*
Y6226D01*
D14*
X4253Y4645D02*
X4210Y4687D01*
X4126D01*
X4084Y4645D01*
Y4603D01*
X4126Y4561D01*
X4210D01*
X4253Y4519D01*
Y4477D01*
X4210Y4435D01*
X4126D01*
X4084Y4477D01*
X4337Y4687D02*
X4421D01*
X4379D01*
Y4435D01*
X4337D01*
X4421D01*
X4547Y4687D02*
Y4435D01*
X4715D01*
X4799Y4687D02*
Y4519D01*
X4883Y4435D01*
X4967Y4519D01*
Y4687D01*
X5220D02*
X5052D01*
Y4435D01*
X5220D01*
X5052Y4561D02*
X5136D01*
X5304Y4435D02*
Y4687D01*
X5430D01*
X5472Y4645D01*
Y4561D01*
X5430Y4519D01*
X5304D01*
X5388D02*
X5472Y4435D01*
X5724Y4687D02*
X5556D01*
Y4561D01*
X5640D01*
X5556D01*
Y4435D01*
X5935Y4687D02*
X5851D01*
X5808Y4645D01*
Y4477D01*
X5851Y4435D01*
X5935D01*
X5977Y4477D01*
Y4645D01*
X5935Y4687D01*
X6061D02*
Y4435D01*
X6229D01*
X6313Y4687D02*
Y4435D01*
Y4519D01*
X6481Y4687D01*
X6355Y4561D01*
X6481Y4435D01*
D15*
X11163Y10244D02*
D03*
X10909D02*
D03*
X6391D02*
D03*
X6645D02*
D03*
X7168D02*
D03*
X7422D02*
D03*
X7676D02*
D03*
X7422D02*
D03*
X12179D02*
D03*
X12433D02*
D03*
X13449D02*
D03*
X13703D02*
D03*
X14719D02*
D03*
X14973D02*
D03*
X6645D02*
D03*
X6899D02*
D03*
D16*
X10950Y2578D02*
D03*
X12233D02*
D03*
X13503D02*
D03*
X14773D02*
D03*
X6645Y2601D02*
D03*
X7394D02*
D03*
D17*
X6650Y9685D02*
D03*
Y8923D02*
D03*
X7412Y9685D02*
D03*
Y8923D02*
D03*
X11595Y10693D02*
D03*
Y9931D02*
D03*
X12764Y10693D02*
D03*
Y9931D02*
D03*
X14034Y10693D02*
D03*
Y9931D02*
D03*
X15304Y10693D02*
D03*
Y9931D02*
D03*
X14269Y7511D02*
D03*
X12999D02*
D03*
X11729D02*
D03*
X10459Y7562D02*
D03*
X8839Y5370D02*
D03*
X9093Y5624D02*
D03*
Y5370D02*
D03*
X9347Y5624D02*
D03*
Y5370D02*
D03*
X9601Y5624D02*
D03*
Y5370D02*
D03*
X9855Y5624D02*
D03*
Y5370D02*
D03*
X10109Y5624D02*
D03*
Y5370D02*
D03*
X10363Y5624D02*
D03*
Y5370D02*
D03*
X10617Y5624D02*
D03*
Y5370D02*
D03*
X10871Y5624D02*
D03*
Y5370D02*
D03*
X11125Y5624D02*
D03*
Y5370D02*
D03*
X10455Y8120D02*
D03*
X11725D02*
D03*
X12995Y8118D02*
D03*
X14265Y8120D02*
D03*
X14773D02*
D03*
X13503D02*
D03*
X10963D02*
D03*
X11430Y7513D02*
D03*
Y6226D02*
D03*
X9014Y8537D02*
D03*
Y7866D02*
D03*
X9274Y8758D02*
D03*
Y7871D02*
D03*
X8758D02*
D03*
Y8326D02*
D03*
X12271Y5629D02*
D03*
X12276Y5080D02*
D03*
X11875Y5631D02*
D03*
Y5072D02*
D03*
D18*
X14769Y7511D02*
D03*
X13499D02*
D03*
X12229D02*
D03*
X10959Y7562D02*
D03*
X8839Y5624D02*
D03*
D19*
X10455Y8120D02*
D03*
X11725D02*
D03*
X12995D02*
D03*
X14265D02*
D03*
D20*
X10963D02*
D03*
X12233D02*
D03*
X13503D02*
D03*
X14773D02*
D03*
D21*
X10211Y9428D02*
D03*
X11504Y9434D02*
D03*
X12802Y9428D02*
D03*
X14082D02*
D03*
X14956Y9431D02*
D03*
X13673Y9434D02*
D03*
X12380Y9441D02*
D03*
X11082Y9428D02*
D03*
D22*
X11125Y5171D02*
D03*
X10871Y5166D02*
D03*
X10617Y5174D02*
D03*
X10112Y5166D02*
D03*
X10363Y5159D02*
D03*
X9855Y5166D02*
D03*
X9601D02*
D03*
X9350D02*
D03*
X10363Y5822D02*
D03*
X10109D02*
D03*
X9863Y5824D02*
D03*
X11123Y5829D02*
D03*
X10617Y5827D02*
D03*
X10871Y5814D02*
D03*
X9093Y5174D02*
D03*
X8839D02*
D03*
X9093Y5824D02*
D03*
X9350Y5827D02*
D03*
X9601Y5822D02*
D03*
D23*
X8839Y5829D02*
D03*
D24*
X4442Y7178D02*
D03*
X4895Y6614D02*
D03*
X6210Y5405D02*
D03*
D25*
X4318Y3246D02*
X15227D01*
X3317Y3650D02*
X4318D01*
Y3246D02*
Y3650D01*
X3315Y11493D02*
X3317Y3650D01*
X3315Y11493D02*
X4318D01*
Y11887D01*
X15227D01*
Y11506D02*
Y11887D01*
Y11506D02*
X16231D01*
X15227Y3246D02*
Y3637D01*
X16236D01*
X16231Y11506D02*
X16236Y3637D01*
M02*
