%FSLAX42Y42*%
%MOMM*%
G71*
G01*
G75*
G04 Layer_Physical_Order=1*
%ADD10C,1.52*%
%ADD11C,1.50*%
%ADD12C,1.00*%
%ADD13C,1.70*%
%ADD14C,0.40*%
%ADD15C,2.00*%
%ADD16C,0.35*%
%ADD17C,3.00*%
%ADD18R,3.00X3.00*%
%ADD19O,2.00X3.50*%
%ADD20R,2.00X3.50*%
%ADD21R,2.00X2.00*%
%ADD22C,2.00*%
%ADD23O,3.52X5.52*%
%ADD24C,4.00*%
%ADD25R,3.50X2.00*%
%ADD26O,3.50X2.00*%
%ADD27C,2.50*%
D10*
X14823Y7485D02*
D03*
X15090Y7155D02*
D03*
X15237Y7028D02*
D03*
D11*
X7493Y9688D02*
X7866Y10061D01*
X6325Y9688D02*
X7493D01*
X6096Y9606D02*
X7384D01*
X7303Y9688D02*
X7465Y9525D01*
X7569Y6807D02*
Y8128D01*
X7866Y11308D02*
X8057Y11499D01*
X7699Y9893D02*
Y11176D01*
X7569Y7376D02*
X7638Y7445D01*
X6325Y11326D02*
X7549D01*
X6017Y8933D02*
Y9528D01*
X7866Y10061D02*
Y11308D01*
X9368Y10945D02*
X9375Y10937D01*
Y9705D02*
Y10937D01*
X5778Y5423D02*
Y6236D01*
X5436Y6579D02*
Y7025D01*
Y6579D02*
X5778Y6236D01*
X7323Y4635D02*
X7521Y4834D01*
X7323Y4361D02*
X7417Y4267D01*
X7163Y5436D02*
X7417D01*
X7163D02*
X7168Y5431D01*
X7521Y4834D02*
Y5331D01*
X7417Y5436D02*
X7521Y5331D01*
X7379Y6617D02*
X7569Y6807D01*
X7379Y5507D02*
Y6617D01*
X7303Y5431D02*
X7379Y5507D01*
X7168Y5431D02*
X7303D01*
X7549Y11326D02*
X7699Y11176D01*
X6017Y9528D02*
X6096Y9606D01*
X7465Y8232D02*
Y9525D01*
Y8232D02*
X7569Y8128D01*
X8128Y5944D02*
X8613Y6429D01*
X9020D01*
X7323Y4361D02*
Y4635D01*
X11095Y5921D02*
X11250Y6076D01*
Y6424D01*
X11379Y6553D01*
X10544Y5921D02*
X11095D01*
X13071Y6553D02*
X13081Y6543D01*
X7935Y4331D02*
X8128Y4524D01*
X7816Y4331D02*
X7935D01*
X9020Y6429D02*
X9271Y6680D01*
X8128Y4524D02*
Y5944D01*
D12*
X5751Y12200D02*
X9809D01*
X9629Y10724D02*
X9787D01*
X8606Y12197D02*
Y12200D01*
X5314Y11763D02*
X5751Y12200D01*
X10566Y11578D02*
X10639Y11651D01*
X10456Y11578D02*
X10566D01*
X9604Y9947D02*
Y10178D01*
X9754Y10328D01*
X9954D01*
X10259Y10632D01*
Y11382D01*
X10456Y11578D01*
X10639Y11651D02*
X11176D01*
X6706Y7861D02*
X6878Y7689D01*
X6706Y7861D02*
Y8077D01*
X6530Y4318D02*
X6789Y4059D01*
X8400Y4257D02*
Y4262D01*
X6045Y7610D02*
X6233Y7798D01*
X6544Y4304D02*
Y4309D01*
X6502Y4351D02*
X6544Y4309D01*
X6502Y4351D02*
Y6436D01*
X6045Y6894D02*
X6502Y6436D01*
X6045Y6894D02*
Y7610D01*
X12144Y10744D02*
X12172Y10772D01*
X10160Y4737D02*
X10617D01*
X11341Y4663D02*
Y5613D01*
X10152Y4450D02*
X10216Y4514D01*
X9576Y7696D02*
X10132Y7140D01*
X10216Y4514D02*
X11191D01*
X11341Y4663D01*
X10858Y4224D02*
X10942Y4308D01*
X9652Y4328D02*
Y4641D01*
X9756Y4224D02*
X10858D01*
X9652Y4328D02*
X9756Y4224D01*
X11458Y4232D02*
Y5730D01*
X10033Y8189D02*
X10376Y7846D01*
X9398Y4150D02*
Y4648D01*
X11323Y4097D02*
X11458Y4232D01*
X9451Y4097D02*
X11323D01*
X9398Y4150D02*
X9451Y4097D01*
X6789Y4059D02*
X8202D01*
X8400Y4257D01*
X8057Y10650D02*
X8616Y11209D01*
X8057Y10483D02*
Y10650D01*
X7262Y8379D02*
Y9406D01*
X7163Y8280D02*
X7262Y8379D01*
X7805Y5194D02*
Y8039D01*
X7767Y5156D02*
X7805Y5194D01*
X6698Y7211D02*
X7320Y7833D01*
X6698Y5845D02*
Y7211D01*
X6932Y8763D02*
Y8920D01*
X5817Y7971D02*
X6096Y8250D01*
X5789Y7943D02*
X5817Y7971D01*
Y9680D01*
Y6640D02*
Y7971D01*
X5789Y6668D02*
X5817Y6640D01*
X8128Y8092D02*
X8509D01*
X7935Y4745D02*
Y7899D01*
X13391Y10940D02*
X13411D01*
X8776Y6071D02*
X9619D01*
X7094Y9164D02*
X7112D01*
X6993Y8006D02*
X7104Y7894D01*
X5789Y6668D02*
Y7943D01*
X6096Y8250D02*
X6419D01*
X6932Y8763D01*
X7112Y9164D02*
X7145Y9131D01*
Y8621D02*
Y9131D01*
X6993Y8468D02*
X7145Y8621D01*
X6993Y8006D02*
Y8468D01*
X10259Y5613D02*
X11341D01*
X10132Y5740D02*
X10259Y5613D01*
X10132Y5740D02*
Y7140D01*
X10467Y5730D02*
X11458D01*
X10376Y5822D02*
X10467Y5730D01*
X10376Y5822D02*
Y7846D01*
X7935Y7899D02*
X8128Y8092D01*
X9787Y10724D02*
X10081Y11019D01*
Y11928D01*
X9809Y12200D02*
X10081Y11928D01*
X10909Y7069D02*
X11786Y7945D01*
X10909Y6111D02*
Y7069D01*
X11786Y7945D02*
Y8585D01*
X3759Y7976D02*
X3762D01*
X3759Y10262D02*
X3762D01*
X3759D02*
Y10272D01*
D13*
X6754Y4422D02*
Y5509D01*
X7163Y7109D02*
Y7264D01*
X6855Y4928D02*
X7163D01*
X6754Y4826D02*
X6855Y4928D01*
X6754Y4422D02*
X6909Y4267D01*
X6754Y5509D02*
X7079Y5834D01*
Y7026D01*
X7163Y7109D01*
X5006Y6409D02*
X5436Y5979D01*
X12144Y9969D02*
X12395Y9718D01*
X12144Y9969D02*
Y10744D01*
X12824Y8372D02*
Y9009D01*
X11613Y9726D02*
Y11260D01*
X12172Y11818D01*
X11613Y9774D02*
X11786Y9601D01*
X11529Y8250D02*
Y9642D01*
X10620Y7341D02*
X11529Y8250D01*
X10620Y6439D02*
Y7341D01*
X11529Y9642D02*
X11613Y9726D01*
X3345Y8687D02*
X3548Y8484D01*
X3345Y8880D02*
Y10864D01*
X3759Y11278D01*
X3345Y8687D02*
Y8880D01*
X3548Y8484D02*
X3759D01*
X5006Y7912D02*
X5235Y8141D01*
X3762Y7976D02*
X4028Y7709D01*
X4803D01*
X4820Y11301D02*
X5215Y10907D01*
Y9837D02*
Y10907D01*
X4470Y11301D02*
X4820D01*
X5215Y9837D02*
X5537Y9515D01*
X3762Y10262D02*
X4277Y10777D01*
X4740D01*
X4892Y10625D01*
Y9787D02*
Y10625D01*
Y9787D02*
X5235Y9444D01*
X4803Y7709D02*
X5006Y7506D01*
X5235Y8588D02*
Y9444D01*
Y8141D02*
Y8588D01*
X5006Y6409D02*
Y7912D01*
X3917Y8230D02*
X4470Y8783D01*
X3759Y8230D02*
X3917D01*
X4470Y8783D02*
Y9769D01*
X4826Y9413D01*
X4470Y9769D02*
Y10136D01*
D14*
X14694Y7610D02*
X15357D01*
Y6873D02*
Y7610D01*
X14694Y6873D02*
X15357D01*
X14694D02*
Y7610D01*
X14823Y6952D02*
Y7485D01*
X14760Y7155D02*
X15090D01*
X14760Y7028D02*
X15237D01*
D15*
X11379Y6553D02*
X13071D01*
X2832Y3576D02*
X15608Y3579D01*
X2830Y12588D02*
X2832Y3576D01*
X2830Y12588D02*
X14455Y12591D01*
X14458Y7861D02*
X15606D01*
X15608Y3579D01*
X14455Y12591D02*
X14458Y7861D01*
D16*
X14963Y5428D02*
X14988Y5403D01*
Y5352D01*
X14963Y5326D01*
X14938D01*
X14912Y5352D01*
Y5403D01*
X14887Y5428D01*
X14862D01*
X14836Y5403D01*
Y5352D01*
X14862Y5326D01*
X14988Y5479D02*
Y5530D01*
Y5504D01*
X14836D01*
Y5479D01*
Y5530D01*
X14988Y5606D02*
X14836D01*
Y5707D01*
X14988Y5758D02*
X14887D01*
X14836Y5809D01*
X14887Y5860D01*
X14988D01*
Y6012D02*
Y5910D01*
X14836D01*
Y6012D01*
X14912Y5910D02*
Y5961D01*
X14836Y6063D02*
X14988D01*
Y6139D01*
X14963Y6164D01*
X14912D01*
X14887Y6139D01*
Y6063D01*
Y6114D02*
X14836Y6164D01*
Y6215D02*
X14988D01*
Y6291D01*
X14963Y6317D01*
X14912D01*
X14887Y6291D01*
Y6215D01*
X14836Y6367D02*
X14988D01*
Y6444D01*
X14963Y6469D01*
X14912D01*
X14887Y6444D01*
Y6367D01*
Y6418D02*
X14836Y6469D01*
X14988Y6596D02*
Y6545D01*
X14963Y6520D01*
X14862D01*
X14836Y6545D01*
Y6596D01*
X14862Y6621D01*
X14963D01*
X14988Y6596D01*
X15278Y5428D02*
X15303Y5403D01*
Y5352D01*
X15278Y5326D01*
X15253D01*
X15227Y5352D01*
Y5403D01*
X15202Y5428D01*
X15176D01*
X15151Y5403D01*
Y5352D01*
X15176Y5326D01*
X15303Y5479D02*
Y5530D01*
Y5504D01*
X15151D01*
Y5479D01*
Y5530D01*
X15303Y5606D02*
X15151D01*
Y5707D01*
X15303Y5758D02*
X15202D01*
X15151Y5809D01*
X15202Y5860D01*
X15303D01*
Y6012D02*
Y5910D01*
X15151D01*
Y6012D01*
X15227Y5910D02*
Y5961D01*
X15151Y6063D02*
X15303D01*
Y6139D01*
X15278Y6164D01*
X15227D01*
X15202Y6139D01*
Y6063D01*
Y6114D02*
X15151Y6164D01*
X15303Y6317D02*
Y6215D01*
X15227D01*
Y6266D01*
Y6215D01*
X15151D01*
X15303Y6444D02*
Y6393D01*
X15278Y6367D01*
X15176D01*
X15151Y6393D01*
Y6444D01*
X15176Y6469D01*
X15278D01*
X15303Y6444D01*
Y6520D02*
X15151D01*
Y6621D01*
X15303Y6672D02*
X15151D01*
X15202D01*
X15303Y6774D01*
X15227Y6698D01*
X15151Y6774D01*
X3609Y4046D02*
Y3894D01*
X3686D01*
X3711Y3919D01*
Y3970D01*
X3686Y3995D01*
X3609D01*
X3787Y3945D02*
X3838D01*
X3863Y3970D01*
Y4046D01*
X3787D01*
X3762Y4021D01*
X3787Y3995D01*
X3863D01*
X3939Y3919D02*
Y3945D01*
X3914D01*
X3965D01*
X3939D01*
Y4021D01*
X3965Y4046D01*
X4117D02*
X4066D01*
X4041Y4021D01*
Y3970D01*
X4066Y3945D01*
X4117D01*
X4143Y3970D01*
Y3995D01*
X4041D01*
X4193Y4046D02*
Y3945D01*
X4270D01*
X4295Y3970D01*
Y4046D01*
X4371Y3919D02*
Y3945D01*
X4346D01*
X4396D01*
X4371D01*
Y4021D01*
X4396Y4046D01*
X4625D02*
Y3894D01*
X4701D01*
X4727Y3919D01*
Y3970D01*
X4701Y3995D01*
X4625D01*
X4854Y4046D02*
X4803D01*
X4777Y4021D01*
Y3970D01*
X4803Y3945D01*
X4854D01*
X4879Y3970D01*
Y3995D01*
X4777D01*
X4930Y4046D02*
Y3945D01*
X5006D01*
X5031Y3970D01*
Y4046D01*
X5184Y3894D02*
Y4046D01*
X5107D01*
X5082Y4021D01*
Y3970D01*
X5107Y3945D01*
X5184D01*
X5234Y4046D02*
X5285D01*
X5260D01*
Y3945D01*
X5234D01*
X5361Y4046D02*
Y3945D01*
X5438D01*
X5463Y3970D01*
Y4046D01*
X5565Y4097D02*
X5590D01*
X5615Y4072D01*
Y3945D01*
X5539D01*
X5514Y3970D01*
Y4021D01*
X5539Y4046D01*
X5615D01*
X13757Y4008D02*
X13858D01*
X14061Y3932D02*
X14112D01*
X14087D01*
Y4084D01*
X14061D01*
X14112D01*
X14188D02*
Y3932D01*
X14290Y4084D01*
Y3932D01*
X14341Y4084D02*
Y3932D01*
X14417D01*
X14442Y3957D01*
Y4008D01*
X14417Y4034D01*
X14341D01*
X14493Y3932D02*
Y4059D01*
X14518Y4084D01*
X14569D01*
X14595Y4059D01*
Y3932D01*
X14645D02*
X14747D01*
X14696D01*
Y4084D01*
X14950Y4008D02*
X15052D01*
X15001Y3957D02*
Y4059D01*
X6190Y12466D02*
Y12314D01*
X6266D01*
X6292Y12339D01*
Y12390D01*
X6266Y12416D01*
X6190D01*
X6342Y12466D02*
Y12314D01*
X6419D01*
X6444Y12339D01*
Y12390D01*
X6419Y12416D01*
X6342D01*
X6393D02*
X6444Y12466D01*
X6571Y12314D02*
X6520D01*
X6495Y12339D01*
Y12441D01*
X6520Y12466D01*
X6571D01*
X6596Y12441D01*
Y12339D01*
X6571Y12314D01*
X6647D02*
Y12466D01*
X6723D01*
X6749Y12441D01*
Y12416D01*
X6723Y12390D01*
X6647D01*
X6723D01*
X6749Y12365D01*
Y12339D01*
X6723Y12314D01*
X6647D01*
X6901D02*
X6799D01*
Y12466D01*
X6901D01*
X6799Y12390D02*
X6850D01*
X7053Y12339D02*
X7028Y12314D01*
X6977D01*
X6952Y12339D01*
Y12365D01*
X6977Y12390D01*
X7028D01*
X7053Y12416D01*
Y12441D01*
X7028Y12466D01*
X6977D01*
X6952Y12441D01*
D17*
X11969Y7366D02*
D03*
X6708Y11735D02*
D03*
X6200D02*
D03*
X13325Y4115D02*
D03*
X4826Y9413D02*
D03*
X5436Y7025D02*
D03*
X12172Y11818D02*
D03*
X12395Y9718D02*
D03*
X5537Y9515D02*
D03*
X11969Y5740D02*
D03*
X8616Y11209D02*
D03*
X13435Y4623D02*
D03*
X4470Y11301D02*
D03*
X20206Y-1384D02*
D03*
X19698D02*
D03*
D18*
X12719Y7366D02*
D03*
X12279Y4115D02*
D03*
X4826Y8367D02*
D03*
X5436Y5979D02*
D03*
X12172Y10772D02*
D03*
X12395Y8672D02*
D03*
X5537Y8469D02*
D03*
X12719Y5740D02*
D03*
X8616Y10163D02*
D03*
X4470Y10136D02*
D03*
X12270Y4623D02*
D03*
D19*
X6833Y10185D02*
D03*
X6579D02*
D03*
X6325D02*
D03*
X6071D02*
D03*
X6579Y10947D02*
D03*
X6325D02*
D03*
X6071D02*
D03*
X6833D02*
D03*
X7087Y10185D02*
D03*
X5817D02*
D03*
X5563Y10947D02*
D03*
X5817D02*
D03*
X7087D02*
D03*
X7341D02*
D03*
X5563Y10185D02*
D03*
X10795Y8611D02*
D03*
X10541D02*
D03*
X10287D02*
D03*
X10033D02*
D03*
X9779D02*
D03*
X9525D02*
D03*
X9271D02*
D03*
X9017D02*
D03*
X8763D02*
D03*
X8509D02*
D03*
X8255D02*
D03*
X8001D02*
D03*
X7747D02*
D03*
X11049Y9373D02*
D03*
X10795D02*
D03*
X10541D02*
D03*
X10287D02*
D03*
X10033D02*
D03*
X9779D02*
D03*
X9525D02*
D03*
X9271D02*
D03*
X9017D02*
D03*
X8763D02*
D03*
X8509D02*
D03*
X8255D02*
D03*
X8001D02*
D03*
X7747D02*
D03*
D20*
X7341Y10185D02*
D03*
X11049Y8611D02*
D03*
D21*
X12598Y10262D02*
D03*
X6198Y5846D02*
D03*
X10566Y11578D02*
D03*
X9804Y11078D02*
D03*
X8636Y5029D02*
D03*
X6401Y7413D02*
D03*
X9936Y10080D02*
D03*
X8585Y7061D02*
D03*
D22*
X12852Y10262D02*
D03*
X8585Y7691D02*
D03*
X8593Y6655D02*
D03*
X3759Y10262D02*
D03*
Y11278D02*
D03*
X6198Y6346D02*
D03*
X7163Y8280D02*
D03*
Y7264D02*
D03*
X11786Y8585D02*
D03*
Y9601D02*
D03*
X7569Y6807D02*
D03*
Y6299D02*
D03*
X9271Y6680D02*
D03*
Y7696D02*
D03*
X9576Y6680D02*
D03*
Y7696D02*
D03*
X9881Y6680D02*
D03*
Y7696D02*
D03*
X7417Y4267D02*
D03*
X6909D02*
D03*
X10566Y11078D02*
D03*
X11613Y11143D02*
D03*
Y11651D02*
D03*
X11176Y11143D02*
D03*
Y11651D02*
D03*
X9804Y11578D02*
D03*
X8636Y5283D02*
D03*
X8890Y5029D02*
D03*
Y5283D02*
D03*
X9144Y5029D02*
D03*
Y5283D02*
D03*
X9398Y5029D02*
D03*
Y5283D02*
D03*
X9652Y5029D02*
D03*
Y5283D02*
D03*
X9906Y5029D02*
D03*
Y5283D02*
D03*
X10160Y5029D02*
D03*
Y5283D02*
D03*
X10414Y5029D02*
D03*
Y5283D02*
D03*
X10668Y5029D02*
D03*
Y5283D02*
D03*
X10922Y5029D02*
D03*
Y5283D02*
D03*
X3454Y6147D02*
D03*
X4470D02*
D03*
X6401Y6913D02*
D03*
X6198Y8077D02*
D03*
X6706D02*
D03*
X3429Y6553D02*
D03*
X4699D02*
D03*
X4521Y6960D02*
D03*
X3505D02*
D03*
X9093Y11227D02*
D03*
Y10211D02*
D03*
X8057Y11499D02*
D03*
Y10483D02*
D03*
X9936Y10580D02*
D03*
X8585Y7315D02*
D03*
X6878Y7689D02*
D03*
X12824Y8372D02*
D03*
Y9009D02*
D03*
X10617Y4737D02*
D03*
X10160D02*
D03*
X5778Y5423D02*
D03*
X7638Y7445D02*
D03*
X6325Y9688D02*
D03*
Y11326D02*
D03*
X10544Y5921D02*
D03*
X10620Y6439D02*
D03*
X9629Y10724D02*
D03*
X5314Y11763D02*
D03*
X7320Y7833D02*
D03*
X6698Y5845D02*
D03*
X5817Y6640D02*
D03*
X6932Y8920D02*
D03*
X5817Y9680D02*
D03*
X7094Y9164D02*
D03*
X7104Y7894D02*
D03*
X8776Y6071D02*
D03*
X9619D02*
D03*
X10909Y6111D02*
D03*
X8400Y4262D02*
D03*
X6233Y7798D02*
D03*
X7262Y9406D02*
D03*
X9652Y4641D02*
D03*
X10942Y4308D02*
D03*
X6017Y8933D02*
D03*
X10152Y4450D02*
D03*
X9604Y9947D02*
D03*
X9398Y4648D02*
D03*
X10033Y8189D02*
D03*
X8509Y8092D02*
D03*
X7935Y4745D02*
D03*
X7805Y8039D02*
D03*
X7767Y5156D02*
D03*
X9375Y9705D02*
D03*
X7816Y4331D02*
D03*
X9368Y10945D02*
D03*
D23*
X4539Y5011D02*
D03*
X4031D02*
D03*
X5047D02*
D03*
D24*
X14110Y4648D02*
D03*
X14618D02*
D03*
D25*
X3759Y7976D02*
D03*
X7163Y4928D02*
D03*
X13391Y10940D02*
D03*
X13411Y8738D02*
D03*
D26*
X3759Y8230D02*
D03*
Y8484D02*
D03*
X7163Y5182D02*
D03*
Y5436D02*
D03*
X13391Y11194D02*
D03*
Y11448D02*
D03*
X13411Y8992D02*
D03*
Y9246D02*
D03*
D27*
X13889Y11189D02*
D03*
X13912Y8992D02*
D03*
X4254Y8235D02*
D03*
X11836Y6553D02*
D03*
X13081Y6543D02*
D03*
M02*
