%FSLAX42Y42*%
%MOMM*%
G71*
G01*
G75*
%ADD10R,0.60X1.55*%
%ADD11C,1.00*%
%ADD12C,1.70*%
%ADD13C,1.50*%
%ADD14C,2.00*%
%ADD15C,0.60*%
%ADD16C,0.36*%
%ADD17C,0.80*%
%ADD18C,3.00*%
%ADD19R,3.00X3.00*%
%ADD20O,2.00X3.50*%
%ADD21R,2.00X3.50*%
%ADD22R,2.00X2.00*%
%ADD23C,2.00*%
%ADD24O,3.52X5.52*%
%ADD25C,4.00*%
%ADD26R,3.50X2.00*%
%ADD27O,3.50X2.00*%
%ADD28C,2.50*%
%ADD29C,0.20*%
%ADD30C,0.25*%
%ADD31C,0.25*%
%ADD32C,0.15*%
%ADD33C,0.15*%
%ADD34C,0.20*%
%ADD35R,0.80X2.80*%
%ADD36R,2.80X0.80*%
D29*
X13144Y7366D02*
G03*
X13144Y7366I-800J0D01*
G01*
X7437Y10630D02*
G03*
X7437Y10503I0J-63D01*
G01*
X11176Y9055D02*
G03*
X11176Y8928I0J-63D01*
G01*
X6093Y6323D02*
G03*
X6090Y5870I105J-227D01*
G01*
X6305D02*
G03*
X6303Y6323I-108J226D01*
G01*
X10519Y11102D02*
G03*
X10522Y11554I-105J227D01*
G01*
X10306D02*
G03*
X10309Y11102I108J-226D01*
G01*
X9721Y11510D02*
G03*
X9697Y11160I83J-182D01*
G01*
X9912D02*
G03*
X9888Y11510I-108J169D01*
G01*
X13144Y5740D02*
G03*
X13144Y5740I-800J0D01*
G01*
X6484Y6981D02*
G03*
X6508Y7331I-83J182D01*
G01*
X6293D02*
G03*
X6318Y6981I108J-169D01*
G01*
X9853Y10512D02*
G03*
X9829Y10162I83J-182D01*
G01*
X10044D02*
G03*
X10020Y10512I-108J169D01*
G01*
X7437Y10301D02*
Y10503D01*
Y10630D02*
Y10831D01*
X5467Y10301D02*
Y10831D01*
Y10301D02*
X7437D01*
X5467Y10831D02*
X7437D01*
X12979Y10135D02*
Y10389D01*
X12471Y10135D02*
X12979D01*
X12471D02*
Y10389D01*
X12979D01*
X3658Y10465D02*
X3861D01*
X3658D02*
Y11074D01*
X3861D01*
Y10465D02*
Y11074D01*
X3759Y10363D02*
Y10465D01*
Y11074D02*
Y11176D01*
X11176Y8769D02*
Y8928D01*
Y9055D02*
Y9214D01*
X7620D02*
X11176D01*
X7620Y8769D02*
Y9214D01*
Y8769D02*
X11176D01*
X3524Y7695D02*
Y8765D01*
X3474Y7695D02*
Y8765D01*
X3944Y7695D02*
Y8765D01*
X3474Y7695D02*
X3944D01*
X3474Y8765D02*
X3944D01*
X7061Y8077D02*
X7264D01*
Y7468D02*
Y8077D01*
X7061Y7468D02*
X7264D01*
X7061D02*
Y8077D01*
X7163D02*
Y8179D01*
Y7366D02*
Y7468D01*
X12537Y4255D02*
X13067D01*
X12537Y3975D02*
X13067D01*
Y4255D01*
X11684Y8788D02*
X11887D01*
X11684D02*
Y9398D01*
X11887D01*
Y8788D02*
Y9398D01*
X11786Y8687D02*
Y8788D01*
Y9398D02*
Y9500D01*
X4686Y8625D02*
Y9155D01*
X4966Y8625D02*
Y9155D01*
X4686D02*
X4966D01*
X7760Y6109D02*
Y6998D01*
X7379D02*
X7760D01*
X7379Y6109D02*
Y6998D01*
Y6109D02*
X7760D01*
X6928Y4647D02*
Y5717D01*
X6878Y4647D02*
Y5717D01*
X7348Y4647D02*
Y5717D01*
X6878Y4647D02*
X7348D01*
X6878Y5717D02*
X7348D01*
X9169Y6883D02*
X9373D01*
X9169D02*
Y7493D01*
X9373D01*
Y6883D02*
Y7493D01*
X9271Y6782D02*
Y6883D01*
Y7493D02*
Y7595D01*
X9474Y6883D02*
X9677D01*
X9474D02*
Y7493D01*
X9677D01*
Y6883D02*
Y7493D01*
X9576Y6782D02*
Y6883D01*
Y7493D02*
Y7595D01*
X9779Y6883D02*
X9982D01*
X9779D02*
Y7493D01*
X9982D01*
Y6883D02*
Y7493D01*
X9881Y6782D02*
Y6883D01*
Y7493D02*
Y7595D01*
X5296Y6237D02*
Y6767D01*
X5576Y6237D02*
Y6767D01*
X5296D02*
X5576D01*
X12032Y11030D02*
Y11560D01*
X12312Y11030D02*
Y11560D01*
X12032D02*
X12312D01*
X12255Y8930D02*
Y9460D01*
X12535Y8930D02*
Y9460D01*
X12255D02*
X12535D01*
X6718Y4077D02*
X7607D01*
Y4458D01*
X6718D02*
X7607D01*
X6718Y4077D02*
Y4458D01*
X5397Y8727D02*
Y9257D01*
X5677Y8727D02*
Y9257D01*
X5397D02*
X5677D01*
X13156Y10659D02*
Y11729D01*
X13106Y10659D02*
Y11729D01*
X13576Y10659D02*
Y11729D01*
X13106Y10659D02*
X13576D01*
X13106Y11729D02*
X13576D01*
X13176Y8457D02*
Y9527D01*
X13126Y8457D02*
Y9527D01*
X13596Y8457D02*
Y9527D01*
X13126Y8457D02*
X13596D01*
X13126Y9527D02*
X13596D01*
X11422Y10952D02*
Y11841D01*
Y10952D02*
X11803D01*
Y11841D01*
X11422D02*
X11803D01*
X10884Y11036D02*
Y11925D01*
Y11036D02*
X11265D01*
Y11925D01*
X10884D02*
X11265D01*
X11049Y4902D02*
Y5410D01*
X8509Y4902D02*
X8700D01*
X8509D02*
Y5410D01*
X8700D01*
X11049D01*
X8700Y4902D02*
X11049D01*
X3658Y6045D02*
Y6248D01*
X4267D01*
Y6045D02*
Y6248D01*
X3658Y6045D02*
X4267D01*
X3556Y6147D02*
X3658D01*
X4267D02*
X4369D01*
X6007Y8268D02*
X6896D01*
X6007Y7887D02*
Y8268D01*
Y7887D02*
X6896D01*
Y8268D01*
X3531Y6553D02*
X3683D01*
X4445D02*
X4597D01*
X3683Y6426D02*
Y6680D01*
X4445D01*
Y6426D02*
Y6680D01*
X3683Y6426D02*
X4445D01*
X4318Y6858D02*
Y7061D01*
X3708Y6858D02*
X4318D01*
X3708D02*
Y7061D01*
X4318D01*
Y6960D02*
X4420D01*
X3607D02*
X3708D01*
X8476Y10421D02*
Y10951D01*
X8756Y10421D02*
Y10951D01*
X8476D02*
X8756D01*
X8992Y11024D02*
X9195D01*
Y10414D02*
Y11024D01*
X8992Y10414D02*
X9195D01*
X8992D02*
Y11024D01*
X9093D02*
Y11125D01*
Y10312D02*
Y10414D01*
X7955Y11295D02*
X8158D01*
Y10686D02*
Y11295D01*
X7955Y10686D02*
X8158D01*
X7955D02*
Y11295D01*
X8057D02*
Y11397D01*
Y10584D02*
Y10686D01*
X8611Y6921D02*
Y7455D01*
X8331Y6921D02*
Y7455D01*
X8611D01*
X8331Y6921D02*
X8611D01*
X4610Y10454D02*
Y10984D01*
X4330Y10454D02*
Y10984D01*
Y10454D02*
X4610D01*
X4330Y10984D02*
X4610D01*
X12587Y4483D02*
X13117D01*
X12587Y4763D02*
X13117D01*
X12587Y4483D02*
Y4763D01*
X13117Y4483D02*
Y4763D01*
D30*
X8278Y7061D02*
G03*
X8278Y7061I-12J0D01*
G01*
D31*
X4031Y4986D02*
X4031Y4935D01*
X2728Y4983D02*
X2728Y4933D01*
X4031Y4961D02*
X4183Y4910D01*
X4031Y4961D02*
X4183Y5012D01*
X2576Y4907D02*
X2728Y4958D01*
X2575Y5009D02*
X2728Y4958D01*
X4031Y4961D02*
X4285Y4961D01*
X2474Y4958D02*
X2728Y4958D01*
X2924Y8959D02*
X2974Y8959D01*
X2916Y12664D02*
X2967Y12664D01*
X2898Y9111D02*
X2949Y8959D01*
X2999Y9111D01*
X2891Y12512D02*
X2941Y12664D01*
X2992Y12512D01*
X2947Y9933D02*
X2949Y8959D01*
X2941Y12664D02*
X2943Y11690D01*
X5946Y11735D02*
X6200D01*
X6708D02*
X6962D01*
X6048Y11786D02*
X6200Y11735D01*
X6048Y11684D02*
X6200Y11735D01*
X6708D02*
X6861Y11786D01*
X6708Y11735D02*
X6861Y11684D01*
X6200Y11709D02*
Y11760D01*
X6708Y11709D02*
Y11760D01*
X14605Y12662D02*
X14609Y11096D01*
X14614Y9339D02*
X14618Y7772D01*
X14605Y12662D02*
X14656Y12510D01*
X14555Y12509D02*
X14605Y12662D01*
X14618Y7772D02*
X14668Y7925D01*
X14567Y7925D02*
X14618Y7772D01*
X14580Y12662D02*
X14630Y12662D01*
X14592Y7772D02*
X14643Y7772D01*
X14097Y8382D02*
X14351D01*
X15710D02*
X15964D01*
X14199Y8433D02*
X14351Y8382D01*
X14199Y8331D02*
X14351Y8382D01*
X15710D02*
X15862Y8433D01*
X15710Y8382D02*
X15862Y8331D01*
X14351Y8357D02*
Y8407D01*
X15710Y8357D02*
Y8407D01*
X3137Y8369D02*
X3391D01*
X4458D02*
X4712D01*
X3238Y8420D02*
X3391Y8369D01*
X3238Y8318D02*
X3391Y8369D01*
X4458D02*
X4610Y8420D01*
X4458Y8369D02*
X4610Y8318D01*
X3391Y8344D02*
Y8395D01*
X4458Y8344D02*
Y8395D01*
X13378Y7996D02*
Y8250D01*
Y9761D02*
Y10015D01*
X13327Y8098D02*
X13378Y8250D01*
X13429Y8098D01*
X13327Y9914D02*
X13378Y9761D01*
X13429Y9914D01*
X13353Y8250D02*
X13404D01*
X13353Y9761D02*
X13404D01*
X13383Y10150D02*
Y10404D01*
Y11915D02*
Y12169D01*
X13332Y10251D02*
X13383Y10404D01*
X13434Y10251D01*
X13332Y12068D02*
X13383Y11915D01*
X13434Y12068D01*
X13358Y10404D02*
X13409D01*
X13358Y11915D02*
X13409D01*
X13068Y10899D02*
X13322D01*
X14364D02*
X14618D01*
X13170Y10950D02*
X13322Y10899D01*
X13170Y10848D02*
X13322Y10899D01*
X14364D02*
X14516Y10950D01*
X14364Y10899D02*
X14516Y10848D01*
X13322Y10874D02*
Y10925D01*
X14364Y10874D02*
Y10925D01*
X15499Y3493D02*
X15550Y3494D01*
X15494Y12662D02*
X15545Y12662D01*
X15474Y3646D02*
X15525Y3494D01*
X15575Y3646D01*
X15469Y12509D02*
X15519Y12662D01*
X15570Y12510D01*
X15522Y7288D02*
X15525Y3494D01*
X15519Y12662D02*
X15522Y8867D01*
X2733Y3705D02*
X8293Y3711D01*
X10152Y3713D02*
X15712Y3718D01*
X2733Y3705D02*
X2885Y3756D01*
X2733Y3705D02*
X2885Y3655D01*
X15560Y3769D02*
X15712Y3718D01*
X15560Y3667D02*
X15712Y3718D01*
X2733Y3731D02*
X2733Y3680D01*
X15712Y3744D02*
X15712Y3693D01*
X13856Y4643D02*
X14110D01*
X14618D02*
X14872D01*
X13957Y4694D02*
X14110Y4643D01*
X13957Y4592D02*
X14110Y4643D01*
X14618D02*
X14770Y4694D01*
X14618Y4643D02*
X14770Y4592D01*
X14110Y4618D02*
Y4669D01*
X14618Y4618D02*
Y4669D01*
X3149Y5893D02*
X3149Y5768D01*
X3161Y4011D02*
X3161Y3887D01*
X3149Y5893D02*
X3200Y5741D01*
X3099Y5740D02*
X3149Y5893D01*
X3161Y3887D02*
X3211Y4039D01*
X3110Y4039D02*
X3161Y3887D01*
X3123Y5893D02*
X3174Y5893D01*
X3136Y3886D02*
X3187Y3887D01*
X2730Y5892D02*
X2855Y5893D01*
X4612Y5904D02*
X4737Y5905D01*
X2730Y5892D02*
X2882Y5944D01*
X2730Y5892D02*
X2883Y5842D01*
X4584Y5954D02*
X4737Y5905D01*
X4585Y5853D02*
X4737Y5905D01*
X2730Y5917D02*
X2730Y5866D01*
X4737Y5930D02*
X4737Y5879D01*
X4028Y3635D02*
Y3889D01*
Y4956D02*
Y5210D01*
X3978Y3736D02*
X4028Y3889D01*
X4079Y3736D01*
X3978Y5108D02*
X4028Y4956D01*
X4079Y5108D01*
X4003Y3889D02*
X4054D01*
X4003Y4956D02*
X4054D01*
X3777Y4961D02*
X4031D01*
X4539D02*
X4793D01*
X3879Y5011D02*
X4031Y4961D01*
X3879Y4910D02*
X4031Y4961D01*
X4539D02*
X4691Y5011D01*
X4539Y4961D02*
X4691Y4910D01*
X4031Y4935D02*
Y4986D01*
X4539Y4935D02*
Y4986D01*
X3500Y8235D02*
X3754D01*
X4254D02*
X4508D01*
X3602Y8285D02*
X3754Y8235D01*
X3602Y8184D02*
X3754Y8235D01*
X4254D02*
X4407Y8285D01*
X4254Y8235D02*
X4407Y8184D01*
X3754Y8209D02*
Y8260D01*
X4254Y8209D02*
Y8260D01*
X11417Y7836D02*
X11392Y7861D01*
X11341D01*
X11316Y7836D01*
Y7734D01*
X11341Y7709D01*
X11392D01*
X11417Y7734D01*
X11468Y7836D02*
X11493Y7861D01*
X11544D01*
X11570Y7836D01*
Y7810D01*
X11544Y7785D01*
X11519D01*
X11544D01*
X11570Y7760D01*
Y7734D01*
X11544Y7709D01*
X11493D01*
X11468Y7734D01*
X5169Y10706D02*
Y10579D01*
X5194Y10554D01*
X5245D01*
X5270Y10579D01*
Y10706D01*
X5321Y10681D02*
X5347Y10706D01*
X5397D01*
X5423Y10681D01*
Y10655D01*
X5397Y10630D01*
X5372D01*
X5397D01*
X5423Y10604D01*
Y10579D01*
X5397Y10554D01*
X5347D01*
X5321Y10579D01*
X12589Y10677D02*
X12539D01*
X12564D01*
Y10550D01*
X12539Y10524D01*
X12513D01*
X12488Y10550D01*
X12640Y10474D02*
Y10626D01*
X12716D01*
X12742Y10601D01*
Y10550D01*
X12716Y10524D01*
X12640D01*
X12793D02*
X12843D01*
X12818D01*
Y10677D01*
X12793Y10651D01*
X13120Y12018D02*
Y11916D01*
X13171Y11866D01*
X13222Y11916D01*
Y12018D01*
X13273Y11967D02*
Y11866D01*
Y11916D01*
X13298Y11942D01*
X13324Y11967D01*
X13349D01*
X13501Y11866D02*
X13450D01*
X13425Y11891D01*
Y11942D01*
X13450Y11967D01*
X13501D01*
X13527Y11942D01*
Y11916D01*
X13425D01*
X13628Y11815D02*
X13654D01*
X13679Y11840D01*
Y11967D01*
X13603D01*
X13577Y11942D01*
Y11891D01*
X13603Y11866D01*
X13679D01*
X13730Y11993D02*
X13755Y12018D01*
X13806D01*
X13831Y11993D01*
Y11967D01*
X13806Y11942D01*
X13781D01*
X13806D01*
X13831Y11916D01*
Y11891D01*
X13806Y11866D01*
X13755D01*
X13730Y11891D01*
X13141Y9816D02*
Y9714D01*
X13191Y9663D01*
X13242Y9714D01*
Y9816D01*
X13293Y9765D02*
Y9663D01*
Y9714D01*
X13318Y9740D01*
X13344Y9765D01*
X13369D01*
X13522Y9663D02*
X13471D01*
X13445Y9689D01*
Y9740D01*
X13471Y9765D01*
X13522D01*
X13547Y9740D01*
Y9714D01*
X13445D01*
X13649Y9613D02*
X13674D01*
X13699Y9638D01*
Y9765D01*
X13623D01*
X13598Y9740D01*
Y9689D01*
X13623Y9663D01*
X13699D01*
X13852D02*
X13750D01*
X13852Y9765D01*
Y9790D01*
X13826Y9816D01*
X13775D01*
X13750Y9790D01*
X3489Y9054D02*
Y8952D01*
X3539Y8901D01*
X3590Y8952D01*
Y9054D01*
X3641Y9003D02*
Y8901D01*
Y8952D01*
X3666Y8978D01*
X3692Y9003D01*
X3717D01*
X3870Y8901D02*
X3819D01*
X3793Y8927D01*
Y8978D01*
X3819Y9003D01*
X3870D01*
X3895Y8978D01*
Y8952D01*
X3793D01*
X3997Y8851D02*
X4022D01*
X4047Y8876D01*
Y9003D01*
X3971D01*
X3946Y8978D01*
Y8927D01*
X3971Y8901D01*
X4047D01*
X4098D02*
X4149D01*
X4123D01*
Y9054D01*
X4098Y9028D01*
X7353Y9106D02*
Y8979D01*
X7379Y8954D01*
X7429D01*
X7455Y8979D01*
Y9106D01*
X7506Y8954D02*
X7556D01*
X7531D01*
Y9106D01*
X7506Y9080D01*
X11701Y9770D02*
Y9922D01*
X11777D01*
X11802Y9897D01*
Y9846D01*
X11777Y9821D01*
X11701D01*
X11751D02*
X11802Y9770D01*
X11853D02*
X11904D01*
X11878D01*
Y9922D01*
X11853Y9897D01*
X11980Y9770D02*
X12031D01*
X12005D01*
Y9922D01*
X11980Y9897D01*
X9007Y11397D02*
Y11549D01*
X9083D01*
X9108Y11524D01*
Y11473D01*
X9083Y11448D01*
X9007D01*
X9058D02*
X9108Y11397D01*
X9159D02*
X9210D01*
X9185D01*
Y11549D01*
X9159Y11524D01*
X9286D02*
X9312Y11549D01*
X9362D01*
X9388Y11524D01*
Y11422D01*
X9362Y11397D01*
X9312D01*
X9286Y11422D01*
Y11524D01*
X7971Y11669D02*
Y11821D01*
X8047D01*
X8072Y11796D01*
Y11745D01*
X8047Y11720D01*
X7971D01*
X8021D02*
X8072Y11669D01*
X8123Y11694D02*
X8148Y11669D01*
X8199D01*
X8224Y11694D01*
Y11796D01*
X8199Y11821D01*
X8148D01*
X8123Y11796D01*
Y11770D01*
X8148Y11745D01*
X8224D01*
X3437Y7148D02*
Y7300D01*
X3513D01*
X3538Y7275D01*
Y7224D01*
X3513Y7198D01*
X3437D01*
X3487D02*
X3538Y7148D01*
X3589Y7275D02*
X3614Y7300D01*
X3665D01*
X3691Y7275D01*
Y7249D01*
X3665Y7224D01*
X3691Y7198D01*
Y7173D01*
X3665Y7148D01*
X3614D01*
X3589Y7173D01*
Y7198D01*
X3614Y7224D01*
X3589Y7249D01*
Y7275D01*
X3614Y7224D02*
X3665D01*
X3360Y6767D02*
Y6919D01*
X3437D01*
X3462Y6894D01*
Y6843D01*
X3437Y6817D01*
X3360D01*
X3411D02*
X3462Y6767D01*
X3513Y6919D02*
X3614D01*
Y6894D01*
X3513Y6792D01*
Y6767D01*
X3386Y6335D02*
Y6487D01*
X3462D01*
X3487Y6462D01*
Y6411D01*
X3462Y6386D01*
X3386D01*
X3437D02*
X3487Y6335D01*
X3640Y6487D02*
X3589Y6462D01*
X3538Y6411D01*
Y6360D01*
X3564Y6335D01*
X3614D01*
X3640Y6360D01*
Y6386D01*
X3614Y6411D01*
X3538D01*
X9185Y7866D02*
Y8019D01*
X9261D01*
X9286Y7993D01*
Y7943D01*
X9261Y7917D01*
X9185D01*
X9235D02*
X9286Y7866D01*
X9439Y8019D02*
X9337D01*
Y7943D01*
X9388Y7968D01*
X9413D01*
X9439Y7943D01*
Y7892D01*
X9413Y7866D01*
X9362D01*
X9337Y7892D01*
X9489Y7866D02*
Y8019D01*
X9566D01*
X9591Y7993D01*
Y7943D01*
X9566Y7917D01*
X9489D01*
X9540D02*
X9591Y7866D01*
X9718D02*
Y8019D01*
X9642Y7943D01*
X9743D01*
X9794Y7866D02*
Y8019D01*
X9870D01*
X9896Y7993D01*
Y7943D01*
X9870Y7917D01*
X9794D01*
X9845D02*
X9896Y7866D01*
X9947Y7993D02*
X9972Y8019D01*
X10023D01*
X10048Y7993D01*
Y7968D01*
X10023Y7943D01*
X9997D01*
X10023D01*
X10048Y7917D01*
Y7892D01*
X10023Y7866D01*
X9972D01*
X9947Y7892D01*
X7076Y8451D02*
Y8603D01*
X7153D01*
X7178Y8578D01*
Y8527D01*
X7153Y8501D01*
X7076D01*
X7127D02*
X7178Y8451D01*
X7330D02*
X7229D01*
X7330Y8552D01*
Y8578D01*
X7305Y8603D01*
X7254D01*
X7229Y8578D01*
X3674Y11447D02*
Y11599D01*
X3750D01*
X3776Y11573D01*
Y11523D01*
X3750Y11497D01*
X3674D01*
X3725D02*
X3776Y11447D01*
X3826D02*
X3877D01*
X3852D01*
Y11599D01*
X3826Y11573D01*
X6994Y5828D02*
Y5930D01*
X6968Y5955D01*
X6918D01*
X6892Y5930D01*
Y5828D01*
X6918Y5803D01*
X6968D01*
X6943Y5853D02*
X6994Y5803D01*
X6968D02*
X6994Y5828D01*
X7045Y5803D02*
X7095D01*
X7070D01*
Y5955D01*
X7045Y5930D01*
X8265Y7694D02*
Y7541D01*
X8367D01*
X8519Y7668D02*
X8494Y7694D01*
X8443D01*
X8418Y7668D01*
Y7643D01*
X8443Y7617D01*
X8494D01*
X8519Y7592D01*
Y7567D01*
X8494Y7541D01*
X8443D01*
X8418Y7567D01*
X8570Y7541D02*
X8621D01*
X8595D01*
Y7694D01*
X8570Y7668D01*
X10180Y12027D02*
Y11875D01*
X10282D01*
X10434D02*
X10333D01*
X10434Y11976D01*
Y12001D01*
X10409Y12027D01*
X10358D01*
X10333Y12001D01*
X5963Y6666D02*
Y6514D01*
X6064D01*
X6115D02*
X6166D01*
X6140D01*
Y6666D01*
X6115Y6641D01*
X8489Y5649D02*
X8438D01*
X8463D01*
Y5522D01*
X8438Y5497D01*
X8412D01*
X8387Y5522D01*
X8539Y5497D02*
Y5649D01*
X8616D01*
X8641Y5624D01*
Y5573D01*
X8616Y5547D01*
X8539D01*
X8692Y5624D02*
X8717Y5649D01*
X8768D01*
X8793Y5624D01*
Y5598D01*
X8768Y5573D01*
X8743D01*
X8768D01*
X8793Y5547D01*
Y5522D01*
X8768Y5497D01*
X8717D01*
X8692Y5522D01*
X8491Y11549D02*
Y11397D01*
X8567D01*
X8593Y11422D01*
Y11524D01*
X8567Y11549D01*
X8491D01*
X8644D02*
X8745D01*
Y11524D01*
X8644Y11422D01*
Y11397D01*
X5311Y7366D02*
Y7214D01*
X5387D01*
X5413Y7239D01*
Y7341D01*
X5387Y7366D01*
X5311D01*
X5565D02*
X5514Y7341D01*
X5463Y7290D01*
Y7239D01*
X5489Y7214D01*
X5540D01*
X5565Y7239D01*
Y7264D01*
X5540Y7290D01*
X5463D01*
X5413Y9855D02*
Y9703D01*
X5489D01*
X5514Y9728D01*
Y9830D01*
X5489Y9855D01*
X5413D01*
X5667D02*
X5565D01*
Y9779D01*
X5616Y9804D01*
X5641D01*
X5667Y9779D01*
Y9728D01*
X5641Y9703D01*
X5590D01*
X5565Y9728D01*
X12047Y12159D02*
Y12007D01*
X12123D01*
X12149Y12032D01*
Y12134D01*
X12123Y12159D01*
X12047D01*
X12276Y12007D02*
Y12159D01*
X12200Y12083D01*
X12301D01*
X12271Y10058D02*
Y9906D01*
X12347D01*
X12372Y9931D01*
Y10033D01*
X12347Y10058D01*
X12271D01*
X12423Y10033D02*
X12448Y10058D01*
X12499D01*
X12525Y10033D01*
Y10008D01*
X12499Y9982D01*
X12474D01*
X12499D01*
X12525Y9957D01*
Y9931D01*
X12499Y9906D01*
X12448D01*
X12423Y9931D01*
X4691Y9802D02*
Y9649D01*
X4768D01*
X4793Y9675D01*
Y9776D01*
X4768Y9802D01*
X4691D01*
X4945Y9649D02*
X4844D01*
X4945Y9751D01*
Y9776D01*
X4920Y9802D01*
X4869D01*
X4844Y9776D01*
X12192Y4493D02*
Y4341D01*
X12268D01*
X12294Y4366D01*
Y4468D01*
X12268Y4493D01*
X12192D01*
X12344Y4341D02*
X12395D01*
X12370D01*
Y4493D01*
X12344Y4468D01*
X11001Y12139D02*
X10975Y12164D01*
X10925D01*
X10899Y12139D01*
Y12037D01*
X10925Y12012D01*
X10975D01*
X11001Y12037D01*
X11051Y12012D02*
X11102D01*
X11077D01*
Y12164D01*
X11051Y12139D01*
X11178Y12012D02*
X11229D01*
X11204D01*
Y12164D01*
X11178Y12139D01*
X9721Y11872D02*
X9695Y11897D01*
X9644D01*
X9619Y11872D01*
Y11770D01*
X9644Y11745D01*
X9695D01*
X9721Y11770D01*
X9771Y11745D02*
X9822D01*
X9797D01*
Y11897D01*
X9771Y11872D01*
X9898D02*
X9924Y11897D01*
X9974D01*
X10000Y11872D01*
Y11770D01*
X9974Y11745D01*
X9924D01*
X9898Y11770D01*
Y11872D01*
X9853Y10874D02*
X9827Y10899D01*
X9776D01*
X9751Y10874D01*
Y10772D01*
X9776Y10747D01*
X9827D01*
X9853Y10772D01*
X9903D02*
X9929Y10747D01*
X9980D01*
X10005Y10772D01*
Y10874D01*
X9980Y10899D01*
X9929D01*
X9903Y10874D01*
Y10848D01*
X9929Y10823D01*
X10005D01*
X6317Y7706D02*
X6292Y7732D01*
X6241D01*
X6215Y7706D01*
Y7605D01*
X6241Y7579D01*
X6292D01*
X6317Y7605D01*
X6368Y7706D02*
X6393Y7732D01*
X6444D01*
X6469Y7706D01*
Y7681D01*
X6444Y7656D01*
X6469Y7630D01*
Y7605D01*
X6444Y7579D01*
X6393D01*
X6368Y7605D01*
Y7630D01*
X6393Y7656D01*
X6368Y7681D01*
Y7706D01*
X6393Y7656D02*
X6444D01*
X6124Y8481D02*
X6099Y8506D01*
X6048D01*
X6022Y8481D01*
Y8379D01*
X6048Y8354D01*
X6099D01*
X6124Y8379D01*
X6175Y8506D02*
X6276D01*
Y8481D01*
X6175Y8379D01*
Y8354D01*
X6835Y4671D02*
X6810Y4696D01*
X6759D01*
X6734Y4671D01*
Y4569D01*
X6759Y4544D01*
X6810D01*
X6835Y4569D01*
X6987Y4696D02*
X6937Y4671D01*
X6886Y4620D01*
Y4569D01*
X6911Y4544D01*
X6962D01*
X6987Y4569D01*
Y4595D01*
X6962Y4620D01*
X6886D01*
X7496Y7211D02*
X7470Y7236D01*
X7419D01*
X7394Y7211D01*
Y7109D01*
X7419Y7084D01*
X7470D01*
X7496Y7109D01*
X7648Y7236D02*
X7546D01*
Y7160D01*
X7597Y7186D01*
X7622D01*
X7648Y7160D01*
Y7109D01*
X7622Y7084D01*
X7572D01*
X7546Y7109D01*
X11539Y12055D02*
X11514Y12080D01*
X11463D01*
X11438Y12055D01*
Y11953D01*
X11463Y11928D01*
X11514D01*
X11539Y11953D01*
X11666Y11928D02*
Y12080D01*
X11590Y12004D01*
X11692D01*
X11468Y6312D02*
X11443Y6337D01*
X11392D01*
X11367Y6312D01*
Y6210D01*
X11392Y6185D01*
X11443D01*
X11468Y6210D01*
X11620Y6185D02*
X11519D01*
X11620Y6286D01*
Y6312D01*
X11595Y6337D01*
X11544D01*
X11519Y6312D01*
X12238Y5011D02*
X12136D01*
Y4935D01*
X12187D01*
X12136D01*
Y4859D01*
X12288D02*
X12339D01*
X12314D01*
Y5011D01*
X12288Y4986D01*
X4437Y11689D02*
X4336D01*
Y11613D01*
X4387D01*
X4336D01*
Y11537D01*
X4590D02*
X4488D01*
X4590Y11638D01*
Y11664D01*
X4564Y11689D01*
X4514D01*
X4488Y11664D01*
D32*
X2540Y4592D02*
X2590Y4592D01*
X2565Y4592D01*
X2565Y4744D01*
X2539Y4719D01*
X2666Y4719D02*
X2692Y4745D01*
X2743Y4745D01*
X2768Y4719D01*
X2768Y4694D01*
X2743Y4669D01*
X2717Y4669D01*
X2743Y4669D01*
X2768Y4643D01*
X2768Y4618D01*
X2743Y4592D01*
X2692Y4592D01*
X2667Y4618D01*
X2819Y4593D02*
X2819Y4618D01*
X2844Y4618D01*
X2844Y4593D01*
X2819Y4593D01*
X2946Y4720D02*
X2971Y4745D01*
X3022Y4745D01*
X3047Y4720D01*
X3047Y4618D01*
X3022Y4593D01*
X2971Y4593D01*
X2946Y4618D01*
X2946Y4720D01*
X3098Y4720D02*
X3123Y4746D01*
X3174Y4746D01*
X3200Y4720D01*
X3200Y4695D01*
X3174Y4669D01*
X3149Y4669D01*
X3174Y4669D01*
X3200Y4644D01*
X3200Y4619D01*
X3175Y4593D01*
X3124Y4593D01*
X3098Y4619D01*
X3250Y4720D02*
X3276Y4746D01*
X3327Y4746D01*
X3352Y4721D01*
X3352Y4619D01*
X3327Y4594D01*
X3276Y4593D01*
X3251Y4619D01*
X3250Y4720D01*
X3505Y4594D02*
X3403Y4594D01*
X3504Y4695D01*
X3504Y4721D01*
X3479Y4746D01*
X3428Y4746D01*
X3403Y4721D01*
X3759Y4594D02*
X3708Y4645D01*
X3708Y4696D01*
X3758Y4747D01*
X3835Y4595D02*
X3834Y4696D01*
X3860Y4696D01*
X3885Y4671D01*
X3885Y4595D01*
X3885Y4671D01*
X3911Y4696D01*
X3936Y4671D01*
X3936Y4595D01*
X3987Y4595D02*
X3987Y4696D01*
X4012Y4696D01*
X4038Y4671D01*
X4038Y4595D01*
X4038Y4671D01*
X4063Y4697D01*
X4088Y4671D01*
X4089Y4595D01*
X4139Y4595D02*
X4190Y4646D01*
X4190Y4697D01*
X4139Y4748D01*
X2979Y11665D02*
X3004Y11639D01*
X3004Y11589D01*
X2979Y11563D01*
X2954Y11563D01*
X2928Y11588D01*
X2928Y11614D01*
X2928Y11588D01*
X2903Y11563D01*
X2878Y11563D01*
X2852Y11588D01*
X2852Y11639D01*
X2877Y11665D01*
X3005Y11512D02*
X3005Y11411D01*
X2979Y11411D01*
X2878Y11512D01*
X2852Y11512D01*
X2853Y11360D02*
X2878Y11360D01*
X2878Y11334D01*
X2853Y11334D01*
X2853Y11360D01*
X2980Y11233D02*
X3005Y11208D01*
X3005Y11157D01*
X2980Y11132D01*
X2878Y11131D01*
X2853Y11157D01*
X2853Y11207D01*
X2878Y11233D01*
X2980Y11233D01*
X3006Y10979D02*
X3006Y11081D01*
X2929Y11081D01*
X2955Y11030D01*
X2955Y11005D01*
X2930Y10979D01*
X2879Y10979D01*
X2853Y11004D01*
X2853Y11055D01*
X2879Y11081D01*
X2980Y10928D02*
X3006Y10903D01*
X3006Y10852D01*
X2981Y10827D01*
X2955Y10827D01*
X2930Y10852D01*
X2904Y10827D01*
X2879Y10827D01*
X2854Y10852D01*
X2854Y10903D01*
X2879Y10928D01*
X2904Y10928D01*
X2930Y10903D01*
X2955Y10928D01*
X2980Y10928D01*
X2930Y10903D02*
X2930Y10852D01*
X3006Y10776D02*
X3006Y10675D01*
X2981Y10674D01*
X2879Y10776D01*
X2854Y10776D01*
X2855Y10420D02*
X2905Y10471D01*
X2956Y10471D01*
X3007Y10421D01*
X2855Y10344D02*
X2956Y10344D01*
X2956Y10319D01*
X2931Y10293D01*
X2855Y10293D01*
X2931Y10293D01*
X2956Y10268D01*
X2931Y10243D01*
X2855Y10243D01*
X2855Y10192D02*
X2957Y10192D01*
X2957Y10167D01*
X2931Y10141D01*
X2855Y10141D01*
X2931Y10141D01*
X2957Y10116D01*
X2931Y10090D01*
X2855Y10090D01*
X2855Y10039D02*
X2906Y9989D01*
X2957Y9989D01*
X3008Y10040D01*
X5931Y11521D02*
X5829D01*
Y11445D01*
X5880Y11471D01*
X5906D01*
X5931Y11445D01*
Y11395D01*
X5906Y11369D01*
X5855D01*
X5829Y11395D01*
X5982Y11369D02*
Y11395D01*
X6007D01*
Y11369D01*
X5982D01*
X6109Y11496D02*
X6134Y11521D01*
X6185D01*
X6210Y11496D01*
Y11395D01*
X6185Y11369D01*
X6134D01*
X6109Y11395D01*
Y11496D01*
X6261D02*
X6287Y11521D01*
X6337D01*
X6363Y11496D01*
Y11471D01*
X6337Y11445D01*
X6363Y11420D01*
Y11395D01*
X6337Y11369D01*
X6287D01*
X6261Y11395D01*
Y11420D01*
X6287Y11445D01*
X6261Y11471D01*
Y11496D01*
X6287Y11445D02*
X6337D01*
X6617Y11369D02*
X6566Y11420D01*
Y11471D01*
X6617Y11521D01*
X6693Y11369D02*
Y11471D01*
X6718D01*
X6744Y11445D01*
Y11369D01*
Y11445D01*
X6769Y11471D01*
X6794Y11445D01*
Y11369D01*
X6845D02*
Y11471D01*
X6871D01*
X6896Y11445D01*
Y11369D01*
Y11445D01*
X6921Y11471D01*
X6947Y11445D01*
Y11369D01*
X6998D02*
X7048Y11420D01*
Y11471D01*
X6998Y11521D01*
X14518Y10994D02*
X14670Y10994D01*
X14594Y11070D01*
X14594Y10969D01*
X14645Y10918D02*
X14671Y10893D01*
X14671Y10842D01*
X14645Y10816D01*
X14620Y10816D01*
X14594Y10842D01*
X14569Y10816D01*
X14544Y10816D01*
X14518Y10842D01*
X14518Y10892D01*
X14544Y10918D01*
X14569Y10918D01*
X14594Y10893D01*
X14620Y10918D01*
X14645Y10918D01*
X14594Y10893D02*
X14594Y10842D01*
X14519Y10765D02*
X14544Y10765D01*
X14544Y10740D01*
X14519Y10740D01*
X14519Y10765D01*
X14646Y10639D02*
X14671Y10613D01*
X14671Y10563D01*
X14646Y10537D01*
X14621Y10537D01*
X14595Y10562D01*
X14570Y10537D01*
X14544Y10537D01*
X14519Y10562D01*
X14519Y10613D01*
X14544Y10638D01*
X14570Y10639D01*
X14595Y10613D01*
X14620Y10639D01*
X14646Y10639D01*
X14595Y10613D02*
X14595Y10562D01*
X14545Y10486D02*
X14519Y10461D01*
X14519Y10410D01*
X14545Y10385D01*
X14646Y10385D01*
X14672Y10410D01*
X14672Y10461D01*
X14646Y10486D01*
X14621Y10486D01*
X14595Y10461D01*
X14596Y10385D01*
X14672Y10233D02*
X14672Y10334D01*
X14596Y10334D01*
X14621Y10283D01*
X14621Y10258D01*
X14596Y10232D01*
X14545Y10232D01*
X14520Y10258D01*
X14520Y10308D01*
X14545Y10334D01*
X14520Y10080D02*
X14520Y10181D01*
X14622Y10080D01*
X14647Y10080D01*
X14673Y10106D01*
X14672Y10156D01*
X14647Y10182D01*
X14521Y9826D02*
X14572Y9877D01*
X14622Y9877D01*
X14673Y9826D01*
X14521Y9750D02*
X14623Y9750D01*
X14623Y9725D01*
X14597Y9699D01*
X14521Y9699D01*
X14597Y9699D01*
X14623Y9674D01*
X14598Y9648D01*
X14521Y9648D01*
X14522Y9597D02*
X14623Y9598D01*
X14623Y9572D01*
X14598Y9547D01*
X14522Y9547D01*
X14598Y9547D01*
X14623Y9521D01*
X14598Y9496D01*
X14522Y9496D01*
X14522Y9445D02*
X14573Y9394D01*
X14624Y9394D01*
X14674Y9445D01*
X14266Y8016D02*
X14317D01*
X14292D01*
Y8169D01*
X14266Y8143D01*
X14393D02*
X14419Y8169D01*
X14469D01*
X14495Y8143D01*
Y8118D01*
X14469Y8093D01*
X14444D01*
X14469D01*
X14495Y8067D01*
Y8042D01*
X14469Y8016D01*
X14419D01*
X14393Y8042D01*
X14545Y8016D02*
Y8042D01*
X14571D01*
Y8016D01*
X14545D01*
X14774Y8169D02*
X14672D01*
Y8093D01*
X14723Y8118D01*
X14749D01*
X14774Y8093D01*
Y8042D01*
X14749Y8016D01*
X14698D01*
X14672Y8042D01*
X14825Y8143D02*
X14850Y8169D01*
X14901D01*
X14926Y8143D01*
Y8118D01*
X14901Y8093D01*
X14926Y8067D01*
Y8042D01*
X14901Y8016D01*
X14850D01*
X14825Y8042D01*
Y8067D01*
X14850Y8093D01*
X14825Y8118D01*
Y8143D01*
X14850Y8093D02*
X14901D01*
X14977Y8042D02*
X15003Y8016D01*
X15053D01*
X15079Y8042D01*
Y8143D01*
X15053Y8169D01*
X15003D01*
X14977Y8143D01*
Y8118D01*
X15003Y8093D01*
X15079D01*
X15333Y8016D02*
X15282Y8067D01*
Y8118D01*
X15333Y8169D01*
X15409Y8016D02*
Y8118D01*
X15434D01*
X15460Y8093D01*
Y8016D01*
Y8093D01*
X15485Y8118D01*
X15510Y8093D01*
Y8016D01*
X15561D02*
Y8118D01*
X15587D01*
X15612Y8093D01*
Y8016D01*
Y8093D01*
X15637Y8118D01*
X15663Y8093D01*
Y8016D01*
X15713D02*
X15764Y8067D01*
Y8118D01*
X15713Y8169D01*
X3160Y8004D02*
X3211D01*
X3185D01*
Y8156D01*
X3160Y8131D01*
X3287D02*
X3312Y8156D01*
X3363D01*
X3389Y8131D01*
Y8029D01*
X3363Y8004D01*
X3312D01*
X3287Y8029D01*
Y8131D01*
X3439Y8004D02*
Y8029D01*
X3465D01*
Y8004D01*
X3439D01*
X3668Y8156D02*
X3617Y8131D01*
X3566Y8080D01*
Y8029D01*
X3592Y8004D01*
X3642D01*
X3668Y8029D01*
Y8054D01*
X3642Y8080D01*
X3566D01*
X3820Y8156D02*
X3769Y8131D01*
X3719Y8080D01*
Y8029D01*
X3744Y8004D01*
X3795D01*
X3820Y8029D01*
Y8054D01*
X3795Y8080D01*
X3719D01*
X3871Y8131D02*
X3896Y8156D01*
X3947D01*
X3973Y8131D01*
Y8105D01*
X3947Y8080D01*
X3973Y8054D01*
Y8029D01*
X3947Y8004D01*
X3896D01*
X3871Y8029D01*
Y8054D01*
X3896Y8080D01*
X3871Y8105D01*
Y8131D01*
X3896Y8080D02*
X3947D01*
X4226Y8004D02*
X4176Y8054D01*
Y8105D01*
X4226Y8156D01*
X4303Y8004D02*
Y8105D01*
X4328D01*
X4353Y8080D01*
Y8004D01*
Y8080D01*
X4379Y8105D01*
X4404Y8080D01*
Y8004D01*
X4455D02*
Y8105D01*
X4480D01*
X4506Y8080D01*
Y8004D01*
Y8080D01*
X4531Y8105D01*
X4557Y8080D01*
Y8004D01*
X4607D02*
X4658Y8054D01*
Y8105D01*
X4607Y8156D01*
X13744Y8267D02*
Y8317D01*
Y8292D01*
X13591D01*
X13617Y8267D01*
X13591Y8495D02*
Y8394D01*
X13668D01*
X13642Y8444D01*
Y8470D01*
X13668Y8495D01*
X13718D01*
X13744Y8470D01*
Y8419D01*
X13718Y8394D01*
X13744Y8546D02*
X13718D01*
Y8571D01*
X13744D01*
Y8546D01*
Y8673D02*
Y8724D01*
Y8698D01*
X13591D01*
X13617Y8673D01*
X13744Y8800D02*
Y8851D01*
Y8825D01*
X13591D01*
X13617Y8800D01*
Y8927D02*
X13591Y8952D01*
Y9003D01*
X13617Y9028D01*
X13642D01*
X13668Y9003D01*
Y8978D01*
Y9003D01*
X13693Y9028D01*
X13718D01*
X13744Y9003D01*
Y8952D01*
X13718Y8927D01*
X13744Y9282D02*
X13693Y9232D01*
X13642D01*
X13591Y9282D01*
X13744Y9359D02*
X13642D01*
Y9384D01*
X13668Y9409D01*
X13744D01*
X13668D01*
X13642Y9435D01*
X13668Y9460D01*
X13744D01*
Y9511D02*
X13642D01*
Y9536D01*
X13668Y9562D01*
X13744D01*
X13668D01*
X13642Y9587D01*
X13668Y9612D01*
X13744D01*
Y9663D02*
X13693Y9714D01*
X13642D01*
X13591Y9663D01*
X13749Y10421D02*
Y10471D01*
Y10446D01*
X13597D01*
X13622Y10421D01*
X13597Y10649D02*
Y10548D01*
X13673D01*
X13647Y10598D01*
Y10624D01*
X13673Y10649D01*
X13724D01*
X13749Y10624D01*
Y10573D01*
X13724Y10548D01*
X13749Y10700D02*
X13724D01*
Y10725D01*
X13749D01*
Y10700D01*
Y10827D02*
Y10878D01*
Y10852D01*
X13597D01*
X13622Y10827D01*
X13749Y10954D02*
Y11005D01*
Y10979D01*
X13597D01*
X13622Y10954D01*
Y11081D02*
X13597Y11106D01*
Y11157D01*
X13622Y11182D01*
X13647D01*
X13673Y11157D01*
Y11132D01*
Y11157D01*
X13698Y11182D01*
X13724D01*
X13749Y11157D01*
Y11106D01*
X13724Y11081D01*
X13749Y11436D02*
X13698Y11385D01*
X13647D01*
X13597Y11436D01*
X13749Y11512D02*
X13647D01*
Y11538D01*
X13673Y11563D01*
X13749D01*
X13673D01*
X13647Y11589D01*
X13673Y11614D01*
X13749D01*
Y11665D02*
X13647D01*
Y11690D01*
X13673Y11716D01*
X13749D01*
X13673D01*
X13647Y11741D01*
X13673Y11766D01*
X13749D01*
Y11817D02*
X13698Y11868D01*
X13647D01*
X13597Y11817D01*
X13091Y10533D02*
X13142D01*
X13117D01*
Y10686D01*
X13091Y10660D01*
X13218D02*
X13244Y10686D01*
X13295D01*
X13320Y10660D01*
Y10559D01*
X13295Y10533D01*
X13244D01*
X13218Y10559D01*
Y10660D01*
X13371Y10533D02*
Y10559D01*
X13396D01*
Y10533D01*
X13371D01*
X13574D02*
Y10686D01*
X13498Y10610D01*
X13599D01*
X13650Y10533D02*
X13701D01*
X13675D01*
Y10686D01*
X13650Y10660D01*
X13853Y10533D02*
Y10686D01*
X13777Y10610D01*
X13879D01*
X14132Y10533D02*
X14082Y10584D01*
Y10635D01*
X14132Y10686D01*
X14209Y10533D02*
Y10635D01*
X14234D01*
X14259Y10610D01*
Y10533D01*
Y10610D01*
X14285Y10635D01*
X14310Y10610D01*
Y10533D01*
X14361D02*
Y10635D01*
X14386D01*
X14412Y10610D01*
Y10533D01*
Y10610D01*
X14437Y10635D01*
X14463Y10610D01*
Y10533D01*
X14513D02*
X14564Y10584D01*
Y10635D01*
X14513Y10686D01*
X15456Y8842D02*
X15430Y8817D01*
X15430Y8766D01*
X15456Y8740D01*
X15557Y8740D01*
X15583Y8766D01*
X15582Y8817D01*
X15557Y8842D01*
X15532Y8842D01*
X15506Y8817D01*
X15506Y8740D01*
X15430Y8690D02*
X15430Y8639D01*
X15430Y8664D01*
X15583Y8664D01*
X15557Y8690D01*
X15430Y8563D02*
X15456Y8563D01*
X15456Y8537D01*
X15430Y8537D01*
X15430Y8563D01*
X15583Y8334D02*
X15557Y8385D01*
X15507Y8436D01*
X15456Y8436D01*
X15430Y8410D01*
X15430Y8360D01*
X15456Y8334D01*
X15481Y8334D01*
X15507Y8360D01*
X15507Y8436D01*
X15557Y8283D02*
X15583Y8258D01*
X15583Y8207D01*
X15557Y8182D01*
X15532Y8182D01*
X15507Y8207D01*
X15481Y8182D01*
X15456Y8182D01*
X15430Y8207D01*
X15430Y8258D01*
X15456Y8283D01*
X15481Y8283D01*
X15507Y8258D01*
X15532Y8283D01*
X15557Y8283D01*
X15507Y8258D02*
X15507Y8207D01*
X15431Y8055D02*
X15583Y8055D01*
X15507Y8131D01*
X15507Y8029D01*
X15431Y7775D02*
X15481Y7826D01*
X15532Y7826D01*
X15583Y7776D01*
X15431Y7699D02*
X15532Y7699D01*
X15532Y7674D01*
X15507Y7649D01*
X15431Y7649D01*
X15507Y7649D01*
X15532Y7623D01*
X15507Y7598D01*
X15431Y7598D01*
X15431Y7547D02*
X15532Y7547D01*
X15532Y7522D01*
X15507Y7496D01*
X15431Y7496D01*
X15507Y7496D01*
X15532Y7471D01*
X15507Y7445D01*
X15431Y7445D01*
X15431Y7395D02*
X15482Y7344D01*
X15533Y7344D01*
X15583Y7395D01*
X8318Y3619D02*
X8369Y3620D01*
X8344Y3620D01*
X8344Y3772D01*
X8318Y3746D01*
X8547Y3620D02*
X8445Y3620D01*
X8547Y3721D01*
X8547Y3747D01*
X8521Y3772D01*
X8471Y3772D01*
X8445Y3747D01*
X8598Y3645D02*
X8623Y3620D01*
X8674Y3620D01*
X8699Y3645D01*
X8699Y3747D01*
X8674Y3772D01*
X8623Y3772D01*
X8598Y3747D01*
X8598Y3721D01*
X8623Y3696D01*
X8699Y3696D01*
X8750Y3620D02*
X8750Y3645D01*
X8776Y3645D01*
X8776Y3620D01*
X8750Y3620D01*
X8877Y3772D02*
X8979Y3772D01*
X8979Y3747D01*
X8877Y3645D01*
X8877Y3620D01*
X9029Y3646D02*
X9055Y3620D01*
X9106Y3620D01*
X9131Y3646D01*
X9131Y3747D01*
X9105Y3773D01*
X9055Y3773D01*
X9029Y3747D01*
X9029Y3722D01*
X9055Y3696D01*
X9131Y3696D01*
X9258Y3620D02*
X9258Y3773D01*
X9182Y3697D01*
X9283Y3697D01*
X9334Y3620D02*
X9385Y3621D01*
X9360Y3621D01*
X9359Y3773D01*
X9334Y3747D01*
X9664Y3621D02*
X9613Y3672D01*
X9613Y3722D01*
X9664Y3773D01*
X9740Y3621D02*
X9740Y3722D01*
X9766Y3722D01*
X9791Y3697D01*
X9791Y3621D01*
X9791Y3697D01*
X9817Y3723D01*
X9842Y3697D01*
X9842Y3621D01*
X9893Y3621D02*
X9893Y3723D01*
X9918Y3723D01*
X9943Y3697D01*
X9944Y3621D01*
X9943Y3697D01*
X9969Y3723D01*
X9994Y3697D01*
X9994Y3621D01*
X10045Y3621D02*
X10096Y3672D01*
X10096Y3723D01*
X10045Y3774D01*
X13841Y4430D02*
X13739D01*
Y4354D01*
X13790Y4379D01*
X13815D01*
X13841Y4354D01*
Y4303D01*
X13815Y4277D01*
X13764D01*
X13739Y4303D01*
X13891Y4277D02*
Y4303D01*
X13917D01*
Y4277D01*
X13891D01*
X14018Y4404D02*
X14044Y4430D01*
X14095D01*
X14120Y4404D01*
Y4303D01*
X14095Y4277D01*
X14044D01*
X14018Y4303D01*
Y4404D01*
X14171D02*
X14196Y4430D01*
X14247D01*
X14272Y4404D01*
Y4379D01*
X14247Y4354D01*
X14272Y4328D01*
Y4303D01*
X14247Y4277D01*
X14196D01*
X14171Y4303D01*
Y4328D01*
X14196Y4354D01*
X14171Y4379D01*
Y4404D01*
X14196Y4354D02*
X14247D01*
X14526Y4277D02*
X14475Y4328D01*
Y4379D01*
X14526Y4430D01*
X14602Y4277D02*
Y4379D01*
X14628D01*
X14653Y4354D01*
Y4277D01*
Y4354D01*
X14679Y4379D01*
X14704Y4354D01*
Y4277D01*
X14755D02*
Y4379D01*
X14780D01*
X14806Y4354D01*
Y4277D01*
Y4354D01*
X14831Y4379D01*
X14856Y4354D01*
Y4277D01*
X14907D02*
X14958Y4328D01*
Y4379D01*
X14907Y4430D01*
X3059Y5641D02*
X3058Y5742D01*
X3160Y5641D01*
X3186Y5642D01*
X3211Y5667D01*
X3211Y5718D01*
X3185Y5743D01*
X3186Y5591D02*
X3212Y5566D01*
X3212Y5515D01*
X3187Y5489D01*
X3085Y5489D01*
X3060Y5514D01*
X3059Y5565D01*
X3085Y5590D01*
X3186Y5591D01*
X3060Y5438D02*
X3085Y5438D01*
X3086Y5412D01*
X3060Y5412D01*
X3060Y5438D01*
X3188Y5312D02*
X3213Y5286D01*
X3214Y5236D01*
X3189Y5210D01*
X3087Y5209D01*
X3061Y5235D01*
X3061Y5285D01*
X3086Y5311D01*
X3188Y5312D01*
X3215Y5058D02*
X3189Y5108D01*
X3138Y5159D01*
X3087Y5159D01*
X3062Y5133D01*
X3062Y5082D01*
X3088Y5057D01*
X3113Y5057D01*
X3139Y5083D01*
X3138Y5159D01*
X3216Y4905D02*
X3190Y4956D01*
X3139Y5007D01*
X3088Y5006D01*
X3063Y4981D01*
X3063Y4930D01*
X3089Y4905D01*
X3114Y4905D01*
X3139Y4930D01*
X3139Y5007D01*
X3064Y4778D02*
X3217Y4778D01*
X3140Y4854D01*
X3141Y4753D01*
X3066Y4498D02*
X3117Y4549D01*
X3167Y4550D01*
X3218Y4499D01*
X3067Y4422D02*
X3168Y4423D01*
X3168Y4397D01*
X3143Y4372D01*
X3067Y4371D01*
X3143Y4372D01*
X3169Y4347D01*
X3143Y4321D01*
X3067Y4320D01*
X3067Y4270D02*
X3169Y4270D01*
X3169Y4245D01*
X3144Y4219D01*
X3068Y4219D01*
X3144Y4219D01*
X3170Y4194D01*
X3144Y4169D01*
X3068Y4168D01*
X3068Y4117D02*
X3120Y4067D01*
X3170Y4067D01*
X3221Y4118D01*
X2982Y5802D02*
X2881Y5801D01*
X2982Y5904D01*
X2982Y5929D01*
X2956Y5954D01*
X2905Y5954D01*
X2880Y5928D01*
X3032Y5929D02*
X3058Y5955D01*
X3108Y5955D01*
X3134Y5930D01*
X3135Y5828D01*
X3109Y5803D01*
X3059Y5802D01*
X3033Y5828D01*
X3032Y5929D01*
X3186Y5803D02*
X3185Y5829D01*
X3211Y5829D01*
X3211Y5803D01*
X3186Y5803D01*
X3312Y5931D02*
X3337Y5957D01*
X3388Y5957D01*
X3413Y5932D01*
X3414Y5830D01*
X3389Y5805D01*
X3338Y5804D01*
X3312Y5829D01*
X3312Y5931D01*
X3566Y5958D02*
X3515Y5932D01*
X3464Y5881D01*
X3465Y5830D01*
X3490Y5805D01*
X3541Y5806D01*
X3566Y5831D01*
X3566Y5856D01*
X3541Y5882D01*
X3464Y5881D01*
X3718Y5959D02*
X3667Y5933D01*
X3617Y5882D01*
X3617Y5831D01*
X3643Y5806D01*
X3693Y5807D01*
X3719Y5832D01*
X3718Y5857D01*
X3693Y5883D01*
X3617Y5882D01*
X3846Y5807D02*
X3845Y5960D01*
X3769Y5883D01*
X3871Y5884D01*
X4125Y5809D02*
X4074Y5860D01*
X4074Y5910D01*
X4124Y5962D01*
X4201Y5810D02*
X4201Y5911D01*
X4226Y5911D01*
X4252Y5886D01*
X4252Y5810D01*
X4252Y5886D01*
X4277Y5912D01*
X4302Y5887D01*
X4303Y5810D01*
X4354Y5811D02*
X4353Y5912D01*
X4378Y5912D01*
X4404Y5887D01*
X4404Y5811D01*
X4404Y5887D01*
X4429Y5913D01*
X4455Y5888D01*
X4455Y5811D01*
X4506Y5812D02*
X4556Y5863D01*
X4556Y5914D01*
X4505Y5964D01*
X4394Y3658D02*
Y3709D01*
Y3683D01*
X4242D01*
X4267Y3658D01*
Y3785D02*
X4242Y3810D01*
Y3861D01*
X4267Y3886D01*
X4369D01*
X4394Y3861D01*
Y3810D01*
X4369Y3785D01*
X4267D01*
X4394Y3937D02*
X4369D01*
Y3963D01*
X4394D01*
Y3937D01*
X4242Y4166D02*
X4267Y4115D01*
X4318Y4064D01*
X4369D01*
X4394Y4090D01*
Y4140D01*
X4369Y4166D01*
X4343D01*
X4318Y4140D01*
Y4064D01*
X4242Y4318D02*
X4267Y4267D01*
X4318Y4216D01*
X4369D01*
X4394Y4242D01*
Y4293D01*
X4369Y4318D01*
X4343D01*
X4318Y4293D01*
Y4216D01*
X4267Y4369D02*
X4242Y4394D01*
Y4445D01*
X4267Y4470D01*
X4293D01*
X4318Y4445D01*
X4343Y4470D01*
X4369D01*
X4394Y4445D01*
Y4394D01*
X4369Y4369D01*
X4343D01*
X4318Y4394D01*
X4293Y4369D01*
X4267D01*
X4318Y4394D02*
Y4445D01*
X4394Y4724D02*
X4343Y4674D01*
X4293D01*
X4242Y4724D01*
X4394Y4800D02*
X4293D01*
Y4826D01*
X4318Y4851D01*
X4394D01*
X4318D01*
X4293Y4877D01*
X4318Y4902D01*
X4394D01*
Y4953D02*
X4293D01*
Y4978D01*
X4318Y5004D01*
X4394D01*
X4318D01*
X4293Y5029D01*
X4318Y5054D01*
X4394D01*
Y5105D02*
X4343Y5156D01*
X4293D01*
X4242Y5105D01*
X3762Y4747D02*
X3660D01*
Y4671D01*
X3711Y4697D01*
X3737D01*
X3762Y4671D01*
Y4620D01*
X3737Y4595D01*
X3686D01*
X3660Y4620D01*
X3813Y4595D02*
Y4620D01*
X3838D01*
Y4595D01*
X3813D01*
X3940Y4722D02*
X3965Y4747D01*
X4016D01*
X4041Y4722D01*
Y4620D01*
X4016Y4595D01*
X3965D01*
X3940Y4620D01*
Y4722D01*
X4092D02*
X4117Y4747D01*
X4168D01*
X4194Y4722D01*
Y4697D01*
X4168Y4671D01*
X4194Y4646D01*
Y4620D01*
X4168Y4595D01*
X4117D01*
X4092Y4620D01*
Y4646D01*
X4117Y4671D01*
X4092Y4697D01*
Y4722D01*
X4117Y4671D02*
X4168D01*
X4447Y4595D02*
X4397Y4646D01*
Y4697D01*
X4447Y4747D01*
X4524Y4595D02*
Y4697D01*
X4549D01*
X4574Y4671D01*
Y4595D01*
Y4671D01*
X4600Y4697D01*
X4625Y4671D01*
Y4595D01*
X4676D02*
Y4697D01*
X4701D01*
X4727Y4671D01*
Y4595D01*
Y4671D01*
X4752Y4697D01*
X4778Y4671D01*
Y4595D01*
X4828D02*
X4879Y4646D01*
Y4697D01*
X4828Y4747D01*
X3329Y8021D02*
X3227D01*
Y7945D01*
X3278Y7971D01*
X3303D01*
X3329Y7945D01*
Y7894D01*
X3303Y7869D01*
X3253D01*
X3227Y7894D01*
X3380Y7869D02*
Y7894D01*
X3405D01*
Y7869D01*
X3380D01*
X3507Y7996D02*
X3532Y8021D01*
X3583D01*
X3608Y7996D01*
Y7894D01*
X3583Y7869D01*
X3532D01*
X3507Y7894D01*
Y7996D01*
X3659D02*
X3684Y8021D01*
X3735D01*
X3761Y7996D01*
Y7894D01*
X3735Y7869D01*
X3684D01*
X3659Y7894D01*
Y7996D01*
X3811D02*
X3837Y8021D01*
X3888D01*
X3913Y7996D01*
Y7971D01*
X3888Y7945D01*
X3862D01*
X3888D01*
X3913Y7920D01*
Y7894D01*
X3888Y7869D01*
X3837D01*
X3811Y7894D01*
X3964Y7996D02*
X3989Y8021D01*
X4040D01*
X4065Y7996D01*
Y7971D01*
X4040Y7945D01*
X4065Y7920D01*
Y7894D01*
X4040Y7869D01*
X3989D01*
X3964Y7894D01*
Y7920D01*
X3989Y7945D01*
X3964Y7971D01*
Y7996D01*
X3989Y7945D02*
X4040D01*
X4319Y7869D02*
X4268Y7920D01*
Y7971D01*
X4319Y8021D01*
X4395Y7869D02*
Y7971D01*
X4421D01*
X4446Y7945D01*
Y7869D01*
Y7945D01*
X4472Y7971D01*
X4497Y7945D01*
Y7869D01*
X4548D02*
Y7971D01*
X4573D01*
X4598Y7945D01*
Y7869D01*
Y7945D01*
X4624Y7971D01*
X4649Y7945D01*
Y7869D01*
X4700D02*
X4751Y7920D01*
Y7971D01*
X4700Y8021D01*
D33*
X13292Y7366D02*
X13192D01*
X13242Y7316D02*
Y7416D01*
X6198Y5641D02*
Y5741D01*
X6148Y5691D02*
X6248D01*
X4142Y8280D02*
Y8180D01*
X4042Y8280D01*
X4017D01*
X3992Y8255D01*
Y8205D01*
X4017Y8180D01*
X4142Y7951D02*
Y8001D01*
Y7976D01*
X3992D01*
X4017Y7951D01*
Y8434D02*
X3992Y8459D01*
Y8509D01*
X4017Y8534D01*
X4042D01*
X4067Y8509D01*
Y8484D01*
Y8509D01*
X4092Y8534D01*
X4117D01*
X4142Y8509D01*
Y8459D01*
X4117Y8434D01*
X7545Y5232D02*
Y5132D01*
X7445Y5232D01*
X7420D01*
X7395Y5207D01*
Y5157D01*
X7420Y5132D01*
X7545Y4903D02*
Y4953D01*
Y4928D01*
X7395D01*
X7420Y4903D01*
Y5386D02*
X7395Y5411D01*
Y5461D01*
X7420Y5486D01*
X7445D01*
X7470Y5461D01*
Y5436D01*
Y5461D01*
X7495Y5486D01*
X7520D01*
X7545Y5461D01*
Y5411D01*
X7520Y5386D01*
X10414Y11783D02*
Y11683D01*
X10464Y11733D02*
X10364D01*
X13773Y11244D02*
Y11144D01*
X13673Y11244D01*
X13648D01*
X13623Y11219D01*
Y11169D01*
X13648Y11144D01*
X13773Y10915D02*
Y10965D01*
Y10940D01*
X13623D01*
X13648Y10915D01*
Y11398D02*
X13623Y11423D01*
Y11473D01*
X13648Y11498D01*
X13673D01*
X13698Y11473D01*
Y11448D01*
Y11473D01*
X13723Y11498D01*
X13748D01*
X13773Y11473D01*
Y11423D01*
X13748Y11398D01*
X13794Y9042D02*
Y8942D01*
X13694Y9042D01*
X13669D01*
X13644Y9017D01*
Y8967D01*
X13669Y8942D01*
X13794Y8713D02*
Y8763D01*
Y8738D01*
X13644D01*
X13669Y8713D01*
Y9196D02*
X13644Y9221D01*
Y9271D01*
X13669Y9296D01*
X13694D01*
X13719Y9271D01*
Y9246D01*
Y9271D01*
X13744Y9296D01*
X13769D01*
X13794Y9271D01*
Y9221D01*
X13769Y9196D01*
X13292Y5740D02*
X13192D01*
X13242Y5690D02*
Y5790D01*
D34*
X11159Y5232D02*
X11074D01*
X11159Y5317D01*
Y5338D01*
X11138Y5359D01*
X11096D01*
X11074Y5338D01*
X11201D02*
X11223Y5359D01*
X11265D01*
X11286Y5338D01*
Y5254D01*
X11265Y5232D01*
X11223D01*
X11201Y5254D01*
Y5338D01*
X11074Y4978D02*
X11117D01*
X11096D01*
Y5105D01*
X11074Y5084D01*
X11180Y5000D02*
X11201Y4978D01*
X11244D01*
X11265Y5000D01*
Y5084D01*
X11244Y5105D01*
X11201D01*
X11180Y5084D01*
Y5063D01*
X11201Y5042D01*
X11265D01*
X8382Y4978D02*
X8424D01*
X8403D01*
Y5105D01*
X8382Y5084D01*
X8467Y5232D02*
X8382D01*
X8467Y5317D01*
Y5338D01*
X8445Y5359D01*
X8403D01*
X8382Y5338D01*
D35*
X12567Y4115D02*
D03*
D36*
X4825Y8655D02*
D03*
X5435Y6267D02*
D03*
X12171Y11060D02*
D03*
X12395Y8960D02*
D03*
X5537Y8757D02*
D03*
X8615Y10451D02*
D03*
M02*
