%FSLAX42Y42*%
%MOMM*%
G71*
G01*
G75*
G04 Layer_Physical_Order=2*
%ADD10C,7.60*%
%ADD11C,1.50*%
%ADD12C,0.25*%
%ADD13C,3.00*%
%ADD14C,2.00*%
%ADD15O,2.00X3.00*%
%ADD16C,4.60*%
D10*
X8890Y9436D02*
D03*
X7620D02*
D03*
X6350D02*
D03*
X5080D02*
D03*
D11*
X5334Y4572D02*
X5575Y4813D01*
X9182D01*
X13208Y8839D01*
Y10211D01*
X5080Y4572D02*
Y4940D01*
X5220Y5080D01*
X8979D01*
X12954Y9055D01*
Y10211D01*
X4839Y4572D02*
Y5245D01*
X5105Y5512D01*
X8979D01*
X12700Y9233D01*
Y10211D01*
X4318Y4572D02*
Y5639D01*
X4508Y5829D01*
X8915D01*
X12446Y9360D01*
Y10211D01*
X4064Y4572D02*
Y5842D01*
X4318Y6096D01*
X8826D01*
X12192Y9461D01*
Y10211D01*
X3810Y4572D02*
Y6121D01*
X4039Y6350D01*
X8712D01*
X11938Y9576D01*
Y10211D01*
X11201Y9169D02*
Y10135D01*
X9652Y7620D02*
X11201Y9169D01*
X4356Y7620D02*
X9652D01*
X3950Y8026D02*
X4356Y7620D01*
X3950Y8026D02*
Y9779D01*
X4432Y10262D01*
X10947Y9373D02*
Y10135D01*
X9461Y7887D02*
X10947Y9373D01*
X4559Y7887D02*
X9461D01*
X4305Y8141D02*
X4559Y7887D01*
X4305Y8141D02*
Y9576D01*
X4699Y9969D01*
Y10262D01*
X10693Y10135D02*
Y10909D01*
X10325Y11278D02*
X10693Y10909D01*
X6312Y11278D02*
X10325D01*
X5715Y10681D02*
X6312Y11278D01*
X5715Y10262D02*
Y10681D01*
X10439Y10135D02*
Y10846D01*
X10185Y11074D02*
X10439Y10846D01*
X7099Y11074D02*
X10185D01*
X6274Y10262D02*
X7099Y11074D01*
X5969Y10262D02*
X6274D01*
X10185Y10135D02*
Y10643D01*
X9931Y10871D02*
X10185Y10643D01*
X7315Y10871D02*
X9931D01*
X6985Y10554D02*
X7315Y10871D01*
X6985Y10262D02*
Y10554D01*
X9931Y10135D02*
Y10503D01*
X9766Y10655D02*
X9931Y10503D01*
X7938Y10655D02*
X9766D01*
X7544Y10262D02*
X7938Y10655D01*
X7239Y10262D02*
X7544D01*
X9690Y10058D02*
Y10135D01*
X9538Y9906D02*
X9690Y10058D01*
X8395Y9906D02*
X9538D01*
X8255Y10046D02*
X8395Y9906D01*
X8255Y10046D02*
Y10262D01*
X9296D02*
X9423Y10135D01*
X8509Y10262D02*
X9296D01*
X9322Y8306D02*
Y9423D01*
X9157Y8141D02*
X9322Y8306D01*
X8471Y8293D02*
X8636Y8128D01*
X8471Y8293D02*
Y9436D01*
X8052Y8306D02*
Y9436D01*
X7874Y8128D02*
X8052Y8306D01*
X7201D02*
Y9436D01*
Y8306D02*
X7379Y8128D01*
X6769Y8293D02*
Y9436D01*
X6604Y8128D02*
X6769Y8293D01*
X5918Y8306D02*
X6096Y8128D01*
X5918Y8306D02*
Y9423D01*
X5347Y8128D02*
X5499Y8280D01*
X4648Y8306D02*
X4826Y8128D01*
X5499Y8280D02*
Y9436D01*
X4648Y8306D02*
Y9436D01*
D12*
X4432Y10262D02*
X4445D01*
X8001Y10198D02*
Y10350D01*
X7925Y10274D01*
X8026D01*
X7391Y10630D02*
X7417Y10655D01*
X7468D01*
X7493Y10630D01*
Y10604D01*
X7468Y10579D01*
X7442D01*
X7468D01*
X7493Y10554D01*
Y10528D01*
X7468Y10503D01*
X7417D01*
X7391Y10528D01*
X6236Y10528D02*
X6134D01*
X6236Y10630D01*
Y10655D01*
X6210Y10681D01*
X6159D01*
X6134Y10655D01*
X4890Y10516D02*
X4940D01*
X4915D01*
Y10668D01*
X4890Y10643D01*
X9627Y9436D02*
Y9588D01*
X9703D01*
X9728Y9563D01*
Y9512D01*
X9703Y9487D01*
X9627D01*
X9677D02*
X9728Y9436D01*
X9881Y9588D02*
X9779D01*
Y9436D01*
X9881D01*
X9779Y9512D02*
X9830D01*
X10033Y9563D02*
X10007Y9588D01*
X9957D01*
X9931Y9563D01*
Y9538D01*
X9957Y9512D01*
X10007D01*
X10033Y9487D01*
Y9461D01*
X10007Y9436D01*
X9957D01*
X9931Y9461D01*
X10185Y9588D02*
X10084D01*
Y9436D01*
X10185D01*
X10084Y9512D02*
X10134D01*
X10236Y9588D02*
X10338D01*
X10287D01*
Y9436D01*
X7353Y10008D02*
X7328Y10033D01*
X7277D01*
X7252Y10008D01*
Y9982D01*
X7277Y9957D01*
X7328D01*
X7353Y9931D01*
Y9906D01*
X7328Y9881D01*
X7277D01*
X7252Y9906D01*
X7404Y10033D02*
Y9881D01*
Y9957D01*
X7506D01*
Y10033D01*
Y9881D01*
X7633Y10033D02*
X7582D01*
X7556Y10008D01*
Y9906D01*
X7582Y9881D01*
X7633D01*
X7658Y9906D01*
Y10008D01*
X7633Y10033D01*
X7709Y9881D02*
Y10033D01*
X7785D01*
X7810Y10008D01*
Y9957D01*
X7785Y9931D01*
X7709D01*
X7760D02*
X7810Y9881D01*
X7861Y10033D02*
X7963D01*
X7912D01*
Y9881D01*
X6109Y10008D02*
X6083Y10033D01*
X6032D01*
X6007Y10008D01*
Y9982D01*
X6032Y9957D01*
X6083D01*
X6109Y9931D01*
Y9906D01*
X6083Y9881D01*
X6032D01*
X6007Y9906D01*
X6159Y10033D02*
X6261D01*
X6210D01*
Y9881D01*
X6312D02*
Y9982D01*
X6363Y10033D01*
X6413Y9982D01*
Y9881D01*
Y9957D01*
X6312D01*
X6464Y9881D02*
Y10033D01*
X6540D01*
X6566Y10008D01*
Y9957D01*
X6540Y9931D01*
X6464D01*
X6515D02*
X6566Y9881D01*
X6617Y10033D02*
X6718D01*
X6667D01*
Y9881D01*
X4864D02*
Y10033D01*
X4915Y9982D01*
X4966Y10033D01*
Y9881D01*
X5093Y10033D02*
X5042D01*
X5016Y10008D01*
Y9906D01*
X5042Y9881D01*
X5093D01*
X5118Y9906D01*
Y10008D01*
X5093Y10033D01*
X5169D02*
Y9881D01*
X5245D01*
X5270Y9906D01*
Y10008D01*
X5245Y10033D01*
X5169D01*
X5423D02*
X5321D01*
Y9881D01*
X5423D01*
X5321Y9957D02*
X5372D01*
X3289Y3556D02*
Y11887D01*
X16218D01*
X16231Y3569D02*
Y11875D01*
X3289Y3556D02*
X16218D01*
D13*
X9322Y9423D02*
D03*
X8471Y9436D02*
D03*
X8052D02*
D03*
X7201D02*
D03*
X6769D02*
D03*
X5918Y9423D02*
D03*
X5499Y9436D02*
D03*
X4648D02*
D03*
D14*
X9144Y8128D02*
D03*
X8636D02*
D03*
X7874D02*
D03*
X7379D02*
D03*
X6604D02*
D03*
X6096D02*
D03*
X5347D02*
D03*
X4826D02*
D03*
X11201Y10135D02*
D03*
X10947D02*
D03*
X10693D02*
D03*
X10439D02*
D03*
X10185D02*
D03*
X9931D02*
D03*
X9690D02*
D03*
X9423D02*
D03*
X5334Y4572D02*
D03*
X5080D02*
D03*
X4839D02*
D03*
X4318D02*
D03*
X4064D02*
D03*
X3810D02*
D03*
D15*
X13208Y10211D02*
D03*
X12954D02*
D03*
X12700D02*
D03*
X12446D02*
D03*
X12192D02*
D03*
X11938D02*
D03*
X8509Y10262D02*
D03*
X8255D02*
D03*
X7239D02*
D03*
X6985D02*
D03*
X5969D02*
D03*
X5715D02*
D03*
X4699D02*
D03*
X4445D02*
D03*
D16*
X12941Y6096D02*
D03*
X12192D02*
D03*
X8382Y6858D02*
D03*
X7112D02*
D03*
X5842D02*
D03*
X4559D02*
D03*
M02*
